<?xml version="1.0" encoding="UTF-8" standalone="no"?>
<!DOCTYPE svg PUBLIC "-//W3C//DTD SVG 1.1//EN"
 "http://www.w3.org/Graphics/SVG/1.1/DTD/svg11.dtd">
<!-- Generated by graphviz version 2.40.1 (20161225.0304)
 -->
<!-- Title: dependencies Pages: 1 -->
<svg width="504pt" height="284pt"
 viewBox="0.00 0.00 504.00 284.00" xmlns="http://www.w3.org/2000/svg" xmlns:xlink="http://www.w3.org/1999/xlink">
<g id="graph0" class="graph" transform="scale(1 1) rotate(0) translate(4 280)">
<title>dependencies</title>
<polygon fill="#ffffff" stroke="transparent" points="-4,4 -4,-280 500,-280 500,4 -4,4"/>
<text text-anchor="start" x="227.0091" y="-42.4" font-family="sans-serif" font-weight="bold" font-size="14.00" fill="#000000">Legend</text>
<polygon fill="#ffffb3" stroke="transparent" points="14,-10 14,-30 34,-30 34,-10 14,-10"/>
<text text-anchor="start" x="37.629" y="-15.4" font-family="sans-serif" font-size="14.00" fill="#000000"> &#160;Declarations</text>
<polygon fill="#8dd3c7" stroke="transparent" points="127,-10 127,-30 147,-30 147,-10 127,-10"/>
<text text-anchor="start" x="150.7251" y="-15.4" font-family="sans-serif" font-size="14.00" fill="#000000"> &#160;Module</text>
<polygon fill="#80b1d3" stroke="transparent" points="213,-10 213,-30 233,-30 233,-10 213,-10"/>
<text text-anchor="start" x="236.7812" y="-15.4" font-family="sans-serif" font-size="14.00" fill="#000000"> &#160;Bootstrap</text>
<polygon fill="#fdb462" stroke="transparent" points="310,-10 310,-30 330,-30 330,-10 310,-10"/>
<text text-anchor="start" x="333.6732" y="-15.4" font-family="sans-serif" font-size="14.00" fill="#000000"> &#160;Providers</text>
<polygon fill="#fb8072" stroke="transparent" points="406,-10 406,-30 426,-30 426,-10 406,-10"/>
<text text-anchor="start" x="429.7258" y="-15.4" font-family="sans-serif" font-size="14.00" fill="#000000"> &#160;Exports</text>
<g id="clust1" class="cluster">
<title>cluster_DocumentModule</title>
<polygon fill="none" stroke="#000000" stroke-dasharray="1,5" points="10,-70 10,-268 486,-268 486,-70 10,-70"/>
</g>
<g id="clust2" class="cluster">
<title>cluster_DocumentModule_declarations</title>
<polygon fill="none" stroke="#000000" points="132,-78 132,-130 478,-130 478,-78 132,-78"/>
</g>
<g id="clust5" class="cluster">
<title>cluster_DocumentModule_imports</title>
<polygon fill="none" stroke="#000000" points="18,-78 18,-130 124,-130 124,-78 18,-78"/>
</g>
<g id="clust6" class="cluster">
<title>cluster_DocumentModule_exports</title>
<polygon fill="none" stroke="#000000" points="112,-208 112,-260 306,-260 306,-208 112,-208"/>
</g>
<!-- DocumentDetailComponent -->
<g id="node1" class="node">
<title>DocumentDetailComponent</title>
<polygon fill="#ffffb3" stroke="#000000" points="469.8571,-122 296.1429,-122 296.1429,-86 469.8571,-86 469.8571,-122"/>
<text text-anchor="middle" x="383" y="-99.8" font-family="Times,serif" font-size="14.00" fill="#000000">DocumentDetailComponent</text>
</g>
<!-- DocumentModule -->
<g id="node3" class="node">
<title>DocumentModule</title>
<polygon fill="#8dd3c7" stroke="#000000" points="267.8669,-187 264.8669,-191 243.8669,-191 240.8669,-187 150.1331,-187 150.1331,-151 267.8669,-151 267.8669,-187"/>
<text text-anchor="middle" x="209" y="-164.8" font-family="Times,serif" font-size="14.00" fill="#000000">DocumentModule</text>
</g>
<!-- DocumentDetailComponent&#45;&gt;DocumentModule -->
<g id="edge1" class="edge">
<title>DocumentDetailComponent&#45;&gt;DocumentModule</title>
<path fill="none" stroke="#000000" d="M383.8035,-122.1061C383.8035,-141.3391 383.8035,-169 383.8035,-169 383.8035,-169 278.1805,-169 278.1805,-169"/>
<polygon fill="#000000" stroke="#000000" points="278.1805,-165.5001 268.1805,-169 278.1805,-172.5001 278.1805,-165.5001"/>
</g>
<!-- KeyValueComponent -->
<g id="node2" class="node">
<title>KeyValueComponent</title>
<polygon fill="#ffffb3" stroke="#000000" points="278.08,-122 139.92,-122 139.92,-86 278.08,-86 278.08,-122"/>
<text text-anchor="middle" x="209" y="-99.8" font-family="Times,serif" font-size="14.00" fill="#000000">KeyValueComponent</text>
</g>
<!-- KeyValueComponent&#45;&gt;DocumentModule -->
<g id="edge2" class="edge">
<title>KeyValueComponent&#45;&gt;DocumentModule</title>
<path fill="none" stroke="#000000" d="M209,-122.1061C209,-122.1061 209,-140.991 209,-140.991"/>
<polygon fill="#000000" stroke="#000000" points="205.5001,-140.9909 209,-150.991 212.5001,-140.991 205.5001,-140.9909"/>
</g>
<!-- DocumentDetailComponent  -->
<g id="node5" class="node">
<title>DocumentDetailComponent </title>
<polygon fill="#fb8072" stroke="#000000" points="297.8574,-252 120.1426,-252 120.1426,-216 297.8574,-216 297.8574,-252"/>
<text text-anchor="middle" x="209" y="-229.8" font-family="Times,serif" font-size="14.00" fill="#000000">DocumentDetailComponent </text>
</g>
<!-- DocumentModule&#45;&gt;DocumentDetailComponent  -->
<g id="edge4" class="edge">
<title>DocumentModule&#45;&gt;DocumentDetailComponent </title>
<path fill="none" stroke="#000000" stroke-dasharray="5,2" d="M209,-187.1061C209,-187.1061 209,-205.991 209,-205.991"/>
<polygon fill="#000000" stroke="#000000" points="205.5001,-205.9909 209,-215.991 212.5001,-205.991 205.5001,-205.9909"/>
</g>
<!-- InputModule -->
<g id="node4" class="node">
<title>InputModule</title>
<polygon fill="#8dd3c7" stroke="#000000" points="115.6011,-122 112.6011,-126 91.6011,-126 88.6011,-122 26.3989,-122 26.3989,-86 115.6011,-86 115.6011,-122"/>
<text text-anchor="middle" x="71" y="-99.8" font-family="Times,serif" font-size="14.00" fill="#000000">InputModule</text>
</g>
<!-- InputModule&#45;&gt;DocumentModule -->
<g id="edge3" class="edge">
<title>InputModule&#45;&gt;DocumentModule</title>
<path fill="none" stroke="#000000" d="M71,-122.1061C71,-141.3391 71,-169 71,-169 71,-169 140.0753,-169 140.0753,-169"/>
<polygon fill="#000000" stroke="#000000" points="140.0753,-172.5001 150.0753,-169 140.0753,-165.5001 140.0753,-172.5001"/>
</g>
</g>
</svg>
