<?xml version="1.0" encoding="UTF-8" standalone="no"?>
<!DOCTYPE svg PUBLIC "-//W3C//DTD SVG 1.1//EN"
 "http://www.w3.org/Graphics/SVG/1.1/DTD/svg11.dtd">
<!-- Generated by graphviz version 2.40.1 (20161225.0304)
 -->
<!-- Title: dependencies Pages: 1 -->
<svg width="1133pt" height="284pt"
 viewBox="0.00 0.00 1133.00 284.00" xmlns="http://www.w3.org/2000/svg" xmlns:xlink="http://www.w3.org/1999/xlink">
<g id="graph0" class="graph" transform="scale(1 1) rotate(0) translate(4 280)">
<title>dependencies</title>
<polygon fill="#ffffff" stroke="transparent" points="-4,4 -4,-280 1129,-280 1129,4 -4,4"/>
<text text-anchor="start" x="541.5091" y="-42.4" font-family="sans-serif" font-weight="bold" font-size="14.00" fill="#000000">Legend</text>
<polygon fill="#ffffb3" stroke="transparent" points="328.5,-10 328.5,-30 348.5,-30 348.5,-10 328.5,-10"/>
<text text-anchor="start" x="352.129" y="-15.4" font-family="sans-serif" font-size="14.00" fill="#000000"> &#160;Declarations</text>
<polygon fill="#8dd3c7" stroke="transparent" points="441.5,-10 441.5,-30 461.5,-30 461.5,-10 441.5,-10"/>
<text text-anchor="start" x="465.2251" y="-15.4" font-family="sans-serif" font-size="14.00" fill="#000000"> &#160;Module</text>
<polygon fill="#80b1d3" stroke="transparent" points="527.5,-10 527.5,-30 547.5,-30 547.5,-10 527.5,-10"/>
<text text-anchor="start" x="551.2812" y="-15.4" font-family="sans-serif" font-size="14.00" fill="#000000"> &#160;Bootstrap</text>
<polygon fill="#fdb462" stroke="transparent" points="624.5,-10 624.5,-30 644.5,-30 644.5,-10 624.5,-10"/>
<text text-anchor="start" x="648.1732" y="-15.4" font-family="sans-serif" font-size="14.00" fill="#000000"> &#160;Providers</text>
<polygon fill="#fb8072" stroke="transparent" points="720.5,-10 720.5,-30 740.5,-30 740.5,-10 720.5,-10"/>
<text text-anchor="start" x="744.2258" y="-15.4" font-family="sans-serif" font-size="14.00" fill="#000000"> &#160;Exports</text>
<g id="clust1" class="cluster">
<title>cluster_ResourceMenuModule</title>
<polygon fill="none" stroke="#000000" stroke-dasharray="1,5" points="8,-70 8,-268 1117,-268 1117,-70 8,-70"/>
</g>
<g id="clust2" class="cluster">
<title>cluster_ResourceMenuModule_declarations</title>
<polygon fill="none" stroke="#000000" points="16,-78 16,-130 1109,-130 1109,-78 16,-78"/>
</g>
<g id="clust10" class="cluster">
<title>cluster_ResourceMenuModule_exports</title>
<polygon fill="none" stroke="#000000" points="494,-208 494,-260 680,-260 680,-208 494,-208"/>
</g>
<!-- CanCreateResourcePipe -->
<g id="node1" class="node">
<title>CanCreateResourcePipe</title>
<polygon fill="#ffffb3" stroke="#000000" points="1101.0562,-122 948.9438,-122 948.9438,-86 1101.0562,-86 1101.0562,-122"/>
<text text-anchor="middle" x="1025" y="-99.8" font-family="Times,serif" font-size="14.00" fill="#000000">CanCreateResourcePipe</text>
</g>
<!-- ResourceMenuModule -->
<g id="node7" class="node">
<title>ResourceMenuModule</title>
<polygon fill="#8dd3c7" stroke="#000000" points="659.2949,-187 656.2949,-191 635.2949,-191 632.2949,-187 514.7051,-187 514.7051,-151 659.2949,-151 659.2949,-187"/>
<text text-anchor="middle" x="587" y="-164.8" font-family="Times,serif" font-size="14.00" fill="#000000">ResourceMenuModule</text>
</g>
<!-- CanCreateResourcePipe&#45;&gt;ResourceMenuModule -->
<g id="edge1" class="edge">
<title>CanCreateResourcePipe&#45;&gt;ResourceMenuModule</title>
<path fill="none" stroke="#000000" d="M1025,-122.2843C1025,-143.3211 1025,-175 1025,-175 1025,-175 669.3268,-175 669.3268,-175"/>
<polygon fill="#000000" stroke="#000000" points="669.3268,-171.5001 659.3268,-175 669.3268,-178.5001 669.3268,-171.5001"/>
</g>
<!-- IsOrganizationTypePipe -->
<g id="node2" class="node">
<title>IsOrganizationTypePipe</title>
<polygon fill="#ffffb3" stroke="#000000" points="931.3431,-122 778.6569,-122 778.6569,-86 931.3431,-86 931.3431,-122"/>
<text text-anchor="middle" x="855" y="-99.8" font-family="Times,serif" font-size="14.00" fill="#000000">IsOrganizationTypePipe</text>
</g>
<!-- IsOrganizationTypePipe&#45;&gt;ResourceMenuModule -->
<g id="edge2" class="edge">
<title>IsOrganizationTypePipe&#45;&gt;ResourceMenuModule</title>
<path fill="none" stroke="#000000" d="M855,-122.0225C855,-139.3734 855,-163 855,-163 855,-163 669.1716,-163 669.1716,-163"/>
<polygon fill="#000000" stroke="#000000" points="669.1717,-159.5001 659.1716,-163 669.1716,-166.5001 669.1717,-159.5001"/>
</g>
<!-- ResourceDetailComponent -->
<g id="node3" class="node">
<title>ResourceDetailComponent</title>
<polygon fill="#ffffb3" stroke="#000000" points="760.626,-122 593.374,-122 593.374,-86 760.626,-86 760.626,-122"/>
<text text-anchor="middle" x="677" y="-99.8" font-family="Times,serif" font-size="14.00" fill="#000000">ResourceDetailComponent</text>
</g>
<!-- ResourceDetailComponent&#45;&gt;ResourceMenuModule -->
<g id="edge3" class="edge">
<title>ResourceDetailComponent&#45;&gt;ResourceMenuModule</title>
<path fill="none" stroke="#000000" d="M626.1673,-122.1061C626.1673,-122.1061 626.1673,-140.991 626.1673,-140.991"/>
<polygon fill="#000000" stroke="#000000" points="622.6673,-140.9909 626.1673,-150.991 629.6673,-140.991 622.6673,-140.9909"/>
</g>
<!-- ResourceListComponent -->
<g id="node4" class="node">
<title>ResourceListComponent</title>
<polygon fill="#ffffb3" stroke="#000000" points="575.6965,-122 420.3035,-122 420.3035,-86 575.6965,-86 575.6965,-122"/>
<text text-anchor="middle" x="498" y="-99.8" font-family="Times,serif" font-size="14.00" fill="#000000">ResourceListComponent</text>
</g>
<!-- ResourceListComponent&#45;&gt;ResourceMenuModule -->
<g id="edge4" class="edge">
<title>ResourceListComponent&#45;&gt;ResourceMenuModule</title>
<path fill="none" stroke="#000000" d="M545.2255,-122.1061C545.2255,-122.1061 545.2255,-140.991 545.2255,-140.991"/>
<polygon fill="#000000" stroke="#000000" points="541.7255,-140.9909 545.2255,-150.991 548.7255,-140.991 541.7255,-140.9909"/>
</g>
<!-- ResourceMenuComponent -->
<g id="node5" class="node">
<title>ResourceMenuComponent</title>
<polygon fill="#ffffb3" stroke="#000000" points="402.0772,-122 235.9228,-122 235.9228,-86 402.0772,-86 402.0772,-122"/>
<text text-anchor="middle" x="319" y="-99.8" font-family="Times,serif" font-size="14.00" fill="#000000">ResourceMenuComponent</text>
</g>
<!-- ResourceMenuComponent&#45;&gt;ResourceMenuModule -->
<g id="edge5" class="edge">
<title>ResourceMenuComponent&#45;&gt;ResourceMenuModule</title>
<path fill="none" stroke="#000000" d="M319,-122.0225C319,-139.3734 319,-163 319,-163 319,-163 504.8284,-163 504.8284,-163"/>
<polygon fill="#000000" stroke="#000000" points="504.8284,-166.5001 514.8284,-163 504.8283,-159.5001 504.8284,-166.5001"/>
</g>
<!-- ResourceStatusLineComponent -->
<g id="node6" class="node">
<title>ResourceStatusLineComponent</title>
<polygon fill="#ffffb3" stroke="#000000" points="217.799,-122 24.201,-122 24.201,-86 217.799,-86 217.799,-122"/>
<text text-anchor="middle" x="121" y="-99.8" font-family="Times,serif" font-size="14.00" fill="#000000">ResourceStatusLineComponent</text>
</g>
<!-- ResourceStatusLineComponent&#45;&gt;ResourceMenuModule -->
<g id="edge6" class="edge">
<title>ResourceStatusLineComponent&#45;&gt;ResourceMenuModule</title>
<path fill="none" stroke="#000000" d="M121,-122.2843C121,-143.3211 121,-175 121,-175 121,-175 504.6988,-175 504.6988,-175"/>
<polygon fill="#000000" stroke="#000000" points="504.6988,-178.5001 514.6988,-175 504.6988,-171.5001 504.6988,-178.5001"/>
</g>
<!-- ResourceMenuComponent  -->
<g id="node8" class="node">
<title>ResourceMenuComponent </title>
<polygon fill="#fb8072" stroke="#000000" points="671.5777,-252 502.4223,-252 502.4223,-216 671.5777,-216 671.5777,-252"/>
<text text-anchor="middle" x="587" y="-229.8" font-family="Times,serif" font-size="14.00" fill="#000000">ResourceMenuComponent </text>
</g>
<!-- ResourceMenuModule&#45;&gt;ResourceMenuComponent  -->
<g id="edge7" class="edge">
<title>ResourceMenuModule&#45;&gt;ResourceMenuComponent </title>
<path fill="none" stroke="#000000" stroke-dasharray="5,2" d="M587,-187.1061C587,-187.1061 587,-205.991 587,-205.991"/>
<polygon fill="#000000" stroke="#000000" points="583.5001,-205.9909 587,-215.991 590.5001,-205.991 583.5001,-205.9909"/>
</g>
</g>
</svg>
