<?xml version="1.0" encoding="UTF-8" standalone="no"?>
<!DOCTYPE svg PUBLIC "-//W3C//DTD SVG 1.1//EN"
 "http://www.w3.org/Graphics/SVG/1.1/DTD/svg11.dtd">
<!-- Generated by graphviz version 2.40.1 (20161225.0304)
 -->
<!-- Title: dependencies Pages: 1 -->
<svg width="504pt" height="284pt"
 viewBox="0.00 0.00 504.00 284.00" xmlns="http://www.w3.org/2000/svg" xmlns:xlink="http://www.w3.org/1999/xlink">
<g id="graph0" class="graph" transform="scale(1 1) rotate(0) translate(4 280)">
<title>dependencies</title>
<polygon fill="#ffffff" stroke="transparent" points="-4,4 -4,-280 500,-280 500,4 -4,4"/>
<text text-anchor="start" x="227.0091" y="-42.4" font-family="sans-serif" font-weight="bold" font-size="14.00" fill="#000000">Legend</text>
<polygon fill="#ffffb3" stroke="transparent" points="14,-10 14,-30 34,-30 34,-10 14,-10"/>
<text text-anchor="start" x="37.629" y="-15.4" font-family="sans-serif" font-size="14.00" fill="#000000"> &#160;Declarations</text>
<polygon fill="#8dd3c7" stroke="transparent" points="127,-10 127,-30 147,-30 147,-10 127,-10"/>
<text text-anchor="start" x="150.7251" y="-15.4" font-family="sans-serif" font-size="14.00" fill="#000000"> &#160;Module</text>
<polygon fill="#80b1d3" stroke="transparent" points="213,-10 213,-30 233,-30 233,-10 213,-10"/>
<text text-anchor="start" x="236.7812" y="-15.4" font-family="sans-serif" font-size="14.00" fill="#000000"> &#160;Bootstrap</text>
<polygon fill="#fdb462" stroke="transparent" points="310,-10 310,-30 330,-30 330,-10 310,-10"/>
<text text-anchor="start" x="333.6732" y="-15.4" font-family="sans-serif" font-size="14.00" fill="#000000"> &#160;Providers</text>
<polygon fill="#fb8072" stroke="transparent" points="406,-10 406,-30 426,-30 426,-10 406,-10"/>
<text text-anchor="start" x="429.7258" y="-15.4" font-family="sans-serif" font-size="14.00" fill="#000000"> &#160;Exports</text>
<g id="clust1" class="cluster">
<title>cluster_DragAndDropModule</title>
<polygon fill="none" stroke="#000000" stroke-dasharray="1,5" points="22,-70 22,-268 474,-268 474,-70 22,-70"/>
</g>
<g id="clust2" class="cluster">
<title>cluster_DragAndDropModule_declarations</title>
<polygon fill="none" stroke="#000000" points="172,-78 172,-130 466,-130 466,-78 172,-78"/>
</g>
<g id="clust6" class="cluster">
<title>cluster_DragAndDropModule_exports</title>
<polygon fill="none" stroke="#000000" points="98,-208 98,-260 398,-260 398,-208 98,-208"/>
</g>
<g id="clust8" class="cluster">
<title>cluster_DragAndDropModule_providers</title>
<polygon fill="none" stroke="#000000" points="30,-78 30,-130 164,-130 164,-78 30,-78"/>
</g>
<!-- DraggableDirective -->
<g id="node1" class="node">
<title>DraggableDirective</title>
<polygon fill="#ffffb3" stroke="#000000" points="458.385,-122 331.615,-122 331.615,-86 458.385,-86 458.385,-122"/>
<text text-anchor="middle" x="395" y="-99.8" font-family="Times,serif" font-size="14.00" fill="#000000">DraggableDirective</text>
</g>
<!-- DragAndDropModule -->
<g id="node3" class="node">
<title>DragAndDropModule</title>
<polygon fill="#8dd3c7" stroke="#000000" points="317.406,-187 314.406,-191 293.406,-191 290.406,-187 176.594,-187 176.594,-151 317.406,-151 317.406,-187"/>
<text text-anchor="middle" x="247" y="-164.8" font-family="Times,serif" font-size="14.00" fill="#000000">DragAndDropModule</text>
</g>
<!-- DraggableDirective&#45;&gt;DragAndDropModule -->
<g id="edge1" class="edge">
<title>DraggableDirective&#45;&gt;DragAndDropModule</title>
<path fill="none" stroke="#000000" d="M360.875,-122.1061C360.875,-141.3391 360.875,-169 360.875,-169 360.875,-169 327.4989,-169 327.4989,-169"/>
<polygon fill="#000000" stroke="#000000" points="327.4989,-165.5001 317.4989,-169 327.4989,-172.5001 327.4989,-165.5001"/>
</g>
<!-- DropTargetDirective -->
<g id="node2" class="node">
<title>DropTargetDirective</title>
<polygon fill="#ffffb3" stroke="#000000" points="313.8836,-122 180.1164,-122 180.1164,-86 313.8836,-86 313.8836,-122"/>
<text text-anchor="middle" x="247" y="-99.8" font-family="Times,serif" font-size="14.00" fill="#000000">DropTargetDirective</text>
</g>
<!-- DropTargetDirective&#45;&gt;DragAndDropModule -->
<g id="edge2" class="edge">
<title>DropTargetDirective&#45;&gt;DragAndDropModule</title>
<path fill="none" stroke="#000000" d="M247,-122.1061C247,-122.1061 247,-140.991 247,-140.991"/>
<polygon fill="#000000" stroke="#000000" points="243.5001,-140.9909 247,-150.991 250.5001,-140.991 243.5001,-140.9909"/>
</g>
<!-- DraggableDirective  -->
<g id="node4" class="node">
<title>DraggableDirective </title>
<polygon fill="#fb8072" stroke="#000000" points="389.8845,-252 260.1155,-252 260.1155,-216 389.8845,-216 389.8845,-252"/>
<text text-anchor="middle" x="325" y="-229.8" font-family="Times,serif" font-size="14.00" fill="#000000">DraggableDirective </text>
</g>
<!-- DragAndDropModule&#45;&gt;DraggableDirective  -->
<g id="edge3" class="edge">
<title>DragAndDropModule&#45;&gt;DraggableDirective </title>
<path fill="none" stroke="#000000" stroke-dasharray="5,2" d="M288.6303,-187.1061C288.6303,-187.1061 288.6303,-205.991 288.6303,-205.991"/>
<polygon fill="#000000" stroke="#000000" points="285.1303,-205.9909 288.6303,-215.991 292.1303,-205.991 285.1303,-205.9909"/>
</g>
<!-- DropTargetDirective  -->
<g id="node5" class="node">
<title>DropTargetDirective </title>
<polygon fill="#fb8072" stroke="#000000" points="242.383,-252 105.617,-252 105.617,-216 242.383,-216 242.383,-252"/>
<text text-anchor="middle" x="174" y="-229.8" font-family="Times,serif" font-size="14.00" fill="#000000">DropTargetDirective </text>
</g>
<!-- DragAndDropModule&#45;&gt;DropTargetDirective  -->
<g id="edge4" class="edge">
<title>DragAndDropModule&#45;&gt;DropTargetDirective </title>
<path fill="none" stroke="#000000" stroke-dasharray="5,2" d="M209.6194,-187.1061C209.6194,-187.1061 209.6194,-205.991 209.6194,-205.991"/>
<polygon fill="#000000" stroke="#000000" points="206.1195,-205.9909 209.6194,-215.991 213.1195,-205.991 206.1195,-205.9909"/>
</g>
<!-- DragService -->
<g id="node6" class="node">
<title>DragService</title>
<ellipse fill="#fdb462" stroke="#000000" cx="97" cy="-104" rx="59.0872" ry="18"/>
<text text-anchor="middle" x="97" y="-99.8" font-family="Times,serif" font-size="14.00" fill="#000000">DragService</text>
</g>
<!-- DragService&#45;&gt;DragAndDropModule -->
<g id="edge5" class="edge">
<title>DragService&#45;&gt;DragAndDropModule</title>
<path fill="none" stroke="#000000" d="M130.9259,-119.0757C130.9259,-138.2773 130.9259,-169 130.9259,-169 130.9259,-169 166.4683,-169 166.4683,-169"/>
<polygon fill="#000000" stroke="#000000" points="166.4683,-172.5001 176.4683,-169 166.4683,-165.5001 166.4683,-172.5001"/>
</g>
</g>
</svg>
