<?xml version="1.0" encoding="UTF-8" standalone="no"?>
<!DOCTYPE svg PUBLIC "-//W3C//DTD SVG 1.1//EN"
 "http://www.w3.org/Graphics/SVG/1.1/DTD/svg11.dtd">
<!-- Generated by graphviz version 2.40.1 (20161225.0304)
 -->
<!-- Title: dependencies Pages: 1 -->
<svg width="504pt" height="284pt"
 viewBox="0.00 0.00 504.00 284.00" xmlns="http://www.w3.org/2000/svg" xmlns:xlink="http://www.w3.org/1999/xlink">
<g id="graph0" class="graph" transform="scale(1 1) rotate(0) translate(4 280)">
<title>dependencies</title>
<polygon fill="#ffffff" stroke="transparent" points="-4,4 -4,-280 500,-280 500,4 -4,4"/>
<text text-anchor="start" x="227.0091" y="-42.4" font-family="sans-serif" font-weight="bold" font-size="14.00" fill="#000000">Legend</text>
<polygon fill="#ffffb3" stroke="transparent" points="14,-10 14,-30 34,-30 34,-10 14,-10"/>
<text text-anchor="start" x="37.629" y="-15.4" font-family="sans-serif" font-size="14.00" fill="#000000"> &#160;Declarations</text>
<polygon fill="#8dd3c7" stroke="transparent" points="127,-10 127,-30 147,-30 147,-10 127,-10"/>
<text text-anchor="start" x="150.7251" y="-15.4" font-family="sans-serif" font-size="14.00" fill="#000000"> &#160;Module</text>
<polygon fill="#80b1d3" stroke="transparent" points="213,-10 213,-30 233,-30 233,-10 213,-10"/>
<text text-anchor="start" x="236.7812" y="-15.4" font-family="sans-serif" font-size="14.00" fill="#000000"> &#160;Bootstrap</text>
<polygon fill="#fdb462" stroke="transparent" points="310,-10 310,-30 330,-30 330,-10 310,-10"/>
<text text-anchor="start" x="333.6732" y="-15.4" font-family="sans-serif" font-size="14.00" fill="#000000"> &#160;Providers</text>
<polygon fill="#fb8072" stroke="transparent" points="406,-10 406,-30 426,-30 426,-10 406,-10"/>
<text text-anchor="start" x="429.7258" y="-15.4" font-family="sans-serif" font-size="14.00" fill="#000000"> &#160;Exports</text>
<g id="clust1" class="cluster">
<title>cluster_InputModule</title>
<polygon fill="none" stroke="#000000" stroke-dasharray="1,5" points="85,-70 85,-268 411,-268 411,-70 85,-70"/>
</g>
<g id="clust2" class="cluster">
<title>cluster_InputModule_declarations</title>
<polygon fill="none" stroke="#000000" points="97,-78 97,-130 400,-130 400,-78 97,-78"/>
</g>
<g id="clust6" class="cluster">
<title>cluster_InputModule_exports</title>
<polygon fill="none" stroke="#000000" points="93,-208 93,-260 403,-260 403,-208 93,-208"/>
</g>
<!-- FilterBoxComponent -->
<g id="node1" class="node">
<title>FilterBoxComponent</title>
<polygon fill="#ffffb3" stroke="#000000" points="392.4986,-122 257.5014,-122 257.5014,-86 392.4986,-86 392.4986,-122"/>
<text text-anchor="middle" x="325" y="-99.8" font-family="Times,serif" font-size="14.00" fill="#000000">FilterBoxComponent</text>
</g>
<!-- InputModule -->
<g id="node3" class="node">
<title>InputModule</title>
<polygon fill="#8dd3c7" stroke="#000000" points="217.6011,-187 214.6011,-191 193.6011,-191 190.6011,-187 128.3989,-187 128.3989,-151 217.6011,-151 217.6011,-187"/>
<text text-anchor="middle" x="173" y="-164.8" font-family="Times,serif" font-size="14.00" fill="#000000">InputModule</text>
</g>
<!-- FilterBoxComponent&#45;&gt;InputModule -->
<g id="edge1" class="edge">
<title>FilterBoxComponent&#45;&gt;InputModule</title>
<path fill="none" stroke="#000000" d="M347.4998,-122.0225C347.4998,-139.3734 347.4998,-163 347.4998,-163 347.4998,-163 227.938,-163 227.938,-163"/>
<polygon fill="#000000" stroke="#000000" points="227.9381,-159.5001 217.938,-163 227.938,-166.5001 227.9381,-159.5001"/>
</g>
<!-- InputBoxComponent -->
<g id="node2" class="node">
<title>InputBoxComponent</title>
<polygon fill="#ffffb3" stroke="#000000" points="239.2204,-122 104.7796,-122 104.7796,-86 239.2204,-86 239.2204,-122"/>
<text text-anchor="middle" x="172" y="-99.8" font-family="Times,serif" font-size="14.00" fill="#000000">InputBoxComponent</text>
</g>
<!-- InputBoxComponent&#45;&gt;InputModule -->
<g id="edge2" class="edge">
<title>InputBoxComponent&#45;&gt;InputModule</title>
<path fill="none" stroke="#000000" d="M173,-122.1061C173,-122.1061 173,-140.991 173,-140.991"/>
<polygon fill="#000000" stroke="#000000" points="169.5001,-140.9909 173,-150.991 176.5001,-140.991 169.5001,-140.9909"/>
</g>
<!-- FilterBoxComponent  -->
<g id="node4" class="node">
<title>FilterBoxComponent </title>
<polygon fill="#fb8072" stroke="#000000" points="395.4995,-252 256.5005,-252 256.5005,-216 395.4995,-216 395.4995,-252"/>
<text text-anchor="middle" x="326" y="-229.8" font-family="Times,serif" font-size="14.00" fill="#000000">FilterBoxComponent </text>
</g>
<!-- InputModule&#45;&gt;FilterBoxComponent  -->
<g id="edge3" class="edge">
<title>InputModule&#45;&gt;FilterBoxComponent </title>
<path fill="none" stroke="#000000" stroke-dasharray="5,2" d="M217.5666,-175C255.0264,-175 302.5002,-175 302.5002,-175 302.5002,-175 302.5002,-205.9775 302.5002,-205.9775"/>
<polygon fill="#000000" stroke="#000000" points="299.0003,-205.9774 302.5002,-215.9775 306.0003,-205.9775 299.0003,-205.9774"/>
</g>
<!-- InputBoxComponent  -->
<g id="node5" class="node">
<title>InputBoxComponent </title>
<polygon fill="#fb8072" stroke="#000000" points="238.7205,-252 101.2795,-252 101.2795,-216 238.7205,-216 238.7205,-252"/>
<text text-anchor="middle" x="170" y="-229.8" font-family="Times,serif" font-size="14.00" fill="#000000">InputBoxComponent </text>
</g>
<!-- InputModule&#45;&gt;InputBoxComponent  -->
<g id="edge4" class="edge">
<title>InputModule&#45;&gt;InputBoxComponent </title>
<path fill="none" stroke="#000000" stroke-dasharray="5,2" d="M173,-187.1061C173,-187.1061 173,-205.991 173,-205.991"/>
<polygon fill="#000000" stroke="#000000" points="169.5001,-205.9909 173,-215.991 176.5001,-205.991 169.5001,-205.9909"/>
</g>
</g>
</svg>
