<?xml version="1.0" encoding="UTF-8" standalone="no"?>
<!DOCTYPE svg PUBLIC "-//W3C//DTD SVG 1.1//EN"
 "http://www.w3.org/Graphics/SVG/1.1/DTD/svg11.dtd">
<!-- Generated by graphviz version 2.40.1 (20161225.0304)
 -->
<!-- Title: dependencies Pages: 1 -->
<svg width="504pt" height="284pt"
 viewBox="0.00 0.00 504.00 284.00" xmlns="http://www.w3.org/2000/svg" xmlns:xlink="http://www.w3.org/1999/xlink">
<g id="graph0" class="graph" transform="scale(1 1) rotate(0) translate(4 280)">
<title>dependencies</title>
<polygon fill="#ffffff" stroke="transparent" points="-4,4 -4,-280 500,-280 500,4 -4,4"/>
<text text-anchor="start" x="227.0091" y="-42.4" font-family="sans-serif" font-weight="bold" font-size="14.00" fill="#000000">Legend</text>
<polygon fill="#ffffb3" stroke="transparent" points="14,-10 14,-30 34,-30 34,-10 14,-10"/>
<text text-anchor="start" x="37.629" y="-15.4" font-family="sans-serif" font-size="14.00" fill="#000000"> &#160;Declarations</text>
<polygon fill="#8dd3c7" stroke="transparent" points="127,-10 127,-30 147,-30 147,-10 127,-10"/>
<text text-anchor="start" x="150.7251" y="-15.4" font-family="sans-serif" font-size="14.00" fill="#000000"> &#160;Module</text>
<polygon fill="#80b1d3" stroke="transparent" points="213,-10 213,-30 233,-30 233,-10 213,-10"/>
<text text-anchor="start" x="236.7812" y="-15.4" font-family="sans-serif" font-size="14.00" fill="#000000"> &#160;Bootstrap</text>
<polygon fill="#fdb462" stroke="transparent" points="310,-10 310,-30 330,-30 330,-10 310,-10"/>
<text text-anchor="start" x="333.6732" y="-15.4" font-family="sans-serif" font-size="14.00" fill="#000000"> &#160;Providers</text>
<polygon fill="#fb8072" stroke="transparent" points="406,-10 406,-30 426,-30 426,-10 406,-10"/>
<text text-anchor="start" x="429.7258" y="-15.4" font-family="sans-serif" font-size="14.00" fill="#000000"> &#160;Exports</text>
<g id="clust1" class="cluster">
<title>cluster_NotificationsModule</title>
<polygon fill="none" stroke="#000000" stroke-dasharray="1,5" points="56,-70 56,-268 440,-268 440,-70 56,-70"/>
</g>
<g id="clust2" class="cluster">
<title>cluster_NotificationsModule_declarations</title>
<polygon fill="none" stroke="#000000" points="262,-78 262,-130 432,-130 432,-78 262,-78"/>
</g>
<g id="clust5" class="cluster">
<title>cluster_NotificationsModule_exports</title>
<polygon fill="none" stroke="#000000" points="165,-208 165,-260 339,-260 339,-208 165,-208"/>
</g>
<g id="clust7" class="cluster">
<title>cluster_NotificationsModule_providers</title>
<polygon fill="none" stroke="#000000" points="64,-78 64,-130 254,-130 254,-78 64,-78"/>
</g>
<!-- NotificationsComponent -->
<g id="node1" class="node">
<title>NotificationsComponent</title>
<polygon fill="#ffffb3" stroke="#000000" points="424.427,-122 269.573,-122 269.573,-86 424.427,-86 424.427,-122"/>
<text text-anchor="middle" x="347" y="-99.8" font-family="Times,serif" font-size="14.00" fill="#000000">NotificationsComponent</text>
</g>
<!-- NotificationsModule -->
<g id="node2" class="node">
<title>NotificationsModule</title>
<polygon fill="#8dd3c7" stroke="#000000" points="318.1443,-187 315.1443,-191 294.1443,-191 291.1443,-187 185.8557,-187 185.8557,-151 318.1443,-151 318.1443,-187"/>
<text text-anchor="middle" x="252" y="-164.8" font-family="Times,serif" font-size="14.00" fill="#000000">NotificationsModule</text>
</g>
<!-- NotificationsComponent&#45;&gt;NotificationsModule -->
<g id="edge1" class="edge">
<title>NotificationsComponent&#45;&gt;NotificationsModule</title>
<path fill="none" stroke="#000000" d="M294.0544,-122.1061C294.0544,-122.1061 294.0544,-140.991 294.0544,-140.991"/>
<polygon fill="#000000" stroke="#000000" points="290.5544,-140.9909 294.0544,-150.991 297.5544,-140.991 290.5544,-140.9909"/>
</g>
<!-- NotificationsComponent  -->
<g id="node3" class="node">
<title>NotificationsComponent </title>
<polygon fill="#fb8072" stroke="#000000" points="330.9264,-252 173.0736,-252 173.0736,-216 330.9264,-216 330.9264,-252"/>
<text text-anchor="middle" x="252" y="-229.8" font-family="Times,serif" font-size="14.00" fill="#000000">NotificationsComponent </text>
</g>
<!-- NotificationsModule&#45;&gt;NotificationsComponent  -->
<g id="edge2" class="edge">
<title>NotificationsModule&#45;&gt;NotificationsComponent </title>
<path fill="none" stroke="#000000" stroke-dasharray="5,2" d="M252,-187.1061C252,-187.1061 252,-205.991 252,-205.991"/>
<polygon fill="#000000" stroke="#000000" points="248.5001,-205.9909 252,-215.991 255.5001,-205.991 248.5001,-205.9909"/>
</g>
<!-- NotificationService -->
<g id="node4" class="node">
<title>NotificationService</title>
<ellipse fill="#fdb462" stroke="#000000" cx="159" cy="-104" rx="86.8107" ry="18"/>
<text text-anchor="middle" x="159" y="-99.8" font-family="Times,serif" font-size="14.00" fill="#000000">NotificationService</text>
</g>
<!-- NotificationService&#45;&gt;NotificationsModule -->
<g id="edge3" class="edge">
<title>NotificationService&#45;&gt;NotificationsModule</title>
<path fill="none" stroke="#000000" d="M215.6667,-117.7848C215.6667,-117.7848 215.6667,-140.5475 215.6667,-140.5475"/>
<polygon fill="#000000" stroke="#000000" points="212.1668,-140.5474 215.6667,-150.5475 219.1668,-140.5475 212.1668,-140.5474"/>
</g>
</g>
</svg>
