<?xml version="1.0" encoding="UTF-8" standalone="no"?>
<!DOCTYPE svg PUBLIC "-//W3C//DTD SVG 1.1//EN"
 "http://www.w3.org/Graphics/SVG/1.1/DTD/svg11.dtd">
<!-- Generated by graphviz version 2.40.1 (20161225.0304)
 -->
<!-- Title: dependencies Pages: 1 -->
<svg width="760pt" height="284pt"
 viewBox="0.00 0.00 760.00 284.00" xmlns="http://www.w3.org/2000/svg" xmlns:xlink="http://www.w3.org/1999/xlink">
<g id="graph0" class="graph" transform="scale(1 1) rotate(0) translate(4 280)">
<title>dependencies</title>
<polygon fill="#ffffff" stroke="transparent" points="-4,4 -4,-280 756,-280 756,4 -4,4"/>
<text text-anchor="start" x="355.0091" y="-42.4" font-family="sans-serif" font-weight="bold" font-size="14.00" fill="#000000">Legend</text>
<polygon fill="#ffffb3" stroke="transparent" points="142,-10 142,-30 162,-30 162,-10 142,-10"/>
<text text-anchor="start" x="165.629" y="-15.4" font-family="sans-serif" font-size="14.00" fill="#000000"> &#160;Declarations</text>
<polygon fill="#8dd3c7" stroke="transparent" points="255,-10 255,-30 275,-30 275,-10 255,-10"/>
<text text-anchor="start" x="278.7251" y="-15.4" font-family="sans-serif" font-size="14.00" fill="#000000"> &#160;Module</text>
<polygon fill="#80b1d3" stroke="transparent" points="341,-10 341,-30 361,-30 361,-10 341,-10"/>
<text text-anchor="start" x="364.7812" y="-15.4" font-family="sans-serif" font-size="14.00" fill="#000000"> &#160;Bootstrap</text>
<polygon fill="#fdb462" stroke="transparent" points="438,-10 438,-30 458,-30 458,-10 438,-10"/>
<text text-anchor="start" x="461.6732" y="-15.4" font-family="sans-serif" font-size="14.00" fill="#000000"> &#160;Providers</text>
<polygon fill="#fb8072" stroke="transparent" points="534,-10 534,-30 554,-30 554,-10 534,-10"/>
<text text-anchor="start" x="557.7258" y="-15.4" font-family="sans-serif" font-size="14.00" fill="#000000"> &#160;Exports</text>
<g id="clust1" class="cluster">
<title>cluster_PostItPerspectiveModule</title>
<polygon fill="none" stroke="#000000" stroke-dasharray="1,5" points="8,-70 8,-268 744,-268 744,-70 8,-70"/>
</g>
<g id="clust2" class="cluster">
<title>cluster_PostItPerspectiveModule_declarations</title>
<polygon fill="none" stroke="#000000" points="138,-78 138,-130 736,-130 736,-78 138,-78"/>
</g>
<g id="clust6" class="cluster">
<title>cluster_PostItPerspectiveModule_imports</title>
<polygon fill="none" stroke="#000000" points="16,-78 16,-130 130,-130 130,-78 16,-78"/>
</g>
<g id="clust7" class="cluster">
<title>cluster_PostItPerspectiveModule_exports</title>
<polygon fill="none" stroke="#000000" points="232,-208 232,-260 430,-260 430,-208 232,-208"/>
</g>
<!-- PostItAddDocumentComponent -->
<g id="node1" class="node">
<title>PostItAddDocumentComponent</title>
<polygon fill="#ffffb3" stroke="#000000" points="728.4255,-122 531.5745,-122 531.5745,-86 728.4255,-86 728.4255,-122"/>
<text text-anchor="middle" x="630" y="-99.8" font-family="Times,serif" font-size="14.00" fill="#000000">PostItAddDocumentComponent</text>
</g>
<!-- PostItPerspectiveModule -->
<g id="node4" class="node">
<title>PostItPerspectiveModule</title>
<polygon fill="#8dd3c7" stroke="#000000" points="409.2464,-187 406.2464,-191 385.2464,-191 382.2464,-187 252.7536,-187 252.7536,-151 409.2464,-151 409.2464,-187"/>
<text text-anchor="middle" x="331" y="-164.8" font-family="Times,serif" font-size="14.00" fill="#000000">PostItPerspectiveModule</text>
</g>
<!-- PostItAddDocumentComponent&#45;&gt;PostItPerspectiveModule -->
<g id="edge1" class="edge">
<title>PostItAddDocumentComponent&#45;&gt;PostItPerspectiveModule</title>
<path fill="none" stroke="#000000" d="M630,-122.1061C630,-141.3391 630,-169 630,-169 630,-169 419.5587,-169 419.5587,-169"/>
<polygon fill="#000000" stroke="#000000" points="419.5588,-165.5001 409.5587,-169 419.5587,-172.5001 419.5588,-165.5001"/>
</g>
<!-- PostItDocumentComponent -->
<g id="node2" class="node">
<title>PostItDocumentComponent</title>
<polygon fill="#ffffb3" stroke="#000000" points="514.3187,-122 341.6813,-122 341.6813,-86 514.3187,-86 514.3187,-122"/>
<text text-anchor="middle" x="428" y="-99.8" font-family="Times,serif" font-size="14.00" fill="#000000">PostItDocumentComponent</text>
</g>
<!-- PostItDocumentComponent&#45;&gt;PostItPerspectiveModule -->
<g id="edge2" class="edge">
<title>PostItDocumentComponent&#45;&gt;PostItPerspectiveModule</title>
<path fill="none" stroke="#000000" d="M375.607,-122.1061C375.607,-122.1061 375.607,-140.991 375.607,-140.991"/>
<polygon fill="#000000" stroke="#000000" points="372.107,-140.9909 375.607,-150.991 379.107,-140.991 372.107,-140.9909"/>
</g>
<!-- PostItPerspectiveComponent -->
<g id="node3" class="node">
<title>PostItPerspectiveComponent</title>
<polygon fill="#ffffb3" stroke="#000000" points="324.0294,-122 145.9706,-122 145.9706,-86 324.0294,-86 324.0294,-122"/>
<text text-anchor="middle" x="235" y="-99.8" font-family="Times,serif" font-size="14.00" fill="#000000">PostItPerspectiveComponent</text>
</g>
<!-- PostItPerspectiveComponent&#45;&gt;PostItPerspectiveModule -->
<g id="edge3" class="edge">
<title>PostItPerspectiveComponent&#45;&gt;PostItPerspectiveModule</title>
<path fill="none" stroke="#000000" d="M288.4457,-122.1061C288.4457,-122.1061 288.4457,-140.991 288.4457,-140.991"/>
<polygon fill="#000000" stroke="#000000" points="284.9457,-140.9909 288.4457,-150.991 291.9457,-140.991 284.9457,-140.9909"/>
</g>
<!-- PostItPerspectiveComponent  -->
<g id="node6" class="node">
<title>PostItPerspectiveComponent </title>
<polygon fill="#fb8072" stroke="#000000" points="422.0288,-252 239.9712,-252 239.9712,-216 422.0288,-216 422.0288,-252"/>
<text text-anchor="middle" x="331" y="-229.8" font-family="Times,serif" font-size="14.00" fill="#000000">PostItPerspectiveComponent </text>
</g>
<!-- PostItPerspectiveModule&#45;&gt;PostItPerspectiveComponent  -->
<g id="edge5" class="edge">
<title>PostItPerspectiveModule&#45;&gt;PostItPerspectiveComponent </title>
<path fill="none" stroke="#000000" stroke-dasharray="5,2" d="M331,-187.1061C331,-187.1061 331,-205.991 331,-205.991"/>
<polygon fill="#000000" stroke="#000000" points="327.5001,-205.9909 331,-215.991 334.5001,-205.991 327.5001,-205.9909"/>
</g>
<!-- SharedModule -->
<g id="node5" class="node">
<title>SharedModule</title>
<polygon fill="#8dd3c7" stroke="#000000" points="122.4231,-122 119.4231,-126 98.4231,-126 95.4231,-122 23.5769,-122 23.5769,-86 122.4231,-86 122.4231,-122"/>
<text text-anchor="middle" x="73" y="-99.8" font-family="Times,serif" font-size="14.00" fill="#000000">SharedModule</text>
</g>
<!-- SharedModule&#45;&gt;PostItPerspectiveModule -->
<g id="edge4" class="edge">
<title>SharedModule&#45;&gt;PostItPerspectiveModule</title>
<path fill="none" stroke="#000000" d="M73,-122.1061C73,-141.3391 73,-169 73,-169 73,-169 242.5407,-169 242.5407,-169"/>
<polygon fill="#000000" stroke="#000000" points="242.5407,-172.5001 252.5407,-169 242.5406,-165.5001 242.5407,-172.5001"/>
</g>
</g>
</svg>
