<?xml version="1.0" encoding="UTF-8" standalone="no"?>
<!DOCTYPE svg PUBLIC "-//W3C//DTD SVG 1.1//EN"
 "http://www.w3.org/Graphics/SVG/1.1/DTD/svg11.dtd">
<!-- Generated by graphviz version 2.40.1 (20161225.0304)
 -->
<!-- Title: dependencies Pages: 1 -->
<svg width="1723pt" height="284pt"
 viewBox="0.00 0.00 1723.00 284.00" xmlns="http://www.w3.org/2000/svg" xmlns:xlink="http://www.w3.org/1999/xlink">
<g id="graph0" class="graph" transform="scale(1 1) rotate(0) translate(4 280)">
<title>dependencies</title>
<polygon fill="#ffffff" stroke="transparent" points="-4,4 -4,-280 1719,-280 1719,4 -4,4"/>
<text text-anchor="start" x="836.5091" y="-42.4" font-family="sans-serif" font-weight="bold" font-size="14.00" fill="#000000">Legend</text>
<polygon fill="#ffffb3" stroke="transparent" points="623.5,-10 623.5,-30 643.5,-30 643.5,-10 623.5,-10"/>
<text text-anchor="start" x="647.129" y="-15.4" font-family="sans-serif" font-size="14.00" fill="#000000"> &#160;Declarations</text>
<polygon fill="#8dd3c7" stroke="transparent" points="736.5,-10 736.5,-30 756.5,-30 756.5,-10 736.5,-10"/>
<text text-anchor="start" x="760.2251" y="-15.4" font-family="sans-serif" font-size="14.00" fill="#000000"> &#160;Module</text>
<polygon fill="#80b1d3" stroke="transparent" points="822.5,-10 822.5,-30 842.5,-30 842.5,-10 822.5,-10"/>
<text text-anchor="start" x="846.2812" y="-15.4" font-family="sans-serif" font-size="14.00" fill="#000000"> &#160;Bootstrap</text>
<polygon fill="#fdb462" stroke="transparent" points="919.5,-10 919.5,-30 939.5,-30 939.5,-10 919.5,-10"/>
<text text-anchor="start" x="943.1732" y="-15.4" font-family="sans-serif" font-size="14.00" fill="#000000"> &#160;Providers</text>
<polygon fill="#fb8072" stroke="transparent" points="1015.5,-10 1015.5,-30 1035.5,-30 1035.5,-10 1015.5,-10"/>
<text text-anchor="start" x="1039.2258" y="-15.4" font-family="sans-serif" font-size="14.00" fill="#000000"> &#160;Exports</text>
<g id="clust1" class="cluster">
<title>cluster_PostItPerspectiveModule</title>
<polygon fill="none" stroke="#000000" stroke-dasharray="1,5" points="8,-70 8,-268 1707,-268 1707,-70 8,-70"/>
</g>
<g id="clust2" class="cluster">
<title>cluster_PostItPerspectiveModule_declarations</title>
<polygon fill="none" stroke="#000000" points="138,-78 138,-130 1699,-130 1699,-78 138,-78"/>
</g>
<g id="clust11" class="cluster">
<title>cluster_PostItPerspectiveModule_imports</title>
<polygon fill="none" stroke="#000000" points="16,-78 16,-130 130,-130 130,-78 16,-78"/>
</g>
<g id="clust12" class="cluster">
<title>cluster_PostItPerspectiveModule_exports</title>
<polygon fill="none" stroke="#000000" points="763,-208 763,-260 961,-260 961,-208 763,-208"/>
</g>
<!-- DocumentCollectionPipe -->
<g id="node1" class="node">
<title>DocumentCollectionPipe</title>
<polygon fill="#ffffb3" stroke="#000000" points="1690.5337,-122 1533.4663,-122 1533.4663,-86 1690.5337,-86 1690.5337,-122"/>
<text text-anchor="middle" x="1612" y="-99.8" font-family="Times,serif" font-size="14.00" fill="#000000">DocumentCollectionPipe</text>
</g>
<!-- PostItPerspectiveModule -->
<g id="node9" class="node">
<title>PostItPerspectiveModule</title>
<polygon fill="#8dd3c7" stroke="#000000" points="940.2464,-187 937.2464,-191 916.2464,-191 913.2464,-187 783.7536,-187 783.7536,-151 940.2464,-151 940.2464,-187"/>
<text text-anchor="middle" x="862" y="-164.8" font-family="Times,serif" font-size="14.00" fill="#000000">PostItPerspectiveModule</text>
</g>
<!-- DocumentCollectionPipe&#45;&gt;PostItPerspectiveModule -->
<g id="edge1" class="edge">
<title>DocumentCollectionPipe&#45;&gt;PostItPerspectiveModule</title>
<path fill="none" stroke="#000000" d="M1612,-122.0109C1612,-144.4852 1612,-180 1612,-180 1612,-180 950.4928,-180 950.4928,-180"/>
<polygon fill="#000000" stroke="#000000" points="950.4929,-176.5001 940.4928,-180 950.4928,-183.5001 950.4929,-176.5001"/>
</g>
<!-- EmptyPostItsComponent -->
<g id="node2" class="node">
<title>EmptyPostItsComponent</title>
<polygon fill="#ffffb3" stroke="#000000" points="1515.28,-122 1358.72,-122 1358.72,-86 1515.28,-86 1515.28,-122"/>
<text text-anchor="middle" x="1437" y="-99.8" font-family="Times,serif" font-size="14.00" fill="#000000">EmptyPostItsComponent</text>
</g>
<!-- EmptyPostItsComponent&#45;&gt;PostItPerspectiveModule -->
<g id="edge2" class="edge">
<title>EmptyPostItsComponent&#45;&gt;PostItPerspectiveModule</title>
<path fill="none" stroke="#000000" d="M1437,-122.1289C1437,-142.5724 1437,-173 1437,-173 1437,-173 950.4453,-173 950.4453,-173"/>
<polygon fill="#000000" stroke="#000000" points="950.4454,-169.5001 940.4453,-173 950.4453,-176.5001 950.4454,-169.5001"/>
</g>
<!-- PostItAddDocumentComponent -->
<g id="node3" class="node">
<title>PostItAddDocumentComponent</title>
<polygon fill="#ffffb3" stroke="#000000" points="1340.4255,-122 1143.5745,-122 1143.5745,-86 1340.4255,-86 1340.4255,-122"/>
<text text-anchor="middle" x="1242" y="-99.8" font-family="Times,serif" font-size="14.00" fill="#000000">PostItAddDocumentComponent</text>
</g>
<!-- PostItAddDocumentComponent&#45;&gt;PostItPerspectiveModule -->
<g id="edge3" class="edge">
<title>PostItAddDocumentComponent&#45;&gt;PostItPerspectiveModule</title>
<path fill="none" stroke="#000000" d="M1242,-122.2667C1242,-140.5552 1242,-166 1242,-166 1242,-166 950.2755,-166 950.2755,-166"/>
<polygon fill="#000000" stroke="#000000" points="950.2755,-162.5001 940.2755,-166 950.2755,-169.5001 950.2755,-162.5001"/>
</g>
<!-- PostItColumnStylePipe -->
<g id="node4" class="node">
<title>PostItColumnStylePipe</title>
<polygon fill="#ffffb3" stroke="#000000" points="1125.9537,-122 978.0463,-122 978.0463,-86 1125.9537,-86 1125.9537,-122"/>
<text text-anchor="middle" x="1052" y="-99.8" font-family="Times,serif" font-size="14.00" fill="#000000">PostItColumnStylePipe</text>
</g>
<!-- PostItColumnStylePipe&#45;&gt;PostItPerspectiveModule -->
<g id="edge4" class="edge">
<title>PostItColumnStylePipe&#45;&gt;PostItPerspectiveModule</title>
<path fill="none" stroke="#000000" d="M1052,-122.0091C1052,-138.0494 1052,-159 1052,-159 1052,-159 950.3772,-159 950.3772,-159"/>
<polygon fill="#000000" stroke="#000000" points="950.3773,-155.5001 940.3772,-159 950.3772,-162.5001 950.3773,-155.5001"/>
</g>
<!-- PostItDocumentCellComponent -->
<g id="node5" class="node">
<title>PostItDocumentCellComponent</title>
<polygon fill="#ffffb3" stroke="#000000" points="959.6511,-122 764.3489,-122 764.3489,-86 959.6511,-86 959.6511,-122"/>
<text text-anchor="middle" x="862" y="-99.8" font-family="Times,serif" font-size="14.00" fill="#000000">PostItDocumentCellComponent</text>
</g>
<!-- PostItDocumentCellComponent&#45;&gt;PostItPerspectiveModule -->
<g id="edge5" class="edge">
<title>PostItDocumentCellComponent&#45;&gt;PostItPerspectiveModule</title>
<path fill="none" stroke="#000000" d="M862,-122.1061C862,-122.1061 862,-140.991 862,-140.991"/>
<polygon fill="#000000" stroke="#000000" points="858.5001,-140.9909 862,-150.991 865.5001,-140.991 858.5001,-140.9909"/>
</g>
<!-- PostItDocumentComponent -->
<g id="node6" class="node">
<title>PostItDocumentComponent</title>
<polygon fill="#ffffb3" stroke="#000000" points="746.3187,-122 573.6813,-122 573.6813,-86 746.3187,-86 746.3187,-122"/>
<text text-anchor="middle" x="660" y="-99.8" font-family="Times,serif" font-size="14.00" fill="#000000">PostItDocumentComponent</text>
</g>
<!-- PostItDocumentComponent&#45;&gt;PostItPerspectiveModule -->
<g id="edge6" class="edge">
<title>PostItDocumentComponent&#45;&gt;PostItPerspectiveModule</title>
<path fill="none" stroke="#000000" d="M660,-122.0091C660,-138.0494 660,-159 660,-159 660,-159 773.6124,-159 773.6124,-159"/>
<polygon fill="#000000" stroke="#000000" points="773.6124,-162.5001 783.6124,-159 773.6124,-155.5001 773.6124,-162.5001"/>
</g>
<!-- PostItDocumentHeaderComponent -->
<g id="node7" class="node">
<title>PostItDocumentHeaderComponent</title>
<polygon fill="#ffffb3" stroke="#000000" points="555.2296,-122 342.7704,-122 342.7704,-86 555.2296,-86 555.2296,-122"/>
<text text-anchor="middle" x="449" y="-99.8" font-family="Times,serif" font-size="14.00" fill="#000000">PostItDocumentHeaderComponent</text>
</g>
<!-- PostItDocumentHeaderComponent&#45;&gt;PostItPerspectiveModule -->
<g id="edge7" class="edge">
<title>PostItDocumentHeaderComponent&#45;&gt;PostItPerspectiveModule</title>
<path fill="none" stroke="#000000" d="M449,-122.2667C449,-140.5552 449,-166 449,-166 449,-166 773.3457,-166 773.3457,-166"/>
<polygon fill="#000000" stroke="#000000" points="773.3458,-169.5001 783.3457,-166 773.3457,-162.5001 773.3458,-169.5001"/>
</g>
<!-- PostItPerspectiveComponent -->
<g id="node8" class="node">
<title>PostItPerspectiveComponent</title>
<polygon fill="#ffffb3" stroke="#000000" points="324.0294,-122 145.9706,-122 145.9706,-86 324.0294,-86 324.0294,-122"/>
<text text-anchor="middle" x="235" y="-99.8" font-family="Times,serif" font-size="14.00" fill="#000000">PostItPerspectiveComponent</text>
</g>
<!-- PostItPerspectiveComponent&#45;&gt;PostItPerspectiveModule -->
<g id="edge8" class="edge">
<title>PostItPerspectiveComponent&#45;&gt;PostItPerspectiveModule</title>
<path fill="none" stroke="#000000" d="M235,-122.1289C235,-142.5724 235,-173 235,-173 235,-173 773.5416,-173 773.5416,-173"/>
<polygon fill="#000000" stroke="#000000" points="773.5416,-176.5001 783.5416,-173 773.5415,-169.5001 773.5416,-176.5001"/>
</g>
<!-- PostItPerspectiveComponent  -->
<g id="node11" class="node">
<title>PostItPerspectiveComponent </title>
<polygon fill="#fb8072" stroke="#000000" points="953.0288,-252 770.9712,-252 770.9712,-216 953.0288,-216 953.0288,-252"/>
<text text-anchor="middle" x="862" y="-229.8" font-family="Times,serif" font-size="14.00" fill="#000000">PostItPerspectiveComponent </text>
</g>
<!-- PostItPerspectiveModule&#45;&gt;PostItPerspectiveComponent  -->
<g id="edge10" class="edge">
<title>PostItPerspectiveModule&#45;&gt;PostItPerspectiveComponent </title>
<path fill="none" stroke="#000000" stroke-dasharray="5,2" d="M862,-187.1061C862,-187.1061 862,-205.991 862,-205.991"/>
<polygon fill="#000000" stroke="#000000" points="858.5001,-205.9909 862,-215.991 865.5001,-205.991 858.5001,-205.9909"/>
</g>
<!-- SharedModule -->
<g id="node10" class="node">
<title>SharedModule</title>
<polygon fill="#8dd3c7" stroke="#000000" points="122.4231,-122 119.4231,-126 98.4231,-126 95.4231,-122 23.5769,-122 23.5769,-86 122.4231,-86 122.4231,-122"/>
<text text-anchor="middle" x="73" y="-99.8" font-family="Times,serif" font-size="14.00" fill="#000000">SharedModule</text>
</g>
<!-- SharedModule&#45;&gt;PostItPerspectiveModule -->
<g id="edge9" class="edge">
<title>SharedModule&#45;&gt;PostItPerspectiveModule</title>
<path fill="none" stroke="#000000" d="M73,-122.0109C73,-144.4852 73,-180 73,-180 73,-180 773.4631,-180 773.4631,-180"/>
<polygon fill="#000000" stroke="#000000" points="773.4632,-183.5001 783.4631,-180 773.4631,-176.5001 773.4632,-183.5001"/>
</g>
</g>
</svg>
