<?xml version="1.0" encoding="UTF-8" standalone="no"?>
<!DOCTYPE svg PUBLIC "-//W3C//DTD SVG 1.1//EN"
 "http://www.w3.org/Graphics/SVG/1.1/DTD/svg11.dtd">
<!-- Generated by graphviz version 2.40.1 (20161225.0304)
 -->
<!-- Title: dependencies Pages: 1 -->
<svg width="1709pt" height="284pt"
 viewBox="0.00 0.00 1709.00 284.00" xmlns="http://www.w3.org/2000/svg" xmlns:xlink="http://www.w3.org/1999/xlink">
<g id="graph0" class="graph" transform="scale(1 1) rotate(0) translate(4 280)">
<title>dependencies</title>
<polygon fill="#ffffff" stroke="transparent" points="-4,4 -4,-280 1705,-280 1705,4 -4,4"/>
<text text-anchor="start" x="829.5091" y="-42.4" font-family="sans-serif" font-weight="bold" font-size="14.00" fill="#000000">Legend</text>
<polygon fill="#ffffb3" stroke="transparent" points="616.5,-10 616.5,-30 636.5,-30 636.5,-10 616.5,-10"/>
<text text-anchor="start" x="640.129" y="-15.4" font-family="sans-serif" font-size="14.00" fill="#000000"> &#160;Declarations</text>
<polygon fill="#8dd3c7" stroke="transparent" points="729.5,-10 729.5,-30 749.5,-30 749.5,-10 729.5,-10"/>
<text text-anchor="start" x="753.2251" y="-15.4" font-family="sans-serif" font-size="14.00" fill="#000000"> &#160;Module</text>
<polygon fill="#80b1d3" stroke="transparent" points="815.5,-10 815.5,-30 835.5,-30 835.5,-10 815.5,-10"/>
<text text-anchor="start" x="839.2812" y="-15.4" font-family="sans-serif" font-size="14.00" fill="#000000"> &#160;Bootstrap</text>
<polygon fill="#fdb462" stroke="transparent" points="912.5,-10 912.5,-30 932.5,-30 932.5,-10 912.5,-10"/>
<text text-anchor="start" x="936.1732" y="-15.4" font-family="sans-serif" font-size="14.00" fill="#000000"> &#160;Providers</text>
<polygon fill="#fb8072" stroke="transparent" points="1008.5,-10 1008.5,-30 1028.5,-30 1028.5,-10 1008.5,-10"/>
<text text-anchor="start" x="1032.2258" y="-15.4" font-family="sans-serif" font-size="14.00" fill="#000000"> &#160;Exports</text>
<g id="clust1" class="cluster">
<title>cluster_TopPanelModule</title>
<polygon fill="none" stroke="#000000" stroke-dasharray="1,5" points="8,-70 8,-268 1693,-268 1693,-70 8,-70"/>
</g>
<g id="clust2" class="cluster">
<title>cluster_TopPanelModule_declarations</title>
<polygon fill="none" stroke="#000000" points="323,-78 323,-130 1685,-130 1685,-78 323,-78"/>
</g>
<g id="clust11" class="cluster">
<title>cluster_TopPanelModule_imports</title>
<polygon fill="none" stroke="#000000" points="16,-78 16,-130 315,-130 315,-78 16,-78"/>
</g>
<g id="clust12" class="cluster">
<title>cluster_TopPanelModule_exports</title>
<polygon fill="none" stroke="#000000" points="645,-208 645,-260 1025,-260 1025,-208 645,-208"/>
</g>
<!-- ControlsToggleComponent -->
<g id="node1" class="node">
<title>ControlsToggleComponent</title>
<polygon fill="#ffffb3" stroke="#000000" points="1676.7133,-122 1507.2867,-122 1507.2867,-86 1676.7133,-86 1676.7133,-122"/>
<text text-anchor="middle" x="1592" y="-99.8" font-family="Times,serif" font-size="14.00" fill="#000000">ControlsToggleComponent</text>
</g>
<!-- TopPanelModule -->
<g id="node9" class="node">
<title>TopPanelModule</title>
<polygon fill="#8dd3c7" stroke="#000000" points="898.705,-187 895.705,-191 874.705,-191 871.705,-187 785.295,-187 785.295,-151 898.705,-151 898.705,-187"/>
<text text-anchor="middle" x="842" y="-164.8" font-family="Times,serif" font-size="14.00" fill="#000000">TopPanelModule</text>
</g>
<!-- ControlsToggleComponent&#45;&gt;TopPanelModule -->
<g id="edge1" class="edge">
<title>ControlsToggleComponent&#45;&gt;TopPanelModule</title>
<path fill="none" stroke="#000000" d="M1592,-122.0109C1592,-144.4852 1592,-180 1592,-180 1592,-180 908.6793,-180 908.6793,-180"/>
<polygon fill="#000000" stroke="#000000" points="908.6794,-176.5001 898.6793,-180 908.6793,-183.5001 908.6794,-176.5001"/>
</g>
<!-- LanguageLinkPipe -->
<g id="node2" class="node">
<title>LanguageLinkPipe</title>
<polygon fill="#ffffb3" stroke="#000000" points="1489.0283,-122 1366.9717,-122 1366.9717,-86 1489.0283,-86 1489.0283,-122"/>
<text text-anchor="middle" x="1428" y="-99.8" font-family="Times,serif" font-size="14.00" fill="#000000">LanguageLinkPipe</text>
</g>
<!-- LanguageLinkPipe&#45;&gt;TopPanelModule -->
<g id="edge2" class="edge">
<title>LanguageLinkPipe&#45;&gt;TopPanelModule</title>
<path fill="none" stroke="#000000" d="M1428,-122.1289C1428,-142.5724 1428,-173 1428,-173 1428,-173 908.7206,-173 908.7206,-173"/>
<polygon fill="#000000" stroke="#000000" points="908.7206,-169.5001 898.7206,-173 908.7206,-176.5001 908.7206,-169.5001"/>
</g>
<!-- LumeerLogoComponent -->
<g id="node3" class="node">
<title>LumeerLogoComponent</title>
<polygon fill="#ffffb3" stroke="#000000" points="1349.4186,-122 1194.5814,-122 1194.5814,-86 1349.4186,-86 1349.4186,-122"/>
<text text-anchor="middle" x="1272" y="-99.8" font-family="Times,serif" font-size="14.00" fill="#000000">LumeerLogoComponent</text>
</g>
<!-- LumeerLogoComponent&#45;&gt;TopPanelModule -->
<g id="edge3" class="edge">
<title>LumeerLogoComponent&#45;&gt;TopPanelModule</title>
<path fill="none" stroke="#000000" d="M1272,-122.2667C1272,-140.5552 1272,-166 1272,-166 1272,-166 908.6572,-166 908.6572,-166"/>
<polygon fill="#000000" stroke="#000000" points="908.6572,-162.5001 898.6572,-166 908.6571,-169.5001 908.6572,-162.5001"/>
</g>
<!-- TopPanelComponent -->
<g id="node4" class="node">
<title>TopPanelComponent</title>
<polygon fill="#ffffb3" stroke="#000000" points="1176.4874,-122 1041.5126,-122 1041.5126,-86 1176.4874,-86 1176.4874,-122"/>
<text text-anchor="middle" x="1109" y="-99.8" font-family="Times,serif" font-size="14.00" fill="#000000">TopPanelComponent</text>
</g>
<!-- TopPanelComponent&#45;&gt;TopPanelModule -->
<g id="edge4" class="edge">
<title>TopPanelComponent&#45;&gt;TopPanelModule</title>
<path fill="none" stroke="#000000" d="M1109,-122.0091C1109,-138.0494 1109,-159 1109,-159 1109,-159 908.6238,-159 908.6238,-159"/>
<polygon fill="#000000" stroke="#000000" points="908.6239,-155.5001 898.6238,-159 908.6238,-162.5001 908.6239,-155.5001"/>
</g>
<!-- TopPanelWrapperComponent -->
<g id="node5" class="node">
<title>TopPanelWrapperComponent</title>
<polygon fill="#ffffb3" stroke="#000000" points="1023.9524,-122 840.0476,-122 840.0476,-86 1023.9524,-86 1023.9524,-122"/>
<text text-anchor="middle" x="932" y="-99.8" font-family="Times,serif" font-size="14.00" fill="#000000">TopPanelWrapperComponent</text>
</g>
<!-- TopPanelWrapperComponent&#45;&gt;TopPanelModule -->
<g id="edge5" class="edge">
<title>TopPanelWrapperComponent&#45;&gt;TopPanelModule</title>
<path fill="none" stroke="#000000" d="M869.3131,-122.1061C869.3131,-122.1061 869.3131,-140.991 869.3131,-140.991"/>
<polygon fill="#000000" stroke="#000000" points="865.8132,-140.9909 869.3131,-150.991 872.8132,-140.991 865.8132,-140.9909"/>
</g>
<!-- UserMenuComponent -->
<g id="node6" class="node">
<title>UserMenuComponent</title>
<polygon fill="#ffffb3" stroke="#000000" points="822.4186,-122 681.5814,-122 681.5814,-86 822.4186,-86 822.4186,-122"/>
<text text-anchor="middle" x="752" y="-99.8" font-family="Times,serif" font-size="14.00" fill="#000000">UserMenuComponent</text>
</g>
<!-- UserMenuComponent&#45;&gt;TopPanelModule -->
<g id="edge6" class="edge">
<title>UserMenuComponent&#45;&gt;TopPanelModule</title>
<path fill="none" stroke="#000000" d="M803.8033,-122.1061C803.8033,-122.1061 803.8033,-140.991 803.8033,-140.991"/>
<polygon fill="#000000" stroke="#000000" points="800.3034,-140.9909 803.8033,-150.991 807.3034,-140.991 800.3034,-140.9909"/>
</g>
<!-- UserPanelComponent -->
<g id="node7" class="node">
<title>UserPanelComponent</title>
<polygon fill="#ffffb3" stroke="#000000" points="663.3613,-122 524.6387,-122 524.6387,-86 663.3613,-86 663.3613,-122"/>
<text text-anchor="middle" x="594" y="-99.8" font-family="Times,serif" font-size="14.00" fill="#000000">UserPanelComponent</text>
</g>
<!-- UserPanelComponent&#45;&gt;TopPanelModule -->
<g id="edge7" class="edge">
<title>UserPanelComponent&#45;&gt;TopPanelModule</title>
<path fill="none" stroke="#000000" d="M658.3522,-122.0091C658.3522,-138.0494 658.3522,-159 658.3522,-159 658.3522,-159 775.1504,-159 775.1504,-159"/>
<polygon fill="#000000" stroke="#000000" points="775.1504,-162.5001 785.1504,-159 775.1503,-155.5001 775.1504,-162.5001"/>
</g>
<!-- WorkspacePanelComponent -->
<g id="node8" class="node">
<title>WorkspacePanelComponent</title>
<polygon fill="#ffffb3" stroke="#000000" points="506.8989,-122 331.1011,-122 331.1011,-86 506.8989,-86 506.8989,-122"/>
<text text-anchor="middle" x="419" y="-99.8" font-family="Times,serif" font-size="14.00" fill="#000000">WorkspacePanelComponent</text>
</g>
<!-- WorkspacePanelComponent&#45;&gt;TopPanelModule -->
<g id="edge8" class="edge">
<title>WorkspacePanelComponent&#45;&gt;TopPanelModule</title>
<path fill="none" stroke="#000000" d="M419,-122.2667C419,-140.5552 419,-166 419,-166 419,-166 775.3913,-166 775.3913,-166"/>
<polygon fill="#000000" stroke="#000000" points="775.3913,-169.5001 785.3913,-166 775.3912,-162.5001 775.3913,-169.5001"/>
</g>
<!-- LumeerLogoComponent  -->
<g id="node12" class="node">
<title>LumeerLogoComponent </title>
<polygon fill="#fb8072" stroke="#000000" points="1016.918,-252 859.082,-252 859.082,-216 1016.918,-216 1016.918,-252"/>
<text text-anchor="middle" x="938" y="-229.8" font-family="Times,serif" font-size="14.00" fill="#000000">LumeerLogoComponent </text>
</g>
<!-- TopPanelModule&#45;&gt;LumeerLogoComponent  -->
<g id="edge11" class="edge">
<title>TopPanelModule&#45;&gt;LumeerLogoComponent </title>
<path fill="none" stroke="#000000" stroke-dasharray="5,2" d="M878.8217,-187.1061C878.8217,-187.1061 878.8217,-205.991 878.8217,-205.991"/>
<polygon fill="#000000" stroke="#000000" points="875.3218,-205.9909 878.8217,-215.991 882.3218,-205.991 875.3218,-205.9909"/>
</g>
<!-- TopPanelWrapperComponent  -->
<g id="node13" class="node">
<title>TopPanelWrapperComponent </title>
<polygon fill="#fb8072" stroke="#000000" points="840.9529,-252 653.0471,-252 653.0471,-216 840.9529,-216 840.9529,-252"/>
<text text-anchor="middle" x="747" y="-229.8" font-family="Times,serif" font-size="14.00" fill="#000000">TopPanelWrapperComponent </text>
</g>
<!-- TopPanelModule&#45;&gt;TopPanelWrapperComponent  -->
<g id="edge12" class="edge">
<title>TopPanelModule&#45;&gt;TopPanelWrapperComponent </title>
<path fill="none" stroke="#000000" stroke-dasharray="5,2" d="M813.0619,-187.1061C813.0619,-187.1061 813.0619,-205.991 813.0619,-205.991"/>
<polygon fill="#000000" stroke="#000000" points="809.562,-205.9909 813.0619,-215.991 816.562,-205.991 809.562,-205.9909"/>
</g>
<!-- ResourceMenuModule -->
<g id="node10" class="node">
<title>ResourceMenuModule</title>
<polygon fill="#8dd3c7" stroke="#000000" points="307.2949,-122 304.2949,-126 283.2949,-126 280.2949,-122 162.7051,-122 162.7051,-86 307.2949,-86 307.2949,-122"/>
<text text-anchor="middle" x="235" y="-99.8" font-family="Times,serif" font-size="14.00" fill="#000000">ResourceMenuModule</text>
</g>
<!-- ResourceMenuModule&#45;&gt;TopPanelModule -->
<g id="edge9" class="edge">
<title>ResourceMenuModule&#45;&gt;TopPanelModule</title>
<path fill="none" stroke="#000000" d="M235,-122.1289C235,-142.5724 235,-173 235,-173 235,-173 775.1677,-173 775.1677,-173"/>
<polygon fill="#000000" stroke="#000000" points="775.1678,-176.5001 785.1677,-173 775.1677,-169.5001 775.1678,-176.5001"/>
</g>
<!-- SearchBoxModule -->
<g id="node11" class="node">
<title>SearchBoxModule</title>
<polygon fill="#8dd3c7" stroke="#000000" points="144.4734,-122 141.4734,-126 120.4734,-126 117.4734,-122 23.5266,-122 23.5266,-86 144.4734,-86 144.4734,-122"/>
<text text-anchor="middle" x="84" y="-99.8" font-family="Times,serif" font-size="14.00" fill="#000000">SearchBoxModule</text>
</g>
<!-- SearchBoxModule&#45;&gt;TopPanelModule -->
<g id="edge10" class="edge">
<title>SearchBoxModule&#45;&gt;TopPanelModule</title>
<path fill="none" stroke="#000000" d="M84,-122.0109C84,-144.4852 84,-180 84,-180 84,-180 775.3368,-180 775.3368,-180"/>
<polygon fill="#000000" stroke="#000000" points="775.3368,-183.5001 785.3368,-180 775.3368,-176.5001 775.3368,-183.5001"/>
</g>
</g>
</svg>
