<?xml version="1.0" encoding="UTF-8" standalone="no"?>
<!DOCTYPE svg PUBLIC "-//W3C//DTD SVG 1.1//EN"
 "http://www.w3.org/Graphics/SVG/1.1/DTD/svg11.dtd">
<!-- Generated by graphviz version 2.40.1 (20161225.0304)
 -->
<!-- Title: dependencies Pages: 1 -->
<svg width="2537pt" height="211pt"
 viewBox="0.00 0.00 2537.00 211.00" xmlns="http://www.w3.org/2000/svg" xmlns:xlink="http://www.w3.org/1999/xlink">
<g id="graph0" class="graph" transform="scale(1 1) rotate(0) translate(4 207)">
<title>dependencies</title>
<polygon fill="#ffffff" stroke="transparent" points="-4,4 -4,-207 2533,-207 2533,4 -4,4"/>
<text text-anchor="start" x="1243.5091" y="-42.4" font-family="sans-serif" font-weight="bold" font-size="14.00" fill="#000000">Legend</text>
<polygon fill="#ffffb3" stroke="transparent" points="1030.5,-10 1030.5,-30 1050.5,-30 1050.5,-10 1030.5,-10"/>
<text text-anchor="start" x="1054.129" y="-15.4" font-family="sans-serif" font-size="14.00" fill="#000000"> &#160;Declarations</text>
<polygon fill="#8dd3c7" stroke="transparent" points="1143.5,-10 1143.5,-30 1163.5,-30 1163.5,-10 1143.5,-10"/>
<text text-anchor="start" x="1167.2251" y="-15.4" font-family="sans-serif" font-size="14.00" fill="#000000"> &#160;Module</text>
<polygon fill="#80b1d3" stroke="transparent" points="1229.5,-10 1229.5,-30 1249.5,-30 1249.5,-10 1229.5,-10"/>
<text text-anchor="start" x="1253.2812" y="-15.4" font-family="sans-serif" font-size="14.00" fill="#000000"> &#160;Bootstrap</text>
<polygon fill="#fdb462" stroke="transparent" points="1326.5,-10 1326.5,-30 1346.5,-30 1346.5,-10 1326.5,-10"/>
<text text-anchor="start" x="1350.1732" y="-15.4" font-family="sans-serif" font-size="14.00" fill="#000000"> &#160;Providers</text>
<polygon fill="#fb8072" stroke="transparent" points="1422.5,-10 1422.5,-30 1442.5,-30 1442.5,-10 1422.5,-10"/>
<text text-anchor="start" x="1446.2258" y="-15.4" font-family="sans-serif" font-size="14.00" fill="#000000"> &#160;Exports</text>
<g id="clust1" class="cluster">
<title>cluster_CollectionModule</title>
<polygon fill="none" stroke="#000000" stroke-dasharray="1,5" points="8,-70 8,-195 2521,-195 2521,-70 8,-70"/>
</g>
<g id="clust2" class="cluster">
<title>cluster_CollectionModule_declarations</title>
<polygon fill="none" stroke="#000000" points="780,-78 780,-130 2513,-130 2513,-78 780,-78"/>
</g>
<g id="clust12" class="cluster">
<title>cluster_CollectionModule_imports</title>
<polygon fill="none" stroke="#000000" points="254,-78 254,-130 772,-130 772,-78 254,-78"/>
</g>
<g id="clust15" class="cluster">
<title>cluster_CollectionModule_providers</title>
<polygon fill="none" stroke="#000000" points="16,-78 16,-130 246,-130 246,-78 16,-78"/>
</g>
<!-- CollectionAttributesComponent -->
<g id="node1" class="node">
<title>CollectionAttributesComponent</title>
<polygon fill="#ffffb3" stroke="#000000" points="2504.6497,-122 2309.3503,-122 2309.3503,-86 2504.6497,-86 2504.6497,-122"/>
<text text-anchor="middle" x="2407" y="-99.8" font-family="Times,serif" font-size="14.00" fill="#000000">CollectionAttributesComponent</text>
</g>
<!-- CollectionModule -->
<g id="node10" class="node">
<title>CollectionModule</title>
<polygon fill="#8dd3c7" stroke="#000000" points="1222.8781,-187 1219.8781,-191 1198.8781,-191 1195.8781,-187 1105.1219,-187 1105.1219,-151 1222.8781,-151 1222.8781,-187"/>
<text text-anchor="middle" x="1164" y="-164.8" font-family="Times,serif" font-size="14.00" fill="#000000">CollectionModule</text>
</g>
<!-- CollectionAttributesComponent&#45;&gt;CollectionModule -->
<g id="edge1" class="edge">
<title>CollectionAttributesComponent&#45;&gt;CollectionModule</title>
<path fill="none" stroke="#000000" d="M2407,-122.0908C2407,-145.1328 2407,-182 2407,-182 2407,-182 1233.1163,-182 1233.1163,-182"/>
<polygon fill="#000000" stroke="#000000" points="1233.1163,-178.5001 1223.1163,-182 1233.1162,-185.5001 1233.1163,-178.5001"/>
</g>
<!-- CollectionComponent -->
<g id="node2" class="node">
<title>CollectionComponent</title>
<polygon fill="#ffffb3" stroke="#000000" points="2290.661,-122 2151.339,-122 2151.339,-86 2290.661,-86 2290.661,-122"/>
<text text-anchor="middle" x="2221" y="-99.8" font-family="Times,serif" font-size="14.00" fill="#000000">CollectionComponent</text>
</g>
<!-- CollectionComponent&#45;&gt;CollectionModule -->
<g id="edge2" class="edge">
<title>CollectionComponent&#45;&gt;CollectionModule</title>
<path fill="none" stroke="#000000" d="M2221,-122.0449C2221,-143.6623 2221,-177 2221,-177 2221,-177 1233.0938,-177 1233.0938,-177"/>
<polygon fill="#000000" stroke="#000000" points="1233.0939,-173.5001 1223.0938,-177 1233.0938,-180.5001 1233.0939,-173.5001"/>
</g>
<!-- CollectionEventsComponent -->
<g id="node3" class="node">
<title>CollectionEventsComponent</title>
<polygon fill="#ffffb3" stroke="#000000" points="2132.7632,-122 1955.2368,-122 1955.2368,-86 2132.7632,-86 2132.7632,-122"/>
<text text-anchor="middle" x="2044" y="-99.8" font-family="Times,serif" font-size="14.00" fill="#000000">CollectionEventsComponent</text>
</g>
<!-- CollectionEventsComponent&#45;&gt;CollectionModule -->
<g id="edge3" class="edge">
<title>CollectionEventsComponent&#45;&gt;CollectionModule</title>
<path fill="none" stroke="#000000" d="M2044,-122.2228C2044,-142.3652 2044,-172 2044,-172 2044,-172 1233.1057,-172 1233.1057,-172"/>
<polygon fill="#000000" stroke="#000000" points="1233.1058,-168.5001 1223.1057,-172 1233.1057,-175.5001 1233.1058,-168.5001"/>
</g>
<!-- CollectionLinkTypesComponent -->
<g id="node4" class="node">
<title>CollectionLinkTypesComponent</title>
<polygon fill="#ffffb3" stroke="#000000" points="1937.3158,-122 1736.6842,-122 1736.6842,-86 1937.3158,-86 1937.3158,-122"/>
<text text-anchor="middle" x="1837" y="-99.8" font-family="Times,serif" font-size="14.00" fill="#000000">CollectionLinkTypesComponent</text>
</g>
<!-- CollectionLinkTypesComponent&#45;&gt;CollectionModule -->
<g id="edge4" class="edge">
<title>CollectionLinkTypesComponent&#45;&gt;CollectionModule</title>
<path fill="none" stroke="#000000" d="M1837,-122.2222C1837,-140.8285 1837,-167 1837,-167 1837,-167 1233.1344,-167 1233.1344,-167"/>
<polygon fill="#000000" stroke="#000000" points="1233.1345,-163.5001 1223.1344,-167 1233.1344,-170.5001 1233.1345,-163.5001"/>
</g>
<!-- CollectionListComponent -->
<g id="node5" class="node">
<title>CollectionListComponent</title>
<polygon fill="#ffffb3" stroke="#000000" points="1718.9396,-122 1557.0604,-122 1557.0604,-86 1718.9396,-86 1718.9396,-122"/>
<text text-anchor="middle" x="1638" y="-99.8" font-family="Times,serif" font-size="14.00" fill="#000000">CollectionListComponent</text>
</g>
<!-- CollectionListComponent&#45;&gt;CollectionModule -->
<g id="edge5" class="edge">
<title>CollectionListComponent&#45;&gt;CollectionModule</title>
<path fill="none" stroke="#000000" d="M1638,-122.0336C1638,-139.0597 1638,-162 1638,-162 1638,-162 1233.074,-162 1233.074,-162"/>
<polygon fill="#000000" stroke="#000000" points="1233.0741,-158.5001 1223.074,-162 1233.074,-165.5001 1233.0741,-158.5001"/>
</g>
<!-- CollectionSettingsComponent -->
<g id="node6" class="node">
<title>CollectionSettingsComponent</title>
<polygon fill="#ffffb3" stroke="#000000" points="1539.2743,-122 1354.7257,-122 1354.7257,-86 1539.2743,-86 1539.2743,-122"/>
<text text-anchor="middle" x="1447" y="-99.8" font-family="Times,serif" font-size="14.00" fill="#000000">CollectionSettingsComponent</text>
</g>
<!-- CollectionSettingsComponent&#45;&gt;CollectionModule -->
<g id="edge6" class="edge">
<title>CollectionSettingsComponent&#45;&gt;CollectionModule</title>
<path fill="none" stroke="#000000" d="M1447,-122.2396C1447,-137.5706 1447,-157 1447,-157 1447,-157 1232.9816,-157 1232.9816,-157"/>
<polygon fill="#000000" stroke="#000000" points="1232.9816,-153.5001 1222.9816,-157 1232.9816,-160.5001 1232.9816,-153.5001"/>
</g>
<!-- CollectionTabComponent -->
<g id="node7" class="node">
<title>CollectionTabComponent</title>
<polygon fill="#ffffb3" stroke="#000000" points="1336.9284,-122 1175.0716,-122 1175.0716,-86 1336.9284,-86 1336.9284,-122"/>
<text text-anchor="middle" x="1256" y="-99.8" font-family="Times,serif" font-size="14.00" fill="#000000">CollectionTabComponent</text>
</g>
<!-- CollectionTabComponent&#45;&gt;CollectionModule -->
<g id="edge7" class="edge">
<title>CollectionTabComponent&#45;&gt;CollectionModule</title>
<path fill="none" stroke="#000000" d="M1199.1126,-122.1061C1199.1126,-122.1061 1199.1126,-140.991 1199.1126,-140.991"/>
<polygon fill="#000000" stroke="#000000" points="1195.6126,-140.9909 1199.1126,-150.991 1202.6126,-140.991 1195.6126,-140.9909"/>
</g>
<!-- CollectionUsersComponent -->
<g id="node8" class="node">
<title>CollectionUsersComponent</title>
<polygon fill="#ffffb3" stroke="#000000" points="1157.5322,-122 986.4678,-122 986.4678,-86 1157.5322,-86 1157.5322,-122"/>
<text text-anchor="middle" x="1072" y="-99.8" font-family="Times,serif" font-size="14.00" fill="#000000">CollectionUsersComponent</text>
</g>
<!-- CollectionUsersComponent&#45;&gt;CollectionModule -->
<g id="edge8" class="edge">
<title>CollectionUsersComponent&#45;&gt;CollectionModule</title>
<path fill="none" stroke="#000000" d="M1131.4134,-122.1061C1131.4134,-122.1061 1131.4134,-140.991 1131.4134,-140.991"/>
<polygon fill="#000000" stroke="#000000" points="1127.9135,-140.9909 1131.4134,-150.991 1134.9135,-140.991 1127.9135,-140.9909"/>
</g>
<!-- LinkAttributeListComponent -->
<g id="node9" class="node">
<title>LinkAttributeListComponent</title>
<polygon fill="#ffffb3" stroke="#000000" points="968.0982,-122 787.9018,-122 787.9018,-86 968.0982,-86 968.0982,-122"/>
<text text-anchor="middle" x="878" y="-99.8" font-family="Times,serif" font-size="14.00" fill="#000000">LinkAttributeListComponent</text>
</g>
<!-- LinkAttributeListComponent&#45;&gt;CollectionModule -->
<g id="edge9" class="edge">
<title>LinkAttributeListComponent&#45;&gt;CollectionModule</title>
<path fill="none" stroke="#000000" d="M878,-122.2396C878,-137.5706 878,-157 878,-157 878,-157 1095.0874,-157 1095.0874,-157"/>
<polygon fill="#000000" stroke="#000000" points="1095.0874,-160.5001 1105.0874,-157 1095.0874,-153.5001 1095.0874,-160.5001"/>
</g>
<!-- CollectionRoutingModule -->
<g id="node11" class="node">
<title>CollectionRoutingModule</title>
<polygon fill="#8dd3c7" stroke="#000000" points="764.4958,-122 761.4958,-126 740.4958,-126 737.4958,-122 601.5042,-122 601.5042,-86 764.4958,-86 764.4958,-122"/>
<text text-anchor="middle" x="683" y="-99.8" font-family="Times,serif" font-size="14.00" fill="#000000">CollectionRoutingModule</text>
</g>
<!-- CollectionRoutingModule&#45;&gt;CollectionModule -->
<g id="edge10" class="edge">
<title>CollectionRoutingModule&#45;&gt;CollectionModule</title>
<path fill="none" stroke="#000000" d="M683,-122.0336C683,-139.0597 683,-162 683,-162 683,-162 1095.02,-162 1095.02,-162"/>
<polygon fill="#000000" stroke="#000000" points="1095.02,-165.5001 1105.02,-162 1095.0199,-158.5001 1095.02,-165.5001"/>
</g>
<!-- PickerModule -->
<g id="node12" class="node">
<title>PickerModule</title>
<polygon fill="#8dd3c7" stroke="#000000" points="583.8133,-122 580.8133,-126 559.8133,-126 556.8133,-122 488.1867,-122 488.1867,-86 583.8133,-86 583.8133,-122"/>
<text text-anchor="middle" x="536" y="-99.8" font-family="Times,serif" font-size="14.00" fill="#000000">PickerModule</text>
</g>
<!-- PickerModule&#45;&gt;CollectionModule -->
<g id="edge11" class="edge">
<title>PickerModule&#45;&gt;CollectionModule</title>
<path fill="none" stroke="#000000" d="M536,-122.2222C536,-140.8285 536,-167 536,-167 536,-167 1094.9193,-167 1094.9193,-167"/>
<polygon fill="#000000" stroke="#000000" points="1094.9193,-170.5001 1104.9193,-167 1094.9192,-163.5001 1094.9193,-170.5001"/>
</g>
<!-- SharedModule -->
<g id="node13" class="node">
<title>SharedModule</title>
<polygon fill="#8dd3c7" stroke="#000000" points="470.4231,-122 467.4231,-126 446.4231,-126 443.4231,-122 371.5769,-122 371.5769,-86 470.4231,-86 470.4231,-122"/>
<text text-anchor="middle" x="421" y="-99.8" font-family="Times,serif" font-size="14.00" fill="#000000">SharedModule</text>
</g>
<!-- SharedModule&#45;&gt;CollectionModule -->
<g id="edge12" class="edge">
<title>SharedModule&#45;&gt;CollectionModule</title>
<path fill="none" stroke="#000000" d="M421,-122.2228C421,-142.3652 421,-172 421,-172 421,-172 1095.077,-172 1095.077,-172"/>
<polygon fill="#000000" stroke="#000000" points="1095.077,-175.5001 1105.077,-172 1095.077,-168.5001 1095.077,-175.5001"/>
</g>
<!-- UsersModule -->
<g id="node14" class="node">
<title>UsersModule</title>
<polygon fill="#8dd3c7" stroke="#000000" points="353.9218,-122 350.9218,-126 329.9218,-126 326.9218,-122 262.0782,-122 262.0782,-86 353.9218,-86 353.9218,-122"/>
<text text-anchor="middle" x="308" y="-99.8" font-family="Times,serif" font-size="14.00" fill="#000000">UsersModule</text>
</g>
<!-- UsersModule&#45;&gt;CollectionModule -->
<g id="edge13" class="edge">
<title>UsersModule&#45;&gt;CollectionModule</title>
<path fill="none" stroke="#000000" d="M308,-122.0449C308,-143.6623 308,-177 308,-177 308,-177 1094.8259,-177 1094.8259,-177"/>
<polygon fill="#000000" stroke="#000000" points="1094.826,-180.5001 1104.8259,-177 1094.8259,-173.5001 1094.826,-180.5001"/>
</g>
<!-- CollectionSettingsGuard -->
<g id="node15" class="node">
<title>CollectionSettingsGuard</title>
<ellipse fill="#fdb462" stroke="#000000" cx="131" cy="-104" rx="106.5372" ry="18"/>
<text text-anchor="middle" x="131" y="-99.8" font-family="Times,serif" font-size="14.00" fill="#000000">CollectionSettingsGuard</text>
</g>
<!-- CollectionSettingsGuard&#45;&gt;CollectionModule -->
<g id="edge14" class="edge">
<title>CollectionSettingsGuard&#45;&gt;CollectionModule</title>
<path fill="none" stroke="#000000" d="M131,-122.0908C131,-145.1328 131,-182 131,-182 131,-182 1094.7512,-182 1094.7512,-182"/>
<polygon fill="#000000" stroke="#000000" points="1094.7513,-185.5001 1104.7512,-182 1094.7512,-178.5001 1094.7513,-185.5001"/>
</g>
</g>
</svg>
