<?xml version="1.0" encoding="UTF-8" standalone="no"?>
<!DOCTYPE svg PUBLIC "-//W3C//DTD SVG 1.1//EN"
 "http://www.w3.org/Graphics/SVG/1.1/DTD/svg11.dtd">
<!-- Generated by graphviz version 2.40.1 (20161225.0304)
 -->
<!-- Title: dependencies Pages: 1 -->
<svg width="1827pt" height="211pt"
 viewBox="0.00 0.00 1827.00 211.00" xmlns="http://www.w3.org/2000/svg" xmlns:xlink="http://www.w3.org/1999/xlink">
<g id="graph0" class="graph" transform="scale(1 1) rotate(0) translate(4 207)">
<title>dependencies</title>
<polygon fill="#ffffff" stroke="transparent" points="-4,4 -4,-207 1823,-207 1823,4 -4,4"/>
<text text-anchor="start" x="888.5091" y="-42.4" font-family="sans-serif" font-weight="bold" font-size="14.00" fill="#000000">Legend</text>
<polygon fill="#ffffb3" stroke="transparent" points="675.5,-10 675.5,-30 695.5,-30 695.5,-10 675.5,-10"/>
<text text-anchor="start" x="699.129" y="-15.4" font-family="sans-serif" font-size="14.00" fill="#000000"> &#160;Declarations</text>
<polygon fill="#8dd3c7" stroke="transparent" points="788.5,-10 788.5,-30 808.5,-30 808.5,-10 788.5,-10"/>
<text text-anchor="start" x="812.2251" y="-15.4" font-family="sans-serif" font-size="14.00" fill="#000000"> &#160;Module</text>
<polygon fill="#80b1d3" stroke="transparent" points="874.5,-10 874.5,-30 894.5,-30 894.5,-10 874.5,-10"/>
<text text-anchor="start" x="898.2812" y="-15.4" font-family="sans-serif" font-size="14.00" fill="#000000"> &#160;Bootstrap</text>
<polygon fill="#fdb462" stroke="transparent" points="971.5,-10 971.5,-30 991.5,-30 991.5,-10 971.5,-10"/>
<text text-anchor="start" x="995.1732" y="-15.4" font-family="sans-serif" font-size="14.00" fill="#000000"> &#160;Providers</text>
<polygon fill="#fb8072" stroke="transparent" points="1067.5,-10 1067.5,-30 1087.5,-30 1087.5,-10 1067.5,-10"/>
<text text-anchor="start" x="1091.2258" y="-15.4" font-family="sans-serif" font-size="14.00" fill="#000000"> &#160;Exports</text>
<g id="clust1" class="cluster">
<title>cluster_CollectionModule</title>
<polygon fill="none" stroke="#000000" stroke-dasharray="1,5" points="8,-70 8,-195 1811,-195 1811,-70 8,-70"/>
</g>
<g id="clust2" class="cluster">
<title>cluster_CollectionModule_declarations</title>
<polygon fill="none" stroke="#000000" points="542,-78 542,-130 1803,-130 1803,-78 542,-78"/>
</g>
<g id="clust10" class="cluster">
<title>cluster_CollectionModule_imports</title>
<polygon fill="none" stroke="#000000" points="16,-78 16,-130 534,-130 534,-78 16,-78"/>
</g>
<!-- AttributeFilterPipe -->
<g id="node1" class="node">
<title>AttributeFilterPipe</title>
<polygon fill="#ffffb3" stroke="#000000" points="1794.7618,-122 1673.2382,-122 1673.2382,-86 1794.7618,-86 1794.7618,-122"/>
<text text-anchor="middle" x="1734" y="-99.8" font-family="Times,serif" font-size="14.00" fill="#000000">AttributeFilterPipe</text>
</g>
<!-- CollectionModule -->
<g id="node8" class="node">
<title>CollectionModule</title>
<polygon fill="#8dd3c7" stroke="#000000" points="820.8781,-187 817.8781,-191 796.8781,-191 793.8781,-187 703.1219,-187 703.1219,-151 820.8781,-151 820.8781,-187"/>
<text text-anchor="middle" x="762" y="-164.8" font-family="Times,serif" font-size="14.00" fill="#000000">CollectionModule</text>
</g>
<!-- AttributeFilterPipe&#45;&gt;CollectionModule -->
<g id="edge1" class="edge">
<title>AttributeFilterPipe&#45;&gt;CollectionModule</title>
<path fill="none" stroke="#000000" d="M1734,-122.0908C1734,-145.1328 1734,-182 1734,-182 1734,-182 830.9764,-182 830.9764,-182"/>
<polygon fill="#000000" stroke="#000000" points="830.9764,-178.5001 820.9764,-182 830.9764,-185.5001 830.9764,-178.5001"/>
</g>
<!-- CollectionAttributesComponent -->
<g id="node2" class="node">
<title>CollectionAttributesComponent</title>
<polygon fill="#ffffb3" stroke="#000000" points="1654.6497,-122 1459.3503,-122 1459.3503,-86 1654.6497,-86 1654.6497,-122"/>
<text text-anchor="middle" x="1557" y="-99.8" font-family="Times,serif" font-size="14.00" fill="#000000">CollectionAttributesComponent</text>
</g>
<!-- CollectionAttributesComponent&#45;&gt;CollectionModule -->
<g id="edge2" class="edge">
<title>CollectionAttributesComponent&#45;&gt;CollectionModule</title>
<path fill="none" stroke="#000000" d="M1557,-122.2843C1557,-143.3211 1557,-175 1557,-175 1557,-175 831.1047,-175 831.1047,-175"/>
<polygon fill="#000000" stroke="#000000" points="831.1047,-171.5001 821.1047,-175 831.1047,-178.5001 831.1047,-171.5001"/>
</g>
<!-- CollectionLinkTypesComponent -->
<g id="node3" class="node">
<title>CollectionLinkTypesComponent</title>
<polygon fill="#ffffb3" stroke="#000000" points="1441.3158,-122 1240.6842,-122 1240.6842,-86 1441.3158,-86 1441.3158,-122"/>
<text text-anchor="middle" x="1341" y="-99.8" font-family="Times,serif" font-size="14.00" fill="#000000">CollectionLinkTypesComponent</text>
</g>
<!-- CollectionLinkTypesComponent&#45;&gt;CollectionModule -->
<g id="edge3" class="edge">
<title>CollectionLinkTypesComponent&#45;&gt;CollectionModule</title>
<path fill="none" stroke="#000000" d="M1341,-122.1061C1341,-141.3391 1341,-169 1341,-169 1341,-169 830.9728,-169 830.9728,-169"/>
<polygon fill="#000000" stroke="#000000" points="830.9728,-165.5001 820.9728,-169 830.9728,-172.5001 830.9728,-165.5001"/>
</g>
<!-- CollectionSettingsComponent -->
<g id="node4" class="node">
<title>CollectionSettingsComponent</title>
<polygon fill="#ffffb3" stroke="#000000" points="1222.2743,-122 1037.7257,-122 1037.7257,-86 1222.2743,-86 1222.2743,-122"/>
<text text-anchor="middle" x="1130" y="-99.8" font-family="Times,serif" font-size="14.00" fill="#000000">CollectionSettingsComponent</text>
</g>
<!-- CollectionSettingsComponent&#45;&gt;CollectionModule -->
<g id="edge4" class="edge">
<title>CollectionSettingsComponent&#45;&gt;CollectionModule</title>
<path fill="none" stroke="#000000" d="M1130,-122.0225C1130,-139.3734 1130,-163 1130,-163 1130,-163 831.1256,-163 831.1256,-163"/>
<polygon fill="#000000" stroke="#000000" points="831.1256,-159.5001 821.1256,-163 831.1255,-166.5001 831.1256,-159.5001"/>
</g>
<!-- CollectionUsersComponent -->
<g id="node5" class="node">
<title>CollectionUsersComponent</title>
<polygon fill="#ffffb3" stroke="#000000" points="1019.5322,-122 848.4678,-122 848.4678,-86 1019.5322,-86 1019.5322,-122"/>
<text text-anchor="middle" x="934" y="-99.8" font-family="Times,serif" font-size="14.00" fill="#000000">CollectionUsersComponent</text>
</g>
<!-- CollectionUsersComponent&#45;&gt;CollectionModule -->
<g id="edge5" class="edge">
<title>CollectionUsersComponent&#45;&gt;CollectionModule</title>
<path fill="none" stroke="#000000" d="M934,-122.2396C934,-137.5706 934,-157 934,-157 934,-157 831.1926,-157 831.1926,-157"/>
<polygon fill="#000000" stroke="#000000" points="831.1927,-153.5001 821.1926,-157 831.1926,-160.5001 831.1927,-153.5001"/>
</g>
<!-- LinkTypeComponent -->
<g id="node6" class="node">
<title>LinkTypeComponent</title>
<polygon fill="#ffffb3" stroke="#000000" points="830.0436,-122 693.9564,-122 693.9564,-86 830.0436,-86 830.0436,-122"/>
<text text-anchor="middle" x="762" y="-99.8" font-family="Times,serif" font-size="14.00" fill="#000000">LinkTypeComponent</text>
</g>
<!-- LinkTypeComponent&#45;&gt;CollectionModule -->
<g id="edge6" class="edge">
<title>LinkTypeComponent&#45;&gt;CollectionModule</title>
<path fill="none" stroke="#000000" d="M762,-122.1061C762,-122.1061 762,-140.991 762,-140.991"/>
<polygon fill="#000000" stroke="#000000" points="758.5001,-140.9909 762,-150.991 765.5001,-140.991 758.5001,-140.9909"/>
</g>
<!-- LinkTypeFilterPipe -->
<g id="node7" class="node">
<title>LinkTypeFilterPipe</title>
<polygon fill="#ffffb3" stroke="#000000" points="676.4285,-122 549.5715,-122 549.5715,-86 676.4285,-86 676.4285,-122"/>
<text text-anchor="middle" x="613" y="-99.8" font-family="Times,serif" font-size="14.00" fill="#000000">LinkTypeFilterPipe</text>
</g>
<!-- LinkTypeFilterPipe&#45;&gt;CollectionModule -->
<g id="edge7" class="edge">
<title>LinkTypeFilterPipe&#45;&gt;CollectionModule</title>
<path fill="none" stroke="#000000" d="M613,-122.2396C613,-137.5706 613,-157 613,-157 613,-157 693.1113,-157 693.1113,-157"/>
<polygon fill="#000000" stroke="#000000" points="693.1113,-160.5001 703.1113,-157 693.1112,-153.5001 693.1113,-160.5001"/>
</g>
<!-- CollectionRoutingModule -->
<g id="node9" class="node">
<title>CollectionRoutingModule</title>
<polygon fill="#8dd3c7" stroke="#000000" points="526.4958,-122 523.4958,-126 502.4958,-126 499.4958,-122 363.5042,-122 363.5042,-86 526.4958,-86 526.4958,-122"/>
<text text-anchor="middle" x="445" y="-99.8" font-family="Times,serif" font-size="14.00" fill="#000000">CollectionRoutingModule</text>
</g>
<!-- CollectionRoutingModule&#45;&gt;CollectionModule -->
<g id="edge8" class="edge">
<title>CollectionRoutingModule&#45;&gt;CollectionModule</title>
<path fill="none" stroke="#000000" d="M445,-122.0225C445,-139.3734 445,-163 445,-163 445,-163 693.1176,-163 693.1176,-163"/>
<polygon fill="#000000" stroke="#000000" points="693.1177,-166.5001 703.1176,-163 693.1176,-159.5001 693.1177,-166.5001"/>
</g>
<!-- PickerModule -->
<g id="node10" class="node">
<title>PickerModule</title>
<polygon fill="#8dd3c7" stroke="#000000" points="345.8133,-122 342.8133,-126 321.8133,-126 318.8133,-122 250.1867,-122 250.1867,-86 345.8133,-86 345.8133,-122"/>
<text text-anchor="middle" x="298" y="-99.8" font-family="Times,serif" font-size="14.00" fill="#000000">PickerModule</text>
</g>
<!-- PickerModule&#45;&gt;CollectionModule -->
<g id="edge9" class="edge">
<title>PickerModule&#45;&gt;CollectionModule</title>
<path fill="none" stroke="#000000" d="M298,-122.1061C298,-141.3391 298,-169 298,-169 298,-169 692.7628,-169 692.7628,-169"/>
<polygon fill="#000000" stroke="#000000" points="692.7628,-172.5001 702.7628,-169 692.7627,-165.5001 692.7628,-172.5001"/>
</g>
<!-- SharedModule -->
<g id="node11" class="node">
<title>SharedModule</title>
<polygon fill="#8dd3c7" stroke="#000000" points="232.4231,-122 229.4231,-126 208.4231,-126 205.4231,-122 133.5769,-122 133.5769,-86 232.4231,-86 232.4231,-122"/>
<text text-anchor="middle" x="183" y="-99.8" font-family="Times,serif" font-size="14.00" fill="#000000">SharedModule</text>
</g>
<!-- SharedModule&#45;&gt;CollectionModule -->
<g id="edge10" class="edge">
<title>SharedModule&#45;&gt;CollectionModule</title>
<path fill="none" stroke="#000000" d="M183,-122.2843C183,-143.3211 183,-175 183,-175 183,-175 693.0272,-175 693.0272,-175"/>
<polygon fill="#000000" stroke="#000000" points="693.0272,-178.5001 703.0272,-175 693.0272,-171.5001 693.0272,-178.5001"/>
</g>
<!-- UsersModule -->
<g id="node12" class="node">
<title>UsersModule</title>
<polygon fill="#8dd3c7" stroke="#000000" points="115.9218,-122 112.9218,-126 91.9218,-126 88.9218,-122 24.0782,-122 24.0782,-86 115.9218,-86 115.9218,-122"/>
<text text-anchor="middle" x="70" y="-99.8" font-family="Times,serif" font-size="14.00" fill="#000000">UsersModule</text>
</g>
<!-- UsersModule&#45;&gt;CollectionModule -->
<g id="edge11" class="edge">
<title>UsersModule&#45;&gt;CollectionModule</title>
<path fill="none" stroke="#000000" d="M70,-122.0908C70,-145.1328 70,-182 70,-182 70,-182 693.0005,-182 693.0005,-182"/>
<polygon fill="#000000" stroke="#000000" points="693.0005,-185.5001 703.0005,-182 693.0004,-178.5001 693.0005,-185.5001"/>
</g>
</g>
</svg>
