<?xml version="1.0" encoding="UTF-8" standalone="no"?>
<!DOCTYPE svg PUBLIC "-//W3C//DTD SVG 1.1//EN"
 "http://www.w3.org/Graphics/SVG/1.1/DTD/svg11.dtd">
<!-- Generated by graphviz version 2.40.1 (20161225.0304)
 -->
<!-- Title: dependencies Pages: 1 -->
<svg width="1182pt" height="284pt"
 viewBox="0.00 0.00 1182.00 284.00" xmlns="http://www.w3.org/2000/svg" xmlns:xlink="http://www.w3.org/1999/xlink">
<g id="graph0" class="graph" transform="scale(1 1) rotate(0) translate(4 280)">
<title>dependencies</title>
<polygon fill="#ffffff" stroke="transparent" points="-4,4 -4,-280 1178,-280 1178,4 -4,4"/>
<text text-anchor="start" x="566.0091" y="-42.4" font-family="sans-serif" font-weight="bold" font-size="14.00" fill="#000000">Legend</text>
<polygon fill="#ffffb3" stroke="transparent" points="353,-10 353,-30 373,-30 373,-10 353,-10"/>
<text text-anchor="start" x="376.629" y="-15.4" font-family="sans-serif" font-size="14.00" fill="#000000"> &#160;Declarations</text>
<polygon fill="#8dd3c7" stroke="transparent" points="466,-10 466,-30 486,-30 486,-10 466,-10"/>
<text text-anchor="start" x="489.7251" y="-15.4" font-family="sans-serif" font-size="14.00" fill="#000000"> &#160;Module</text>
<polygon fill="#80b1d3" stroke="transparent" points="552,-10 552,-30 572,-30 572,-10 552,-10"/>
<text text-anchor="start" x="575.7812" y="-15.4" font-family="sans-serif" font-size="14.00" fill="#000000"> &#160;Bootstrap</text>
<polygon fill="#fdb462" stroke="transparent" points="649,-10 649,-30 669,-30 669,-10 649,-10"/>
<text text-anchor="start" x="672.6732" y="-15.4" font-family="sans-serif" font-size="14.00" fill="#000000"> &#160;Providers</text>
<polygon fill="#fb8072" stroke="transparent" points="745,-10 745,-30 765,-30 765,-10 745,-10"/>
<text text-anchor="start" x="768.7258" y="-15.4" font-family="sans-serif" font-size="14.00" fill="#000000"> &#160;Exports</text>
<g id="clust1" class="cluster">
<title>cluster_UsersModule</title>
<polygon fill="none" stroke="#000000" stroke-dasharray="1,5" points="8,-70 8,-268 1166,-268 1166,-70 8,-70"/>
</g>
<g id="clust2" class="cluster">
<title>cluster_UsersModule_declarations</title>
<polygon fill="none" stroke="#000000" points="229,-78 229,-130 1158,-130 1158,-78 229,-78"/>
</g>
<g id="clust9" class="cluster">
<title>cluster_UsersModule_imports</title>
<polygon fill="none" stroke="#000000" points="16,-78 16,-130 221,-130 221,-78 16,-78"/>
</g>
<g id="clust10" class="cluster">
<title>cluster_UsersModule_exports</title>
<polygon fill="none" stroke="#000000" points="445,-208 445,-260 577,-260 577,-208 445,-208"/>
</g>
<!-- GroupsSuggestionsComponent -->
<g id="node1" class="node">
<title>GroupsSuggestionsComponent</title>
<polygon fill="#ffffb3" stroke="#000000" points="1150.2119,-122 959.7881,-122 959.7881,-86 1150.2119,-86 1150.2119,-122"/>
<text text-anchor="middle" x="1055" y="-99.8" font-family="Times,serif" font-size="14.00" fill="#000000">GroupsSuggestionsComponent</text>
</g>
<!-- UsersModule -->
<g id="node7" class="node">
<title>UsersModule</title>
<polygon fill="#8dd3c7" stroke="#000000" points="556.9218,-187 553.9218,-191 532.9218,-191 529.9218,-187 465.0782,-187 465.0782,-151 556.9218,-151 556.9218,-187"/>
<text text-anchor="middle" x="511" y="-164.8" font-family="Times,serif" font-size="14.00" fill="#000000">UsersModule</text>
</g>
<!-- GroupsSuggestionsComponent&#45;&gt;UsersModule -->
<g id="edge1" class="edge">
<title>GroupsSuggestionsComponent&#45;&gt;UsersModule</title>
<path fill="none" stroke="#000000" d="M1055,-122.2921C1055,-144.2057 1055,-178 1055,-178 1055,-178 566.9123,-178 566.9123,-178"/>
<polygon fill="#000000" stroke="#000000" points="566.9123,-174.5001 556.9123,-178 566.9123,-181.5001 566.9123,-174.5001"/>
</g>
<!-- NewUserComponent -->
<g id="node2" class="node">
<title>NewUserComponent</title>
<polygon fill="#ffffb3" stroke="#000000" points="942.1867,-122 807.8133,-122 807.8133,-86 942.1867,-86 942.1867,-122"/>
<text text-anchor="middle" x="875" y="-99.8" font-family="Times,serif" font-size="14.00" fill="#000000">NewUserComponent</text>
</g>
<!-- NewUserComponent&#45;&gt;UsersModule -->
<g id="edge2" class="edge">
<title>NewUserComponent&#45;&gt;UsersModule</title>
<path fill="none" stroke="#000000" d="M875,-122.1061C875,-141.3391 875,-169 875,-169 875,-169 566.7323,-169 566.7323,-169"/>
<polygon fill="#000000" stroke="#000000" points="566.7323,-165.5001 556.7323,-169 566.7322,-172.5001 566.7323,-165.5001"/>
</g>
<!-- UserComponent -->
<g id="node3" class="node">
<title>UserComponent</title>
<polygon fill="#ffffb3" stroke="#000000" points="789.7591,-122 682.2409,-122 682.2409,-86 789.7591,-86 789.7591,-122"/>
<text text-anchor="middle" x="736" y="-99.8" font-family="Times,serif" font-size="14.00" fill="#000000">UserComponent</text>
</g>
<!-- UserComponent&#45;&gt;UsersModule -->
<g id="edge3" class="edge">
<title>UserComponent&#45;&gt;UsersModule</title>
<path fill="none" stroke="#000000" d="M736,-122.027C736,-138.3976 736,-160 736,-160 736,-160 566.8033,-160 566.8033,-160"/>
<polygon fill="#000000" stroke="#000000" points="566.8033,-156.5001 556.8033,-160 566.8033,-163.5001 566.8033,-156.5001"/>
</g>
<!-- UserGroupsComponent -->
<g id="node4" class="node">
<title>UserGroupsComponent</title>
<polygon fill="#ffffb3" stroke="#000000" points="664.4706,-122 515.5294,-122 515.5294,-86 664.4706,-86 664.4706,-122"/>
<text text-anchor="middle" x="590" y="-99.8" font-family="Times,serif" font-size="14.00" fill="#000000">UserGroupsComponent</text>
</g>
<!-- UserGroupsComponent&#45;&gt;UsersModule -->
<g id="edge4" class="edge">
<title>UserGroupsComponent&#45;&gt;UsersModule</title>
<path fill="none" stroke="#000000" d="M536.1126,-122.1061C536.1126,-122.1061 536.1126,-140.991 536.1126,-140.991"/>
<polygon fill="#000000" stroke="#000000" points="532.6126,-140.9909 536.1126,-150.991 539.6126,-140.991 532.6126,-140.9909"/>
</g>
<!-- UserListComponent -->
<g id="node5" class="node">
<title>UserListComponent</title>
<polygon fill="#ffffb3" stroke="#000000" points="497.538,-122 368.462,-122 368.462,-86 497.538,-86 497.538,-122"/>
<text text-anchor="middle" x="433" y="-99.8" font-family="Times,serif" font-size="14.00" fill="#000000">UserListComponent</text>
</g>
<!-- UserListComponent&#45;&gt;UsersModule -->
<g id="edge5" class="edge">
<title>UserListComponent&#45;&gt;UsersModule</title>
<path fill="none" stroke="#000000" d="M481.5291,-122.1061C481.5291,-122.1061 481.5291,-140.991 481.5291,-140.991"/>
<polygon fill="#000000" stroke="#000000" points="478.0292,-140.9909 481.5291,-150.991 485.0292,-140.991 478.0292,-140.9909"/>
</g>
<!-- UsersComponent -->
<g id="node6" class="node">
<title>UsersComponent</title>
<polygon fill="#ffffb3" stroke="#000000" points="350.7036,-122 237.2964,-122 237.2964,-86 350.7036,-86 350.7036,-122"/>
<text text-anchor="middle" x="294" y="-99.8" font-family="Times,serif" font-size="14.00" fill="#000000">UsersComponent</text>
</g>
<!-- UsersComponent&#45;&gt;UsersModule -->
<g id="edge6" class="edge">
<title>UsersComponent&#45;&gt;UsersModule</title>
<path fill="none" stroke="#000000" d="M294,-122.027C294,-138.3976 294,-160 294,-160 294,-160 455.245,-160 455.245,-160"/>
<polygon fill="#000000" stroke="#000000" points="455.2451,-163.5001 465.245,-160 455.245,-156.5001 455.2451,-163.5001"/>
</g>
<!-- UsersComponent  -->
<g id="node10" class="node">
<title>UsersComponent </title>
<polygon fill="#fb8072" stroke="#000000" points="569.2038,-252 452.7962,-252 452.7962,-216 569.2038,-216 569.2038,-252"/>
<text text-anchor="middle" x="511" y="-229.8" font-family="Times,serif" font-size="14.00" fill="#000000">UsersComponent </text>
</g>
<!-- UsersModule&#45;&gt;UsersComponent  -->
<g id="edge9" class="edge">
<title>UsersModule&#45;&gt;UsersComponent </title>
<path fill="none" stroke="#000000" stroke-dasharray="5,2" d="M511,-187.1061C511,-187.1061 511,-205.991 511,-205.991"/>
<polygon fill="#000000" stroke="#000000" points="507.5001,-205.9909 511,-215.991 514.5001,-205.991 507.5001,-205.9909"/>
</g>
<!-- InputModule -->
<g id="node8" class="node">
<title>InputModule</title>
<polygon fill="#8dd3c7" stroke="#000000" points="212.6011,-122 209.6011,-126 188.6011,-126 185.6011,-122 123.3989,-122 123.3989,-86 212.6011,-86 212.6011,-122"/>
<text text-anchor="middle" x="168" y="-99.8" font-family="Times,serif" font-size="14.00" fill="#000000">InputModule</text>
</g>
<!-- InputModule&#45;&gt;UsersModule -->
<g id="edge7" class="edge">
<title>InputModule&#45;&gt;UsersModule</title>
<path fill="none" stroke="#000000" d="M168,-122.1061C168,-141.3391 168,-169 168,-169 168,-169 455.0974,-169 455.0974,-169"/>
<polygon fill="#000000" stroke="#000000" points="455.0974,-172.5001 465.0974,-169 455.0974,-165.5001 455.0974,-172.5001"/>
</g>
<!-- TagModule -->
<g id="node9" class="node">
<title>TagModule</title>
<polygon fill="#8dd3c7" stroke="#000000" points="105.8176,-122 102.8176,-126 81.8176,-126 78.8176,-122 24.1824,-122 24.1824,-86 105.8176,-86 105.8176,-122"/>
<text text-anchor="middle" x="65" y="-99.8" font-family="Times,serif" font-size="14.00" fill="#000000">TagModule</text>
</g>
<!-- TagModule&#45;&gt;UsersModule -->
<g id="edge8" class="edge">
<title>TagModule&#45;&gt;UsersModule</title>
<path fill="none" stroke="#000000" d="M65,-122.2921C65,-144.2057 65,-178 65,-178 65,-178 454.95,-178 454.95,-178"/>
<polygon fill="#000000" stroke="#000000" points="454.95,-181.5001 464.95,-178 454.95,-174.5001 454.95,-181.5001"/>
</g>
</g>
</svg>
