<?xml version="1.0" encoding="UTF-8" standalone="no"?>
<!DOCTYPE svg PUBLIC "-//W3C//DTD SVG 1.1//EN"
 "http://www.w3.org/Graphics/SVG/1.1/DTD/svg11.dtd">
<!-- Generated by graphviz version 2.40.1 (20161225.0304)
 -->
<!-- Title: dependencies Pages: 1 -->
<svg width="1298pt" height="284pt"
 viewBox="0.00 0.00 1298.00 284.00" xmlns="http://www.w3.org/2000/svg" xmlns:xlink="http://www.w3.org/1999/xlink">
<g id="graph0" class="graph" transform="scale(1 1) rotate(0) translate(4 280)">
<title>dependencies</title>
<polygon fill="#ffffff" stroke="transparent" points="-4,4 -4,-280 1294,-280 1294,4 -4,4"/>
<text text-anchor="start" x="624.0091" y="-42.4" font-family="sans-serif" font-weight="bold" font-size="14.00" fill="#000000">Legend</text>
<polygon fill="#ffffb3" stroke="transparent" points="411,-10 411,-30 431,-30 431,-10 411,-10"/>
<text text-anchor="start" x="434.629" y="-15.4" font-family="sans-serif" font-size="14.00" fill="#000000"> &#160;Declarations</text>
<polygon fill="#8dd3c7" stroke="transparent" points="524,-10 524,-30 544,-30 544,-10 524,-10"/>
<text text-anchor="start" x="547.7251" y="-15.4" font-family="sans-serif" font-size="14.00" fill="#000000"> &#160;Module</text>
<polygon fill="#80b1d3" stroke="transparent" points="610,-10 610,-30 630,-30 630,-10 610,-10"/>
<text text-anchor="start" x="633.7812" y="-15.4" font-family="sans-serif" font-size="14.00" fill="#000000"> &#160;Bootstrap</text>
<polygon fill="#fdb462" stroke="transparent" points="707,-10 707,-30 727,-30 727,-10 707,-10"/>
<text text-anchor="start" x="730.6732" y="-15.4" font-family="sans-serif" font-size="14.00" fill="#000000"> &#160;Providers</text>
<polygon fill="#fb8072" stroke="transparent" points="803,-10 803,-30 823,-30 823,-10 803,-10"/>
<text text-anchor="start" x="826.7258" y="-15.4" font-family="sans-serif" font-size="14.00" fill="#000000"> &#160;Exports</text>
<g id="clust1" class="cluster">
<title>cluster_UsersModule</title>
<polygon fill="none" stroke="#000000" stroke-dasharray="1,5" points="8,-70 8,-268 1282,-268 1282,-70 8,-70"/>
</g>
<g id="clust2" class="cluster">
<title>cluster_UsersModule_declarations</title>
<polygon fill="none" stroke="#000000" points="229,-78 229,-130 1274,-130 1274,-78 229,-78"/>
</g>
<g id="clust10" class="cluster">
<title>cluster_UsersModule_imports</title>
<polygon fill="none" stroke="#000000" points="16,-78 16,-130 221,-130 221,-78 16,-78"/>
</g>
<g id="clust11" class="cluster">
<title>cluster_UsersModule_exports</title>
<polygon fill="none" stroke="#000000" points="524,-208 524,-260 656,-260 656,-208 524,-208"/>
</g>
<!-- GroupsSuggestionsComponent -->
<g id="node1" class="node">
<title>GroupsSuggestionsComponent</title>
<polygon fill="#ffffb3" stroke="#000000" points="1266.2119,-122 1075.7881,-122 1075.7881,-86 1266.2119,-86 1266.2119,-122"/>
<text text-anchor="middle" x="1171" y="-99.8" font-family="Times,serif" font-size="14.00" fill="#000000">GroupsSuggestionsComponent</text>
</g>
<!-- UsersModule -->
<g id="node8" class="node">
<title>UsersModule</title>
<polygon fill="#8dd3c7" stroke="#000000" points="635.9218,-187 632.9218,-191 611.9218,-191 608.9218,-187 544.0782,-187 544.0782,-151 635.9218,-151 635.9218,-187"/>
<text text-anchor="middle" x="590" y="-164.8" font-family="Times,serif" font-size="14.00" fill="#000000">UsersModule</text>
</g>
<!-- GroupsSuggestionsComponent&#45;&gt;UsersModule -->
<g id="edge1" class="edge">
<title>GroupsSuggestionsComponent&#45;&gt;UsersModule</title>
<path fill="none" stroke="#000000" d="M1171,-122.0109C1171,-144.4852 1171,-180 1171,-180 1171,-180 646.0757,-180 646.0757,-180"/>
<polygon fill="#000000" stroke="#000000" points="646.0758,-176.5001 636.0757,-180 646.0757,-183.5001 646.0758,-176.5001"/>
</g>
<!-- NewUserComponent -->
<g id="node2" class="node">
<title>NewUserComponent</title>
<polygon fill="#ffffb3" stroke="#000000" points="1058.1867,-122 923.8133,-122 923.8133,-86 1058.1867,-86 1058.1867,-122"/>
<text text-anchor="middle" x="991" y="-99.8" font-family="Times,serif" font-size="14.00" fill="#000000">NewUserComponent</text>
</g>
<!-- NewUserComponent&#45;&gt;UsersModule -->
<g id="edge2" class="edge">
<title>NewUserComponent&#45;&gt;UsersModule</title>
<path fill="none" stroke="#000000" d="M991,-122.1289C991,-142.5724 991,-173 991,-173 991,-173 645.9998,-173 645.9998,-173"/>
<polygon fill="#000000" stroke="#000000" points="645.9998,-169.5001 635.9998,-173 645.9998,-176.5001 645.9998,-169.5001"/>
</g>
<!-- UserComponent -->
<g id="node3" class="node">
<title>UserComponent</title>
<polygon fill="#ffffb3" stroke="#000000" points="905.7591,-122 798.2409,-122 798.2409,-86 905.7591,-86 905.7591,-122"/>
<text text-anchor="middle" x="852" y="-99.8" font-family="Times,serif" font-size="14.00" fill="#000000">UserComponent</text>
</g>
<!-- UserComponent&#45;&gt;UsersModule -->
<g id="edge3" class="edge">
<title>UserComponent&#45;&gt;UsersModule</title>
<path fill="none" stroke="#000000" d="M852,-122.2667C852,-140.5552 852,-166 852,-166 852,-166 645.9367,-166 645.9367,-166"/>
<polygon fill="#000000" stroke="#000000" points="645.9368,-162.5001 635.9367,-166 645.9367,-169.5001 645.9368,-162.5001"/>
</g>
<!-- UserFilterPipe -->
<g id="node4" class="node">
<title>UserFilterPipe</title>
<polygon fill="#ffffb3" stroke="#000000" points="779.6444,-122 682.3556,-122 682.3556,-86 779.6444,-86 779.6444,-122"/>
<text text-anchor="middle" x="731" y="-99.8" font-family="Times,serif" font-size="14.00" fill="#000000">UserFilterPipe</text>
</g>
<!-- UserFilterPipe&#45;&gt;UsersModule -->
<g id="edge4" class="edge">
<title>UserFilterPipe&#45;&gt;UsersModule</title>
<path fill="none" stroke="#000000" d="M731,-122.0091C731,-138.0494 731,-159 731,-159 731,-159 645.7787,-159 645.7787,-159"/>
<polygon fill="#000000" stroke="#000000" points="645.7787,-155.5001 635.7787,-159 645.7786,-162.5001 645.7787,-155.5001"/>
</g>
<!-- UserGroupsComponent -->
<g id="node5" class="node">
<title>UserGroupsComponent</title>
<polygon fill="#ffffb3" stroke="#000000" points="664.4706,-122 515.5294,-122 515.5294,-86 664.4706,-86 664.4706,-122"/>
<text text-anchor="middle" x="590" y="-99.8" font-family="Times,serif" font-size="14.00" fill="#000000">UserGroupsComponent</text>
</g>
<!-- UserGroupsComponent&#45;&gt;UsersModule -->
<g id="edge5" class="edge">
<title>UserGroupsComponent&#45;&gt;UsersModule</title>
<path fill="none" stroke="#000000" d="M590,-122.1061C590,-122.1061 590,-140.991 590,-140.991"/>
<polygon fill="#000000" stroke="#000000" points="586.5001,-140.9909 590,-150.991 593.5001,-140.991 586.5001,-140.9909"/>
</g>
<!-- UserListComponent -->
<g id="node6" class="node">
<title>UserListComponent</title>
<polygon fill="#ffffb3" stroke="#000000" points="497.538,-122 368.462,-122 368.462,-86 497.538,-86 497.538,-122"/>
<text text-anchor="middle" x="433" y="-99.8" font-family="Times,serif" font-size="14.00" fill="#000000">UserListComponent</text>
</g>
<!-- UserListComponent&#45;&gt;UsersModule -->
<g id="edge6" class="edge">
<title>UserListComponent&#45;&gt;UsersModule</title>
<path fill="none" stroke="#000000" d="M433,-122.0091C433,-138.0494 433,-159 433,-159 433,-159 534.1671,-159 534.1671,-159"/>
<polygon fill="#000000" stroke="#000000" points="534.1671,-162.5001 544.1671,-159 534.167,-155.5001 534.1671,-162.5001"/>
</g>
<!-- UsersComponent -->
<g id="node7" class="node">
<title>UsersComponent</title>
<polygon fill="#ffffb3" stroke="#000000" points="350.7036,-122 237.2964,-122 237.2964,-86 350.7036,-86 350.7036,-122"/>
<text text-anchor="middle" x="294" y="-99.8" font-family="Times,serif" font-size="14.00" fill="#000000">UsersComponent</text>
</g>
<!-- UsersComponent&#45;&gt;UsersModule -->
<g id="edge7" class="edge">
<title>UsersComponent&#45;&gt;UsersModule</title>
<path fill="none" stroke="#000000" d="M294,-122.2667C294,-140.5552 294,-166 294,-166 294,-166 534.0748,-166 534.0748,-166"/>
<polygon fill="#000000" stroke="#000000" points="534.0748,-169.5001 544.0748,-166 534.0747,-162.5001 534.0748,-169.5001"/>
</g>
<!-- UsersComponent  -->
<g id="node11" class="node">
<title>UsersComponent </title>
<polygon fill="#fb8072" stroke="#000000" points="648.2038,-252 531.7962,-252 531.7962,-216 648.2038,-216 648.2038,-252"/>
<text text-anchor="middle" x="590" y="-229.8" font-family="Times,serif" font-size="14.00" fill="#000000">UsersComponent </text>
</g>
<!-- UsersModule&#45;&gt;UsersComponent  -->
<g id="edge10" class="edge">
<title>UsersModule&#45;&gt;UsersComponent </title>
<path fill="none" stroke="#000000" stroke-dasharray="5,2" d="M590,-187.1061C590,-187.1061 590,-205.991 590,-205.991"/>
<polygon fill="#000000" stroke="#000000" points="586.5001,-205.9909 590,-215.991 593.5001,-205.991 586.5001,-205.9909"/>
</g>
<!-- InputModule -->
<g id="node9" class="node">
<title>InputModule</title>
<polygon fill="#8dd3c7" stroke="#000000" points="212.6011,-122 209.6011,-126 188.6011,-126 185.6011,-122 123.3989,-122 123.3989,-86 212.6011,-86 212.6011,-122"/>
<text text-anchor="middle" x="168" y="-99.8" font-family="Times,serif" font-size="14.00" fill="#000000">InputModule</text>
</g>
<!-- InputModule&#45;&gt;UsersModule -->
<g id="edge8" class="edge">
<title>InputModule&#45;&gt;UsersModule</title>
<path fill="none" stroke="#000000" d="M168,-122.1289C168,-142.5724 168,-173 168,-173 168,-173 534.0353,-173 534.0353,-173"/>
<polygon fill="#000000" stroke="#000000" points="534.0353,-176.5001 544.0353,-173 534.0352,-169.5001 534.0353,-176.5001"/>
</g>
<!-- TagModule -->
<g id="node10" class="node">
<title>TagModule</title>
<polygon fill="#8dd3c7" stroke="#000000" points="105.8176,-122 102.8176,-126 81.8176,-126 78.8176,-122 24.1824,-122 24.1824,-86 105.8176,-86 105.8176,-122"/>
<text text-anchor="middle" x="65" y="-99.8" font-family="Times,serif" font-size="14.00" fill="#000000">TagModule</text>
</g>
<!-- TagModule&#45;&gt;UsersModule -->
<g id="edge9" class="edge">
<title>TagModule&#45;&gt;UsersModule</title>
<path fill="none" stroke="#000000" d="M65,-122.0109C65,-144.4852 65,-180 65,-180 65,-180 533.8699,-180 533.8699,-180"/>
<polygon fill="#000000" stroke="#000000" points="533.8699,-183.5001 543.8699,-180 533.8698,-176.5001 533.8699,-183.5001"/>
</g>
</g>
</svg>
