<?xml version="1.0" encoding="UTF-8" standalone="no"?>
<!DOCTYPE svg PUBLIC "-//W3C//DTD SVG 1.1//EN"
 "http://www.w3.org/Graphics/SVG/1.1/DTD/svg11.dtd">
<!-- Generated by graphviz version 2.40.1 (20161225.0304)
 -->
<!-- Title: dependencies Pages: 1 -->
<svg width="2395pt" height="284pt"
 viewBox="0.00 0.00 2395.00 284.00" xmlns="http://www.w3.org/2000/svg" xmlns:xlink="http://www.w3.org/1999/xlink">
<g id="graph0" class="graph" transform="scale(1 1) rotate(0) translate(4 280)">
<title>dependencies</title>
<polygon fill="#ffffff" stroke="transparent" points="-4,4 -4,-280 2391,-280 2391,4 -4,4"/>
<text text-anchor="start" x="1172.5091" y="-42.4" font-family="sans-serif" font-weight="bold" font-size="14.00" fill="#000000">Legend</text>
<polygon fill="#ffffb3" stroke="transparent" points="959.5,-10 959.5,-30 979.5,-30 979.5,-10 959.5,-10"/>
<text text-anchor="start" x="983.129" y="-15.4" font-family="sans-serif" font-size="14.00" fill="#000000"> &#160;Declarations</text>
<polygon fill="#8dd3c7" stroke="transparent" points="1072.5,-10 1072.5,-30 1092.5,-30 1092.5,-10 1072.5,-10"/>
<text text-anchor="start" x="1096.2251" y="-15.4" font-family="sans-serif" font-size="14.00" fill="#000000"> &#160;Module</text>
<polygon fill="#80b1d3" stroke="transparent" points="1158.5,-10 1158.5,-30 1178.5,-30 1178.5,-10 1158.5,-10"/>
<text text-anchor="start" x="1182.2812" y="-15.4" font-family="sans-serif" font-size="14.00" fill="#000000"> &#160;Bootstrap</text>
<polygon fill="#fdb462" stroke="transparent" points="1255.5,-10 1255.5,-30 1275.5,-30 1275.5,-10 1255.5,-10"/>
<text text-anchor="start" x="1279.1732" y="-15.4" font-family="sans-serif" font-size="14.00" fill="#000000"> &#160;Providers</text>
<polygon fill="#fb8072" stroke="transparent" points="1351.5,-10 1351.5,-30 1371.5,-30 1371.5,-10 1351.5,-10"/>
<text text-anchor="start" x="1375.2258" y="-15.4" font-family="sans-serif" font-size="14.00" fill="#000000"> &#160;Exports</text>
<g id="clust1" class="cluster">
<title>cluster_SharedModule</title>
<polygon fill="none" stroke="#000000" stroke-dasharray="1,5" points="8,-70 8,-268 2379,-268 2379,-70 8,-70"/>
</g>
<g id="clust2" class="cluster">
<title>cluster_SharedModule_declarations</title>
<polygon fill="none" stroke="#000000" points="1332,-78 1332,-130 2371,-130 2371,-78 1332,-78"/>
</g>
<g id="clust9" class="cluster">
<title>cluster_SharedModule_imports</title>
<polygon fill="none" stroke="#000000" points="16,-78 16,-130 1324,-130 1324,-78 16,-78"/>
</g>
<g id="clust10" class="cluster">
<title>cluster_SharedModule_exports</title>
<polygon fill="none" stroke="#000000" points="16,-208 16,-260 2306,-260 2306,-208 16,-208"/>
</g>
<!-- CommentsComponent -->
<g id="node1" class="node">
<title>CommentsComponent</title>
<polygon fill="#ffffb3" stroke="#000000" points="2363,-122 2221,-122 2221,-86 2363,-86 2363,-122"/>
<text text-anchor="middle" x="2292" y="-99.8" font-family="Times,serif" font-size="14.00" fill="#000000">CommentsComponent</text>
</g>
<!-- SharedModule -->
<g id="node7" class="node">
<title>SharedModule</title>
<polygon fill="#8dd3c7" stroke="#000000" points="1159.4231,-187 1156.4231,-191 1135.4231,-191 1132.4231,-187 1060.5769,-187 1060.5769,-151 1159.4231,-151 1159.4231,-187"/>
<text text-anchor="middle" x="1110" y="-164.8" font-family="Times,serif" font-size="14.00" fill="#000000">SharedModule</text>
</g>
<!-- CommentsComponent&#45;&gt;SharedModule -->
<g id="edge1" class="edge">
<title>CommentsComponent&#45;&gt;SharedModule</title>
<path fill="none" stroke="#000000" d="M2259.375,-122.1686C2259.375,-141.0898 2259.375,-168 2259.375,-168 2259.375,-168 1169.3872,-168 1169.3872,-168"/>
<polygon fill="#000000" stroke="#000000" points="1169.3872,-164.5001 1159.3872,-168 1169.3872,-171.5001 1169.3872,-164.5001"/>
</g>
<!-- PerspectiveDirective -->
<g id="node2" class="node">
<title>PerspectiveDirective</title>
<polygon fill="#ffffb3" stroke="#000000" points="2203.1108,-122 2070.8892,-122 2070.8892,-86 2203.1108,-86 2203.1108,-122"/>
<text text-anchor="middle" x="2137" y="-99.8" font-family="Times,serif" font-size="14.00" fill="#000000">PerspectiveDirective</text>
</g>
<!-- PerspectiveDirective&#45;&gt;SharedModule -->
<g id="edge2" class="edge">
<title>PerspectiveDirective&#45;&gt;SharedModule</title>
<path fill="none" stroke="#000000" d="M2102.6892,-122.2667C2102.6892,-140.5552 2102.6892,-166 2102.6892,-166 2102.6892,-166 1169.2276,-166 1169.2276,-166"/>
<polygon fill="#000000" stroke="#000000" points="1169.2276,-162.5001 1159.2276,-166 1169.2276,-169.5001 1169.2276,-162.5001"/>
</g>
<!-- RemovePlaceholderOnFocusDirective -->
<g id="node3" class="node">
<title>RemovePlaceholderOnFocusDirective</title>
<polygon fill="#ffffb3" stroke="#000000" points="2052.8707,-122 1821.1293,-122 1821.1293,-86 2052.8707,-86 2052.8707,-122"/>
<text text-anchor="middle" x="1937" y="-99.8" font-family="Times,serif" font-size="14.00" fill="#000000">RemovePlaceholderOnFocusDirective</text>
</g>
<!-- RemovePlaceholderOnFocusDirective&#45;&gt;SharedModule -->
<g id="edge3" class="edge">
<title>RemovePlaceholderOnFocusDirective&#45;&gt;SharedModule</title>
<path fill="none" stroke="#000000" d="M1827.3077,-122.0225C1827.3077,-139.3734 1827.3077,-163 1827.3077,-163 1827.3077,-163 1169.3035,-163 1169.3035,-163"/>
<polygon fill="#000000" stroke="#000000" points="1169.3035,-159.5001 1159.3035,-163 1169.3034,-166.5001 1169.3035,-159.5001"/>
</g>
<!-- ResourceHeaderComponent -->
<g id="node4" class="node">
<title>ResourceHeaderComponent</title>
<polygon fill="#ffffb3" stroke="#000000" points="1802.8291,-122 1629.1709,-122 1629.1709,-86 1802.8291,-86 1802.8291,-122"/>
<text text-anchor="middle" x="1716" y="-99.8" font-family="Times,serif" font-size="14.00" fill="#000000">ResourceHeaderComponent</text>
</g>
<!-- ResourceHeaderComponent&#45;&gt;SharedModule -->
<g id="edge4" class="edge">
<title>ResourceHeaderComponent&#45;&gt;SharedModule</title>
<path fill="none" stroke="#000000" d="M1660.2133,-122.0352C1660.2133,-138.7344 1660.2133,-161 1660.2133,-161 1660.2133,-161 1169.312,-161 1169.312,-161"/>
<polygon fill="#000000" stroke="#000000" points="1169.312,-157.5001 1159.312,-161 1169.3119,-164.5001 1169.312,-157.5001"/>
</g>
<!-- SizeSliderComponent -->
<g id="node5" class="node">
<title>SizeSliderComponent</title>
<polygon fill="#ffffb3" stroke="#000000" points="1611.3739,-122 1472.6261,-122 1472.6261,-86 1611.3739,-86 1611.3739,-122"/>
<text text-anchor="middle" x="1542" y="-99.8" font-family="Times,serif" font-size="14.00" fill="#000000">SizeSliderComponent</text>
</g>
<!-- SizeSliderComponent&#45;&gt;SharedModule -->
<g id="edge5" class="edge">
<title>SizeSliderComponent&#45;&gt;SharedModule</title>
<path fill="none" stroke="#000000" d="M1518.315,-122.0091C1518.315,-138.0494 1518.315,-159 1518.315,-159 1518.315,-159 1169.2523,-159 1169.2523,-159"/>
<polygon fill="#000000" stroke="#000000" points="1169.2524,-155.5001 1159.2523,-159 1169.2523,-162.5001 1169.2524,-155.5001"/>
</g>
<!-- SliderComponent -->
<g id="node6" class="node">
<title>SliderComponent</title>
<polygon fill="#ffffb3" stroke="#000000" points="1454.2716,-122 1339.7284,-122 1339.7284,-86 1454.2716,-86 1454.2716,-122"/>
<text text-anchor="middle" x="1397" y="-99.8" font-family="Times,serif" font-size="14.00" fill="#000000">SliderComponent</text>
</g>
<!-- SliderComponent&#45;&gt;SharedModule -->
<g id="edge6" class="edge">
<title>SliderComponent&#45;&gt;SharedModule</title>
<path fill="none" stroke="#000000" d="M1397,-122.1871C1397,-137.1824 1397,-156 1397,-156 1397,-156 1169.3371,-156 1169.3371,-156"/>
<polygon fill="#000000" stroke="#000000" points="1169.3371,-152.5001 1159.3371,-156 1169.337,-159.5001 1169.3371,-152.5001"/>
</g>
<!-- CommentsComponent  -->
<g id="node18" class="node">
<title>CommentsComponent </title>
<polygon fill="#fb8072" stroke="#000000" points="2298.0009,-252 2151.9991,-252 2151.9991,-216 2298.0009,-216 2298.0009,-252"/>
<text text-anchor="middle" x="2225" y="-229.8" font-family="Times,serif" font-size="14.00" fill="#000000">CommentsComponent </text>
</g>
<!-- SharedModule&#45;&gt;CommentsComponent  -->
<g id="edge17" class="edge">
<title>SharedModule&#45;&gt;CommentsComponent </title>
<path fill="none" stroke="#000000" stroke-dasharray="5,2" d="M1159.3596,-171C1369.359,-171 2177.7775,-171 2177.7775,-171 2177.7775,-171 2177.7775,-205.7778 2177.7775,-205.7778"/>
<polygon fill="#000000" stroke="#000000" points="2174.2776,-205.7778 2177.7775,-215.7778 2181.2776,-205.7778 2174.2776,-205.7778"/>
</g>
<!-- DocumentModule  -->
<g id="node19" class="node">
<title>DocumentModule </title>
<polygon fill="#fb8072" stroke="#000000" points="2134.8674,-252 2013.1326,-252 2013.1326,-216 2134.8674,-216 2134.8674,-252"/>
<text text-anchor="middle" x="2074" y="-229.8" font-family="Times,serif" font-size="14.00" fill="#000000">DocumentModule </text>
</g>
<!-- SharedModule&#45;&gt;DocumentModule  -->
<g id="edge18" class="edge">
<title>SharedModule&#45;&gt;DocumentModule </title>
<path fill="none" stroke="#000000" stroke-dasharray="5,2" d="M1159.2982,-173C1350.5665,-173 2033.0009,-173 2033.0009,-173 2033.0009,-173 2033.0009,-205.698 2033.0009,-205.698"/>
<polygon fill="#000000" stroke="#000000" points="2029.501,-205.698 2033.0009,-215.698 2036.501,-205.698 2029.501,-205.698"/>
</g>
<!-- DragAndDropModule  -->
<g id="node20" class="node">
<title>DragAndDropModule </title>
<polygon fill="#fb8072" stroke="#000000" points="1994.9054,-252 1851.0946,-252 1851.0946,-216 1994.9054,-216 1994.9054,-252"/>
<text text-anchor="middle" x="1923" y="-229.8" font-family="Times,serif" font-size="14.00" fill="#000000">DragAndDropModule </text>
</g>
<!-- SharedModule&#45;&gt;DragAndDropModule  -->
<g id="edge19" class="edge">
<title>SharedModule&#45;&gt;DragAndDropModule </title>
<path fill="none" stroke="#000000" stroke-dasharray="5,2" d="M1159.329,-175C1335.4725,-175 1923,-175 1923,-175 1923,-175 1923,-205.9775 1923,-205.9775"/>
<polygon fill="#000000" stroke="#000000" points="1919.5001,-205.9774 1923,-215.9775 1926.5001,-205.9775 1919.5001,-205.9774"/>
</g>
<!-- InputModule  -->
<g id="node21" class="node">
<title>InputModule </title>
<polygon fill="#fb8072" stroke="#000000" points="1833.1019,-252 1740.8981,-252 1740.8981,-216 1833.1019,-216 1833.1019,-252"/>
<text text-anchor="middle" x="1787" y="-229.8" font-family="Times,serif" font-size="14.00" fill="#000000">InputModule </text>
</g>
<!-- SharedModule&#45;&gt;InputModule  -->
<g id="edge20" class="edge">
<title>SharedModule&#45;&gt;InputModule </title>
<path fill="none" stroke="#000000" stroke-dasharray="5,2" d="M1159.4724,-178C1313.116,-178 1771.807,-178 1771.807,-178 1771.807,-178 1771.807,-205.973 1771.807,-205.973"/>
<polygon fill="#000000" stroke="#000000" points="1768.3071,-205.973 1771.807,-215.973 1775.3071,-205.973 1768.3071,-205.973"/>
</g>
<!-- LinksModule  -->
<g id="node22" class="node">
<title>LinksModule </title>
<polygon fill="#fb8072" stroke="#000000" points="1722.4376,-252 1627.5624,-252 1627.5624,-216 1722.4376,-216 1722.4376,-252"/>
<text text-anchor="middle" x="1675" y="-229.8" font-family="Times,serif" font-size="14.00" fill="#000000">LinksModule </text>
</g>
<!-- SharedModule&#45;&gt;LinksModule  -->
<g id="edge21" class="edge">
<title>SharedModule&#45;&gt;LinksModule </title>
<path fill="none" stroke="#000000" stroke-dasharray="5,2" d="M1159.5648,-180C1300.1493,-180 1691.341,-180 1691.341,-180 1691.341,-180 1691.341,-205.7181 1691.341,-205.7181"/>
<polygon fill="#000000" stroke="#000000" points="1687.8411,-205.718 1691.341,-215.7181 1694.8411,-205.7181 1687.8411,-205.718"/>
</g>
<!-- PerspectiveDirective  -->
<g id="node23" class="node">
<title>PerspectiveDirective </title>
<polygon fill="#fb8072" stroke="#000000" points="1609.1102,-252 1472.8898,-252 1472.8898,-216 1609.1102,-216 1609.1102,-252"/>
<text text-anchor="middle" x="1541" y="-229.8" font-family="Times,serif" font-size="14.00" fill="#000000">PerspectiveDirective </text>
</g>
<!-- SharedModule&#45;&gt;PerspectiveDirective  -->
<g id="edge22" class="edge">
<title>SharedModule&#45;&gt;PerspectiveDirective </title>
<path fill="none" stroke="#000000" stroke-dasharray="5,2" d="M1159.4159,-183C1277.0011,-183 1563.685,-183 1563.685,-183 1563.685,-183 1563.685,-205.8757 1563.685,-205.8757"/>
<polygon fill="#000000" stroke="#000000" points="1560.1851,-205.8757 1563.685,-215.8757 1567.1851,-205.8757 1560.1851,-205.8757"/>
</g>
<!-- PostItCollectionsModule  -->
<g id="node24" class="node">
<title>PostItCollectionsModule </title>
<polygon fill="#fb8072" stroke="#000000" points="1454.9924,-252 1295.0076,-252 1295.0076,-216 1454.9924,-216 1454.9924,-252"/>
<text text-anchor="middle" x="1375" y="-229.8" font-family="Times,serif" font-size="14.00" fill="#000000">PostItCollectionsModule </text>
</g>
<!-- SharedModule&#45;&gt;PostItCollectionsModule  -->
<g id="edge23" class="edge">
<title>SharedModule&#45;&gt;PostItCollectionsModule </title>
<path fill="none" stroke="#000000" stroke-dasharray="5,2" d="M1159.3566,-185C1217.2996,-185 1305.5938,-185 1305.5938,-185 1305.5938,-185 1305.5938,-205.7542 1305.5938,-205.7542"/>
<polygon fill="#000000" stroke="#000000" points="1302.0939,-205.7542 1305.5938,-215.7542 1309.0939,-205.7542 1302.0939,-205.7542"/>
</g>
<!-- PreviewResultsModule  -->
<g id="node25" class="node">
<title>PreviewResultsModule </title>
<polygon fill="#fb8072" stroke="#000000" points="1277.1411,-252 1126.8589,-252 1126.8589,-216 1277.1411,-216 1277.1411,-252"/>
<text text-anchor="middle" x="1202" y="-229.8" font-family="Times,serif" font-size="14.00" fill="#000000">PreviewResultsModule </text>
</g>
<!-- SharedModule&#45;&gt;PreviewResultsModule  -->
<g id="edge24" class="edge">
<title>SharedModule&#45;&gt;PreviewResultsModule </title>
<path fill="none" stroke="#000000" stroke-dasharray="5,2" d="M1143.0703,-187.1061C1143.0703,-187.1061 1143.0703,-205.991 1143.0703,-205.991"/>
<polygon fill="#000000" stroke="#000000" points="1139.5704,-205.9909 1143.0703,-215.991 1146.5704,-205.991 1139.5704,-205.9909"/>
</g>
<!-- RemovePlaceholderOnFocusDirective  -->
<g id="node26" class="node">
<title>RemovePlaceholderOnFocusDirective </title>
<polygon fill="#fb8072" stroke="#000000" points="1108.3704,-252 873.6296,-252 873.6296,-216 1108.3704,-216 1108.3704,-252"/>
<text text-anchor="middle" x="991" y="-229.8" font-family="Times,serif" font-size="14.00" fill="#000000">RemovePlaceholderOnFocusDirective </text>
</g>
<!-- SharedModule&#45;&gt;RemovePlaceholderOnFocusDirective  -->
<g id="edge25" class="edge">
<title>SharedModule&#45;&gt;RemovePlaceholderOnFocusDirective </title>
<path fill="none" stroke="#000000" stroke-dasharray="5,2" d="M1084.6121,-187.1061C1084.6121,-187.1061 1084.6121,-205.991 1084.6121,-205.991"/>
<polygon fill="#000000" stroke="#000000" points="1081.1121,-205.9909 1084.6121,-215.991 1088.1121,-205.991 1081.1121,-205.9909"/>
</g>
<!-- ResourceHeaderComponent  -->
<g id="node27" class="node">
<title>ResourceHeaderComponent </title>
<polygon fill="#fb8072" stroke="#000000" points="855.8293,-252 678.1707,-252 678.1707,-216 855.8293,-216 855.8293,-252"/>
<text text-anchor="middle" x="767" y="-229.8" font-family="Times,serif" font-size="14.00" fill="#000000">ResourceHeaderComponent </text>
</g>
<!-- SharedModule&#45;&gt;ResourceHeaderComponent  -->
<g id="edge26" class="edge">
<title>SharedModule&#45;&gt;ResourceHeaderComponent </title>
<path fill="none" stroke="#000000" stroke-dasharray="5,2" d="M1060.6957,-185C982.6664,-185 839.4729,-185 839.4729,-185 839.4729,-185 839.4729,-205.7542 839.4729,-205.7542"/>
<polygon fill="#000000" stroke="#000000" points="835.9729,-205.7542 839.4729,-215.7542 842.9729,-205.7542 835.9729,-205.7542"/>
</g>
<!-- SearchBoxModule  -->
<g id="node28" class="node">
<title>SearchBoxModule </title>
<polygon fill="#fb8072" stroke="#000000" points="660.4743,-252 535.5257,-252 535.5257,-216 660.4743,-216 660.4743,-252"/>
<text text-anchor="middle" x="598" y="-229.8" font-family="Times,serif" font-size="14.00" fill="#000000">SearchBoxModule </text>
</g>
<!-- SharedModule&#45;&gt;SearchBoxModule  -->
<g id="edge27" class="edge">
<title>SharedModule&#45;&gt;SearchBoxModule </title>
<path fill="none" stroke="#000000" stroke-dasharray="5,2" d="M1060.4537,-183C931.9916,-183 598.1204,-183 598.1204,-183 598.1204,-183 598.1204,-205.8757 598.1204,-205.8757"/>
<polygon fill="#000000" stroke="#000000" points="594.6205,-205.8757 598.1204,-215.8757 601.6205,-205.8757 594.6205,-205.8757"/>
</g>
<!-- SizeSliderComponent  -->
<g id="node29" class="node">
<title>SizeSliderComponent </title>
<polygon fill="#fb8072" stroke="#000000" points="518.3743,-252 375.6257,-252 375.6257,-216 518.3743,-216 518.3743,-252"/>
<text text-anchor="middle" x="447" y="-229.8" font-family="Times,serif" font-size="14.00" fill="#000000">SizeSliderComponent </text>
</g>
<!-- SharedModule&#45;&gt;SizeSliderComponent  -->
<g id="edge28" class="edge">
<title>SharedModule&#45;&gt;SizeSliderComponent </title>
<path fill="none" stroke="#000000" stroke-dasharray="5,2" d="M1060.6345,-180C910.6876,-180 470.729,-180 470.729,-180 470.729,-180 470.729,-205.7181 470.729,-205.7181"/>
<polygon fill="#000000" stroke="#000000" points="467.2291,-205.718 470.729,-215.7181 474.2291,-205.7181 467.2291,-205.718"/>
</g>
<!-- SliderComponent  -->
<g id="node30" class="node">
<title>SliderComponent </title>
<polygon fill="#fb8072" stroke="#000000" points="358.2717,-252 239.7283,-252 239.7283,-216 358.2717,-216 358.2717,-252"/>
<text text-anchor="middle" x="299" y="-229.8" font-family="Times,serif" font-size="14.00" fill="#000000">SliderComponent </text>
</g>
<!-- SharedModule&#45;&gt;SliderComponent  -->
<g id="edge29" class="edge">
<title>SharedModule&#45;&gt;SliderComponent </title>
<path fill="none" stroke="#000000" stroke-dasharray="5,2" d="M1060.6077,-178C887.0545,-178 315.6126,-178 315.6126,-178 315.6126,-178 315.6126,-205.973 315.6126,-205.973"/>
<polygon fill="#000000" stroke="#000000" points="312.1127,-205.973 315.6126,-215.973 319.1127,-205.973 312.1127,-205.973"/>
</g>
<!-- TagModule  -->
<g id="node31" class="node">
<title>TagModule </title>
<polygon fill="#fb8072" stroke="#000000" points="221.3172,-252 136.6828,-252 136.6828,-216 221.3172,-216 221.3172,-252"/>
<text text-anchor="middle" x="179" y="-229.8" font-family="Times,serif" font-size="14.00" fill="#000000">TagModule </text>
</g>
<!-- SharedModule&#45;&gt;TagModule  -->
<g id="edge30" class="edge">
<title>SharedModule&#45;&gt;TagModule </title>
<path fill="none" stroke="#000000" stroke-dasharray="5,2" d="M1060.4635,-175C869.0868,-175 188.6362,-175 188.6362,-175 188.6362,-175 188.6362,-205.9775 188.6362,-205.9775"/>
<polygon fill="#000000" stroke="#000000" points="185.1363,-205.9774 188.6362,-215.9775 192.1363,-205.9775 185.1363,-205.9774"/>
</g>
<!-- UsersModule  -->
<g id="node32" class="node">
<title>UsersModule </title>
<polygon fill="#fb8072" stroke="#000000" points="118.4208,-252 23.5792,-252 23.5792,-216 118.4208,-216 118.4208,-252"/>
<text text-anchor="middle" x="71" y="-229.8" font-family="Times,serif" font-size="14.00" fill="#000000">UsersModule </text>
</g>
<!-- SharedModule&#45;&gt;UsersModule  -->
<g id="edge31" class="edge">
<title>SharedModule&#45;&gt;UsersModule </title>
<path fill="none" stroke="#000000" stroke-dasharray="5,2" d="M1060.5735,-173C855.8732,-173 85.2368,-173 85.2368,-173 85.2368,-173 85.2368,-205.698 85.2368,-205.698"/>
<polygon fill="#000000" stroke="#000000" points="81.7367,-205.698 85.2368,-215.698 88.7367,-205.698 81.7367,-205.698"/>
</g>
<!-- DocumentModule -->
<g id="node8" class="node">
<title>DocumentModule</title>
<polygon fill="#8dd3c7" stroke="#000000" points="1315.8669,-122 1312.8669,-126 1291.8669,-126 1288.8669,-122 1198.1331,-122 1198.1331,-86 1315.8669,-86 1315.8669,-122"/>
<text text-anchor="middle" x="1257" y="-99.8" font-family="Times,serif" font-size="14.00" fill="#000000">DocumentModule</text>
</g>
<!-- DocumentModule&#45;&gt;SharedModule -->
<g id="edge7" class="edge">
<title>DocumentModule&#45;&gt;SharedModule</title>
<path fill="none" stroke="#000000" d="M1237.5686,-122.0511C1237.5686,-136.373 1237.5686,-154 1237.5686,-154 1237.5686,-154 1169.3213,-154 1169.3213,-154"/>
<polygon fill="#000000" stroke="#000000" points="1169.3214,-150.5001 1159.3213,-154 1169.3213,-157.5001 1169.3214,-150.5001"/>
</g>
<!-- DragAndDropModule -->
<g id="node9" class="node">
<title>DragAndDropModule</title>
<polygon fill="#8dd3c7" stroke="#000000" points="1180.406,-122 1177.406,-126 1156.406,-126 1153.406,-122 1039.594,-122 1039.594,-86 1180.406,-86 1180.406,-122"/>
<text text-anchor="middle" x="1110" y="-99.8" font-family="Times,serif" font-size="14.00" fill="#000000">DragAndDropModule</text>
</g>
<!-- DragAndDropModule&#45;&gt;SharedModule -->
<g id="edge8" class="edge">
<title>DragAndDropModule&#45;&gt;SharedModule</title>
<path fill="none" stroke="#000000" d="M1110,-122.1061C1110,-122.1061 1110,-140.991 1110,-140.991"/>
<polygon fill="#000000" stroke="#000000" points="1106.5001,-140.9909 1110,-150.991 1113.5001,-140.991 1106.5001,-140.9909"/>
</g>
<!-- InputModule -->
<g id="node10" class="node">
<title>InputModule</title>
<polygon fill="#8dd3c7" stroke="#000000" points="1021.6011,-122 1018.6011,-126 997.6011,-126 994.6011,-122 932.3989,-122 932.3989,-86 1021.6011,-86 1021.6011,-122"/>
<text text-anchor="middle" x="977" y="-99.8" font-family="Times,serif" font-size="14.00" fill="#000000">InputModule</text>
</g>
<!-- InputModule&#45;&gt;SharedModule -->
<g id="edge9" class="edge">
<title>InputModule&#45;&gt;SharedModule</title>
<path fill="none" stroke="#000000" d="M977,-122.0511C977,-136.373 977,-154 977,-154 977,-154 1050.4757,-154 1050.4757,-154"/>
<polygon fill="#000000" stroke="#000000" points="1050.4757,-157.5001 1060.4757,-154 1050.4757,-150.5001 1050.4757,-157.5001"/>
</g>
<!-- LinksModule -->
<g id="node11" class="node">
<title>LinksModule</title>
<polygon fill="#8dd3c7" stroke="#000000" points="914.9387,-122 911.9387,-126 890.9387,-126 887.9387,-122 823.0613,-122 823.0613,-86 914.9387,-86 914.9387,-122"/>
<text text-anchor="middle" x="869" y="-99.8" font-family="Times,serif" font-size="14.00" fill="#000000">LinksModule</text>
</g>
<!-- LinksModule&#45;&gt;SharedModule -->
<g id="edge10" class="edge">
<title>LinksModule&#45;&gt;SharedModule</title>
<path fill="none" stroke="#000000" d="M894.1418,-122.1871C894.1418,-137.1824 894.1418,-156 894.1418,-156 894.1418,-156 1050.7483,-156 1050.7483,-156"/>
<polygon fill="#000000" stroke="#000000" points="1050.7484,-159.5001 1060.7483,-156 1050.7483,-152.5001 1050.7484,-159.5001"/>
</g>
<!-- PickerModule -->
<g id="node12" class="node">
<title>PickerModule</title>
<polygon fill="#8dd3c7" stroke="#000000" points="805.8133,-122 802.8133,-126 781.8133,-126 778.8133,-122 710.1867,-122 710.1867,-86 805.8133,-86 805.8133,-122"/>
<text text-anchor="middle" x="758" y="-99.8" font-family="Times,serif" font-size="14.00" fill="#000000">PickerModule</text>
</g>
<!-- PickerModule&#45;&gt;SharedModule -->
<g id="edge11" class="edge">
<title>PickerModule&#45;&gt;SharedModule</title>
<path fill="none" stroke="#000000" d="M758,-122.0091C758,-138.0494 758,-159 758,-159 758,-159 1050.6853,-159 1050.6853,-159"/>
<polygon fill="#000000" stroke="#000000" points="1050.6853,-162.5001 1060.6853,-159 1050.6852,-155.5001 1050.6853,-162.5001"/>
</g>
<!-- PostItCollectionsModule -->
<g id="node13" class="node">
<title>PostItCollectionsModule</title>
<polygon fill="#8dd3c7" stroke="#000000" points="691.9916,-122 688.9916,-126 667.9916,-126 664.9916,-122 536.0084,-122 536.0084,-86 691.9916,-86 691.9916,-122"/>
<text text-anchor="middle" x="614" y="-99.8" font-family="Times,serif" font-size="14.00" fill="#000000">PostItCollectionsModule</text>
</g>
<!-- PostItCollectionsModule&#45;&gt;SharedModule -->
<g id="edge12" class="edge">
<title>PostItCollectionsModule&#45;&gt;SharedModule</title>
<path fill="none" stroke="#000000" d="M685.1657,-122.0352C685.1657,-138.7344 685.1657,-161 685.1657,-161 685.1657,-161 1050.4347,-161 1050.4347,-161"/>
<polygon fill="#000000" stroke="#000000" points="1050.4347,-164.5001 1060.4347,-161 1050.4346,-157.5001 1050.4347,-164.5001"/>
</g>
<!-- PreviewResultsModule -->
<g id="node14" class="node">
<title>PreviewResultsModule</title>
<polygon fill="#8dd3c7" stroke="#000000" points="518.1414,-122 515.1414,-126 494.1414,-126 491.1414,-122 371.8586,-122 371.8586,-86 518.1414,-86 518.1414,-122"/>
<text text-anchor="middle" x="445" y="-99.8" font-family="Times,serif" font-size="14.00" fill="#000000">PreviewResultsModule</text>
</g>
<!-- PreviewResultsModule&#45;&gt;SharedModule -->
<g id="edge13" class="edge">
<title>PreviewResultsModule&#45;&gt;SharedModule</title>
<path fill="none" stroke="#000000" d="M423.271,-122.0225C423.271,-139.3734 423.271,-163 423.271,-163 423.271,-163 1050.6121,-163 1050.6121,-163"/>
<polygon fill="#000000" stroke="#000000" points="1050.6122,-166.5001 1060.6121,-163 1050.6121,-159.5001 1050.6122,-166.5001"/>
</g>
<!-- SearchBoxModule -->
<g id="node15" class="node">
<title>SearchBoxModule</title>
<polygon fill="#8dd3c7" stroke="#000000" points="353.4734,-122 350.4734,-126 329.4734,-126 326.4734,-122 232.5266,-122 232.5266,-86 353.4734,-86 353.4734,-122"/>
<text text-anchor="middle" x="293" y="-99.8" font-family="Times,serif" font-size="14.00" fill="#000000">SearchBoxModule</text>
</g>
<!-- SearchBoxModule&#45;&gt;SharedModule -->
<g id="edge14" class="edge">
<title>SearchBoxModule&#45;&gt;SharedModule</title>
<path fill="none" stroke="#000000" d="M277.7384,-122.2667C277.7384,-140.5552 277.7384,-166 277.7384,-166 277.7384,-166 1050.7384,-166 1050.7384,-166"/>
<polygon fill="#000000" stroke="#000000" points="1050.7385,-169.5001 1060.7384,-166 1050.7384,-162.5001 1050.7385,-169.5001"/>
</g>
<!-- TagModule -->
<g id="node16" class="node">
<title>TagModule</title>
<polygon fill="#8dd3c7" stroke="#000000" points="214.8176,-122 211.8176,-126 190.8176,-126 187.8176,-122 133.1824,-122 133.1824,-86 214.8176,-86 214.8176,-122"/>
<text text-anchor="middle" x="174" y="-99.8" font-family="Times,serif" font-size="14.00" fill="#000000">TagModule</text>
</g>
<!-- TagModule&#45;&gt;SharedModule -->
<g id="edge15" class="edge">
<title>TagModule&#45;&gt;SharedModule</title>
<path fill="none" stroke="#000000" d="M162.6138,-122.1686C162.6138,-141.0898 162.6138,-168 162.6138,-168 162.6138,-168 1050.7293,-168 1050.7293,-168"/>
<polygon fill="#000000" stroke="#000000" points="1050.7294,-171.5001 1060.7293,-168 1050.7293,-164.5001 1050.7294,-171.5001"/>
</g>
<!-- UsersModule -->
<g id="node17" class="node">
<title>UsersModule</title>
<polygon fill="#8dd3c7" stroke="#000000" points="115.9218,-122 112.9218,-126 91.9218,-126 88.9218,-122 24.0782,-122 24.0782,-86 115.9218,-86 115.9218,-122"/>
<text text-anchor="middle" x="70" y="-99.8" font-family="Times,serif" font-size="14.00" fill="#000000">UsersModule</text>
</g>
<!-- UsersModule&#45;&gt;SharedModule -->
<g id="edge16" class="edge">
<title>UsersModule&#45;&gt;SharedModule</title>
<path fill="none" stroke="#000000" d="M54.7632,-122.308C54.7632,-142.1455 54.7632,-171 54.7632,-171 54.7632,-171 1050.5191,-171 1050.5191,-171"/>
<polygon fill="#000000" stroke="#000000" points="1050.5191,-174.5001 1060.5191,-171 1050.5191,-167.5001 1050.5191,-174.5001"/>
</g>
</g>
</svg>
