<?xml version="1.0" encoding="UTF-8" standalone="no"?>
<!DOCTYPE svg PUBLIC "-//W3C//DTD SVG 1.1//EN"
 "http://www.w3.org/Graphics/SVG/1.1/DTD/svg11.dtd">
<!-- Generated by graphviz version 2.40.1 (20161225.0304)
 -->
<!-- Title: dependencies Pages: 1 -->
<svg width="3258pt" height="284pt"
 viewBox="0.00 0.00 3258.00 284.00" xmlns="http://www.w3.org/2000/svg" xmlns:xlink="http://www.w3.org/1999/xlink">
<g id="graph0" class="graph" transform="scale(1 1) rotate(0) translate(4 280)">
<title>dependencies</title>
<polygon fill="#ffffff" stroke="transparent" points="-4,4 -4,-280 3254,-280 3254,4 -4,4"/>
<text text-anchor="start" x="1604.0091" y="-42.4" font-family="sans-serif" font-weight="bold" font-size="14.00" fill="#000000">Legend</text>
<polygon fill="#ffffb3" stroke="transparent" points="1391,-10 1391,-30 1411,-30 1411,-10 1391,-10"/>
<text text-anchor="start" x="1414.629" y="-15.4" font-family="sans-serif" font-size="14.00" fill="#000000"> &#160;Declarations</text>
<polygon fill="#8dd3c7" stroke="transparent" points="1504,-10 1504,-30 1524,-30 1524,-10 1504,-10"/>
<text text-anchor="start" x="1527.7251" y="-15.4" font-family="sans-serif" font-size="14.00" fill="#000000"> &#160;Module</text>
<polygon fill="#80b1d3" stroke="transparent" points="1590,-10 1590,-30 1610,-30 1610,-10 1590,-10"/>
<text text-anchor="start" x="1613.7812" y="-15.4" font-family="sans-serif" font-size="14.00" fill="#000000"> &#160;Bootstrap</text>
<polygon fill="#fdb462" stroke="transparent" points="1687,-10 1687,-30 1707,-30 1707,-10 1687,-10"/>
<text text-anchor="start" x="1710.6732" y="-15.4" font-family="sans-serif" font-size="14.00" fill="#000000"> &#160;Providers</text>
<polygon fill="#fb8072" stroke="transparent" points="1783,-10 1783,-30 1803,-30 1803,-10 1783,-10"/>
<text text-anchor="start" x="1806.7258" y="-15.4" font-family="sans-serif" font-size="14.00" fill="#000000"> &#160;Exports</text>
<g id="clust1" class="cluster">
<title>cluster_SharedModule</title>
<polygon fill="none" stroke="#000000" stroke-dasharray="1,5" points="8,-70 8,-268 3242,-268 3242,-70 8,-70"/>
</g>
<g id="clust2" class="cluster">
<title>cluster_SharedModule_declarations</title>
<polygon fill="none" stroke="#000000" points="2195,-78 2195,-130 3234,-130 3234,-78 2195,-78"/>
</g>
<g id="clust9" class="cluster">
<title>cluster_SharedModule_imports</title>
<polygon fill="none" stroke="#000000" points="114,-78 114,-130 2187,-130 2187,-78 114,-78"/>
</g>
<g id="clust10" class="cluster">
<title>cluster_SharedModule_exports</title>
<polygon fill="none" stroke="#000000" points="16,-208 16,-260 3234,-260 3234,-208 16,-208"/>
</g>
<!-- CommentsComponent -->
<g id="node1" class="node">
<title>CommentsComponent</title>
<polygon fill="#ffffb3" stroke="#000000" points="3226,-122 3084,-122 3084,-86 3226,-86 3226,-122"/>
<text text-anchor="middle" x="3155" y="-99.8" font-family="Times,serif" font-size="14.00" fill="#000000">CommentsComponent</text>
</g>
<!-- SharedModule -->
<g id="node7" class="node">
<title>SharedModule</title>
<polygon fill="#8dd3c7" stroke="#000000" points="1609.4231,-187 1606.4231,-191 1585.4231,-191 1582.4231,-187 1510.5769,-187 1510.5769,-151 1609.4231,-151 1609.4231,-187"/>
<text text-anchor="middle" x="1560" y="-164.8" font-family="Times,serif" font-size="14.00" fill="#000000">SharedModule</text>
</g>
<!-- CommentsComponent&#45;&gt;SharedModule -->
<g id="edge1" class="edge">
<title>CommentsComponent&#45;&gt;SharedModule</title>
<path fill="none" stroke="#000000" d="M3154.8964,-122.1686C3154.8964,-141.0898 3154.8964,-168 3154.8964,-168 3154.8964,-168 1619.481,-168 1619.481,-168"/>
<polygon fill="#000000" stroke="#000000" points="1619.481,-164.5001 1609.481,-168 1619.4809,-171.5001 1619.481,-164.5001"/>
</g>
<!-- PerspectiveDirective -->
<g id="node2" class="node">
<title>PerspectiveDirective</title>
<polygon fill="#ffffb3" stroke="#000000" points="3066.1108,-122 2933.8892,-122 2933.8892,-86 3066.1108,-86 3066.1108,-122"/>
<text text-anchor="middle" x="3000" y="-99.8" font-family="Times,serif" font-size="14.00" fill="#000000">PerspectiveDirective</text>
</g>
<!-- PerspectiveDirective&#45;&gt;SharedModule -->
<g id="edge2" class="edge">
<title>PerspectiveDirective&#45;&gt;SharedModule</title>
<path fill="none" stroke="#000000" d="M2985.7225,-122.2667C2985.7225,-140.5552 2985.7225,-166 2985.7225,-166 2985.7225,-166 1619.4906,-166 1619.4906,-166"/>
<polygon fill="#000000" stroke="#000000" points="1619.4907,-162.5001 1609.4906,-166 1619.4906,-169.5001 1619.4907,-162.5001"/>
</g>
<!-- RemovePlaceholderOnFocusDirective -->
<g id="node3" class="node">
<title>RemovePlaceholderOnFocusDirective</title>
<polygon fill="#ffffb3" stroke="#000000" points="2915.8707,-122 2684.1293,-122 2684.1293,-86 2915.8707,-86 2915.8707,-122"/>
<text text-anchor="middle" x="2800" y="-99.8" font-family="Times,serif" font-size="14.00" fill="#000000">RemovePlaceholderOnFocusDirective</text>
</g>
<!-- RemovePlaceholderOnFocusDirective&#45;&gt;SharedModule -->
<g id="edge3" class="edge">
<title>RemovePlaceholderOnFocusDirective&#45;&gt;SharedModule</title>
<path fill="none" stroke="#000000" d="M2710.0822,-122.002C2710.0822,-139.6754 2710.0822,-164 2710.0822,-164 2710.0822,-164 1619.4176,-164 1619.4176,-164"/>
<polygon fill="#000000" stroke="#000000" points="1619.4176,-160.5001 1609.4176,-164 1619.4176,-167.5001 1619.4176,-160.5001"/>
</g>
<!-- ResourceHeaderComponent -->
<g id="node4" class="node">
<title>ResourceHeaderComponent</title>
<polygon fill="#ffffb3" stroke="#000000" points="2665.8291,-122 2492.1709,-122 2492.1709,-86 2665.8291,-86 2665.8291,-122"/>
<text text-anchor="middle" x="2579" y="-99.8" font-family="Times,serif" font-size="14.00" fill="#000000">ResourceHeaderComponent</text>
</g>
<!-- ResourceHeaderComponent&#45;&gt;SharedModule -->
<g id="edge4" class="edge">
<title>ResourceHeaderComponent&#45;&gt;SharedModule</title>
<path fill="none" stroke="#000000" d="M2528.8845,-122.0336C2528.8845,-139.0597 2528.8845,-162 2528.8845,-162 2528.8845,-162 1619.3791,-162 1619.3791,-162"/>
<polygon fill="#000000" stroke="#000000" points="1619.3792,-158.5001 1609.3791,-162 1619.3791,-165.5001 1619.3792,-158.5001"/>
</g>
<!-- SizeSliderComponent -->
<g id="node5" class="node">
<title>SizeSliderComponent</title>
<polygon fill="#ffffb3" stroke="#000000" points="2474.3739,-122 2335.6261,-122 2335.6261,-86 2474.3739,-86 2474.3739,-122"/>
<text text-anchor="middle" x="2405" y="-99.8" font-family="Times,serif" font-size="14.00" fill="#000000">SizeSliderComponent</text>
</g>
<!-- SizeSliderComponent&#45;&gt;SharedModule -->
<g id="edge5" class="edge">
<title>SizeSliderComponent&#45;&gt;SharedModule</title>
<path fill="none" stroke="#000000" d="M2380.7579,-122.027C2380.7579,-138.3976 2380.7579,-160 2380.7579,-160 2380.7579,-160 1619.4937,-160 1619.4937,-160"/>
<polygon fill="#000000" stroke="#000000" points="1619.4938,-156.5001 1609.4937,-160 1619.4937,-163.5001 1619.4938,-156.5001"/>
</g>
<!-- SliderComponent -->
<g id="node6" class="node">
<title>SliderComponent</title>
<polygon fill="#ffffb3" stroke="#000000" points="2317.2716,-122 2202.7284,-122 2202.7284,-86 2317.2716,-86 2317.2716,-122"/>
<text text-anchor="middle" x="2260" y="-99.8" font-family="Times,serif" font-size="14.00" fill="#000000">SliderComponent</text>
</g>
<!-- SliderComponent&#45;&gt;SharedModule -->
<g id="edge6" class="edge">
<title>SliderComponent&#45;&gt;SharedModule</title>
<path fill="none" stroke="#000000" d="M2233.4574,-122.0091C2233.4574,-138.0494 2233.4574,-159 2233.4574,-159 2233.4574,-159 1619.2481,-159 1619.2481,-159"/>
<polygon fill="#000000" stroke="#000000" points="1619.2481,-155.5001 1609.2481,-159 1619.248,-162.5001 1619.2481,-155.5001"/>
</g>
<!-- CollapsibleSidebarModule  -->
<g id="node23" class="node">
<title>CollapsibleSidebarModule </title>
<polygon fill="#fb8072" stroke="#000000" points="3225.5861,-252 3056.4139,-252 3056.4139,-216 3225.5861,-216 3225.5861,-252"/>
<text text-anchor="middle" x="3141" y="-229.8" font-family="Times,serif" font-size="14.00" fill="#000000">CollapsibleSidebarModule </text>
</g>
<!-- SharedModule&#45;&gt;CollapsibleSidebarModule  -->
<g id="edge22" class="edge">
<title>SharedModule&#45;&gt;CollapsibleSidebarModule </title>
<path fill="none" stroke="#000000" stroke-dasharray="5,2" d="M1609.5219,-169C1869.1343,-169 3061.2562,-169 3061.2562,-169 3061.2562,-169 3061.2562,-205.8939 3061.2562,-205.8939"/>
<polygon fill="#000000" stroke="#000000" points="3057.7562,-205.8938 3061.2562,-215.8939 3064.7562,-205.8939 3057.7562,-205.8938"/>
</g>
<!-- CommentsComponent  -->
<g id="node24" class="node">
<title>CommentsComponent </title>
<polygon fill="#fb8072" stroke="#000000" points="3038.0009,-252 2891.9991,-252 2891.9991,-216 3038.0009,-216 3038.0009,-252"/>
<text text-anchor="middle" x="2965" y="-229.8" font-family="Times,serif" font-size="14.00" fill="#000000">CommentsComponent </text>
</g>
<!-- SharedModule&#45;&gt;CommentsComponent  -->
<g id="edge23" class="edge">
<title>SharedModule&#45;&gt;CommentsComponent </title>
<path fill="none" stroke="#000000" stroke-dasharray="5,2" d="M1609.4264,-171C1851.896,-171 2903.9676,-171 2903.9676,-171 2903.9676,-171 2903.9676,-205.7778 2903.9676,-205.7778"/>
<polygon fill="#000000" stroke="#000000" points="2900.4677,-205.7778 2903.9676,-215.7778 2907.4677,-205.7778 2900.4677,-205.7778"/>
</g>
<!-- DirectivesModule  -->
<g id="node25" class="node">
<title>DirectivesModule </title>
<polygon fill="#fb8072" stroke="#000000" points="2874.0779,-252 2753.9221,-252 2753.9221,-216 2874.0779,-216 2874.0779,-252"/>
<text text-anchor="middle" x="2814" y="-229.8" font-family="Times,serif" font-size="14.00" fill="#000000">DirectivesModule </text>
</g>
<!-- SharedModule&#45;&gt;DirectivesModule  -->
<g id="edge24" class="edge">
<title>SharedModule&#45;&gt;DirectivesModule </title>
<path fill="none" stroke="#000000" stroke-dasharray="5,2" d="M1609.5445,-173C1842.0832,-173 2814,-173 2814,-173 2814,-173 2814,-205.698 2814,-205.698"/>
<polygon fill="#000000" stroke="#000000" points="2810.5001,-205.698 2814,-215.698 2817.5001,-205.698 2810.5001,-205.698"/>
</g>
<!-- DocumentHintsModule  -->
<g id="node26" class="node">
<title>DocumentHintsModule </title>
<polygon fill="#fb8072" stroke="#000000" points="2735.6995,-252 2584.3005,-252 2584.3005,-216 2735.6995,-216 2735.6995,-252"/>
<text text-anchor="middle" x="2660" y="-229.8" font-family="Times,serif" font-size="14.00" fill="#000000">DocumentHintsModule </text>
</g>
<!-- SharedModule&#45;&gt;DocumentHintsModule  -->
<g id="edge25" class="edge">
<title>SharedModule&#45;&gt;DocumentHintsModule </title>
<path fill="none" stroke="#000000" stroke-dasharray="5,2" d="M1609.2327,-175C1818.6922,-175 2625.0324,-175 2625.0324,-175 2625.0324,-175 2625.0324,-205.9775 2625.0324,-205.9775"/>
<polygon fill="#000000" stroke="#000000" points="2621.5325,-205.9774 2625.0324,-215.9775 2628.5325,-205.9775 2621.5325,-205.9774"/>
</g>
<!-- DocumentModule  -->
<g id="node27" class="node">
<title>DocumentModule </title>
<polygon fill="#fb8072" stroke="#000000" points="2565.8674,-252 2444.1326,-252 2444.1326,-216 2565.8674,-216 2565.8674,-252"/>
<text text-anchor="middle" x="2505" y="-229.8" font-family="Times,serif" font-size="14.00" fill="#000000">DocumentModule </text>
</g>
<!-- SharedModule&#45;&gt;DocumentModule  -->
<g id="edge26" class="edge">
<title>SharedModule&#45;&gt;DocumentModule </title>
<path fill="none" stroke="#000000" stroke-dasharray="5,2" d="M1609.3138,-177C1797.4266,-177 2459.3768,-177 2459.3768,-177 2459.3768,-177 2459.3768,-205.9648 2459.3768,-205.9648"/>
<polygon fill="#000000" stroke="#000000" points="2455.8768,-205.9648 2459.3768,-215.9648 2462.8768,-205.9649 2455.8768,-205.9648"/>
</g>
<!-- DragAndDropModule  -->
<g id="node28" class="node">
<title>DragAndDropModule </title>
<polygon fill="#fb8072" stroke="#000000" points="2425.9054,-252 2282.0946,-252 2282.0946,-216 2425.9054,-216 2425.9054,-252"/>
<text text-anchor="middle" x="2354" y="-229.8" font-family="Times,serif" font-size="14.00" fill="#000000">DragAndDropModule </text>
</g>
<!-- SharedModule&#45;&gt;DragAndDropModule  -->
<g id="edge27" class="edge">
<title>SharedModule&#45;&gt;DragAndDropModule </title>
<path fill="none" stroke="#000000" stroke-dasharray="5,2" d="M1609.3953,-178C1774.9289,-178 2299.7165,-178 2299.7165,-178 2299.7165,-178 2299.7165,-205.973 2299.7165,-205.973"/>
<polygon fill="#000000" stroke="#000000" points="2296.2166,-205.973 2299.7165,-215.973 2303.2166,-205.973 2296.2166,-205.973"/>
</g>
<!-- InputModule  -->
<g id="node29" class="node">
<title>InputModule </title>
<polygon fill="#fb8072" stroke="#000000" points="2264.1019,-252 2171.8981,-252 2171.8981,-216 2264.1019,-216 2264.1019,-252"/>
<text text-anchor="middle" x="2218" y="-229.8" font-family="Times,serif" font-size="14.00" fill="#000000">InputModule </text>
</g>
<!-- SharedModule&#45;&gt;InputModule  -->
<g id="edge28" class="edge">
<title>SharedModule&#45;&gt;InputModule </title>
<path fill="none" stroke="#000000" stroke-dasharray="5,2" d="M1609.3182,-180C1755.3434,-180 2175.3712,-180 2175.3712,-180 2175.3712,-180 2175.3712,-205.7181 2175.3712,-205.7181"/>
<polygon fill="#000000" stroke="#000000" points="2171.8712,-205.718 2175.3712,-215.7181 2178.8712,-205.7181 2171.8712,-205.718"/>
</g>
<!-- LinksModule  -->
<g id="node30" class="node">
<title>LinksModule </title>
<polygon fill="#fb8072" stroke="#000000" points="2153.4376,-252 2058.5624,-252 2058.5624,-216 2153.4376,-216 2153.4376,-252"/>
<text text-anchor="middle" x="2106" y="-229.8" font-family="Times,serif" font-size="14.00" fill="#000000">LinksModule </text>
</g>
<!-- SharedModule&#45;&gt;LinksModule  -->
<g id="edge29" class="edge">
<title>SharedModule&#45;&gt;LinksModule </title>
<path fill="none" stroke="#000000" stroke-dasharray="5,2" d="M1609.4168,-182C1743.8197,-182 2106,-182 2106,-182 2106,-182 2106,-205.8129 2106,-205.8129"/>
<polygon fill="#000000" stroke="#000000" points="2102.5001,-205.8129 2106,-215.8129 2109.5001,-205.813 2102.5001,-205.8129"/>
</g>
<!-- PerspectiveDirective  -->
<g id="node31" class="node">
<title>PerspectiveDirective </title>
<polygon fill="#fb8072" stroke="#000000" points="2040.1102,-252 1903.8898,-252 1903.8898,-216 2040.1102,-216 2040.1102,-252"/>
<text text-anchor="middle" x="1972" y="-229.8" font-family="Times,serif" font-size="14.00" fill="#000000">PerspectiveDirective </text>
</g>
<!-- SharedModule&#45;&gt;PerspectiveDirective  -->
<g id="edge30" class="edge">
<title>SharedModule&#45;&gt;PerspectiveDirective </title>
<path fill="none" stroke="#000000" stroke-dasharray="5,2" d="M1609.2977,-184C1714.0372,-184 1949.2418,-184 1949.2418,-184 1949.2418,-184 1949.2418,-205.9489 1949.2418,-205.9489"/>
<polygon fill="#000000" stroke="#000000" points="1945.7418,-205.9488 1949.2418,-215.9489 1952.7418,-205.9489 1945.7418,-205.9488"/>
</g>
<!-- PostItCollectionsModule  -->
<g id="node32" class="node">
<title>PostItCollectionsModule </title>
<polygon fill="#fb8072" stroke="#000000" points="1885.9924,-252 1726.0076,-252 1726.0076,-216 1885.9924,-216 1885.9924,-252"/>
<text text-anchor="middle" x="1806" y="-229.8" font-family="Times,serif" font-size="14.00" fill="#000000">PostItCollectionsModule </text>
</g>
<!-- SharedModule&#45;&gt;PostItCollectionsModule  -->
<g id="edge31" class="edge">
<title>SharedModule&#45;&gt;PostItCollectionsModule </title>
<path fill="none" stroke="#000000" stroke-dasharray="5,2" d="M1609.3448,-186C1677.645,-186 1792.6769,-186 1792.6769,-186 1792.6769,-186 1792.6769,-205.8533 1792.6769,-205.8533"/>
<polygon fill="#000000" stroke="#000000" points="1789.177,-205.8532 1792.6769,-215.8533 1796.177,-205.8533 1789.177,-205.8532"/>
</g>
<!-- PreviewResultsModule  -->
<g id="node33" class="node">
<title>PreviewResultsModule </title>
<polygon fill="#fb8072" stroke="#000000" points="1708.1411,-252 1557.8589,-252 1557.8589,-216 1708.1411,-216 1708.1411,-252"/>
<text text-anchor="middle" x="1633" y="-229.8" font-family="Times,serif" font-size="14.00" fill="#000000">PreviewResultsModule </text>
</g>
<!-- SharedModule&#45;&gt;PreviewResultsModule  -->
<g id="edge32" class="edge">
<title>SharedModule&#45;&gt;PreviewResultsModule </title>
<path fill="none" stroke="#000000" stroke-dasharray="5,2" d="M1583.5703,-187.1061C1583.5703,-187.1061 1583.5703,-205.991 1583.5703,-205.991"/>
<polygon fill="#000000" stroke="#000000" points="1580.0704,-205.9909 1583.5703,-215.991 1587.0704,-205.991 1580.0704,-205.9909"/>
</g>
<!-- RemovePlaceholderOnFocusDirective  -->
<g id="node34" class="node">
<title>RemovePlaceholderOnFocusDirective </title>
<polygon fill="#fb8072" stroke="#000000" points="1539.3704,-252 1304.6296,-252 1304.6296,-216 1539.3704,-216 1539.3704,-252"/>
<text text-anchor="middle" x="1422" y="-229.8" font-family="Times,serif" font-size="14.00" fill="#000000">RemovePlaceholderOnFocusDirective </text>
</g>
<!-- SharedModule&#45;&gt;RemovePlaceholderOnFocusDirective  -->
<g id="edge33" class="edge">
<title>SharedModule&#45;&gt;RemovePlaceholderOnFocusDirective </title>
<path fill="none" stroke="#000000" stroke-dasharray="5,2" d="M1525.1121,-187.1061C1525.1121,-187.1061 1525.1121,-205.991 1525.1121,-205.991"/>
<polygon fill="#000000" stroke="#000000" points="1521.6121,-205.9909 1525.1121,-215.991 1528.6121,-205.991 1521.6121,-205.9909"/>
</g>
<!-- ResourceHeaderComponent  -->
<g id="node35" class="node">
<title>ResourceHeaderComponent </title>
<polygon fill="#fb8072" stroke="#000000" points="1286.8293,-252 1109.1707,-252 1109.1707,-216 1286.8293,-216 1286.8293,-252"/>
<text text-anchor="middle" x="1198" y="-229.8" font-family="Times,serif" font-size="14.00" fill="#000000">ResourceHeaderComponent </text>
</g>
<!-- SharedModule&#45;&gt;ResourceHeaderComponent  -->
<g id="edge34" class="edge">
<title>SharedModule&#45;&gt;ResourceHeaderComponent </title>
<path fill="none" stroke="#000000" stroke-dasharray="5,2" d="M1510.4573,-186C1418.1405,-186 1229.0756,-186 1229.0756,-186 1229.0756,-186 1229.0756,-205.8533 1229.0756,-205.8533"/>
<polygon fill="#000000" stroke="#000000" points="1225.5757,-205.8532 1229.0756,-215.8533 1232.5757,-205.8533 1225.5757,-205.8532"/>
</g>
<!-- SearchBoxModule  -->
<g id="node36" class="node">
<title>SearchBoxModule </title>
<polygon fill="#fb8072" stroke="#000000" points="1091.4743,-252 966.5257,-252 966.5257,-216 1091.4743,-216 1091.4743,-252"/>
<text text-anchor="middle" x="1029" y="-229.8" font-family="Times,serif" font-size="14.00" fill="#000000">SearchBoxModule </text>
</g>
<!-- SharedModule&#45;&gt;SearchBoxModule  -->
<g id="edge35" class="edge">
<title>SharedModule&#45;&gt;SearchBoxModule </title>
<path fill="none" stroke="#000000" stroke-dasharray="5,2" d="M1510.7001,-184C1387.8977,-184 1078.1697,-184 1078.1697,-184 1078.1697,-184 1078.1697,-205.9489 1078.1697,-205.9489"/>
<polygon fill="#000000" stroke="#000000" points="1074.6698,-205.9488 1078.1697,-215.9489 1081.6698,-205.9489 1074.6698,-205.9488"/>
</g>
<!-- SelectModule  -->
<g id="node37" class="node">
<title>SelectModule </title>
<polygon fill="#fb8072" stroke="#000000" points="948.7577,-252 851.2423,-252 851.2423,-216 948.7577,-216 948.7577,-252"/>
<text text-anchor="middle" x="900" y="-229.8" font-family="Times,serif" font-size="14.00" fill="#000000">SelectModule </text>
</g>
<!-- SharedModule&#45;&gt;SelectModule  -->
<g id="edge36" class="edge">
<title>SharedModule&#45;&gt;SelectModule </title>
<path fill="none" stroke="#000000" stroke-dasharray="5,2" d="M1510.629,-182C1362.3049,-182 930.8165,-182 930.8165,-182 930.8165,-182 930.8165,-205.8129 930.8165,-205.8129"/>
<polygon fill="#000000" stroke="#000000" points="927.3165,-205.8129 930.8165,-215.8129 934.3165,-205.813 927.3165,-205.8129"/>
</g>
<!-- SizeSliderComponent  -->
<g id="node38" class="node">
<title>SizeSliderComponent </title>
<polygon fill="#fb8072" stroke="#000000" points="833.3743,-252 690.6257,-252 690.6257,-216 833.3743,-216 833.3743,-252"/>
<text text-anchor="middle" x="762" y="-229.8" font-family="Times,serif" font-size="14.00" fill="#000000">SizeSliderComponent </text>
</g>
<!-- SharedModule&#45;&gt;SizeSliderComponent  -->
<g id="edge37" class="edge">
<title>SharedModule&#45;&gt;SizeSliderComponent </title>
<path fill="none" stroke="#000000" stroke-dasharray="5,2" d="M1510.7215,-180C1340.9804,-180 790.9332,-180 790.9332,-180 790.9332,-180 790.9332,-205.7181 790.9332,-205.7181"/>
<polygon fill="#000000" stroke="#000000" points="787.4333,-205.718 790.9332,-215.7181 794.4333,-205.7181 787.4333,-205.718"/>
</g>
<!-- SliderComponent  -->
<g id="node39" class="node">
<title>SliderComponent </title>
<polygon fill="#fb8072" stroke="#000000" points="673.2717,-252 554.7283,-252 554.7283,-216 673.2717,-216 673.2717,-252"/>
<text text-anchor="middle" x="614" y="-229.8" font-family="Times,serif" font-size="14.00" fill="#000000">SliderComponent </text>
</g>
<!-- SharedModule&#45;&gt;SliderComponent  -->
<g id="edge38" class="edge">
<title>SharedModule&#45;&gt;SliderComponent </title>
<path fill="none" stroke="#000000" stroke-dasharray="5,2" d="M1510.7076,-178C1321.8811,-178 655.1285,-178 655.1285,-178 655.1285,-178 655.1285,-205.973 655.1285,-205.973"/>
<polygon fill="#000000" stroke="#000000" points="651.6286,-205.973 655.1285,-215.973 658.6286,-205.973 651.6286,-205.973"/>
</g>
<!-- TagModule  -->
<g id="node40" class="node">
<title>TagModule </title>
<polygon fill="#fb8072" stroke="#000000" points="536.3172,-252 451.6828,-252 451.6828,-216 536.3172,-216 536.3172,-252"/>
<text text-anchor="middle" x="494" y="-229.8" font-family="Times,serif" font-size="14.00" fill="#000000">TagModule </text>
</g>
<!-- SharedModule&#45;&gt;TagModule  -->
<g id="edge39" class="edge">
<title>SharedModule&#45;&gt;TagModule </title>
<path fill="none" stroke="#000000" stroke-dasharray="5,2" d="M1510.5724,-177C1304.9542,-177 528.0055,-177 528.0055,-177 528.0055,-177 528.0055,-205.9648 528.0055,-205.9648"/>
<polygon fill="#000000" stroke="#000000" points="524.5055,-205.9648 528.0055,-215.9648 531.5055,-205.9649 524.5055,-205.9648"/>
</g>
<!-- TopPanelModule  -->
<g id="node41" class="node">
<title>TopPanelModule </title>
<polygon fill="#fb8072" stroke="#000000" points="433.2052,-252 316.7948,-252 316.7948,-216 433.2052,-216 433.2052,-252"/>
<text text-anchor="middle" x="375" y="-229.8" font-family="Times,serif" font-size="14.00" fill="#000000">TopPanelModule </text>
</g>
<!-- SharedModule&#45;&gt;TopPanelModule  -->
<g id="edge40" class="edge">
<title>SharedModule&#45;&gt;TopPanelModule </title>
<path fill="none" stroke="#000000" stroke-dasharray="5,2" d="M1510.6443,-175C1291.8092,-175 419.875,-175 419.875,-175 419.875,-175 419.875,-205.9775 419.875,-205.9775"/>
<polygon fill="#000000" stroke="#000000" points="416.3751,-205.9774 419.875,-215.9775 423.3751,-205.9775 416.3751,-205.9774"/>
</g>
<!-- UsersModule  -->
<g id="node42" class="node">
<title>UsersModule </title>
<polygon fill="#fb8072" stroke="#000000" points="298.4208,-252 203.5792,-252 203.5792,-216 298.4208,-216 298.4208,-252"/>
<text text-anchor="middle" x="251" y="-229.8" font-family="Times,serif" font-size="14.00" fill="#000000">UsersModule </text>
</g>
<!-- SharedModule&#45;&gt;UsersModule  -->
<g id="edge41" class="edge">
<title>SharedModule&#45;&gt;UsersModule </title>
<path fill="none" stroke="#000000" stroke-dasharray="5,2" d="M1510.5468,-173C1276.1726,-173 288.5217,-173 288.5217,-173 288.5217,-173 288.5217,-205.698 288.5217,-205.698"/>
<polygon fill="#000000" stroke="#000000" points="285.0217,-205.698 288.5218,-215.698 292.0217,-205.698 285.0217,-205.698"/>
</g>
<!-- WarningMessageModule  -->
<g id="node43" class="node">
<title>WarningMessageModule </title>
<polygon fill="#fb8072" stroke="#000000" points="185.5078,-252 24.4922,-252 24.4922,-216 185.5078,-216 185.5078,-252"/>
<text text-anchor="middle" x="105" y="-229.8" font-family="Times,serif" font-size="14.00" fill="#000000">WarningMessageModule </text>
</g>
<!-- SharedModule&#45;&gt;WarningMessageModule  -->
<g id="edge42" class="edge">
<title>SharedModule&#45;&gt;WarningMessageModule </title>
<path fill="none" stroke="#000000" stroke-dasharray="5,2" d="M1510.7798,-171C1261.9057,-171 153.875,-171 153.875,-171 153.875,-171 153.875,-205.7778 153.875,-205.7778"/>
<polygon fill="#000000" stroke="#000000" points="150.3751,-205.7778 153.875,-215.7778 157.3751,-205.7778 150.3751,-205.7778"/>
</g>
<!-- CollapsibleSidebarModule -->
<g id="node8" class="node">
<title>CollapsibleSidebarModule</title>
<polygon fill="#8dd3c7" stroke="#000000" points="2179.0856,-122 2176.0856,-126 2155.0856,-126 2152.0856,-122 2012.9144,-122 2012.9144,-86 2179.0856,-86 2179.0856,-122"/>
<text text-anchor="middle" x="2096" y="-99.8" font-family="Times,serif" font-size="14.00" fill="#000000">CollapsibleSidebarModule</text>
</g>
<!-- CollapsibleSidebarModule&#45;&gt;SharedModule -->
<g id="edge7" class="edge">
<title>CollapsibleSidebarModule&#45;&gt;SharedModule</title>
<path fill="none" stroke="#000000" d="M2026.5062,-122.2396C2026.5062,-137.5706 2026.5062,-157 2026.5062,-157 2026.5062,-157 1619.4827,-157 1619.4827,-157"/>
<polygon fill="#000000" stroke="#000000" points="1619.4827,-153.5001 1609.4827,-157 1619.4826,-160.5001 1619.4827,-153.5001"/>
</g>
<!-- DirectivesModule -->
<g id="node9" class="node">
<title>DirectivesModule</title>
<polygon fill="#8dd3c7" stroke="#000000" points="1994.5772,-122 1991.5772,-126 1970.5772,-126 1967.5772,-122 1877.4228,-122 1877.4228,-86 1994.5772,-86 1994.5772,-122"/>
<text text-anchor="middle" x="1936" y="-99.8" font-family="Times,serif" font-size="14.00" fill="#000000">DirectivesModule</text>
</g>
<!-- DirectivesModule&#45;&gt;SharedModule -->
<g id="edge8" class="edge">
<title>DirectivesModule&#45;&gt;SharedModule</title>
<path fill="none" stroke="#000000" d="M1881.6036,-122.1243C1881.6036,-136.7832 1881.6036,-155 1881.6036,-155 1881.6036,-155 1619.5458,-155 1619.5458,-155"/>
<polygon fill="#000000" stroke="#000000" points="1619.5458,-151.5001 1609.5458,-155 1619.5457,-158.5001 1619.5458,-151.5001"/>
</g>
<!-- DocumentHintsModule -->
<g id="node10" class="node">
<title>DocumentHintsModule</title>
<polygon fill="#8dd3c7" stroke="#000000" points="1859.1993,-122 1856.1993,-126 1835.1993,-126 1832.1993,-122 1710.8007,-122 1710.8007,-86 1859.1993,-86 1859.1993,-122"/>
<text text-anchor="middle" x="1785" y="-99.8" font-family="Times,serif" font-size="14.00" fill="#000000">DocumentHintsModule</text>
</g>
<!-- DocumentHintsModule&#45;&gt;SharedModule -->
<g id="edge9" class="edge">
<title>DocumentHintsModule&#45;&gt;SharedModule</title>
<path fill="none" stroke="#000000" d="M1718.5773,-122.2458C1718.5773,-136.1772 1718.5773,-153 1718.5773,-153 1718.5773,-153 1619.3056,-153 1619.3056,-153"/>
<polygon fill="#000000" stroke="#000000" points="1619.3056,-149.5001 1609.3056,-153 1619.3056,-156.5001 1619.3056,-149.5001"/>
</g>
<!-- DocumentModule -->
<g id="node11" class="node">
<title>DocumentModule</title>
<polygon fill="#8dd3c7" stroke="#000000" points="1692.8669,-122 1689.8669,-126 1668.8669,-126 1665.8669,-122 1575.1331,-122 1575.1331,-86 1692.8669,-86 1692.8669,-122"/>
<text text-anchor="middle" x="1634" y="-99.8" font-family="Times,serif" font-size="14.00" fill="#000000">DocumentModule</text>
</g>
<!-- DocumentModule&#45;&gt;SharedModule -->
<g id="edge10" class="edge">
<title>DocumentModule&#45;&gt;SharedModule</title>
<path fill="none" stroke="#000000" d="M1592.1389,-122.1061C1592.1389,-122.1061 1592.1389,-140.991 1592.1389,-140.991"/>
<polygon fill="#000000" stroke="#000000" points="1588.6389,-140.9909 1592.1389,-150.991 1595.6389,-140.991 1588.6389,-140.9909"/>
</g>
<!-- DragAndDropModule -->
<g id="node12" class="node">
<title>DragAndDropModule</title>
<polygon fill="#8dd3c7" stroke="#000000" points="1557.406,-122 1554.406,-126 1533.406,-126 1530.406,-122 1416.594,-122 1416.594,-86 1557.406,-86 1557.406,-122"/>
<text text-anchor="middle" x="1487" y="-99.8" font-family="Times,serif" font-size="14.00" fill="#000000">DragAndDropModule</text>
</g>
<!-- DragAndDropModule&#45;&gt;SharedModule -->
<g id="edge11" class="edge">
<title>DragAndDropModule&#45;&gt;SharedModule</title>
<path fill="none" stroke="#000000" d="M1533.9958,-122.1061C1533.9958,-122.1061 1533.9958,-140.991 1533.9958,-140.991"/>
<polygon fill="#000000" stroke="#000000" points="1530.4959,-140.9909 1533.9958,-150.991 1537.4959,-140.991 1530.4959,-140.9909"/>
</g>
<!-- InputModule -->
<g id="node13" class="node">
<title>InputModule</title>
<polygon fill="#8dd3c7" stroke="#000000" points="1398.6011,-122 1395.6011,-126 1374.6011,-126 1371.6011,-122 1309.3989,-122 1309.3989,-86 1398.6011,-86 1398.6011,-122"/>
<text text-anchor="middle" x="1354" y="-99.8" font-family="Times,serif" font-size="14.00" fill="#000000">InputModule</text>
</g>
<!-- InputModule&#45;&gt;SharedModule -->
<g id="edge12" class="edge">
<title>InputModule&#45;&gt;SharedModule</title>
<path fill="none" stroke="#000000" d="M1354,-122.2458C1354,-136.1772 1354,-153 1354,-153 1354,-153 1500.6579,-153 1500.6579,-153"/>
<polygon fill="#000000" stroke="#000000" points="1500.6579,-156.5001 1510.6579,-153 1500.6578,-149.5001 1500.6579,-156.5001"/>
</g>
<!-- LinksModule -->
<g id="node14" class="node">
<title>LinksModule</title>
<polygon fill="#8dd3c7" stroke="#000000" points="1291.9387,-122 1288.9387,-126 1267.9387,-126 1264.9387,-122 1200.0613,-122 1200.0613,-86 1291.9387,-86 1291.9387,-122"/>
<text text-anchor="middle" x="1246" y="-99.8" font-family="Times,serif" font-size="14.00" fill="#000000">LinksModule</text>
</g>
<!-- LinksModule&#45;&gt;SharedModule -->
<g id="edge13" class="edge">
<title>LinksModule&#45;&gt;SharedModule</title>
<path fill="none" stroke="#000000" d="M1257.8701,-122.1243C1257.8701,-136.7832 1257.8701,-155 1257.8701,-155 1257.8701,-155 1500.7852,-155 1500.7852,-155"/>
<polygon fill="#000000" stroke="#000000" points="1500.7852,-158.5001 1510.7852,-155 1500.7851,-151.5001 1500.7852,-158.5001"/>
</g>
<!-- PickerModule -->
<g id="node15" class="node">
<title>PickerModule</title>
<polygon fill="#8dd3c7" stroke="#000000" points="1182.8133,-122 1179.8133,-126 1158.8133,-126 1155.8133,-122 1087.1867,-122 1087.1867,-86 1182.8133,-86 1182.8133,-122"/>
<text text-anchor="middle" x="1135" y="-99.8" font-family="Times,serif" font-size="14.00" fill="#000000">PickerModule</text>
</g>
<!-- PickerModule&#45;&gt;SharedModule -->
<g id="edge14" class="edge">
<title>PickerModule&#45;&gt;SharedModule</title>
<path fill="none" stroke="#000000" d="M1145.996,-122.2396C1145.996,-137.5706 1145.996,-157 1145.996,-157 1145.996,-157 1500.4727,-157 1500.4727,-157"/>
<polygon fill="#000000" stroke="#000000" points="1500.4727,-160.5001 1510.4727,-157 1500.4726,-153.5001 1500.4727,-160.5001"/>
</g>
<!-- PostItCollectionsModule -->
<g id="node16" class="node">
<title>PostItCollectionsModule</title>
<polygon fill="#8dd3c7" stroke="#000000" points="1068.9916,-122 1065.9916,-126 1044.9916,-126 1041.9916,-122 913.0084,-122 913.0084,-86 1068.9916,-86 1068.9916,-122"/>
<text text-anchor="middle" x="991" y="-99.8" font-family="Times,serif" font-size="14.00" fill="#000000">PostItCollectionsModule</text>
</g>
<!-- PostItCollectionsModule&#45;&gt;SharedModule -->
<g id="edge15" class="edge">
<title>PostItCollectionsModule&#45;&gt;SharedModule</title>
<path fill="none" stroke="#000000" d="M1017.8796,-122.0091C1017.8796,-138.0494 1017.8796,-159 1017.8796,-159 1017.8796,-159 1500.4533,-159 1500.4533,-159"/>
<polygon fill="#000000" stroke="#000000" points="1500.4533,-162.5001 1510.4533,-159 1500.4532,-155.5001 1500.4533,-162.5001"/>
</g>
<!-- PreviewResultsModule -->
<g id="node17" class="node">
<title>PreviewResultsModule</title>
<polygon fill="#8dd3c7" stroke="#000000" points="895.1414,-122 892.1414,-126 871.1414,-126 868.1414,-122 748.8586,-122 748.8586,-86 895.1414,-86 895.1414,-122"/>
<text text-anchor="middle" x="822" y="-99.8" font-family="Times,serif" font-size="14.00" fill="#000000">PreviewResultsModule</text>
</g>
<!-- PreviewResultsModule&#45;&gt;SharedModule -->
<g id="edge16" class="edge">
<title>PreviewResultsModule&#45;&gt;SharedModule</title>
<path fill="none" stroke="#000000" d="M873.3459,-122.027C873.3459,-138.3976 873.3459,-160 873.3459,-160 873.3459,-160 1500.6175,-160 1500.6175,-160"/>
<polygon fill="#000000" stroke="#000000" points="1500.6176,-163.5001 1510.6175,-160 1500.6175,-156.5001 1500.6176,-163.5001"/>
</g>
<!-- SelectModule -->
<g id="node18" class="node">
<title>SelectModule</title>
<polygon fill="#8dd3c7" stroke="#000000" points="730.7577,-122 727.7577,-126 706.7577,-126 703.7577,-122 637.2423,-122 637.2423,-86 730.7577,-86 730.7577,-122"/>
<text text-anchor="middle" x="684" y="-99.8" font-family="Times,serif" font-size="14.00" fill="#000000">SelectModule</text>
</g>
<!-- SelectModule&#45;&gt;SharedModule -->
<g id="edge17" class="edge">
<title>SelectModule&#45;&gt;SharedModule</title>
<path fill="none" stroke="#000000" d="M710.8459,-122.0336C710.8459,-139.0597 710.8459,-162 710.8459,-162 710.8459,-162 1500.6755,-162 1500.6755,-162"/>
<polygon fill="#000000" stroke="#000000" points="1500.6756,-165.5001 1510.6755,-162 1500.6755,-158.5001 1500.6756,-165.5001"/>
</g>
<!-- TagModule -->
<g id="node19" class="node">
<title>TagModule</title>
<polygon fill="#8dd3c7" stroke="#000000" points="618.8176,-122 615.8176,-126 594.8176,-126 591.8176,-122 537.1824,-122 537.1824,-86 618.8176,-86 618.8176,-122"/>
<text text-anchor="middle" x="578" y="-99.8" font-family="Times,serif" font-size="14.00" fill="#000000">TagModule</text>
</g>
<!-- TagModule&#45;&gt;SharedModule -->
<g id="edge18" class="edge">
<title>TagModule&#45;&gt;SharedModule</title>
<path fill="none" stroke="#000000" d="M586.7614,-122.002C586.7614,-139.6754 586.7614,-164 586.7614,-164 586.7614,-164 1500.735,-164 1500.735,-164"/>
<polygon fill="#000000" stroke="#000000" points="1500.735,-167.5001 1510.735,-164 1500.7349,-160.5001 1500.735,-167.5001"/>
</g>
<!-- TopPanelModule -->
<g id="node20" class="node">
<title>TopPanelModule</title>
<polygon fill="#8dd3c7" stroke="#000000" points="519.705,-122 516.705,-126 495.705,-126 492.705,-122 406.295,-122 406.295,-86 519.705,-86 519.705,-122"/>
<text text-anchor="middle" x="463" y="-99.8" font-family="Times,serif" font-size="14.00" fill="#000000">TopPanelModule</text>
</g>
<!-- TopPanelModule&#45;&gt;SharedModule -->
<g id="edge19" class="edge">
<title>TopPanelModule&#45;&gt;SharedModule</title>
<path fill="none" stroke="#000000" d="M485.597,-122.2667C485.597,-140.5552 485.597,-166 485.597,-166 485.597,-166 1500.6893,-166 1500.6893,-166"/>
<polygon fill="#000000" stroke="#000000" points="1500.6893,-169.5001 1510.6893,-166 1500.6892,-162.5001 1500.6893,-169.5001"/>
</g>
<!-- UsersModule -->
<g id="node21" class="node">
<title>UsersModule</title>
<polygon fill="#8dd3c7" stroke="#000000" points="388.9218,-122 385.9218,-126 364.9218,-126 361.9218,-122 297.0782,-122 297.0782,-86 388.9218,-86 388.9218,-122"/>
<text text-anchor="middle" x="343" y="-99.8" font-family="Times,serif" font-size="14.00" fill="#000000">UsersModule</text>
</g>
<!-- UsersModule&#45;&gt;SharedModule -->
<g id="edge20" class="edge">
<title>UsersModule&#45;&gt;SharedModule</title>
<path fill="none" stroke="#000000" d="M352.679,-122.1686C352.679,-141.0898 352.679,-168 352.679,-168 352.679,-168 1500.4208,-168 1500.4208,-168"/>
<polygon fill="#000000" stroke="#000000" points="1500.4208,-171.5001 1510.4208,-168 1500.4207,-164.5001 1500.4208,-171.5001"/>
</g>
<!-- WarningMessageModule -->
<g id="node22" class="node">
<title>WarningMessageModule</title>
<polygon fill="#8dd3c7" stroke="#000000" points="279.5086,-122 276.5086,-126 255.5086,-126 252.5086,-122 122.4914,-122 122.4914,-86 279.5086,-86 279.5086,-122"/>
<text text-anchor="middle" x="201" y="-99.8" font-family="Times,serif" font-size="14.00" fill="#000000">WarningMessageModule</text>
</g>
<!-- WarningMessageModule&#45;&gt;SharedModule -->
<g id="edge21" class="edge">
<title>WarningMessageModule&#45;&gt;SharedModule</title>
<path fill="none" stroke="#000000" d="M241.6468,-122.1061C241.6468,-141.3391 241.6468,-169 241.6467,-169 241.6467,-169 1500.7251,-169 1500.7251,-169"/>
<polygon fill="#000000" stroke="#000000" points="1500.7251,-172.5001 1510.7251,-169 1500.7251,-165.5001 1500.7251,-172.5001"/>
</g>
</g>
</svg>
