<?xml version="1.0" encoding="UTF-8" standalone="no"?>
<!DOCTYPE svg PUBLIC "-//W3C//DTD SVG 1.1//EN"
 "http://www.w3.org/Graphics/SVG/1.1/DTD/svg11.dtd">
<!-- Generated by graphviz version 2.40.1 (20161225.0304)
 -->
<!-- Title: dependencies Pages: 1 -->
<svg width="1145pt" height="211pt"
 viewBox="0.00 0.00 1145.00 211.00" xmlns="http://www.w3.org/2000/svg" xmlns:xlink="http://www.w3.org/1999/xlink">
<g id="graph0" class="graph" transform="scale(1 1) rotate(0) translate(4 207)">
<title>dependencies</title>
<polygon fill="#ffffff" stroke="transparent" points="-4,4 -4,-207 1141,-207 1141,4 -4,4"/>
<text text-anchor="start" x="547.5091" y="-42.4" font-family="sans-serif" font-weight="bold" font-size="14.00" fill="#000000">Legend</text>
<polygon fill="#ffffb3" stroke="transparent" points="334.5,-10 334.5,-30 354.5,-30 354.5,-10 334.5,-10"/>
<text text-anchor="start" x="358.129" y="-15.4" font-family="sans-serif" font-size="14.00" fill="#000000"> &#160;Declarations</text>
<polygon fill="#8dd3c7" stroke="transparent" points="447.5,-10 447.5,-30 467.5,-30 467.5,-10 447.5,-10"/>
<text text-anchor="start" x="471.2251" y="-15.4" font-family="sans-serif" font-size="14.00" fill="#000000"> &#160;Module</text>
<polygon fill="#80b1d3" stroke="transparent" points="533.5,-10 533.5,-30 553.5,-30 553.5,-10 533.5,-10"/>
<text text-anchor="start" x="557.2812" y="-15.4" font-family="sans-serif" font-size="14.00" fill="#000000"> &#160;Bootstrap</text>
<polygon fill="#fdb462" stroke="transparent" points="630.5,-10 630.5,-30 650.5,-30 650.5,-10 630.5,-10"/>
<text text-anchor="start" x="654.1732" y="-15.4" font-family="sans-serif" font-size="14.00" fill="#000000"> &#160;Providers</text>
<polygon fill="#fb8072" stroke="transparent" points="726.5,-10 726.5,-30 746.5,-30 746.5,-10 726.5,-10"/>
<text text-anchor="start" x="750.2258" y="-15.4" font-family="sans-serif" font-size="14.00" fill="#000000"> &#160;Exports</text>
<g id="clust1" class="cluster">
<title>cluster_ViewModule</title>
<polygon fill="none" stroke="#000000" stroke-dasharray="1,5" points="8,-70 8,-195 1129,-195 1129,-70 8,-70"/>
</g>
<g id="clust2" class="cluster">
<title>cluster_ViewModule_declarations</title>
<polygon fill="none" stroke="#000000" points="639,-78 639,-130 1121,-130 1121,-78 639,-78"/>
</g>
<g id="clust6" class="cluster">
<title>cluster_ViewModule_imports</title>
<polygon fill="none" stroke="#000000" points="16,-78 16,-130 631,-130 631,-78 16,-78"/>
</g>
<!-- ViewComponent -->
<g id="node1" class="node">
<title>ViewComponent</title>
<polygon fill="#ffffb3" stroke="#000000" points="1112.6513,-122 1001.3487,-122 1001.3487,-86 1112.6513,-86 1112.6513,-122"/>
<text text-anchor="middle" x="1057" y="-99.8" font-family="Times,serif" font-size="14.00" fill="#000000">ViewComponent</text>
</g>
<!-- ViewModule -->
<g id="node4" class="node">
<title>ViewModule</title>
<polygon fill="#8dd3c7" stroke="#000000" points="589.8683,-187 586.8683,-191 565.8683,-191 562.8683,-187 500.1317,-187 500.1317,-151 589.8683,-151 589.8683,-187"/>
<text text-anchor="middle" x="545" y="-164.8" font-family="Times,serif" font-size="14.00" fill="#000000">ViewModule</text>
</g>
<!-- ViewComponent&#45;&gt;ViewModule -->
<g id="edge1" class="edge">
<title>ViewComponent&#45;&gt;ViewModule</title>
<path fill="none" stroke="#000000" d="M1057,-122.2921C1057,-144.2057 1057,-178 1057,-178 1057,-178 599.9879,-178 599.9879,-178"/>
<polygon fill="#000000" stroke="#000000" points="599.9879,-174.5001 589.9879,-178 599.9878,-181.5001 599.9879,-174.5001"/>
</g>
<!-- ViewControlsComponent -->
<g id="node2" class="node">
<title>ViewControlsComponent</title>
<polygon fill="#ffffb3" stroke="#000000" points="982.8738,-122 823.1262,-122 823.1262,-86 982.8738,-86 982.8738,-122"/>
<text text-anchor="middle" x="903" y="-99.8" font-family="Times,serif" font-size="14.00" fill="#000000">ViewControlsComponent</text>
</g>
<!-- ViewControlsComponent&#45;&gt;ViewModule -->
<g id="edge2" class="edge">
<title>ViewControlsComponent&#45;&gt;ViewModule</title>
<path fill="none" stroke="#000000" d="M903,-122.1061C903,-141.3391 903,-169 903,-169 903,-169 599.9785,-169 599.9785,-169"/>
<polygon fill="#000000" stroke="#000000" points="599.9785,-165.5001 589.9785,-169 599.9784,-172.5001 599.9785,-165.5001"/>
</g>
<!-- ViewLoadingComponent -->
<g id="node3" class="node">
<title>ViewLoadingComponent</title>
<polygon fill="#ffffb3" stroke="#000000" points="805.3089,-122 646.6911,-122 646.6911,-86 805.3089,-86 805.3089,-122"/>
<text text-anchor="middle" x="726" y="-99.8" font-family="Times,serif" font-size="14.00" fill="#000000">ViewLoadingComponent</text>
</g>
<!-- ViewLoadingComponent&#45;&gt;ViewModule -->
<g id="edge3" class="edge">
<title>ViewLoadingComponent&#45;&gt;ViewModule</title>
<path fill="none" stroke="#000000" d="M726,-122.027C726,-138.3976 726,-160 726,-160 726,-160 600.207,-160 600.207,-160"/>
<polygon fill="#000000" stroke="#000000" points="600.2071,-156.5001 590.207,-160 600.207,-163.5001 600.2071,-156.5001"/>
</g>
<!-- PostItPerspectiveModule -->
<g id="node5" class="node">
<title>PostItPerspectiveModule</title>
<polygon fill="#8dd3c7" stroke="#000000" points="623.2464,-122 620.2464,-126 599.2464,-126 596.2464,-122 466.7536,-122 466.7536,-86 623.2464,-86 623.2464,-122"/>
<text text-anchor="middle" x="545" y="-99.8" font-family="Times,serif" font-size="14.00" fill="#000000">PostItPerspectiveModule</text>
</g>
<!-- PostItPerspectiveModule&#45;&gt;ViewModule -->
<g id="edge4" class="edge">
<title>PostItPerspectiveModule&#45;&gt;ViewModule</title>
<path fill="none" stroke="#000000" d="M545,-122.1061C545,-122.1061 545,-140.991 545,-140.991"/>
<polygon fill="#000000" stroke="#000000" points="541.5001,-140.9909 545,-150.991 548.5001,-140.991 541.5001,-140.9909"/>
</g>
<!-- SharedModule -->
<g id="node6" class="node">
<title>SharedModule</title>
<polygon fill="#8dd3c7" stroke="#000000" points="448.4231,-122 445.4231,-126 424.4231,-126 421.4231,-122 349.5769,-122 349.5769,-86 448.4231,-86 448.4231,-122"/>
<text text-anchor="middle" x="399" y="-99.8" font-family="Times,serif" font-size="14.00" fill="#000000">SharedModule</text>
</g>
<!-- SharedModule&#45;&gt;ViewModule -->
<g id="edge5" class="edge">
<title>SharedModule&#45;&gt;ViewModule</title>
<path fill="none" stroke="#000000" d="M399,-122.027C399,-138.3976 399,-160 399,-160 399,-160 490.0039,-160 490.0039,-160"/>
<polygon fill="#000000" stroke="#000000" points="490.0039,-163.5001 500.0039,-160 490.0038,-156.5001 490.0039,-163.5001"/>
</g>
<!-- TablePerspectiveModule -->
<g id="node7" class="node">
<title>TablePerspectiveModule</title>
<polygon fill="#8dd3c7" stroke="#000000" points="331.9496,-122 328.9496,-126 307.9496,-126 304.9496,-122 176.0504,-122 176.0504,-86 331.9496,-86 331.9496,-122"/>
<text text-anchor="middle" x="254" y="-99.8" font-family="Times,serif" font-size="14.00" fill="#000000">TablePerspectiveModule</text>
</g>
<!-- TablePerspectiveModule&#45;&gt;ViewModule -->
<g id="edge6" class="edge">
<title>TablePerspectiveModule&#45;&gt;ViewModule</title>
<path fill="none" stroke="#000000" d="M254,-122.1061C254,-141.3391 254,-169 254,-169 254,-169 489.8505,-169 489.8505,-169"/>
<polygon fill="#000000" stroke="#000000" points="489.8506,-172.5001 499.8505,-169 489.8505,-165.5001 489.8506,-172.5001"/>
</g>
<!-- ViewRoutingModule -->
<g id="node8" class="node">
<title>ViewRoutingModule</title>
<polygon fill="#8dd3c7" stroke="#000000" points="158.486,-122 155.486,-126 134.486,-126 131.486,-122 23.514,-122 23.514,-86 158.486,-86 158.486,-122"/>
<text text-anchor="middle" x="91" y="-99.8" font-family="Times,serif" font-size="14.00" fill="#000000">ViewRoutingModule</text>
</g>
<!-- ViewRoutingModule&#45;&gt;ViewModule -->
<g id="edge7" class="edge">
<title>ViewRoutingModule&#45;&gt;ViewModule</title>
<path fill="none" stroke="#000000" d="M91,-122.2921C91,-144.2057 91,-178 91,-178 91,-178 489.809,-178 489.809,-178"/>
<polygon fill="#000000" stroke="#000000" points="489.809,-181.5001 499.809,-178 489.8089,-174.5001 489.809,-181.5001"/>
</g>
</g>
</svg>
