<?xml version="1.0" encoding="UTF-8" standalone="no"?>
<!DOCTYPE svg PUBLIC "-//W3C//DTD SVG 1.1//EN"
 "http://www.w3.org/Graphics/SVG/1.1/DTD/svg11.dtd">
<!-- Generated by graphviz version 2.40.1 (20161225.0304)
 -->
<!-- Title: dependencies Pages: 1 -->
<svg width="1133pt" height="211pt"
 viewBox="0.00 0.00 1133.00 211.00" xmlns="http://www.w3.org/2000/svg" xmlns:xlink="http://www.w3.org/1999/xlink">
<g id="graph0" class="graph" transform="scale(1 1) rotate(0) translate(4 207)">
<title>dependencies</title>
<polygon fill="#ffffff" stroke="transparent" points="-4,4 -4,-207 1129,-207 1129,4 -4,4"/>
<text text-anchor="start" x="541.5091" y="-42.4" font-family="sans-serif" font-weight="bold" font-size="14.00" fill="#000000">Legend</text>
<polygon fill="#ffffb3" stroke="transparent" points="328.5,-10 328.5,-30 348.5,-30 348.5,-10 328.5,-10"/>
<text text-anchor="start" x="352.129" y="-15.4" font-family="sans-serif" font-size="14.00" fill="#000000"> &#160;Declarations</text>
<polygon fill="#8dd3c7" stroke="transparent" points="441.5,-10 441.5,-30 461.5,-30 461.5,-10 441.5,-10"/>
<text text-anchor="start" x="465.2251" y="-15.4" font-family="sans-serif" font-size="14.00" fill="#000000"> &#160;Module</text>
<polygon fill="#80b1d3" stroke="transparent" points="527.5,-10 527.5,-30 547.5,-30 547.5,-10 527.5,-10"/>
<text text-anchor="start" x="551.2812" y="-15.4" font-family="sans-serif" font-size="14.00" fill="#000000"> &#160;Bootstrap</text>
<polygon fill="#fdb462" stroke="transparent" points="624.5,-10 624.5,-30 644.5,-30 644.5,-10 624.5,-10"/>
<text text-anchor="start" x="648.1732" y="-15.4" font-family="sans-serif" font-size="14.00" fill="#000000"> &#160;Providers</text>
<polygon fill="#fb8072" stroke="transparent" points="720.5,-10 720.5,-30 740.5,-30 740.5,-10 720.5,-10"/>
<text text-anchor="start" x="744.2258" y="-15.4" font-family="sans-serif" font-size="14.00" fill="#000000"> &#160;Exports</text>
<g id="clust1" class="cluster">
<title>cluster_ViewModule</title>
<polygon fill="none" stroke="#000000" stroke-dasharray="1,5" points="8,-70 8,-195 1117,-195 1117,-70 8,-70"/>
</g>
<g id="clust2" class="cluster">
<title>cluster_ViewModule_declarations</title>
<polygon fill="none" stroke="#000000" points="466,-78 466,-130 1109,-130 1109,-78 466,-78"/>
</g>
<g id="clust7" class="cluster">
<title>cluster_ViewModule_imports</title>
<polygon fill="none" stroke="#000000" points="16,-78 16,-130 458,-130 458,-78 16,-78"/>
</g>
<!-- ViewComponent -->
<g id="node1" class="node">
<title>ViewComponent</title>
<polygon fill="#ffffb3" stroke="#000000" points="1100.6513,-122 989.3487,-122 989.3487,-86 1100.6513,-86 1100.6513,-122"/>
<text text-anchor="middle" x="1045" y="-99.8" font-family="Times,serif" font-size="14.00" fill="#000000">ViewComponent</text>
</g>
<!-- ViewModule -->
<g id="node5" class="node">
<title>ViewModule</title>
<polygon fill="#8dd3c7" stroke="#000000" points="597.8683,-187 594.8683,-191 573.8683,-191 570.8683,-187 508.1317,-187 508.1317,-151 597.8683,-151 597.8683,-187"/>
<text text-anchor="middle" x="553" y="-164.8" font-family="Times,serif" font-size="14.00" fill="#000000">ViewModule</text>
</g>
<!-- ViewComponent&#45;&gt;ViewModule -->
<g id="edge1" class="edge">
<title>ViewComponent&#45;&gt;ViewModule</title>
<path fill="none" stroke="#000000" d="M1045,-122.2921C1045,-144.2057 1045,-178 1045,-178 1045,-178 607.966,-178 607.966,-178"/>
<polygon fill="#000000" stroke="#000000" points="607.966,-174.5001 597.966,-178 607.966,-181.5001 607.966,-174.5001"/>
</g>
<!-- ViewControlsComponent -->
<g id="node2" class="node">
<title>ViewControlsComponent</title>
<polygon fill="#ffffb3" stroke="#000000" points="970.8738,-122 811.1262,-122 811.1262,-86 970.8738,-86 970.8738,-122"/>
<text text-anchor="middle" x="891" y="-99.8" font-family="Times,serif" font-size="14.00" fill="#000000">ViewControlsComponent</text>
</g>
<!-- ViewControlsComponent&#45;&gt;ViewModule -->
<g id="edge2" class="edge">
<title>ViewControlsComponent&#45;&gt;ViewModule</title>
<path fill="none" stroke="#000000" d="M891,-122.1061C891,-141.3391 891,-169 891,-169 891,-169 607.8838,-169 607.8838,-169"/>
<polygon fill="#000000" stroke="#000000" points="607.8838,-165.5001 597.8838,-169 607.8838,-172.5001 607.8838,-165.5001"/>
</g>
<!-- ViewControlsInfoPipe -->
<g id="node3" class="node">
<title>ViewControlsInfoPipe</title>
<polygon fill="#ffffb3" stroke="#000000" points="793.2506,-122 650.7494,-122 650.7494,-86 793.2506,-86 793.2506,-122"/>
<text text-anchor="middle" x="722" y="-99.8" font-family="Times,serif" font-size="14.00" fill="#000000">ViewControlsInfoPipe</text>
</g>
<!-- ViewControlsInfoPipe&#45;&gt;ViewModule -->
<g id="edge3" class="edge">
<title>ViewControlsInfoPipe&#45;&gt;ViewModule</title>
<path fill="none" stroke="#000000" d="M722,-122.027C722,-138.3976 722,-160 722,-160 722,-160 608.2889,-160 608.2889,-160"/>
<polygon fill="#000000" stroke="#000000" points="608.2889,-156.5001 598.2889,-160 608.2889,-163.5001 608.2889,-156.5001"/>
</g>
<!-- ViewLoadingComponent -->
<g id="node4" class="node">
<title>ViewLoadingComponent</title>
<polygon fill="#ffffb3" stroke="#000000" points="632.3089,-122 473.6911,-122 473.6911,-86 632.3089,-86 632.3089,-122"/>
<text text-anchor="middle" x="553" y="-99.8" font-family="Times,serif" font-size="14.00" fill="#000000">ViewLoadingComponent</text>
</g>
<!-- ViewLoadingComponent&#45;&gt;ViewModule -->
<g id="edge4" class="edge">
<title>ViewLoadingComponent&#45;&gt;ViewModule</title>
<path fill="none" stroke="#000000" d="M553,-122.1061C553,-122.1061 553,-140.991 553,-140.991"/>
<polygon fill="#000000" stroke="#000000" points="549.5001,-140.9909 553,-150.991 556.5001,-140.991 549.5001,-140.9909"/>
</g>
<!-- PostItPerspectiveModule -->
<g id="node6" class="node">
<title>PostItPerspectiveModule</title>
<polygon fill="#8dd3c7" stroke="#000000" points="450.2464,-122 447.2464,-126 426.2464,-126 423.2464,-122 293.7536,-122 293.7536,-86 450.2464,-86 450.2464,-122"/>
<text text-anchor="middle" x="372" y="-99.8" font-family="Times,serif" font-size="14.00" fill="#000000">PostItPerspectiveModule</text>
</g>
<!-- PostItPerspectiveModule&#45;&gt;ViewModule -->
<g id="edge5" class="edge">
<title>PostItPerspectiveModule&#45;&gt;ViewModule</title>
<path fill="none" stroke="#000000" d="M372,-122.027C372,-138.3976 372,-160 372,-160 372,-160 497.793,-160 497.793,-160"/>
<polygon fill="#000000" stroke="#000000" points="497.793,-163.5001 507.793,-160 497.7929,-156.5001 497.793,-163.5001"/>
</g>
<!-- SharedModule -->
<g id="node7" class="node">
<title>SharedModule</title>
<polygon fill="#8dd3c7" stroke="#000000" points="275.4231,-122 272.4231,-126 251.4231,-126 248.4231,-122 176.5769,-122 176.5769,-86 275.4231,-86 275.4231,-122"/>
<text text-anchor="middle" x="226" y="-99.8" font-family="Times,serif" font-size="14.00" fill="#000000">SharedModule</text>
</g>
<!-- SharedModule&#45;&gt;ViewModule -->
<g id="edge6" class="edge">
<title>SharedModule&#45;&gt;ViewModule</title>
<path fill="none" stroke="#000000" d="M226,-122.1061C226,-141.3391 226,-169 226,-169 226,-169 497.8754,-169 497.8754,-169"/>
<polygon fill="#000000" stroke="#000000" points="497.8754,-172.5001 507.8754,-169 497.8753,-165.5001 497.8754,-172.5001"/>
</g>
<!-- ViewRoutingModule -->
<g id="node8" class="node">
<title>ViewRoutingModule</title>
<polygon fill="#8dd3c7" stroke="#000000" points="158.486,-122 155.486,-126 134.486,-126 131.486,-122 23.514,-122 23.514,-86 158.486,-86 158.486,-122"/>
<text text-anchor="middle" x="91" y="-99.8" font-family="Times,serif" font-size="14.00" fill="#000000">ViewRoutingModule</text>
</g>
<!-- ViewRoutingModule&#45;&gt;ViewModule -->
<g id="edge7" class="edge">
<title>ViewRoutingModule&#45;&gt;ViewModule</title>
<path fill="none" stroke="#000000" d="M91,-122.2921C91,-144.2057 91,-178 91,-178 91,-178 497.8603,-178 497.8603,-178"/>
<polygon fill="#000000" stroke="#000000" points="497.8603,-181.5001 507.8603,-178 497.8603,-174.5001 497.8603,-181.5001"/>
</g>
</g>
</svg>
