<?xml version="1.0" encoding="UTF-8" standalone="no"?>
<!DOCTYPE svg PUBLIC "-//W3C//DTD SVG 1.1//EN"
 "http://www.w3.org/Graphics/SVG/1.1/DTD/svg11.dtd">
<!-- Generated by graphviz version 2.40.1 (20161225.0304)
 -->
<!-- Title: dependencies Pages: 1 -->
<svg width="1442pt" height="284pt"
 viewBox="0.00 0.00 1442.00 284.00" xmlns="http://www.w3.org/2000/svg" xmlns:xlink="http://www.w3.org/1999/xlink">
<g id="graph0" class="graph" transform="scale(1 1) rotate(0) translate(4 280)">
<title>dependencies</title>
<polygon fill="#ffffff" stroke="transparent" points="-4,4 -4,-280 1438,-280 1438,4 -4,4"/>
<text text-anchor="start" x="696.0091" y="-42.4" font-family="sans-serif" font-weight="bold" font-size="14.00" fill="#000000">Legend</text>
<polygon fill="#ffffb3" stroke="transparent" points="483,-10 483,-30 503,-30 503,-10 483,-10"/>
<text text-anchor="start" x="506.629" y="-15.4" font-family="sans-serif" font-size="14.00" fill="#000000"> &#160;Declarations</text>
<polygon fill="#8dd3c7" stroke="transparent" points="596,-10 596,-30 616,-30 616,-10 596,-10"/>
<text text-anchor="start" x="619.7251" y="-15.4" font-family="sans-serif" font-size="14.00" fill="#000000"> &#160;Module</text>
<polygon fill="#80b1d3" stroke="transparent" points="682,-10 682,-30 702,-30 702,-10 682,-10"/>
<text text-anchor="start" x="705.7812" y="-15.4" font-family="sans-serif" font-size="14.00" fill="#000000"> &#160;Bootstrap</text>
<polygon fill="#fdb462" stroke="transparent" points="779,-10 779,-30 799,-30 799,-10 779,-10"/>
<text text-anchor="start" x="802.6732" y="-15.4" font-family="sans-serif" font-size="14.00" fill="#000000"> &#160;Providers</text>
<polygon fill="#fb8072" stroke="transparent" points="875,-10 875,-30 895,-30 895,-10 875,-10"/>
<text text-anchor="start" x="898.7258" y="-15.4" font-family="sans-serif" font-size="14.00" fill="#000000"> &#160;Exports</text>
<g id="clust1" class="cluster">
<title>cluster_TablePerspectiveModule</title>
<polygon fill="none" stroke="#000000" stroke-dasharray="1,5" points="8,-70 8,-268 1426,-268 1426,-70 8,-70"/>
</g>
<g id="clust2" class="cluster">
<title>cluster_TablePerspectiveModule_declarations</title>
<polygon fill="none" stroke="#000000" points="512,-78 512,-130 1418,-130 1418,-78 512,-78"/>
</g>
<g id="clust8" class="cluster">
<title>cluster_TablePerspectiveModule_imports</title>
<polygon fill="none" stroke="#000000" points="232,-78 232,-130 504,-130 504,-78 232,-78"/>
</g>
<g id="clust9" class="cluster">
<title>cluster_TablePerspectiveModule_exports</title>
<polygon fill="none" stroke="#000000" points="602,-208 602,-260 800,-260 800,-208 602,-208"/>
</g>
<g id="clust11" class="cluster">
<title>cluster_TablePerspectiveModule_providers</title>
<polygon fill="none" stroke="#000000" points="16,-78 16,-130 224,-130 224,-78 16,-78"/>
</g>
<!-- TableBodyCellComponent -->
<g id="node1" class="node">
<title>TableBodyCellComponent</title>
<polygon fill="#ffffb3" stroke="#000000" points="1410.3738,-122 1243.6262,-122 1243.6262,-86 1410.3738,-86 1410.3738,-122"/>
<text text-anchor="middle" x="1327" y="-99.8" font-family="Times,serif" font-size="14.00" fill="#000000">TableBodyCellComponent</text>
</g>
<!-- TablePerspectiveModule -->
<g id="node6" class="node">
<title>TablePerspectiveModule</title>
<polygon fill="#8dd3c7" stroke="#000000" points="778.9496,-187 775.9496,-191 754.9496,-191 751.9496,-187 623.0504,-187 623.0504,-151 778.9496,-151 778.9496,-187"/>
<text text-anchor="middle" x="701" y="-164.8" font-family="Times,serif" font-size="14.00" fill="#000000">TablePerspectiveModule</text>
</g>
<!-- TableBodyCellComponent&#45;&gt;TablePerspectiveModule -->
<g id="edge1" class="edge">
<title>TableBodyCellComponent&#45;&gt;TablePerspectiveModule</title>
<path fill="none" stroke="#000000" d="M1327,-122.2921C1327,-144.2057 1327,-178 1327,-178 1327,-178 789.0176,-178 789.0176,-178"/>
<polygon fill="#000000" stroke="#000000" points="789.0176,-174.5001 779.0176,-178 789.0176,-181.5001 789.0176,-174.5001"/>
</g>
<!-- TableBodyComponent -->
<g id="node2" class="node">
<title>TableBodyComponent</title>
<polygon fill="#ffffb3" stroke="#000000" points="1225.5421,-122 1082.4579,-122 1082.4579,-86 1225.5421,-86 1225.5421,-122"/>
<text text-anchor="middle" x="1154" y="-99.8" font-family="Times,serif" font-size="14.00" fill="#000000">TableBodyComponent</text>
</g>
<!-- TableBodyComponent&#45;&gt;TablePerspectiveModule -->
<g id="edge2" class="edge">
<title>TableBodyComponent&#45;&gt;TablePerspectiveModule</title>
<path fill="none" stroke="#000000" d="M1154,-122.1061C1154,-141.3391 1154,-169 1154,-169 1154,-169 789.1313,-169 789.1313,-169"/>
<polygon fill="#000000" stroke="#000000" points="789.1313,-165.5001 779.1313,-169 789.1313,-172.5001 789.1313,-165.5001"/>
</g>
<!-- TableHeaderCellComponent -->
<g id="node3" class="node">
<title>TableHeaderCellComponent</title>
<polygon fill="#ffffb3" stroke="#000000" points="1064.4482,-122 887.5518,-122 887.5518,-86 1064.4482,-86 1064.4482,-122"/>
<text text-anchor="middle" x="976" y="-99.8" font-family="Times,serif" font-size="14.00" fill="#000000">TableHeaderCellComponent</text>
</g>
<!-- TableHeaderCellComponent&#45;&gt;TablePerspectiveModule -->
<g id="edge3" class="edge">
<title>TableHeaderCellComponent&#45;&gt;TablePerspectiveModule</title>
<path fill="none" stroke="#000000" d="M976,-122.027C976,-138.3976 976,-160 976,-160 976,-160 789.0684,-160 789.0684,-160"/>
<polygon fill="#000000" stroke="#000000" points="789.0684,-156.5001 779.0684,-160 789.0683,-163.5001 789.0684,-156.5001"/>
</g>
<!-- TableHeaderComponent -->
<g id="node4" class="node">
<title>TableHeaderComponent</title>
<polygon fill="#ffffb3" stroke="#000000" points="869.6163,-122 716.3837,-122 716.3837,-86 869.6163,-86 869.6163,-122"/>
<text text-anchor="middle" x="793" y="-99.8" font-family="Times,serif" font-size="14.00" fill="#000000">TableHeaderComponent</text>
</g>
<!-- TableHeaderComponent&#45;&gt;TablePerspectiveModule -->
<g id="edge4" class="edge">
<title>TableHeaderComponent&#45;&gt;TablePerspectiveModule</title>
<path fill="none" stroke="#000000" d="M747.5835,-122.1061C747.5835,-122.1061 747.5835,-140.991 747.5835,-140.991"/>
<polygon fill="#000000" stroke="#000000" points="744.0835,-140.9909 747.5835,-150.991 751.0835,-140.991 744.0835,-140.9909"/>
</g>
<!-- TablePerspectiveComponent -->
<g id="node5" class="node">
<title>TablePerspectiveComponent</title>
<polygon fill="#ffffb3" stroke="#000000" points="697.7324,-122 520.2676,-122 520.2676,-86 697.7324,-86 697.7324,-122"/>
<text text-anchor="middle" x="609" y="-99.8" font-family="Times,serif" font-size="14.00" fill="#000000">TablePerspectiveComponent</text>
</g>
<!-- TablePerspectiveComponent&#45;&gt;TablePerspectiveModule -->
<g id="edge5" class="edge">
<title>TablePerspectiveComponent&#45;&gt;TablePerspectiveModule</title>
<path fill="none" stroke="#000000" d="M660.4457,-122.1061C660.4457,-122.1061 660.4457,-140.991 660.4457,-140.991"/>
<polygon fill="#000000" stroke="#000000" points="656.9457,-140.9909 660.4457,-150.991 663.9457,-140.991 656.9457,-140.9909"/>
</g>
<!-- TablePerspectiveComponent  -->
<g id="node9" class="node">
<title>TablePerspectiveComponent </title>
<polygon fill="#fb8072" stroke="#000000" points="791.7323,-252 610.2677,-252 610.2677,-216 791.7323,-216 791.7323,-252"/>
<text text-anchor="middle" x="701" y="-229.8" font-family="Times,serif" font-size="14.00" fill="#000000">TablePerspectiveComponent </text>
</g>
<!-- TablePerspectiveModule&#45;&gt;TablePerspectiveComponent  -->
<g id="edge8" class="edge">
<title>TablePerspectiveModule&#45;&gt;TablePerspectiveComponent </title>
<path fill="none" stroke="#000000" stroke-dasharray="5,2" d="M701,-187.1061C701,-187.1061 701,-205.991 701,-205.991"/>
<polygon fill="#000000" stroke="#000000" points="697.5001,-205.9909 701,-215.991 704.5001,-205.991 697.5001,-205.9909"/>
</g>
<!-- DragAndDropModule -->
<g id="node7" class="node">
<title>DragAndDropModule</title>
<polygon fill="#8dd3c7" stroke="#000000" points="496.406,-122 493.406,-126 472.406,-126 469.406,-122 355.594,-122 355.594,-86 496.406,-86 496.406,-122"/>
<text text-anchor="middle" x="426" y="-99.8" font-family="Times,serif" font-size="14.00" fill="#000000">DragAndDropModule</text>
</g>
<!-- DragAndDropModule&#45;&gt;TablePerspectiveModule -->
<g id="edge6" class="edge">
<title>DragAndDropModule&#45;&gt;TablePerspectiveModule</title>
<path fill="none" stroke="#000000" d="M426,-122.027C426,-138.3976 426,-160 426,-160 426,-160 612.9316,-160 612.9316,-160"/>
<polygon fill="#000000" stroke="#000000" points="612.9317,-163.5001 622.9316,-160 612.9316,-156.5001 612.9317,-163.5001"/>
</g>
<!-- SharedModule -->
<g id="node8" class="node">
<title>SharedModule</title>
<polygon fill="#8dd3c7" stroke="#000000" points="338.4231,-122 335.4231,-126 314.4231,-126 311.4231,-122 239.5769,-122 239.5769,-86 338.4231,-86 338.4231,-122"/>
<text text-anchor="middle" x="289" y="-99.8" font-family="Times,serif" font-size="14.00" fill="#000000">SharedModule</text>
</g>
<!-- SharedModule&#45;&gt;TablePerspectiveModule -->
<g id="edge7" class="edge">
<title>SharedModule&#45;&gt;TablePerspectiveModule</title>
<path fill="none" stroke="#000000" d="M289,-122.1061C289,-141.3391 289,-169 289,-169 289,-169 613.0216,-169 613.0216,-169"/>
<polygon fill="#000000" stroke="#000000" points="613.0216,-172.5001 623.0216,-169 613.0216,-165.5001 613.0216,-172.5001"/>
</g>
<!-- TableManagerService -->
<g id="node10" class="node">
<title>TableManagerService</title>
<ellipse fill="#fdb462" stroke="#000000" cx="120" cy="-104" rx="96.0861" ry="18"/>
<text text-anchor="middle" x="120" y="-99.8" font-family="Times,serif" font-size="14.00" fill="#000000">TableManagerService</text>
</g>
<!-- TableManagerService&#45;&gt;TablePerspectiveModule -->
<g id="edge9" class="edge">
<title>TableManagerService&#45;&gt;TablePerspectiveModule</title>
<path fill="none" stroke="#000000" d="M120,-122.2921C120,-144.2057 120,-178 120,-178 120,-178 612.9454,-178 612.9454,-178"/>
<polygon fill="#000000" stroke="#000000" points="612.9454,-181.5001 622.9454,-178 612.9454,-174.5001 612.9454,-181.5001"/>
</g>
</g>
</svg>
