<?xml version="1.0" encoding="UTF-8" standalone="no"?>
<!DOCTYPE svg PUBLIC "-//W3C//DTD SVG 1.1//EN"
 "http://www.w3.org/Graphics/SVG/1.1/DTD/svg11.dtd">
<!-- Generated by graphviz version 2.40.1 (20161225.0304)
 -->
<!-- Title: dependencies Pages: 1 -->
<svg width="6913pt" height="284pt"
 viewBox="0.00 0.00 6913.00 284.00" xmlns="http://www.w3.org/2000/svg" xmlns:xlink="http://www.w3.org/1999/xlink">
<g id="graph0" class="graph" transform="scale(1 1) rotate(0) translate(4 280)">
<title>dependencies</title>
<polygon fill="#ffffff" stroke="transparent" points="-4,4 -4,-280 6909,-280 6909,4 -4,4"/>
<text text-anchor="start" x="3431.5091" y="-42.4" font-family="sans-serif" font-weight="bold" font-size="14.00" fill="#000000">Legend</text>
<polygon fill="#ffffb3" stroke="transparent" points="3218.5,-10 3218.5,-30 3238.5,-30 3238.5,-10 3218.5,-10"/>
<text text-anchor="start" x="3242.129" y="-15.4" font-family="sans-serif" font-size="14.00" fill="#000000"> &#160;Declarations</text>
<polygon fill="#8dd3c7" stroke="transparent" points="3331.5,-10 3331.5,-30 3351.5,-30 3351.5,-10 3331.5,-10"/>
<text text-anchor="start" x="3355.2251" y="-15.4" font-family="sans-serif" font-size="14.00" fill="#000000"> &#160;Module</text>
<polygon fill="#80b1d3" stroke="transparent" points="3417.5,-10 3417.5,-30 3437.5,-30 3437.5,-10 3417.5,-10"/>
<text text-anchor="start" x="3441.2812" y="-15.4" font-family="sans-serif" font-size="14.00" fill="#000000"> &#160;Bootstrap</text>
<polygon fill="#fdb462" stroke="transparent" points="3514.5,-10 3514.5,-30 3534.5,-30 3534.5,-10 3514.5,-10"/>
<text text-anchor="start" x="3538.1732" y="-15.4" font-family="sans-serif" font-size="14.00" fill="#000000"> &#160;Providers</text>
<polygon fill="#fb8072" stroke="transparent" points="3610.5,-10 3610.5,-30 3630.5,-30 3630.5,-10 3610.5,-10"/>
<text text-anchor="start" x="3634.2258" y="-15.4" font-family="sans-serif" font-size="14.00" fill="#000000"> &#160;Exports</text>
<g id="clust1" class="cluster">
<title>cluster_TablePerspectiveModule</title>
<polygon fill="none" stroke="#000000" stroke-dasharray="1,5" points="8,-70 8,-268 6897,-268 6897,-70 8,-70"/>
</g>
<g id="clust2" class="cluster">
<title>cluster_TablePerspectiveModule_declarations</title>
<polygon fill="none" stroke="#000000" points="472,-78 472,-130 6889,-130 6889,-78 472,-78"/>
</g>
<g id="clust34" class="cluster">
<title>cluster_TablePerspectiveModule_imports</title>
<polygon fill="none" stroke="#000000" points="16,-78 16,-130 464,-130 464,-78 16,-78"/>
</g>
<g id="clust35" class="cluster">
<title>cluster_TablePerspectiveModule_exports</title>
<polygon fill="none" stroke="#000000" points="3241,-208 3241,-260 3439,-260 3439,-208 3241,-208"/>
</g>
<!-- TableAttributeSuggestionsComponent -->
<g id="node1" class="node">
<title>TableAttributeSuggestionsComponent</title>
<polygon fill="#ffffb3" stroke="#000000" points="6880.917,-122 6649.083,-122 6649.083,-86 6880.917,-86 6880.917,-122"/>
<text text-anchor="middle" x="6765" y="-99.8" font-family="Times,serif" font-size="14.00" fill="#000000">TableAttributeSuggestionsComponent</text>
</g>
<!-- TablePerspectiveModule -->
<g id="node32" class="node">
<title>TablePerspectiveModule</title>
<polygon fill="#8dd3c7" stroke="#000000" points="3417.9496,-187 3414.9496,-191 3393.9496,-191 3390.9496,-187 3262.0504,-187 3262.0504,-151 3417.9496,-151 3417.9496,-187"/>
<text text-anchor="middle" x="3340" y="-164.8" font-family="Times,serif" font-size="14.00" fill="#000000">TablePerspectiveModule</text>
</g>
<!-- TableAttributeSuggestionsComponent&#45;&gt;TablePerspectiveModule -->
<g id="edge1" class="edge">
<title>TableAttributeSuggestionsComponent&#45;&gt;TablePerspectiveModule</title>
<path fill="none" stroke="#000000" d="M6765,-122.3802C6765,-146.2785 6765,-185 6765,-185 6765,-185 3427.9711,-185 3427.9711,-185"/>
<polygon fill="#000000" stroke="#000000" points="3427.9711,-181.5001 3417.9711,-185 3427.971,-188.5001 3427.9711,-181.5001"/>
</g>
<!-- TableBodyComponent -->
<g id="node2" class="node">
<title>TableBodyComponent</title>
<polygon fill="#ffffb3" stroke="#000000" points="6631.5421,-122 6488.4579,-122 6488.4579,-86 6631.5421,-86 6631.5421,-122"/>
<text text-anchor="middle" x="6560" y="-99.8" font-family="Times,serif" font-size="14.00" fill="#000000">TableBodyComponent</text>
</g>
<!-- TableBodyComponent&#45;&gt;TablePerspectiveModule -->
<g id="edge2" class="edge">
<title>TableBodyComponent&#45;&gt;TablePerspectiveModule</title>
<path fill="none" stroke="#000000" d="M6560,-122.3228C6560,-145.6602 6560,-183 6560,-183 6560,-183 3428.0005,-183 3428.0005,-183"/>
<polygon fill="#000000" stroke="#000000" points="3428.0005,-179.5001 3418.0005,-183 3428.0004,-186.5001 3428.0005,-179.5001"/>
</g>
<!-- TableCaptionComponent -->
<g id="node3" class="node">
<title>TableCaptionComponent</title>
<polygon fill="#ffffb3" stroke="#000000" points="6469.5379,-122 6312.4621,-122 6312.4621,-86 6469.5379,-86 6469.5379,-122"/>
<text text-anchor="middle" x="6391" y="-99.8" font-family="Times,serif" font-size="14.00" fill="#000000">TableCaptionComponent</text>
</g>
<!-- TableCaptionComponent&#45;&gt;TablePerspectiveModule -->
<g id="edge3" class="edge">
<title>TableCaptionComponent&#45;&gt;TablePerspectiveModule</title>
<path fill="none" stroke="#000000" d="M6391,-122.2479C6391,-145.0179 6391,-181 6391,-181 6391,-181 3428.0981,-181 3428.0981,-181"/>
<polygon fill="#000000" stroke="#000000" points="3428.0981,-177.5001 3418.0981,-181 3428.098,-184.5001 3428.0981,-177.5001"/>
</g>
<!-- TableCellGroupComponent -->
<g id="node4" class="node">
<title>TableCellGroupComponent</title>
<polygon fill="#ffffb3" stroke="#000000" points="6294.3047,-122 6121.6953,-122 6121.6953,-86 6294.3047,-86 6294.3047,-122"/>
<text text-anchor="middle" x="6208" y="-99.8" font-family="Times,serif" font-size="14.00" fill="#000000">TableCellGroupComponent</text>
</g>
<!-- TableCellGroupComponent&#45;&gt;TablePerspectiveModule -->
<g id="edge4" class="edge">
<title>TableCellGroupComponent&#45;&gt;TablePerspectiveModule</title>
<path fill="none" stroke="#000000" d="M6208,-122.1554C6208,-144.3519 6208,-179 6208,-179 6208,-179 3428.1995,-179 3428.1995,-179"/>
<polygon fill="#000000" stroke="#000000" points="3428.1995,-175.5001 3418.1995,-179 3428.1995,-182.5001 3428.1995,-175.5001"/>
</g>
<!-- TableCollapsedCellComponent -->
<g id="node5" class="node">
<title>TableCollapsedCellComponent</title>
<polygon fill="#ffffb3" stroke="#000000" points="6104.0294,-122 5911.9706,-122 5911.9706,-86 6104.0294,-86 6104.0294,-122"/>
<text text-anchor="middle" x="6008" y="-99.8" font-family="Times,serif" font-size="14.00" fill="#000000">TableCollapsedCellComponent</text>
</g>
<!-- TableCollapsedCellComponent&#45;&gt;TablePerspectiveModule -->
<g id="edge5" class="edge">
<title>TableCollapsedCellComponent&#45;&gt;TablePerspectiveModule</title>
<path fill="none" stroke="#000000" d="M6008,-122.0449C6008,-143.6623 6008,-177 6008,-177 6008,-177 3428.044,-177 3428.044,-177"/>
<polygon fill="#000000" stroke="#000000" points="3428.044,-173.5001 3418.044,-177 3428.044,-180.5001 3428.044,-173.5001"/>
</g>
<!-- TableCollapsedCellMenuComponent -->
<g id="node6" class="node">
<title>TableCollapsedCellMenuComponent</title>
<polygon fill="#ffffb3" stroke="#000000" points="5893.6881,-122 5668.3119,-122 5668.3119,-86 5893.6881,-86 5893.6881,-122"/>
<text text-anchor="middle" x="5781" y="-99.8" font-family="Times,serif" font-size="14.00" fill="#000000">TableCollapsedCellMenuComponent</text>
</g>
<!-- TableCollapsedCellMenuComponent&#45;&gt;TablePerspectiveModule -->
<g id="edge6" class="edge">
<title>TableCollapsedCellMenuComponent&#45;&gt;TablePerspectiveModule</title>
<path fill="none" stroke="#000000" d="M5781,-122.2843C5781,-143.3211 5781,-175 5781,-175 5781,-175 3428.1093,-175 3428.1093,-175"/>
<polygon fill="#000000" stroke="#000000" points="3428.1093,-171.5001 3418.1093,-175 3428.1092,-178.5001 3428.1093,-171.5001"/>
</g>
<!-- TableColumnContextMenuComponent -->
<g id="node7" class="node">
<title>TableColumnContextMenuComponent</title>
<polygon fill="#ffffb3" stroke="#000000" points="5650.8144,-122 5415.1856,-122 5415.1856,-86 5650.8144,-86 5650.8144,-122"/>
<text text-anchor="middle" x="5533" y="-99.8" font-family="Times,serif" font-size="14.00" fill="#000000">TableColumnContextMenuComponent</text>
</g>
<!-- TableColumnContextMenuComponent&#45;&gt;TablePerspectiveModule -->
<g id="edge7" class="edge">
<title>TableColumnContextMenuComponent&#45;&gt;TablePerspectiveModule</title>
<path fill="none" stroke="#000000" d="M5533,-122.1289C5533,-142.5724 5533,-173 5533,-173 5533,-173 3428.05,-173 3428.05,-173"/>
<polygon fill="#000000" stroke="#000000" points="3428.0501,-169.5001 3418.05,-173 3428.05,-176.5001 3428.0501,-169.5001"/>
</g>
<!-- TableColumnGroupComponent -->
<g id="node8" class="node">
<title>TableColumnGroupComponent</title>
<polygon fill="#ffffb3" stroke="#000000" points="5397.0898,-122 5202.9102,-122 5202.9102,-86 5397.0898,-86 5397.0898,-122"/>
<text text-anchor="middle" x="5300" y="-99.8" font-family="Times,serif" font-size="14.00" fill="#000000">TableColumnGroupComponent</text>
</g>
<!-- TableColumnGroupComponent&#45;&gt;TablePerspectiveModule -->
<g id="edge8" class="edge">
<title>TableColumnGroupComponent&#45;&gt;TablePerspectiveModule</title>
<path fill="none" stroke="#000000" d="M5300,-122.308C5300,-142.1455 5300,-171 5300,-171 5300,-171 3428.0438,-171 3428.0438,-171"/>
<polygon fill="#000000" stroke="#000000" points="3428.0439,-167.5001 3418.0438,-171 3428.0438,-174.5001 3428.0439,-167.5001"/>
</g>
<!-- TableDataCellComponent -->
<g id="node9" class="node">
<title>TableDataCellComponent</title>
<polygon fill="#ffffb3" stroke="#000000" points="5184.4636,-122 5021.5364,-122 5021.5364,-86 5184.4636,-86 5184.4636,-122"/>
<text text-anchor="middle" x="5103" y="-99.8" font-family="Times,serif" font-size="14.00" fill="#000000">TableDataCellComponent</text>
</g>
<!-- TableDataCellComponent&#45;&gt;TablePerspectiveModule -->
<g id="edge9" class="edge">
<title>TableDataCellComponent&#45;&gt;TablePerspectiveModule</title>
<path fill="none" stroke="#000000" d="M5103,-122.1686C5103,-141.0898 5103,-168 5103,-168 5103,-168 3428.0287,-168 3428.0287,-168"/>
<polygon fill="#000000" stroke="#000000" points="3428.0288,-164.5001 3418.0287,-168 3428.0287,-171.5001 3428.0288,-164.5001"/>
</g>
<!-- TableDataCellMenuComponent -->
<g id="node10" class="node">
<title>TableDataCellMenuComponent</title>
<polygon fill="#ffffb3" stroke="#000000" points="5003.6232,-122 4808.3768,-122 4808.3768,-86 5003.6232,-86 5003.6232,-122"/>
<text text-anchor="middle" x="4906" y="-99.8" font-family="Times,serif" font-size="14.00" fill="#000000">TableDataCellMenuComponent</text>
</g>
<!-- TableDataCellMenuComponent&#45;&gt;TablePerspectiveModule -->
<g id="edge10" class="edge">
<title>TableDataCellMenuComponent&#45;&gt;TablePerspectiveModule</title>
<path fill="none" stroke="#000000" d="M4906,-122.2667C4906,-140.5552 4906,-166 4906,-166 4906,-166 3428.194,-166 3428.194,-166"/>
<polygon fill="#000000" stroke="#000000" points="3428.194,-162.5001 3418.194,-166 3428.1939,-169.5001 3428.194,-162.5001"/>
</g>
<!-- TableEditableCellDirective -->
<g id="node11" class="node">
<title>TableEditableCellDirective</title>
<polygon fill="#ffffb3" stroke="#000000" points="4789.9412,-122 4620.0588,-122 4620.0588,-86 4789.9412,-86 4789.9412,-122"/>
<text text-anchor="middle" x="4705" y="-99.8" font-family="Times,serif" font-size="14.00" fill="#000000">TableEditableCellDirective</text>
</g>
<!-- TableEditableCellDirective&#45;&gt;TablePerspectiveModule -->
<g id="edge11" class="edge">
<title>TableEditableCellDirective&#45;&gt;TablePerspectiveModule</title>
<path fill="none" stroke="#000000" d="M4705,-122.002C4705,-139.6754 4705,-164 4705,-164 4705,-164 3428.291,-164 3428.291,-164"/>
<polygon fill="#000000" stroke="#000000" points="3428.291,-160.5001 3418.291,-164 3428.291,-167.5001 3428.291,-160.5001"/>
</g>
<!-- TableHeaderAddButtonComponent -->
<g id="node12" class="node">
<title>TableHeaderAddButtonComponent</title>
<polygon fill="#ffffb3" stroke="#000000" points="4601.8403,-122 4386.1597,-122 4386.1597,-86 4601.8403,-86 4601.8403,-122"/>
<text text-anchor="middle" x="4494" y="-99.8" font-family="Times,serif" font-size="14.00" fill="#000000">TableHeaderAddButtonComponent</text>
</g>
<!-- TableHeaderAddButtonComponent&#45;&gt;TablePerspectiveModule -->
<g id="edge12" class="edge">
<title>TableHeaderAddButtonComponent&#45;&gt;TablePerspectiveModule</title>
<path fill="none" stroke="#000000" d="M4494,-122.0336C4494,-139.0597 4494,-162 4494,-162 4494,-162 3427.9599,-162 3427.9599,-162"/>
<polygon fill="#000000" stroke="#000000" points="3427.9599,-158.5001 3417.9599,-162 3427.9599,-165.5001 3427.9599,-158.5001"/>
</g>
<!-- TableHeaderCollectionComponent -->
<g id="node13" class="node">
<title>TableHeaderCollectionComponent</title>
<polygon fill="#ffffb3" stroke="#000000" points="4367.944,-122 4156.056,-122 4156.056,-86 4367.944,-86 4367.944,-122"/>
<text text-anchor="middle" x="4262" y="-99.8" font-family="Times,serif" font-size="14.00" fill="#000000">TableHeaderCollectionComponent</text>
</g>
<!-- TableHeaderCollectionComponent&#45;&gt;TablePerspectiveModule -->
<g id="edge13" class="edge">
<title>TableHeaderCollectionComponent&#45;&gt;TablePerspectiveModule</title>
<path fill="none" stroke="#000000" d="M4262,-122.027C4262,-138.3976 4262,-160 4262,-160 4262,-160 3428.2115,-160 3428.2115,-160"/>
<polygon fill="#000000" stroke="#000000" points="3428.2115,-156.5001 3418.2115,-160 3428.2114,-163.5001 3428.2115,-156.5001"/>
</g>
<!-- TableHeaderComponent -->
<g id="node14" class="node">
<title>TableHeaderComponent</title>
<polygon fill="#ffffb3" stroke="#000000" points="4137.6163,-122 3984.3837,-122 3984.3837,-86 4137.6163,-86 4137.6163,-122"/>
<text text-anchor="middle" x="4061" y="-99.8" font-family="Times,serif" font-size="14.00" fill="#000000">TableHeaderComponent</text>
</g>
<!-- TableHeaderComponent&#45;&gt;TablePerspectiveModule -->
<g id="edge14" class="edge">
<title>TableHeaderComponent&#45;&gt;TablePerspectiveModule</title>
<path fill="none" stroke="#000000" d="M4061,-122.2819C4061,-137.9478 4061,-158 4061,-158 4061,-158 3428.1881,-158 3428.1881,-158"/>
<polygon fill="#000000" stroke="#000000" points="3428.1881,-154.5001 3418.1881,-158 3428.1881,-161.5001 3428.1881,-154.5001"/>
</g>
<!-- TableHeaderLinkComponent -->
<g id="node15" class="node">
<title>TableHeaderLinkComponent</title>
<polygon fill="#ffffb3" stroke="#000000" points="3966.059,-122 3785.941,-122 3785.941,-86 3966.059,-86 3966.059,-122"/>
<text text-anchor="middle" x="3876" y="-99.8" font-family="Times,serif" font-size="14.00" fill="#000000">TableHeaderLinkComponent</text>
</g>
<!-- TableHeaderLinkComponent&#45;&gt;TablePerspectiveModule -->
<g id="edge15" class="edge">
<title>TableHeaderLinkComponent&#45;&gt;TablePerspectiveModule</title>
<path fill="none" stroke="#000000" d="M3876,-122.1871C3876,-137.1824 3876,-156 3876,-156 3876,-156 3428.2258,-156 3428.2258,-156"/>
<polygon fill="#000000" stroke="#000000" points="3428.2259,-152.5001 3418.2258,-156 3428.2258,-159.5001 3428.2259,-152.5001"/>
</g>
<!-- TableHiddenColumnComponent -->
<g id="node16" class="node">
<title>TableHiddenColumnComponent</title>
<polygon fill="#ffffb3" stroke="#000000" points="3767.5349,-122 3568.4651,-122 3568.4651,-86 3767.5349,-86 3767.5349,-122"/>
<text text-anchor="middle" x="3668" y="-99.8" font-family="Times,serif" font-size="14.00" fill="#000000">TableHiddenColumnComponent</text>
</g>
<!-- TableHiddenColumnComponent&#45;&gt;TablePerspectiveModule -->
<g id="edge16" class="edge">
<title>TableHiddenColumnComponent&#45;&gt;TablePerspectiveModule</title>
<path fill="none" stroke="#000000" d="M3668,-122.0511C3668,-136.373 3668,-154 3668,-154 3668,-154 3428.1475,-154 3428.1475,-154"/>
<polygon fill="#000000" stroke="#000000" points="3428.1475,-150.5001 3418.1475,-154 3428.1474,-157.5001 3428.1475,-150.5001"/>
</g>
<!-- TableHierarchyCellComponent -->
<g id="node17" class="node">
<title>TableHierarchyCellComponent</title>
<polygon fill="#ffffb3" stroke="#000000" points="3550.5,-122 3357.5,-122 3357.5,-86 3550.5,-86 3550.5,-122"/>
<text text-anchor="middle" x="3454" y="-99.8" font-family="Times,serif" font-size="14.00" fill="#000000">TableHierarchyCellComponent</text>
</g>
<!-- TableHierarchyCellComponent&#45;&gt;TablePerspectiveModule -->
<g id="edge17" class="edge">
<title>TableHierarchyCellComponent&#45;&gt;TablePerspectiveModule</title>
<path fill="none" stroke="#000000" d="M3387.8626,-122.1061C3387.8626,-122.1061 3387.8626,-140.991 3387.8626,-140.991"/>
<polygon fill="#000000" stroke="#000000" points="3384.3626,-140.9909 3387.8626,-150.991 3391.3626,-140.991 3384.3626,-140.9909"/>
</g>
<!-- TableHierarchyCellMenuComponent -->
<g id="node18" class="node">
<title>TableHierarchyCellMenuComponent</title>
<polygon fill="#ffffb3" stroke="#000000" points="3339.6587,-122 3114.3413,-122 3114.3413,-86 3339.6587,-86 3339.6587,-122"/>
<text text-anchor="middle" x="3227" y="-99.8" font-family="Times,serif" font-size="14.00" fill="#000000">TableHierarchyCellMenuComponent</text>
</g>
<!-- TableHierarchyCellMenuComponent&#45;&gt;TablePerspectiveModule -->
<g id="edge18" class="edge">
<title>TableHierarchyCellMenuComponent&#45;&gt;TablePerspectiveModule</title>
<path fill="none" stroke="#000000" d="M3300.8022,-122.1061C3300.8022,-122.1061 3300.8022,-140.991 3300.8022,-140.991"/>
<polygon fill="#000000" stroke="#000000" points="3297.3023,-140.9909 3300.8022,-150.991 3304.3023,-140.991 3297.3023,-140.9909"/>
</g>
<!-- TableHierarchyColumnComponent -->
<g id="node19" class="node">
<title>TableHierarchyColumnComponent</title>
<polygon fill="#ffffb3" stroke="#000000" points="3096.285,-122 2881.715,-122 2881.715,-86 3096.285,-86 3096.285,-122"/>
<text text-anchor="middle" x="2989" y="-99.8" font-family="Times,serif" font-size="14.00" fill="#000000">TableHierarchyColumnComponent</text>
</g>
<!-- TableHierarchyColumnComponent&#45;&gt;TablePerspectiveModule -->
<g id="edge19" class="edge">
<title>TableHierarchyColumnComponent&#45;&gt;TablePerspectiveModule</title>
<path fill="none" stroke="#000000" d="M2989,-122.0511C2989,-136.373 2989,-154 2989,-154 2989,-154 3251.6656,-154 3251.6656,-154"/>
<polygon fill="#000000" stroke="#000000" points="3251.6657,-157.5001 3261.6656,-154 3251.6656,-150.5001 3251.6657,-157.5001"/>
</g>
<!-- TableLinkCellComponent -->
<g id="node20" class="node">
<title>TableLinkCellComponent</title>
<polygon fill="#ffffb3" stroke="#000000" points="2863.4804,-122 2700.5196,-122 2700.5196,-86 2863.4804,-86 2863.4804,-122"/>
<text text-anchor="middle" x="2782" y="-99.8" font-family="Times,serif" font-size="14.00" fill="#000000">TableLinkCellComponent</text>
</g>
<!-- TableLinkCellComponent&#45;&gt;TablePerspectiveModule -->
<g id="edge20" class="edge">
<title>TableLinkCellComponent&#45;&gt;TablePerspectiveModule</title>
<path fill="none" stroke="#000000" d="M2782,-122.1871C2782,-137.1824 2782,-156 2782,-156 2782,-156 3251.8249,-156 3251.8249,-156"/>
<polygon fill="#000000" stroke="#000000" points="3251.825,-159.5001 3261.8249,-156 3251.8249,-152.5001 3251.825,-159.5001"/>
</g>
<!-- TableLinkInfoComponent -->
<g id="node21" class="node">
<title>TableLinkInfoComponent</title>
<polygon fill="#ffffb3" stroke="#000000" points="2682.4692,-122 2519.5308,-122 2519.5308,-86 2682.4692,-86 2682.4692,-122"/>
<text text-anchor="middle" x="2601" y="-99.8" font-family="Times,serif" font-size="14.00" fill="#000000">TableLinkInfoComponent</text>
</g>
<!-- TableLinkInfoComponent&#45;&gt;TablePerspectiveModule -->
<g id="edge21" class="edge">
<title>TableLinkInfoComponent&#45;&gt;TablePerspectiveModule</title>
<path fill="none" stroke="#000000" d="M2601,-122.2819C2601,-137.9478 2601,-158 2601,-158 2601,-158 3251.9626,-158 3251.9626,-158"/>
<polygon fill="#000000" stroke="#000000" points="3251.9626,-161.5001 3261.9626,-158 3251.9625,-154.5001 3251.9626,-161.5001"/>
</g>
<!-- TableLinkedRowComponent -->
<g id="node22" class="node">
<title>TableLinkedRowComponent</title>
<polygon fill="#ffffb3" stroke="#000000" points="2501.8061,-122 2322.1939,-122 2322.1939,-86 2501.8061,-86 2501.8061,-122"/>
<text text-anchor="middle" x="2412" y="-99.8" font-family="Times,serif" font-size="14.00" fill="#000000">TableLinkedRowComponent</text>
</g>
<!-- TableLinkedRowComponent&#45;&gt;TablePerspectiveModule -->
<g id="edge22" class="edge">
<title>TableLinkedRowComponent&#45;&gt;TablePerspectiveModule</title>
<path fill="none" stroke="#000000" d="M2412,-122.027C2412,-138.3976 2412,-160 2412,-160 2412,-160 3251.679,-160 3251.679,-160"/>
<polygon fill="#000000" stroke="#000000" points="3251.6791,-163.5001 3261.679,-160 3251.679,-156.5001 3251.6791,-163.5001"/>
</g>
<!-- TableLinkedRowsComponent -->
<g id="node23" class="node">
<title>TableLinkedRowsComponent</title>
<polygon fill="#ffffb3" stroke="#000000" points="2304.2506,-122 2119.7494,-122 2119.7494,-86 2304.2506,-86 2304.2506,-122"/>
<text text-anchor="middle" x="2212" y="-99.8" font-family="Times,serif" font-size="14.00" fill="#000000">TableLinkedRowsComponent</text>
</g>
<!-- TableLinkedRowsComponent&#45;&gt;TablePerspectiveModule -->
<g id="edge23" class="edge">
<title>TableLinkedRowsComponent&#45;&gt;TablePerspectiveModule</title>
<path fill="none" stroke="#000000" d="M2212,-122.0336C2212,-139.0597 2212,-162 2212,-162 2212,-162 3252.0229,-162 3252.0229,-162"/>
<polygon fill="#000000" stroke="#000000" points="3252.023,-165.5001 3262.0229,-162 3252.0229,-158.5001 3252.023,-165.5001"/>
</g>
<!-- TablePerspectiveComponent -->
<g id="node24" class="node">
<title>TablePerspectiveComponent</title>
<polygon fill="#ffffb3" stroke="#000000" points="2101.7324,-122 1924.2676,-122 1924.2676,-86 2101.7324,-86 2101.7324,-122"/>
<text text-anchor="middle" x="2013" y="-99.8" font-family="Times,serif" font-size="14.00" fill="#000000">TablePerspectiveComponent</text>
</g>
<!-- TablePerspectiveComponent&#45;&gt;TablePerspectiveModule -->
<g id="edge24" class="edge">
<title>TablePerspectiveComponent&#45;&gt;TablePerspectiveModule</title>
<path fill="none" stroke="#000000" d="M2013,-122.002C2013,-139.6754 2013,-164 2013,-164 2013,-164 3251.9443,-164 3251.9443,-164"/>
<polygon fill="#000000" stroke="#000000" points="3251.9443,-167.5001 3261.9443,-164 3251.9442,-160.5001 3251.9443,-167.5001"/>
</g>
<!-- TablePrimaryRowComponent -->
<g id="node25" class="node">
<title>TablePrimaryRowComponent</title>
<polygon fill="#ffffb3" stroke="#000000" points="1906.2478,-122 1721.7522,-122 1721.7522,-86 1906.2478,-86 1906.2478,-122"/>
<text text-anchor="middle" x="1814" y="-99.8" font-family="Times,serif" font-size="14.00" fill="#000000">TablePrimaryRowComponent</text>
</g>
<!-- TablePrimaryRowComponent&#45;&gt;TablePerspectiveModule -->
<g id="edge25" class="edge">
<title>TablePrimaryRowComponent&#45;&gt;TablePerspectiveModule</title>
<path fill="none" stroke="#000000" d="M1814,-122.2667C1814,-140.5552 1814,-166 1814,-166 1814,-166 3251.9635,-166 3251.9635,-166"/>
<polygon fill="#000000" stroke="#000000" points="3251.9635,-169.5001 3261.9635,-166 3251.9634,-162.5001 3251.9635,-169.5001"/>
</g>
<!-- TableRowGroupComponent -->
<g id="node26" class="node">
<title>TableRowGroupComponent</title>
<polygon fill="#ffffb3" stroke="#000000" points="1703.9157,-122 1528.0843,-122 1528.0843,-86 1703.9157,-86 1703.9157,-122"/>
<text text-anchor="middle" x="1616" y="-99.8" font-family="Times,serif" font-size="14.00" fill="#000000">TableRowGroupComponent</text>
</g>
<!-- TableRowGroupComponent&#45;&gt;TablePerspectiveModule -->
<g id="edge26" class="edge">
<title>TableRowGroupComponent&#45;&gt;TablePerspectiveModule</title>
<path fill="none" stroke="#000000" d="M1616,-122.1686C1616,-141.0898 1616,-168 1616,-168 1616,-168 3252.0097,-168 3252.0097,-168"/>
<polygon fill="#000000" stroke="#000000" points="3252.0097,-171.5001 3262.0097,-168 3252.0097,-164.5001 3252.0097,-171.5001"/>
</g>
<!-- TableRowGroupFooterComponent -->
<g id="node27" class="node">
<title>TableRowGroupFooterComponent</title>
<polygon fill="#ffffb3" stroke="#000000" points="1509.9636,-122 1298.0364,-122 1298.0364,-86 1509.9636,-86 1509.9636,-122"/>
<text text-anchor="middle" x="1404" y="-99.8" font-family="Times,serif" font-size="14.00" fill="#000000">TableRowGroupFooterComponent</text>
</g>
<!-- TableRowGroupFooterComponent&#45;&gt;TablePerspectiveModule -->
<g id="edge27" class="edge">
<title>TableRowGroupFooterComponent&#45;&gt;TablePerspectiveModule</title>
<path fill="none" stroke="#000000" d="M1404,-122.308C1404,-142.1455 1404,-171 1404,-171 1404,-171 3252.0103,-171 3252.0103,-171"/>
<polygon fill="#000000" stroke="#000000" points="3252.0103,-174.5001 3262.0103,-171 3252.0102,-167.5001 3252.0103,-174.5001"/>
</g>
<!-- TableRowGroupHeaderComponent -->
<g id="node28" class="node">
<title>TableRowGroupHeaderComponent</title>
<polygon fill="#ffffb3" stroke="#000000" points="1279.8263,-122 1064.1737,-122 1064.1737,-86 1279.8263,-86 1279.8263,-122"/>
<text text-anchor="middle" x="1172" y="-99.8" font-family="Times,serif" font-size="14.00" fill="#000000">TableRowGroupHeaderComponent</text>
</g>
<!-- TableRowGroupHeaderComponent&#45;&gt;TablePerspectiveModule -->
<g id="edge28" class="edge">
<title>TableRowGroupHeaderComponent&#45;&gt;TablePerspectiveModule</title>
<path fill="none" stroke="#000000" d="M1172,-122.1289C1172,-142.5724 1172,-173 1172,-173 1172,-173 3251.88,-173 3251.88,-173"/>
<polygon fill="#000000" stroke="#000000" points="3251.8801,-176.5001 3261.88,-173 3251.88,-169.5001 3251.8801,-176.5001"/>
</g>
<!-- TableRowNumbersComponent -->
<g id="node29" class="node">
<title>TableRowNumbersComponent</title>
<polygon fill="#ffffb3" stroke="#000000" points="1046.465,-122 855.535,-122 855.535,-86 1046.465,-86 1046.465,-122"/>
<text text-anchor="middle" x="951" y="-99.8" font-family="Times,serif" font-size="14.00" fill="#000000">TableRowNumbersComponent</text>
</g>
<!-- TableRowNumbersComponent&#45;&gt;TablePerspectiveModule -->
<g id="edge29" class="edge">
<title>TableRowNumbersComponent&#45;&gt;TablePerspectiveModule</title>
<path fill="none" stroke="#000000" d="M951,-122.2843C951,-143.3211 951,-175 951,-175 951,-175 3251.8719,-175 3251.8719,-175"/>
<polygon fill="#000000" stroke="#000000" points="3251.872,-178.5001 3261.8719,-175 3251.8719,-171.5001 3251.872,-178.5001"/>
</g>
<!-- TableRowsComponent -->
<g id="node30" class="node">
<title>TableRowsComponent</title>
<polygon fill="#ffffb3" stroke="#000000" points="837.5926,-122 692.4074,-122 692.4074,-86 837.5926,-86 837.5926,-122"/>
<text text-anchor="middle" x="765" y="-99.8" font-family="Times,serif" font-size="14.00" fill="#000000">TableRowsComponent</text>
</g>
<!-- TableRowsComponent&#45;&gt;TablePerspectiveModule -->
<g id="edge30" class="edge">
<title>TableRowsComponent&#45;&gt;TablePerspectiveModule</title>
<path fill="none" stroke="#000000" d="M765,-122.0449C765,-143.6623 765,-177 765,-177 765,-177 3251.882,-177 3251.882,-177"/>
<polygon fill="#000000" stroke="#000000" points="3251.882,-180.5001 3261.882,-177 3251.8819,-173.5001 3251.882,-180.5001"/>
</g>
<!-- TableSingleColumnComponent -->
<g id="node31" class="node">
<title>TableSingleColumnComponent</title>
<polygon fill="#ffffb3" stroke="#000000" points="674.101,-122 479.899,-122 479.899,-86 674.101,-86 674.101,-122"/>
<text text-anchor="middle" x="577" y="-99.8" font-family="Times,serif" font-size="14.00" fill="#000000">TableSingleColumnComponent</text>
</g>
<!-- TableSingleColumnComponent&#45;&gt;TablePerspectiveModule -->
<g id="edge31" class="edge">
<title>TableSingleColumnComponent&#45;&gt;TablePerspectiveModule</title>
<path fill="none" stroke="#000000" d="M577,-122.1554C577,-144.3519 577,-179 577,-179 577,-179 3251.7595,-179 3251.7595,-179"/>
<polygon fill="#000000" stroke="#000000" points="3251.7595,-182.5001 3261.7595,-179 3251.7595,-175.5001 3251.7595,-182.5001"/>
</g>
<!-- TablePerspectiveComponent  -->
<g id="node36" class="node">
<title>TablePerspectiveComponent </title>
<polygon fill="#fb8072" stroke="#000000" points="3430.7323,-252 3249.2677,-252 3249.2677,-216 3430.7323,-216 3430.7323,-252"/>
<text text-anchor="middle" x="3340" y="-229.8" font-family="Times,serif" font-size="14.00" fill="#000000">TablePerspectiveComponent </text>
</g>
<!-- TablePerspectiveModule&#45;&gt;TablePerspectiveComponent  -->
<g id="edge35" class="edge">
<title>TablePerspectiveModule&#45;&gt;TablePerspectiveComponent </title>
<path fill="none" stroke="#000000" stroke-dasharray="5,2" d="M3340,-187.1061C3340,-187.1061 3340,-205.991 3340,-205.991"/>
<polygon fill="#000000" stroke="#000000" points="3336.5001,-205.9909 3340,-215.991 3343.5001,-205.991 3336.5001,-205.9909"/>
</g>
<!-- PickerModule -->
<g id="node33" class="node">
<title>PickerModule</title>
<polygon fill="#8dd3c7" stroke="#000000" points="455.8133,-122 452.8133,-126 431.8133,-126 428.8133,-122 360.1867,-122 360.1867,-86 455.8133,-86 455.8133,-122"/>
<text text-anchor="middle" x="408" y="-99.8" font-family="Times,serif" font-size="14.00" fill="#000000">PickerModule</text>
</g>
<!-- PickerModule&#45;&gt;TablePerspectiveModule -->
<g id="edge32" class="edge">
<title>PickerModule&#45;&gt;TablePerspectiveModule</title>
<path fill="none" stroke="#000000" d="M408,-122.2479C408,-145.0179 408,-181 408,-181 408,-181 3251.9541,-181 3251.9541,-181"/>
<polygon fill="#000000" stroke="#000000" points="3251.9542,-184.5001 3261.9541,-181 3251.9541,-177.5001 3251.9542,-184.5001"/>
</g>
<!-- SharedModule -->
<g id="node34" class="node">
<title>SharedModule</title>
<polygon fill="#8dd3c7" stroke="#000000" points="342.4231,-122 339.4231,-126 318.4231,-126 315.4231,-122 243.5769,-122 243.5769,-86 342.4231,-86 342.4231,-122"/>
<text text-anchor="middle" x="293" y="-99.8" font-family="Times,serif" font-size="14.00" fill="#000000">SharedModule</text>
</g>
<!-- SharedModule&#45;&gt;TablePerspectiveModule -->
<g id="edge33" class="edge">
<title>SharedModule&#45;&gt;TablePerspectiveModule</title>
<path fill="none" stroke="#000000" d="M293,-122.3228C293,-145.6602 293,-183 293,-183 293,-183 3252.0043,-183 3252.0043,-183"/>
<polygon fill="#000000" stroke="#000000" points="3252.0044,-186.5001 3262.0043,-183 3252.0043,-179.5001 3252.0044,-186.5001"/>
</g>
<!-- TablePerspectiveRoutingModule -->
<g id="node35" class="node">
<title>TablePerspectiveRoutingModule</title>
<polygon fill="#8dd3c7" stroke="#000000" points="225.5674,-122 222.5674,-126 201.5674,-126 198.5674,-122 24.4326,-122 24.4326,-86 225.5674,-86 225.5674,-122"/>
<text text-anchor="middle" x="125" y="-99.8" font-family="Times,serif" font-size="14.00" fill="#000000">TablePerspectiveRoutingModule</text>
</g>
<!-- TablePerspectiveRoutingModule&#45;&gt;TablePerspectiveModule -->
<g id="edge34" class="edge">
<title>TablePerspectiveRoutingModule&#45;&gt;TablePerspectiveModule</title>
<path fill="none" stroke="#000000" d="M125,-122.3802C125,-146.2785 125,-185 125,-185 125,-185 3251.7238,-185 3251.7238,-185"/>
<polygon fill="#000000" stroke="#000000" points="3251.7238,-188.5001 3261.7238,-185 3251.7238,-181.5001 3251.7238,-188.5001"/>
</g>
</g>
</svg>
