<?xml version="1.0" encoding="UTF-8" standalone="no"?>
<!DOCTYPE svg PUBLIC "-//W3C//DTD SVG 1.1//EN"
 "http://www.w3.org/Graphics/SVG/1.1/DTD/svg11.dtd">
<!-- Generated by graphviz version 2.40.1 (20161225.0304)
 -->
<!-- Title: dependencies Pages: 1 -->
<svg width="505pt" height="211pt"
 viewBox="0.00 0.00 505.00 211.00" xmlns="http://www.w3.org/2000/svg" xmlns:xlink="http://www.w3.org/1999/xlink">
<g id="graph0" class="graph" transform="scale(1 1) rotate(0) translate(4 207)">
<title>dependencies</title>
<polygon fill="#ffffff" stroke="transparent" points="-4,4 -4,-207 501,-207 501,4 -4,4"/>
<text text-anchor="start" x="227.5091" y="-42.4" font-family="sans-serif" font-weight="bold" font-size="14.00" fill="#000000">Legend</text>
<polygon fill="#ffffb3" stroke="transparent" points="14.5,-10 14.5,-30 34.5,-30 34.5,-10 14.5,-10"/>
<text text-anchor="start" x="38.129" y="-15.4" font-family="sans-serif" font-size="14.00" fill="#000000"> &#160;Declarations</text>
<polygon fill="#8dd3c7" stroke="transparent" points="127.5,-10 127.5,-30 147.5,-30 147.5,-10 127.5,-10"/>
<text text-anchor="start" x="151.2251" y="-15.4" font-family="sans-serif" font-size="14.00" fill="#000000"> &#160;Module</text>
<polygon fill="#80b1d3" stroke="transparent" points="213.5,-10 213.5,-30 233.5,-30 233.5,-10 213.5,-10"/>
<text text-anchor="start" x="237.2812" y="-15.4" font-family="sans-serif" font-size="14.00" fill="#000000"> &#160;Bootstrap</text>
<polygon fill="#fdb462" stroke="transparent" points="310.5,-10 310.5,-30 330.5,-30 330.5,-10 310.5,-10"/>
<text text-anchor="start" x="334.1732" y="-15.4" font-family="sans-serif" font-size="14.00" fill="#000000"> &#160;Providers</text>
<polygon fill="#fb8072" stroke="transparent" points="406.5,-10 406.5,-30 426.5,-30 426.5,-10 406.5,-10"/>
<text text-anchor="start" x="430.2258" y="-15.4" font-family="sans-serif" font-size="14.00" fill="#000000"> &#160;Exports</text>
<g id="clust1" class="cluster">
<title>cluster_DocumentsModule</title>
<polygon fill="none" stroke="#000000" stroke-dasharray="1,5" points="8,-70 8,-195 489,-195 489,-70 8,-70"/>
</g>
<g id="clust2" class="cluster">
<title>cluster_DocumentsModule_declarations</title>
<polygon fill="none" stroke="#000000" points="319,-78 319,-130 481,-130 481,-78 319,-78"/>
</g>
<g id="clust4" class="cluster">
<title>cluster_DocumentsModule_imports</title>
<polygon fill="none" stroke="#000000" points="16,-78 16,-130 311,-130 311,-78 16,-78"/>
</g>
<!-- DocumentsComponent -->
<g id="node1" class="node">
<title>DocumentsComponent</title>
<polygon fill="#ffffb3" stroke="#000000" points="472.594,-122 327.406,-122 327.406,-86 472.594,-86 472.594,-122"/>
<text text-anchor="middle" x="400" y="-99.8" font-family="Times,serif" font-size="14.00" fill="#000000">DocumentsComponent</text>
</g>
<!-- DocumentsModule -->
<g id="node2" class="node">
<title>DocumentsModule</title>
<polygon fill="#8dd3c7" stroke="#000000" points="283.8118,-187 280.8118,-191 259.8118,-191 256.8118,-187 160.1882,-187 160.1882,-151 283.8118,-151 283.8118,-187"/>
<text text-anchor="middle" x="222" y="-164.8" font-family="Times,serif" font-size="14.00" fill="#000000">DocumentsModule</text>
</g>
<!-- DocumentsComponent&#45;&gt;DocumentsModule -->
<g id="edge1" class="edge">
<title>DocumentsComponent&#45;&gt;DocumentsModule</title>
<path fill="none" stroke="#000000" d="M400,-122.1061C400,-141.3391 400,-169 400,-169 400,-169 293.7562,-169 293.7562,-169"/>
<polygon fill="#000000" stroke="#000000" points="293.7562,-165.5001 283.7562,-169 293.7562,-172.5001 293.7562,-165.5001"/>
</g>
<!-- DocumentRoutingModule -->
<g id="node3" class="node">
<title>DocumentRoutingModule</title>
<polygon fill="#8dd3c7" stroke="#000000" points="303.4846,-122 300.4846,-126 279.4846,-126 276.4846,-122 140.5154,-122 140.5154,-86 303.4846,-86 303.4846,-122"/>
<text text-anchor="middle" x="222" y="-99.8" font-family="Times,serif" font-size="14.00" fill="#000000">DocumentRoutingModule</text>
</g>
<!-- DocumentRoutingModule&#45;&gt;DocumentsModule -->
<g id="edge2" class="edge">
<title>DocumentRoutingModule&#45;&gt;DocumentsModule</title>
<path fill="none" stroke="#000000" d="M222,-122.1061C222,-122.1061 222,-140.991 222,-140.991"/>
<polygon fill="#000000" stroke="#000000" points="218.5001,-140.9909 222,-150.991 225.5001,-140.991 218.5001,-140.9909"/>
</g>
<!-- SharedModule -->
<g id="node4" class="node">
<title>SharedModule</title>
<polygon fill="#8dd3c7" stroke="#000000" points="122.4231,-122 119.4231,-126 98.4231,-126 95.4231,-122 23.5769,-122 23.5769,-86 122.4231,-86 122.4231,-122"/>
<text text-anchor="middle" x="73" y="-99.8" font-family="Times,serif" font-size="14.00" fill="#000000">SharedModule</text>
</g>
<!-- SharedModule&#45;&gt;DocumentsModule -->
<g id="edge3" class="edge">
<title>SharedModule&#45;&gt;DocumentsModule</title>
<path fill="none" stroke="#000000" d="M73,-122.1061C73,-141.3391 73,-169 73,-169 73,-169 150.105,-169 150.105,-169"/>
<polygon fill="#000000" stroke="#000000" points="150.1051,-172.5001 160.105,-169 150.105,-165.5001 150.1051,-172.5001"/>
</g>
</g>
</svg>
