<?xml version="1.0" encoding="UTF-8" standalone="no"?>
<!DOCTYPE svg PUBLIC "-//W3C//DTD SVG 1.1//EN"
 "http://www.w3.org/Graphics/SVG/1.1/DTD/svg11.dtd">
<!-- Generated by graphviz version 2.40.1 (20161225.0304)
 -->
<!-- Title: dependencies Pages: 1 -->
<svg width="2131pt" height="284pt"
 viewBox="0.00 0.00 2131.00 284.00" xmlns="http://www.w3.org/2000/svg" xmlns:xlink="http://www.w3.org/1999/xlink">
<g id="graph0" class="graph" transform="scale(1 1) rotate(0) translate(4 280)">
<title>dependencies</title>
<polygon fill="#ffffff" stroke="transparent" points="-4,4 -4,-280 2127,-280 2127,4 -4,4"/>
<text text-anchor="start" x="1040.5091" y="-42.4" font-family="sans-serif" font-weight="bold" font-size="14.00" fill="#000000">Legend</text>
<polygon fill="#ffffb3" stroke="transparent" points="827.5,-10 827.5,-30 847.5,-30 847.5,-10 827.5,-10"/>
<text text-anchor="start" x="851.129" y="-15.4" font-family="sans-serif" font-size="14.00" fill="#000000"> &#160;Declarations</text>
<polygon fill="#8dd3c7" stroke="transparent" points="940.5,-10 940.5,-30 960.5,-30 960.5,-10 940.5,-10"/>
<text text-anchor="start" x="964.2251" y="-15.4" font-family="sans-serif" font-size="14.00" fill="#000000"> &#160;Module</text>
<polygon fill="#80b1d3" stroke="transparent" points="1026.5,-10 1026.5,-30 1046.5,-30 1046.5,-10 1026.5,-10"/>
<text text-anchor="start" x="1050.2812" y="-15.4" font-family="sans-serif" font-size="14.00" fill="#000000"> &#160;Bootstrap</text>
<polygon fill="#fdb462" stroke="transparent" points="1123.5,-10 1123.5,-30 1143.5,-30 1143.5,-10 1123.5,-10"/>
<text text-anchor="start" x="1147.1732" y="-15.4" font-family="sans-serif" font-size="14.00" fill="#000000"> &#160;Providers</text>
<polygon fill="#fb8072" stroke="transparent" points="1219.5,-10 1219.5,-30 1239.5,-30 1239.5,-10 1219.5,-10"/>
<text text-anchor="start" x="1243.2258" y="-15.4" font-family="sans-serif" font-size="14.00" fill="#000000"> &#160;Exports</text>
<g id="clust1" class="cluster">
<title>cluster_SearchPerspectiveModule</title>
<polygon fill="none" stroke="#000000" stroke-dasharray="1,5" points="8,-70 8,-268 2115,-268 2115,-70 8,-70"/>
</g>
<g id="clust2" class="cluster">
<title>cluster_SearchPerspectiveModule_declarations</title>
<polygon fill="none" stroke="#000000" points="677,-78 677,-130 2107,-130 2107,-78 677,-78"/>
</g>
<g id="clust11" class="cluster">
<title>cluster_SearchPerspectiveModule_imports</title>
<polygon fill="none" stroke="#000000" points="16,-78 16,-130 669,-130 669,-78 16,-78"/>
</g>
<g id="clust12" class="cluster">
<title>cluster_SearchPerspectiveModule_exports</title>
<polygon fill="none" stroke="#000000" points="835,-208 835,-260 1206,-260 1206,-208 835,-208"/>
</g>
<!-- SearchAllComponent -->
<g id="node1" class="node">
<title>SearchAllComponent</title>
<polygon fill="#ffffb3" stroke="#000000" points="2098.8075,-122 1961.1925,-122 1961.1925,-86 2098.8075,-86 2098.8075,-122"/>
<text text-anchor="middle" x="2030" y="-99.8" font-family="Times,serif" font-size="14.00" fill="#000000">SearchAllComponent</text>
</g>
<!-- SearchPerspectiveModule -->
<g id="node9" class="node">
<title>SearchPerspectiveModule</title>
<polygon fill="#8dd3c7" stroke="#000000" points="1092.1643,-187 1089.1643,-191 1068.1643,-191 1065.1643,-187 929.8357,-187 929.8357,-151 1092.1643,-151 1092.1643,-187"/>
<text text-anchor="middle" x="1011" y="-164.8" font-family="Times,serif" font-size="14.00" fill="#000000">SearchPerspectiveModule</text>
</g>
<!-- SearchAllComponent&#45;&gt;SearchPerspectiveModule -->
<g id="edge1" class="edge">
<title>SearchAllComponent&#45;&gt;SearchPerspectiveModule</title>
<path fill="none" stroke="#000000" d="M2030,-122.2479C2030,-145.0179 2030,-181 2030,-181 2030,-181 1102.2383,-181 1102.2383,-181"/>
<polygon fill="#000000" stroke="#000000" points="1102.2383,-177.5001 1092.2383,-181 1102.2382,-184.5001 1102.2383,-177.5001"/>
</g>
<!-- SearchCollectionsComponent -->
<g id="node2" class="node">
<title>SearchCollectionsComponent</title>
<polygon fill="#ffffb3" stroke="#000000" points="1943.6923,-122 1760.3077,-122 1760.3077,-86 1943.6923,-86 1943.6923,-122"/>
<text text-anchor="middle" x="1852" y="-99.8" font-family="Times,serif" font-size="14.00" fill="#000000">SearchCollectionsComponent</text>
</g>
<!-- SearchCollectionsComponent&#45;&gt;SearchPerspectiveModule -->
<g id="edge2" class="edge">
<title>SearchCollectionsComponent&#45;&gt;SearchPerspectiveModule</title>
<path fill="none" stroke="#000000" d="M1852,-122.2843C1852,-143.3211 1852,-175 1852,-175 1852,-175 1102.4028,-175 1102.4028,-175"/>
<polygon fill="#000000" stroke="#000000" points="1102.4028,-171.5001 1092.4028,-175 1102.4027,-178.5001 1102.4028,-171.5001"/>
</g>
<!-- SearchDocumentsComponent -->
<g id="node3" class="node">
<title>SearchDocumentsComponent</title>
<polygon fill="#ffffb3" stroke="#000000" points="1742.6811,-122 1559.3189,-122 1559.3189,-86 1742.6811,-86 1742.6811,-122"/>
<text text-anchor="middle" x="1651" y="-99.8" font-family="Times,serif" font-size="14.00" fill="#000000">SearchDocumentsComponent</text>
</g>
<!-- SearchDocumentsComponent&#45;&gt;SearchPerspectiveModule -->
<g id="edge3" class="edge">
<title>SearchDocumentsComponent&#45;&gt;SearchPerspectiveModule</title>
<path fill="none" stroke="#000000" d="M1651,-122.1061C1651,-141.3391 1651,-169 1651,-169 1651,-169 1102.3812,-169 1102.3812,-169"/>
<polygon fill="#000000" stroke="#000000" points="1102.3813,-165.5001 1092.3812,-169 1102.3812,-172.5001 1102.3813,-165.5001"/>
</g>
<!-- SearchLinksComponent -->
<g id="node4" class="node">
<title>SearchLinksComponent</title>
<polygon fill="#ffffb3" stroke="#000000" points="1541.8075,-122 1390.1925,-122 1390.1925,-86 1541.8075,-86 1541.8075,-122"/>
<text text-anchor="middle" x="1466" y="-99.8" font-family="Times,serif" font-size="14.00" fill="#000000">SearchLinksComponent</text>
</g>
<!-- SearchLinksComponent&#45;&gt;SearchPerspectiveModule -->
<g id="edge4" class="edge">
<title>SearchLinksComponent&#45;&gt;SearchPerspectiveModule</title>
<path fill="none" stroke="#000000" d="M1466,-122.0225C1466,-139.3734 1466,-163 1466,-163 1466,-163 1102.0826,-163 1102.0826,-163"/>
<polygon fill="#000000" stroke="#000000" points="1102.0826,-159.5001 1092.0826,-163 1102.0825,-166.5001 1102.0826,-159.5001"/>
</g>
<!-- SearchPerspectiveComponent -->
<g id="node5" class="node">
<title>SearchPerspectiveComponent</title>
<polygon fill="#ffffb3" stroke="#000000" points="1371.9468,-122 1188.0532,-122 1188.0532,-86 1371.9468,-86 1371.9468,-122"/>
<text text-anchor="middle" x="1280" y="-99.8" font-family="Times,serif" font-size="14.00" fill="#000000">SearchPerspectiveComponent</text>
</g>
<!-- SearchPerspectiveComponent&#45;&gt;SearchPerspectiveModule -->
<g id="edge5" class="edge">
<title>SearchPerspectiveComponent&#45;&gt;SearchPerspectiveModule</title>
<path fill="none" stroke="#000000" d="M1192.875,-122.2396C1192.875,-137.5706 1192.875,-157 1192.875,-157 1192.875,-157 1102.0972,-157 1102.0972,-157"/>
<polygon fill="#000000" stroke="#000000" points="1102.0972,-153.5001 1092.0972,-157 1102.0971,-160.5001 1102.0972,-153.5001"/>
</g>
<!-- SearchResultsDirective -->
<g id="node6" class="node">
<title>SearchResultsDirective</title>
<polygon fill="#ffffb3" stroke="#000000" points="1169.8919,-122 1022.1081,-122 1022.1081,-86 1169.8919,-86 1169.8919,-122"/>
<text text-anchor="middle" x="1096" y="-99.8" font-family="Times,serif" font-size="14.00" fill="#000000">SearchResultsDirective</text>
</g>
<!-- SearchResultsDirective&#45;&gt;SearchPerspectiveModule -->
<g id="edge6" class="edge">
<title>SearchResultsDirective&#45;&gt;SearchPerspectiveModule</title>
<path fill="none" stroke="#000000" d="M1057.1932,-122.1061C1057.1932,-122.1061 1057.1932,-140.991 1057.1932,-140.991"/>
<polygon fill="#000000" stroke="#000000" points="1053.6933,-140.9909 1057.1932,-150.991 1060.6933,-140.991 1053.6933,-140.9909"/>
</g>
<!-- SearchViewsComponent -->
<g id="node7" class="node">
<title>SearchViewsComponent</title>
<polygon fill="#ffffb3" stroke="#000000" points="1004.6825,-122 849.3175,-122 849.3175,-86 1004.6825,-86 1004.6825,-122"/>
<text text-anchor="middle" x="927" y="-99.8" font-family="Times,serif" font-size="14.00" fill="#000000">SearchViewsComponent</text>
</g>
<!-- SearchViewsComponent&#45;&gt;SearchPerspectiveModule -->
<g id="edge7" class="edge">
<title>SearchViewsComponent&#45;&gt;SearchPerspectiveModule</title>
<path fill="none" stroke="#000000" d="M967.2546,-122.1061C967.2546,-122.1061 967.2546,-140.991 967.2546,-140.991"/>
<polygon fill="#000000" stroke="#000000" points="963.7546,-140.9909 967.2546,-150.991 970.7546,-140.991 963.7546,-140.9909"/>
</g>
<!-- ViewDetailComponent -->
<g id="node8" class="node">
<title>ViewDetailComponent</title>
<polygon fill="#ffffb3" stroke="#000000" points="830.8585,-122 685.1415,-122 685.1415,-86 830.8585,-86 830.8585,-122"/>
<text text-anchor="middle" x="758" y="-99.8" font-family="Times,serif" font-size="14.00" fill="#000000">ViewDetailComponent</text>
</g>
<!-- ViewDetailComponent&#45;&gt;SearchPerspectiveModule -->
<g id="edge8" class="edge">
<title>ViewDetailComponent&#45;&gt;SearchPerspectiveModule</title>
<path fill="none" stroke="#000000" d="M758,-122.2396C758,-137.5706 758,-157 758,-157 758,-157 919.9053,-157 919.9053,-157"/>
<polygon fill="#000000" stroke="#000000" points="919.9053,-160.5001 929.9053,-157 919.9052,-153.5001 919.9053,-160.5001"/>
</g>
<!-- SearchPerspectiveComponent  -->
<g id="node14" class="node">
<title>SearchPerspectiveComponent </title>
<polygon fill="#fb8072" stroke="#000000" points="1197.9473,-252 1010.0527,-252 1010.0527,-216 1197.9473,-216 1197.9473,-252"/>
<text text-anchor="middle" x="1104" y="-229.8" font-family="Times,serif" font-size="14.00" fill="#000000">SearchPerspectiveComponent </text>
</g>
<!-- SearchPerspectiveModule&#45;&gt;SearchPerspectiveComponent  -->
<g id="edge13" class="edge">
<title>SearchPerspectiveModule&#45;&gt;SearchPerspectiveComponent </title>
<path fill="none" stroke="#000000" stroke-dasharray="5,2" d="M1051.1793,-187.1061C1051.1793,-187.1061 1051.1793,-205.991 1051.1793,-205.991"/>
<polygon fill="#000000" stroke="#000000" points="1047.6794,-205.9909 1051.1793,-215.991 1054.6794,-205.991 1047.6794,-205.9909"/>
</g>
<!-- ViewDetailComponent  -->
<g id="node15" class="node">
<title>ViewDetailComponent </title>
<polygon fill="#fb8072" stroke="#000000" points="992.8588,-252 843.1412,-252 843.1412,-216 992.8588,-216 992.8588,-252"/>
<text text-anchor="middle" x="918" y="-229.8" font-family="Times,serif" font-size="14.00" fill="#000000">ViewDetailComponent </text>
</g>
<!-- SearchPerspectiveModule&#45;&gt;ViewDetailComponent  -->
<g id="edge14" class="edge">
<title>SearchPerspectiveModule&#45;&gt;ViewDetailComponent </title>
<path fill="none" stroke="#000000" stroke-dasharray="5,2" d="M961.2986,-187.1061C961.2986,-187.1061 961.2986,-205.991 961.2986,-205.991"/>
<polygon fill="#000000" stroke="#000000" points="957.7986,-205.9909 961.2986,-215.991 964.7986,-205.991 957.7986,-205.9909"/>
</g>
<!-- PostItPerspectiveModule -->
<g id="node10" class="node">
<title>PostItPerspectiveModule</title>
<polygon fill="#8dd3c7" stroke="#000000" points="661.2464,-122 658.2464,-126 637.2464,-126 634.2464,-122 504.7536,-122 504.7536,-86 661.2464,-86 661.2464,-122"/>
<text text-anchor="middle" x="583" y="-99.8" font-family="Times,serif" font-size="14.00" fill="#000000">PostItPerspectiveModule</text>
</g>
<!-- PostItPerspectiveModule&#45;&gt;SearchPerspectiveModule -->
<g id="edge9" class="edge">
<title>PostItPerspectiveModule&#45;&gt;SearchPerspectiveModule</title>
<path fill="none" stroke="#000000" d="M583,-122.0225C583,-139.3734 583,-163 583,-163 583,-163 919.7413,-163 919.7413,-163"/>
<polygon fill="#000000" stroke="#000000" points="919.7413,-166.5001 929.7413,-163 919.7413,-159.5001 919.7413,-166.5001"/>
</g>
<!-- SearchBoxModule -->
<g id="node11" class="node">
<title>SearchBoxModule</title>
<polygon fill="#8dd3c7" stroke="#000000" points="486.4734,-122 483.4734,-126 462.4734,-126 459.4734,-122 365.5266,-122 365.5266,-86 486.4734,-86 486.4734,-122"/>
<text text-anchor="middle" x="426" y="-99.8" font-family="Times,serif" font-size="14.00" fill="#000000">SearchBoxModule</text>
</g>
<!-- SearchBoxModule&#45;&gt;SearchPerspectiveModule -->
<g id="edge10" class="edge">
<title>SearchBoxModule&#45;&gt;SearchPerspectiveModule</title>
<path fill="none" stroke="#000000" d="M426,-122.1061C426,-141.3391 426,-169 426,-169 426,-169 919.6583,-169 919.6583,-169"/>
<polygon fill="#000000" stroke="#000000" points="919.6583,-172.5001 929.6583,-169 919.6582,-165.5001 919.6583,-172.5001"/>
</g>
<!-- SearchPerspectiveRoutingModule -->
<g id="node12" class="node">
<title>SearchPerspectiveRoutingModule</title>
<polygon fill="#8dd3c7" stroke="#000000" points="347.7822,-122 344.7822,-126 323.7822,-126 320.7822,-122 140.2178,-122 140.2178,-86 347.7822,-86 347.7822,-122"/>
<text text-anchor="middle" x="244" y="-99.8" font-family="Times,serif" font-size="14.00" fill="#000000">SearchPerspectiveRoutingModule</text>
</g>
<!-- SearchPerspectiveRoutingModule&#45;&gt;SearchPerspectiveModule -->
<g id="edge11" class="edge">
<title>SearchPerspectiveRoutingModule&#45;&gt;SearchPerspectiveModule</title>
<path fill="none" stroke="#000000" d="M244,-122.2843C244,-143.3211 244,-175 244,-175 244,-175 919.6437,-175 919.6437,-175"/>
<polygon fill="#000000" stroke="#000000" points="919.6437,-178.5001 929.6437,-175 919.6437,-171.5001 919.6437,-178.5001"/>
</g>
<!-- SharedModule -->
<g id="node13" class="node">
<title>SharedModule</title>
<polygon fill="#8dd3c7" stroke="#000000" points="122.4231,-122 119.4231,-126 98.4231,-126 95.4231,-122 23.5769,-122 23.5769,-86 122.4231,-86 122.4231,-122"/>
<text text-anchor="middle" x="73" y="-99.8" font-family="Times,serif" font-size="14.00" fill="#000000">SharedModule</text>
</g>
<!-- SharedModule&#45;&gt;SearchPerspectiveModule -->
<g id="edge12" class="edge">
<title>SharedModule&#45;&gt;SearchPerspectiveModule</title>
<path fill="none" stroke="#000000" d="M73,-122.2479C73,-145.0179 73,-181 73,-181 73,-181 919.8076,-181 919.8076,-181"/>
<polygon fill="#000000" stroke="#000000" points="919.8076,-184.5001 929.8076,-181 919.8076,-177.5001 919.8076,-184.5001"/>
</g>
</g>
</svg>
