<?xml version="1.0" encoding="UTF-8" standalone="no"?>
<!DOCTYPE svg PUBLIC "-//W3C//DTD SVG 1.1//EN"
 "http://www.w3.org/Graphics/SVG/1.1/DTD/svg11.dtd">
<!-- Generated by graphviz version 2.40.1 (20161225.0304)
 -->
<!-- Title: dependencies Pages: 1 -->
<svg width="2621pt" height="284pt"
 viewBox="0.00 0.00 2621.00 284.00" xmlns="http://www.w3.org/2000/svg" xmlns:xlink="http://www.w3.org/1999/xlink">
<g id="graph0" class="graph" transform="scale(1 1) rotate(0) translate(4 280)">
<title>dependencies</title>
<polygon fill="#ffffff" stroke="transparent" points="-4,4 -4,-280 2617,-280 2617,4 -4,4"/>
<text text-anchor="start" x="1285.5091" y="-42.4" font-family="sans-serif" font-weight="bold" font-size="14.00" fill="#000000">Legend</text>
<polygon fill="#ffffb3" stroke="transparent" points="1072.5,-10 1072.5,-30 1092.5,-30 1092.5,-10 1072.5,-10"/>
<text text-anchor="start" x="1096.129" y="-15.4" font-family="sans-serif" font-size="14.00" fill="#000000"> &#160;Declarations</text>
<polygon fill="#8dd3c7" stroke="transparent" points="1185.5,-10 1185.5,-30 1205.5,-30 1205.5,-10 1185.5,-10"/>
<text text-anchor="start" x="1209.2251" y="-15.4" font-family="sans-serif" font-size="14.00" fill="#000000"> &#160;Module</text>
<polygon fill="#80b1d3" stroke="transparent" points="1271.5,-10 1271.5,-30 1291.5,-30 1291.5,-10 1271.5,-10"/>
<text text-anchor="start" x="1295.2812" y="-15.4" font-family="sans-serif" font-size="14.00" fill="#000000"> &#160;Bootstrap</text>
<polygon fill="#fdb462" stroke="transparent" points="1368.5,-10 1368.5,-30 1388.5,-30 1388.5,-10 1368.5,-10"/>
<text text-anchor="start" x="1392.1732" y="-15.4" font-family="sans-serif" font-size="14.00" fill="#000000"> &#160;Providers</text>
<polygon fill="#fb8072" stroke="transparent" points="1464.5,-10 1464.5,-30 1484.5,-30 1484.5,-10 1464.5,-10"/>
<text text-anchor="start" x="1488.2258" y="-15.4" font-family="sans-serif" font-size="14.00" fill="#000000"> &#160;Exports</text>
<g id="clust1" class="cluster">
<title>cluster_SearchPerspectiveModule</title>
<polygon fill="none" stroke="#000000" stroke-dasharray="1,5" points="8,-70 8,-268 2605,-268 2605,-70 8,-70"/>
</g>
<g id="clust2" class="cluster">
<title>cluster_SearchPerspectiveModule_declarations</title>
<polygon fill="none" stroke="#000000" points="1032,-78 1032,-130 2597,-130 2597,-78 1032,-78"/>
</g>
<g id="clust12" class="cluster">
<title>cluster_SearchPerspectiveModule_imports</title>
<polygon fill="none" stroke="#000000" points="16,-78 16,-130 1024,-130 1024,-78 16,-78"/>
</g>
<g id="clust13" class="cluster">
<title>cluster_SearchPerspectiveModule_exports</title>
<polygon fill="none" stroke="#000000" points="1106,-208 1106,-260 1477,-260 1477,-208 1106,-208"/>
</g>
<!-- EmptyDataComponent -->
<g id="node1" class="node">
<title>EmptyDataComponent</title>
<polygon fill="#ffffb3" stroke="#000000" points="2588.5926,-122 2443.4074,-122 2443.4074,-86 2588.5926,-86 2588.5926,-122"/>
<text text-anchor="middle" x="2516" y="-99.8" font-family="Times,serif" font-size="14.00" fill="#000000">EmptyDataComponent</text>
</g>
<!-- SearchPerspectiveModule -->
<g id="node10" class="node">
<title>SearchPerspectiveModule</title>
<polygon fill="#8dd3c7" stroke="#000000" points="1363.1643,-187 1360.1643,-191 1339.1643,-191 1336.1643,-187 1200.8357,-187 1200.8357,-151 1363.1643,-151 1363.1643,-187"/>
<text text-anchor="middle" x="1282" y="-164.8" font-family="Times,serif" font-size="14.00" fill="#000000">SearchPerspectiveModule</text>
</g>
<!-- EmptyDataComponent&#45;&gt;SearchPerspectiveModule -->
<g id="edge1" class="edge">
<title>EmptyDataComponent&#45;&gt;SearchPerspectiveModule</title>
<path fill="none" stroke="#000000" d="M2516,-122.3228C2516,-145.6602 2516,-183 2516,-183 2516,-183 1373.4434,-183 1373.4434,-183"/>
<polygon fill="#000000" stroke="#000000" points="1373.4434,-179.5001 1363.4434,-183 1373.4434,-186.5001 1373.4434,-179.5001"/>
</g>
<!-- EmptyViewsComponent -->
<g id="node2" class="node">
<title>EmptyViewsComponent</title>
<polygon fill="#ffffb3" stroke="#000000" points="2425.4298,-122 2270.5702,-122 2270.5702,-86 2425.4298,-86 2425.4298,-122"/>
<text text-anchor="middle" x="2348" y="-99.8" font-family="Times,serif" font-size="14.00" fill="#000000">EmptyViewsComponent</text>
</g>
<!-- EmptyViewsComponent&#45;&gt;SearchPerspectiveModule -->
<g id="edge2" class="edge">
<title>EmptyViewsComponent&#45;&gt;SearchPerspectiveModule</title>
<path fill="none" stroke="#000000" d="M2348,-122.2921C2348,-144.2057 2348,-178 2348,-178 2348,-178 1373.4372,-178 1373.4372,-178"/>
<polygon fill="#000000" stroke="#000000" points="1373.4372,-174.5001 1363.4372,-178 1373.4372,-181.5001 1373.4372,-174.5001"/>
</g>
<!-- SearchAllComponent -->
<g id="node3" class="node">
<title>SearchAllComponent</title>
<polygon fill="#ffffb3" stroke="#000000" points="2252.8075,-122 2115.1925,-122 2115.1925,-86 2252.8075,-86 2252.8075,-122"/>
<text text-anchor="middle" x="2184" y="-99.8" font-family="Times,serif" font-size="14.00" fill="#000000">SearchAllComponent</text>
</g>
<!-- SearchAllComponent&#45;&gt;SearchPerspectiveModule -->
<g id="edge3" class="edge">
<title>SearchAllComponent&#45;&gt;SearchPerspectiveModule</title>
<path fill="none" stroke="#000000" d="M2184,-122.0267C2184,-142.7672 2184,-174 2184,-174 2184,-174 1373.2384,-174 1373.2384,-174"/>
<polygon fill="#000000" stroke="#000000" points="1373.2385,-170.5001 1363.2384,-174 1373.2384,-177.5001 1373.2385,-170.5001"/>
</g>
<!-- SearchCollectionsComponent -->
<g id="node4" class="node">
<title>SearchCollectionsComponent</title>
<polygon fill="#ffffb3" stroke="#000000" points="2097.6923,-122 1914.3077,-122 1914.3077,-86 2097.6923,-86 2097.6923,-122"/>
<text text-anchor="middle" x="2006" y="-99.8" font-family="Times,serif" font-size="14.00" fill="#000000">SearchCollectionsComponent</text>
</g>
<!-- SearchCollectionsComponent&#45;&gt;SearchPerspectiveModule -->
<g id="edge4" class="edge">
<title>SearchCollectionsComponent&#45;&gt;SearchPerspectiveModule</title>
<path fill="none" stroke="#000000" d="M2006,-122.1061C2006,-141.3391 2006,-169 2006,-169 2006,-169 1373.2943,-169 1373.2943,-169"/>
<polygon fill="#000000" stroke="#000000" points="1373.2943,-165.5001 1363.2943,-169 1373.2943,-172.5001 1373.2943,-165.5001"/>
</g>
<!-- SearchLinksComponent -->
<g id="node5" class="node">
<title>SearchLinksComponent</title>
<polygon fill="#ffffb3" stroke="#000000" points="1896.8075,-122 1745.1925,-122 1745.1925,-86 1896.8075,-86 1896.8075,-122"/>
<text text-anchor="middle" x="1821" y="-99.8" font-family="Times,serif" font-size="14.00" fill="#000000">SearchLinksComponent</text>
</g>
<!-- SearchLinksComponent&#45;&gt;SearchPerspectiveModule -->
<g id="edge5" class="edge">
<title>SearchLinksComponent&#45;&gt;SearchPerspectiveModule</title>
<path fill="none" stroke="#000000" d="M1821,-122.302C1821,-140.2699 1821,-165 1821,-165 1821,-165 1373.2773,-165 1373.2773,-165"/>
<polygon fill="#000000" stroke="#000000" points="1373.2774,-161.5001 1363.2773,-165 1373.2773,-168.5001 1373.2774,-161.5001"/>
</g>
<!-- SearchPerspectiveComponent -->
<g id="node6" class="node">
<title>SearchPerspectiveComponent</title>
<polygon fill="#ffffb3" stroke="#000000" points="1726.9468,-122 1543.0532,-122 1543.0532,-86 1726.9468,-86 1726.9468,-122"/>
<text text-anchor="middle" x="1635" y="-99.8" font-family="Times,serif" font-size="14.00" fill="#000000">SearchPerspectiveComponent</text>
</g>
<!-- SearchPerspectiveComponent&#45;&gt;SearchPerspectiveModule -->
<g id="edge6" class="edge">
<title>SearchPerspectiveComponent&#45;&gt;SearchPerspectiveModule</title>
<path fill="none" stroke="#000000" d="M1635,-122.027C1635,-138.3976 1635,-160 1635,-160 1635,-160 1373.4286,-160 1373.4286,-160"/>
<polygon fill="#000000" stroke="#000000" points="1373.4286,-156.5001 1363.4286,-160 1373.4285,-163.5001 1373.4286,-156.5001"/>
</g>
<!-- SearchResultsDirective -->
<g id="node7" class="node">
<title>SearchResultsDirective</title>
<polygon fill="#ffffb3" stroke="#000000" points="1524.8919,-122 1377.1081,-122 1377.1081,-86 1524.8919,-86 1524.8919,-122"/>
<text text-anchor="middle" x="1451" y="-99.8" font-family="Times,serif" font-size="14.00" fill="#000000">SearchResultsDirective</text>
</g>
<!-- SearchResultsDirective&#45;&gt;SearchPerspectiveModule -->
<g id="edge7" class="edge">
<title>SearchResultsDirective&#45;&gt;SearchPerspectiveModule</title>
<path fill="none" stroke="#000000" d="M1423.0139,-122.1871C1423.0139,-137.1824 1423.0139,-156 1423.0139,-156 1423.0139,-156 1373.2113,-156 1373.2113,-156"/>
<polygon fill="#000000" stroke="#000000" points="1373.2113,-152.5001 1363.2113,-156 1373.2112,-159.5001 1373.2113,-152.5001"/>
</g>
<!-- SearchViewsComponent -->
<g id="node8" class="node">
<title>SearchViewsComponent</title>
<polygon fill="#ffffb3" stroke="#000000" points="1359.6825,-122 1204.3175,-122 1204.3175,-86 1359.6825,-86 1359.6825,-122"/>
<text text-anchor="middle" x="1282" y="-99.8" font-family="Times,serif" font-size="14.00" fill="#000000">SearchViewsComponent</text>
</g>
<!-- SearchViewsComponent&#45;&gt;SearchPerspectiveModule -->
<g id="edge8" class="edge">
<title>SearchViewsComponent&#45;&gt;SearchPerspectiveModule</title>
<path fill="none" stroke="#000000" d="M1282,-122.1061C1282,-122.1061 1282,-140.991 1282,-140.991"/>
<polygon fill="#000000" stroke="#000000" points="1278.5001,-140.9909 1282,-150.991 1285.5001,-140.991 1278.5001,-140.9909"/>
</g>
<!-- ViewDetailComponent -->
<g id="node9" class="node">
<title>ViewDetailComponent</title>
<polygon fill="#ffffb3" stroke="#000000" points="1185.8585,-122 1040.1415,-122 1040.1415,-86 1185.8585,-86 1185.8585,-122"/>
<text text-anchor="middle" x="1113" y="-99.8" font-family="Times,serif" font-size="14.00" fill="#000000">ViewDetailComponent</text>
</g>
<!-- ViewDetailComponent&#45;&gt;SearchPerspectiveModule -->
<g id="edge9" class="edge">
<title>ViewDetailComponent&#45;&gt;SearchPerspectiveModule</title>
<path fill="none" stroke="#000000" d="M1150.125,-122.1871C1150.125,-137.1824 1150.125,-156 1150.125,-156 1150.125,-156 1190.7342,-156 1190.7342,-156"/>
<polygon fill="#000000" stroke="#000000" points="1190.7342,-159.5001 1200.7342,-156 1190.7341,-152.5001 1190.7342,-159.5001"/>
</g>
<!-- SearchPerspectiveComponent  -->
<g id="node17" class="node">
<title>SearchPerspectiveComponent </title>
<polygon fill="#fb8072" stroke="#000000" points="1468.9473,-252 1281.0527,-252 1281.0527,-216 1468.9473,-216 1468.9473,-252"/>
<text text-anchor="middle" x="1375" y="-229.8" font-family="Times,serif" font-size="14.00" fill="#000000">SearchPerspectiveComponent </text>
</g>
<!-- SearchPerspectiveModule&#45;&gt;SearchPerspectiveComponent  -->
<g id="edge16" class="edge">
<title>SearchPerspectiveModule&#45;&gt;SearchPerspectiveComponent </title>
<path fill="none" stroke="#000000" stroke-dasharray="5,2" d="M1322.1793,-187.1061C1322.1793,-187.1061 1322.1793,-205.991 1322.1793,-205.991"/>
<polygon fill="#000000" stroke="#000000" points="1318.6794,-205.9909 1322.1793,-215.991 1325.6794,-205.991 1318.6794,-205.9909"/>
</g>
<!-- ViewDetailComponent  -->
<g id="node18" class="node">
<title>ViewDetailComponent </title>
<polygon fill="#fb8072" stroke="#000000" points="1263.8588,-252 1114.1412,-252 1114.1412,-216 1263.8588,-216 1263.8588,-252"/>
<text text-anchor="middle" x="1189" y="-229.8" font-family="Times,serif" font-size="14.00" fill="#000000">ViewDetailComponent </text>
</g>
<!-- SearchPerspectiveModule&#45;&gt;ViewDetailComponent  -->
<g id="edge17" class="edge">
<title>SearchPerspectiveModule&#45;&gt;ViewDetailComponent </title>
<path fill="none" stroke="#000000" stroke-dasharray="5,2" d="M1232.2986,-187.1061C1232.2986,-187.1061 1232.2986,-205.991 1232.2986,-205.991"/>
<polygon fill="#000000" stroke="#000000" points="1228.7986,-205.9909 1232.2986,-215.991 1235.7986,-205.991 1228.7986,-205.9909"/>
</g>
<!-- PostItPerspectiveModule -->
<g id="node11" class="node">
<title>PostItPerspectiveModule</title>
<polygon fill="#8dd3c7" stroke="#000000" points="1016.2464,-122 1013.2464,-126 992.2464,-126 989.2464,-122 859.7536,-122 859.7536,-86 1016.2464,-86 1016.2464,-122"/>
<text text-anchor="middle" x="938" y="-99.8" font-family="Times,serif" font-size="14.00" fill="#000000">PostItPerspectiveModule</text>
</g>
<!-- PostItPerspectiveModule&#45;&gt;SearchPerspectiveModule -->
<g id="edge10" class="edge">
<title>PostItPerspectiveModule&#45;&gt;SearchPerspectiveModule</title>
<path fill="none" stroke="#000000" d="M938,-122.027C938,-138.3976 938,-160 938,-160 938,-160 1190.9124,-160 1190.9124,-160"/>
<polygon fill="#000000" stroke="#000000" points="1190.9124,-163.5001 1200.9124,-160 1190.9124,-156.5001 1190.9124,-163.5001"/>
</g>
<!-- SearchBoxModule -->
<g id="node12" class="node">
<title>SearchBoxModule</title>
<polygon fill="#8dd3c7" stroke="#000000" points="841.4734,-122 838.4734,-126 817.4734,-126 814.4734,-122 720.5266,-122 720.5266,-86 841.4734,-86 841.4734,-122"/>
<text text-anchor="middle" x="781" y="-99.8" font-family="Times,serif" font-size="14.00" fill="#000000">SearchBoxModule</text>
</g>
<!-- SearchBoxModule&#45;&gt;SearchPerspectiveModule -->
<g id="edge11" class="edge">
<title>SearchBoxModule&#45;&gt;SearchPerspectiveModule</title>
<path fill="none" stroke="#000000" d="M781,-122.302C781,-140.2699 781,-165 781,-165 781,-165 1190.6699,-165 1190.6699,-165"/>
<polygon fill="#000000" stroke="#000000" points="1190.67,-168.5001 1200.6699,-165 1190.6699,-161.5001 1190.67,-168.5001"/>
</g>
<!-- SearchDocumentsModule -->
<g id="node13" class="node">
<title>SearchDocumentsModule</title>
<polygon fill="#8dd3c7" stroke="#000000" points="702.8989,-122 699.8989,-126 678.8989,-126 675.8989,-122 541.1011,-122 541.1011,-86 702.8989,-86 702.8989,-122"/>
<text text-anchor="middle" x="622" y="-99.8" font-family="Times,serif" font-size="14.00" fill="#000000">SearchDocumentsModule</text>
</g>
<!-- SearchDocumentsModule&#45;&gt;SearchPerspectiveModule -->
<g id="edge12" class="edge">
<title>SearchDocumentsModule&#45;&gt;SearchPerspectiveModule</title>
<path fill="none" stroke="#000000" d="M622,-122.1061C622,-141.3391 622,-169 622,-169 622,-169 1190.7403,-169 1190.7403,-169"/>
<polygon fill="#000000" stroke="#000000" points="1190.7404,-172.5001 1200.7403,-169 1190.7403,-165.5001 1190.7404,-172.5001"/>
</g>
<!-- SearchPerspectiveRoutingModule -->
<g id="node14" class="node">
<title>SearchPerspectiveRoutingModule</title>
<polygon fill="#8dd3c7" stroke="#000000" points="523.7822,-122 520.7822,-126 499.7822,-126 496.7822,-122 316.2178,-122 316.2178,-86 523.7822,-86 523.7822,-122"/>
<text text-anchor="middle" x="420" y="-99.8" font-family="Times,serif" font-size="14.00" fill="#000000">SearchPerspectiveRoutingModule</text>
</g>
<!-- SearchPerspectiveRoutingModule&#45;&gt;SearchPerspectiveModule -->
<g id="edge13" class="edge">
<title>SearchPerspectiveRoutingModule&#45;&gt;SearchPerspectiveModule</title>
<path fill="none" stroke="#000000" d="M420,-122.0267C420,-142.7672 420,-174 420,-174 420,-174 1190.9051,-174 1190.9051,-174"/>
<polygon fill="#000000" stroke="#000000" points="1190.9052,-177.5001 1200.9051,-174 1190.9051,-170.5001 1190.9052,-177.5001"/>
</g>
<!-- SharedModule -->
<g id="node15" class="node">
<title>SharedModule</title>
<polygon fill="#8dd3c7" stroke="#000000" points="298.4231,-122 295.4231,-126 274.4231,-126 271.4231,-122 199.5769,-122 199.5769,-86 298.4231,-86 298.4231,-122"/>
<text text-anchor="middle" x="249" y="-99.8" font-family="Times,serif" font-size="14.00" fill="#000000">SharedModule</text>
</g>
<!-- SharedModule&#45;&gt;SearchPerspectiveModule -->
<g id="edge14" class="edge">
<title>SharedModule&#45;&gt;SearchPerspectiveModule</title>
<path fill="none" stroke="#000000" d="M249,-122.2921C249,-144.2057 249,-178 249,-178 249,-178 1190.511,-178 1190.511,-178"/>
<polygon fill="#000000" stroke="#000000" points="1190.511,-181.5001 1200.511,-178 1190.5109,-174.5001 1190.511,-181.5001"/>
</g>
<!-- WarningMessageModule -->
<g id="node16" class="node">
<title>WarningMessageModule</title>
<polygon fill="#8dd3c7" stroke="#000000" points="181.5086,-122 178.5086,-126 157.5086,-126 154.5086,-122 24.4914,-122 24.4914,-86 181.5086,-86 181.5086,-122"/>
<text text-anchor="middle" x="103" y="-99.8" font-family="Times,serif" font-size="14.00" fill="#000000">WarningMessageModule</text>
</g>
<!-- WarningMessageModule&#45;&gt;SearchPerspectiveModule -->
<g id="edge15" class="edge">
<title>WarningMessageModule&#45;&gt;SearchPerspectiveModule</title>
<path fill="none" stroke="#000000" d="M103,-122.3228C103,-145.6602 103,-183 103,-183 103,-183 1190.4974,-183 1190.4974,-183"/>
<polygon fill="#000000" stroke="#000000" points="1190.4974,-186.5001 1200.4974,-183 1190.4973,-179.5001 1190.4974,-186.5001"/>
</g>
</g>
</svg>
