<?xml version="1.0" encoding="UTF-8" standalone="no"?>
<!DOCTYPE svg PUBLIC "-//W3C//DTD SVG 1.1//EN"
 "http://www.w3.org/Graphics/SVG/1.1/DTD/svg11.dtd">
<!-- Generated by graphviz version 2.40.1 (20161225.0304)
 -->
<!-- Title: dependencies Pages: 1 -->
<svg width="1825pt" height="284pt"
 viewBox="0.00 0.00 1825.00 284.00" xmlns="http://www.w3.org/2000/svg" xmlns:xlink="http://www.w3.org/1999/xlink">
<g id="graph0" class="graph" transform="scale(1 1) rotate(0) translate(4 280)">
<title>dependencies</title>
<polygon fill="#ffffff" stroke="transparent" points="-4,4 -4,-280 1821,-280 1821,4 -4,4"/>
<text text-anchor="start" x="887.5091" y="-42.4" font-family="sans-serif" font-weight="bold" font-size="14.00" fill="#000000">Legend</text>
<polygon fill="#ffffb3" stroke="transparent" points="674.5,-10 674.5,-30 694.5,-30 694.5,-10 674.5,-10"/>
<text text-anchor="start" x="698.129" y="-15.4" font-family="sans-serif" font-size="14.00" fill="#000000"> &#160;Declarations</text>
<polygon fill="#8dd3c7" stroke="transparent" points="787.5,-10 787.5,-30 807.5,-30 807.5,-10 787.5,-10"/>
<text text-anchor="start" x="811.2251" y="-15.4" font-family="sans-serif" font-size="14.00" fill="#000000"> &#160;Module</text>
<polygon fill="#80b1d3" stroke="transparent" points="873.5,-10 873.5,-30 893.5,-30 893.5,-10 873.5,-10"/>
<text text-anchor="start" x="897.2812" y="-15.4" font-family="sans-serif" font-size="14.00" fill="#000000"> &#160;Bootstrap</text>
<polygon fill="#fdb462" stroke="transparent" points="970.5,-10 970.5,-30 990.5,-30 990.5,-10 970.5,-10"/>
<text text-anchor="start" x="994.1732" y="-15.4" font-family="sans-serif" font-size="14.00" fill="#000000"> &#160;Providers</text>
<polygon fill="#fb8072" stroke="transparent" points="1066.5,-10 1066.5,-30 1086.5,-30 1086.5,-10 1066.5,-10"/>
<text text-anchor="start" x="1090.2258" y="-15.4" font-family="sans-serif" font-size="14.00" fill="#000000"> &#160;Exports</text>
<g id="clust1" class="cluster">
<title>cluster_SearchBoxModule</title>
<polygon fill="none" stroke="#000000" stroke-dasharray="1,5" points="8,-70 8,-268 1809,-268 1809,-70 8,-70"/>
</g>
<g id="clust2" class="cluster">
<title>cluster_SearchBoxModule_declarations</title>
<polygon fill="none" stroke="#000000" points="136,-78 136,-130 1801,-130 1801,-78 136,-78"/>
</g>
<g id="clust12" class="cluster">
<title>cluster_SearchBoxModule_imports</title>
<polygon fill="none" stroke="#000000" points="16,-78 16,-130 128,-130 128,-78 16,-78"/>
</g>
<g id="clust13" class="cluster">
<title>cluster_SearchBoxModule_exports</title>
<polygon fill="none" stroke="#000000" points="703,-208 703,-260 1029,-260 1029,-208 703,-208"/>
</g>
<!-- AttributeConditionComponent -->
<g id="node1" class="node">
<title>AttributeConditionComponent</title>
<polygon fill="#ffffb3" stroke="#000000" points="1792.885,-122 1605.115,-122 1605.115,-86 1792.885,-86 1792.885,-122"/>
<text text-anchor="middle" x="1699" y="-99.8" font-family="Times,serif" font-size="14.00" fill="#000000">AttributeConditionComponent</text>
</g>
<!-- SearchBoxModule -->
<g id="node10" class="node">
<title>SearchBoxModule</title>
<polygon fill="#8dd3c7" stroke="#000000" points="926.4734,-187 923.4734,-191 902.4734,-191 899.4734,-187 805.5266,-187 805.5266,-151 926.4734,-151 926.4734,-187"/>
<text text-anchor="middle" x="866" y="-164.8" font-family="Times,serif" font-size="14.00" fill="#000000">SearchBoxModule</text>
</g>
<!-- AttributeConditionComponent&#45;&gt;SearchBoxModule -->
<g id="edge1" class="edge">
<title>AttributeConditionComponent&#45;&gt;SearchBoxModule</title>
<path fill="none" stroke="#000000" d="M1699,-122.0109C1699,-144.4852 1699,-180 1699,-180 1699,-180 936.5783,-180 936.5783,-180"/>
<polygon fill="#000000" stroke="#000000" points="936.5783,-176.5001 926.5783,-180 936.5783,-183.5001 936.5783,-176.5001"/>
</g>
<!-- AttributeValueComponent -->
<g id="node2" class="node">
<title>AttributeValueComponent</title>
<polygon fill="#ffffb3" stroke="#000000" points="1586.8033,-122 1421.1967,-122 1421.1967,-86 1586.8033,-86 1586.8033,-122"/>
<text text-anchor="middle" x="1504" y="-99.8" font-family="Times,serif" font-size="14.00" fill="#000000">AttributeValueComponent</text>
</g>
<!-- AttributeValueComponent&#45;&gt;SearchBoxModule -->
<g id="edge2" class="edge">
<title>AttributeValueComponent&#45;&gt;SearchBoxModule</title>
<path fill="none" stroke="#000000" d="M1504,-122.1289C1504,-142.5724 1504,-173 1504,-173 1504,-173 936.5967,-173 936.5967,-173"/>
<polygon fill="#000000" stroke="#000000" points="936.5967,-169.5001 926.5967,-173 936.5966,-176.5001 936.5967,-169.5001"/>
</g>
<!-- ConditionSuggestionsComponent -->
<g id="node3" class="node">
<title>ConditionSuggestionsComponent</title>
<polygon fill="#ffffb3" stroke="#000000" points="1403.5084,-122 1198.4916,-122 1198.4916,-86 1403.5084,-86 1403.5084,-122"/>
<text text-anchor="middle" x="1301" y="-99.8" font-family="Times,serif" font-size="14.00" fill="#000000">ConditionSuggestionsComponent</text>
</g>
<!-- ConditionSuggestionsComponent&#45;&gt;SearchBoxModule -->
<g id="edge3" class="edge">
<title>ConditionSuggestionsComponent&#45;&gt;SearchBoxModule</title>
<path fill="none" stroke="#000000" d="M1301,-122.2667C1301,-140.5552 1301,-166 1301,-166 1301,-166 936.4849,-166 936.4849,-166"/>
<polygon fill="#000000" stroke="#000000" points="936.4849,-162.5001 926.4849,-166 936.4849,-169.5001 936.4849,-162.5001"/>
</g>
<!-- QueryItemComponent -->
<g id="node4" class="node">
<title>QueryItemComponent</title>
<polygon fill="#ffffb3" stroke="#000000" points="1180.9706,-122 1039.0294,-122 1039.0294,-86 1180.9706,-86 1180.9706,-122"/>
<text text-anchor="middle" x="1110" y="-99.8" font-family="Times,serif" font-size="14.00" fill="#000000">QueryItemComponent</text>
</g>
<!-- QueryItemComponent&#45;&gt;SearchBoxModule -->
<g id="edge4" class="edge">
<title>QueryItemComponent&#45;&gt;SearchBoxModule</title>
<path fill="none" stroke="#000000" d="M1110,-122.0091C1110,-138.0494 1110,-159 1110,-159 1110,-159 936.6281,-159 936.6281,-159"/>
<polygon fill="#000000" stroke="#000000" points="936.6281,-155.5001 926.6281,-159 936.6281,-162.5001 936.6281,-155.5001"/>
</g>
<!-- SearchBoxComponent -->
<g id="node5" class="node">
<title>SearchBoxComponent</title>
<polygon fill="#ffffb3" stroke="#000000" points="1021.2562,-122 878.7438,-122 878.7438,-86 1021.2562,-86 1021.2562,-122"/>
<text text-anchor="middle" x="950" y="-99.8" font-family="Times,serif" font-size="14.00" fill="#000000">SearchBoxComponent</text>
</g>
<!-- SearchBoxComponent&#45;&gt;SearchBoxModule -->
<g id="edge5" class="edge">
<title>SearchBoxComponent&#45;&gt;SearchBoxModule</title>
<path fill="none" stroke="#000000" d="M902.5543,-122.1061C902.5543,-122.1061 902.5543,-140.991 902.5543,-140.991"/>
<polygon fill="#000000" stroke="#000000" points="899.0544,-140.9909 902.5543,-150.991 906.0544,-140.991 899.0544,-140.9909"/>
</g>
<!-- SearchButtonComponent -->
<g id="node6" class="node">
<title>SearchButtonComponent</title>
<polygon fill="#ffffb3" stroke="#000000" points="860.5379,-122 703.4621,-122 703.4621,-86 860.5379,-86 860.5379,-122"/>
<text text-anchor="middle" x="782" y="-99.8" font-family="Times,serif" font-size="14.00" fill="#000000">SearchButtonComponent</text>
</g>
<!-- SearchButtonComponent&#45;&gt;SearchBoxModule -->
<g id="edge6" class="edge">
<title>SearchButtonComponent&#45;&gt;SearchBoxModule</title>
<path fill="none" stroke="#000000" d="M833.141,-122.1061C833.141,-122.1061 833.141,-140.991 833.141,-140.991"/>
<polygon fill="#000000" stroke="#000000" points="829.641,-140.9909 833.141,-150.991 836.641,-140.991 829.641,-140.9909"/>
</g>
<!-- SearchInputComponent -->
<g id="node7" class="node">
<title>SearchInputComponent</title>
<polygon fill="#ffffb3" stroke="#000000" points="685.4706,-122 536.5294,-122 536.5294,-86 685.4706,-86 685.4706,-122"/>
<text text-anchor="middle" x="611" y="-99.8" font-family="Times,serif" font-size="14.00" fill="#000000">SearchInputComponent</text>
</g>
<!-- SearchInputComponent&#45;&gt;SearchBoxModule -->
<g id="edge7" class="edge">
<title>SearchInputComponent&#45;&gt;SearchBoxModule</title>
<path fill="none" stroke="#000000" d="M611,-122.0091C611,-138.0494 611,-159 611,-159 611,-159 795.2451,-159 795.2451,-159"/>
<polygon fill="#000000" stroke="#000000" points="795.2452,-162.5001 805.2451,-159 795.2451,-155.5001 795.2452,-162.5001"/>
</g>
<!-- SearchSuggestionsComponent -->
<g id="node8" class="node">
<title>SearchSuggestionsComponent</title>
<polygon fill="#ffffb3" stroke="#000000" points="518.587,-122 331.413,-122 331.413,-86 518.587,-86 518.587,-122"/>
<text text-anchor="middle" x="425" y="-99.8" font-family="Times,serif" font-size="14.00" fill="#000000">SearchSuggestionsComponent</text>
</g>
<!-- SearchSuggestionsComponent&#45;&gt;SearchBoxModule -->
<g id="edge8" class="edge">
<title>SearchSuggestionsComponent&#45;&gt;SearchBoxModule</title>
<path fill="none" stroke="#000000" d="M425,-122.2667C425,-140.5552 425,-166 425,-166 425,-166 795.1438,-166 795.1438,-166"/>
<polygon fill="#000000" stroke="#000000" points="795.1439,-169.5001 805.1438,-166 795.1438,-162.5001 795.1439,-169.5001"/>
</g>
<!-- SuggestionItemComponent -->
<g id="node9" class="node">
<title>SuggestionItemComponent</title>
<polygon fill="#ffffb3" stroke="#000000" points="313.7119,-122 144.2881,-122 144.2881,-86 313.7119,-86 313.7119,-122"/>
<text text-anchor="middle" x="229" y="-99.8" font-family="Times,serif" font-size="14.00" fill="#000000">SuggestionItemComponent</text>
</g>
<!-- SuggestionItemComponent&#45;&gt;SearchBoxModule -->
<g id="edge9" class="edge">
<title>SuggestionItemComponent&#45;&gt;SearchBoxModule</title>
<path fill="none" stroke="#000000" d="M229,-122.1289C229,-142.5724 229,-173 229,-173 229,-173 795.4983,-173 795.4983,-173"/>
<polygon fill="#000000" stroke="#000000" points="795.4983,-176.5001 805.4983,-173 795.4983,-169.5001 795.4983,-176.5001"/>
</g>
<!-- QueryItemComponent  -->
<g id="node12" class="node">
<title>QueryItemComponent </title>
<polygon fill="#fb8072" stroke="#000000" points="1020.9714,-252 875.0286,-252 875.0286,-216 1020.9714,-216 1020.9714,-252"/>
<text text-anchor="middle" x="948" y="-229.8" font-family="Times,serif" font-size="14.00" fill="#000000">QueryItemComponent </text>
</g>
<!-- SearchBoxModule&#45;&gt;QueryItemComponent  -->
<g id="edge11" class="edge">
<title>SearchBoxModule&#45;&gt;QueryItemComponent </title>
<path fill="none" stroke="#000000" stroke-dasharray="5,2" d="M900.8757,-187.1061C900.8757,-187.1061 900.8757,-205.991 900.8757,-205.991"/>
<polygon fill="#000000" stroke="#000000" points="897.3758,-205.9909 900.8757,-215.991 904.3758,-205.991 897.3758,-205.9909"/>
</g>
<!-- SearchBoxComponent  -->
<g id="node13" class="node">
<title>SearchBoxComponent </title>
<polygon fill="#fb8072" stroke="#000000" points="857.2562,-252 710.7438,-252 710.7438,-216 857.2562,-216 857.2562,-252"/>
<text text-anchor="middle" x="784" y="-229.8" font-family="Times,serif" font-size="14.00" fill="#000000">SearchBoxComponent </text>
</g>
<!-- SearchBoxModule&#45;&gt;SearchBoxComponent  -->
<g id="edge12" class="edge">
<title>SearchBoxModule&#45;&gt;SearchBoxComponent </title>
<path fill="none" stroke="#000000" stroke-dasharray="5,2" d="M831.3207,-187.1061C831.3207,-187.1061 831.3207,-205.991 831.3207,-205.991"/>
<polygon fill="#000000" stroke="#000000" points="827.8207,-205.9909 831.3207,-215.991 834.8207,-205.991 827.8207,-205.9909"/>
</g>
<!-- PickerModule -->
<g id="node11" class="node">
<title>PickerModule</title>
<polygon fill="#8dd3c7" stroke="#000000" points="119.8133,-122 116.8133,-126 95.8133,-126 92.8133,-122 24.1867,-122 24.1867,-86 119.8133,-86 119.8133,-122"/>
<text text-anchor="middle" x="72" y="-99.8" font-family="Times,serif" font-size="14.00" fill="#000000">PickerModule</text>
</g>
<!-- PickerModule&#45;&gt;SearchBoxModule -->
<g id="edge10" class="edge">
<title>PickerModule&#45;&gt;SearchBoxModule</title>
<path fill="none" stroke="#000000" d="M72,-122.0109C72,-144.4852 72,-180 72,-180 72,-180 795.3423,-180 795.3423,-180"/>
<polygon fill="#000000" stroke="#000000" points="795.3423,-183.5001 805.3423,-180 795.3422,-176.5001 795.3423,-183.5001"/>
</g>
</g>
</svg>
