<?xml version="1.0" encoding="UTF-8" standalone="no"?>
<!DOCTYPE svg PUBLIC "-//W3C//DTD SVG 1.1//EN"
 "http://www.w3.org/Graphics/SVG/1.1/DTD/svg11.dtd">
<!-- Generated by graphviz version 2.40.1 (20161225.0304)
 -->
<!-- Title: dependencies Pages: 1 -->
<svg width="1862pt" height="284pt"
 viewBox="0.00 0.00 1862.00 284.00" xmlns="http://www.w3.org/2000/svg" xmlns:xlink="http://www.w3.org/1999/xlink">
<g id="graph0" class="graph" transform="scale(1 1) rotate(0) translate(4 280)">
<title>dependencies</title>
<polygon fill="#ffffff" stroke="transparent" points="-4,4 -4,-280 1858,-280 1858,4 -4,4"/>
<text text-anchor="start" x="906.0091" y="-42.4" font-family="sans-serif" font-weight="bold" font-size="14.00" fill="#000000">Legend</text>
<polygon fill="#ffffb3" stroke="transparent" points="693,-10 693,-30 713,-30 713,-10 693,-10"/>
<text text-anchor="start" x="716.629" y="-15.4" font-family="sans-serif" font-size="14.00" fill="#000000"> &#160;Declarations</text>
<polygon fill="#8dd3c7" stroke="transparent" points="806,-10 806,-30 826,-30 826,-10 806,-10"/>
<text text-anchor="start" x="829.7251" y="-15.4" font-family="sans-serif" font-size="14.00" fill="#000000"> &#160;Module</text>
<polygon fill="#80b1d3" stroke="transparent" points="892,-10 892,-30 912,-30 912,-10 892,-10"/>
<text text-anchor="start" x="915.7812" y="-15.4" font-family="sans-serif" font-size="14.00" fill="#000000"> &#160;Bootstrap</text>
<polygon fill="#fdb462" stroke="transparent" points="989,-10 989,-30 1009,-30 1009,-10 989,-10"/>
<text text-anchor="start" x="1012.6732" y="-15.4" font-family="sans-serif" font-size="14.00" fill="#000000"> &#160;Providers</text>
<polygon fill="#fb8072" stroke="transparent" points="1085,-10 1085,-30 1105,-30 1105,-10 1085,-10"/>
<text text-anchor="start" x="1108.7258" y="-15.4" font-family="sans-serif" font-size="14.00" fill="#000000"> &#160;Exports</text>
<g id="clust1" class="cluster">
<title>cluster_SearchBoxModule</title>
<polygon fill="none" stroke="#000000" stroke-dasharray="1,5" points="8,-70 8,-268 1846,-268 1846,-70 8,-70"/>
</g>
<g id="clust2" class="cluster">
<title>cluster_SearchBoxModule_declarations</title>
<polygon fill="none" stroke="#000000" points="136,-78 136,-130 1838,-130 1838,-78 136,-78"/>
</g>
<g id="clust13" class="cluster">
<title>cluster_SearchBoxModule_imports</title>
<polygon fill="none" stroke="#000000" points="16,-78 16,-130 128,-130 128,-78 16,-78"/>
</g>
<g id="clust14" class="cluster">
<title>cluster_SearchBoxModule_exports</title>
<polygon fill="none" stroke="#000000" points="645,-208 645,-260 1087,-260 1087,-208 645,-208"/>
</g>
<!-- AttributeConditionComponent -->
<g id="node1" class="node">
<title>AttributeConditionComponent</title>
<polygon fill="#ffffb3" stroke="#000000" points="1829.885,-122 1642.115,-122 1642.115,-86 1829.885,-86 1829.885,-122"/>
<text text-anchor="middle" x="1736" y="-99.8" font-family="Times,serif" font-size="14.00" fill="#000000">AttributeConditionComponent</text>
</g>
<!-- SearchBoxModule -->
<g id="node11" class="node">
<title>SearchBoxModule</title>
<polygon fill="#8dd3c7" stroke="#000000" points="950.4734,-187 947.4734,-191 926.4734,-191 923.4734,-187 829.5266,-187 829.5266,-151 950.4734,-151 950.4734,-187"/>
<text text-anchor="middle" x="890" y="-164.8" font-family="Times,serif" font-size="14.00" fill="#000000">SearchBoxModule</text>
</g>
<!-- AttributeConditionComponent&#45;&gt;SearchBoxModule -->
<g id="edge1" class="edge">
<title>AttributeConditionComponent&#45;&gt;SearchBoxModule</title>
<path fill="none" stroke="#000000" d="M1736,-122.0449C1736,-143.6623 1736,-177 1736,-177 1736,-177 960.5027,-177 960.5027,-177"/>
<polygon fill="#000000" stroke="#000000" points="960.5028,-173.5001 950.5027,-177 960.5027,-180.5001 960.5028,-173.5001"/>
</g>
<!-- ConditionSuggestionsComponent -->
<g id="node2" class="node">
<title>ConditionSuggestionsComponent</title>
<polygon fill="#ffffb3" stroke="#000000" points="1624.5084,-122 1419.4916,-122 1419.4916,-86 1624.5084,-86 1624.5084,-122"/>
<text text-anchor="middle" x="1522" y="-99.8" font-family="Times,serif" font-size="14.00" fill="#000000">ConditionSuggestionsComponent</text>
</g>
<!-- ConditionSuggestionsComponent&#45;&gt;SearchBoxModule -->
<g id="edge2" class="edge">
<title>ConditionSuggestionsComponent&#45;&gt;SearchBoxModule</title>
<path fill="none" stroke="#000000" d="M1522,-122.2228C1522,-142.3652 1522,-172 1522,-172 1522,-172 960.5988,-172 960.5988,-172"/>
<polygon fill="#000000" stroke="#000000" points="960.5989,-168.5001 950.5988,-172 960.5988,-175.5001 960.5989,-168.5001"/>
</g>
<!-- HighlightPipe -->
<g id="node3" class="node">
<title>HighlightPipe</title>
<polygon fill="#ffffb3" stroke="#000000" points="1401.0578,-122 1306.9422,-122 1306.9422,-86 1401.0578,-86 1401.0578,-122"/>
<text text-anchor="middle" x="1354" y="-99.8" font-family="Times,serif" font-size="14.00" fill="#000000">HighlightPipe</text>
</g>
<!-- HighlightPipe&#45;&gt;SearchBoxModule -->
<g id="edge3" class="edge">
<title>HighlightPipe&#45;&gt;SearchBoxModule</title>
<path fill="none" stroke="#000000" d="M1354,-122.2222C1354,-140.8285 1354,-167 1354,-167 1354,-167 960.6599,-167 960.6599,-167"/>
<polygon fill="#000000" stroke="#000000" points="960.6599,-163.5001 950.6599,-167 960.6599,-170.5001 960.6599,-163.5001"/>
</g>
<!-- QueryItemComponent -->
<g id="node4" class="node">
<title>QueryItemComponent</title>
<polygon fill="#ffffb3" stroke="#000000" points="1288.9706,-122 1147.0294,-122 1147.0294,-86 1288.9706,-86 1288.9706,-122"/>
<text text-anchor="middle" x="1218" y="-99.8" font-family="Times,serif" font-size="14.00" fill="#000000">QueryItemComponent</text>
</g>
<!-- QueryItemComponent&#45;&gt;SearchBoxModule -->
<g id="edge4" class="edge">
<title>QueryItemComponent&#45;&gt;SearchBoxModule</title>
<path fill="none" stroke="#000000" d="M1218,-122.0336C1218,-139.0597 1218,-162 1218,-162 1218,-162 960.5425,-162 960.5425,-162"/>
<polygon fill="#000000" stroke="#000000" points="960.5425,-158.5001 950.5425,-162 960.5425,-165.5001 960.5425,-158.5001"/>
</g>
<!-- SearchBoxComponent -->
<g id="node5" class="node">
<title>SearchBoxComponent</title>
<polygon fill="#ffffb3" stroke="#000000" points="1129.2562,-122 986.7438,-122 986.7438,-86 1129.2562,-86 1129.2562,-122"/>
<text text-anchor="middle" x="1058" y="-99.8" font-family="Times,serif" font-size="14.00" fill="#000000">SearchBoxComponent</text>
</g>
<!-- SearchBoxComponent&#45;&gt;SearchBoxModule -->
<g id="edge5" class="edge">
<title>SearchBoxComponent&#45;&gt;SearchBoxModule</title>
<path fill="none" stroke="#000000" d="M1017.4241,-122.2396C1017.4241,-137.5706 1017.4241,-157 1017.4241,-157 1017.4241,-157 960.7265,-157 960.7265,-157"/>
<polygon fill="#000000" stroke="#000000" points="960.7266,-153.5001 950.7265,-157 960.7265,-160.5001 960.7266,-153.5001"/>
</g>
<!-- SearchButtonComponent -->
<g id="node6" class="node">
<title>SearchButtonComponent</title>
<polygon fill="#ffffb3" stroke="#000000" points="968.5379,-122 811.4621,-122 811.4621,-86 968.5379,-86 968.5379,-122"/>
<text text-anchor="middle" x="890" y="-99.8" font-family="Times,serif" font-size="14.00" fill="#000000">SearchButtonComponent</text>
</g>
<!-- SearchButtonComponent&#45;&gt;SearchBoxModule -->
<g id="edge6" class="edge">
<title>SearchButtonComponent&#45;&gt;SearchBoxModule</title>
<path fill="none" stroke="#000000" d="M890,-122.1061C890,-122.1061 890,-140.991 890,-140.991"/>
<polygon fill="#000000" stroke="#000000" points="886.5001,-140.9909 890,-150.991 893.5001,-140.991 886.5001,-140.9909"/>
</g>
<!-- SearchInputComponent -->
<g id="node7" class="node">
<title>SearchInputComponent</title>
<polygon fill="#ffffb3" stroke="#000000" points="793.4706,-122 644.5294,-122 644.5294,-86 793.4706,-86 793.4706,-122"/>
<text text-anchor="middle" x="719" y="-99.8" font-family="Times,serif" font-size="14.00" fill="#000000">SearchInputComponent</text>
</g>
<!-- SearchInputComponent&#45;&gt;SearchBoxModule -->
<g id="edge7" class="edge">
<title>SearchInputComponent&#45;&gt;SearchBoxModule</title>
<path fill="none" stroke="#000000" d="M699.7431,-122.2396C699.7431,-137.5706 699.7431,-157 699.7431,-157 699.7431,-157 819.2784,-157 819.2784,-157"/>
<polygon fill="#000000" stroke="#000000" points="819.2785,-160.5001 829.2784,-157 819.2784,-153.5001 819.2785,-160.5001"/>
</g>
<!-- SearchSuggestionsComponent -->
<g id="node8" class="node">
<title>SearchSuggestionsComponent</title>
<polygon fill="#ffffb3" stroke="#000000" points="626.587,-122 439.413,-122 439.413,-86 626.587,-86 626.587,-122"/>
<text text-anchor="middle" x="533" y="-99.8" font-family="Times,serif" font-size="14.00" fill="#000000">SearchSuggestionsComponent</text>
</g>
<!-- SearchSuggestionsComponent&#45;&gt;SearchBoxModule -->
<g id="edge8" class="edge">
<title>SearchSuggestionsComponent&#45;&gt;SearchBoxModule</title>
<path fill="none" stroke="#000000" d="M533,-122.0336C533,-139.0597 533,-162 533,-162 533,-162 819.4398,-162 819.4398,-162"/>
<polygon fill="#000000" stroke="#000000" points="819.4399,-165.5001 829.4398,-162 819.4398,-158.5001 819.4399,-165.5001"/>
</g>
<!-- SuggestionItemComponent -->
<g id="node9" class="node">
<title>SuggestionItemComponent</title>
<polygon fill="#ffffb3" stroke="#000000" points="421.7119,-122 252.2881,-122 252.2881,-86 421.7119,-86 421.7119,-122"/>
<text text-anchor="middle" x="337" y="-99.8" font-family="Times,serif" font-size="14.00" fill="#000000">SuggestionItemComponent</text>
</g>
<!-- SuggestionItemComponent&#45;&gt;SearchBoxModule -->
<g id="edge9" class="edge">
<title>SuggestionItemComponent&#45;&gt;SearchBoxModule</title>
<path fill="none" stroke="#000000" d="M337,-122.2222C337,-140.8285 337,-167 337,-167 337,-167 819.5023,-167 819.5023,-167"/>
<polygon fill="#000000" stroke="#000000" points="819.5023,-170.5001 829.5023,-167 819.5022,-163.5001 819.5023,-170.5001"/>
</g>
<!-- TruncatePipe -->
<g id="node10" class="node">
<title>TruncatePipe</title>
<polygon fill="#ffffb3" stroke="#000000" points="234.1361,-122 143.8639,-122 143.8639,-86 234.1361,-86 234.1361,-122"/>
<text text-anchor="middle" x="189" y="-99.8" font-family="Times,serif" font-size="14.00" fill="#000000">TruncatePipe</text>
</g>
<!-- TruncatePipe&#45;&gt;SearchBoxModule -->
<g id="edge10" class="edge">
<title>TruncatePipe&#45;&gt;SearchBoxModule</title>
<path fill="none" stroke="#000000" d="M189,-122.2228C189,-142.3652 189,-172 189,-172 189,-172 819.3221,-172 819.3221,-172"/>
<polygon fill="#000000" stroke="#000000" points="819.3221,-175.5001 829.3221,-172 819.3221,-168.5001 819.3221,-175.5001"/>
</g>
<!-- HighlightPipe  -->
<g id="node13" class="node">
<title>HighlightPipe </title>
<polygon fill="#fb8072" stroke="#000000" points="1079.0568,-252 980.9432,-252 980.9432,-216 1079.0568,-216 1079.0568,-252"/>
<text text-anchor="middle" x="1030" y="-229.8" font-family="Times,serif" font-size="14.00" fill="#000000">HighlightPipe </text>
</g>
<!-- SearchBoxModule&#45;&gt;HighlightPipe  -->
<g id="edge12" class="edge">
<title>SearchBoxModule&#45;&gt;HighlightPipe </title>
<path fill="none" stroke="#000000" stroke-dasharray="5,2" d="M950.7219,-182C995.3425,-182 1048.2263,-182 1048.2263,-182 1048.2263,-182 1048.2263,-205.8129 1048.2263,-205.8129"/>
<polygon fill="#000000" stroke="#000000" points="1044.7264,-205.8129 1048.2263,-215.8129 1051.7264,-205.813 1044.7264,-205.8129"/>
</g>
<!-- QueryItemComponent  -->
<g id="node14" class="node">
<title>QueryItemComponent </title>
<polygon fill="#fb8072" stroke="#000000" points="962.9714,-252 817.0286,-252 817.0286,-216 962.9714,-216 962.9714,-252"/>
<text text-anchor="middle" x="890" y="-229.8" font-family="Times,serif" font-size="14.00" fill="#000000">QueryItemComponent </text>
</g>
<!-- SearchBoxModule&#45;&gt;QueryItemComponent  -->
<g id="edge13" class="edge">
<title>SearchBoxModule&#45;&gt;QueryItemComponent </title>
<path fill="none" stroke="#000000" stroke-dasharray="5,2" d="M890,-187.1061C890,-187.1061 890,-205.991 890,-205.991"/>
<polygon fill="#000000" stroke="#000000" points="886.5001,-205.9909 890,-215.991 893.5001,-205.991 886.5001,-205.9909"/>
</g>
<!-- SearchBoxComponent  -->
<g id="node15" class="node">
<title>SearchBoxComponent </title>
<polygon fill="#fb8072" stroke="#000000" points="799.2562,-252 652.7438,-252 652.7438,-216 799.2562,-216 799.2562,-252"/>
<text text-anchor="middle" x="726" y="-229.8" font-family="Times,serif" font-size="14.00" fill="#000000">SearchBoxComponent </text>
</g>
<!-- SearchBoxModule&#45;&gt;SearchBoxComponent  -->
<g id="edge14" class="edge">
<title>SearchBoxModule&#45;&gt;SearchBoxComponent </title>
<path fill="none" stroke="#000000" stroke-dasharray="5,2" d="M829.1915,-182C790.1117,-182 746.6142,-182 746.6142,-182 746.6142,-182 746.6142,-205.8129 746.6142,-205.8129"/>
<polygon fill="#000000" stroke="#000000" points="743.1143,-205.8129 746.6142,-215.8129 750.1143,-205.813 743.1143,-205.8129"/>
</g>
<!-- PickerModule -->
<g id="node12" class="node">
<title>PickerModule</title>
<polygon fill="#8dd3c7" stroke="#000000" points="119.8133,-122 116.8133,-126 95.8133,-126 92.8133,-122 24.1867,-122 24.1867,-86 119.8133,-86 119.8133,-122"/>
<text text-anchor="middle" x="72" y="-99.8" font-family="Times,serif" font-size="14.00" fill="#000000">PickerModule</text>
</g>
<!-- PickerModule&#45;&gt;SearchBoxModule -->
<g id="edge11" class="edge">
<title>PickerModule&#45;&gt;SearchBoxModule</title>
<path fill="none" stroke="#000000" d="M72,-122.0449C72,-143.6623 72,-177 72,-177 72,-177 819.5183,-177 819.5183,-177"/>
<polygon fill="#000000" stroke="#000000" points="819.5183,-180.5001 829.5183,-177 819.5183,-173.5001 819.5183,-180.5001"/>
</g>
</g>
</svg>
