<?xml version="1.0" encoding="UTF-8" standalone="no"?>
<!DOCTYPE svg PUBLIC "-//W3C//DTD SVG 1.1//EN"
 "http://www.w3.org/Graphics/SVG/1.1/DTD/svg11.dtd">
<!-- Generated by graphviz version 2.40.1 (20161225.0304)
 -->
<!-- Title: dependencies Pages: 1 -->
<svg width="504pt" height="284pt"
 viewBox="0.00 0.00 504.00 284.00" xmlns="http://www.w3.org/2000/svg" xmlns:xlink="http://www.w3.org/1999/xlink">
<g id="graph0" class="graph" transform="scale(1 1) rotate(0) translate(4 280)">
<title>dependencies</title>
<polygon fill="#ffffff" stroke="transparent" points="-4,4 -4,-280 500,-280 500,4 -4,4"/>
<text text-anchor="start" x="227.0091" y="-42.4" font-family="sans-serif" font-weight="bold" font-size="14.00" fill="#000000">Legend</text>
<polygon fill="#ffffb3" stroke="transparent" points="14,-10 14,-30 34,-30 34,-10 14,-10"/>
<text text-anchor="start" x="37.629" y="-15.4" font-family="sans-serif" font-size="14.00" fill="#000000"> &#160;Declarations</text>
<polygon fill="#8dd3c7" stroke="transparent" points="127,-10 127,-30 147,-30 147,-10 127,-10"/>
<text text-anchor="start" x="150.7251" y="-15.4" font-family="sans-serif" font-size="14.00" fill="#000000"> &#160;Module</text>
<polygon fill="#80b1d3" stroke="transparent" points="213,-10 213,-30 233,-30 233,-10 213,-10"/>
<text text-anchor="start" x="236.7812" y="-15.4" font-family="sans-serif" font-size="14.00" fill="#000000"> &#160;Bootstrap</text>
<polygon fill="#fdb462" stroke="transparent" points="310,-10 310,-30 330,-30 330,-10 310,-10"/>
<text text-anchor="start" x="333.6732" y="-15.4" font-family="sans-serif" font-size="14.00" fill="#000000"> &#160;Providers</text>
<polygon fill="#fb8072" stroke="transparent" points="406,-10 406,-30 426,-30 426,-10 406,-10"/>
<text text-anchor="start" x="429.7258" y="-15.4" font-family="sans-serif" font-size="14.00" fill="#000000"> &#160;Exports</text>
<g id="clust1" class="cluster">
<title>cluster_DirectivesModule</title>
<polygon fill="none" stroke="#000000" stroke-dasharray="1,5" points="102,-70 102,-268 394,-268 394,-70 102,-70"/>
</g>
<g id="clust2" class="cluster">
<title>cluster_DirectivesModule_declarations</title>
<polygon fill="none" stroke="#000000" points="114,-78 114,-130 382,-130 382,-78 114,-78"/>
</g>
<g id="clust6" class="cluster">
<title>cluster_DirectivesModule_exports</title>
<polygon fill="none" stroke="#000000" points="110,-208 110,-260 386,-260 386,-208 110,-208"/>
</g>
<!-- NgVarDirective -->
<g id="node1" class="node">
<title>NgVarDirective</title>
<polygon fill="#ffffb3" stroke="#000000" points="374.1713,-122 267.8287,-122 267.8287,-86 374.1713,-86 374.1713,-122"/>
<text text-anchor="middle" x="321" y="-99.8" font-family="Times,serif" font-size="14.00" fill="#000000">NgVarDirective</text>
</g>
<!-- DirectivesModule -->
<g id="node3" class="node">
<title>DirectivesModule</title>
<polygon fill="#8dd3c7" stroke="#000000" points="245.5772,-187 242.5772,-191 221.5772,-191 218.5772,-187 128.4228,-187 128.4228,-151 245.5772,-151 245.5772,-187"/>
<text text-anchor="middle" x="187" y="-164.8" font-family="Times,serif" font-size="14.00" fill="#000000">DirectivesModule</text>
</g>
<!-- NgVarDirective&#45;&gt;DirectivesModule -->
<g id="edge1" class="edge">
<title>NgVarDirective&#45;&gt;DirectivesModule</title>
<path fill="none" stroke="#000000" d="M338.7785,-122.0225C338.7785,-139.3734 338.7785,-163 338.7785,-163 338.7785,-163 255.6815,-163 255.6815,-163"/>
<polygon fill="#000000" stroke="#000000" points="255.6816,-159.5001 245.6815,-163 255.6815,-166.5001 255.6816,-159.5001"/>
</g>
<!-- TrimValueAccessor -->
<g id="node2" class="node">
<title>TrimValueAccessor</title>
<polygon fill="#ffffb3" stroke="#000000" points="250.2213,-122 121.7787,-122 121.7787,-86 250.2213,-86 250.2213,-122"/>
<text text-anchor="middle" x="186" y="-99.8" font-family="Times,serif" font-size="14.00" fill="#000000">TrimValueAccessor</text>
</g>
<!-- TrimValueAccessor&#45;&gt;DirectivesModule -->
<g id="edge2" class="edge">
<title>TrimValueAccessor&#45;&gt;DirectivesModule</title>
<path fill="none" stroke="#000000" d="M187,-122.1061C187,-122.1061 187,-140.991 187,-140.991"/>
<polygon fill="#000000" stroke="#000000" points="183.5001,-140.9909 187,-150.991 190.5001,-140.991 183.5001,-140.9909"/>
</g>
<!-- NgVarDirective  -->
<g id="node4" class="node">
<title>NgVarDirective </title>
<polygon fill="#fb8072" stroke="#000000" points="377.6717,-252 268.3283,-252 268.3283,-216 377.6717,-216 377.6717,-252"/>
<text text-anchor="middle" x="323" y="-229.8" font-family="Times,serif" font-size="14.00" fill="#000000">NgVarDirective </text>
</g>
<!-- DirectivesModule&#45;&gt;NgVarDirective  -->
<g id="edge3" class="edge">
<title>DirectivesModule&#45;&gt;NgVarDirective </title>
<path fill="none" stroke="#000000" stroke-dasharray="5,2" d="M245.577,-175C274.5806,-175 303.4715,-175 303.4715,-175 303.4715,-175 303.4715,-205.9775 303.4715,-205.9775"/>
<polygon fill="#000000" stroke="#000000" points="299.9716,-205.9774 303.4715,-215.9775 306.9716,-205.9775 299.9716,-205.9774"/>
</g>
<!-- TrimValueAccessor  -->
<g id="node5" class="node">
<title>TrimValueAccessor </title>
<polygon fill="#fb8072" stroke="#000000" points="250.2212,-252 117.7788,-252 117.7788,-216 250.2212,-216 250.2212,-252"/>
<text text-anchor="middle" x="184" y="-229.8" font-family="Times,serif" font-size="14.00" fill="#000000">TrimValueAccessor </text>
</g>
<!-- DirectivesModule&#45;&gt;TrimValueAccessor  -->
<g id="edge4" class="edge">
<title>DirectivesModule&#45;&gt;TrimValueAccessor </title>
<path fill="none" stroke="#000000" stroke-dasharray="5,2" d="M187,-187.1061C187,-187.1061 187,-205.991 187,-205.991"/>
<polygon fill="#000000" stroke="#000000" points="183.5001,-205.9909 187,-215.991 190.5001,-205.991 183.5001,-205.9909"/>
</g>
</g>
</svg>
