<?xml version="1.0" encoding="UTF-8" standalone="no"?>
<!DOCTYPE svg PUBLIC "-//W3C//DTD SVG 1.1//EN"
 "http://www.w3.org/Graphics/SVG/1.1/DTD/svg11.dtd">
<!-- Generated by graphviz version 2.40.1 (20161225.0304)
 -->
<!-- Title: dependencies Pages: 1 -->
<svg width="504pt" height="284pt"
 viewBox="0.00 0.00 504.00 284.00" xmlns="http://www.w3.org/2000/svg" xmlns:xlink="http://www.w3.org/1999/xlink">
<g id="graph0" class="graph" transform="scale(1 1) rotate(0) translate(4 280)">
<title>dependencies</title>
<polygon fill="#ffffff" stroke="transparent" points="-4,4 -4,-280 500,-280 500,4 -4,4"/>
<text text-anchor="start" x="227.0091" y="-42.4" font-family="sans-serif" font-weight="bold" font-size="14.00" fill="#000000">Legend</text>
<polygon fill="#ffffb3" stroke="transparent" points="14,-10 14,-30 34,-30 34,-10 14,-10"/>
<text text-anchor="start" x="37.629" y="-15.4" font-family="sans-serif" font-size="14.00" fill="#000000"> &#160;Declarations</text>
<polygon fill="#8dd3c7" stroke="transparent" points="127,-10 127,-30 147,-30 147,-10 127,-10"/>
<text text-anchor="start" x="150.7251" y="-15.4" font-family="sans-serif" font-size="14.00" fill="#000000"> &#160;Module</text>
<polygon fill="#80b1d3" stroke="transparent" points="213,-10 213,-30 233,-30 233,-10 213,-10"/>
<text text-anchor="start" x="236.7812" y="-15.4" font-family="sans-serif" font-size="14.00" fill="#000000"> &#160;Bootstrap</text>
<polygon fill="#fdb462" stroke="transparent" points="310,-10 310,-30 330,-30 330,-10 310,-10"/>
<text text-anchor="start" x="333.6732" y="-15.4" font-family="sans-serif" font-size="14.00" fill="#000000"> &#160;Providers</text>
<polygon fill="#fb8072" stroke="transparent" points="406,-10 406,-30 426,-30 426,-10 406,-10"/>
<text text-anchor="start" x="429.7258" y="-15.4" font-family="sans-serif" font-size="14.00" fill="#000000"> &#160;Exports</text>
<g id="clust1" class="cluster">
<title>cluster_DocumentHintsModule</title>
<polygon fill="none" stroke="#000000" stroke-dasharray="1,5" points="36,-70 36,-268 460,-268 460,-70 36,-70"/>
</g>
<g id="clust2" class="cluster">
<title>cluster_DocumentHintsModule_declarations</title>
<polygon fill="none" stroke="#000000" points="44,-78 44,-130 452,-130 452,-78 44,-78"/>
</g>
<g id="clust6" class="cluster">
<title>cluster_DocumentHintsModule_exports</title>
<polygon fill="none" stroke="#000000" points="145,-208 145,-260 335,-260 335,-208 145,-208"/>
</g>
<!-- DocumentHintColumnOffsetPipe -->
<g id="node1" class="node">
<title>DocumentHintColumnOffsetPipe</title>
<polygon fill="#ffffb3" stroke="#000000" points="444.1881,-122 239.8119,-122 239.8119,-86 444.1881,-86 444.1881,-122"/>
<text text-anchor="middle" x="342" y="-99.8" font-family="Times,serif" font-size="14.00" fill="#000000">DocumentHintColumnOffsetPipe</text>
</g>
<!-- DocumentHintsModule -->
<g id="node3" class="node">
<title>DocumentHintsModule</title>
<polygon fill="#8dd3c7" stroke="#000000" points="314.1993,-187 311.1993,-191 290.1993,-191 287.1993,-187 165.8007,-187 165.8007,-151 314.1993,-151 314.1993,-187"/>
<text text-anchor="middle" x="240" y="-164.8" font-family="Times,serif" font-size="14.00" fill="#000000">DocumentHintsModule</text>
</g>
<!-- DocumentHintColumnOffsetPipe&#45;&gt;DocumentHintsModule -->
<g id="edge1" class="edge">
<title>DocumentHintColumnOffsetPipe&#45;&gt;DocumentHintsModule</title>
<path fill="none" stroke="#000000" d="M277.0028,-122.1061C277.0028,-122.1061 277.0028,-140.991 277.0028,-140.991"/>
<polygon fill="#000000" stroke="#000000" points="273.5029,-140.9909 277.0028,-150.991 280.5029,-140.991 273.5029,-140.9909"/>
</g>
<!-- DocumentHintsComponent -->
<g id="node2" class="node">
<title>DocumentHintsComponent</title>
<polygon fill="#ffffb3" stroke="#000000" points="221.9818,-122 52.0182,-122 52.0182,-86 221.9818,-86 221.9818,-122"/>
<text text-anchor="middle" x="137" y="-99.8" font-family="Times,serif" font-size="14.00" fill="#000000">DocumentHintsComponent</text>
</g>
<!-- DocumentHintsComponent&#45;&gt;DocumentHintsModule -->
<g id="edge2" class="edge">
<title>DocumentHintsComponent&#45;&gt;DocumentHintsModule</title>
<path fill="none" stroke="#000000" d="M193.9457,-122.1061C193.9457,-122.1061 193.9457,-140.991 193.9457,-140.991"/>
<polygon fill="#000000" stroke="#000000" points="190.4457,-140.9909 193.9457,-150.991 197.4457,-140.991 190.4457,-140.9909"/>
</g>
<!-- DocumentHintsComponent  -->
<g id="node4" class="node">
<title>DocumentHintsComponent </title>
<polygon fill="#fb8072" stroke="#000000" points="326.9825,-252 153.0175,-252 153.0175,-216 326.9825,-216 326.9825,-252"/>
<text text-anchor="middle" x="240" y="-229.8" font-family="Times,serif" font-size="14.00" fill="#000000">DocumentHintsComponent </text>
</g>
<!-- DocumentHintsModule&#45;&gt;DocumentHintsComponent  -->
<g id="edge3" class="edge">
<title>DocumentHintsModule&#45;&gt;DocumentHintsComponent </title>
<path fill="none" stroke="#000000" stroke-dasharray="5,2" d="M240,-187.1061C240,-187.1061 240,-205.991 240,-205.991"/>
<polygon fill="#000000" stroke="#000000" points="236.5001,-205.9909 240,-215.991 243.5001,-205.991 236.5001,-205.9909"/>
</g>
</g>
</svg>
