<?xml version="1.0" encoding="UTF-8" standalone="no"?>
<!DOCTYPE svg PUBLIC "-//W3C//DTD SVG 1.1//EN"
 "http://www.w3.org/Graphics/SVG/1.1/DTD/svg11.dtd">
<!-- Generated by graphviz version 2.40.1 (20161225.0304)
 -->
<!-- Title: dependencies Pages: 1 -->
<svg width="1166pt" height="284pt"
 viewBox="0.00 0.00 1166.00 284.00" xmlns="http://www.w3.org/2000/svg" xmlns:xlink="http://www.w3.org/1999/xlink">
<g id="graph0" class="graph" transform="scale(1 1) rotate(0) translate(4 280)">
<title>dependencies</title>
<polygon fill="#ffffff" stroke="transparent" points="-4,4 -4,-280 1162,-280 1162,4 -4,4"/>
<text text-anchor="start" x="558.0091" y="-42.4" font-family="sans-serif" font-weight="bold" font-size="14.00" fill="#000000">Legend</text>
<polygon fill="#ffffb3" stroke="transparent" points="345,-10 345,-30 365,-30 365,-10 345,-10"/>
<text text-anchor="start" x="368.629" y="-15.4" font-family="sans-serif" font-size="14.00" fill="#000000"> &#160;Declarations</text>
<polygon fill="#8dd3c7" stroke="transparent" points="458,-10 458,-30 478,-30 478,-10 458,-10"/>
<text text-anchor="start" x="481.7251" y="-15.4" font-family="sans-serif" font-size="14.00" fill="#000000"> &#160;Module</text>
<polygon fill="#80b1d3" stroke="transparent" points="544,-10 544,-30 564,-30 564,-10 544,-10"/>
<text text-anchor="start" x="567.7812" y="-15.4" font-family="sans-serif" font-size="14.00" fill="#000000"> &#160;Bootstrap</text>
<polygon fill="#fdb462" stroke="transparent" points="641,-10 641,-30 661,-30 661,-10 641,-10"/>
<text text-anchor="start" x="664.6732" y="-15.4" font-family="sans-serif" font-size="14.00" fill="#000000"> &#160;Providers</text>
<polygon fill="#fb8072" stroke="transparent" points="737,-10 737,-30 757,-30 757,-10 737,-10"/>
<text text-anchor="start" x="760.7258" y="-15.4" font-family="sans-serif" font-size="14.00" fill="#000000"> &#160;Exports</text>
<g id="clust1" class="cluster">
<title>cluster_ChartPipesModule</title>
<polygon fill="none" stroke="#000000" stroke-dasharray="1,5" points="8,-70 8,-268 1150,-268 1150,-70 8,-70"/>
</g>
<g id="clust2" class="cluster">
<title>cluster_ChartPipesModule_declarations</title>
<polygon fill="none" stroke="#000000" points="26,-78 26,-130 1129,-130 1129,-78 26,-78"/>
</g>
<g id="clust11" class="cluster">
<title>cluster_ChartPipesModule_exports</title>
<polygon fill="none" stroke="#000000" points="16,-208 16,-260 1142,-260 1142,-208 16,-208"/>
</g>
<!-- AttributeNamePipe -->
<g id="node1" class="node">
<title>AttributeNamePipe</title>
<polygon fill="#ffffb3" stroke="#000000" points="1121.3585,-122 996.6415,-122 996.6415,-86 1121.3585,-86 1121.3585,-122"/>
<text text-anchor="middle" x="1059" y="-99.8" font-family="Times,serif" font-size="14.00" fill="#000000">AttributeNamePipe</text>
</g>
<!-- ChartPipesModule -->
<g id="node8" class="node">
<title>ChartPipesModule</title>
<polygon fill="#8dd3c7" stroke="#000000" points="620.4846,-187 617.4846,-191 596.4846,-191 593.4846,-187 499.5154,-187 499.5154,-151 620.4846,-151 620.4846,-187"/>
<text text-anchor="middle" x="560" y="-164.8" font-family="Times,serif" font-size="14.00" fill="#000000">ChartPipesModule</text>
</g>
<!-- AttributeNamePipe&#45;&gt;ChartPipesModule -->
<g id="edge1" class="edge">
<title>AttributeNamePipe&#45;&gt;ChartPipesModule</title>
<path fill="none" stroke="#000000" d="M1001.1958,-122.2222C1001.1958,-140.8285 1001.1958,-167 1001.1958,-167 1001.1958,-167 630.8832,-167 630.8832,-167"/>
<polygon fill="#000000" stroke="#000000" points="630.8832,-163.5001 620.8832,-167 630.8831,-170.5001 630.8832,-163.5001"/>
</g>
<!-- AxisSelectEmptyValuePipe -->
<g id="node2" class="node">
<title>AxisSelectEmptyValuePipe</title>
<polygon fill="#ffffb3" stroke="#000000" points="978.2977,-122 805.7023,-122 805.7023,-86 978.2977,-86 978.2977,-122"/>
<text text-anchor="middle" x="892" y="-99.8" font-family="Times,serif" font-size="14.00" fill="#000000">AxisSelectEmptyValuePipe</text>
</g>
<!-- AxisSelectEmptyValuePipe&#45;&gt;ChartPipesModule -->
<g id="edge2" class="edge">
<title>AxisSelectEmptyValuePipe&#45;&gt;ChartPipesModule</title>
<path fill="none" stroke="#000000" d="M922.7996,-122.0336C922.7996,-139.0597 922.7996,-162 922.7996,-162 922.7996,-162 630.7245,-162 630.7245,-162"/>
<polygon fill="#000000" stroke="#000000" points="630.7245,-158.5001 620.7245,-162 630.7245,-165.5001 630.7245,-158.5001"/>
</g>
<!-- AxisSelectItemsPipe -->
<g id="node3" class="node">
<title>AxisSelectItemsPipe</title>
<polygon fill="#ffffb3" stroke="#000000" points="788.1387,-122 655.8613,-122 655.8613,-86 788.1387,-86 788.1387,-122"/>
<text text-anchor="middle" x="722" y="-99.8" font-family="Times,serif" font-size="14.00" fill="#000000">AxisSelectItemsPipe</text>
</g>
<!-- AxisSelectItemsPipe&#45;&gt;ChartPipesModule -->
<g id="edge3" class="edge">
<title>AxisSelectItemsPipe&#45;&gt;ChartPipesModule</title>
<path fill="none" stroke="#000000" d="M744.8564,-122.2396C744.8564,-137.5706 744.8564,-157 744.8564,-157 744.8564,-157 630.5289,-157 630.5289,-157"/>
<polygon fill="#000000" stroke="#000000" points="630.5289,-153.5001 620.5289,-157 630.5289,-160.5001 630.5289,-153.5001"/>
</g>
<!-- ChartTypesToSelectPipe -->
<g id="node4" class="node">
<title>ChartTypesToSelectPipe</title>
<polygon fill="#ffffb3" stroke="#000000" points="637.9622,-122 482.0378,-122 482.0378,-86 637.9622,-86 637.9622,-122"/>
<text text-anchor="middle" x="560" y="-99.8" font-family="Times,serif" font-size="14.00" fill="#000000">ChartTypesToSelectPipe</text>
</g>
<!-- ChartTypesToSelectPipe&#45;&gt;ChartPipesModule -->
<g id="edge4" class="edge">
<title>ChartTypesToSelectPipe&#45;&gt;ChartPipesModule</title>
<path fill="none" stroke="#000000" d="M560,-122.1061C560,-122.1061 560,-140.991 560,-140.991"/>
<polygon fill="#000000" stroke="#000000" points="556.5001,-140.9909 560,-150.991 563.5001,-140.991 556.5001,-140.9909"/>
</g>
<!-- ConfigAxisByTypePipe -->
<g id="node5" class="node">
<title>ConfigAxisByTypePipe</title>
<polygon fill="#ffffb3" stroke="#000000" points="463.8215,-122 312.1785,-122 312.1785,-86 463.8215,-86 463.8215,-122"/>
<text text-anchor="middle" x="388" y="-99.8" font-family="Times,serif" font-size="14.00" fill="#000000">ConfigAxisByTypePipe</text>
</g>
<!-- ConfigAxisByTypePipe&#45;&gt;ChartPipesModule -->
<g id="edge5" class="edge">
<title>ConfigAxisByTypePipe&#45;&gt;ChartPipesModule</title>
<path fill="none" stroke="#000000" d="M412.3869,-122.2396C412.3869,-137.5706 412.3869,-157 412.3869,-157 412.3869,-157 489.1079,-157 489.1079,-157"/>
<polygon fill="#000000" stroke="#000000" points="489.1079,-160.5001 499.1079,-157 489.1078,-153.5001 489.1079,-160.5001"/>
</g>
<!-- DisplayablePipe -->
<g id="node6" class="node">
<title>DisplayablePipe</title>
<polygon fill="#ffffb3" stroke="#000000" points="293.7549,-122 186.2451,-122 186.2451,-86 293.7549,-86 293.7549,-122"/>
<text text-anchor="middle" x="240" y="-99.8" font-family="Times,serif" font-size="14.00" fill="#000000">DisplayablePipe</text>
</g>
<!-- DisplayablePipe&#45;&gt;ChartPipesModule -->
<g id="edge6" class="edge">
<title>DisplayablePipe&#45;&gt;ChartPipesModule</title>
<path fill="none" stroke="#000000" d="M255.1258,-122.0336C255.1258,-139.0597 255.1258,-162 255.1258,-162 255.1258,-162 489.4021,-162 489.4021,-162"/>
<polygon fill="#000000" stroke="#000000" points="489.4022,-165.5001 499.4021,-162 489.4021,-158.5001 489.4022,-165.5001"/>
</g>
<!-- ShowAxisSelectPipe -->
<g id="node7" class="node">
<title>ShowAxisSelectPipe</title>
<polygon fill="#ffffb3" stroke="#000000" points="167.9271,-122 34.0729,-122 34.0729,-86 167.9271,-86 167.9271,-122"/>
<text text-anchor="middle" x="101" y="-99.8" font-family="Times,serif" font-size="14.00" fill="#000000">ShowAxisSelectPipe</text>
</g>
<!-- ShowAxisSelectPipe&#45;&gt;ChartPipesModule -->
<g id="edge7" class="edge">
<title>ShowAxisSelectPipe&#45;&gt;ChartPipesModule</title>
<path fill="none" stroke="#000000" d="M164.0882,-122.2222C164.0882,-140.8285 164.0882,-167 164.0882,-167 164.0882,-167 489.4385,-167 489.4385,-167"/>
<polygon fill="#000000" stroke="#000000" points="489.4386,-170.5001 499.4385,-167 489.4385,-163.5001 489.4386,-170.5001"/>
</g>
<!-- AttributeNamePipe  -->
<g id="node9" class="node">
<title>AttributeNamePipe </title>
<polygon fill="#fb8072" stroke="#000000" points="1134.3589,-252 1005.6411,-252 1005.6411,-216 1134.3589,-216 1134.3589,-252"/>
<text text-anchor="middle" x="1070" y="-229.8" font-family="Times,serif" font-size="14.00" fill="#000000">AttributeNamePipe </text>
</g>
<!-- ChartPipesModule&#45;&gt;AttributeNamePipe  -->
<g id="edge8" class="edge">
<title>ChartPipesModule&#45;&gt;AttributeNamePipe </title>
<path fill="none" stroke="#000000" stroke-dasharray="5,2" d="M620.4986,-172C754.3125,-172 1063.625,-172 1063.625,-172 1063.625,-172 1063.625,-205.7333 1063.625,-205.7333"/>
<polygon fill="#000000" stroke="#000000" points="1060.1251,-205.7333 1063.625,-215.7333 1067.1251,-205.7333 1060.1251,-205.7333"/>
</g>
<!-- AxisSelectEmptyValuePipe  -->
<g id="node10" class="node">
<title>AxisSelectEmptyValuePipe </title>
<polygon fill="#fb8072" stroke="#000000" points="987.7975,-252 812.2025,-252 812.2025,-216 987.7975,-216 987.7975,-252"/>
<text text-anchor="middle" x="900" y="-229.8" font-family="Times,serif" font-size="14.00" fill="#000000">AxisSelectEmptyValuePipe </text>
</g>
<!-- ChartPipesModule&#45;&gt;AxisSelectEmptyValuePipe  -->
<g id="edge9" class="edge">
<title>ChartPipesModule&#45;&gt;AxisSelectEmptyValuePipe </title>
<path fill="none" stroke="#000000" stroke-dasharray="5,2" d="M620.7423,-177C710.3428,-177 867.4504,-177 867.4504,-177 867.4504,-177 867.4504,-205.9648 867.4504,-205.9648"/>
<polygon fill="#000000" stroke="#000000" points="863.9505,-205.9648 867.4504,-215.9648 870.9505,-205.9649 863.9505,-205.9648"/>
</g>
<!-- AxisSelectItemsPipe  -->
<g id="node11" class="node">
<title>AxisSelectItemsPipe </title>
<polygon fill="#fb8072" stroke="#000000" points="794.1383,-252 657.8617,-252 657.8617,-216 794.1383,-216 794.1383,-252"/>
<text text-anchor="middle" x="726" y="-229.8" font-family="Times,serif" font-size="14.00" fill="#000000">AxisSelectItemsPipe </text>
</g>
<!-- ChartPipesModule&#45;&gt;AxisSelectItemsPipe  -->
<g id="edge10" class="edge">
<title>ChartPipesModule&#45;&gt;AxisSelectItemsPipe </title>
<path fill="none" stroke="#000000" stroke-dasharray="5,2" d="M620.7842,-182C659.1067,-182 701.3936,-182 701.3936,-182 701.3936,-182 701.3936,-205.8129 701.3936,-205.8129"/>
<polygon fill="#000000" stroke="#000000" points="697.8937,-205.8129 701.3936,-215.8129 704.8937,-205.813 697.8937,-205.8129"/>
</g>
<!-- ChartTypesToSelectPipe  -->
<g id="node12" class="node">
<title>ChartTypesToSelectPipe </title>
<polygon fill="#fb8072" stroke="#000000" points="639.9629,-252 480.0371,-252 480.0371,-216 639.9629,-216 639.9629,-252"/>
<text text-anchor="middle" x="560" y="-229.8" font-family="Times,serif" font-size="14.00" fill="#000000">ChartTypesToSelectPipe </text>
</g>
<!-- ChartPipesModule&#45;&gt;ChartTypesToSelectPipe  -->
<g id="edge11" class="edge">
<title>ChartPipesModule&#45;&gt;ChartTypesToSelectPipe </title>
<path fill="none" stroke="#000000" stroke-dasharray="5,2" d="M560,-187.1061C560,-187.1061 560,-205.991 560,-205.991"/>
<polygon fill="#000000" stroke="#000000" points="556.5001,-205.9909 560,-215.991 563.5001,-205.991 556.5001,-205.9909"/>
</g>
<!-- ConfigAxisByTypePipe  -->
<g id="node13" class="node">
<title>ConfigAxisByTypePipe </title>
<polygon fill="#fb8072" stroke="#000000" points="462.3213,-252 307.6787,-252 307.6787,-216 462.3213,-216 462.3213,-252"/>
<text text-anchor="middle" x="385" y="-229.8" font-family="Times,serif" font-size="14.00" fill="#000000">ConfigAxisByTypePipe </text>
</g>
<!-- ChartPipesModule&#45;&gt;ConfigAxisByTypePipe  -->
<g id="edge12" class="edge">
<title>ChartPipesModule&#45;&gt;ConfigAxisByTypePipe </title>
<path fill="none" stroke="#000000" stroke-dasharray="5,2" d="M499.3593,-182C441.2631,-182 362.3631,-182 362.3631,-182 362.3631,-182 362.3631,-205.8129 362.3631,-205.8129"/>
<polygon fill="#000000" stroke="#000000" points="358.8632,-205.8129 362.3631,-215.8129 365.8632,-205.813 358.8632,-205.8129"/>
</g>
<!-- DisplayablePipe  -->
<g id="node14" class="node">
<title>DisplayablePipe </title>
<polygon fill="#fb8072" stroke="#000000" points="289.7549,-252 178.2451,-252 178.2451,-216 289.7549,-216 289.7549,-252"/>
<text text-anchor="middle" x="234" y="-229.8" font-family="Times,serif" font-size="14.00" fill="#000000">DisplayablePipe </text>
</g>
<!-- ChartPipesModule&#45;&gt;DisplayablePipe  -->
<g id="edge13" class="edge">
<title>ChartPipesModule&#45;&gt;DisplayablePipe </title>
<path fill="none" stroke="#000000" stroke-dasharray="5,2" d="M499.3264,-177C401.7099,-177 220.6242,-177 220.6242,-177 220.6242,-177 220.6242,-205.9648 220.6242,-205.9648"/>
<polygon fill="#000000" stroke="#000000" points="217.1243,-205.9648 220.6242,-215.9648 224.1243,-205.9649 217.1243,-205.9648"/>
</g>
<!-- ShowAxisSelectPipe  -->
<g id="node15" class="node">
<title>ShowAxisSelectPipe </title>
<polygon fill="#fb8072" stroke="#000000" points="160.4264,-252 23.5736,-252 23.5736,-216 160.4264,-216 160.4264,-252"/>
<text text-anchor="middle" x="92" y="-229.8" font-family="Times,serif" font-size="14.00" fill="#000000">ShowAxisSelectPipe </text>
</g>
<!-- ChartPipesModule&#45;&gt;ShowAxisSelectPipe  -->
<g id="edge14" class="edge">
<title>ChartPipesModule&#45;&gt;ShowAxisSelectPipe </title>
<path fill="none" stroke="#000000" stroke-dasharray="5,2" d="M499.0441,-172C373.4214,-172 97.375,-172 97.375,-172 97.375,-172 97.375,-205.7333 97.375,-205.7333"/>
<polygon fill="#000000" stroke="#000000" points="93.8751,-205.7333 97.375,-215.7333 100.8751,-205.7333 93.8751,-205.7333"/>
</g>
</g>
</svg>
