<?xml version="1.0" encoding="UTF-8" standalone="no"?>
<!DOCTYPE svg PUBLIC "-//W3C//DTD SVG 1.1//EN"
 "http://www.w3.org/Graphics/SVG/1.1/DTD/svg11.dtd">
<!-- Generated by graphviz version 2.40.1 (20161225.0304)
 -->
<!-- Title: dependencies Pages: 1 -->
<svg width="1903pt" height="284pt"
 viewBox="0.00 0.00 1903.00 284.00" xmlns="http://www.w3.org/2000/svg" xmlns:xlink="http://www.w3.org/1999/xlink">
<g id="graph0" class="graph" transform="scale(1 1) rotate(0) translate(4 280)">
<title>dependencies</title>
<polygon fill="#ffffff" stroke="transparent" points="-4,4 -4,-280 1899,-280 1899,4 -4,4"/>
<text text-anchor="start" x="926.5091" y="-42.4" font-family="sans-serif" font-weight="bold" font-size="14.00" fill="#000000">Legend</text>
<polygon fill="#ffffb3" stroke="transparent" points="713.5,-10 713.5,-30 733.5,-30 733.5,-10 713.5,-10"/>
<text text-anchor="start" x="737.129" y="-15.4" font-family="sans-serif" font-size="14.00" fill="#000000"> &#160;Declarations</text>
<polygon fill="#8dd3c7" stroke="transparent" points="826.5,-10 826.5,-30 846.5,-30 846.5,-10 826.5,-10"/>
<text text-anchor="start" x="850.2251" y="-15.4" font-family="sans-serif" font-size="14.00" fill="#000000"> &#160;Module</text>
<polygon fill="#80b1d3" stroke="transparent" points="912.5,-10 912.5,-30 932.5,-30 932.5,-10 912.5,-10"/>
<text text-anchor="start" x="936.2812" y="-15.4" font-family="sans-serif" font-size="14.00" fill="#000000"> &#160;Bootstrap</text>
<polygon fill="#fdb462" stroke="transparent" points="1009.5,-10 1009.5,-30 1029.5,-30 1029.5,-10 1009.5,-10"/>
<text text-anchor="start" x="1033.1732" y="-15.4" font-family="sans-serif" font-size="14.00" fill="#000000"> &#160;Providers</text>
<polygon fill="#fb8072" stroke="transparent" points="1105.5,-10 1105.5,-30 1125.5,-30 1125.5,-10 1105.5,-10"/>
<text text-anchor="start" x="1129.2258" y="-15.4" font-family="sans-serif" font-size="14.00" fill="#000000"> &#160;Exports</text>
<g id="clust1" class="cluster">
<title>cluster_MapPerspectiveModule</title>
<polygon fill="none" stroke="#000000" stroke-dasharray="1,5" points="8,-70 8,-268 1887,-268 1887,-70 8,-70"/>
</g>
<g id="clust2" class="cluster">
<title>cluster_MapPerspectiveModule_declarations</title>
<polygon fill="none" stroke="#000000" points="464,-78 464,-130 1879,-130 1879,-78 464,-78"/>
</g>
<g id="clust11" class="cluster">
<title>cluster_MapPerspectiveModule_imports</title>
<polygon fill="none" stroke="#000000" points="16,-78 16,-130 456,-130 456,-78 16,-78"/>
</g>
<g id="clust12" class="cluster">
<title>cluster_MapPerspectiveModule_exports</title>
<polygon fill="none" stroke="#000000" points="800,-208 800,-260 992,-260 992,-208 800,-208"/>
</g>
<!-- EmptyMapComponent -->
<g id="node1" class="node">
<title>EmptyMapComponent</title>
<polygon fill="#ffffb3" stroke="#000000" points="1871.3258,-122 1726.6742,-122 1726.6742,-86 1871.3258,-86 1871.3258,-122"/>
<text text-anchor="middle" x="1799" y="-99.8" font-family="Times,serif" font-size="14.00" fill="#000000">EmptyMapComponent</text>
</g>
<!-- MapPerspectiveModule -->
<g id="node9" class="node">
<title>MapPerspectiveModule</title>
<polygon fill="#8dd3c7" stroke="#000000" points="970.7366,-187 967.7366,-191 946.7366,-191 943.7366,-187 821.2634,-187 821.2634,-151 970.7366,-151 970.7366,-187"/>
<text text-anchor="middle" x="896" y="-164.8" font-family="Times,serif" font-size="14.00" fill="#000000">MapPerspectiveModule</text>
</g>
<!-- EmptyMapComponent&#45;&gt;MapPerspectiveModule -->
<g id="edge1" class="edge">
<title>EmptyMapComponent&#45;&gt;MapPerspectiveModule</title>
<path fill="none" stroke="#000000" d="M1799,-122.2479C1799,-145.0179 1799,-181 1799,-181 1799,-181 981.0499,-181 981.0499,-181"/>
<polygon fill="#000000" stroke="#000000" points="981.0499,-177.5001 971.0499,-181 981.0499,-184.5001 981.0499,-177.5001"/>
</g>
<!-- MapAttributeGroupComponent -->
<g id="node2" class="node">
<title>MapAttributeGroupComponent</title>
<polygon fill="#ffffb3" stroke="#000000" points="1708.8032,-122 1515.1968,-122 1515.1968,-86 1708.8032,-86 1708.8032,-122"/>
<text text-anchor="middle" x="1612" y="-99.8" font-family="Times,serif" font-size="14.00" fill="#000000">MapAttributeGroupComponent</text>
</g>
<!-- MapAttributeGroupComponent&#45;&gt;MapPerspectiveModule -->
<g id="edge2" class="edge">
<title>MapAttributeGroupComponent&#45;&gt;MapPerspectiveModule</title>
<path fill="none" stroke="#000000" d="M1612,-122.2843C1612,-143.3211 1612,-175 1612,-175 1612,-175 980.9345,-175 980.9345,-175"/>
<polygon fill="#000000" stroke="#000000" points="980.9345,-171.5001 970.9345,-175 980.9344,-178.5001 980.9345,-171.5001"/>
</g>
<!-- MapAttributeIdsPipe -->
<g id="node3" class="node">
<title>MapAttributeIdsPipe</title>
<polygon fill="#ffffb3" stroke="#000000" points="1497.1965,-122 1362.8035,-122 1362.8035,-86 1497.1965,-86 1497.1965,-122"/>
<text text-anchor="middle" x="1430" y="-99.8" font-family="Times,serif" font-size="14.00" fill="#000000">MapAttributeIdsPipe</text>
</g>
<!-- MapAttributeIdsPipe&#45;&gt;MapPerspectiveModule -->
<g id="edge3" class="edge">
<title>MapAttributeIdsPipe&#45;&gt;MapPerspectiveModule</title>
<path fill="none" stroke="#000000" d="M1430,-122.1061C1430,-141.3391 1430,-169 1430,-169 1430,-169 980.8127,-169 980.8127,-169"/>
<polygon fill="#000000" stroke="#000000" points="980.8127,-165.5001 970.8127,-169 980.8126,-172.5001 980.8127,-165.5001"/>
</g>
<!-- MapAttributeSelectComponent -->
<g id="node4" class="node">
<title>MapAttributeSelectComponent</title>
<polygon fill="#ffffb3" stroke="#000000" points="1344.7436,-122 1153.2564,-122 1153.2564,-86 1344.7436,-86 1344.7436,-122"/>
<text text-anchor="middle" x="1249" y="-99.8" font-family="Times,serif" font-size="14.00" fill="#000000">MapAttributeSelectComponent</text>
</g>
<!-- MapAttributeSelectComponent&#45;&gt;MapPerspectiveModule -->
<g id="edge4" class="edge">
<title>MapAttributeSelectComponent&#45;&gt;MapPerspectiveModule</title>
<path fill="none" stroke="#000000" d="M1249,-122.0225C1249,-139.3734 1249,-163 1249,-163 1249,-163 980.8622,-163 980.8622,-163"/>
<polygon fill="#000000" stroke="#000000" points="980.8623,-159.5001 970.8622,-163 980.8622,-166.5001 980.8623,-159.5001"/>
</g>
<!-- MapContentComponent -->
<g id="node5" class="node">
<title>MapContentComponent</title>
<polygon fill="#ffffb3" stroke="#000000" points="1134.8243,-122 983.1757,-122 983.1757,-86 1134.8243,-86 1134.8243,-122"/>
<text text-anchor="middle" x="1059" y="-99.8" font-family="Times,serif" font-size="14.00" fill="#000000">MapContentComponent</text>
</g>
<!-- MapContentComponent&#45;&gt;MapPerspectiveModule -->
<g id="edge5" class="edge">
<title>MapContentComponent&#45;&gt;MapPerspectiveModule</title>
<path fill="none" stroke="#000000" d="M1059.0858,-122.2396C1059.0858,-137.5706 1059.0858,-157 1059.0858,-157 1059.0858,-157 980.8605,-157 980.8605,-157"/>
<polygon fill="#000000" stroke="#000000" points="980.8605,-153.5001 970.8605,-157 980.8604,-160.5001 980.8605,-153.5001"/>
</g>
<!-- MapPanelComponent -->
<g id="node6" class="node">
<title>MapPanelComponent</title>
<polygon fill="#ffffb3" stroke="#000000" points="965.094,-122 826.906,-122 826.906,-86 965.094,-86 965.094,-122"/>
<text text-anchor="middle" x="896" y="-99.8" font-family="Times,serif" font-size="14.00" fill="#000000">MapPanelComponent</text>
</g>
<!-- MapPanelComponent&#45;&gt;MapPerspectiveModule -->
<g id="edge6" class="edge">
<title>MapPanelComponent&#45;&gt;MapPerspectiveModule</title>
<path fill="none" stroke="#000000" d="M896,-122.1061C896,-122.1061 896,-140.991 896,-140.991"/>
<polygon fill="#000000" stroke="#000000" points="892.5001,-140.9909 896,-150.991 899.5001,-140.991 892.5001,-140.9909"/>
</g>
<!-- MapPerspectiveComponent -->
<g id="node7" class="node">
<title>MapPerspectiveComponent</title>
<polygon fill="#ffffb3" stroke="#000000" points="808.5197,-122 637.4803,-122 637.4803,-86 808.5197,-86 808.5197,-122"/>
<text text-anchor="middle" x="723" y="-99.8" font-family="Times,serif" font-size="14.00" fill="#000000">MapPerspectiveComponent</text>
</g>
<!-- MapPerspectiveComponent&#45;&gt;MapPerspectiveModule -->
<g id="edge7" class="edge">
<title>MapPerspectiveComponent&#45;&gt;MapPerspectiveModule</title>
<path fill="none" stroke="#000000" d="M722.8655,-122.2396C722.8655,-137.5706 722.8655,-157 722.8655,-157 722.8655,-157 811.0676,-157 811.0676,-157"/>
<polygon fill="#000000" stroke="#000000" points="811.0677,-160.5001 821.0676,-157 811.0676,-153.5001 811.0677,-160.5001"/>
</g>
<!-- MapRenderComponent -->
<g id="node8" class="node">
<title>MapRenderComponent</title>
<polygon fill="#ffffb3" stroke="#000000" points="619.9186,-122 472.0814,-122 472.0814,-86 619.9186,-86 619.9186,-122"/>
<text text-anchor="middle" x="546" y="-99.8" font-family="Times,serif" font-size="14.00" fill="#000000">MapRenderComponent</text>
</g>
<!-- MapRenderComponent&#45;&gt;MapPerspectiveModule -->
<g id="edge8" class="edge">
<title>MapRenderComponent&#45;&gt;MapPerspectiveModule</title>
<path fill="none" stroke="#000000" d="M546,-122.0225C546,-139.3734 546,-163 546,-163 546,-163 810.9162,-163 810.9162,-163"/>
<polygon fill="#000000" stroke="#000000" points="810.9163,-166.5001 820.9162,-163 810.9162,-159.5001 810.9163,-166.5001"/>
</g>
<!-- MapPerspectiveComponent  -->
<g id="node13" class="node">
<title>MapPerspectiveComponent </title>
<polygon fill="#fb8072" stroke="#000000" points="983.519,-252 808.481,-252 808.481,-216 983.519,-216 983.519,-252"/>
<text text-anchor="middle" x="896" y="-229.8" font-family="Times,serif" font-size="14.00" fill="#000000">MapPerspectiveComponent </text>
</g>
<!-- MapPerspectiveModule&#45;&gt;MapPerspectiveComponent  -->
<g id="edge12" class="edge">
<title>MapPerspectiveModule&#45;&gt;MapPerspectiveComponent </title>
<path fill="none" stroke="#000000" stroke-dasharray="5,2" d="M896,-187.1061C896,-187.1061 896,-205.991 896,-205.991"/>
<polygon fill="#000000" stroke="#000000" points="892.5001,-205.9909 896,-215.991 899.5001,-205.991 892.5001,-205.9909"/>
</g>
<!-- MapPerspectiveRoutingModule -->
<g id="node10" class="node">
<title>MapPerspectiveRoutingModule</title>
<polygon fill="#8dd3c7" stroke="#000000" points="448.3543,-122 445.3543,-126 424.3543,-126 421.3543,-122 253.6457,-122 253.6457,-86 448.3543,-86 448.3543,-122"/>
<text text-anchor="middle" x="351" y="-99.8" font-family="Times,serif" font-size="14.00" fill="#000000">MapPerspectiveRoutingModule</text>
</g>
<!-- MapPerspectiveRoutingModule&#45;&gt;MapPerspectiveModule -->
<g id="edge9" class="edge">
<title>MapPerspectiveRoutingModule&#45;&gt;MapPerspectiveModule</title>
<path fill="none" stroke="#000000" d="M351,-122.1061C351,-141.3391 351,-169 351,-169 351,-169 811.0778,-169 811.0778,-169"/>
<polygon fill="#000000" stroke="#000000" points="811.0778,-172.5001 821.0778,-169 811.0777,-165.5001 811.0778,-172.5001"/>
</g>
<!-- PickerModule -->
<g id="node11" class="node">
<title>PickerModule</title>
<polygon fill="#8dd3c7" stroke="#000000" points="235.8133,-122 232.8133,-126 211.8133,-126 208.8133,-122 140.1867,-122 140.1867,-86 235.8133,-86 235.8133,-122"/>
<text text-anchor="middle" x="188" y="-99.8" font-family="Times,serif" font-size="14.00" fill="#000000">PickerModule</text>
</g>
<!-- PickerModule&#45;&gt;MapPerspectiveModule -->
<g id="edge10" class="edge">
<title>PickerModule&#45;&gt;MapPerspectiveModule</title>
<path fill="none" stroke="#000000" d="M188,-122.2843C188,-143.3211 188,-175 188,-175 188,-175 811.2361,-175 811.2361,-175"/>
<polygon fill="#000000" stroke="#000000" points="811.2362,-178.5001 821.2361,-175 811.2361,-171.5001 811.2362,-178.5001"/>
</g>
<!-- SharedModule -->
<g id="node12" class="node">
<title>SharedModule</title>
<polygon fill="#8dd3c7" stroke="#000000" points="122.4231,-122 119.4231,-126 98.4231,-126 95.4231,-122 23.5769,-122 23.5769,-86 122.4231,-86 122.4231,-122"/>
<text text-anchor="middle" x="73" y="-99.8" font-family="Times,serif" font-size="14.00" fill="#000000">SharedModule</text>
</g>
<!-- SharedModule&#45;&gt;MapPerspectiveModule -->
<g id="edge11" class="edge">
<title>SharedModule&#45;&gt;MapPerspectiveModule</title>
<path fill="none" stroke="#000000" d="M73,-122.2479C73,-145.0179 73,-181 73,-181 73,-181 811.148,-181 811.148,-181"/>
<polygon fill="#000000" stroke="#000000" points="811.148,-184.5001 821.148,-181 811.1479,-177.5001 811.148,-184.5001"/>
</g>
</g>
</svg>
