<?xml version="1.0" encoding="UTF-8" standalone="no"?>
<!DOCTYPE svg PUBLIC "-//W3C//DTD SVG 1.1//EN"
 "http://www.w3.org/Graphics/SVG/1.1/DTD/svg11.dtd">
<!-- Generated by graphviz version 2.40.1 (20161225.0304)
 -->
<!-- Title: dependencies Pages: 1 -->
<svg width="4370pt" height="284pt"
 viewBox="0.00 0.00 4370.00 284.00" xmlns="http://www.w3.org/2000/svg" xmlns:xlink="http://www.w3.org/1999/xlink">
<g id="graph0" class="graph" transform="scale(1 1) rotate(0) translate(4 280)">
<title>dependencies</title>
<polygon fill="#ffffff" stroke="transparent" points="-4,4 -4,-280 4366,-280 4366,4 -4,4"/>
<text text-anchor="start" x="2160.0091" y="-42.4" font-family="sans-serif" font-weight="bold" font-size="14.00" fill="#000000">Legend</text>
<polygon fill="#ffffb3" stroke="transparent" points="1947,-10 1947,-30 1967,-30 1967,-10 1947,-10"/>
<text text-anchor="start" x="1970.629" y="-15.4" font-family="sans-serif" font-size="14.00" fill="#000000"> &#160;Declarations</text>
<polygon fill="#8dd3c7" stroke="transparent" points="2060,-10 2060,-30 2080,-30 2080,-10 2060,-10"/>
<text text-anchor="start" x="2083.7251" y="-15.4" font-family="sans-serif" font-size="14.00" fill="#000000"> &#160;Module</text>
<polygon fill="#80b1d3" stroke="transparent" points="2146,-10 2146,-30 2166,-30 2166,-10 2146,-10"/>
<text text-anchor="start" x="2169.7812" y="-15.4" font-family="sans-serif" font-size="14.00" fill="#000000"> &#160;Bootstrap</text>
<polygon fill="#fdb462" stroke="transparent" points="2243,-10 2243,-30 2263,-30 2263,-10 2243,-10"/>
<text text-anchor="start" x="2266.6732" y="-15.4" font-family="sans-serif" font-size="14.00" fill="#000000"> &#160;Providers</text>
<polygon fill="#fb8072" stroke="transparent" points="2339,-10 2339,-30 2359,-30 2359,-10 2339,-10"/>
<text text-anchor="start" x="2362.7258" y="-15.4" font-family="sans-serif" font-size="14.00" fill="#000000"> &#160;Exports</text>
<g id="clust1" class="cluster">
<title>cluster_WorkspaceModule</title>
<polygon fill="none" stroke="#000000" stroke-dasharray="1,5" points="8,-70 8,-268 4354,-268 4354,-70 8,-70"/>
</g>
<g id="clust2" class="cluster">
<title>cluster_WorkspaceModule_declarations</title>
<polygon fill="none" stroke="#000000" points="1418,-78 1418,-130 4346,-130 4346,-78 1418,-78"/>
</g>
<g id="clust18" class="cluster">
<title>cluster_WorkspaceModule_imports</title>
<polygon fill="none" stroke="#000000" points="886,-78 886,-130 1410,-130 1410,-78 886,-78"/>
</g>
<g id="clust19" class="cluster">
<title>cluster_WorkspaceModule_exports</title>
<polygon fill="none" stroke="#000000" points="2076,-208 2076,-260 2286,-260 2286,-208 2076,-208"/>
</g>
<g id="clust21" class="cluster">
<title>cluster_WorkspaceModule_providers</title>
<polygon fill="none" stroke="#000000" points="16,-78 16,-130 878,-130 878,-78 16,-78"/>
</g>
<!-- ContactFormComponent -->
<g id="node1" class="node">
<title>ContactFormComponent</title>
<polygon fill="#ffffb3" stroke="#000000" points="4337.7133,-122 4182.2867,-122 4182.2867,-86 4337.7133,-86 4337.7133,-122"/>
<text text-anchor="middle" x="4260" y="-99.8" font-family="Times,serif" font-size="14.00" fill="#000000">ContactFormComponent</text>
</g>
<!-- WorkspaceModule -->
<g id="node16" class="node">
<title>WorkspaceModule</title>
<polygon fill="#8dd3c7" stroke="#000000" points="2242.0144,-187 2239.0144,-191 2218.0144,-191 2215.0144,-187 2119.9856,-187 2119.9856,-151 2242.0144,-151 2242.0144,-187"/>
<text text-anchor="middle" x="2181" y="-164.8" font-family="Times,serif" font-size="14.00" fill="#000000">WorkspaceModule</text>
</g>
<!-- ContactFormComponent&#45;&gt;WorkspaceModule -->
<g id="edge1" class="edge">
<title>ContactFormComponent&#45;&gt;WorkspaceModule</title>
<path fill="none" stroke="#000000" d="M4260,-122.1532C4260,-145.7566 4260,-184 4260,-184 4260,-184 2252.0946,-184 2252.0946,-184"/>
<polygon fill="#000000" stroke="#000000" points="2252.0946,-180.5001 2242.0946,-184 2252.0946,-187.5001 2252.0946,-180.5001"/>
</g>
<!-- OrganizationDetailComponent -->
<g id="node2" class="node">
<title>OrganizationDetailComponent</title>
<polygon fill="#ffffb3" stroke="#000000" points="4164.1232,-122 3975.8768,-122 3975.8768,-86 4164.1232,-86 4164.1232,-122"/>
<text text-anchor="middle" x="4070" y="-99.8" font-family="Times,serif" font-size="14.00" fill="#000000">OrganizationDetailComponent</text>
</g>
<!-- OrganizationDetailComponent&#45;&gt;WorkspaceModule -->
<g id="edge2" class="edge">
<title>OrganizationDetailComponent&#45;&gt;WorkspaceModule</title>
<path fill="none" stroke="#000000" d="M4070,-122.2479C4070,-145.0179 4070,-181 4070,-181 4070,-181 2252.2426,-181 2252.2426,-181"/>
<polygon fill="#000000" stroke="#000000" points="2252.2427,-177.5001 2242.2426,-181 2252.2426,-184.5001 2252.2427,-177.5001"/>
</g>
<!-- OrganizationGroupsComponent -->
<g id="node3" class="node">
<title>OrganizationGroupsComponent</title>
<polygon fill="#ffffb3" stroke="#000000" points="3957.6274,-122 3762.3726,-122 3762.3726,-86 3957.6274,-86 3957.6274,-122"/>
<text text-anchor="middle" x="3860" y="-99.8" font-family="Times,serif" font-size="14.00" fill="#000000">OrganizationGroupsComponent</text>
</g>
<!-- OrganizationGroupsComponent&#45;&gt;WorkspaceModule -->
<g id="edge3" class="edge">
<title>OrganizationGroupsComponent&#45;&gt;WorkspaceModule</title>
<path fill="none" stroke="#000000" d="M3892.6045,-122.2921C3892.6045,-144.2057 3892.6045,-178 3892.6045,-178 3892.6045,-178 2252.169,-178 2252.169,-178"/>
<polygon fill="#000000" stroke="#000000" points="2252.169,-174.5001 2242.169,-178 2252.169,-181.5001 2252.169,-174.5001"/>
</g>
<!-- OrganizationGroupsComponent&#45;&gt;WorkspaceModule -->
<g id="edge4" class="edge">
<title>OrganizationGroupsComponent&#45;&gt;WorkspaceModule</title>
<path fill="none" stroke="#000000" d="M3827.3955,-122.2843C3827.3955,-143.3211 3827.3955,-175 3827.3955,-175 3827.3955,-175 2252.0413,-175 2252.0413,-175"/>
<polygon fill="#000000" stroke="#000000" points="2252.0414,-171.5001 2242.0413,-175 2252.0413,-178.5001 2252.0414,-171.5001"/>
</g>
<!-- OrganizationRegistrationComponent -->
<g id="node4" class="node">
<title>OrganizationRegistrationComponent</title>
<polygon fill="#ffffb3" stroke="#000000" points="3744.3487,-122 3521.6513,-122 3521.6513,-86 3744.3487,-86 3744.3487,-122"/>
<text text-anchor="middle" x="3633" y="-99.8" font-family="Times,serif" font-size="14.00" fill="#000000">OrganizationRegistrationComponent</text>
</g>
<!-- OrganizationRegistrationComponent&#45;&gt;WorkspaceModule -->
<g id="edge5" class="edge">
<title>OrganizationRegistrationComponent&#45;&gt;WorkspaceModule</title>
<path fill="none" stroke="#000000" d="M3633,-122.2228C3633,-142.3652 3633,-172 3633,-172 3633,-172 2252.4632,-172 2252.4632,-172"/>
<polygon fill="#000000" stroke="#000000" points="2252.4632,-168.5001 2242.4632,-172 2252.4632,-175.5001 2252.4632,-168.5001"/>
</g>
<!-- OrganizationSettingsComponent -->
<g id="node5" class="node">
<title>OrganizationSettingsComponent</title>
<polygon fill="#ffffb3" stroke="#000000" points="3503.5294,-122 3304.4706,-122 3304.4706,-86 3503.5294,-86 3503.5294,-122"/>
<text text-anchor="middle" x="3404" y="-99.8" font-family="Times,serif" font-size="14.00" fill="#000000">OrganizationSettingsComponent</text>
</g>
<!-- OrganizationSettingsComponent&#45;&gt;WorkspaceModule -->
<g id="edge6" class="edge">
<title>OrganizationSettingsComponent&#45;&gt;WorkspaceModule</title>
<path fill="none" stroke="#000000" d="M3404,-122.1061C3404,-141.3391 3404,-169 3404,-169 3404,-169 2252.0672,-169 2252.0672,-169"/>
<polygon fill="#000000" stroke="#000000" points="2252.0672,-165.5001 2242.0672,-169 2252.0672,-172.5001 2252.0672,-165.5001"/>
</g>
<!-- OrganizationUsersComponent -->
<g id="node6" class="node">
<title>OrganizationUsersComponent</title>
<polygon fill="#ffffb3" stroke="#000000" points="3286.2864,-122 3099.7136,-122 3099.7136,-86 3286.2864,-86 3286.2864,-122"/>
<text text-anchor="middle" x="3193" y="-99.8" font-family="Times,serif" font-size="14.00" fill="#000000">OrganizationUsersComponent</text>
</g>
<!-- OrganizationUsersComponent&#45;&gt;WorkspaceModule -->
<g id="edge7" class="edge">
<title>OrganizationUsersComponent&#45;&gt;WorkspaceModule</title>
<path fill="none" stroke="#000000" d="M3193,-122.2667C3193,-140.5552 3193,-166 3193,-166 3193,-166 2252.0261,-166 2252.0261,-166"/>
<polygon fill="#000000" stroke="#000000" points="2252.0261,-162.5001 2242.0261,-166 2252.0261,-169.5001 2252.0261,-162.5001"/>
</g>
<!-- PaymentsListComponent -->
<g id="node7" class="node">
<title>PaymentsListComponent</title>
<polygon fill="#ffffb3" stroke="#000000" points="3081.549,-122 2924.451,-122 2924.451,-86 3081.549,-86 3081.549,-122"/>
<text text-anchor="middle" x="3003" y="-99.8" font-family="Times,serif" font-size="14.00" fill="#000000">PaymentsListComponent</text>
</g>
<!-- PaymentsListComponent&#45;&gt;WorkspaceModule -->
<g id="edge8" class="edge">
<title>PaymentsListComponent&#45;&gt;WorkspaceModule</title>
<path fill="none" stroke="#000000" d="M3003,-122.0225C3003,-139.3734 3003,-163 3003,-163 3003,-163 2252.112,-163 2252.112,-163"/>
<polygon fill="#000000" stroke="#000000" points="2252.1121,-159.5001 2242.112,-163 2252.112,-166.5001 2252.1121,-159.5001"/>
</g>
<!-- PaymentsOrderComponent -->
<g id="node8" class="node">
<title>PaymentsOrderComponent</title>
<polygon fill="#ffffb3" stroke="#000000" points="2906.4129,-122 2737.5871,-122 2737.5871,-86 2906.4129,-86 2906.4129,-122"/>
<text text-anchor="middle" x="2822" y="-99.8" font-family="Times,serif" font-size="14.00" fill="#000000">PaymentsOrderComponent</text>
</g>
<!-- PaymentsOrderComponent&#45;&gt;WorkspaceModule -->
<g id="edge9" class="edge">
<title>PaymentsOrderComponent&#45;&gt;WorkspaceModule</title>
<path fill="none" stroke="#000000" d="M2822,-122.027C2822,-138.3976 2822,-160 2822,-160 2822,-160 2252.1714,-160 2252.1714,-160"/>
<polygon fill="#000000" stroke="#000000" points="2252.1714,-156.5001 2242.1714,-160 2252.1714,-163.5001 2252.1714,-156.5001"/>
</g>
<!-- PaymentsPanelComponent -->
<g id="node9" class="node">
<title>PaymentsPanelComponent</title>
<polygon fill="#ffffb3" stroke="#000000" points="2719.3724,-122 2552.6276,-122 2552.6276,-86 2719.3724,-86 2719.3724,-122"/>
<text text-anchor="middle" x="2636" y="-99.8" font-family="Times,serif" font-size="14.00" fill="#000000">PaymentsPanelComponent</text>
</g>
<!-- PaymentsPanelComponent&#45;&gt;WorkspaceModule -->
<g id="edge10" class="edge">
<title>PaymentsPanelComponent&#45;&gt;WorkspaceModule</title>
<path fill="none" stroke="#000000" d="M2636,-122.2396C2636,-137.5706 2636,-157 2636,-157 2636,-157 2252.3633,-157 2252.3633,-157"/>
<polygon fill="#000000" stroke="#000000" points="2252.3634,-153.5001 2242.3633,-157 2252.3633,-160.5001 2252.3634,-153.5001"/>
</g>
<!-- PaymentsStateComponent -->
<g id="node10" class="node">
<title>PaymentsStateComponent</title>
<polygon fill="#ffffb3" stroke="#000000" points="2534.7632,-122 2371.2368,-122 2371.2368,-86 2534.7632,-86 2534.7632,-122"/>
<text text-anchor="middle" x="2453" y="-99.8" font-family="Times,serif" font-size="14.00" fill="#000000">PaymentsStateComponent</text>
</g>
<!-- PaymentsStateComponent&#45;&gt;WorkspaceModule -->
<g id="edge11" class="edge">
<title>PaymentsStateComponent&#45;&gt;WorkspaceModule</title>
<path fill="none" stroke="#000000" d="M2453,-122.0511C2453,-136.373 2453,-154 2453,-154 2453,-154 2252.0421,-154 2252.0421,-154"/>
<polygon fill="#000000" stroke="#000000" points="2252.0421,-150.5001 2242.0421,-154 2252.0421,-157.5001 2252.0421,-150.5001"/>
</g>
<!-- ProjectSettingsComponent -->
<g id="node11" class="node">
<title>ProjectSettingsComponent</title>
<polygon fill="#ffffb3" stroke="#000000" points="2353.0996,-122 2186.9004,-122 2186.9004,-86 2353.0996,-86 2353.0996,-122"/>
<text text-anchor="middle" x="2270" y="-99.8" font-family="Times,serif" font-size="14.00" fill="#000000">ProjectSettingsComponent</text>
</g>
<!-- ProjectSettingsComponent&#45;&gt;WorkspaceModule -->
<g id="edge12" class="edge">
<title>ProjectSettingsComponent&#45;&gt;WorkspaceModule</title>
<path fill="none" stroke="#000000" d="M2214.6035,-122.1061C2214.6035,-122.1061 2214.6035,-140.991 2214.6035,-140.991"/>
<polygon fill="#000000" stroke="#000000" points="2211.1035,-140.9909 2214.6035,-150.991 2218.1035,-140.991 2211.1035,-140.9909"/>
</g>
<!-- ProjectUsersComponent -->
<g id="node12" class="node">
<title>ProjectUsersComponent</title>
<polygon fill="#ffffb3" stroke="#000000" points="2169.3571,-122 2016.6429,-122 2016.6429,-86 2169.3571,-86 2169.3571,-122"/>
<text text-anchor="middle" x="2093" y="-99.8" font-family="Times,serif" font-size="14.00" fill="#000000">ProjectUsersComponent</text>
</g>
<!-- ProjectUsersComponent&#45;&gt;WorkspaceModule -->
<g id="edge13" class="edge">
<title>ProjectUsersComponent&#45;&gt;WorkspaceModule</title>
<path fill="none" stroke="#000000" d="M2144.5859,-122.1061C2144.5859,-122.1061 2144.5859,-140.991 2144.5859,-140.991"/>
<polygon fill="#000000" stroke="#000000" points="2141.086,-140.9909 2144.5859,-150.991 2148.086,-140.991 2141.086,-140.9909"/>
</g>
<!-- ResourceChooserComponent -->
<g id="node13" class="node">
<title>ResourceChooserComponent</title>
<polygon fill="#ffffb3" stroke="#000000" points="1999.0744,-122 1818.9256,-122 1818.9256,-86 1999.0744,-86 1999.0744,-122"/>
<text text-anchor="middle" x="1909" y="-99.8" font-family="Times,serif" font-size="14.00" fill="#000000">ResourceChooserComponent</text>
</g>
<!-- ResourceChooserComponent&#45;&gt;WorkspaceModule -->
<g id="edge14" class="edge">
<title>ResourceChooserComponent&#45;&gt;WorkspaceModule</title>
<path fill="none" stroke="#000000" d="M1909,-122.0511C1909,-136.373 1909,-154 1909,-154 1909,-154 2109.9579,-154 2109.9579,-154"/>
<polygon fill="#000000" stroke="#000000" points="2109.9579,-157.5001 2119.9579,-154 2109.9579,-150.5001 2109.9579,-157.5001"/>
</g>
<!-- ResourcePostItComponent -->
<g id="node14" class="node">
<title>ResourcePostItComponent</title>
<polygon fill="#ffffb3" stroke="#000000" points="1801.087,-122 1634.913,-122 1634.913,-86 1801.087,-86 1801.087,-122"/>
<text text-anchor="middle" x="1718" y="-99.8" font-family="Times,serif" font-size="14.00" fill="#000000">ResourcePostItComponent</text>
</g>
<!-- ResourcePostItComponent&#45;&gt;WorkspaceModule -->
<g id="edge15" class="edge">
<title>ResourcePostItComponent&#45;&gt;WorkspaceModule</title>
<path fill="none" stroke="#000000" d="M1718,-122.2396C1718,-137.5706 1718,-157 1718,-157 1718,-157 2109.5172,-157 2109.5172,-157"/>
<polygon fill="#000000" stroke="#000000" points="2109.5172,-160.5001 2119.5172,-157 2109.5171,-153.5001 2109.5172,-160.5001"/>
</g>
<!-- WorkspaceChooserComponent -->
<g id="node15" class="node">
<title>WorkspaceChooserComponent</title>
<polygon fill="#ffffb3" stroke="#000000" points="1616.4524,-122 1425.5476,-122 1425.5476,-86 1616.4524,-86 1616.4524,-122"/>
<text text-anchor="middle" x="1521" y="-99.8" font-family="Times,serif" font-size="14.00" fill="#000000">WorkspaceChooserComponent</text>
</g>
<!-- WorkspaceChooserComponent&#45;&gt;WorkspaceModule -->
<g id="edge16" class="edge">
<title>WorkspaceChooserComponent&#45;&gt;WorkspaceModule</title>
<path fill="none" stroke="#000000" d="M1521,-122.027C1521,-138.3976 1521,-160 1521,-160 1521,-160 2109.7969,-160 2109.7969,-160"/>
<polygon fill="#000000" stroke="#000000" points="2109.797,-163.5001 2119.7969,-160 2109.7969,-156.5001 2109.797,-163.5001"/>
</g>
<!-- WorkspaceChooserComponent  -->
<g id="node21" class="node">
<title>WorkspaceChooserComponent </title>
<polygon fill="#fb8072" stroke="#000000" points="2278.4529,-252 2083.5471,-252 2083.5471,-216 2278.4529,-216 2278.4529,-252"/>
<text text-anchor="middle" x="2181" y="-229.8" font-family="Times,serif" font-size="14.00" fill="#000000">WorkspaceChooserComponent </text>
</g>
<!-- WorkspaceModule&#45;&gt;WorkspaceChooserComponent  -->
<g id="edge21" class="edge">
<title>WorkspaceModule&#45;&gt;WorkspaceChooserComponent </title>
<path fill="none" stroke="#000000" stroke-dasharray="5,2" d="M2181,-187.1061C2181,-187.1061 2181,-205.991 2181,-205.991"/>
<polygon fill="#000000" stroke="#000000" points="2177.5001,-205.9909 2181,-215.991 2184.5001,-205.991 2177.5001,-205.9909"/>
</g>
<!-- PickerModule -->
<g id="node17" class="node">
<title>PickerModule</title>
<polygon fill="#8dd3c7" stroke="#000000" points="1401.8133,-122 1398.8133,-126 1377.8133,-126 1374.8133,-122 1306.1867,-122 1306.1867,-86 1401.8133,-86 1401.8133,-122"/>
<text text-anchor="middle" x="1354" y="-99.8" font-family="Times,serif" font-size="14.00" fill="#000000">PickerModule</text>
</g>
<!-- PickerModule&#45;&gt;WorkspaceModule -->
<g id="edge17" class="edge">
<title>PickerModule&#45;&gt;WorkspaceModule</title>
<path fill="none" stroke="#000000" d="M1354,-122.0225C1354,-139.3734 1354,-163 1354,-163 1354,-163 2109.8529,-163 2109.8529,-163"/>
<polygon fill="#000000" stroke="#000000" points="2109.8529,-166.5001 2119.8529,-163 2109.8528,-159.5001 2109.8529,-166.5001"/>
</g>
<!-- SharedModule -->
<g id="node18" class="node">
<title>SharedModule</title>
<polygon fill="#8dd3c7" stroke="#000000" points="1288.4231,-122 1285.4231,-126 1264.4231,-126 1261.4231,-122 1189.5769,-122 1189.5769,-86 1288.4231,-86 1288.4231,-122"/>
<text text-anchor="middle" x="1239" y="-99.8" font-family="Times,serif" font-size="14.00" fill="#000000">SharedModule</text>
</g>
<!-- SharedModule&#45;&gt;WorkspaceModule -->
<g id="edge18" class="edge">
<title>SharedModule&#45;&gt;WorkspaceModule</title>
<path fill="none" stroke="#000000" d="M1239,-122.2667C1239,-140.5552 1239,-166 1239,-166 1239,-166 2109.9186,-166 2109.9186,-166"/>
<polygon fill="#000000" stroke="#000000" points="2109.9186,-169.5001 2119.9186,-166 2109.9185,-162.5001 2109.9186,-169.5001"/>
</g>
<!-- UsersModule -->
<g id="node19" class="node">
<title>UsersModule</title>
<polygon fill="#8dd3c7" stroke="#000000" points="1171.9218,-122 1168.9218,-126 1147.9218,-126 1144.9218,-122 1080.0782,-122 1080.0782,-86 1171.9218,-86 1171.9218,-122"/>
<text text-anchor="middle" x="1126" y="-99.8" font-family="Times,serif" font-size="14.00" fill="#000000">UsersModule</text>
</g>
<!-- UsersModule&#45;&gt;WorkspaceModule -->
<g id="edge19" class="edge">
<title>UsersModule&#45;&gt;WorkspaceModule</title>
<path fill="none" stroke="#000000" d="M1126,-122.1061C1126,-141.3391 1126,-169 1126,-169 1126,-169 2109.7186,-169 2109.7186,-169"/>
<polygon fill="#000000" stroke="#000000" points="2109.7187,-172.5001 2119.7186,-169 2109.7186,-165.5001 2109.7187,-172.5001"/>
</g>
<!-- WorkspaceRoutingModule -->
<g id="node20" class="node">
<title>WorkspaceRoutingModule</title>
<polygon fill="#8dd3c7" stroke="#000000" points="1061.6316,-122 1058.6316,-126 1037.6316,-126 1034.6316,-122 894.3684,-122 894.3684,-86 1061.6316,-86 1061.6316,-122"/>
<text text-anchor="middle" x="978" y="-99.8" font-family="Times,serif" font-size="14.00" fill="#000000">WorkspaceRoutingModule</text>
</g>
<!-- WorkspaceRoutingModule&#45;&gt;WorkspaceModule -->
<g id="edge20" class="edge">
<title>WorkspaceRoutingModule&#45;&gt;WorkspaceModule</title>
<path fill="none" stroke="#000000" d="M978,-122.2228C978,-142.3652 978,-172 978,-172 978,-172 2109.6892,-172 2109.6892,-172"/>
<polygon fill="#000000" stroke="#000000" points="2109.6892,-175.5001 2119.6892,-172 2109.6891,-168.5001 2109.6892,-175.5001"/>
</g>
<!-- OrganizationSettingsGuard -->
<g id="node22" class="node">
<title>OrganizationSettingsGuard</title>
<ellipse fill="#fdb462" stroke="#000000" cx="753" cy="-104" rx="116.8924" ry="18"/>
<text text-anchor="middle" x="753" y="-99.8" font-family="Times,serif" font-size="14.00" fill="#000000">OrganizationSettingsGuard</text>
</g>
<!-- OrganizationSettingsGuard&#45;&gt;WorkspaceModule -->
<g id="edge22" class="edge">
<title>OrganizationSettingsGuard&#45;&gt;WorkspaceModule</title>
<path fill="none" stroke="#000000" d="M753,-122.2843C753,-143.3211 753,-175 753,-175 753,-175 2109.6406,-175 2109.6406,-175"/>
<polygon fill="#000000" stroke="#000000" points="2109.6407,-178.5001 2119.6406,-175 2109.6406,-171.5001 2109.6407,-178.5001"/>
</g>
<!-- ProjectSettingsGuard -->
<g id="node23" class="node">
<title>ProjectSettingsGuard</title>
<ellipse fill="#fdb462" stroke="#000000" cx="525" cy="-104" rx="93.7746" ry="18"/>
<text text-anchor="middle" x="525" y="-99.8" font-family="Times,serif" font-size="14.00" fill="#000000">ProjectSettingsGuard</text>
</g>
<!-- ProjectSettingsGuard&#45;&gt;WorkspaceModule -->
<g id="edge23" class="edge">
<title>ProjectSettingsGuard&#45;&gt;WorkspaceModule</title>
<path fill="none" stroke="#000000" d="M525,-122.2921C525,-144.2057 525,-178 525,-178 525,-178 2109.6026,-178 2109.6026,-178"/>
<polygon fill="#000000" stroke="#000000" points="2109.6026,-181.5001 2119.6026,-178 2109.6025,-174.5001 2109.6026,-181.5001"/>
</g>
<!-- WorkspaceSelectGuard -->
<g id="node24" class="node">
<title>WorkspaceSelectGuard</title>
<ellipse fill="#fdb462" stroke="#000000" cx="311" cy="-104" rx="102.3868" ry="18"/>
<text text-anchor="middle" x="311" y="-99.8" font-family="Times,serif" font-size="14.00" fill="#000000">WorkspaceSelectGuard</text>
</g>
<!-- WorkspaceSelectGuard&#45;&gt;WorkspaceModule -->
<g id="edge24" class="edge">
<title>WorkspaceSelectGuard&#45;&gt;WorkspaceModule</title>
<path fill="none" stroke="#000000" d="M311,-122.2479C311,-145.0179 311,-181 311,-181 311,-181 2109.8449,-181 2109.8449,-181"/>
<polygon fill="#000000" stroke="#000000" points="2109.845,-184.5001 2119.8449,-181 2109.8449,-177.5001 2109.845,-184.5001"/>
</g>
<!-- WorkspaceService -->
<g id="node25" class="node">
<title>WorkspaceService</title>
<ellipse fill="#fdb462" stroke="#000000" cx="107" cy="-104" rx="83.3461" ry="18"/>
<text text-anchor="middle" x="107" y="-99.8" font-family="Times,serif" font-size="14.00" fill="#000000">WorkspaceService</text>
</g>
<!-- WorkspaceService&#45;&gt;WorkspaceModule -->
<g id="edge25" class="edge">
<title>WorkspaceService&#45;&gt;WorkspaceModule</title>
<path fill="none" stroke="#000000" d="M107,-122.1532C107,-145.7566 107,-184 107,-184 107,-184 2109.7725,-184 2109.7725,-184"/>
<polygon fill="#000000" stroke="#000000" points="2109.7725,-187.5001 2119.7725,-184 2109.7724,-180.5001 2109.7725,-187.5001"/>
</g>
</g>
</svg>
