<?xml version="1.0" encoding="UTF-8" standalone="no"?>
<!DOCTYPE svg PUBLIC "-//W3C//DTD SVG 1.1//EN"
 "http://www.w3.org/Graphics/SVG/1.1/DTD/svg11.dtd">
<!-- Generated by graphviz version 2.40.1 (20161225.0304)
 -->
<!-- Title: dependencies Pages: 1 -->
<svg width="3690pt" height="284pt"
 viewBox="0.00 0.00 3690.00 284.00" xmlns="http://www.w3.org/2000/svg" xmlns:xlink="http://www.w3.org/1999/xlink">
<g id="graph0" class="graph" transform="scale(1 1) rotate(0) translate(4 280)">
<title>dependencies</title>
<polygon fill="#ffffff" stroke="transparent" points="-4,4 -4,-280 3686,-280 3686,4 -4,4"/>
<text text-anchor="start" x="1820.0091" y="-42.4" font-family="sans-serif" font-weight="bold" font-size="14.00" fill="#000000">Legend</text>
<polygon fill="#ffffb3" stroke="transparent" points="1607,-10 1607,-30 1627,-30 1627,-10 1607,-10"/>
<text text-anchor="start" x="1630.629" y="-15.4" font-family="sans-serif" font-size="14.00" fill="#000000"> &#160;Declarations</text>
<polygon fill="#8dd3c7" stroke="transparent" points="1720,-10 1720,-30 1740,-30 1740,-10 1720,-10"/>
<text text-anchor="start" x="1743.7251" y="-15.4" font-family="sans-serif" font-size="14.00" fill="#000000"> &#160;Module</text>
<polygon fill="#80b1d3" stroke="transparent" points="1806,-10 1806,-30 1826,-30 1826,-10 1806,-10"/>
<text text-anchor="start" x="1829.7812" y="-15.4" font-family="sans-serif" font-size="14.00" fill="#000000"> &#160;Bootstrap</text>
<polygon fill="#fdb462" stroke="transparent" points="1903,-10 1903,-30 1923,-30 1923,-10 1903,-10"/>
<text text-anchor="start" x="1926.6732" y="-15.4" font-family="sans-serif" font-size="14.00" fill="#000000"> &#160;Providers</text>
<polygon fill="#fb8072" stroke="transparent" points="1999,-10 1999,-30 2019,-30 2019,-10 1999,-10"/>
<text text-anchor="start" x="2022.7258" y="-15.4" font-family="sans-serif" font-size="14.00" fill="#000000"> &#160;Exports</text>
<g id="clust1" class="cluster">
<title>cluster_WorkspaceModule</title>
<polygon fill="none" stroke="#000000" stroke-dasharray="1,5" points="8,-70 8,-268 3674,-268 3674,-70 8,-70"/>
</g>
<g id="clust2" class="cluster">
<title>cluster_WorkspaceModule_declarations</title>
<polygon fill="none" stroke="#000000" points="738,-78 738,-130 3666,-130 3666,-78 738,-78"/>
</g>
<g id="clust18" class="cluster">
<title>cluster_WorkspaceModule_imports</title>
<polygon fill="none" stroke="#000000" points="206,-78 206,-130 730,-130 730,-78 206,-78"/>
</g>
<g id="clust19" class="cluster">
<title>cluster_WorkspaceModule_exports</title>
<polygon fill="none" stroke="#000000" points="1668,-208 1668,-260 1878,-260 1878,-208 1668,-208"/>
</g>
<g id="clust21" class="cluster">
<title>cluster_WorkspaceModule_providers</title>
<polygon fill="none" stroke="#000000" points="16,-78 16,-130 198,-130 198,-78 16,-78"/>
</g>
<!-- ContactFormComponent -->
<g id="node1" class="node">
<title>ContactFormComponent</title>
<polygon fill="#ffffb3" stroke="#000000" points="3657.7133,-122 3502.2867,-122 3502.2867,-86 3657.7133,-86 3657.7133,-122"/>
<text text-anchor="middle" x="3580" y="-99.8" font-family="Times,serif" font-size="14.00" fill="#000000">ContactFormComponent</text>
</g>
<!-- WorkspaceModule -->
<g id="node16" class="node">
<title>WorkspaceModule</title>
<polygon fill="#8dd3c7" stroke="#000000" points="1834.0144,-187 1831.0144,-191 1810.0144,-191 1807.0144,-187 1711.9856,-187 1711.9856,-151 1834.0144,-151 1834.0144,-187"/>
<text text-anchor="middle" x="1773" y="-164.8" font-family="Times,serif" font-size="14.00" fill="#000000">WorkspaceModule</text>
</g>
<!-- ContactFormComponent&#45;&gt;WorkspaceModule -->
<g id="edge1" class="edge">
<title>ContactFormComponent&#45;&gt;WorkspaceModule</title>
<path fill="none" stroke="#000000" d="M3580,-122.1532C3580,-145.7566 3580,-184 3580,-184 3580,-184 1844.1575,-184 1844.1575,-184"/>
<polygon fill="#000000" stroke="#000000" points="1844.1576,-180.5001 1834.1575,-184 1844.1575,-187.5001 1844.1576,-180.5001"/>
</g>
<!-- OrganizationDetailComponent -->
<g id="node2" class="node">
<title>OrganizationDetailComponent</title>
<polygon fill="#ffffb3" stroke="#000000" points="3484.1232,-122 3295.8768,-122 3295.8768,-86 3484.1232,-86 3484.1232,-122"/>
<text text-anchor="middle" x="3390" y="-99.8" font-family="Times,serif" font-size="14.00" fill="#000000">OrganizationDetailComponent</text>
</g>
<!-- OrganizationDetailComponent&#45;&gt;WorkspaceModule -->
<g id="edge2" class="edge">
<title>OrganizationDetailComponent&#45;&gt;WorkspaceModule</title>
<path fill="none" stroke="#000000" d="M3390,-122.2479C3390,-145.0179 3390,-181 3390,-181 3390,-181 1844.4138,-181 1844.4138,-181"/>
<polygon fill="#000000" stroke="#000000" points="1844.4138,-177.5001 1834.4138,-181 1844.4138,-184.5001 1844.4138,-177.5001"/>
</g>
<!-- OrganizationGroupsComponent -->
<g id="node3" class="node">
<title>OrganizationGroupsComponent</title>
<polygon fill="#ffffb3" stroke="#000000" points="3277.6274,-122 3082.3726,-122 3082.3726,-86 3277.6274,-86 3277.6274,-122"/>
<text text-anchor="middle" x="3180" y="-99.8" font-family="Times,serif" font-size="14.00" fill="#000000">OrganizationGroupsComponent</text>
</g>
<!-- OrganizationGroupsComponent&#45;&gt;WorkspaceModule -->
<g id="edge3" class="edge">
<title>OrganizationGroupsComponent&#45;&gt;WorkspaceModule</title>
<path fill="none" stroke="#000000" d="M3212.6045,-122.2921C3212.6045,-144.2057 3212.6045,-178 3212.6045,-178 3212.6045,-178 1844.3975,-178 1844.3975,-178"/>
<polygon fill="#000000" stroke="#000000" points="1844.3975,-174.5001 1834.3975,-178 1844.3974,-181.5001 1844.3975,-174.5001"/>
</g>
<!-- OrganizationGroupsComponent&#45;&gt;WorkspaceModule -->
<g id="edge4" class="edge">
<title>OrganizationGroupsComponent&#45;&gt;WorkspaceModule</title>
<path fill="none" stroke="#000000" d="M3147.3955,-122.0267C3147.3955,-142.7672 3147.3955,-174 3147.3955,-174 3147.3955,-174 1844.2765,-174 1844.2765,-174"/>
<polygon fill="#000000" stroke="#000000" points="1844.2765,-170.5001 1834.2765,-174 1844.2764,-177.5001 1844.2765,-170.5001"/>
</g>
<!-- OrganizationRegistrationComponent -->
<g id="node4" class="node">
<title>OrganizationRegistrationComponent</title>
<polygon fill="#ffffb3" stroke="#000000" points="3064.3487,-122 2841.6513,-122 2841.6513,-86 3064.3487,-86 3064.3487,-122"/>
<text text-anchor="middle" x="2953" y="-99.8" font-family="Times,serif" font-size="14.00" fill="#000000">OrganizationRegistrationComponent</text>
</g>
<!-- OrganizationRegistrationComponent&#45;&gt;WorkspaceModule -->
<g id="edge5" class="edge">
<title>OrganizationRegistrationComponent&#45;&gt;WorkspaceModule</title>
<path fill="none" stroke="#000000" d="M2953,-122.308C2953,-142.1455 2953,-171 2953,-171 2953,-171 1844.3682,-171 1844.3682,-171"/>
<polygon fill="#000000" stroke="#000000" points="1844.3683,-167.5001 1834.3682,-171 1844.3682,-174.5001 1844.3683,-167.5001"/>
</g>
<!-- OrganizationSettingsComponent -->
<g id="node5" class="node">
<title>OrganizationSettingsComponent</title>
<polygon fill="#ffffb3" stroke="#000000" points="2823.5294,-122 2624.4706,-122 2624.4706,-86 2823.5294,-86 2823.5294,-122"/>
<text text-anchor="middle" x="2724" y="-99.8" font-family="Times,serif" font-size="14.00" fill="#000000">OrganizationSettingsComponent</text>
</g>
<!-- OrganizationSettingsComponent&#45;&gt;WorkspaceModule -->
<g id="edge6" class="edge">
<title>OrganizationSettingsComponent&#45;&gt;WorkspaceModule</title>
<path fill="none" stroke="#000000" d="M2724,-122.1686C2724,-141.0898 2724,-168 2724,-168 2724,-168 1844.3,-168 1844.3,-168"/>
<polygon fill="#000000" stroke="#000000" points="1844.3001,-164.5001 1834.3,-168 1844.3,-171.5001 1844.3001,-164.5001"/>
</g>
<!-- OrganizationUsersComponent -->
<g id="node6" class="node">
<title>OrganizationUsersComponent</title>
<polygon fill="#ffffb3" stroke="#000000" points="2606.2864,-122 2419.7136,-122 2419.7136,-86 2606.2864,-86 2606.2864,-122"/>
<text text-anchor="middle" x="2513" y="-99.8" font-family="Times,serif" font-size="14.00" fill="#000000">OrganizationUsersComponent</text>
</g>
<!-- OrganizationUsersComponent&#45;&gt;WorkspaceModule -->
<g id="edge7" class="edge">
<title>OrganizationUsersComponent&#45;&gt;WorkspaceModule</title>
<path fill="none" stroke="#000000" d="M2513,-122.302C2513,-140.2699 2513,-165 2513,-165 2513,-165 1844.1869,-165 1844.1869,-165"/>
<polygon fill="#000000" stroke="#000000" points="1844.1869,-161.5001 1834.1869,-165 1844.1868,-168.5001 1844.1869,-161.5001"/>
</g>
<!-- PaymentsListComponent -->
<g id="node7" class="node">
<title>PaymentsListComponent</title>
<polygon fill="#ffffb3" stroke="#000000" points="2401.549,-122 2244.451,-122 2244.451,-86 2401.549,-86 2401.549,-122"/>
<text text-anchor="middle" x="2323" y="-99.8" font-family="Times,serif" font-size="14.00" fill="#000000">PaymentsListComponent</text>
</g>
<!-- PaymentsListComponent&#45;&gt;WorkspaceModule -->
<g id="edge8" class="edge">
<title>PaymentsListComponent&#45;&gt;WorkspaceModule</title>
<path fill="none" stroke="#000000" d="M2323,-122.0352C2323,-138.7344 2323,-161 2323,-161 2323,-161 1844.2258,-161 1844.2258,-161"/>
<polygon fill="#000000" stroke="#000000" points="1844.2259,-157.5001 1834.2258,-161 1844.2258,-164.5001 1844.2259,-157.5001"/>
</g>
<!-- PaymentsOrderComponent -->
<g id="node8" class="node">
<title>PaymentsOrderComponent</title>
<polygon fill="#ffffb3" stroke="#000000" points="2226.4129,-122 2057.5871,-122 2057.5871,-86 2226.4129,-86 2226.4129,-122"/>
<text text-anchor="middle" x="2142" y="-99.8" font-family="Times,serif" font-size="14.00" fill="#000000">PaymentsOrderComponent</text>
</g>
<!-- PaymentsOrderComponent&#45;&gt;WorkspaceModule -->
<g id="edge9" class="edge">
<title>PaymentsOrderComponent&#45;&gt;WorkspaceModule</title>
<path fill="none" stroke="#000000" d="M2142,-122.2819C2142,-137.9478 2142,-158 2142,-158 2142,-158 1844.3471,-158 1844.3471,-158"/>
<polygon fill="#000000" stroke="#000000" points="1844.3471,-154.5001 1834.3471,-158 1844.347,-161.5001 1844.3471,-154.5001"/>
</g>
<!-- PaymentsPanelComponent -->
<g id="node9" class="node">
<title>PaymentsPanelComponent</title>
<polygon fill="#ffffb3" stroke="#000000" points="2039.3724,-122 1872.6276,-122 1872.6276,-86 2039.3724,-86 2039.3724,-122"/>
<text text-anchor="middle" x="1956" y="-99.8" font-family="Times,serif" font-size="14.00" fill="#000000">PaymentsPanelComponent</text>
</g>
<!-- PaymentsPanelComponent&#45;&gt;WorkspaceModule -->
<g id="edge10" class="edge">
<title>PaymentsPanelComponent&#45;&gt;WorkspaceModule</title>
<path fill="none" stroke="#000000" d="M1956,-122.1243C1956,-136.7832 1956,-155 1956,-155 1956,-155 1844.1908,-155 1844.1908,-155"/>
<polygon fill="#000000" stroke="#000000" points="1844.1908,-151.5001 1834.1908,-155 1844.1907,-158.5001 1844.1908,-151.5001"/>
</g>
<!-- PaymentsStateComponent -->
<g id="node10" class="node">
<title>PaymentsStateComponent</title>
<polygon fill="#ffffb3" stroke="#000000" points="1854.7632,-122 1691.2368,-122 1691.2368,-86 1854.7632,-86 1854.7632,-122"/>
<text text-anchor="middle" x="1773" y="-99.8" font-family="Times,serif" font-size="14.00" fill="#000000">PaymentsStateComponent</text>
</g>
<!-- PaymentsStateComponent&#45;&gt;WorkspaceModule -->
<g id="edge11" class="edge">
<title>PaymentsStateComponent&#45;&gt;WorkspaceModule</title>
<path fill="none" stroke="#000000" d="M1773,-122.1061C1773,-122.1061 1773,-140.991 1773,-140.991"/>
<polygon fill="#000000" stroke="#000000" points="1769.5001,-140.9909 1773,-150.991 1776.5001,-140.991 1769.5001,-140.9909"/>
</g>
<!-- ProjectSettingsComponent -->
<g id="node11" class="node">
<title>ProjectSettingsComponent</title>
<polygon fill="#ffffb3" stroke="#000000" points="1673.0996,-122 1506.9004,-122 1506.9004,-86 1673.0996,-86 1673.0996,-122"/>
<text text-anchor="middle" x="1590" y="-99.8" font-family="Times,serif" font-size="14.00" fill="#000000">ProjectSettingsComponent</text>
</g>
<!-- ProjectSettingsComponent&#45;&gt;WorkspaceModule -->
<g id="edge12" class="edge">
<title>ProjectSettingsComponent&#45;&gt;WorkspaceModule</title>
<path fill="none" stroke="#000000" d="M1590,-122.1243C1590,-136.7832 1590,-155 1590,-155 1590,-155 1701.8092,-155 1701.8092,-155"/>
<polygon fill="#000000" stroke="#000000" points="1701.8093,-158.5001 1711.8092,-155 1701.8092,-151.5001 1701.8093,-158.5001"/>
</g>
<!-- ProjectUsersComponent -->
<g id="node12" class="node">
<title>ProjectUsersComponent</title>
<polygon fill="#ffffb3" stroke="#000000" points="1489.3571,-122 1336.6429,-122 1336.6429,-86 1489.3571,-86 1489.3571,-122"/>
<text text-anchor="middle" x="1413" y="-99.8" font-family="Times,serif" font-size="14.00" fill="#000000">ProjectUsersComponent</text>
</g>
<!-- ProjectUsersComponent&#45;&gt;WorkspaceModule -->
<g id="edge13" class="edge">
<title>ProjectUsersComponent&#45;&gt;WorkspaceModule</title>
<path fill="none" stroke="#000000" d="M1413,-122.2819C1413,-137.9478 1413,-158 1413,-158 1413,-158 1701.9309,-158 1701.9309,-158"/>
<polygon fill="#000000" stroke="#000000" points="1701.9309,-161.5001 1711.9309,-158 1701.9309,-154.5001 1701.9309,-161.5001"/>
</g>
<!-- ResourceChooserComponent -->
<g id="node13" class="node">
<title>ResourceChooserComponent</title>
<polygon fill="#ffffb3" stroke="#000000" points="1319.0744,-122 1138.9256,-122 1138.9256,-86 1319.0744,-86 1319.0744,-122"/>
<text text-anchor="middle" x="1229" y="-99.8" font-family="Times,serif" font-size="14.00" fill="#000000">ResourceChooserComponent</text>
</g>
<!-- ResourceChooserComponent&#45;&gt;WorkspaceModule -->
<g id="edge14" class="edge">
<title>ResourceChooserComponent&#45;&gt;WorkspaceModule</title>
<path fill="none" stroke="#000000" d="M1229,-122.0352C1229,-138.7344 1229,-161 1229,-161 1229,-161 1701.917,-161 1701.917,-161"/>
<polygon fill="#000000" stroke="#000000" points="1701.917,-164.5001 1711.917,-161 1701.917,-157.5001 1701.917,-164.5001"/>
</g>
<!-- ResourcePostItComponent -->
<g id="node14" class="node">
<title>ResourcePostItComponent</title>
<polygon fill="#ffffb3" stroke="#000000" points="1121.087,-122 954.913,-122 954.913,-86 1121.087,-86 1121.087,-122"/>
<text text-anchor="middle" x="1038" y="-99.8" font-family="Times,serif" font-size="14.00" fill="#000000">ResourcePostItComponent</text>
</g>
<!-- ResourcePostItComponent&#45;&gt;WorkspaceModule -->
<g id="edge15" class="edge">
<title>ResourcePostItComponent&#45;&gt;WorkspaceModule</title>
<path fill="none" stroke="#000000" d="M1038,-122.302C1038,-140.2699 1038,-165 1038,-165 1038,-165 1701.9129,-165 1701.9129,-165"/>
<polygon fill="#000000" stroke="#000000" points="1701.9129,-168.5001 1711.9129,-165 1701.9128,-161.5001 1701.9129,-168.5001"/>
</g>
<!-- WorkspaceChooserComponent -->
<g id="node15" class="node">
<title>WorkspaceChooserComponent</title>
<polygon fill="#ffffb3" stroke="#000000" points="936.4524,-122 745.5476,-122 745.5476,-86 936.4524,-86 936.4524,-122"/>
<text text-anchor="middle" x="841" y="-99.8" font-family="Times,serif" font-size="14.00" fill="#000000">WorkspaceChooserComponent</text>
</g>
<!-- WorkspaceChooserComponent&#45;&gt;WorkspaceModule -->
<g id="edge16" class="edge">
<title>WorkspaceChooserComponent&#45;&gt;WorkspaceModule</title>
<path fill="none" stroke="#000000" d="M841,-122.1686C841,-141.0898 841,-168 841,-168 841,-168 1701.8489,-168 1701.8489,-168"/>
<polygon fill="#000000" stroke="#000000" points="1701.8489,-171.5001 1711.8489,-168 1701.8488,-164.5001 1701.8489,-171.5001"/>
</g>
<!-- WorkspaceChooserComponent  -->
<g id="node21" class="node">
<title>WorkspaceChooserComponent </title>
<polygon fill="#fb8072" stroke="#000000" points="1870.4529,-252 1675.5471,-252 1675.5471,-216 1870.4529,-216 1870.4529,-252"/>
<text text-anchor="middle" x="1773" y="-229.8" font-family="Times,serif" font-size="14.00" fill="#000000">WorkspaceChooserComponent </text>
</g>
<!-- WorkspaceModule&#45;&gt;WorkspaceChooserComponent  -->
<g id="edge21" class="edge">
<title>WorkspaceModule&#45;&gt;WorkspaceChooserComponent </title>
<path fill="none" stroke="#000000" stroke-dasharray="5,2" d="M1773,-187.1061C1773,-187.1061 1773,-205.991 1773,-205.991"/>
<polygon fill="#000000" stroke="#000000" points="1769.5001,-205.9909 1773,-215.991 1776.5001,-205.991 1769.5001,-205.9909"/>
</g>
<!-- PickerModule -->
<g id="node17" class="node">
<title>PickerModule</title>
<polygon fill="#8dd3c7" stroke="#000000" points="721.8133,-122 718.8133,-126 697.8133,-126 694.8133,-122 626.1867,-122 626.1867,-86 721.8133,-86 721.8133,-122"/>
<text text-anchor="middle" x="674" y="-99.8" font-family="Times,serif" font-size="14.00" fill="#000000">PickerModule</text>
</g>
<!-- PickerModule&#45;&gt;WorkspaceModule -->
<g id="edge17" class="edge">
<title>PickerModule&#45;&gt;WorkspaceModule</title>
<path fill="none" stroke="#000000" d="M674,-122.308C674,-142.1455 674,-171 674,-171 674,-171 1701.9534,-171 1701.9534,-171"/>
<polygon fill="#000000" stroke="#000000" points="1701.9534,-174.5001 1711.9534,-171 1701.9533,-167.5001 1701.9534,-174.5001"/>
</g>
<!-- SharedModule -->
<g id="node18" class="node">
<title>SharedModule</title>
<polygon fill="#8dd3c7" stroke="#000000" points="608.4231,-122 605.4231,-126 584.4231,-126 581.4231,-122 509.5769,-122 509.5769,-86 608.4231,-86 608.4231,-122"/>
<text text-anchor="middle" x="559" y="-99.8" font-family="Times,serif" font-size="14.00" fill="#000000">SharedModule</text>
</g>
<!-- SharedModule&#45;&gt;WorkspaceModule -->
<g id="edge18" class="edge">
<title>SharedModule&#45;&gt;WorkspaceModule</title>
<path fill="none" stroke="#000000" d="M559,-122.0267C559,-142.7672 559,-174 559,-174 559,-174 1701.9656,-174 1701.9656,-174"/>
<polygon fill="#000000" stroke="#000000" points="1701.9656,-177.5001 1711.9656,-174 1701.9655,-170.5001 1701.9656,-177.5001"/>
</g>
<!-- UsersModule -->
<g id="node19" class="node">
<title>UsersModule</title>
<polygon fill="#8dd3c7" stroke="#000000" points="491.9218,-122 488.9218,-126 467.9218,-126 464.9218,-122 400.0782,-122 400.0782,-86 491.9218,-86 491.9218,-122"/>
<text text-anchor="middle" x="446" y="-99.8" font-family="Times,serif" font-size="14.00" fill="#000000">UsersModule</text>
</g>
<!-- UsersModule&#45;&gt;WorkspaceModule -->
<g id="edge19" class="edge">
<title>UsersModule&#45;&gt;WorkspaceModule</title>
<path fill="none" stroke="#000000" d="M446,-122.2921C446,-144.2057 446,-178 446,-178 446,-178 1701.6574,-178 1701.6574,-178"/>
<polygon fill="#000000" stroke="#000000" points="1701.6575,-181.5001 1711.6574,-178 1701.6574,-174.5001 1701.6575,-181.5001"/>
</g>
<!-- WorkspaceRoutingModule -->
<g id="node20" class="node">
<title>WorkspaceRoutingModule</title>
<polygon fill="#8dd3c7" stroke="#000000" points="381.6316,-122 378.6316,-126 357.6316,-126 354.6316,-122 214.3684,-122 214.3684,-86 381.6316,-86 381.6316,-122"/>
<text text-anchor="middle" x="298" y="-99.8" font-family="Times,serif" font-size="14.00" fill="#000000">WorkspaceRoutingModule</text>
</g>
<!-- WorkspaceRoutingModule&#45;&gt;WorkspaceModule -->
<g id="edge20" class="edge">
<title>WorkspaceRoutingModule&#45;&gt;WorkspaceModule</title>
<path fill="none" stroke="#000000" d="M298,-122.2479C298,-145.0179 298,-181 298,-181 298,-181 1701.9645,-181 1701.9645,-181"/>
<polygon fill="#000000" stroke="#000000" points="1701.9645,-184.5001 1711.9645,-181 1701.9644,-177.5001 1701.9645,-184.5001"/>
</g>
<!-- WorkspaceService -->
<g id="node22" class="node">
<title>WorkspaceService</title>
<ellipse fill="#fdb462" stroke="#000000" cx="107" cy="-104" rx="83.3461" ry="18"/>
<text text-anchor="middle" x="107" y="-99.8" font-family="Times,serif" font-size="14.00" fill="#000000">WorkspaceService</text>
</g>
<!-- WorkspaceService&#45;&gt;WorkspaceModule -->
<g id="edge22" class="edge">
<title>WorkspaceService&#45;&gt;WorkspaceModule</title>
<path fill="none" stroke="#000000" d="M107,-122.1532C107,-145.7566 107,-184 107,-184 107,-184 1701.7304,-184 1701.7304,-184"/>
<polygon fill="#000000" stroke="#000000" points="1701.7304,-187.5001 1711.7304,-184 1701.7303,-180.5001 1701.7304,-187.5001"/>
</g>
</g>
</svg>
