<?xml version="1.0" encoding="UTF-8" standalone="no"?>
<!DOCTYPE svg PUBLIC "-//W3C//DTD SVG 1.1//EN"
 "http://www.w3.org/Graphics/SVG/1.1/DTD/svg11.dtd">
<!-- Generated by graphviz version 2.40.1 (20161225.0304)
 -->
<!-- Title: dependencies Pages: 1 -->
<svg width="748pt" height="284pt"
 viewBox="0.00 0.00 748.00 284.00" xmlns="http://www.w3.org/2000/svg" xmlns:xlink="http://www.w3.org/1999/xlink">
<g id="graph0" class="graph" transform="scale(1 1) rotate(0) translate(4 280)">
<title>dependencies</title>
<polygon fill="#ffffff" stroke="transparent" points="-4,4 -4,-280 744,-280 744,4 -4,4"/>
<text text-anchor="start" x="349.0091" y="-42.4" font-family="sans-serif" font-weight="bold" font-size="14.00" fill="#000000">Legend</text>
<polygon fill="#ffffb3" stroke="transparent" points="136,-10 136,-30 156,-30 156,-10 136,-10"/>
<text text-anchor="start" x="159.629" y="-15.4" font-family="sans-serif" font-size="14.00" fill="#000000"> &#160;Declarations</text>
<polygon fill="#8dd3c7" stroke="transparent" points="249,-10 249,-30 269,-30 269,-10 249,-10"/>
<text text-anchor="start" x="272.7251" y="-15.4" font-family="sans-serif" font-size="14.00" fill="#000000"> &#160;Module</text>
<polygon fill="#80b1d3" stroke="transparent" points="335,-10 335,-30 355,-30 355,-10 335,-10"/>
<text text-anchor="start" x="358.7812" y="-15.4" font-family="sans-serif" font-size="14.00" fill="#000000"> &#160;Bootstrap</text>
<polygon fill="#fdb462" stroke="transparent" points="432,-10 432,-30 452,-30 452,-10 432,-10"/>
<text text-anchor="start" x="455.6732" y="-15.4" font-family="sans-serif" font-size="14.00" fill="#000000"> &#160;Providers</text>
<polygon fill="#fb8072" stroke="transparent" points="528,-10 528,-30 548,-30 548,-10 528,-10"/>
<text text-anchor="start" x="551.7258" y="-15.4" font-family="sans-serif" font-size="14.00" fill="#000000"> &#160;Exports</text>
<g id="clust1" class="cluster">
<title>cluster_WarningMessageModule</title>
<polygon fill="none" stroke="#000000" stroke-dasharray="1,5" points="8,-70 8,-268 732,-268 732,-70 8,-70"/>
</g>
<g id="clust2" class="cluster">
<title>cluster_WarningMessageModule_declarations</title>
<polygon fill="none" stroke="#000000" points="24,-78 24,-130 718,-130 718,-78 24,-78"/>
</g>
<g id="clust8" class="cluster">
<title>cluster_WarningMessageModule_exports</title>
<polygon fill="none" stroke="#000000" points="16,-208 16,-260 724,-260 724,-208 16,-208"/>
</g>
<!-- EmptyRecordsComponent -->
<g id="node1" class="node">
<title>EmptyRecordsComponent</title>
<polygon fill="#ffffb3" stroke="#000000" points="710.0378,-122 545.9622,-122 545.9622,-86 710.0378,-86 710.0378,-122"/>
<text text-anchor="middle" x="628" y="-99.8" font-family="Times,serif" font-size="14.00" fill="#000000">EmptyRecordsComponent</text>
</g>
<!-- WarningMessageModule -->
<g id="node5" class="node">
<title>WarningMessageModule</title>
<polygon fill="#8dd3c7" stroke="#000000" points="360.5086,-187 357.5086,-191 336.5086,-191 333.5086,-187 203.4914,-187 203.4914,-151 360.5086,-151 360.5086,-187"/>
<text text-anchor="middle" x="282" y="-164.8" font-family="Times,serif" font-size="14.00" fill="#000000">WarningMessageModule</text>
</g>
<!-- EmptyRecordsComponent&#45;&gt;WarningMessageModule -->
<g id="edge1" class="edge">
<title>EmptyRecordsComponent&#45;&gt;WarningMessageModule</title>
<path fill="none" stroke="#000000" d="M656.1729,-122.0225C656.1729,-139.3734 656.1729,-163 656.1729,-163 656.1729,-163 370.8952,-163 370.8952,-163"/>
<polygon fill="#000000" stroke="#000000" points="370.8953,-159.5001 360.8952,-163 370.8952,-166.5001 370.8953,-159.5001"/>
</g>
<!-- EmptySearchComponent -->
<g id="node2" class="node">
<title>EmptySearchComponent</title>
<polygon fill="#ffffb3" stroke="#000000" points="527.2534,-122 370.7466,-122 370.7466,-86 527.2534,-86 527.2534,-122"/>
<text text-anchor="middle" x="449" y="-99.8" font-family="Times,serif" font-size="14.00" fill="#000000">EmptySearchComponent</text>
</g>
<!-- EmptySearchComponent&#45;&gt;WarningMessageModule -->
<g id="edge2" class="edge">
<title>EmptySearchComponent&#45;&gt;WarningMessageModule</title>
<path fill="none" stroke="#000000" d="M370.5842,-104C362.1412,-104 356.5418,-104 356.5418,-104 356.5418,-104 356.5418,-140.8939 356.5418,-140.8939"/>
<polygon fill="#000000" stroke="#000000" points="353.0418,-140.8938 356.5418,-150.8939 360.0418,-140.8939 353.0418,-140.8938"/>
</g>
<!-- EmptyStateComponent -->
<g id="node3" class="node">
<title>EmptyStateComponent</title>
<polygon fill="#ffffb3" stroke="#000000" points="352.1596,-122 205.8404,-122 205.8404,-86 352.1596,-86 352.1596,-122"/>
<text text-anchor="middle" x="279" y="-99.8" font-family="Times,serif" font-size="14.00" fill="#000000">EmptyStateComponent</text>
</g>
<!-- EmptyStateComponent&#45;&gt;WarningMessageModule -->
<g id="edge3" class="edge">
<title>EmptyStateComponent&#45;&gt;WarningMessageModule</title>
<path fill="none" stroke="#000000" d="M279,-122.1061C279,-122.1061 279,-140.991 279,-140.991"/>
<polygon fill="#000000" stroke="#000000" points="275.5001,-140.9909 279,-150.991 282.5001,-140.991 275.5001,-140.9909"/>
</g>
<!-- InvalidQueryComponent -->
<g id="node4" class="node">
<title>InvalidQueryComponent</title>
<polygon fill="#ffffb3" stroke="#000000" points="187.9706,-122 32.0294,-122 32.0294,-86 187.9706,-86 187.9706,-122"/>
<text text-anchor="middle" x="110" y="-99.8" font-family="Times,serif" font-size="14.00" fill="#000000">InvalidQueryComponent</text>
</g>
<!-- InvalidQueryComponent&#45;&gt;WarningMessageModule -->
<g id="edge4" class="edge">
<title>InvalidQueryComponent&#45;&gt;WarningMessageModule</title>
<path fill="none" stroke="#000000" d="M133.1618,-122.0225C133.1618,-139.3734 133.1618,-163 133.1618,-163 133.1618,-163 193.2226,-163 193.2226,-163"/>
<polygon fill="#000000" stroke="#000000" points="193.2226,-166.5001 203.2226,-163 193.2226,-159.5001 193.2226,-166.5001"/>
</g>
<!-- EmptyRecordsComponent  -->
<g id="node6" class="node">
<title>EmptyRecordsComponent </title>
<polygon fill="#fb8072" stroke="#000000" points="716.0372,-252 547.9628,-252 547.9628,-216 716.0372,-216 716.0372,-252"/>
<text text-anchor="middle" x="632" y="-229.8" font-family="Times,serif" font-size="14.00" fill="#000000">EmptyRecordsComponent </text>
</g>
<!-- WarningMessageModule&#45;&gt;EmptyRecordsComponent  -->
<g id="edge5" class="edge">
<title>WarningMessageModule&#45;&gt;EmptyRecordsComponent </title>
<path fill="none" stroke="#000000" stroke-dasharray="5,2" d="M360.7096,-175C455.4814,-175 602.0771,-175 602.0771,-175 602.0771,-175 602.0771,-205.9775 602.0771,-205.9775"/>
<polygon fill="#000000" stroke="#000000" points="598.5772,-205.9774 602.0771,-215.9775 605.5772,-205.9775 598.5772,-205.9774"/>
</g>
<!-- EmptySearchComponent  -->
<g id="node7" class="node">
<title>EmptySearchComponent </title>
<polygon fill="#fb8072" stroke="#000000" points="530.2534,-252 369.7466,-252 369.7466,-216 530.2534,-216 530.2534,-252"/>
<text text-anchor="middle" x="450" y="-229.8" font-family="Times,serif" font-size="14.00" fill="#000000">EmptySearchComponent </text>
</g>
<!-- WarningMessageModule&#45;&gt;EmptySearchComponent  -->
<g id="edge6" class="edge">
<title>WarningMessageModule&#45;&gt;EmptySearchComponent </title>
<path fill="none" stroke="#000000" stroke-dasharray="5,2" d="M356.4168,-187.1061C356.4168,-206.3391 356.4168,-234 356.4168,-234 356.4168,-234 359.8249,-234 359.8249,-234"/>
<polygon fill="#000000" stroke="#000000" points="359.825,-237.5001 369.8249,-234 359.8249,-230.5001 359.825,-237.5001"/>
</g>
<!-- EmptyStateComponent  -->
<g id="node8" class="node">
<title>EmptyStateComponent </title>
<polygon fill="#fb8072" stroke="#000000" points="352.1593,-252 201.8407,-252 201.8407,-216 352.1593,-216 352.1593,-252"/>
<text text-anchor="middle" x="277" y="-229.8" font-family="Times,serif" font-size="14.00" fill="#000000">EmptyStateComponent </text>
</g>
<!-- WarningMessageModule&#45;&gt;EmptyStateComponent  -->
<g id="edge7" class="edge">
<title>WarningMessageModule&#45;&gt;EmptyStateComponent </title>
<path fill="none" stroke="#000000" stroke-dasharray="5,2" d="M277.6629,-187.1061C277.6629,-187.1061 277.6629,-205.991 277.6629,-205.991"/>
<polygon fill="#000000" stroke="#000000" points="274.1629,-205.9909 277.6629,-215.991 281.1629,-205.991 274.1629,-205.9909"/>
</g>
<!-- InvalidQueryComponent  -->
<g id="node9" class="node">
<title>InvalidQueryComponent </title>
<polygon fill="#fb8072" stroke="#000000" points="183.9713,-252 24.0287,-252 24.0287,-216 183.9713,-216 183.9713,-252"/>
<text text-anchor="middle" x="104" y="-229.8" font-family="Times,serif" font-size="14.00" fill="#000000">InvalidQueryComponent </text>
</g>
<!-- WarningMessageModule&#45;&gt;InvalidQueryComponent  -->
<g id="edge8" class="edge">
<title>WarningMessageModule&#45;&gt;InvalidQueryComponent </title>
<path fill="none" stroke="#000000" stroke-dasharray="5,2" d="M203.4734,-175C147.6705,-175 82.5882,-175 82.5882,-175 82.5882,-175 82.5882,-205.9775 82.5882,-205.9775"/>
<polygon fill="#000000" stroke="#000000" points="79.0881,-205.9775 82.5882,-215.9775 86.0881,-205.9774 79.0881,-205.9775"/>
</g>
</g>
</svg>
