<?xml version="1.0" encoding="UTF-8" standalone="no"?>
<!DOCTYPE svg PUBLIC "-//W3C//DTD SVG 1.1//EN"
 "http://www.w3.org/Graphics/SVG/1.1/DTD/svg11.dtd">
<!-- Generated by graphviz version 2.40.1 (20161225.0304)
 -->
<!-- Title: dependencies Pages: 1 -->
<svg width="656pt" height="284pt"
 viewBox="0.00 0.00 656.00 284.00" xmlns="http://www.w3.org/2000/svg" xmlns:xlink="http://www.w3.org/1999/xlink">
<g id="graph0" class="graph" transform="scale(1 1) rotate(0) translate(4 280)">
<title>dependencies</title>
<polygon fill="#ffffff" stroke="transparent" points="-4,4 -4,-280 652,-280 652,4 -4,4"/>
<text text-anchor="start" x="303.0091" y="-42.4" font-family="sans-serif" font-weight="bold" font-size="14.00" fill="#000000">Legend</text>
<polygon fill="#ffffb3" stroke="transparent" points="90,-10 90,-30 110,-30 110,-10 90,-10"/>
<text text-anchor="start" x="113.629" y="-15.4" font-family="sans-serif" font-size="14.00" fill="#000000"> &#160;Declarations</text>
<polygon fill="#8dd3c7" stroke="transparent" points="203,-10 203,-30 223,-30 223,-10 203,-10"/>
<text text-anchor="start" x="226.7251" y="-15.4" font-family="sans-serif" font-size="14.00" fill="#000000"> &#160;Module</text>
<polygon fill="#80b1d3" stroke="transparent" points="289,-10 289,-30 309,-30 309,-10 289,-10"/>
<text text-anchor="start" x="312.7812" y="-15.4" font-family="sans-serif" font-size="14.00" fill="#000000"> &#160;Bootstrap</text>
<polygon fill="#fdb462" stroke="transparent" points="386,-10 386,-30 406,-30 406,-10 386,-10"/>
<text text-anchor="start" x="409.6732" y="-15.4" font-family="sans-serif" font-size="14.00" fill="#000000"> &#160;Providers</text>
<polygon fill="#fb8072" stroke="transparent" points="482,-10 482,-30 502,-30 502,-10 482,-10"/>
<text text-anchor="start" x="505.7258" y="-15.4" font-family="sans-serif" font-size="14.00" fill="#000000"> &#160;Exports</text>
<g id="clust1" class="cluster">
<title>cluster_PreviewResultsModule</title>
<polygon fill="none" stroke="#000000" stroke-dasharray="1,5" points="8,-70 8,-268 640,-268 640,-70 8,-70"/>
</g>
<g id="clust2" class="cluster">
<title>cluster_PreviewResultsModule_declarations</title>
<polygon fill="none" stroke="#000000" points="16,-78 16,-130 632,-130 632,-78 16,-78"/>
</g>
<g id="clust7" class="cluster">
<title>cluster_PreviewResultsModule_exports</title>
<polygon fill="none" stroke="#000000" points="244,-208 244,-260 432,-260 432,-208 244,-208"/>
</g>
<!-- PreviewResultsComponent -->
<g id="node1" class="node">
<title>PreviewResultsComponent</title>
<polygon fill="#ffffb3" stroke="#000000" points="624.4241,-122 455.5759,-122 455.5759,-86 624.4241,-86 624.4241,-122"/>
<text text-anchor="middle" x="540" y="-99.8" font-family="Times,serif" font-size="14.00" fill="#000000">PreviewResultsComponent</text>
</g>
<!-- PreviewResultsModule -->
<g id="node4" class="node">
<title>PreviewResultsModule</title>
<polygon fill="#8dd3c7" stroke="#000000" points="411.1414,-187 408.1414,-191 387.1414,-191 384.1414,-187 264.8586,-187 264.8586,-151 411.1414,-151 411.1414,-187"/>
<text text-anchor="middle" x="338" y="-164.8" font-family="Times,serif" font-size="14.00" fill="#000000">PreviewResultsModule</text>
</g>
<!-- PreviewResultsComponent&#45;&gt;PreviewResultsModule -->
<g id="edge1" class="edge">
<title>PreviewResultsComponent&#45;&gt;PreviewResultsModule</title>
<path fill="none" stroke="#000000" d="M540,-122.1061C540,-141.3391 540,-169 540,-169 540,-169 421.2122,-169 421.2122,-169"/>
<polygon fill="#000000" stroke="#000000" points="421.2123,-165.5001 411.2122,-169 421.2122,-172.5001 421.2123,-165.5001"/>
</g>
<!-- PreviewResultsTableComponent -->
<g id="node2" class="node">
<title>PreviewResultsTableComponent</title>
<polygon fill="#ffffb3" stroke="#000000" points="438.2962,-122 237.7038,-122 237.7038,-86 438.2962,-86 438.2962,-122"/>
<text text-anchor="middle" x="338" y="-99.8" font-family="Times,serif" font-size="14.00" fill="#000000">PreviewResultsTableComponent</text>
</g>
<!-- PreviewResultsTableComponent&#45;&gt;PreviewResultsModule -->
<g id="edge2" class="edge">
<title>PreviewResultsTableComponent&#45;&gt;PreviewResultsModule</title>
<path fill="none" stroke="#000000" d="M338,-122.1061C338,-122.1061 338,-140.991 338,-140.991"/>
<polygon fill="#000000" stroke="#000000" points="334.5001,-140.9909 338,-150.991 341.5001,-140.991 334.5001,-140.9909"/>
</g>
<!-- PreviewResultsTabsComponent -->
<g id="node3" class="node">
<title>PreviewResultsTabsComponent</title>
<polygon fill="#ffffb3" stroke="#000000" points="219.6357,-122 24.3643,-122 24.3643,-86 219.6357,-86 219.6357,-122"/>
<text text-anchor="middle" x="122" y="-99.8" font-family="Times,serif" font-size="14.00" fill="#000000">PreviewResultsTabsComponent</text>
</g>
<!-- PreviewResultsTabsComponent&#45;&gt;PreviewResultsModule -->
<g id="edge3" class="edge">
<title>PreviewResultsTabsComponent&#45;&gt;PreviewResultsModule</title>
<path fill="none" stroke="#000000" d="M122,-122.1061C122,-141.3391 122,-169 122,-169 122,-169 254.5709,-169 254.5709,-169"/>
<polygon fill="#000000" stroke="#000000" points="254.5709,-172.5001 264.5709,-169 254.5708,-165.5001 254.5709,-172.5001"/>
</g>
<!-- PreviewResultsComponent  -->
<g id="node5" class="node">
<title>PreviewResultsComponent </title>
<polygon fill="#fb8072" stroke="#000000" points="423.9236,-252 252.0764,-252 252.0764,-216 423.9236,-216 423.9236,-252"/>
<text text-anchor="middle" x="338" y="-229.8" font-family="Times,serif" font-size="14.00" fill="#000000">PreviewResultsComponent </text>
</g>
<!-- PreviewResultsModule&#45;&gt;PreviewResultsComponent  -->
<g id="edge4" class="edge">
<title>PreviewResultsModule&#45;&gt;PreviewResultsComponent </title>
<path fill="none" stroke="#000000" stroke-dasharray="5,2" d="M338,-187.1061C338,-187.1061 338,-205.991 338,-205.991"/>
<polygon fill="#000000" stroke="#000000" points="334.5001,-205.9909 338,-215.991 341.5001,-205.991 334.5001,-205.9909"/>
</g>
</g>
</svg>
