<?xml version="1.0" encoding="UTF-8" standalone="no"?>
<!DOCTYPE svg PUBLIC "-//W3C//DTD SVG 1.1//EN"
 "http://www.w3.org/Graphics/SVG/1.1/DTD/svg11.dtd">
<!-- Generated by graphviz version 2.40.1 (20161225.0304)
 -->
<!-- Title: dependencies Pages: 1 -->
<svg width="1389pt" height="211pt"
 viewBox="0.00 0.00 1389.00 211.00" xmlns="http://www.w3.org/2000/svg" xmlns:xlink="http://www.w3.org/1999/xlink">
<g id="graph0" class="graph" transform="scale(1 1) rotate(0) translate(4 207)">
<title>dependencies</title>
<polygon fill="#ffffff" stroke="transparent" points="-4,4 -4,-207 1385,-207 1385,4 -4,4"/>
<text text-anchor="start" x="669.5091" y="-42.4" font-family="sans-serif" font-weight="bold" font-size="14.00" fill="#000000">Legend</text>
<polygon fill="#ffffb3" stroke="transparent" points="456.5,-10 456.5,-30 476.5,-30 476.5,-10 456.5,-10"/>
<text text-anchor="start" x="480.129" y="-15.4" font-family="sans-serif" font-size="14.00" fill="#000000"> &#160;Declarations</text>
<polygon fill="#8dd3c7" stroke="transparent" points="569.5,-10 569.5,-30 589.5,-30 589.5,-10 569.5,-10"/>
<text text-anchor="start" x="593.2251" y="-15.4" font-family="sans-serif" font-size="14.00" fill="#000000"> &#160;Module</text>
<polygon fill="#80b1d3" stroke="transparent" points="655.5,-10 655.5,-30 675.5,-30 675.5,-10 655.5,-10"/>
<text text-anchor="start" x="679.2812" y="-15.4" font-family="sans-serif" font-size="14.00" fill="#000000"> &#160;Bootstrap</text>
<polygon fill="#fdb462" stroke="transparent" points="752.5,-10 752.5,-30 772.5,-30 772.5,-10 752.5,-10"/>
<text text-anchor="start" x="776.1732" y="-15.4" font-family="sans-serif" font-size="14.00" fill="#000000"> &#160;Providers</text>
<polygon fill="#fb8072" stroke="transparent" points="848.5,-10 848.5,-30 868.5,-30 868.5,-10 848.5,-10"/>
<text text-anchor="start" x="872.2258" y="-15.4" font-family="sans-serif" font-size="14.00" fill="#000000"> &#160;Exports</text>
<g id="clust1" class="cluster">
<title>cluster_ShareViewDialogModule</title>
<polygon fill="none" stroke="#000000" stroke-dasharray="1,5" points="8,-70 8,-195 1373,-195 1373,-70 8,-70"/>
</g>
<g id="clust2" class="cluster">
<title>cluster_ShareViewDialogModule_declarations</title>
<polygon fill="none" stroke="#000000" points="303,-78 303,-130 1365,-130 1365,-78 303,-78"/>
</g>
<g id="clust9" class="cluster">
<title>cluster_ShareViewDialogModule_imports</title>
<polygon fill="none" stroke="#000000" points="16,-78 16,-130 295,-130 295,-78 16,-78"/>
</g>
<!-- ShareUserComponent -->
<g id="node1" class="node">
<title>ShareUserComponent</title>
<polygon fill="#ffffb3" stroke="#000000" points="1356.6317,-122 1217.3683,-122 1217.3683,-86 1356.6317,-86 1356.6317,-122"/>
<text text-anchor="middle" x="1287" y="-99.8" font-family="Times,serif" font-size="14.00" fill="#000000">ShareUserComponent</text>
</g>
<!-- ShareViewDialogModule -->
<g id="node7" class="node">
<title>ShareViewDialogModule</title>
<polygon fill="#8dd3c7" stroke="#000000" points="723.8431,-187 720.8431,-191 699.8431,-191 696.8431,-187 564.1569,-187 564.1569,-151 723.8431,-151 723.8431,-187"/>
<text text-anchor="middle" x="644" y="-164.8" font-family="Times,serif" font-size="14.00" fill="#000000">ShareViewDialogModule</text>
</g>
<!-- ShareUserComponent&#45;&gt;ShareViewDialogModule -->
<g id="edge1" class="edge">
<title>ShareUserComponent&#45;&gt;ShareViewDialogModule</title>
<path fill="none" stroke="#000000" d="M1287,-122.2921C1287,-144.2057 1287,-178 1287,-178 1287,-178 734.1363,-178 734.1363,-178"/>
<polygon fill="#000000" stroke="#000000" points="734.1363,-174.5001 724.1363,-178 734.1363,-181.5001 734.1363,-174.5001"/>
</g>
<!-- ShareViewCopyComponent -->
<g id="node2" class="node">
<title>ShareViewCopyComponent</title>
<polygon fill="#ffffb3" stroke="#000000" points="1198.8599,-122 1025.1401,-122 1025.1401,-86 1198.8599,-86 1198.8599,-122"/>
<text text-anchor="middle" x="1112" y="-99.8" font-family="Times,serif" font-size="14.00" fill="#000000">ShareViewCopyComponent</text>
</g>
<!-- ShareViewCopyComponent&#45;&gt;ShareViewDialogModule -->
<g id="edge2" class="edge">
<title>ShareViewCopyComponent&#45;&gt;ShareViewDialogModule</title>
<path fill="none" stroke="#000000" d="M1112,-122.1061C1112,-141.3391 1112,-169 1112,-169 1112,-169 733.9203,-169 733.9203,-169"/>
<polygon fill="#000000" stroke="#000000" points="733.9203,-165.5001 723.9203,-169 733.9203,-172.5001 733.9203,-165.5001"/>
</g>
<!-- ShareViewDialogComponent -->
<g id="node3" class="node">
<title>ShareViewDialogComponent</title>
<polygon fill="#ffffb3" stroke="#000000" points="1006.626,-122 825.374,-122 825.374,-86 1006.626,-86 1006.626,-122"/>
<text text-anchor="middle" x="916" y="-99.8" font-family="Times,serif" font-size="14.00" fill="#000000">ShareViewDialogComponent</text>
</g>
<!-- ShareViewDialogComponent&#45;&gt;ShareViewDialogModule -->
<g id="edge3" class="edge">
<title>ShareViewDialogComponent&#45;&gt;ShareViewDialogModule</title>
<path fill="none" stroke="#000000" d="M916,-122.027C916,-138.3976 916,-160 916,-160 916,-160 734.1378,-160 734.1378,-160"/>
<polygon fill="#000000" stroke="#000000" points="734.1379,-156.5001 724.1378,-160 734.1378,-163.5001 734.1379,-156.5001"/>
</g>
<!-- ShareViewInputComponent -->
<g id="node4" class="node">
<title>ShareViewInputComponent</title>
<polygon fill="#ffffb3" stroke="#000000" points="807.5744,-122 634.4256,-122 634.4256,-86 807.5744,-86 807.5744,-122"/>
<text text-anchor="middle" x="721" y="-99.8" font-family="Times,serif" font-size="14.00" fill="#000000">ShareViewInputComponent</text>
</g>
<!-- ShareViewInputComponent&#45;&gt;ShareViewDialogModule -->
<g id="edge4" class="edge">
<title>ShareViewInputComponent&#45;&gt;ShareViewDialogModule</title>
<path fill="none" stroke="#000000" d="M679.1922,-122.1061C679.1922,-122.1061 679.1922,-140.991 679.1922,-140.991"/>
<polygon fill="#000000" stroke="#000000" points="675.6922,-140.9909 679.1922,-150.991 682.6922,-140.991 675.6922,-140.9909"/>
</g>
<!-- UserRolesPipe -->
<g id="node5" class="node">
<title>UserRolesPipe</title>
<polygon fill="#ffffb3" stroke="#000000" points="616.7008,-122 517.2992,-122 517.2992,-86 616.7008,-86 616.7008,-122"/>
<text text-anchor="middle" x="567" y="-99.8" font-family="Times,serif" font-size="14.00" fill="#000000">UserRolesPipe</text>
</g>
<!-- UserRolesPipe&#45;&gt;ShareViewDialogModule -->
<g id="edge5" class="edge">
<title>UserRolesPipe&#45;&gt;ShareViewDialogModule</title>
<path fill="none" stroke="#000000" d="M590.3394,-122.1061C590.3394,-122.1061 590.3394,-140.991 590.3394,-140.991"/>
<polygon fill="#000000" stroke="#000000" points="586.8395,-140.9909 590.3394,-150.991 593.8395,-140.991 586.8395,-140.9909"/>
</g>
<!-- ViewPermissionsChangedPipe -->
<g id="node6" class="node">
<title>ViewPermissionsChangedPipe</title>
<polygon fill="#ffffb3" stroke="#000000" points="499.1358,-122 310.8642,-122 310.8642,-86 499.1358,-86 499.1358,-122"/>
<text text-anchor="middle" x="405" y="-99.8" font-family="Times,serif" font-size="14.00" fill="#000000">ViewPermissionsChangedPipe</text>
</g>
<!-- ViewPermissionsChangedPipe&#45;&gt;ShareViewDialogModule -->
<g id="edge6" class="edge">
<title>ViewPermissionsChangedPipe&#45;&gt;ShareViewDialogModule</title>
<path fill="none" stroke="#000000" d="M405,-122.027C405,-138.3976 405,-160 405,-160 405,-160 554.0842,-160 554.0842,-160"/>
<polygon fill="#000000" stroke="#000000" points="554.0842,-163.5001 564.0842,-160 554.0841,-156.5001 554.0842,-163.5001"/>
</g>
<!-- DialogWrapperModule -->
<g id="node8" class="node">
<title>DialogWrapperModule</title>
<polygon fill="#8dd3c7" stroke="#000000" points="287.1177,-122 284.1177,-126 263.1177,-126 260.1177,-122 140.8823,-122 140.8823,-86 287.1177,-86 287.1177,-122"/>
<text text-anchor="middle" x="214" y="-99.8" font-family="Times,serif" font-size="14.00" fill="#000000">DialogWrapperModule</text>
</g>
<!-- DialogWrapperModule&#45;&gt;ShareViewDialogModule -->
<g id="edge7" class="edge">
<title>DialogWrapperModule&#45;&gt;ShareViewDialogModule</title>
<path fill="none" stroke="#000000" d="M214,-122.1061C214,-141.3391 214,-169 214,-169 214,-169 554.128,-169 554.128,-169"/>
<polygon fill="#000000" stroke="#000000" points="554.1281,-172.5001 564.128,-169 554.128,-165.5001 554.1281,-172.5001"/>
</g>
<!-- SharedModule -->
<g id="node9" class="node">
<title>SharedModule</title>
<polygon fill="#8dd3c7" stroke="#000000" points="122.4231,-122 119.4231,-126 98.4231,-126 95.4231,-122 23.5769,-122 23.5769,-86 122.4231,-86 122.4231,-122"/>
<text text-anchor="middle" x="73" y="-99.8" font-family="Times,serif" font-size="14.00" fill="#000000">SharedModule</text>
</g>
<!-- SharedModule&#45;&gt;ShareViewDialogModule -->
<g id="edge8" class="edge">
<title>SharedModule&#45;&gt;ShareViewDialogModule</title>
<path fill="none" stroke="#000000" d="M73,-122.2921C73,-144.2057 73,-178 73,-178 73,-178 554.0037,-178 554.0037,-178"/>
<polygon fill="#000000" stroke="#000000" points="554.0037,-181.5001 564.0037,-178 554.0036,-174.5001 554.0037,-181.5001"/>
</g>
</g>
</svg>
