<?xml version="1.0" encoding="UTF-8" standalone="no"?>
<!DOCTYPE svg PUBLIC "-//W3C//DTD SVG 1.1//EN"
 "http://www.w3.org/Graphics/SVG/1.1/DTD/svg11.dtd">
<!-- Generated by graphviz version 2.40.1 (20161225.0304)
 -->
<!-- Title: dependencies Pages: 1 -->
<svg width="2241pt" height="284pt"
 viewBox="0.00 0.00 2241.00 284.00" xmlns="http://www.w3.org/2000/svg" xmlns:xlink="http://www.w3.org/1999/xlink">
<g id="graph0" class="graph" transform="scale(1 1) rotate(0) translate(4 280)">
<title>dependencies</title>
<polygon fill="#ffffff" stroke="transparent" points="-4,4 -4,-280 2237,-280 2237,4 -4,4"/>
<text text-anchor="start" x="1095.5091" y="-42.4" font-family="sans-serif" font-weight="bold" font-size="14.00" fill="#000000">Legend</text>
<polygon fill="#ffffb3" stroke="transparent" points="882.5,-10 882.5,-30 902.5,-30 902.5,-10 882.5,-10"/>
<text text-anchor="start" x="906.129" y="-15.4" font-family="sans-serif" font-size="14.00" fill="#000000"> &#160;Declarations</text>
<polygon fill="#8dd3c7" stroke="transparent" points="995.5,-10 995.5,-30 1015.5,-30 1015.5,-10 995.5,-10"/>
<text text-anchor="start" x="1019.2251" y="-15.4" font-family="sans-serif" font-size="14.00" fill="#000000"> &#160;Module</text>
<polygon fill="#80b1d3" stroke="transparent" points="1081.5,-10 1081.5,-30 1101.5,-30 1101.5,-10 1081.5,-10"/>
<text text-anchor="start" x="1105.2812" y="-15.4" font-family="sans-serif" font-size="14.00" fill="#000000"> &#160;Bootstrap</text>
<polygon fill="#fdb462" stroke="transparent" points="1178.5,-10 1178.5,-30 1198.5,-30 1198.5,-10 1178.5,-10"/>
<text text-anchor="start" x="1202.1732" y="-15.4" font-family="sans-serif" font-size="14.00" fill="#000000"> &#160;Providers</text>
<polygon fill="#fb8072" stroke="transparent" points="1274.5,-10 1274.5,-30 1294.5,-30 1294.5,-10 1274.5,-10"/>
<text text-anchor="start" x="1298.2258" y="-15.4" font-family="sans-serif" font-size="14.00" fill="#000000"> &#160;Exports</text>
<g id="clust1" class="cluster">
<title>cluster_SmartDocPerspectiveModule</title>
<polygon fill="none" stroke="#000000" stroke-dasharray="1,5" points="8,-70 8,-268 2225,-268 2225,-70 8,-70"/>
</g>
<g id="clust2" class="cluster">
<title>cluster_SmartDocPerspectiveModule_declarations</title>
<polygon fill="none" stroke="#000000" points="654,-78 654,-130 2217,-130 2217,-78 654,-78"/>
</g>
<g id="clust11" class="cluster">
<title>cluster_SmartDocPerspectiveModule_imports</title>
<polygon fill="none" stroke="#000000" points="16,-78 16,-130 646,-130 646,-78 16,-78"/>
</g>
<g id="clust12" class="cluster">
<title>cluster_SmartDocPerspectiveModule_exports</title>
<polygon fill="none" stroke="#000000" points="938,-208 938,-260 1160,-260 1160,-208 938,-208"/>
</g>
<!-- SafeHtmlPipe -->
<g id="node1" class="node">
<title>SafeHtmlPipe</title>
<polygon fill="#ffffb3" stroke="#000000" points="2209.0397,-122 2114.9603,-122 2114.9603,-86 2209.0397,-86 2209.0397,-122"/>
<text text-anchor="middle" x="2162" y="-99.8" font-family="Times,serif" font-size="14.00" fill="#000000">SafeHtmlPipe</text>
</g>
<!-- SmartDocPerspectiveModule -->
<g id="node9" class="node">
<title>SmartDocPerspectiveModule</title>
<polygon fill="#8dd3c7" stroke="#000000" points="1139.3375,-187 1136.3375,-191 1115.3375,-191 1112.3375,-187 958.6625,-187 958.6625,-151 1139.3375,-151 1139.3375,-187"/>
<text text-anchor="middle" x="1049" y="-164.8" font-family="Times,serif" font-size="14.00" fill="#000000">SmartDocPerspectiveModule</text>
</g>
<!-- SafeHtmlPipe&#45;&gt;SmartDocPerspectiveModule -->
<g id="edge1" class="edge">
<title>SafeHtmlPipe&#45;&gt;SmartDocPerspectiveModule</title>
<path fill="none" stroke="#000000" d="M2162,-122.2479C2162,-145.0179 2162,-181 2162,-181 2162,-181 1149.6096,-181 1149.6096,-181"/>
<polygon fill="#000000" stroke="#000000" points="1149.6096,-177.5001 1139.6096,-181 1149.6095,-184.5001 1149.6096,-177.5001"/>
</g>
<!-- SmartDocBottomPanelComponent -->
<g id="node2" class="node">
<title>SmartDocBottomPanelComponent</title>
<polygon fill="#ffffb3" stroke="#000000" points="2096.7035,-122 1885.2965,-122 1885.2965,-86 2096.7035,-86 2096.7035,-122"/>
<text text-anchor="middle" x="1991" y="-99.8" font-family="Times,serif" font-size="14.00" fill="#000000">SmartDocBottomPanelComponent</text>
</g>
<!-- SmartDocBottomPanelComponent&#45;&gt;SmartDocPerspectiveModule -->
<g id="edge2" class="edge">
<title>SmartDocBottomPanelComponent&#45;&gt;SmartDocPerspectiveModule</title>
<path fill="none" stroke="#000000" d="M1991,-122.2843C1991,-143.3211 1991,-175 1991,-175 1991,-175 1149.7505,-175 1149.7505,-175"/>
<polygon fill="#000000" stroke="#000000" points="1149.7505,-171.5001 1139.7505,-175 1149.7504,-178.5001 1149.7505,-171.5001"/>
</g>
<!-- SmartDocDocumentComponent -->
<g id="node3" class="node">
<title>SmartDocDocumentComponent</title>
<polygon fill="#ffffb3" stroke="#000000" points="1867.41,-122 1670.59,-122 1670.59,-86 1867.41,-86 1867.41,-122"/>
<text text-anchor="middle" x="1769" y="-99.8" font-family="Times,serif" font-size="14.00" fill="#000000">SmartDocDocumentComponent</text>
</g>
<!-- SmartDocDocumentComponent&#45;&gt;SmartDocPerspectiveModule -->
<g id="edge3" class="edge">
<title>SmartDocDocumentComponent&#45;&gt;SmartDocPerspectiveModule</title>
<path fill="none" stroke="#000000" d="M1769,-122.1061C1769,-141.3391 1769,-169 1769,-169 1769,-169 1149.4595,-169 1149.4595,-169"/>
<polygon fill="#000000" stroke="#000000" points="1149.4595,-165.5001 1139.4595,-169 1149.4594,-172.5001 1149.4595,-165.5001"/>
</g>
<!-- SmartDocEmbeddedComponent -->
<g id="node4" class="node">
<title>SmartDocEmbeddedComponent</title>
<polygon fill="#ffffb3" stroke="#000000" points="1652.965,-122 1455.035,-122 1455.035,-86 1652.965,-86 1652.965,-122"/>
<text text-anchor="middle" x="1554" y="-99.8" font-family="Times,serif" font-size="14.00" fill="#000000">SmartDocEmbeddedComponent</text>
</g>
<!-- SmartDocEmbeddedComponent&#45;&gt;SmartDocPerspectiveModule -->
<g id="edge4" class="edge">
<title>SmartDocEmbeddedComponent&#45;&gt;SmartDocPerspectiveModule</title>
<path fill="none" stroke="#000000" d="M1554,-122.0225C1554,-139.3734 1554,-163 1554,-163 1554,-163 1149.5753,-163 1149.5753,-163"/>
<polygon fill="#000000" stroke="#000000" points="1149.5754,-159.5001 1139.5753,-163 1149.5753,-166.5001 1149.5754,-159.5001"/>
</g>
<!-- SmartDocPartComponent -->
<g id="node5" class="node">
<title>SmartDocPartComponent</title>
<polygon fill="#ffffb3" stroke="#000000" points="1437.1414,-122 1276.8586,-122 1276.8586,-86 1437.1414,-86 1437.1414,-122"/>
<text text-anchor="middle" x="1357" y="-99.8" font-family="Times,serif" font-size="14.00" fill="#000000">SmartDocPartComponent</text>
</g>
<!-- SmartDocPartComponent&#45;&gt;SmartDocPerspectiveModule -->
<g id="edge5" class="edge">
<title>SmartDocPartComponent&#45;&gt;SmartDocPerspectiveModule</title>
<path fill="none" stroke="#000000" d="M1357,-122.2396C1357,-137.5706 1357,-157 1357,-157 1357,-157 1149.7443,-157 1149.7443,-157"/>
<polygon fill="#000000" stroke="#000000" points="1149.7443,-153.5001 1139.7443,-157 1149.7443,-160.5001 1149.7443,-153.5001"/>
</g>
<!-- SmartDocPerspectiveComponent -->
<g id="node6" class="node">
<title>SmartDocPerspectiveComponent</title>
<polygon fill="#ffffb3" stroke="#000000" points="1258.1204,-122 1055.8796,-122 1055.8796,-86 1258.1204,-86 1258.1204,-122"/>
<text text-anchor="middle" x="1157" y="-99.8" font-family="Times,serif" font-size="14.00" fill="#000000">SmartDocPerspectiveComponent</text>
</g>
<!-- SmartDocPerspectiveComponent&#45;&gt;SmartDocPerspectiveModule -->
<g id="edge6" class="edge">
<title>SmartDocPerspectiveComponent&#45;&gt;SmartDocPerspectiveModule</title>
<path fill="none" stroke="#000000" d="M1097.5543,-122.1061C1097.5543,-122.1061 1097.5543,-140.991 1097.5543,-140.991"/>
<polygon fill="#000000" stroke="#000000" points="1094.0544,-140.9909 1097.5543,-150.991 1101.0544,-140.991 1094.0544,-140.9909"/>
</g>
<!-- SmartDocSidePanelComponent -->
<g id="node7" class="node">
<title>SmartDocSidePanelComponent</title>
<polygon fill="#ffffb3" stroke="#000000" points="1038.0828,-122 843.9172,-122 843.9172,-86 1038.0828,-86 1038.0828,-122"/>
<text text-anchor="middle" x="941" y="-99.8" font-family="Times,serif" font-size="14.00" fill="#000000">SmartDocSidePanelComponent</text>
</g>
<!-- SmartDocSidePanelComponent&#45;&gt;SmartDocPerspectiveModule -->
<g id="edge7" class="edge">
<title>SmartDocSidePanelComponent&#45;&gt;SmartDocPerspectiveModule</title>
<path fill="none" stroke="#000000" d="M998.3114,-122.1061C998.3114,-122.1061 998.3114,-140.991 998.3114,-140.991"/>
<polygon fill="#000000" stroke="#000000" points="994.8114,-140.9909 998.3114,-150.991 1001.8114,-140.991 994.8114,-140.9909"/>
</g>
<!-- SmartDocTextComponent -->
<g id="node8" class="node">
<title>SmartDocTextComponent</title>
<polygon fill="#ffffb3" stroke="#000000" points="825.7506,-122 662.2494,-122 662.2494,-86 825.7506,-86 825.7506,-122"/>
<text text-anchor="middle" x="744" y="-99.8" font-family="Times,serif" font-size="14.00" fill="#000000">SmartDocTextComponent</text>
</g>
<!-- SmartDocTextComponent&#45;&gt;SmartDocPerspectiveModule -->
<g id="edge8" class="edge">
<title>SmartDocTextComponent&#45;&gt;SmartDocPerspectiveModule</title>
<path fill="none" stroke="#000000" d="M744,-122.2396C744,-137.5706 744,-157 744,-157 744,-157 948.3157,-157 948.3157,-157"/>
<polygon fill="#000000" stroke="#000000" points="948.3158,-160.5001 958.3157,-157 948.3157,-153.5001 948.3158,-160.5001"/>
</g>
<!-- SmartDocPerspectiveComponent  -->
<g id="node14" class="node">
<title>SmartDocPerspectiveComponent </title>
<polygon fill="#fb8072" stroke="#000000" points="1152.12,-252 945.88,-252 945.88,-216 1152.12,-216 1152.12,-252"/>
<text text-anchor="middle" x="1049" y="-229.8" font-family="Times,serif" font-size="14.00" fill="#000000">SmartDocPerspectiveComponent </text>
</g>
<!-- SmartDocPerspectiveModule&#45;&gt;SmartDocPerspectiveComponent  -->
<g id="edge13" class="edge">
<title>SmartDocPerspectiveModule&#45;&gt;SmartDocPerspectiveComponent </title>
<path fill="none" stroke="#000000" stroke-dasharray="5,2" d="M1049,-187.1061C1049,-187.1061 1049,-205.991 1049,-205.991"/>
<polygon fill="#000000" stroke="#000000" points="1045.5001,-205.9909 1049,-215.991 1052.5001,-205.991 1045.5001,-205.9909"/>
</g>
<!-- DragAndDropModule -->
<g id="node10" class="node">
<title>DragAndDropModule</title>
<polygon fill="#8dd3c7" stroke="#000000" points="638.406,-122 635.406,-126 614.406,-126 611.406,-122 497.594,-122 497.594,-86 638.406,-86 638.406,-122"/>
<text text-anchor="middle" x="568" y="-99.8" font-family="Times,serif" font-size="14.00" fill="#000000">DragAndDropModule</text>
</g>
<!-- DragAndDropModule&#45;&gt;SmartDocPerspectiveModule -->
<g id="edge9" class="edge">
<title>DragAndDropModule&#45;&gt;SmartDocPerspectiveModule</title>
<path fill="none" stroke="#000000" d="M568,-122.0225C568,-139.3734 568,-163 568,-163 568,-163 948.5276,-163 948.5276,-163"/>
<polygon fill="#000000" stroke="#000000" points="948.5276,-166.5001 958.5276,-163 948.5275,-159.5001 948.5276,-166.5001"/>
</g>
<!-- PickerModule -->
<g id="node11" class="node">
<title>PickerModule</title>
<polygon fill="#8dd3c7" stroke="#000000" points="479.8133,-122 476.8133,-126 455.8133,-126 452.8133,-122 384.1867,-122 384.1867,-86 479.8133,-86 479.8133,-122"/>
<text text-anchor="middle" x="432" y="-99.8" font-family="Times,serif" font-size="14.00" fill="#000000">PickerModule</text>
</g>
<!-- PickerModule&#45;&gt;SmartDocPerspectiveModule -->
<g id="edge10" class="edge">
<title>PickerModule&#45;&gt;SmartDocPerspectiveModule</title>
<path fill="none" stroke="#000000" d="M432,-122.1061C432,-141.3391 432,-169 432,-169 432,-169 948.6221,-169 948.6221,-169"/>
<polygon fill="#000000" stroke="#000000" points="948.6222,-172.5001 958.6221,-169 948.6221,-165.5001 948.6222,-172.5001"/>
</g>
<!-- SharedModule -->
<g id="node12" class="node">
<title>SharedModule</title>
<polygon fill="#8dd3c7" stroke="#000000" points="366.4231,-122 363.4231,-126 342.4231,-126 339.4231,-122 267.5769,-122 267.5769,-86 366.4231,-86 366.4231,-122"/>
<text text-anchor="middle" x="317" y="-99.8" font-family="Times,serif" font-size="14.00" fill="#000000">SharedModule</text>
</g>
<!-- SharedModule&#45;&gt;SmartDocPerspectiveModule -->
<g id="edge11" class="edge">
<title>SharedModule&#45;&gt;SmartDocPerspectiveModule</title>
<path fill="none" stroke="#000000" d="M317,-122.2843C317,-143.3211 317,-175 317,-175 317,-175 948.5083,-175 948.5083,-175"/>
<polygon fill="#000000" stroke="#000000" points="948.5083,-178.5001 958.5083,-175 948.5082,-171.5001 948.5083,-178.5001"/>
</g>
<!-- SmartDocPerspectiveRoutingModule -->
<g id="node13" class="node">
<title>SmartDocPerspectiveRoutingModule</title>
<polygon fill="#8dd3c7" stroke="#000000" points="249.9552,-122 246.9552,-126 225.9552,-126 222.9552,-122 24.0448,-122 24.0448,-86 249.9552,-86 249.9552,-122"/>
<text text-anchor="middle" x="137" y="-99.8" font-family="Times,serif" font-size="14.00" fill="#000000">SmartDocPerspectiveRoutingModule</text>
</g>
<!-- SmartDocPerspectiveRoutingModule&#45;&gt;SmartDocPerspectiveModule -->
<g id="edge12" class="edge">
<title>SmartDocPerspectiveRoutingModule&#45;&gt;SmartDocPerspectiveModule</title>
<path fill="none" stroke="#000000" d="M137,-122.2479C137,-145.0179 137,-181 137,-181 137,-181 948.6393,-181 948.6393,-181"/>
<polygon fill="#000000" stroke="#000000" points="948.6393,-184.5001 958.6393,-181 948.6392,-177.5001 948.6393,-184.5001"/>
</g>
</g>
</svg>
