<?xml version="1.0" encoding="UTF-8" standalone="no"?>
<!DOCTYPE svg PUBLIC "-//W3C//DTD SVG 1.1//EN"
 "http://www.w3.org/Graphics/SVG/1.1/DTD/svg11.dtd">
<!-- Generated by graphviz version 2.40.1 (20161225.0304)
 -->
<!-- Title: dependencies Pages: 1 -->
<svg width="3005pt" height="284pt"
 viewBox="0.00 0.00 3005.00 284.00" xmlns="http://www.w3.org/2000/svg" xmlns:xlink="http://www.w3.org/1999/xlink">
<g id="graph0" class="graph" transform="scale(1 1) rotate(0) translate(4 280)">
<title>dependencies</title>
<polygon fill="#ffffff" stroke="transparent" points="-4,4 -4,-280 3001,-280 3001,4 -4,4"/>
<text text-anchor="start" x="1477.5091" y="-42.4" font-family="sans-serif" font-weight="bold" font-size="14.00" fill="#000000">Legend</text>
<polygon fill="#ffffb3" stroke="transparent" points="1264.5,-10 1264.5,-30 1284.5,-30 1284.5,-10 1264.5,-10"/>
<text text-anchor="start" x="1288.129" y="-15.4" font-family="sans-serif" font-size="14.00" fill="#000000"> &#160;Declarations</text>
<polygon fill="#8dd3c7" stroke="transparent" points="1377.5,-10 1377.5,-30 1397.5,-30 1397.5,-10 1377.5,-10"/>
<text text-anchor="start" x="1401.2251" y="-15.4" font-family="sans-serif" font-size="14.00" fill="#000000"> &#160;Module</text>
<polygon fill="#80b1d3" stroke="transparent" points="1463.5,-10 1463.5,-30 1483.5,-30 1483.5,-10 1463.5,-10"/>
<text text-anchor="start" x="1487.2812" y="-15.4" font-family="sans-serif" font-size="14.00" fill="#000000"> &#160;Bootstrap</text>
<polygon fill="#fdb462" stroke="transparent" points="1560.5,-10 1560.5,-30 1580.5,-30 1580.5,-10 1560.5,-10"/>
<text text-anchor="start" x="1584.1732" y="-15.4" font-family="sans-serif" font-size="14.00" fill="#000000"> &#160;Providers</text>
<polygon fill="#fb8072" stroke="transparent" points="1656.5,-10 1656.5,-30 1676.5,-30 1676.5,-10 1656.5,-10"/>
<text text-anchor="start" x="1680.2258" y="-15.4" font-family="sans-serif" font-size="14.00" fill="#000000"> &#160;Exports</text>
<g id="clust1" class="cluster">
<title>cluster_DialogModule</title>
<polygon fill="none" stroke="#000000" stroke-dasharray="1,5" points="8,-70 8,-268 2989,-268 2989,-70 8,-70"/>
</g>
<g id="clust2" class="cluster">
<title>cluster_DialogModule_declarations</title>
<polygon fill="none" stroke="#000000" points="911,-78 911,-130 2981,-130 2981,-78 911,-78"/>
</g>
<g id="clust13" class="cluster">
<title>cluster_DialogModule_imports</title>
<polygon fill="none" stroke="#000000" points="172,-78 172,-130 903,-130 903,-78 172,-78"/>
</g>
<g id="clust14" class="cluster">
<title>cluster_DialogModule_exports</title>
<polygon fill="none" stroke="#000000" points="1255,-208 1255,-260 1421,-260 1421,-208 1255,-208"/>
</g>
<g id="clust16" class="cluster">
<title>cluster_DialogModule_providers</title>
<polygon fill="none" stroke="#000000" points="16,-78 16,-130 164,-130 164,-78 16,-78"/>
</g>
<!-- CollectionNameInputComponent -->
<g id="node1" class="node">
<title>CollectionNameInputComponent</title>
<polygon fill="#ffffb3" stroke="#000000" points="2973.1385,-122 2770.8615,-122 2770.8615,-86 2973.1385,-86 2973.1385,-122"/>
<text text-anchor="middle" x="2872" y="-99.8" font-family="Times,serif" font-size="14.00" fill="#000000">CollectionNameInputComponent</text>
</g>
<!-- DialogModule -->
<g id="node11" class="node">
<title>DialogModule</title>
<polygon fill="#8dd3c7" stroke="#000000" points="1386.6528,-187 1383.6528,-191 1362.6528,-191 1359.6528,-187 1289.3472,-187 1289.3472,-151 1386.6528,-151 1386.6528,-187"/>
<text text-anchor="middle" x="1338" y="-164.8" font-family="Times,serif" font-size="14.00" fill="#000000">DialogModule</text>
</g>
<!-- CollectionNameInputComponent&#45;&gt;DialogModule -->
<g id="edge1" class="edge">
<title>CollectionNameInputComponent&#45;&gt;DialogModule</title>
<path fill="none" stroke="#000000" d="M2872,-122.3228C2872,-145.6602 2872,-183 2872,-183 2872,-183 1396.8715,-183 1396.8715,-183"/>
<polygon fill="#000000" stroke="#000000" points="1396.8715,-179.5001 1386.8715,-183 1396.8714,-186.5001 1396.8715,-179.5001"/>
</g>
<!-- CreateCollectionDialogComponent -->
<g id="node2" class="node">
<title>CreateCollectionDialogComponent</title>
<polygon fill="#ffffb3" stroke="#000000" points="2753.2948,-122 2538.7052,-122 2538.7052,-86 2753.2948,-86 2753.2948,-122"/>
<text text-anchor="middle" x="2646" y="-99.8" font-family="Times,serif" font-size="14.00" fill="#000000">CreateCollectionDialogComponent</text>
</g>
<!-- CreateCollectionDialogComponent&#45;&gt;DialogModule -->
<g id="edge2" class="edge">
<title>CreateCollectionDialogComponent&#45;&gt;DialogModule</title>
<path fill="none" stroke="#000000" d="M2646,-122.2921C2646,-144.2057 2646,-178 2646,-178 2646,-178 1396.8879,-178 1396.8879,-178"/>
<polygon fill="#000000" stroke="#000000" points="1396.888,-174.5001 1386.8879,-178 1396.8879,-181.5001 1396.888,-174.5001"/>
</g>
<!-- CreateLinkDialogComponent -->
<g id="node3" class="node">
<title>CreateLinkDialogComponent</title>
<polygon fill="#ffffb3" stroke="#000000" points="2521.4101,-122 2338.5899,-122 2338.5899,-86 2521.4101,-86 2521.4101,-122"/>
<text text-anchor="middle" x="2430" y="-99.8" font-family="Times,serif" font-size="14.00" fill="#000000">CreateLinkDialogComponent</text>
</g>
<!-- CreateLinkDialogComponent&#45;&gt;DialogModule -->
<g id="edge3" class="edge">
<title>CreateLinkDialogComponent&#45;&gt;DialogModule</title>
<path fill="none" stroke="#000000" d="M2430,-122.0267C2430,-142.7672 2430,-174 2430,-174 2430,-174 1396.6861,-174 1396.6861,-174"/>
<polygon fill="#000000" stroke="#000000" points="1396.6861,-170.5001 1386.6861,-174 1396.686,-177.5001 1396.6861,-170.5001"/>
</g>
<!-- CreateResourceDialogComponent -->
<g id="node4" class="node">
<title>CreateResourceDialogComponent</title>
<polygon fill="#ffffb3" stroke="#000000" points="2321.052,-122 2112.948,-122 2112.948,-86 2321.052,-86 2321.052,-122"/>
<text text-anchor="middle" x="2217" y="-99.8" font-family="Times,serif" font-size="14.00" fill="#000000">CreateResourceDialogComponent</text>
</g>
<!-- CreateResourceDialogComponent&#45;&gt;DialogModule -->
<g id="edge4" class="edge">
<title>CreateResourceDialogComponent&#45;&gt;DialogModule</title>
<path fill="none" stroke="#000000" d="M2217,-122.1061C2217,-141.3391 2217,-169 2217,-169 2217,-169 1396.8262,-169 1396.8262,-169"/>
<polygon fill="#000000" stroke="#000000" points="1396.8262,-165.5001 1386.8262,-169 1396.8262,-172.5001 1396.8262,-165.5001"/>
</g>
<!-- DialogBaseComponent -->
<g id="node5" class="node">
<title>DialogBaseComponent</title>
<polygon fill="#ffffb3" stroke="#000000" points="2095.1456,-122 1948.8544,-122 1948.8544,-86 2095.1456,-86 2095.1456,-122"/>
<text text-anchor="middle" x="2022" y="-99.8" font-family="Times,serif" font-size="14.00" fill="#000000">DialogBaseComponent</text>
</g>
<!-- DialogBaseComponent&#45;&gt;DialogModule -->
<g id="edge5" class="edge">
<title>DialogBaseComponent&#45;&gt;DialogModule</title>
<path fill="none" stroke="#000000" d="M2022,-122.302C2022,-140.2699 2022,-165 2022,-165 2022,-165 1396.9171,-165 1396.9171,-165"/>
<polygon fill="#000000" stroke="#000000" points="1396.9171,-161.5001 1386.9171,-165 1396.9171,-168.5001 1396.9171,-161.5001"/>
</g>
<!-- FeedbackDialogComponent -->
<g id="node6" class="node">
<title>FeedbackDialogComponent</title>
<polygon fill="#ffffb3" stroke="#000000" points="1930.5758,-122 1757.4242,-122 1757.4242,-86 1930.5758,-86 1930.5758,-122"/>
<text text-anchor="middle" x="1844" y="-99.8" font-family="Times,serif" font-size="14.00" fill="#000000">FeedbackDialogComponent</text>
</g>
<!-- FeedbackDialogComponent&#45;&gt;DialogModule -->
<g id="edge6" class="edge">
<title>FeedbackDialogComponent&#45;&gt;DialogModule</title>
<path fill="none" stroke="#000000" d="M1844,-122.027C1844,-138.3976 1844,-160 1844,-160 1844,-160 1396.9772,-160 1396.9772,-160"/>
<polygon fill="#000000" stroke="#000000" points="1396.9772,-156.5001 1386.9772,-160 1396.9771,-163.5001 1396.9772,-156.5001"/>
</g>
<!-- LinkNameInputComponent -->
<g id="node7" class="node">
<title>LinkNameInputComponent</title>
<polygon fill="#ffffb3" stroke="#000000" points="1739.2534,-122 1568.7466,-122 1568.7466,-86 1739.2534,-86 1739.2534,-122"/>
<text text-anchor="middle" x="1654" y="-99.8" font-family="Times,serif" font-size="14.00" fill="#000000">LinkNameInputComponent</text>
</g>
<!-- LinkNameInputComponent&#45;&gt;DialogModule -->
<g id="edge7" class="edge">
<title>LinkNameInputComponent&#45;&gt;DialogModule</title>
<path fill="none" stroke="#000000" d="M1654,-122.1871C1654,-137.1824 1654,-156 1654,-156 1654,-156 1396.6825,-156 1396.6825,-156"/>
<polygon fill="#000000" stroke="#000000" points="1396.6825,-152.5001 1386.6825,-156 1396.6824,-159.5001 1396.6825,-152.5001"/>
</g>
<!-- OverwriteViewDialogComponent -->
<g id="node8" class="node">
<title>OverwriteViewDialogComponent</title>
<polygon fill="#ffffb3" stroke="#000000" points="1550.4986,-122 1343.5014,-122 1343.5014,-86 1550.4986,-86 1550.4986,-122"/>
<text text-anchor="middle" x="1447" y="-99.8" font-family="Times,serif" font-size="14.00" fill="#000000">OverwriteViewDialogComponent</text>
</g>
<!-- OverwriteViewDialogComponent&#45;&gt;DialogModule -->
<g id="edge8" class="edge">
<title>OverwriteViewDialogComponent&#45;&gt;DialogModule</title>
<path fill="none" stroke="#000000" d="M1365.2886,-122.1061C1365.2886,-122.1061 1365.2886,-140.991 1365.2886,-140.991"/>
<polygon fill="#000000" stroke="#000000" points="1361.7886,-140.9909 1365.2886,-150.991 1368.7886,-140.991 1361.7886,-140.9909"/>
</g>
<!-- ResourceCodeInputComponent -->
<g id="node9" class="node">
<title>ResourceCodeInputComponent</title>
<polygon fill="#ffffb3" stroke="#000000" points="1325.021,-122 1132.979,-122 1132.979,-86 1325.021,-86 1325.021,-122"/>
<text text-anchor="middle" x="1229" y="-99.8" font-family="Times,serif" font-size="14.00" fill="#000000">ResourceCodeInputComponent</text>
</g>
<!-- ResourceCodeInputComponent&#45;&gt;DialogModule -->
<g id="edge9" class="edge">
<title>ResourceCodeInputComponent&#45;&gt;DialogModule</title>
<path fill="none" stroke="#000000" d="M1307.2171,-122.1061C1307.2171,-122.1061 1307.2171,-140.991 1307.2171,-140.991"/>
<polygon fill="#000000" stroke="#000000" points="1303.7171,-140.9909 1307.2171,-150.991 1310.7171,-140.991 1303.7171,-140.9909"/>
</g>
<!-- ResourceNameInputComponent -->
<g id="node10" class="node">
<title>ResourceNameInputComponent</title>
<polygon fill="#ffffb3" stroke="#000000" points="1115.396,-122 918.604,-122 918.604,-86 1115.396,-86 1115.396,-122"/>
<text text-anchor="middle" x="1017" y="-99.8" font-family="Times,serif" font-size="14.00" fill="#000000">ResourceNameInputComponent</text>
</g>
<!-- ResourceNameInputComponent&#45;&gt;DialogModule -->
<g id="edge10" class="edge">
<title>ResourceNameInputComponent&#45;&gt;DialogModule</title>
<path fill="none" stroke="#000000" d="M1017,-122.1871C1017,-137.1824 1017,-156 1017,-156 1017,-156 1279.247,-156 1279.247,-156"/>
<polygon fill="#000000" stroke="#000000" points="1279.247,-159.5001 1289.247,-156 1279.247,-152.5001 1279.247,-159.5001"/>
</g>
<!-- DialogBaseComponent  -->
<g id="node17" class="node">
<title>DialogBaseComponent </title>
<polygon fill="#fb8072" stroke="#000000" points="1413.1453,-252 1262.8547,-252 1262.8547,-216 1413.1453,-216 1413.1453,-252"/>
<text text-anchor="middle" x="1338" y="-229.8" font-family="Times,serif" font-size="14.00" fill="#000000">DialogBaseComponent </text>
</g>
<!-- DialogModule&#45;&gt;DialogBaseComponent  -->
<g id="edge16" class="edge">
<title>DialogModule&#45;&gt;DialogBaseComponent </title>
<path fill="none" stroke="#000000" stroke-dasharray="5,2" d="M1338,-187.1061C1338,-187.1061 1338,-205.991 1338,-205.991"/>
<polygon fill="#000000" stroke="#000000" points="1334.5001,-205.9909 1338,-215.991 1341.5001,-205.991 1334.5001,-205.9909"/>
</g>
<!-- DialogRoutingModule -->
<g id="node12" class="node">
<title>DialogRoutingModule</title>
<polygon fill="#8dd3c7" stroke="#000000" points="895.2702,-122 892.2702,-126 871.2702,-126 868.2702,-122 752.7298,-122 752.7298,-86 895.2702,-86 895.2702,-122"/>
<text text-anchor="middle" x="824" y="-99.8" font-family="Times,serif" font-size="14.00" fill="#000000">DialogRoutingModule</text>
</g>
<!-- DialogRoutingModule&#45;&gt;DialogModule -->
<g id="edge11" class="edge">
<title>DialogRoutingModule&#45;&gt;DialogModule</title>
<path fill="none" stroke="#000000" d="M824,-122.027C824,-138.3976 824,-160 824,-160 824,-160 1279.1807,-160 1279.1807,-160"/>
<polygon fill="#000000" stroke="#000000" points="1279.1808,-163.5001 1289.1807,-160 1279.1807,-156.5001 1279.1808,-163.5001"/>
</g>
<!-- DialogWrapperModule -->
<g id="node13" class="node">
<title>DialogWrapperModule</title>
<polygon fill="#8dd3c7" stroke="#000000" points="734.1177,-122 731.1177,-126 710.1177,-126 707.1177,-122 587.8823,-122 587.8823,-86 734.1177,-86 734.1177,-122"/>
<text text-anchor="middle" x="661" y="-99.8" font-family="Times,serif" font-size="14.00" fill="#000000">DialogWrapperModule</text>
</g>
<!-- DialogWrapperModule&#45;&gt;DialogModule -->
<g id="edge12" class="edge">
<title>DialogWrapperModule&#45;&gt;DialogModule</title>
<path fill="none" stroke="#000000" d="M661,-122.302C661,-140.2699 661,-165 661,-165 661,-165 1279.3118,-165 1279.3118,-165"/>
<polygon fill="#000000" stroke="#000000" points="1279.3119,-168.5001 1289.3118,-165 1279.3118,-161.5001 1279.3119,-168.5001"/>
</g>
<!-- PickerModule -->
<g id="node14" class="node">
<title>PickerModule</title>
<polygon fill="#8dd3c7" stroke="#000000" points="569.8133,-122 566.8133,-126 545.8133,-126 542.8133,-122 474.1867,-122 474.1867,-86 569.8133,-86 569.8133,-122"/>
<text text-anchor="middle" x="522" y="-99.8" font-family="Times,serif" font-size="14.00" fill="#000000">PickerModule</text>
</g>
<!-- PickerModule&#45;&gt;DialogModule -->
<g id="edge13" class="edge">
<title>PickerModule&#45;&gt;DialogModule</title>
<path fill="none" stroke="#000000" d="M522,-122.1061C522,-141.3391 522,-169 522,-169 522,-169 1279.0966,-169 1279.0966,-169"/>
<polygon fill="#000000" stroke="#000000" points="1279.0966,-172.5001 1289.0966,-169 1279.0966,-165.5001 1279.0966,-172.5001"/>
</g>
<!-- ShareViewDialogModule -->
<g id="node15" class="node">
<title>ShareViewDialogModule</title>
<polygon fill="#8dd3c7" stroke="#000000" points="455.8431,-122 452.8431,-126 431.8431,-126 428.8431,-122 296.1569,-122 296.1569,-86 455.8431,-86 455.8431,-122"/>
<text text-anchor="middle" x="376" y="-99.8" font-family="Times,serif" font-size="14.00" fill="#000000">ShareViewDialogModule</text>
</g>
<!-- ShareViewDialogModule&#45;&gt;DialogModule -->
<g id="edge14" class="edge">
<title>ShareViewDialogModule&#45;&gt;DialogModule</title>
<path fill="none" stroke="#000000" d="M376,-122.0267C376,-142.7672 376,-174 376,-174 376,-174 1279.3039,-174 1279.3039,-174"/>
<polygon fill="#000000" stroke="#000000" points="1279.3039,-177.5001 1289.3039,-174 1279.3038,-170.5001 1279.3039,-177.5001"/>
</g>
<!-- SharedModule -->
<g id="node16" class="node">
<title>SharedModule</title>
<polygon fill="#8dd3c7" stroke="#000000" points="278.4231,-122 275.4231,-126 254.4231,-126 251.4231,-122 179.5769,-122 179.5769,-86 278.4231,-86 278.4231,-122"/>
<text text-anchor="middle" x="229" y="-99.8" font-family="Times,serif" font-size="14.00" fill="#000000">SharedModule</text>
</g>
<!-- SharedModule&#45;&gt;DialogModule -->
<g id="edge15" class="edge">
<title>SharedModule&#45;&gt;DialogModule</title>
<path fill="none" stroke="#000000" d="M229,-122.2921C229,-144.2057 229,-178 229,-178 229,-178 1279.2762,-178 1279.2762,-178"/>
<polygon fill="#000000" stroke="#000000" points="1279.2763,-181.5001 1289.2762,-178 1279.2762,-174.5001 1279.2763,-181.5001"/>
</g>
<!-- DialogService -->
<g id="node18" class="node">
<title>DialogService</title>
<ellipse fill="#fdb462" stroke="#000000" cx="90" cy="-104" rx="66.0492" ry="18"/>
<text text-anchor="middle" x="90" y="-99.8" font-family="Times,serif" font-size="14.00" fill="#000000">DialogService</text>
</g>
<!-- DialogService&#45;&gt;DialogModule -->
<g id="edge17" class="edge">
<title>DialogService&#45;&gt;DialogModule</title>
<path fill="none" stroke="#000000" d="M90,-122.3228C90,-145.6602 90,-183 90,-183 90,-183 1279.0769,-183 1279.0769,-183"/>
<polygon fill="#000000" stroke="#000000" points="1279.077,-186.5001 1289.0769,-183 1279.0769,-179.5001 1279.077,-186.5001"/>
</g>
</g>
</svg>
