<?xml version="1.0" encoding="UTF-8" standalone="no"?>
<!DOCTYPE svg PUBLIC "-//W3C//DTD SVG 1.1//EN"
 "http://www.w3.org/Graphics/SVG/1.1/DTD/svg11.dtd">
<!-- Generated by graphviz version 2.40.1 (20161225.0304)
 -->
<!-- Title: dependencies Pages: 1 -->
<svg width="2208pt" height="284pt"
 viewBox="0.00 0.00 2208.00 284.00" xmlns="http://www.w3.org/2000/svg" xmlns:xlink="http://www.w3.org/1999/xlink">
<g id="graph0" class="graph" transform="scale(1 1) rotate(0) translate(4 280)">
<title>dependencies</title>
<polygon fill="#ffffff" stroke="transparent" points="-4,4 -4,-280 2204,-280 2204,4 -4,4"/>
<text text-anchor="start" x="1079.0091" y="-42.4" font-family="sans-serif" font-weight="bold" font-size="14.00" fill="#000000">Legend</text>
<polygon fill="#ffffb3" stroke="transparent" points="866,-10 866,-30 886,-30 886,-10 866,-10"/>
<text text-anchor="start" x="889.629" y="-15.4" font-family="sans-serif" font-size="14.00" fill="#000000"> &#160;Declarations</text>
<polygon fill="#8dd3c7" stroke="transparent" points="979,-10 979,-30 999,-30 999,-10 979,-10"/>
<text text-anchor="start" x="1002.7251" y="-15.4" font-family="sans-serif" font-size="14.00" fill="#000000"> &#160;Module</text>
<polygon fill="#80b1d3" stroke="transparent" points="1065,-10 1065,-30 1085,-30 1085,-10 1065,-10"/>
<text text-anchor="start" x="1088.7812" y="-15.4" font-family="sans-serif" font-size="14.00" fill="#000000"> &#160;Bootstrap</text>
<polygon fill="#fdb462" stroke="transparent" points="1162,-10 1162,-30 1182,-30 1182,-10 1162,-10"/>
<text text-anchor="start" x="1185.6732" y="-15.4" font-family="sans-serif" font-size="14.00" fill="#000000"> &#160;Providers</text>
<polygon fill="#fb8072" stroke="transparent" points="1258,-10 1258,-30 1278,-30 1278,-10 1258,-10"/>
<text text-anchor="start" x="1281.7258" y="-15.4" font-family="sans-serif" font-size="14.00" fill="#000000"> &#160;Exports</text>
<g id="clust1" class="cluster">
<title>cluster_DialogModule</title>
<polygon fill="none" stroke="#000000" stroke-dasharray="1,5" points="8,-70 8,-268 2192,-268 2192,-70 8,-70"/>
</g>
<g id="clust2" class="cluster">
<title>cluster_DialogModule_declarations</title>
<polygon fill="none" stroke="#000000" points="568,-78 568,-130 2184,-130 2184,-78 568,-78"/>
</g>
<g id="clust11" class="cluster">
<title>cluster_DialogModule_imports</title>
<polygon fill="none" stroke="#000000" points="172,-78 172,-130 560,-130 560,-78 172,-78"/>
</g>
<g id="clust12" class="cluster">
<title>cluster_DialogModule_exports</title>
<polygon fill="none" stroke="#000000" points="899,-208 899,-260 1065,-260 1065,-208 899,-208"/>
</g>
<g id="clust14" class="cluster">
<title>cluster_DialogModule_providers</title>
<polygon fill="none" stroke="#000000" points="16,-78 16,-130 164,-130 164,-78 16,-78"/>
</g>
<!-- CollectionNameInputComponent -->
<g id="node1" class="node">
<title>CollectionNameInputComponent</title>
<polygon fill="#ffffb3" stroke="#000000" points="2176.1385,-122 1973.8615,-122 1973.8615,-86 2176.1385,-86 2176.1385,-122"/>
<text text-anchor="middle" x="2075" y="-99.8" font-family="Times,serif" font-size="14.00" fill="#000000">CollectionNameInputComponent</text>
</g>
<!-- DialogModule -->
<g id="node9" class="node">
<title>DialogModule</title>
<polygon fill="#8dd3c7" stroke="#000000" points="1030.6528,-187 1027.6528,-191 1006.6528,-191 1003.6528,-187 933.3472,-187 933.3472,-151 1030.6528,-151 1030.6528,-187"/>
<text text-anchor="middle" x="982" y="-164.8" font-family="Times,serif" font-size="14.00" fill="#000000">DialogModule</text>
</g>
<!-- CollectionNameInputComponent&#45;&gt;DialogModule -->
<g id="edge1" class="edge">
<title>CollectionNameInputComponent&#45;&gt;DialogModule</title>
<path fill="none" stroke="#000000" d="M2075,-122.2479C2075,-145.0179 2075,-181 2075,-181 2075,-181 1040.7306,-181 1040.7306,-181"/>
<polygon fill="#000000" stroke="#000000" points="1040.7307,-177.5001 1030.7306,-181 1040.7306,-184.5001 1040.7307,-177.5001"/>
</g>
<!-- CreateCollectionDialogComponent -->
<g id="node2" class="node">
<title>CreateCollectionDialogComponent</title>
<polygon fill="#ffffb3" stroke="#000000" points="1956.2948,-122 1741.7052,-122 1741.7052,-86 1956.2948,-86 1956.2948,-122"/>
<text text-anchor="middle" x="1849" y="-99.8" font-family="Times,serif" font-size="14.00" fill="#000000">CreateCollectionDialogComponent</text>
</g>
<!-- CreateCollectionDialogComponent&#45;&gt;DialogModule -->
<g id="edge2" class="edge">
<title>CreateCollectionDialogComponent&#45;&gt;DialogModule</title>
<path fill="none" stroke="#000000" d="M1849,-122.2843C1849,-143.3211 1849,-175 1849,-175 1849,-175 1040.7842,-175 1040.7842,-175"/>
<polygon fill="#000000" stroke="#000000" points="1040.7842,-171.5001 1030.7842,-175 1040.7842,-178.5001 1040.7842,-171.5001"/>
</g>
<!-- CreateLinkDialogComponent -->
<g id="node3" class="node">
<title>CreateLinkDialogComponent</title>
<polygon fill="#ffffb3" stroke="#000000" points="1724.4101,-122 1541.5899,-122 1541.5899,-86 1724.4101,-86 1724.4101,-122"/>
<text text-anchor="middle" x="1633" y="-99.8" font-family="Times,serif" font-size="14.00" fill="#000000">CreateLinkDialogComponent</text>
</g>
<!-- CreateLinkDialogComponent&#45;&gt;DialogModule -->
<g id="edge3" class="edge">
<title>CreateLinkDialogComponent&#45;&gt;DialogModule</title>
<path fill="none" stroke="#000000" d="M1633,-122.1061C1633,-141.3391 1633,-169 1633,-169 1633,-169 1040.6646,-169 1040.6646,-169"/>
<polygon fill="#000000" stroke="#000000" points="1040.6646,-165.5001 1030.6646,-169 1040.6645,-172.5001 1040.6646,-165.5001"/>
</g>
<!-- DialogBaseComponent -->
<g id="node4" class="node">
<title>DialogBaseComponent</title>
<polygon fill="#ffffb3" stroke="#000000" points="1523.1456,-122 1376.8544,-122 1376.8544,-86 1523.1456,-86 1523.1456,-122"/>
<text text-anchor="middle" x="1450" y="-99.8" font-family="Times,serif" font-size="14.00" fill="#000000">DialogBaseComponent</text>
</g>
<!-- DialogBaseComponent&#45;&gt;DialogModule -->
<g id="edge4" class="edge">
<title>DialogBaseComponent&#45;&gt;DialogModule</title>
<path fill="none" stroke="#000000" d="M1450,-122.0225C1450,-139.3734 1450,-163 1450,-163 1450,-163 1040.7598,-163 1040.7598,-163"/>
<polygon fill="#000000" stroke="#000000" points="1040.7598,-159.5001 1030.7598,-163 1040.7597,-166.5001 1040.7598,-159.5001"/>
</g>
<!-- DialogWrapperComponent -->
<g id="node5" class="node">
<title>DialogWrapperComponent</title>
<polygon fill="#ffffb3" stroke="#000000" points="1358.4003,-122 1189.5997,-122 1189.5997,-86 1358.4003,-86 1358.4003,-122"/>
<text text-anchor="middle" x="1274" y="-99.8" font-family="Times,serif" font-size="14.00" fill="#000000">DialogWrapperComponent</text>
</g>
<!-- DialogWrapperComponent&#45;&gt;DialogModule -->
<g id="edge5" class="edge">
<title>DialogWrapperComponent&#45;&gt;DialogModule</title>
<path fill="none" stroke="#000000" d="M1274,-122.2396C1274,-137.5706 1274,-157 1274,-157 1274,-157 1040.8742,-157 1040.8742,-157"/>
<polygon fill="#000000" stroke="#000000" points="1040.8743,-153.5001 1030.8742,-157 1040.8742,-160.5001 1040.8743,-153.5001"/>
</g>
<!-- LinkNameInputComponent -->
<g id="node6" class="node">
<title>LinkNameInputComponent</title>
<polygon fill="#ffffb3" stroke="#000000" points="1171.2534,-122 1000.7466,-122 1000.7466,-86 1171.2534,-86 1171.2534,-122"/>
<text text-anchor="middle" x="1086" y="-99.8" font-family="Times,serif" font-size="14.00" fill="#000000">LinkNameInputComponent</text>
</g>
<!-- LinkNameInputComponent&#45;&gt;DialogModule -->
<g id="edge6" class="edge">
<title>LinkNameInputComponent&#45;&gt;DialogModule</title>
<path fill="none" stroke="#000000" d="M1015.7248,-122.1061C1015.7248,-122.1061 1015.7248,-140.991 1015.7248,-140.991"/>
<polygon fill="#000000" stroke="#000000" points="1012.2248,-140.9909 1015.7248,-150.991 1019.2248,-140.991 1012.2248,-140.9909"/>
</g>
<!-- OverwriteViewDialogComponent -->
<g id="node7" class="node">
<title>OverwriteViewDialogComponent</title>
<polygon fill="#ffffb3" stroke="#000000" points="982.4986,-122 775.5014,-122 775.5014,-86 982.4986,-86 982.4986,-122"/>
<text text-anchor="middle" x="879" y="-99.8" font-family="Times,serif" font-size="14.00" fill="#000000">OverwriteViewDialogComponent</text>
</g>
<!-- OverwriteViewDialogComponent&#45;&gt;DialogModule -->
<g id="edge7" class="edge">
<title>OverwriteViewDialogComponent&#45;&gt;DialogModule</title>
<path fill="none" stroke="#000000" d="M957.7115,-122.1061C957.7115,-122.1061 957.7115,-140.991 957.7115,-140.991"/>
<polygon fill="#000000" stroke="#000000" points="954.2115,-140.9909 957.7115,-150.991 961.2115,-140.991 954.2115,-140.9909"/>
</g>
<!-- ShareViewDialogComponent -->
<g id="node8" class="node">
<title>ShareViewDialogComponent</title>
<polygon fill="#ffffb3" stroke="#000000" points="757.626,-122 576.374,-122 576.374,-86 757.626,-86 757.626,-122"/>
<text text-anchor="middle" x="667" y="-99.8" font-family="Times,serif" font-size="14.00" fill="#000000">ShareViewDialogComponent</text>
</g>
<!-- ShareViewDialogComponent&#45;&gt;DialogModule -->
<g id="edge8" class="edge">
<title>ShareViewDialogComponent&#45;&gt;DialogModule</title>
<path fill="none" stroke="#000000" d="M667,-122.2396C667,-137.5706 667,-157 667,-157 667,-157 923.1269,-157 923.1269,-157"/>
<polygon fill="#000000" stroke="#000000" points="923.1269,-160.5001 933.1269,-157 923.1268,-153.5001 923.1269,-160.5001"/>
</g>
<!-- DialogBaseComponent  -->
<g id="node13" class="node">
<title>DialogBaseComponent </title>
<polygon fill="#fb8072" stroke="#000000" points="1057.1453,-252 906.8547,-252 906.8547,-216 1057.1453,-216 1057.1453,-252"/>
<text text-anchor="middle" x="982" y="-229.8" font-family="Times,serif" font-size="14.00" fill="#000000">DialogBaseComponent </text>
</g>
<!-- DialogModule&#45;&gt;DialogBaseComponent  -->
<g id="edge12" class="edge">
<title>DialogModule&#45;&gt;DialogBaseComponent </title>
<path fill="none" stroke="#000000" stroke-dasharray="5,2" d="M982,-187.1061C982,-187.1061 982,-205.991 982,-205.991"/>
<polygon fill="#000000" stroke="#000000" points="978.5001,-205.9909 982,-215.991 985.5001,-205.991 978.5001,-205.9909"/>
</g>
<!-- DialogRoutingModule -->
<g id="node10" class="node">
<title>DialogRoutingModule</title>
<polygon fill="#8dd3c7" stroke="#000000" points="552.2702,-122 549.2702,-126 528.2702,-126 525.2702,-122 409.7298,-122 409.7298,-86 552.2702,-86 552.2702,-122"/>
<text text-anchor="middle" x="481" y="-99.8" font-family="Times,serif" font-size="14.00" fill="#000000">DialogRoutingModule</text>
</g>
<!-- DialogRoutingModule&#45;&gt;DialogModule -->
<g id="edge9" class="edge">
<title>DialogRoutingModule&#45;&gt;DialogModule</title>
<path fill="none" stroke="#000000" d="M481,-122.0225C481,-139.3734 481,-163 481,-163 481,-163 923.0498,-163 923.0498,-163"/>
<polygon fill="#000000" stroke="#000000" points="923.0498,-166.5001 933.0498,-163 923.0498,-159.5001 923.0498,-166.5001"/>
</g>
<!-- PickerModule -->
<g id="node11" class="node">
<title>PickerModule</title>
<polygon fill="#8dd3c7" stroke="#000000" points="391.8133,-122 388.8133,-126 367.8133,-126 364.8133,-122 296.1867,-122 296.1867,-86 391.8133,-86 391.8133,-122"/>
<text text-anchor="middle" x="344" y="-99.8" font-family="Times,serif" font-size="14.00" fill="#000000">PickerModule</text>
</g>
<!-- PickerModule&#45;&gt;DialogModule -->
<g id="edge10" class="edge">
<title>PickerModule&#45;&gt;DialogModule</title>
<path fill="none" stroke="#000000" d="M344,-122.1061C344,-141.3391 344,-169 344,-169 344,-169 923.2599,-169 923.2599,-169"/>
<polygon fill="#000000" stroke="#000000" points="923.26,-172.5001 933.2599,-169 923.2599,-165.5001 923.26,-172.5001"/>
</g>
<!-- SharedModule -->
<g id="node12" class="node">
<title>SharedModule</title>
<polygon fill="#8dd3c7" stroke="#000000" points="278.4231,-122 275.4231,-126 254.4231,-126 251.4231,-122 179.5769,-122 179.5769,-86 278.4231,-86 278.4231,-122"/>
<text text-anchor="middle" x="229" y="-99.8" font-family="Times,serif" font-size="14.00" fill="#000000">SharedModule</text>
</g>
<!-- SharedModule&#45;&gt;DialogModule -->
<g id="edge11" class="edge">
<title>SharedModule&#45;&gt;DialogModule</title>
<path fill="none" stroke="#000000" d="M229,-122.2843C229,-143.3211 229,-175 229,-175 229,-175 923.1738,-175 923.1738,-175"/>
<polygon fill="#000000" stroke="#000000" points="923.1738,-178.5001 933.1738,-175 923.1737,-171.5001 923.1738,-178.5001"/>
</g>
<!-- DialogService -->
<g id="node14" class="node">
<title>DialogService</title>
<ellipse fill="#fdb462" stroke="#000000" cx="90" cy="-104" rx="66.0492" ry="18"/>
<text text-anchor="middle" x="90" y="-99.8" font-family="Times,serif" font-size="14.00" fill="#000000">DialogService</text>
</g>
<!-- DialogService&#45;&gt;DialogModule -->
<g id="edge13" class="edge">
<title>DialogService&#45;&gt;DialogModule</title>
<path fill="none" stroke="#000000" d="M90,-122.2479C90,-145.0179 90,-181 90,-181 90,-181 923.0906,-181 923.0906,-181"/>
<polygon fill="#000000" stroke="#000000" points="923.0907,-184.5001 933.0906,-181 923.0906,-177.5001 923.0907,-184.5001"/>
</g>
</g>
</svg>
