<?xml version="1.0" encoding="UTF-8" standalone="no"?>
<!DOCTYPE svg PUBLIC "-//W3C//DTD SVG 1.1//EN"
 "http://www.w3.org/Graphics/SVG/1.1/DTD/svg11.dtd">
<!-- Generated by graphviz version 2.40.1 (20161225.0304)
 -->
<!-- Title: dependencies Pages: 1 -->
<svg width="1024pt" height="284pt"
 viewBox="0.00 0.00 1024.00 284.00" xmlns="http://www.w3.org/2000/svg" xmlns:xlink="http://www.w3.org/1999/xlink">
<g id="graph0" class="graph" transform="scale(1 1) rotate(0) translate(4 280)">
<title>dependencies</title>
<polygon fill="#ffffff" stroke="transparent" points="-4,4 -4,-280 1020,-280 1020,4 -4,4"/>
<text text-anchor="start" x="487.0091" y="-42.4" font-family="sans-serif" font-weight="bold" font-size="14.00" fill="#000000">Legend</text>
<polygon fill="#ffffb3" stroke="transparent" points="274,-10 274,-30 294,-30 294,-10 274,-10"/>
<text text-anchor="start" x="297.629" y="-15.4" font-family="sans-serif" font-size="14.00" fill="#000000"> &#160;Declarations</text>
<polygon fill="#8dd3c7" stroke="transparent" points="387,-10 387,-30 407,-30 407,-10 387,-10"/>
<text text-anchor="start" x="410.7251" y="-15.4" font-family="sans-serif" font-size="14.00" fill="#000000"> &#160;Module</text>
<polygon fill="#80b1d3" stroke="transparent" points="473,-10 473,-30 493,-30 493,-10 473,-10"/>
<text text-anchor="start" x="496.7812" y="-15.4" font-family="sans-serif" font-size="14.00" fill="#000000"> &#160;Bootstrap</text>
<polygon fill="#fdb462" stroke="transparent" points="570,-10 570,-30 590,-30 590,-10 570,-10"/>
<text text-anchor="start" x="593.6732" y="-15.4" font-family="sans-serif" font-size="14.00" fill="#000000"> &#160;Providers</text>
<polygon fill="#fb8072" stroke="transparent" points="666,-10 666,-30 686,-30 686,-10 666,-10"/>
<text text-anchor="start" x="689.7258" y="-15.4" font-family="sans-serif" font-size="14.00" fill="#000000"> &#160;Exports</text>
<g id="clust1" class="cluster">
<title>cluster_AppModule</title>
<polygon fill="none" stroke="#000000" stroke-dasharray="1,5" points="8,-70 8,-268 1008,-268 1008,-70 8,-70"/>
</g>
<g id="clust2" class="cluster">
<title>cluster_AppModule_declarations</title>
<polygon fill="none" stroke="#000000" points="878,-78 878,-130 1000,-130 1000,-78 878,-78"/>
</g>
<g id="clust4" class="cluster">
<title>cluster_AppModule_imports</title>
<polygon fill="none" stroke="#000000" points="16,-78 16,-130 870,-130 870,-78 16,-78"/>
</g>
<g id="clust6" class="cluster">
<title>cluster_AppModule_bootstrap</title>
<polygon fill="none" stroke="#000000" points="429,-208 429,-260 553,-260 553,-208 429,-208"/>
</g>
<!-- AppComponent -->
<g id="node1" class="node">
<title>AppComponent</title>
<polygon fill="#ffffb3" stroke="#000000" points="991.9399,-122 886.0601,-122 886.0601,-86 991.9399,-86 991.9399,-122"/>
<text text-anchor="middle" x="939" y="-99.8" font-family="Times,serif" font-size="14.00" fill="#000000">AppComponent</text>
</g>
<!-- AppModule -->
<g id="node2" class="node">
<title>AppModule</title>
<polygon fill="#8dd3c7" stroke="#000000" points="532.6571,-187 529.6571,-191 508.6571,-191 505.6571,-187 449.3429,-187 449.3429,-151 532.6571,-151 532.6571,-187"/>
<text text-anchor="middle" x="491" y="-164.8" font-family="Times,serif" font-size="14.00" fill="#000000">AppModule</text>
</g>
<!-- AppComponent&#45;&gt;AppModule -->
<g id="edge1" class="edge">
<title>AppComponent&#45;&gt;AppModule</title>
<path fill="none" stroke="#000000" d="M939,-122.2921C939,-144.2057 939,-178 939,-178 939,-178 542.7445,-178 542.7445,-178"/>
<polygon fill="#000000" stroke="#000000" points="542.7445,-174.5001 532.7445,-178 542.7444,-181.5001 542.7445,-174.5001"/>
</g>
<!-- AppComponent  -->
<g id="node10" class="node">
<title>AppComponent </title>
<polygon fill="#80b1d3" stroke="#000000" points="545.439,-252 436.561,-252 436.561,-216 545.439,-216 545.439,-252"/>
<text text-anchor="middle" x="491" y="-229.8" font-family="Times,serif" font-size="14.00" fill="#000000">AppComponent </text>
</g>
<!-- AppModule&#45;&gt;AppComponent  -->
<g id="edge9" class="edge">
<title>AppModule&#45;&gt;AppComponent </title>
<path fill="none" stroke="#000000" stroke-dasharray="1,5" d="M491,-187.1061C491,-187.1061 491,-205.991 491,-205.991"/>
<polygon fill="#000000" stroke="#000000" points="487.5001,-205.9909 491,-215.991 494.5001,-205.991 487.5001,-205.9909"/>
</g>
<!-- AppRoutingModule -->
<g id="node3" class="node">
<title>AppRoutingModule</title>
<polygon fill="#8dd3c7" stroke="#000000" points="862.2744,-122 859.2744,-126 838.2744,-126 835.2744,-122 733.7256,-122 733.7256,-86 862.2744,-86 862.2744,-122"/>
<text text-anchor="middle" x="798" y="-99.8" font-family="Times,serif" font-size="14.00" fill="#000000">AppRoutingModule</text>
</g>
<!-- AppRoutingModule&#45;&gt;AppModule -->
<g id="edge2" class="edge">
<title>AppRoutingModule&#45;&gt;AppModule</title>
<path fill="none" stroke="#000000" d="M798,-122.1061C798,-141.3391 798,-169 798,-169 798,-169 542.7229,-169 542.7229,-169"/>
<polygon fill="#000000" stroke="#000000" points="542.7229,-165.5001 532.7229,-169 542.7229,-172.5001 542.7229,-165.5001"/>
</g>
<!-- AuthModule -->
<g id="node4" class="node">
<title>AuthModule</title>
<polygon fill="#8dd3c7" stroke="#000000" points="715.5482,-122 712.5482,-126 691.5482,-126 688.5482,-122 628.4518,-122 628.4518,-86 715.5482,-86 715.5482,-122"/>
<text text-anchor="middle" x="672" y="-99.8" font-family="Times,serif" font-size="14.00" fill="#000000">AuthModule</text>
</g>
<!-- AuthModule&#45;&gt;AppModule -->
<g id="edge3" class="edge">
<title>AuthModule&#45;&gt;AppModule</title>
<path fill="none" stroke="#000000" d="M672,-122.027C672,-138.3976 672,-160 672,-160 672,-160 542.98,-160 542.98,-160"/>
<polygon fill="#000000" stroke="#000000" points="542.98,-156.5001 532.98,-160 542.9799,-163.5001 542.98,-156.5001"/>
</g>
<!-- CollectionModule -->
<g id="node5" class="node">
<title>CollectionModule</title>
<polygon fill="#8dd3c7" stroke="#000000" points="609.8781,-122 606.8781,-126 585.8781,-126 582.8781,-122 492.1219,-122 492.1219,-86 609.8781,-86 609.8781,-122"/>
<text text-anchor="middle" x="551" y="-99.8" font-family="Times,serif" font-size="14.00" fill="#000000">CollectionModule</text>
</g>
<!-- CollectionModule&#45;&gt;AppModule -->
<g id="edge4" class="edge">
<title>CollectionModule&#45;&gt;AppModule</title>
<path fill="none" stroke="#000000" d="M512.4446,-122.1061C512.4446,-122.1061 512.4446,-140.991 512.4446,-140.991"/>
<polygon fill="#000000" stroke="#000000" points="508.9447,-140.9909 512.4446,-150.991 515.9447,-140.991 508.9447,-140.9909"/>
</g>
<!-- CoreModule -->
<g id="node6" class="node">
<title>CoreModule</title>
<polygon fill="#8dd3c7" stroke="#000000" points="474.2619,-122 471.2619,-126 450.2619,-126 447.2619,-122 387.7381,-122 387.7381,-86 474.2619,-86 474.2619,-122"/>
<text text-anchor="middle" x="431" y="-99.8" font-family="Times,serif" font-size="14.00" fill="#000000">CoreModule</text>
</g>
<!-- CoreModule&#45;&gt;AppModule -->
<g id="edge5" class="edge">
<title>CoreModule&#45;&gt;AppModule</title>
<path fill="none" stroke="#000000" d="M461.7763,-122.1061C461.7763,-122.1061 461.7763,-140.991 461.7763,-140.991"/>
<polygon fill="#000000" stroke="#000000" points="458.2764,-140.9909 461.7763,-150.991 465.2764,-140.991 458.2764,-140.9909"/>
</g>
<!-- DialogModule -->
<g id="node7" class="node">
<title>DialogModule</title>
<polygon fill="#8dd3c7" stroke="#000000" points="369.6528,-122 366.6528,-126 345.6528,-126 342.6528,-122 272.3472,-122 272.3472,-86 369.6528,-86 369.6528,-122"/>
<text text-anchor="middle" x="321" y="-99.8" font-family="Times,serif" font-size="14.00" fill="#000000">DialogModule</text>
</g>
<!-- DialogModule&#45;&gt;AppModule -->
<g id="edge6" class="edge">
<title>DialogModule&#45;&gt;AppModule</title>
<path fill="none" stroke="#000000" d="M321,-122.027C321,-138.3976 321,-160 321,-160 321,-160 438.9775,-160 438.9775,-160"/>
<polygon fill="#000000" stroke="#000000" points="438.9776,-163.5001 448.9775,-160 438.9775,-156.5001 438.9776,-163.5001"/>
</g>
<!-- ViewModule -->
<g id="node8" class="node">
<title>ViewModule</title>
<polygon fill="#8dd3c7" stroke="#000000" points="253.8683,-122 250.8683,-126 229.8683,-126 226.8683,-122 164.1317,-122 164.1317,-86 253.8683,-86 253.8683,-122"/>
<text text-anchor="middle" x="209" y="-99.8" font-family="Times,serif" font-size="14.00" fill="#000000">ViewModule</text>
</g>
<!-- ViewModule&#45;&gt;AppModule -->
<g id="edge7" class="edge">
<title>ViewModule&#45;&gt;AppModule</title>
<path fill="none" stroke="#000000" d="M209,-122.1061C209,-141.3391 209,-169 209,-169 209,-169 439.0863,-169 439.0863,-169"/>
<polygon fill="#000000" stroke="#000000" points="439.0863,-172.5001 449.0863,-169 439.0862,-165.5001 439.0863,-172.5001"/>
</g>
<!-- WorkspaceModule -->
<g id="node9" class="node">
<title>WorkspaceModule</title>
<polygon fill="#8dd3c7" stroke="#000000" points="146.0144,-122 143.0144,-126 122.0144,-126 119.0144,-122 23.9856,-122 23.9856,-86 146.0144,-86 146.0144,-122"/>
<text text-anchor="middle" x="85" y="-99.8" font-family="Times,serif" font-size="14.00" fill="#000000">WorkspaceModule</text>
</g>
<!-- WorkspaceModule&#45;&gt;AppModule -->
<g id="edge8" class="edge">
<title>WorkspaceModule&#45;&gt;AppModule</title>
<path fill="none" stroke="#000000" d="M85,-122.2921C85,-144.2057 85,-178 85,-178 85,-178 439.0801,-178 439.0801,-178"/>
<polygon fill="#000000" stroke="#000000" points="439.0801,-181.5001 449.0801,-178 439.08,-174.5001 439.0801,-181.5001"/>
</g>
</g>
</svg>
