<?xml version="1.0" encoding="UTF-8" standalone="no"?>
<!DOCTYPE svg PUBLIC "-//W3C//DTD SVG 1.1//EN"
 "http://www.w3.org/Graphics/SVG/1.1/DTD/svg11.dtd">
<!-- Generated by graphviz version 2.40.1 (20161225.0304)
 -->
<!-- Title: dependencies Pages: 1 -->
<svg width="1059pt" height="284pt"
 viewBox="0.00 0.00 1059.00 284.00" xmlns="http://www.w3.org/2000/svg" xmlns:xlink="http://www.w3.org/1999/xlink">
<g id="graph0" class="graph" transform="scale(1 1) rotate(0) translate(4 280)">
<title>dependencies</title>
<polygon fill="#ffffff" stroke="transparent" points="-4,4 -4,-280 1055,-280 1055,4 -4,4"/>
<text text-anchor="start" x="504.5091" y="-42.4" font-family="sans-serif" font-weight="bold" font-size="14.00" fill="#000000">Legend</text>
<polygon fill="#ffffb3" stroke="transparent" points="291.5,-10 291.5,-30 311.5,-30 311.5,-10 291.5,-10"/>
<text text-anchor="start" x="315.129" y="-15.4" font-family="sans-serif" font-size="14.00" fill="#000000"> &#160;Declarations</text>
<polygon fill="#8dd3c7" stroke="transparent" points="404.5,-10 404.5,-30 424.5,-30 424.5,-10 404.5,-10"/>
<text text-anchor="start" x="428.2251" y="-15.4" font-family="sans-serif" font-size="14.00" fill="#000000"> &#160;Module</text>
<polygon fill="#80b1d3" stroke="transparent" points="490.5,-10 490.5,-30 510.5,-30 510.5,-10 490.5,-10"/>
<text text-anchor="start" x="514.2812" y="-15.4" font-family="sans-serif" font-size="14.00" fill="#000000"> &#160;Bootstrap</text>
<polygon fill="#fdb462" stroke="transparent" points="587.5,-10 587.5,-30 607.5,-30 607.5,-10 587.5,-10"/>
<text text-anchor="start" x="611.1732" y="-15.4" font-family="sans-serif" font-size="14.00" fill="#000000"> &#160;Providers</text>
<polygon fill="#fb8072" stroke="transparent" points="683.5,-10 683.5,-30 703.5,-30 703.5,-10 683.5,-10"/>
<text text-anchor="start" x="707.2258" y="-15.4" font-family="sans-serif" font-size="14.00" fill="#000000"> &#160;Exports</text>
<g id="clust1" class="cluster">
<title>cluster_AppModule</title>
<polygon fill="none" stroke="#000000" stroke-dasharray="1,5" points="8,-70 8,-268 1043,-268 1043,-70 8,-70"/>
</g>
<g id="clust2" class="cluster">
<title>cluster_AppModule_declarations</title>
<polygon fill="none" stroke="#000000" points="913,-78 913,-130 1035,-130 1035,-78 913,-78"/>
</g>
<g id="clust4" class="cluster">
<title>cluster_AppModule_imports</title>
<polygon fill="none" stroke="#000000" points="16,-78 16,-130 905,-130 905,-78 16,-78"/>
</g>
<g id="clust6" class="cluster">
<title>cluster_AppModule_bootstrap</title>
<polygon fill="none" stroke="#000000" points="455,-208 455,-260 579,-260 579,-208 455,-208"/>
</g>
<!-- AppComponent -->
<g id="node1" class="node">
<title>AppComponent</title>
<polygon fill="#ffffb3" stroke="#000000" points="1026.9399,-122 921.0601,-122 921.0601,-86 1026.9399,-86 1026.9399,-122"/>
<text text-anchor="middle" x="974" y="-99.8" font-family="Times,serif" font-size="14.00" fill="#000000">AppComponent</text>
</g>
<!-- AppModule -->
<g id="node2" class="node">
<title>AppModule</title>
<polygon fill="#8dd3c7" stroke="#000000" points="558.6571,-187 555.6571,-191 534.6571,-191 531.6571,-187 475.3429,-187 475.3429,-151 558.6571,-151 558.6571,-187"/>
<text text-anchor="middle" x="517" y="-164.8" font-family="Times,serif" font-size="14.00" fill="#000000">AppModule</text>
</g>
<!-- AppComponent&#45;&gt;AppModule -->
<g id="edge1" class="edge">
<title>AppComponent&#45;&gt;AppModule</title>
<path fill="none" stroke="#000000" d="M974,-122.2921C974,-144.2057 974,-178 974,-178 974,-178 568.7672,-178 568.7672,-178"/>
<polygon fill="#000000" stroke="#000000" points="568.7672,-174.5001 558.7672,-178 568.7672,-181.5001 568.7672,-174.5001"/>
</g>
<!-- AppComponent  -->
<g id="node10" class="node">
<title>AppComponent </title>
<polygon fill="#80b1d3" stroke="#000000" points="571.439,-252 462.561,-252 462.561,-216 571.439,-216 571.439,-252"/>
<text text-anchor="middle" x="517" y="-229.8" font-family="Times,serif" font-size="14.00" fill="#000000">AppComponent </text>
</g>
<!-- AppModule&#45;&gt;AppComponent  -->
<g id="edge9" class="edge">
<title>AppModule&#45;&gt;AppComponent </title>
<path fill="none" stroke="#000000" stroke-dasharray="1,5" d="M517,-187.1061C517,-187.1061 517,-205.991 517,-205.991"/>
<polygon fill="#000000" stroke="#000000" points="513.5001,-205.9909 517,-215.991 520.5001,-205.991 513.5001,-205.9909"/>
</g>
<!-- AppRoutingModule -->
<g id="node3" class="node">
<title>AppRoutingModule</title>
<polygon fill="#8dd3c7" stroke="#000000" points="897.2744,-122 894.2744,-126 873.2744,-126 870.2744,-122 768.7256,-122 768.7256,-86 897.2744,-86 897.2744,-122"/>
<text text-anchor="middle" x="833" y="-99.8" font-family="Times,serif" font-size="14.00" fill="#000000">AppRoutingModule</text>
</g>
<!-- AppRoutingModule&#45;&gt;AppModule -->
<g id="edge2" class="edge">
<title>AppRoutingModule&#45;&gt;AppModule</title>
<path fill="none" stroke="#000000" d="M833,-122.1061C833,-141.3391 833,-169 833,-169 833,-169 568.9624,-169 568.9624,-169"/>
<polygon fill="#000000" stroke="#000000" points="568.9624,-165.5001 558.9624,-169 568.9623,-172.5001 568.9624,-165.5001"/>
</g>
<!-- CollectionModule -->
<g id="node4" class="node">
<title>CollectionModule</title>
<polygon fill="#8dd3c7" stroke="#000000" points="750.8781,-122 747.8781,-126 726.8781,-126 723.8781,-122 633.1219,-122 633.1219,-86 750.8781,-86 750.8781,-122"/>
<text text-anchor="middle" x="692" y="-99.8" font-family="Times,serif" font-size="14.00" fill="#000000">CollectionModule</text>
</g>
<!-- CollectionModule&#45;&gt;AppModule -->
<g id="edge3" class="edge">
<title>CollectionModule&#45;&gt;AppModule</title>
<path fill="none" stroke="#000000" d="M692,-122.027C692,-138.3976 692,-160 692,-160 692,-160 568.9169,-160 568.9169,-160"/>
<polygon fill="#000000" stroke="#000000" points="568.9169,-156.5001 558.9169,-160 568.9168,-163.5001 568.9169,-156.5001"/>
</g>
<!-- CoreModule -->
<g id="node5" class="node">
<title>CoreModule</title>
<polygon fill="#8dd3c7" stroke="#000000" points="615.2619,-122 612.2619,-126 591.2619,-126 588.2619,-122 528.7381,-122 528.7381,-86 615.2619,-86 615.2619,-122"/>
<text text-anchor="middle" x="572" y="-99.8" font-family="Times,serif" font-size="14.00" fill="#000000">CoreModule</text>
</g>
<!-- CoreModule&#45;&gt;AppModule -->
<g id="edge4" class="edge">
<title>CoreModule&#45;&gt;AppModule</title>
<path fill="none" stroke="#000000" d="M543.7237,-122.1061C543.7237,-122.1061 543.7237,-140.991 543.7237,-140.991"/>
<polygon fill="#000000" stroke="#000000" points="540.2238,-140.9909 543.7237,-150.991 547.2238,-140.991 540.2238,-140.9909"/>
</g>
<!-- DialogModule -->
<g id="node6" class="node">
<title>DialogModule</title>
<polygon fill="#8dd3c7" stroke="#000000" points="510.6528,-122 507.6528,-126 486.6528,-126 483.6528,-122 413.3472,-122 413.3472,-86 510.6528,-86 510.6528,-122"/>
<text text-anchor="middle" x="462" y="-99.8" font-family="Times,serif" font-size="14.00" fill="#000000">DialogModule</text>
</g>
<!-- DialogModule&#45;&gt;AppModule -->
<g id="edge5" class="edge">
<title>DialogModule&#45;&gt;AppModule</title>
<path fill="none" stroke="#000000" d="M492.999,-122.1061C492.999,-122.1061 492.999,-140.991 492.999,-140.991"/>
<polygon fill="#000000" stroke="#000000" points="489.499,-140.9909 492.999,-150.991 496.499,-140.991 489.499,-140.9909"/>
</g>
<!-- DocumentsModule -->
<g id="node7" class="node">
<title>DocumentsModule</title>
<polygon fill="#8dd3c7" stroke="#000000" points="395.8118,-122 392.8118,-126 371.8118,-126 368.8118,-122 272.1882,-122 272.1882,-86 395.8118,-86 395.8118,-122"/>
<text text-anchor="middle" x="334" y="-99.8" font-family="Times,serif" font-size="14.00" fill="#000000">DocumentsModule</text>
</g>
<!-- DocumentsModule&#45;&gt;AppModule -->
<g id="edge6" class="edge">
<title>DocumentsModule&#45;&gt;AppModule</title>
<path fill="none" stroke="#000000" d="M334,-122.027C334,-138.3976 334,-160 334,-160 334,-160 465.0161,-160 465.0161,-160"/>
<polygon fill="#000000" stroke="#000000" points="465.0161,-163.5001 475.0161,-160 465.0161,-156.5001 465.0161,-163.5001"/>
</g>
<!-- ViewModule -->
<g id="node8" class="node">
<title>ViewModule</title>
<polygon fill="#8dd3c7" stroke="#000000" points="253.8683,-122 250.8683,-126 229.8683,-126 226.8683,-122 164.1317,-122 164.1317,-86 253.8683,-86 253.8683,-122"/>
<text text-anchor="middle" x="209" y="-99.8" font-family="Times,serif" font-size="14.00" fill="#000000">ViewModule</text>
</g>
<!-- ViewModule&#45;&gt;AppModule -->
<g id="edge7" class="edge">
<title>ViewModule&#45;&gt;AppModule</title>
<path fill="none" stroke="#000000" d="M209,-122.1061C209,-141.3391 209,-169 209,-169 209,-169 465.1412,-169 465.1412,-169"/>
<polygon fill="#000000" stroke="#000000" points="465.1412,-172.5001 475.1412,-169 465.1412,-165.5001 465.1412,-172.5001"/>
</g>
<!-- WorkspaceModule -->
<g id="node9" class="node">
<title>WorkspaceModule</title>
<polygon fill="#8dd3c7" stroke="#000000" points="146.0144,-122 143.0144,-126 122.0144,-126 119.0144,-122 23.9856,-122 23.9856,-86 146.0144,-86 146.0144,-122"/>
<text text-anchor="middle" x="85" y="-99.8" font-family="Times,serif" font-size="14.00" fill="#000000">WorkspaceModule</text>
</g>
<!-- WorkspaceModule&#45;&gt;AppModule -->
<g id="edge8" class="edge">
<title>WorkspaceModule&#45;&gt;AppModule</title>
<path fill="none" stroke="#000000" d="M85,-122.2921C85,-144.2057 85,-178 85,-178 85,-178 465.1855,-178 465.1855,-178"/>
<polygon fill="#000000" stroke="#000000" points="465.1855,-181.5001 475.1855,-178 465.1855,-174.5001 465.1855,-181.5001"/>
</g>
</g>
</svg>
