<?xml version="1.0" encoding="UTF-8" standalone="no"?>
<!DOCTYPE svg PUBLIC "-//W3C//DTD SVG 1.1//EN"
 "http://www.w3.org/Graphics/SVG/1.1/DTD/svg11.dtd">
<!-- Generated by graphviz version 2.40.1 (20161225.0304)
 -->
<!-- Title: dependencies Pages: 1 -->
<svg width="1386pt" height="284pt"
 viewBox="0.00 0.00 1386.00 284.00" xmlns="http://www.w3.org/2000/svg" xmlns:xlink="http://www.w3.org/1999/xlink">
<g id="graph0" class="graph" transform="scale(1 1) rotate(0) translate(4 280)">
<title>dependencies</title>
<polygon fill="#ffffff" stroke="transparent" points="-4,4 -4,-280 1382,-280 1382,4 -4,4"/>
<text text-anchor="start" x="668.0091" y="-42.4" font-family="sans-serif" font-weight="bold" font-size="14.00" fill="#000000">Legend</text>
<polygon fill="#ffffb3" stroke="transparent" points="455,-10 455,-30 475,-30 475,-10 455,-10"/>
<text text-anchor="start" x="478.629" y="-15.4" font-family="sans-serif" font-size="14.00" fill="#000000"> &#160;Declarations</text>
<polygon fill="#8dd3c7" stroke="transparent" points="568,-10 568,-30 588,-30 588,-10 568,-10"/>
<text text-anchor="start" x="591.7251" y="-15.4" font-family="sans-serif" font-size="14.00" fill="#000000"> &#160;Module</text>
<polygon fill="#80b1d3" stroke="transparent" points="654,-10 654,-30 674,-30 674,-10 654,-10"/>
<text text-anchor="start" x="677.7812" y="-15.4" font-family="sans-serif" font-size="14.00" fill="#000000"> &#160;Bootstrap</text>
<polygon fill="#fdb462" stroke="transparent" points="751,-10 751,-30 771,-30 771,-10 751,-10"/>
<text text-anchor="start" x="774.6732" y="-15.4" font-family="sans-serif" font-size="14.00" fill="#000000"> &#160;Providers</text>
<polygon fill="#fb8072" stroke="transparent" points="847,-10 847,-30 867,-30 867,-10 847,-10"/>
<text text-anchor="start" x="870.7258" y="-15.4" font-family="sans-serif" font-size="14.00" fill="#000000"> &#160;Exports</text>
<g id="clust1" class="cluster">
<title>cluster_PostItCollectionsModule</title>
<polygon fill="none" stroke="#000000" stroke-dasharray="1,5" points="8,-70 8,-268 1370,-268 1370,-70 8,-70"/>
</g>
<g id="clust2" class="cluster">
<title>cluster_PostItCollectionsModule_declarations</title>
<polygon fill="none" stroke="#000000" points="136,-78 136,-130 1362,-130 1362,-78 136,-78"/>
</g>
<g id="clust9" class="cluster">
<title>cluster_PostItCollectionsModule_imports</title>
<polygon fill="none" stroke="#000000" points="16,-78 16,-130 128,-130 128,-78 16,-78"/>
</g>
<g id="clust10" class="cluster">
<title>cluster_PostItCollectionsModule_exports</title>
<polygon fill="none" stroke="#000000" points="589,-208 589,-260 787,-260 787,-208 589,-208"/>
</g>
<!-- LayoutItem -->
<g id="node1" class="node">
<title>LayoutItem</title>
<polygon fill="#ffffb3" stroke="#000000" points="1353.8148,-122 1272.1852,-122 1272.1852,-86 1353.8148,-86 1353.8148,-122"/>
<text text-anchor="middle" x="1313" y="-99.8" font-family="Times,serif" font-size="14.00" fill="#000000">LayoutItem</text>
</g>
<!-- PostItCollectionsModule -->
<g id="node7" class="node">
<title>PostItCollectionsModule</title>
<polygon fill="#8dd3c7" stroke="#000000" points="765.9916,-187 762.9916,-191 741.9916,-191 738.9916,-187 610.0084,-187 610.0084,-151 765.9916,-151 765.9916,-187"/>
<text text-anchor="middle" x="688" y="-164.8" font-family="Times,serif" font-size="14.00" fill="#000000">PostItCollectionsModule</text>
</g>
<!-- LayoutItem&#45;&gt;PostItCollectionsModule -->
<g id="edge1" class="edge">
<title>LayoutItem&#45;&gt;PostItCollectionsModule</title>
<path fill="none" stroke="#000000" d="M1313,-122.2921C1313,-144.2057 1313,-178 1313,-178 1313,-178 776.2082,-178 776.2082,-178"/>
<polygon fill="#000000" stroke="#000000" points="776.2082,-174.5001 766.2082,-178 776.2081,-181.5001 776.2082,-174.5001"/>
</g>
<!-- PostItCollectionAddButtonComponent -->
<g id="node2" class="node">
<title>PostItCollectionAddButtonComponent</title>
<polygon fill="#ffffb3" stroke="#000000" points="1254.0544,-122 1019.9456,-122 1019.9456,-86 1254.0544,-86 1254.0544,-122"/>
<text text-anchor="middle" x="1137" y="-99.8" font-family="Times,serif" font-size="14.00" fill="#000000">PostItCollectionAddButtonComponent</text>
</g>
<!-- PostItCollectionAddButtonComponent&#45;&gt;PostItCollectionsModule -->
<g id="edge2" class="edge">
<title>PostItCollectionAddButtonComponent&#45;&gt;PostItCollectionsModule</title>
<path fill="none" stroke="#000000" d="M1137,-122.1061C1137,-141.3391 1137,-169 1137,-169 1137,-169 776.2098,-169 776.2098,-169"/>
<polygon fill="#000000" stroke="#000000" points="776.2099,-165.5001 766.2098,-169 776.2098,-172.5001 776.2099,-165.5001"/>
</g>
<!-- PostItCollectionComponent -->
<g id="node3" class="node">
<title>PostItCollectionComponent</title>
<polygon fill="#ffffb3" stroke="#000000" points="1002.3299,-122 829.6701,-122 829.6701,-86 1002.3299,-86 1002.3299,-122"/>
<text text-anchor="middle" x="916" y="-99.8" font-family="Times,serif" font-size="14.00" fill="#000000">PostItCollectionComponent</text>
</g>
<!-- PostItCollectionComponent&#45;&gt;PostItCollectionsModule -->
<g id="edge3" class="edge">
<title>PostItCollectionComponent&#45;&gt;PostItCollectionsModule</title>
<path fill="none" stroke="#000000" d="M916,-122.027C916,-138.3976 916,-160 916,-160 916,-160 776.1457,-160 776.1457,-160"/>
<polygon fill="#000000" stroke="#000000" points="776.1457,-156.5001 766.1457,-160 776.1456,-163.5001 776.1457,-156.5001"/>
</g>
<!-- PostItCollectionImportButtonComponent -->
<g id="node4" class="node">
<title>PostItCollectionImportButtonComponent</title>
<polygon fill="#ffffb3" stroke="#000000" points="812.0502,-122 563.9498,-122 563.9498,-86 812.0502,-86 812.0502,-122"/>
<text text-anchor="middle" x="688" y="-99.8" font-family="Times,serif" font-size="14.00" fill="#000000">PostItCollectionImportButtonComponent</text>
</g>
<!-- PostItCollectionImportButtonComponent&#45;&gt;PostItCollectionsModule -->
<g id="edge4" class="edge">
<title>PostItCollectionImportButtonComponent&#45;&gt;PostItCollectionsModule</title>
<path fill="none" stroke="#000000" d="M688,-122.1061C688,-122.1061 688,-140.991 688,-140.991"/>
<polygon fill="#000000" stroke="#000000" points="684.5001,-140.9909 688,-150.991 691.5001,-140.991 684.5001,-140.9909"/>
</g>
<!-- PostItCollectionNameComponent -->
<g id="node5" class="node">
<title>PostItCollectionNameComponent</title>
<polygon fill="#ffffb3" stroke="#000000" points="545.7561,-122 340.2439,-122 340.2439,-86 545.7561,-86 545.7561,-122"/>
<text text-anchor="middle" x="443" y="-99.8" font-family="Times,serif" font-size="14.00" fill="#000000">PostItCollectionNameComponent</text>
</g>
<!-- PostItCollectionNameComponent&#45;&gt;PostItCollectionsModule -->
<g id="edge5" class="edge">
<title>PostItCollectionNameComponent&#45;&gt;PostItCollectionsModule</title>
<path fill="none" stroke="#000000" d="M443,-122.027C443,-138.3976 443,-160 443,-160 443,-160 599.8069,-160 599.8069,-160"/>
<polygon fill="#000000" stroke="#000000" points="599.8069,-163.5001 609.8069,-160 599.8068,-156.5001 599.8069,-163.5001"/>
</g>
<!-- PostItCollectionsComponent -->
<g id="node6" class="node">
<title>PostItCollectionsComponent</title>
<polygon fill="#ffffb3" stroke="#000000" points="321.7743,-122 144.2257,-122 144.2257,-86 321.7743,-86 321.7743,-122"/>
<text text-anchor="middle" x="233" y="-99.8" font-family="Times,serif" font-size="14.00" fill="#000000">PostItCollectionsComponent</text>
</g>
<!-- PostItCollectionsComponent&#45;&gt;PostItCollectionsModule -->
<g id="edge6" class="edge">
<title>PostItCollectionsComponent&#45;&gt;PostItCollectionsModule</title>
<path fill="none" stroke="#000000" d="M233,-122.1061C233,-141.3391 233,-169 233,-169 233,-169 599.7827,-169 599.7827,-169"/>
<polygon fill="#000000" stroke="#000000" points="599.7827,-172.5001 609.7827,-169 599.7827,-165.5001 599.7827,-172.5001"/>
</g>
<!-- PostItCollectionsComponent  -->
<g id="node9" class="node">
<title>PostItCollectionsComponent </title>
<polygon fill="#fb8072" stroke="#000000" points="778.7744,-252 597.2256,-252 597.2256,-216 778.7744,-216 778.7744,-252"/>
<text text-anchor="middle" x="688" y="-229.8" font-family="Times,serif" font-size="14.00" fill="#000000">PostItCollectionsComponent </text>
</g>
<!-- PostItCollectionsModule&#45;&gt;PostItCollectionsComponent  -->
<g id="edge8" class="edge">
<title>PostItCollectionsModule&#45;&gt;PostItCollectionsComponent </title>
<path fill="none" stroke="#000000" stroke-dasharray="5,2" d="M688,-187.1061C688,-187.1061 688,-205.991 688,-205.991"/>
<polygon fill="#000000" stroke="#000000" points="684.5001,-205.9909 688,-215.991 691.5001,-205.991 684.5001,-205.9909"/>
</g>
<!-- PickerModule -->
<g id="node8" class="node">
<title>PickerModule</title>
<polygon fill="#8dd3c7" stroke="#000000" points="119.8133,-122 116.8133,-126 95.8133,-126 92.8133,-122 24.1867,-122 24.1867,-86 119.8133,-86 119.8133,-122"/>
<text text-anchor="middle" x="72" y="-99.8" font-family="Times,serif" font-size="14.00" fill="#000000">PickerModule</text>
</g>
<!-- PickerModule&#45;&gt;PostItCollectionsModule -->
<g id="edge7" class="edge">
<title>PickerModule&#45;&gt;PostItCollectionsModule</title>
<path fill="none" stroke="#000000" d="M72,-122.2921C72,-144.2057 72,-178 72,-178 72,-178 599.9832,-178 599.9832,-178"/>
<polygon fill="#000000" stroke="#000000" points="599.9832,-181.5001 609.9832,-178 599.9831,-174.5001 599.9832,-181.5001"/>
</g>
</g>
</svg>
