<?xml version="1.0" encoding="UTF-8" standalone="no"?>
<!DOCTYPE svg PUBLIC "-//W3C//DTD SVG 1.1//EN"
 "http://www.w3.org/Graphics/SVG/1.1/DTD/svg11.dtd">
<!-- Generated by graphviz version 2.40.1 (20161225.0304)
 -->
<!-- Title: dependencies Pages: 1 -->
<svg width="1813pt" height="284pt"
 viewBox="0.00 0.00 1813.00 284.00" xmlns="http://www.w3.org/2000/svg" xmlns:xlink="http://www.w3.org/1999/xlink">
<g id="graph0" class="graph" transform="scale(1 1) rotate(0) translate(4 280)">
<title>dependencies</title>
<polygon fill="#ffffff" stroke="transparent" points="-4,4 -4,-280 1809,-280 1809,4 -4,4"/>
<text text-anchor="start" x="881.5091" y="-42.4" font-family="sans-serif" font-weight="bold" font-size="14.00" fill="#000000">Legend</text>
<polygon fill="#ffffb3" stroke="transparent" points="668.5,-10 668.5,-30 688.5,-30 688.5,-10 668.5,-10"/>
<text text-anchor="start" x="692.129" y="-15.4" font-family="sans-serif" font-size="14.00" fill="#000000"> &#160;Declarations</text>
<polygon fill="#8dd3c7" stroke="transparent" points="781.5,-10 781.5,-30 801.5,-30 801.5,-10 781.5,-10"/>
<text text-anchor="start" x="805.2251" y="-15.4" font-family="sans-serif" font-size="14.00" fill="#000000"> &#160;Module</text>
<polygon fill="#80b1d3" stroke="transparent" points="867.5,-10 867.5,-30 887.5,-30 887.5,-10 867.5,-10"/>
<text text-anchor="start" x="891.2812" y="-15.4" font-family="sans-serif" font-size="14.00" fill="#000000"> &#160;Bootstrap</text>
<polygon fill="#fdb462" stroke="transparent" points="964.5,-10 964.5,-30 984.5,-30 984.5,-10 964.5,-10"/>
<text text-anchor="start" x="988.1732" y="-15.4" font-family="sans-serif" font-size="14.00" fill="#000000"> &#160;Providers</text>
<polygon fill="#fb8072" stroke="transparent" points="1060.5,-10 1060.5,-30 1080.5,-30 1080.5,-10 1060.5,-10"/>
<text text-anchor="start" x="1084.2258" y="-15.4" font-family="sans-serif" font-size="14.00" fill="#000000"> &#160;Exports</text>
<g id="clust1" class="cluster">
<title>cluster_PostItCollectionsModule</title>
<polygon fill="none" stroke="#000000" stroke-dasharray="1,5" points="8,-70 8,-268 1797,-268 1797,-70 8,-70"/>
</g>
<g id="clust2" class="cluster">
<title>cluster_PostItCollectionsModule_declarations</title>
<polygon fill="none" stroke="#000000" points="311,-78 311,-130 1789,-130 1789,-78 311,-78"/>
</g>
<g id="clust10" class="cluster">
<title>cluster_PostItCollectionsModule_imports</title>
<polygon fill="none" stroke="#000000" points="16,-78 16,-130 303,-130 303,-78 16,-78"/>
</g>
<g id="clust11" class="cluster">
<title>cluster_PostItCollectionsModule_exports</title>
<polygon fill="none" stroke="#000000" points="676,-208 676,-260 1028,-260 1028,-208 676,-208"/>
</g>
<!-- EmptyCollectionsComponent -->
<g id="node1" class="node">
<title>EmptyCollectionsComponent</title>
<polygon fill="#ffffb3" stroke="#000000" points="1781.4395,-122 1598.5605,-122 1598.5605,-86 1781.4395,-86 1781.4395,-122"/>
<text text-anchor="middle" x="1690" y="-99.8" font-family="Times,serif" font-size="14.00" fill="#000000">EmptyCollectionsComponent</text>
</g>
<!-- PostItCollectionsModule -->
<g id="node8" class="node">
<title>PostItCollectionsModule</title>
<polygon fill="#8dd3c7" stroke="#000000" points="940.9916,-187 937.9916,-191 916.9916,-191 913.9916,-187 785.0084,-187 785.0084,-151 940.9916,-151 940.9916,-187"/>
<text text-anchor="middle" x="863" y="-164.8" font-family="Times,serif" font-size="14.00" fill="#000000">PostItCollectionsModule</text>
</g>
<!-- EmptyCollectionsComponent&#45;&gt;PostItCollectionsModule -->
<g id="edge1" class="edge">
<title>EmptyCollectionsComponent&#45;&gt;PostItCollectionsModule</title>
<path fill="none" stroke="#000000" d="M1690,-122.0109C1690,-144.4852 1690,-180 1690,-180 1690,-180 951.1746,-180 951.1746,-180"/>
<polygon fill="#000000" stroke="#000000" points="951.1746,-176.5001 941.1746,-180 951.1745,-183.5001 951.1746,-176.5001"/>
</g>
<!-- LayoutItemDirective -->
<g id="node2" class="node">
<title>LayoutItemDirective</title>
<polygon fill="#ffffb3" stroke="#000000" points="1580.8976,-122 1447.1024,-122 1447.1024,-86 1580.8976,-86 1580.8976,-122"/>
<text text-anchor="middle" x="1514" y="-99.8" font-family="Times,serif" font-size="14.00" fill="#000000">LayoutItemDirective</text>
</g>
<!-- LayoutItemDirective&#45;&gt;PostItCollectionsModule -->
<g id="edge2" class="edge">
<title>LayoutItemDirective&#45;&gt;PostItCollectionsModule</title>
<path fill="none" stroke="#000000" d="M1514,-122.1289C1514,-142.5724 1514,-173 1514,-173 1514,-173 951.2022,-173 951.2022,-173"/>
<polygon fill="#000000" stroke="#000000" points="951.2023,-169.5001 941.2022,-173 951.2022,-176.5001 951.2023,-169.5001"/>
</g>
<!-- PostItCollectionAddButtonComponent -->
<g id="node3" class="node">
<title>PostItCollectionAddButtonComponent</title>
<polygon fill="#ffffb3" stroke="#000000" points="1429.0544,-122 1194.9456,-122 1194.9456,-86 1429.0544,-86 1429.0544,-122"/>
<text text-anchor="middle" x="1312" y="-99.8" font-family="Times,serif" font-size="14.00" fill="#000000">PostItCollectionAddButtonComponent</text>
</g>
<!-- PostItCollectionAddButtonComponent&#45;&gt;PostItCollectionsModule -->
<g id="edge3" class="edge">
<title>PostItCollectionAddButtonComponent&#45;&gt;PostItCollectionsModule</title>
<path fill="none" stroke="#000000" d="M1312,-122.2667C1312,-140.5552 1312,-166 1312,-166 1312,-166 951.2098,-166 951.2098,-166"/>
<polygon fill="#000000" stroke="#000000" points="951.2099,-162.5001 941.2098,-166 951.2098,-169.5001 951.2099,-162.5001"/>
</g>
<!-- PostItCollectionComponent -->
<g id="node4" class="node">
<title>PostItCollectionComponent</title>
<polygon fill="#ffffb3" stroke="#000000" points="1177.3299,-122 1004.6701,-122 1004.6701,-86 1177.3299,-86 1177.3299,-122"/>
<text text-anchor="middle" x="1091" y="-99.8" font-family="Times,serif" font-size="14.00" fill="#000000">PostItCollectionComponent</text>
</g>
<!-- PostItCollectionComponent&#45;&gt;PostItCollectionsModule -->
<g id="edge4" class="edge">
<title>PostItCollectionComponent&#45;&gt;PostItCollectionsModule</title>
<path fill="none" stroke="#000000" d="M1012.6419,-122.0091C1012.6419,-138.0494 1012.6419,-159 1012.6419,-159 1012.6419,-159 951.327,-159 951.327,-159"/>
<polygon fill="#000000" stroke="#000000" points="951.327,-155.5001 941.327,-159 951.327,-162.5001 951.327,-155.5001"/>
</g>
<!-- PostItCollectionImportButtonComponent -->
<g id="node5" class="node">
<title>PostItCollectionImportButtonComponent</title>
<polygon fill="#ffffb3" stroke="#000000" points="987.0502,-122 738.9498,-122 738.9498,-86 987.0502,-86 987.0502,-122"/>
<text text-anchor="middle" x="863" y="-99.8" font-family="Times,serif" font-size="14.00" fill="#000000">PostItCollectionImportButtonComponent</text>
</g>
<!-- PostItCollectionImportButtonComponent&#45;&gt;PostItCollectionsModule -->
<g id="edge5" class="edge">
<title>PostItCollectionImportButtonComponent&#45;&gt;PostItCollectionsModule</title>
<path fill="none" stroke="#000000" d="M863,-122.1061C863,-122.1061 863,-140.991 863,-140.991"/>
<polygon fill="#000000" stroke="#000000" points="859.5001,-140.9909 863,-150.991 866.5001,-140.991 859.5001,-140.9909"/>
</g>
<!-- PostItCollectionNameComponent -->
<g id="node6" class="node">
<title>PostItCollectionNameComponent</title>
<polygon fill="#ffffb3" stroke="#000000" points="720.7561,-122 515.2439,-122 515.2439,-86 720.7561,-86 720.7561,-122"/>
<text text-anchor="middle" x="618" y="-99.8" font-family="Times,serif" font-size="14.00" fill="#000000">PostItCollectionNameComponent</text>
</g>
<!-- PostItCollectionNameComponent&#45;&gt;PostItCollectionsModule -->
<g id="edge6" class="edge">
<title>PostItCollectionNameComponent&#45;&gt;PostItCollectionsModule</title>
<path fill="none" stroke="#000000" d="M702.6205,-122.0091C702.6205,-138.0494 702.6205,-159 702.6205,-159 702.6205,-159 774.6895,-159 774.6895,-159"/>
<polygon fill="#000000" stroke="#000000" points="774.6896,-162.5001 784.6895,-159 774.6895,-155.5001 774.6896,-162.5001"/>
</g>
<!-- PostItCollectionsComponent -->
<g id="node7" class="node">
<title>PostItCollectionsComponent</title>
<polygon fill="#ffffb3" stroke="#000000" points="496.7743,-122 319.2257,-122 319.2257,-86 496.7743,-86 496.7743,-122"/>
<text text-anchor="middle" x="408" y="-99.8" font-family="Times,serif" font-size="14.00" fill="#000000">PostItCollectionsComponent</text>
</g>
<!-- PostItCollectionsComponent&#45;&gt;PostItCollectionsModule -->
<g id="edge7" class="edge">
<title>PostItCollectionsComponent&#45;&gt;PostItCollectionsModule</title>
<path fill="none" stroke="#000000" d="M408,-122.2667C408,-140.5552 408,-166 408,-166 408,-166 774.7827,-166 774.7827,-166"/>
<polygon fill="#000000" stroke="#000000" points="774.7827,-169.5001 784.7827,-166 774.7827,-162.5001 774.7827,-169.5001"/>
</g>
<!-- LayoutItemDirective  -->
<g id="node11" class="node">
<title>LayoutItemDirective </title>
<polygon fill="#fb8072" stroke="#000000" points="1020.397,-252 883.603,-252 883.603,-216 1020.397,-216 1020.397,-252"/>
<text text-anchor="middle" x="952" y="-229.8" font-family="Times,serif" font-size="14.00" fill="#000000">LayoutItemDirective </text>
</g>
<!-- PostItCollectionsModule&#45;&gt;LayoutItemDirective  -->
<g id="edge10" class="edge">
<title>PostItCollectionsModule&#45;&gt;LayoutItemDirective </title>
<path fill="none" stroke="#000000" stroke-dasharray="5,2" d="M912.2737,-187.1061C912.2737,-187.1061 912.2737,-205.991 912.2737,-205.991"/>
<polygon fill="#000000" stroke="#000000" points="908.7737,-205.9909 912.2737,-215.991 915.7737,-205.991 908.7737,-205.9909"/>
</g>
<!-- PostItCollectionsComponent  -->
<g id="node12" class="node">
<title>PostItCollectionsComponent </title>
<polygon fill="#fb8072" stroke="#000000" points="865.7744,-252 684.2256,-252 684.2256,-216 865.7744,-216 865.7744,-252"/>
<text text-anchor="middle" x="775" y="-229.8" font-family="Times,serif" font-size="14.00" fill="#000000">PostItCollectionsComponent </text>
</g>
<!-- PostItCollectionsModule&#45;&gt;PostItCollectionsComponent  -->
<g id="edge11" class="edge">
<title>PostItCollectionsModule&#45;&gt;PostItCollectionsComponent </title>
<path fill="none" stroke="#000000" stroke-dasharray="5,2" d="M825.3207,-187.1061C825.3207,-187.1061 825.3207,-205.991 825.3207,-205.991"/>
<polygon fill="#000000" stroke="#000000" points="821.8207,-205.9909 825.3207,-215.991 828.8207,-205.991 821.8207,-205.9909"/>
</g>
<!-- PickerModule -->
<g id="node9" class="node">
<title>PickerModule</title>
<polygon fill="#8dd3c7" stroke="#000000" points="294.8133,-122 291.8133,-126 270.8133,-126 267.8133,-122 199.1867,-122 199.1867,-86 294.8133,-86 294.8133,-122"/>
<text text-anchor="middle" x="247" y="-99.8" font-family="Times,serif" font-size="14.00" fill="#000000">PickerModule</text>
</g>
<!-- PickerModule&#45;&gt;PostItCollectionsModule -->
<g id="edge8" class="edge">
<title>PickerModule&#45;&gt;PostItCollectionsModule</title>
<path fill="none" stroke="#000000" d="M247,-122.1289C247,-142.5724 247,-173 247,-173 247,-173 774.9832,-173 774.9832,-173"/>
<polygon fill="#000000" stroke="#000000" points="774.9832,-176.5001 784.9832,-173 774.9831,-169.5001 774.9832,-176.5001"/>
</g>
<!-- WarningMessageModule -->
<g id="node10" class="node">
<title>WarningMessageModule</title>
<polygon fill="#8dd3c7" stroke="#000000" points="181.5086,-122 178.5086,-126 157.5086,-126 154.5086,-122 24.4914,-122 24.4914,-86 181.5086,-86 181.5086,-122"/>
<text text-anchor="middle" x="103" y="-99.8" font-family="Times,serif" font-size="14.00" fill="#000000">WarningMessageModule</text>
</g>
<!-- WarningMessageModule&#45;&gt;PostItCollectionsModule -->
<g id="edge9" class="edge">
<title>WarningMessageModule&#45;&gt;PostItCollectionsModule</title>
<path fill="none" stroke="#000000" d="M103,-122.0109C103,-144.4852 103,-180 103,-180 103,-180 774.884,-180 774.884,-180"/>
<polygon fill="#000000" stroke="#000000" points="774.8841,-183.5001 784.884,-180 774.884,-176.5001 774.8841,-183.5001"/>
</g>
</g>
</svg>
