<?xml version="1.0" encoding="UTF-8" standalone="no"?>
<!DOCTYPE svg PUBLIC "-//W3C//DTD SVG 1.1//EN"
 "http://www.w3.org/Graphics/SVG/1.1/DTD/svg11.dtd">
<!-- Generated by graphviz version 2.40.1 (20161225.0304)
 -->
<!-- Title: dependencies Pages: 1 -->
<svg width="1226pt" height="284pt"
 viewBox="0.00 0.00 1226.00 284.00" xmlns="http://www.w3.org/2000/svg" xmlns:xlink="http://www.w3.org/1999/xlink">
<g id="graph0" class="graph" transform="scale(1 1) rotate(0) translate(4 280)">
<title>dependencies</title>
<polygon fill="#ffffff" stroke="transparent" points="-4,4 -4,-280 1222,-280 1222,4 -4,4"/>
<text text-anchor="start" x="588.0091" y="-42.4" font-family="sans-serif" font-weight="bold" font-size="14.00" fill="#000000">Legend</text>
<polygon fill="#ffffb3" stroke="transparent" points="375,-10 375,-30 395,-30 395,-10 375,-10"/>
<text text-anchor="start" x="398.629" y="-15.4" font-family="sans-serif" font-size="14.00" fill="#000000"> &#160;Declarations</text>
<polygon fill="#8dd3c7" stroke="transparent" points="488,-10 488,-30 508,-30 508,-10 488,-10"/>
<text text-anchor="start" x="511.7251" y="-15.4" font-family="sans-serif" font-size="14.00" fill="#000000"> &#160;Module</text>
<polygon fill="#80b1d3" stroke="transparent" points="574,-10 574,-30 594,-30 594,-10 574,-10"/>
<text text-anchor="start" x="597.7812" y="-15.4" font-family="sans-serif" font-size="14.00" fill="#000000"> &#160;Bootstrap</text>
<polygon fill="#fdb462" stroke="transparent" points="671,-10 671,-30 691,-30 691,-10 671,-10"/>
<text text-anchor="start" x="694.6732" y="-15.4" font-family="sans-serif" font-size="14.00" fill="#000000"> &#160;Providers</text>
<polygon fill="#fb8072" stroke="transparent" points="767,-10 767,-30 787,-30 787,-10 767,-10"/>
<text text-anchor="start" x="790.7258" y="-15.4" font-family="sans-serif" font-size="14.00" fill="#000000"> &#160;Exports</text>
<g id="clust1" class="cluster">
<title>cluster_PipesModule</title>
<polygon fill="none" stroke="#000000" stroke-dasharray="1,5" points="8,-70 8,-268 1210,-268 1210,-70 8,-70"/>
</g>
<g id="clust2" class="cluster">
<title>cluster_PipesModule_declarations</title>
<polygon fill="none" stroke="#000000" points="37,-78 37,-130 1188,-130 1188,-78 37,-78"/>
</g>
<g id="clust14" class="cluster">
<title>cluster_PipesModule_exports</title>
<polygon fill="none" stroke="#000000" points="16,-208 16,-260 1202,-260 1202,-208 16,-208"/>
</g>
<!-- ColorsPipe -->
<g id="node1" class="node">
<title>ColorsPipe</title>
<polygon fill="#ffffb3" stroke="#000000" points="1180.2205,-122 1101.7795,-122 1101.7795,-86 1180.2205,-86 1180.2205,-122"/>
<text text-anchor="middle" x="1141" y="-99.8" font-family="Times,serif" font-size="14.00" fill="#000000">ColorsPipe</text>
</g>
<!-- PipesModule -->
<g id="node11" class="node">
<title>PipesModule</title>
<polygon fill="#8dd3c7" stroke="#000000" points="604.8823,-187 601.8823,-191 580.8823,-191 577.8823,-187 515.1177,-187 515.1177,-151 604.8823,-151 604.8823,-187"/>
<text text-anchor="middle" x="560" y="-164.8" font-family="Times,serif" font-size="14.00" fill="#000000">PipesModule</text>
</g>
<!-- ColorsPipe&#45;&gt;PipesModule -->
<g id="edge1" class="edge">
<title>ColorsPipe&#45;&gt;PipesModule</title>
<path fill="none" stroke="#000000" d="M1107.0149,-122.1686C1107.0149,-141.0898 1107.0149,-168 1107.0149,-168 1107.0149,-168 615.2299,-168 615.2299,-168"/>
<polygon fill="#000000" stroke="#000000" points="615.2299,-164.5001 605.2299,-168 615.2299,-171.5001 615.2299,-164.5001"/>
</g>
<!-- EmptyPipe -->
<g id="node2" class="node">
<title>EmptyPipe</title>
<polygon fill="#ffffb3" stroke="#000000" points="1084.2219,-122 1005.7781,-122 1005.7781,-86 1084.2219,-86 1084.2219,-122"/>
<text text-anchor="middle" x="1045" y="-99.8" font-family="Times,serif" font-size="14.00" fill="#000000">EmptyPipe</text>
</g>
<!-- EmptyPipe&#45;&gt;PipesModule -->
<g id="edge2" class="edge">
<title>EmptyPipe&#45;&gt;PipesModule</title>
<path fill="none" stroke="#000000" d="M1060.1203,-122.302C1060.1203,-140.2699 1060.1203,-165 1060.1203,-165 1060.1203,-165 615.2644,-165 615.2644,-165"/>
<polygon fill="#000000" stroke="#000000" points="615.2644,-161.5001 605.2644,-165 615.2644,-168.5001 615.2644,-161.5001"/>
</g>
<!-- FilterPerspectivesPipe -->
<g id="node3" class="node">
<title>FilterPerspectivesPipe</title>
<polygon fill="#ffffb3" stroke="#000000" points="987.6895,-122 846.3105,-122 846.3105,-86 987.6895,-86 987.6895,-122"/>
<text text-anchor="middle" x="917" y="-99.8" font-family="Times,serif" font-size="14.00" fill="#000000">FilterPerspectivesPipe</text>
</g>
<!-- FilterPerspectivesPipe&#45;&gt;PipesModule -->
<g id="edge3" class="edge">
<title>FilterPerspectivesPipe&#45;&gt;PipesModule</title>
<path fill="none" stroke="#000000" d="M941.6149,-122.0352C941.6149,-138.7344 941.6149,-161 941.6149,-161 941.6149,-161 614.8983,-161 614.8983,-161"/>
<polygon fill="#000000" stroke="#000000" points="614.8983,-157.5001 604.8983,-161 614.8982,-164.5001 614.8983,-157.5001"/>
</g>
<!-- IconsPipe -->
<g id="node4" class="node">
<title>IconsPipe</title>
<polygon fill="#ffffb3" stroke="#000000" points="828.7079,-122 757.2921,-122 757.2921,-86 828.7079,-86 828.7079,-122"/>
<text text-anchor="middle" x="793" y="-99.8" font-family="Times,serif" font-size="14.00" fill="#000000">IconsPipe</text>
</g>
<!-- IconsPipe&#45;&gt;PipesModule -->
<g id="edge4" class="edge">
<title>IconsPipe&#45;&gt;PipesModule</title>
<path fill="none" stroke="#000000" d="M804.8679,-122.2819C804.8679,-137.9478 804.8679,-158 804.8679,-158 804.8679,-158 614.9126,-158 614.9126,-158"/>
<polygon fill="#000000" stroke="#000000" points="614.9126,-154.5001 604.9126,-158 614.9125,-161.5001 614.9126,-154.5001"/>
</g>
<!-- LightenColorPipe -->
<g id="node5" class="node">
<title>LightenColorPipe</title>
<polygon fill="#ffffb3" stroke="#000000" points="739.3245,-122 622.6755,-122 622.6755,-86 739.3245,-86 739.3245,-122"/>
<text text-anchor="middle" x="681" y="-99.8" font-family="Times,serif" font-size="14.00" fill="#000000">LightenColorPipe</text>
</g>
<!-- LightenColorPipe&#45;&gt;PipesModule -->
<g id="edge5" class="edge">
<title>LightenColorPipe&#45;&gt;PipesModule</title>
<path fill="none" stroke="#000000" d="M661.5293,-122.1243C661.5293,-136.7832 661.5293,-155 661.5293,-155 661.5293,-155 615.1235,-155 615.1235,-155"/>
<polygon fill="#000000" stroke="#000000" points="615.1235,-151.5001 605.1235,-155 615.1235,-158.5001 615.1235,-151.5001"/>
</g>
<!-- NativeDatePipe -->
<g id="node6" class="node">
<title>NativeDatePipe</title>
<polygon fill="#ffffb3" stroke="#000000" points="605.1318,-122 500.8682,-122 500.8682,-86 605.1318,-86 605.1318,-122"/>
<text text-anchor="middle" x="553" y="-99.8" font-family="Times,serif" font-size="14.00" fill="#000000">NativeDatePipe</text>
</g>
<!-- NativeDatePipe&#45;&gt;PipesModule -->
<g id="edge6" class="edge">
<title>NativeDatePipe&#45;&gt;PipesModule</title>
<path fill="none" stroke="#000000" d="M560,-122.1061C560,-122.1061 560,-140.991 560,-140.991"/>
<polygon fill="#000000" stroke="#000000" points="556.5001,-140.9909 560,-150.991 563.5001,-140.991 556.5001,-140.9909"/>
</g>
<!-- PermissionsPipe -->
<g id="node7" class="node">
<title>PermissionsPipe</title>
<polygon fill="#ffffb3" stroke="#000000" points="482.0521,-122 373.9479,-122 373.9479,-86 482.0521,-86 482.0521,-122"/>
<text text-anchor="middle" x="428" y="-99.8" font-family="Times,serif" font-size="14.00" fill="#000000">PermissionsPipe</text>
</g>
<!-- PermissionsPipe&#45;&gt;PipesModule -->
<g id="edge7" class="edge">
<title>PermissionsPipe&#45;&gt;PipesModule</title>
<path fill="none" stroke="#000000" d="M478.6506,-122.1243C478.6506,-136.7832 478.6506,-155 478.6506,-155 478.6506,-155 505.0425,-155 505.0425,-155"/>
<polygon fill="#000000" stroke="#000000" points="505.0425,-158.5001 515.0425,-155 505.0424,-151.5001 505.0425,-158.5001"/>
</g>
<!-- PerspectiveIconPipe -->
<g id="node8" class="node">
<title>PerspectiveIconPipe</title>
<polygon fill="#ffffb3" stroke="#000000" points="356.2907,-122 225.7093,-122 225.7093,-86 356.2907,-86 356.2907,-122"/>
<text text-anchor="middle" x="291" y="-99.8" font-family="Times,serif" font-size="14.00" fill="#000000">PerspectiveIconPipe</text>
</g>
<!-- PerspectiveIconPipe&#45;&gt;PipesModule -->
<g id="edge8" class="edge">
<title>PerspectiveIconPipe&#45;&gt;PipesModule</title>
<path fill="none" stroke="#000000" d="M350.5202,-122.0091C350.5202,-138.0494 350.5202,-159 350.5202,-159 350.5202,-159 505.0613,-159 505.0613,-159"/>
<polygon fill="#000000" stroke="#000000" points="505.0614,-162.5001 515.0613,-159 505.0613,-155.5001 505.0614,-162.5001"/>
</g>
<!-- PixelPipe -->
<g id="node9" class="node">
<title>PixelPipe</title>
<polygon fill="#ffffb3" stroke="#000000" points="207.667,-122 138.333,-122 138.333,-86 207.667,-86 207.667,-122"/>
<text text-anchor="middle" x="173" y="-99.8" font-family="Times,serif" font-size="14.00" fill="#000000">PixelPipe</text>
</g>
<!-- PixelPipe&#45;&gt;PipesModule -->
<g id="edge9" class="edge">
<title>PixelPipe&#45;&gt;PipesModule</title>
<path fill="none" stroke="#000000" d="M200.7081,-122.0225C200.7081,-139.3734 200.7081,-163 200.7081,-163 200.7081,-163 504.8592,-163 504.8592,-163"/>
<polygon fill="#000000" stroke="#000000" points="504.8593,-166.5001 514.8592,-163 504.8592,-159.5001 504.8593,-166.5001"/>
</g>
<!-- PrefixPipe -->
<g id="node10" class="node">
<title>PrefixPipe</title>
<polygon fill="#ffffb3" stroke="#000000" points="120.5969,-122 45.4031,-122 45.4031,-86 120.5969,-86 120.5969,-122"/>
<text text-anchor="middle" x="83" y="-99.8" font-family="Times,serif" font-size="14.00" fill="#000000">PrefixPipe</text>
</g>
<!-- PrefixPipe&#45;&gt;PipesModule -->
<g id="edge10" class="edge">
<title>PrefixPipe&#45;&gt;PipesModule</title>
<path fill="none" stroke="#000000" d="M111.3577,-122.2222C111.3577,-140.8285 111.3577,-167 111.3577,-167 111.3577,-167 504.9283,-167 504.9283,-167"/>
<polygon fill="#000000" stroke="#000000" points="504.9284,-170.5001 514.9283,-167 504.9283,-163.5001 504.9284,-170.5001"/>
</g>
<!-- ColorsPipe  -->
<g id="node12" class="node">
<title>ColorsPipe </title>
<polygon fill="#fb8072" stroke="#000000" points="1193.7207,-252 1112.2793,-252 1112.2793,-216 1193.7207,-216 1193.7207,-252"/>
<text text-anchor="middle" x="1153" y="-229.8" font-family="Times,serif" font-size="14.00" fill="#000000">ColorsPipe </text>
</g>
<!-- PipesModule&#45;&gt;ColorsPipe  -->
<g id="edge11" class="edge">
<title>PipesModule&#45;&gt;ColorsPipe </title>
<path fill="none" stroke="#000000" stroke-dasharray="5,2" d="M605.019,-171C742.2675,-171 1146.125,-171 1146.125,-171 1146.125,-171 1146.125,-205.7778 1146.125,-205.7778"/>
<polygon fill="#000000" stroke="#000000" points="1142.6251,-205.7778 1146.125,-215.7778 1149.6251,-205.7778 1142.6251,-205.7778"/>
</g>
<!-- EmptyPipe  -->
<g id="node13" class="node">
<title>EmptyPipe </title>
<polygon fill="#fb8072" stroke="#000000" points="1093.7221,-252 1012.2779,-252 1012.2779,-216 1093.7221,-216 1093.7221,-252"/>
<text text-anchor="middle" x="1053" y="-229.8" font-family="Times,serif" font-size="14.00" fill="#000000">EmptyPipe </text>
</g>
<!-- PipesModule&#45;&gt;EmptyPipe  -->
<g id="edge12" class="edge">
<title>PipesModule&#45;&gt;EmptyPipe </title>
<path fill="none" stroke="#000000" stroke-dasharray="5,2" d="M605.2224,-174C724.0724,-174 1036.1297,-174 1036.1297,-174 1036.1297,-174 1036.1297,-205.998 1036.1297,-205.998"/>
<polygon fill="#000000" stroke="#000000" points="1032.6298,-205.998 1036.1297,-215.998 1039.6298,-205.9981 1032.6298,-205.998"/>
</g>
<!-- FilterPerspectivesPipe  -->
<g id="node14" class="node">
<title>FilterPerspectivesPipe </title>
<polygon fill="#fb8072" stroke="#000000" points="994.1897,-252 849.8103,-252 849.8103,-216 994.1897,-216 994.1897,-252"/>
<text text-anchor="middle" x="922" y="-229.8" font-family="Times,serif" font-size="14.00" fill="#000000">FilterPerspectivesPipe </text>
</g>
<!-- PipesModule&#45;&gt;FilterPerspectivesPipe  -->
<g id="edge13" class="edge">
<title>PipesModule&#45;&gt;FilterPerspectivesPipe </title>
<path fill="none" stroke="#000000" stroke-dasharray="5,2" d="M604.917,-178C696.3745,-178 895.6351,-178 895.6351,-178 895.6351,-178 895.6351,-205.973 895.6351,-205.973"/>
<polygon fill="#000000" stroke="#000000" points="892.1352,-205.973 895.6351,-215.973 899.1352,-205.973 892.1352,-205.973"/>
</g>
<!-- IconsPipe  -->
<g id="node15" class="node">
<title>IconsPipe </title>
<polygon fill="#fb8072" stroke="#000000" points="831.2082,-252 756.7918,-252 756.7918,-216 831.2082,-216 831.2082,-252"/>
<text text-anchor="middle" x="794" y="-229.8" font-family="Times,serif" font-size="14.00" fill="#000000">IconsPipe </text>
</g>
<!-- PipesModule&#45;&gt;IconsPipe  -->
<g id="edge14" class="edge">
<title>PipesModule&#45;&gt;IconsPipe </title>
<path fill="none" stroke="#000000" stroke-dasharray="5,2" d="M605.0159,-181C669.6717,-181 781.1321,-181 781.1321,-181 781.1321,-181 781.1321,-205.7604 781.1321,-205.7604"/>
<polygon fill="#000000" stroke="#000000" points="777.6322,-205.7604 781.1321,-215.7604 784.6322,-205.7604 777.6322,-205.7604"/>
</g>
<!-- LightenColorPipe  -->
<g id="node16" class="node">
<title>LightenColorPipe </title>
<polygon fill="#fb8072" stroke="#000000" points="738.8241,-252 619.1759,-252 619.1759,-216 738.8241,-216 738.8241,-252"/>
<text text-anchor="middle" x="679" y="-229.8" font-family="Times,serif" font-size="14.00" fill="#000000">LightenColorPipe </text>
</g>
<!-- PipesModule&#45;&gt;LightenColorPipe  -->
<g id="edge15" class="edge">
<title>PipesModule&#45;&gt;LightenColorPipe </title>
<path fill="none" stroke="#000000" stroke-dasharray="5,2" d="M605.1385,-184C646.1295,-184 700.2207,-184 700.2207,-184 700.2207,-184 700.2207,-205.9489 700.2207,-205.9489"/>
<polygon fill="#000000" stroke="#000000" points="696.7208,-205.9488 700.2207,-215.9489 703.7208,-205.9489 696.7208,-205.9488"/>
</g>
<!-- NativeDatePipe  -->
<g id="node17" class="node">
<title>NativeDatePipe </title>
<polygon fill="#fb8072" stroke="#000000" points="601.1313,-252 492.8687,-252 492.8687,-216 601.1313,-216 601.1313,-252"/>
<text text-anchor="middle" x="547" y="-229.8" font-family="Times,serif" font-size="14.00" fill="#000000">NativeDatePipe </text>
</g>
<!-- PipesModule&#45;&gt;NativeDatePipe  -->
<g id="edge16" class="edge">
<title>PipesModule&#45;&gt;NativeDatePipe </title>
<path fill="none" stroke="#000000" stroke-dasharray="5,2" d="M558.0622,-187.1061C558.0622,-187.1061 558.0622,-205.991 558.0622,-205.991"/>
<polygon fill="#000000" stroke="#000000" points="554.5623,-205.9909 558.0622,-215.991 561.5623,-205.991 554.5623,-205.9909"/>
</g>
<!-- PermissionsPipe  -->
<g id="node18" class="node">
<title>PermissionsPipe </title>
<polygon fill="#fb8072" stroke="#000000" points="475.0512,-252 362.9488,-252 362.9488,-216 475.0512,-216 475.0512,-252"/>
<text text-anchor="middle" x="419" y="-229.8" font-family="Times,serif" font-size="14.00" fill="#000000">PermissionsPipe </text>
</g>
<!-- PipesModule&#45;&gt;PermissionsPipe  -->
<g id="edge17" class="edge">
<title>PipesModule&#45;&gt;PermissionsPipe </title>
<path fill="none" stroke="#000000" stroke-dasharray="5,2" d="M514.8388,-183C475.3854,-183 424.375,-183 424.375,-183 424.375,-183 424.375,-205.8757 424.375,-205.8757"/>
<polygon fill="#000000" stroke="#000000" points="420.8751,-205.8757 424.375,-215.8757 427.8751,-205.8757 420.8751,-205.8757"/>
</g>
<!-- PerspectiveIconPipe  -->
<g id="node19" class="node">
<title>PerspectiveIconPipe </title>
<polygon fill="#fb8072" stroke="#000000" points="344.7906,-252 211.2094,-252 211.2094,-216 344.7906,-216 344.7906,-252"/>
<text text-anchor="middle" x="278" y="-229.8" font-family="Times,serif" font-size="14.00" fill="#000000">PerspectiveIconPipe </text>
</g>
<!-- PipesModule&#45;&gt;PerspectiveIconPipe  -->
<g id="edge18" class="edge">
<title>PipesModule&#45;&gt;PerspectiveIconPipe </title>
<path fill="none" stroke="#000000" stroke-dasharray="5,2" d="M514.9588,-179C437.0484,-179 285.375,-179 285.375,-179 285.375,-179 285.375,-205.9909 285.375,-205.9909"/>
<polygon fill="#000000" stroke="#000000" points="281.8751,-205.9909 285.375,-215.9909 288.8751,-205.991 281.8751,-205.9909"/>
</g>
<!-- PixelPipe  -->
<g id="node20" class="node">
<title>PixelPipe </title>
<polygon fill="#fb8072" stroke="#000000" points="193.6664,-252 120.3336,-252 120.3336,-216 193.6664,-216 193.6664,-252"/>
<text text-anchor="middle" x="157" y="-229.8" font-family="Times,serif" font-size="14.00" fill="#000000">PixelPipe </text>
</g>
<!-- PipesModule&#45;&gt;PixelPipe  -->
<g id="edge19" class="edge">
<title>PipesModule&#45;&gt;PixelPipe </title>
<path fill="none" stroke="#000000" stroke-dasharray="5,2" d="M514.7889,-175C411.265,-175 165.875,-175 165.875,-175 165.875,-175 165.875,-205.9775 165.875,-205.9775"/>
<polygon fill="#000000" stroke="#000000" points="162.3751,-205.9774 165.875,-215.9775 169.3751,-205.9775 162.3751,-205.9774"/>
</g>
<!-- PrefixPipe  -->
<g id="node21" class="node">
<title>PrefixPipe </title>
<polygon fill="#fb8072" stroke="#000000" points="102.0978,-252 23.9022,-252 23.9022,-216 102.0978,-216 102.0978,-252"/>
<text text-anchor="middle" x="63" y="-229.8" font-family="Times,serif" font-size="14.00" fill="#000000">PrefixPipe </text>
</g>
<!-- PipesModule&#45;&gt;PrefixPipe  -->
<g id="edge20" class="edge">
<title>PipesModule&#45;&gt;PrefixPipe </title>
<path fill="none" stroke="#000000" stroke-dasharray="5,2" d="M514.7031,-171C394.0225,-171 73.875,-171 73.875,-171 73.875,-171 73.875,-205.7778 73.875,-205.7778"/>
<polygon fill="#000000" stroke="#000000" points="70.3751,-205.7778 73.875,-215.7778 77.3751,-205.7778 70.3751,-205.7778"/>
</g>
</g>
</svg>
