<?xml version="1.0" encoding="UTF-8" standalone="no"?>
<!DOCTYPE svg PUBLIC "-//W3C//DTD SVG 1.1//EN"
 "http://www.w3.org/Graphics/SVG/1.1/DTD/svg11.dtd">
<!-- Generated by graphviz version 2.40.1 (20161225.0304)
 -->
<!-- Title: dependencies Pages: 1 -->
<svg width="1096pt" height="284pt"
 viewBox="0.00 0.00 1096.00 284.00" xmlns="http://www.w3.org/2000/svg" xmlns:xlink="http://www.w3.org/1999/xlink">
<g id="graph0" class="graph" transform="scale(1 1) rotate(0) translate(4 280)">
<title>dependencies</title>
<polygon fill="#ffffff" stroke="transparent" points="-4,4 -4,-280 1092,-280 1092,4 -4,4"/>
<text text-anchor="start" x="523.0091" y="-42.4" font-family="sans-serif" font-weight="bold" font-size="14.00" fill="#000000">Legend</text>
<polygon fill="#ffffb3" stroke="transparent" points="310,-10 310,-30 330,-30 330,-10 310,-10"/>
<text text-anchor="start" x="333.629" y="-15.4" font-family="sans-serif" font-size="14.00" fill="#000000"> &#160;Declarations</text>
<polygon fill="#8dd3c7" stroke="transparent" points="423,-10 423,-30 443,-30 443,-10 423,-10"/>
<text text-anchor="start" x="446.7251" y="-15.4" font-family="sans-serif" font-size="14.00" fill="#000000"> &#160;Module</text>
<polygon fill="#80b1d3" stroke="transparent" points="509,-10 509,-30 529,-30 529,-10 509,-10"/>
<text text-anchor="start" x="532.7812" y="-15.4" font-family="sans-serif" font-size="14.00" fill="#000000"> &#160;Bootstrap</text>
<polygon fill="#fdb462" stroke="transparent" points="606,-10 606,-30 626,-30 626,-10 606,-10"/>
<text text-anchor="start" x="629.6732" y="-15.4" font-family="sans-serif" font-size="14.00" fill="#000000"> &#160;Providers</text>
<polygon fill="#fb8072" stroke="transparent" points="702,-10 702,-30 722,-30 722,-10 702,-10"/>
<text text-anchor="start" x="725.7258" y="-15.4" font-family="sans-serif" font-size="14.00" fill="#000000"> &#160;Exports</text>
<g id="clust1" class="cluster">
<title>cluster_PipesModule</title>
<polygon fill="none" stroke="#000000" stroke-dasharray="1,5" points="8,-70 8,-268 1080,-268 1080,-70 8,-70"/>
</g>
<g id="clust2" class="cluster">
<title>cluster_PipesModule_declarations</title>
<polygon fill="none" stroke="#000000" points="32,-78 32,-130 1056,-130 1056,-78 32,-78"/>
</g>
<g id="clust13" class="cluster">
<title>cluster_PipesModule_exports</title>
<polygon fill="none" stroke="#000000" points="16,-208 16,-260 1072,-260 1072,-208 16,-208"/>
</g>
<!-- ColorsPipe -->
<g id="node1" class="node">
<title>ColorsPipe</title>
<polygon fill="#ffffb3" stroke="#000000" points="1048.2205,-122 969.7795,-122 969.7795,-86 1048.2205,-86 1048.2205,-122"/>
<text text-anchor="middle" x="1009" y="-99.8" font-family="Times,serif" font-size="14.00" fill="#000000">ColorsPipe</text>
</g>
<!-- PipesModule -->
<g id="node10" class="node">
<title>PipesModule</title>
<polygon fill="#8dd3c7" stroke="#000000" points="593.8823,-187 590.8823,-191 569.8823,-191 566.8823,-187 504.1177,-187 504.1177,-151 593.8823,-151 593.8823,-187"/>
<text text-anchor="middle" x="549" y="-164.8" font-family="Times,serif" font-size="14.00" fill="#000000">PipesModule</text>
</g>
<!-- ColorsPipe&#45;&gt;PipesModule -->
<g id="edge1" class="edge">
<title>ColorsPipe&#45;&gt;PipesModule</title>
<path fill="none" stroke="#000000" d="M976.0149,-122.2222C976.0149,-140.8285 976.0149,-167 976.0149,-167 976.0149,-167 603.891,-167 603.891,-167"/>
<polygon fill="#000000" stroke="#000000" points="603.891,-163.5001 593.891,-167 603.891,-170.5001 603.891,-163.5001"/>
</g>
<!-- EmptyPipe -->
<g id="node2" class="node">
<title>EmptyPipe</title>
<polygon fill="#ffffb3" stroke="#000000" points="952.2219,-122 873.7781,-122 873.7781,-86 952.2219,-86 952.2219,-122"/>
<text text-anchor="middle" x="913" y="-99.8" font-family="Times,serif" font-size="14.00" fill="#000000">EmptyPipe</text>
</g>
<!-- EmptyPipe&#45;&gt;PipesModule -->
<g id="edge2" class="edge">
<title>EmptyPipe&#45;&gt;PipesModule</title>
<path fill="none" stroke="#000000" d="M878.0142,-122.0225C878.0142,-139.3734 878.0142,-163 878.0142,-163 878.0142,-163 604.0582,-163 604.0582,-163"/>
<polygon fill="#000000" stroke="#000000" points="604.0582,-159.5001 594.0582,-163 604.0581,-166.5001 604.0582,-159.5001"/>
</g>
<!-- FilterPerspectivesPipe -->
<g id="node3" class="node">
<title>FilterPerspectivesPipe</title>
<polygon fill="#ffffb3" stroke="#000000" points="855.6895,-122 714.3105,-122 714.3105,-86 855.6895,-86 855.6895,-122"/>
<text text-anchor="middle" x="785" y="-99.8" font-family="Times,serif" font-size="14.00" fill="#000000">FilterPerspectivesPipe</text>
</g>
<!-- FilterPerspectivesPipe&#45;&gt;PipesModule -->
<g id="edge3" class="edge">
<title>FilterPerspectivesPipe&#45;&gt;PipesModule</title>
<path fill="none" stroke="#000000" d="M810.2816,-122.0091C810.2816,-138.0494 810.2816,-159 810.2816,-159 810.2816,-159 603.9159,-159 603.9159,-159"/>
<polygon fill="#000000" stroke="#000000" points="603.9159,-155.5001 593.9159,-159 603.9159,-162.5001 603.9159,-155.5001"/>
</g>
<!-- IconsPipe -->
<g id="node4" class="node">
<title>IconsPipe</title>
<polygon fill="#ffffb3" stroke="#000000" points="696.7079,-122 625.2921,-122 625.2921,-86 696.7079,-86 696.7079,-122"/>
<text text-anchor="middle" x="661" y="-99.8" font-family="Times,serif" font-size="14.00" fill="#000000">IconsPipe</text>
</g>
<!-- IconsPipe&#45;&gt;PipesModule -->
<g id="edge4" class="edge">
<title>IconsPipe&#45;&gt;PipesModule</title>
<path fill="none" stroke="#000000" d="M673.2846,-122.1243C673.2846,-136.7832 673.2846,-155 673.2846,-155 673.2846,-155 604.2212,-155 604.2212,-155"/>
<polygon fill="#000000" stroke="#000000" points="604.2212,-151.5001 594.2212,-155 604.2211,-158.5001 604.2212,-151.5001"/>
</g>
<!-- LightenColorPipe -->
<g id="node5" class="node">
<title>LightenColorPipe</title>
<polygon fill="#ffffb3" stroke="#000000" points="607.3245,-122 490.6755,-122 490.6755,-86 607.3245,-86 607.3245,-122"/>
<text text-anchor="middle" x="549" y="-99.8" font-family="Times,serif" font-size="14.00" fill="#000000">LightenColorPipe</text>
</g>
<!-- LightenColorPipe&#45;&gt;PipesModule -->
<g id="edge5" class="edge">
<title>LightenColorPipe&#45;&gt;PipesModule</title>
<path fill="none" stroke="#000000" d="M549,-122.1061C549,-122.1061 549,-140.991 549,-140.991"/>
<polygon fill="#000000" stroke="#000000" points="545.5001,-140.9909 549,-150.991 552.5001,-140.991 545.5001,-140.9909"/>
</g>
<!-- NativeDatePipe -->
<g id="node6" class="node">
<title>NativeDatePipe</title>
<polygon fill="#ffffb3" stroke="#000000" points="473.1318,-122 368.8682,-122 368.8682,-86 473.1318,-86 473.1318,-122"/>
<text text-anchor="middle" x="421" y="-99.8" font-family="Times,serif" font-size="14.00" fill="#000000">NativeDatePipe</text>
</g>
<!-- NativeDatePipe&#45;&gt;PipesModule -->
<g id="edge6" class="edge">
<title>NativeDatePipe&#45;&gt;PipesModule</title>
<path fill="none" stroke="#000000" d="M436.9385,-122.1243C436.9385,-136.7832 436.9385,-155 436.9385,-155 436.9385,-155 494.066,-155 494.066,-155"/>
<polygon fill="#000000" stroke="#000000" points="494.066,-158.5001 504.066,-155 494.066,-151.5001 494.066,-158.5001"/>
</g>
<!-- PerspectiveIconPipe -->
<g id="node7" class="node">
<title>PerspectiveIconPipe</title>
<polygon fill="#ffffb3" stroke="#000000" points="351.2907,-122 220.7093,-122 220.7093,-86 351.2907,-86 351.2907,-122"/>
<text text-anchor="middle" x="286" y="-99.8" font-family="Times,serif" font-size="14.00" fill="#000000">PerspectiveIconPipe</text>
</g>
<!-- PerspectiveIconPipe&#45;&gt;PipesModule -->
<g id="edge7" class="edge">
<title>PerspectiveIconPipe&#45;&gt;PipesModule</title>
<path fill="none" stroke="#000000" d="M303.5484,-122.0091C303.5484,-138.0494 303.5484,-159 303.5484,-159 303.5484,-159 493.9804,-159 493.9804,-159"/>
<polygon fill="#000000" stroke="#000000" points="493.9804,-162.5001 503.9804,-159 493.9804,-155.5001 493.9804,-162.5001"/>
</g>
<!-- PixelPipe -->
<g id="node8" class="node">
<title>PixelPipe</title>
<polygon fill="#ffffb3" stroke="#000000" points="202.667,-122 133.333,-122 133.333,-86 202.667,-86 202.667,-122"/>
<text text-anchor="middle" x="168" y="-99.8" font-family="Times,serif" font-size="14.00" fill="#000000">PixelPipe</text>
</g>
<!-- PixelPipe&#45;&gt;PipesModule -->
<g id="edge8" class="edge">
<title>PixelPipe&#45;&gt;PipesModule</title>
<path fill="none" stroke="#000000" d="M198.2081,-122.0225C198.2081,-139.3734 198.2081,-163 198.2081,-163 198.2081,-163 493.8582,-163 493.8582,-163"/>
<polygon fill="#000000" stroke="#000000" points="493.8583,-166.5001 503.8582,-163 493.8582,-159.5001 493.8583,-166.5001"/>
</g>
<!-- PrefixPipe -->
<g id="node9" class="node">
<title>PrefixPipe</title>
<polygon fill="#ffffb3" stroke="#000000" points="115.5969,-122 40.4031,-122 40.4031,-86 115.5969,-86 115.5969,-122"/>
<text text-anchor="middle" x="78" y="-99.8" font-family="Times,serif" font-size="14.00" fill="#000000">PrefixPipe</text>
</g>
<!-- PrefixPipe&#45;&gt;PipesModule -->
<g id="edge9" class="edge">
<title>PrefixPipe&#45;&gt;PipesModule</title>
<path fill="none" stroke="#000000" d="M108.9234,-122.2222C108.9234,-140.8285 108.9234,-167 108.9234,-167 108.9234,-167 493.9722,-167 493.9722,-167"/>
<polygon fill="#000000" stroke="#000000" points="493.9722,-170.5001 503.9722,-167 493.9722,-163.5001 493.9722,-170.5001"/>
</g>
<!-- ColorsPipe  -->
<g id="node11" class="node">
<title>ColorsPipe </title>
<polygon fill="#fb8072" stroke="#000000" points="1063.7207,-252 982.2793,-252 982.2793,-216 1063.7207,-216 1063.7207,-252"/>
<text text-anchor="middle" x="1023" y="-229.8" font-family="Times,serif" font-size="14.00" fill="#000000">ColorsPipe </text>
</g>
<!-- PipesModule&#45;&gt;ColorsPipe  -->
<g id="edge10" class="edge">
<title>PipesModule&#45;&gt;ColorsPipe </title>
<path fill="none" stroke="#000000" stroke-dasharray="5,2" d="M594.1176,-171C711.0971,-171 1015.125,-171 1015.125,-171 1015.125,-171 1015.125,-205.7778 1015.125,-205.7778"/>
<polygon fill="#000000" stroke="#000000" points="1011.6251,-205.7778 1015.125,-215.7778 1018.6251,-205.7778 1011.6251,-205.7778"/>
</g>
<!-- EmptyPipe  -->
<g id="node12" class="node">
<title>EmptyPipe </title>
<polygon fill="#fb8072" stroke="#000000" points="963.7221,-252 882.2779,-252 882.2779,-216 963.7221,-216 963.7221,-252"/>
<text text-anchor="middle" x="923" y="-229.8" font-family="Times,serif" font-size="14.00" fill="#000000">EmptyPipe </text>
</g>
<!-- PipesModule&#45;&gt;EmptyPipe  -->
<g id="edge11" class="edge">
<title>PipesModule&#45;&gt;EmptyPipe </title>
<path fill="none" stroke="#000000" stroke-dasharray="5,2" d="M594.1394,-175C692.4393,-175 917.125,-175 917.125,-175 917.125,-175 917.125,-205.9775 917.125,-205.9775"/>
<polygon fill="#000000" stroke="#000000" points="913.6251,-205.9774 917.125,-215.9775 920.6251,-205.9775 913.6251,-205.9774"/>
</g>
<!-- FilterPerspectivesPipe  -->
<g id="node13" class="node">
<title>FilterPerspectivesPipe </title>
<polygon fill="#fb8072" stroke="#000000" points="864.1897,-252 719.8103,-252 719.8103,-216 864.1897,-216 864.1897,-252"/>
<text text-anchor="middle" x="792" y="-229.8" font-family="Times,serif" font-size="14.00" fill="#000000">FilterPerspectivesPipe </text>
</g>
<!-- PipesModule&#45;&gt;FilterPerspectivesPipe  -->
<g id="edge12" class="edge">
<title>PipesModule&#45;&gt;FilterPerspectivesPipe </title>
<path fill="none" stroke="#000000" stroke-dasharray="5,2" d="M594.0112,-179C657.3053,-179 764.9684,-179 764.9684,-179 764.9684,-179 764.9684,-205.9909 764.9684,-205.9909"/>
<polygon fill="#000000" stroke="#000000" points="761.4685,-205.9909 764.9684,-215.9909 768.4685,-205.991 761.4685,-205.9909"/>
</g>
<!-- IconsPipe  -->
<g id="node14" class="node">
<title>IconsPipe </title>
<polygon fill="#fb8072" stroke="#000000" points="701.2082,-252 626.7918,-252 626.7918,-216 701.2082,-216 701.2082,-252"/>
<text text-anchor="middle" x="664" y="-229.8" font-family="Times,serif" font-size="14.00" fill="#000000">IconsPipe </text>
</g>
<!-- PipesModule&#45;&gt;IconsPipe  -->
<g id="edge13" class="edge">
<title>PipesModule&#45;&gt;IconsPipe </title>
<path fill="none" stroke="#000000" stroke-dasharray="5,2" d="M594.1671,-183C621.0497,-183 649.9654,-183 649.9654,-183 649.9654,-183 649.9654,-205.8757 649.9654,-205.8757"/>
<polygon fill="#000000" stroke="#000000" points="646.4655,-205.8757 649.9654,-215.8757 653.4655,-205.8757 646.4655,-205.8757"/>
</g>
<!-- LightenColorPipe  -->
<g id="node15" class="node">
<title>LightenColorPipe </title>
<polygon fill="#fb8072" stroke="#000000" points="608.8241,-252 489.1759,-252 489.1759,-216 608.8241,-216 608.8241,-252"/>
<text text-anchor="middle" x="549" y="-229.8" font-family="Times,serif" font-size="14.00" fill="#000000">LightenColorPipe </text>
</g>
<!-- PipesModule&#45;&gt;LightenColorPipe  -->
<g id="edge14" class="edge">
<title>PipesModule&#45;&gt;LightenColorPipe </title>
<path fill="none" stroke="#000000" stroke-dasharray="5,2" d="M549,-187.1061C549,-187.1061 549,-205.991 549,-205.991"/>
<polygon fill="#000000" stroke="#000000" points="545.5001,-205.9909 549,-215.991 552.5001,-205.991 545.5001,-205.9909"/>
</g>
<!-- NativeDatePipe  -->
<g id="node16" class="node">
<title>NativeDatePipe </title>
<polygon fill="#fb8072" stroke="#000000" points="471.1313,-252 362.8687,-252 362.8687,-216 471.1313,-216 471.1313,-252"/>
<text text-anchor="middle" x="417" y="-229.8" font-family="Times,serif" font-size="14.00" fill="#000000">NativeDatePipe </text>
</g>
<!-- PipesModule&#45;&gt;NativeDatePipe  -->
<g id="edge15" class="edge">
<title>PipesModule&#45;&gt;NativeDatePipe </title>
<path fill="none" stroke="#000000" stroke-dasharray="5,2" d="M503.9458,-183C460.9921,-183 402.8115,-183 402.8115,-183 402.8115,-183 402.8115,-205.8757 402.8115,-205.8757"/>
<polygon fill="#000000" stroke="#000000" points="399.3116,-205.8757 402.8115,-215.8757 406.3116,-205.8757 399.3116,-205.8757"/>
</g>
<!-- PerspectiveIconPipe  -->
<g id="node17" class="node">
<title>PerspectiveIconPipe </title>
<polygon fill="#fb8072" stroke="#000000" points="344.7906,-252 211.2094,-252 211.2094,-216 344.7906,-216 344.7906,-252"/>
<text text-anchor="middle" x="278" y="-229.8" font-family="Times,serif" font-size="14.00" fill="#000000">PerspectiveIconPipe </text>
</g>
<!-- PipesModule&#45;&gt;PerspectiveIconPipe  -->
<g id="edge16" class="edge">
<title>PipesModule&#45;&gt;PerspectiveIconPipe </title>
<path fill="none" stroke="#000000" stroke-dasharray="5,2" d="M503.8723,-179C423.1059,-179 262.2016,-179 262.2016,-179 262.2016,-179 262.2016,-205.9909 262.2016,-205.9909"/>
<polygon fill="#000000" stroke="#000000" points="258.7017,-205.9909 262.2016,-215.9909 265.7017,-205.991 258.7017,-205.9909"/>
</g>
<!-- PixelPipe  -->
<g id="node18" class="node">
<title>PixelPipe </title>
<polygon fill="#fb8072" stroke="#000000" points="193.6664,-252 120.3336,-252 120.3336,-216 193.6664,-216 193.6664,-252"/>
<text text-anchor="middle" x="157" y="-229.8" font-family="Times,serif" font-size="14.00" fill="#000000">PixelPipe </text>
</g>
<!-- PipesModule&#45;&gt;PixelPipe  -->
<g id="edge17" class="edge">
<title>PipesModule&#45;&gt;PixelPipe </title>
<path fill="none" stroke="#000000" stroke-dasharray="5,2" d="M504.0092,-175C402.2856,-175 163.375,-175 163.375,-175 163.375,-175 163.375,-205.9775 163.375,-205.9775"/>
<polygon fill="#000000" stroke="#000000" points="159.8751,-205.9774 163.375,-215.9775 166.8751,-205.9775 159.8751,-205.9774"/>
</g>
<!-- PrefixPipe  -->
<g id="node19" class="node">
<title>PrefixPipe </title>
<polygon fill="#fb8072" stroke="#000000" points="102.0978,-252 23.9022,-252 23.9022,-216 102.0978,-216 102.0978,-252"/>
<text text-anchor="middle" x="63" y="-229.8" font-family="Times,serif" font-size="14.00" fill="#000000">PrefixPipe </text>
</g>
<!-- PipesModule&#45;&gt;PrefixPipe  -->
<g id="edge18" class="edge">
<title>PipesModule&#45;&gt;PrefixPipe </title>
<path fill="none" stroke="#000000" stroke-dasharray="5,2" d="M504.0662,-171C385.1681,-171 71.375,-171 71.375,-171 71.375,-171 71.375,-205.7778 71.375,-205.7778"/>
<polygon fill="#000000" stroke="#000000" points="67.8751,-205.7778 71.375,-215.7778 74.8751,-205.7778 67.8751,-205.7778"/>
</g>
</g>
</svg>
