<?xml version="1.0" encoding="UTF-8" standalone="no"?>
<!DOCTYPE svg PUBLIC "-//W3C//DTD SVG 1.1//EN"
 "http://www.w3.org/Graphics/SVG/1.1/DTD/svg11.dtd">
<!-- Generated by graphviz version 2.40.1 (20161225.0304)
 -->
<!-- Title: dependencies Pages: 1 -->
<svg width="3383pt" height="284pt"
 viewBox="0.00 0.00 3383.00 284.00" xmlns="http://www.w3.org/2000/svg" xmlns:xlink="http://www.w3.org/1999/xlink">
<g id="graph0" class="graph" transform="scale(1 1) rotate(0) translate(4 280)">
<title>dependencies</title>
<polygon fill="#ffffff" stroke="transparent" points="-4,4 -4,-280 3379,-280 3379,4 -4,4"/>
<text text-anchor="start" x="1666.5091" y="-42.4" font-family="sans-serif" font-weight="bold" font-size="14.00" fill="#000000">Legend</text>
<polygon fill="#ffffb3" stroke="transparent" points="1453.5,-10 1453.5,-30 1473.5,-30 1473.5,-10 1453.5,-10"/>
<text text-anchor="start" x="1477.129" y="-15.4" font-family="sans-serif" font-size="14.00" fill="#000000"> &#160;Declarations</text>
<polygon fill="#8dd3c7" stroke="transparent" points="1566.5,-10 1566.5,-30 1586.5,-30 1586.5,-10 1566.5,-10"/>
<text text-anchor="start" x="1590.2251" y="-15.4" font-family="sans-serif" font-size="14.00" fill="#000000"> &#160;Module</text>
<polygon fill="#80b1d3" stroke="transparent" points="1652.5,-10 1652.5,-30 1672.5,-30 1672.5,-10 1652.5,-10"/>
<text text-anchor="start" x="1676.2812" y="-15.4" font-family="sans-serif" font-size="14.00" fill="#000000"> &#160;Bootstrap</text>
<polygon fill="#fdb462" stroke="transparent" points="1749.5,-10 1749.5,-30 1769.5,-30 1769.5,-10 1749.5,-10"/>
<text text-anchor="start" x="1773.1732" y="-15.4" font-family="sans-serif" font-size="14.00" fill="#000000"> &#160;Providers</text>
<polygon fill="#fb8072" stroke="transparent" points="1845.5,-10 1845.5,-30 1865.5,-30 1865.5,-10 1845.5,-10"/>
<text text-anchor="start" x="1869.2258" y="-15.4" font-family="sans-serif" font-size="14.00" fill="#000000"> &#160;Exports</text>
<g id="clust1" class="cluster">
<title>cluster_PipesModule</title>
<polygon fill="none" stroke="#000000" stroke-dasharray="1,5" points="8,-70 8,-268 3367,-268 3367,-70 8,-70"/>
</g>
<g id="clust2" class="cluster">
<title>cluster_PipesModule_declarations</title>
<polygon fill="none" stroke="#000000" points="59,-78 59,-130 3318,-130 3318,-78 59,-78"/>
</g>
<g id="clust29" class="cluster">
<title>cluster_PipesModule_exports</title>
<polygon fill="none" stroke="#000000" points="16,-208 16,-260 3359,-260 3359,-208 16,-208"/>
</g>
<!-- CanActivatePagePipe -->
<g id="node1" class="node">
<title>CanActivatePagePipe</title>
<polygon fill="#ffffb3" stroke="#000000" points="3310.073,-122 3171.927,-122 3171.927,-86 3310.073,-86 3310.073,-122"/>
<text text-anchor="middle" x="3241" y="-99.8" font-family="Times,serif" font-size="14.00" fill="#000000">CanActivatePagePipe</text>
</g>
<!-- PipesModule -->
<g id="node26" class="node">
<title>PipesModule</title>
<polygon fill="#8dd3c7" stroke="#000000" points="1791.8823,-187 1788.8823,-191 1767.8823,-191 1764.8823,-187 1702.1177,-187 1702.1177,-151 1791.8823,-151 1791.8823,-187"/>
<text text-anchor="middle" x="1747" y="-164.8" font-family="Times,serif" font-size="14.00" fill="#000000">PipesModule</text>
</g>
<!-- CanActivatePagePipe&#45;&gt;PipesModule -->
<g id="edge1" class="edge">
<title>CanActivatePagePipe&#45;&gt;PipesModule</title>
<path fill="none" stroke="#000000" d="M3181.4118,-122.1061C3181.4118,-141.3391 3181.4118,-169 3181.4118,-169 3181.4118,-169 1801.8993,-169 1801.8993,-169"/>
<polygon fill="#000000" stroke="#000000" points="1801.8993,-165.5001 1791.8993,-169 1801.8993,-172.5001 1801.8993,-165.5001"/>
</g>
<!-- ColorsPipe -->
<g id="node2" class="node">
<title>ColorsPipe</title>
<polygon fill="#ffffb3" stroke="#000000" points="3154.2205,-122 3075.7795,-122 3075.7795,-86 3154.2205,-86 3154.2205,-122"/>
<text text-anchor="middle" x="3115" y="-99.8" font-family="Times,serif" font-size="14.00" fill="#000000">ColorsPipe</text>
</g>
<!-- ColorsPipe&#45;&gt;PipesModule -->
<g id="edge2" class="edge">
<title>ColorsPipe&#45;&gt;PipesModule</title>
<path fill="none" stroke="#000000" d="M3083.6724,-122.2222C3083.6724,-140.8285 3083.6724,-167 3083.6724,-167 3083.6724,-167 1802.2394,-167 1802.2394,-167"/>
<polygon fill="#000000" stroke="#000000" points="1802.2394,-163.5001 1792.2394,-167 1802.2394,-170.5001 1802.2394,-163.5001"/>
</g>
<!-- DefaultAttributePipe -->
<g id="node3" class="node">
<title>DefaultAttributePipe</title>
<polygon fill="#ffffb3" stroke="#000000" points="3057.9102,-122 2924.0898,-122 2924.0898,-86 3057.9102,-86 3057.9102,-122"/>
<text text-anchor="middle" x="2991" y="-99.8" font-family="Times,serif" font-size="14.00" fill="#000000">DefaultAttributePipe</text>
</g>
<!-- DefaultAttributePipe&#45;&gt;PipesModule -->
<g id="edge3" class="edge">
<title>DefaultAttributePipe&#45;&gt;PipesModule</title>
<path fill="none" stroke="#000000" d="M2930.578,-122.2667C2930.578,-140.5552 2930.578,-166 2930.578,-166 2930.578,-166 1801.9524,-166 1801.9524,-166"/>
<polygon fill="#000000" stroke="#000000" points="1801.9524,-162.5001 1791.9524,-166 1801.9524,-169.5001 1801.9524,-162.5001"/>
</g>
<!-- EmptyPipe -->
<g id="node4" class="node">
<title>EmptyPipe</title>
<polygon fill="#ffffb3" stroke="#000000" points="2906.2219,-122 2827.7781,-122 2827.7781,-86 2906.2219,-86 2906.2219,-122"/>
<text text-anchor="middle" x="2867" y="-99.8" font-family="Times,serif" font-size="14.00" fill="#000000">EmptyPipe</text>
</g>
<!-- EmptyPipe&#45;&gt;PipesModule -->
<g id="edge4" class="edge">
<title>EmptyPipe&#45;&gt;PipesModule</title>
<path fill="none" stroke="#000000" d="M2832.6205,-122.002C2832.6205,-139.6754 2832.6205,-164 2832.6205,-164 2832.6205,-164 1801.923,-164 1801.923,-164"/>
<polygon fill="#000000" stroke="#000000" points="1801.923,-160.5001 1791.923,-164 1801.923,-167.5001 1801.923,-160.5001"/>
</g>
<!-- EmptyQueryPipe -->
<g id="node5" class="node">
<title>EmptyQueryPipe</title>
<polygon fill="#ffffb3" stroke="#000000" points="2809.7036,-122 2696.2964,-122 2696.2964,-86 2809.7036,-86 2809.7036,-122"/>
<text text-anchor="middle" x="2753" y="-99.8" font-family="Times,serif" font-size="14.00" fill="#000000">EmptyQueryPipe</text>
</g>
<!-- EmptyQueryPipe&#45;&gt;PipesModule -->
<g id="edge5" class="edge">
<title>EmptyQueryPipe&#45;&gt;PipesModule</title>
<path fill="none" stroke="#000000" d="M2711.4965,-122.0225C2711.4965,-139.3734 2711.4965,-163 2711.4965,-163 2711.4965,-163 1801.9052,-163 1801.9052,-163"/>
<polygon fill="#000000" stroke="#000000" points="1801.9052,-159.5001 1791.9052,-163 1801.9051,-166.5001 1801.9052,-159.5001"/>
</g>
<!-- FilterPerspectivesPipe -->
<g id="node6" class="node">
<title>FilterPerspectivesPipe</title>
<polygon fill="#ffffb3" stroke="#000000" points="2678.6895,-122 2537.3105,-122 2537.3105,-86 2678.6895,-86 2678.6895,-122"/>
<text text-anchor="middle" x="2608" y="-99.8" font-family="Times,serif" font-size="14.00" fill="#000000">FilterPerspectivesPipe</text>
</g>
<!-- FilterPerspectivesPipe&#45;&gt;PipesModule -->
<g id="edge6" class="edge">
<title>FilterPerspectivesPipe&#45;&gt;PipesModule</title>
<path fill="none" stroke="#000000" d="M2548.7563,-122.0336C2548.7563,-139.0597 2548.7563,-162 2548.7563,-162 2548.7563,-162 1802.1131,-162 1802.1131,-162"/>
<polygon fill="#000000" stroke="#000000" points="1802.1131,-158.5001 1792.1131,-162 1802.113,-165.5001 1802.1131,-158.5001"/>
</g>
<!-- HighlightTextPipe -->
<g id="node7" class="node">
<title>HighlightTextPipe</title>
<polygon fill="#ffffb3" stroke="#000000" points="2519.2148,-122 2398.7852,-122 2398.7852,-86 2519.2148,-86 2519.2148,-122"/>
<text text-anchor="middle" x="2459" y="-99.8" font-family="Times,serif" font-size="14.00" fill="#000000">HighlightTextPipe</text>
</g>
<!-- HighlightTextPipe&#45;&gt;PipesModule -->
<g id="edge7" class="edge">
<title>HighlightTextPipe&#45;&gt;PipesModule</title>
<path fill="none" stroke="#000000" d="M2407.5177,-122.027C2407.5177,-138.3976 2407.5177,-160 2407.5177,-160 2407.5177,-160 1802.1401,-160 1802.1401,-160"/>
<polygon fill="#000000" stroke="#000000" points="1802.1401,-156.5001 1792.1401,-160 1802.1401,-163.5001 1802.1401,-156.5001"/>
</g>
<!-- IconsPipe -->
<g id="node8" class="node">
<title>IconsPipe</title>
<polygon fill="#ffffb3" stroke="#000000" points="2380.7079,-122 2309.2921,-122 2309.2921,-86 2380.7079,-86 2380.7079,-122"/>
<text text-anchor="middle" x="2345" y="-99.8" font-family="Times,serif" font-size="14.00" fill="#000000">IconsPipe</text>
</g>
<!-- IconsPipe&#45;&gt;PipesModule -->
<g id="edge8" class="edge">
<title>IconsPipe&#45;&gt;PipesModule</title>
<path fill="none" stroke="#000000" d="M2316.5212,-122.0091C2316.5212,-138.0494 2316.5212,-159 2316.5212,-159 2316.5212,-159 1802.1654,-159 1802.1654,-159"/>
<polygon fill="#000000" stroke="#000000" points="1802.1655,-155.5001 1792.1654,-159 1802.1654,-162.5001 1802.1655,-155.5001"/>
</g>
<!-- IncludesPipe -->
<g id="node9" class="node">
<title>IncludesPipe</title>
<polygon fill="#ffffb3" stroke="#000000" points="2291.3134,-122 2202.6866,-122 2202.6866,-86 2291.3134,-86 2291.3134,-122"/>
<text text-anchor="middle" x="2247" y="-99.8" font-family="Times,serif" font-size="14.00" fill="#000000">IncludesPipe</text>
</g>
<!-- IncludesPipe&#45;&gt;PipesModule -->
<g id="edge9" class="edge">
<title>IncludesPipe&#45;&gt;PipesModule</title>
<path fill="none" stroke="#000000" d="M2208.4686,-122.2396C2208.4686,-137.5706 2208.4686,-157 2208.4686,-157 2208.4686,-157 1802.0878,-157 1802.0878,-157"/>
<polygon fill="#000000" stroke="#000000" points="1802.0878,-153.5001 1792.0878,-157 1802.0877,-160.5001 1802.0878,-153.5001"/>
</g>
<!-- LengthGreaterThanPipe -->
<g id="node10" class="node">
<title>LengthGreaterThanPipe</title>
<polygon fill="#ffffb3" stroke="#000000" points="2184.7753,-122 2033.2247,-122 2033.2247,-86 2184.7753,-86 2184.7753,-122"/>
<text text-anchor="middle" x="2109" y="-99.8" font-family="Times,serif" font-size="14.00" fill="#000000">LengthGreaterThanPipe</text>
</g>
<!-- LengthGreaterThanPipe&#45;&gt;PipesModule -->
<g id="edge10" class="edge">
<title>LengthGreaterThanPipe&#45;&gt;PipesModule</title>
<path fill="none" stroke="#000000" d="M2037.4875,-122.1871C2037.4875,-137.1824 2037.4875,-156 2037.4875,-156 2037.4875,-156 1802.0699,-156 1802.0699,-156"/>
<polygon fill="#000000" stroke="#000000" points="1802.07,-152.5001 1792.0699,-156 1802.0699,-159.5001 1802.07,-152.5001"/>
</g>
<!-- LightenColorPipe -->
<g id="node11" class="node">
<title>LightenColorPipe</title>
<polygon fill="#ffffb3" stroke="#000000" points="2015.3245,-122 1898.6755,-122 1898.6755,-86 2015.3245,-86 2015.3245,-122"/>
<text text-anchor="middle" x="1957" y="-99.8" font-family="Times,serif" font-size="14.00" fill="#000000">LightenColorPipe</text>
</g>
<!-- LightenColorPipe&#45;&gt;PipesModule -->
<g id="edge11" class="edge">
<title>LightenColorPipe&#45;&gt;PipesModule</title>
<path fill="none" stroke="#000000" d="M1978.1373,-122.0511C1978.1373,-136.373 1978.1373,-154 1978.1373,-154 1978.1373,-154 1802.1143,-154 1802.1143,-154"/>
<polygon fill="#000000" stroke="#000000" points="1802.1143,-150.5001 1792.1143,-154 1802.1143,-157.5001 1802.1143,-150.5001"/>
</g>
<!-- LogPipe -->
<g id="node12" class="node">
<title>LogPipe</title>
<polygon fill="#ffffb3" stroke="#000000" points="1880.9419,-122 1817.0581,-122 1817.0581,-86 1880.9419,-86 1880.9419,-122"/>
<text text-anchor="middle" x="1849" y="-99.8" font-family="Times,serif" font-size="14.00" fill="#000000">LogPipe</text>
</g>
<!-- LogPipe&#45;&gt;PipesModule -->
<g id="edge12" class="edge">
<title>LogPipe&#45;&gt;PipesModule</title>
<path fill="none" stroke="#000000" d="M1860.3234,-122.2458C1860.3234,-136.1772 1860.3234,-153 1860.3234,-153 1860.3234,-153 1802.114,-153 1802.114,-153"/>
<polygon fill="#000000" stroke="#000000" points="1802.1141,-149.5001 1792.114,-153 1802.114,-156.5001 1802.1141,-149.5001"/>
</g>
<!-- NativeDatePipe -->
<g id="node13" class="node">
<title>NativeDatePipe</title>
<polygon fill="#ffffb3" stroke="#000000" points="1799.1318,-122 1694.8682,-122 1694.8682,-86 1799.1318,-86 1799.1318,-122"/>
<text text-anchor="middle" x="1747" y="-99.8" font-family="Times,serif" font-size="14.00" fill="#000000">NativeDatePipe</text>
</g>
<!-- NativeDatePipe&#45;&gt;PipesModule -->
<g id="edge13" class="edge">
<title>NativeDatePipe&#45;&gt;PipesModule</title>
<path fill="none" stroke="#000000" d="M1747,-122.1061C1747,-122.1061 1747,-140.991 1747,-140.991"/>
<polygon fill="#000000" stroke="#000000" points="1743.5001,-140.9909 1747,-150.991 1750.5001,-140.991 1743.5001,-140.9909"/>
</g>
<!-- PageEndIndexPipe -->
<g id="node14" class="node">
<title>PageEndIndexPipe</title>
<polygon fill="#ffffb3" stroke="#000000" points="1676.0283,-122 1553.9717,-122 1553.9717,-86 1676.0283,-86 1676.0283,-122"/>
<text text-anchor="middle" x="1615" y="-99.8" font-family="Times,serif" font-size="14.00" fill="#000000">PageEndIndexPipe</text>
</g>
<!-- PageEndIndexPipe&#45;&gt;PipesModule -->
<g id="edge14" class="edge">
<title>PageEndIndexPipe&#45;&gt;PipesModule</title>
<path fill="none" stroke="#000000" d="M1634.5879,-122.2458C1634.5879,-136.1772 1634.5879,-153 1634.5879,-153 1634.5879,-153 1691.9254,-153 1691.9254,-153"/>
<polygon fill="#000000" stroke="#000000" points="1691.9254,-156.5001 1701.9254,-153 1691.9254,-149.5001 1691.9254,-156.5001"/>
</g>
<!-- PageSlicePipe -->
<g id="node15" class="node">
<title>PageSlicePipe</title>
<polygon fill="#ffffb3" stroke="#000000" points="1536.0926,-122 1439.9074,-122 1439.9074,-86 1536.0926,-86 1536.0926,-122"/>
<text text-anchor="middle" x="1488" y="-99.8" font-family="Times,serif" font-size="14.00" fill="#000000">PageSlicePipe</text>
</g>
<!-- PageSlicePipe&#45;&gt;PipesModule -->
<g id="edge15" class="edge">
<title>PageSlicePipe&#45;&gt;PipesModule</title>
<path fill="none" stroke="#000000" d="M1500.5154,-122.0511C1500.5154,-136.373 1500.5154,-154 1500.5154,-154 1500.5154,-154 1692.0775,-154 1692.0775,-154"/>
<polygon fill="#000000" stroke="#000000" points="1692.0776,-157.5001 1702.0775,-154 1692.0775,-150.5001 1692.0776,-157.5001"/>
</g>
<!-- PerspectiveIconPipe -->
<g id="node16" class="node">
<title>PerspectiveIconPipe</title>
<polygon fill="#ffffb3" stroke="#000000" points="1422.2907,-122 1291.7093,-122 1291.7093,-86 1422.2907,-86 1422.2907,-122"/>
<text text-anchor="middle" x="1357" y="-99.8" font-family="Times,serif" font-size="14.00" fill="#000000">PerspectiveIconPipe</text>
</g>
<!-- PerspectiveIconPipe&#45;&gt;PipesModule -->
<g id="edge16" class="edge">
<title>PerspectiveIconPipe&#45;&gt;PipesModule</title>
<path fill="none" stroke="#000000" d="M1417.5202,-122.1871C1417.5202,-137.1824 1417.5202,-156 1417.5202,-156 1417.5202,-156 1691.8781,-156 1691.8781,-156"/>
<polygon fill="#000000" stroke="#000000" points="1691.8781,-159.5001 1701.8781,-156 1691.878,-152.5001 1691.8781,-159.5001"/>
</g>
<!-- PixelPipe -->
<g id="node17" class="node">
<title>PixelPipe</title>
<polygon fill="#ffffb3" stroke="#000000" points="1273.667,-122 1204.333,-122 1204.333,-86 1273.667,-86 1273.667,-122"/>
<text text-anchor="middle" x="1239" y="-99.8" font-family="Times,serif" font-size="14.00" fill="#000000">PixelPipe</text>
</g>
<!-- PixelPipe&#45;&gt;PipesModule -->
<g id="edge17" class="edge">
<title>PixelPipe&#45;&gt;PipesModule</title>
<path fill="none" stroke="#000000" d="M1267.7081,-122.2396C1267.7081,-137.5706 1267.7081,-157 1267.7081,-157 1267.7081,-157 1691.9094,-157 1691.9094,-157"/>
<polygon fill="#000000" stroke="#000000" points="1691.9094,-160.5001 1701.9094,-157 1691.9093,-153.5001 1691.9094,-160.5001"/>
</g>
<!-- PrefixPipe -->
<g id="node18" class="node">
<title>PrefixPipe</title>
<polygon fill="#ffffb3" stroke="#000000" points="1186.5969,-122 1111.4031,-122 1111.4031,-86 1186.5969,-86 1186.5969,-122"/>
<text text-anchor="middle" x="1149" y="-99.8" font-family="Times,serif" font-size="14.00" fill="#000000">PrefixPipe</text>
</g>
<!-- PrefixPipe&#45;&gt;PipesModule -->
<g id="edge18" class="edge">
<title>PrefixPipe&#45;&gt;PipesModule</title>
<path fill="none" stroke="#000000" d="M1178.4234,-122.0091C1178.4234,-138.0494 1178.4234,-159 1178.4234,-159 1178.4234,-159 1691.9095,-159 1691.9095,-159"/>
<polygon fill="#000000" stroke="#000000" points="1691.9095,-162.5001 1701.9095,-159 1691.9095,-155.5001 1691.9095,-162.5001"/>
</g>
<!-- RemoveHtmlCommentsPipe -->
<g id="node19" class="node">
<title>RemoveHtmlCommentsPipe</title>
<polygon fill="#ffffb3" stroke="#000000" points="1093.4902,-122 916.5098,-122 916.5098,-86 1093.4902,-86 1093.4902,-122"/>
<text text-anchor="middle" x="1005" y="-99.8" font-family="Times,serif" font-size="14.00" fill="#000000">RemoveHtmlCommentsPipe</text>
</g>
<!-- RemoveHtmlCommentsPipe&#45;&gt;PipesModule -->
<g id="edge19" class="edge">
<title>RemoveHtmlCommentsPipe&#45;&gt;PipesModule</title>
<path fill="none" stroke="#000000" d="M1082.4734,-122.027C1082.4734,-138.3976 1082.4734,-160 1082.4734,-160 1082.4734,-160 1692.1071,-160 1692.1071,-160"/>
<polygon fill="#000000" stroke="#000000" points="1692.1071,-163.5001 1702.1071,-160 1692.107,-156.5001 1692.1071,-163.5001"/>
</g>
<!-- ResourceRolesPipe -->
<g id="node20" class="node">
<title>ResourceRolesPipe</title>
<polygon fill="#ffffb3" stroke="#000000" points="898.3599,-122 773.6401,-122 773.6401,-86 898.3599,-86 898.3599,-122"/>
<text text-anchor="middle" x="836" y="-99.8" font-family="Times,serif" font-size="14.00" fill="#000000">ResourceRolesPipe</text>
</g>
<!-- ResourceRolesPipe&#45;&gt;PipesModule -->
<g id="edge20" class="edge">
<title>ResourceRolesPipe&#45;&gt;PipesModule</title>
<path fill="none" stroke="#000000" d="M883.9674,-122.0336C883.9674,-139.0597 883.9674,-162 883.9674,-162 883.9674,-162 1692.1163,-162 1692.1163,-162"/>
<polygon fill="#000000" stroke="#000000" points="1692.1163,-165.5001 1702.1163,-162 1692.1163,-158.5001 1692.1163,-165.5001"/>
</g>
<!-- RoleIconPipe -->
<g id="node21" class="node">
<title>RoleIconPipe</title>
<polygon fill="#ffffb3" stroke="#000000" points="755.205,-122 662.795,-122 662.795,-86 755.205,-86 755.205,-122"/>
<text text-anchor="middle" x="709" y="-99.8" font-family="Times,serif" font-size="14.00" fill="#000000">RoleIconPipe</text>
</g>
<!-- RoleIconPipe&#45;&gt;PipesModule -->
<g id="edge21" class="edge">
<title>RoleIconPipe&#45;&gt;PipesModule</title>
<path fill="none" stroke="#000000" d="M750.9613,-122.0225C750.9613,-139.3734 750.9613,-163 750.9613,-163 750.9613,-163 1691.9412,-163 1691.9412,-163"/>
<polygon fill="#000000" stroke="#000000" points="1691.9412,-166.5001 1701.9412,-163 1691.9412,-159.5001 1691.9412,-166.5001"/>
</g>
<!-- RoleTitlePipe -->
<g id="node22" class="node">
<title>RoleTitlePipe</title>
<polygon fill="#ffffb3" stroke="#000000" points="644.7689,-122 551.2311,-122 551.2311,-86 644.7689,-86 644.7689,-122"/>
<text text-anchor="middle" x="598" y="-99.8" font-family="Times,serif" font-size="14.00" fill="#000000">RoleTitlePipe</text>
</g>
<!-- RoleTitlePipe&#45;&gt;PipesModule -->
<g id="edge22" class="edge">
<title>RoleTitlePipe&#45;&gt;PipesModule</title>
<path fill="none" stroke="#000000" d="M639.016,-122.002C639.016,-139.6754 639.016,-164 639.016,-164 639.016,-164 1691.8474,-164 1691.8474,-164"/>
<polygon fill="#000000" stroke="#000000" points="1691.8474,-167.5001 1701.8474,-164 1691.8473,-160.5001 1691.8474,-167.5001"/>
</g>
<!-- SingleCollectionQueryPipe -->
<g id="node23" class="node">
<title>SingleCollectionQueryPipe</title>
<polygon fill="#ffffb3" stroke="#000000" points="532.9762,-122 363.0238,-122 363.0238,-86 532.9762,-86 532.9762,-122"/>
<text text-anchor="middle" x="448" y="-99.8" font-family="Times,serif" font-size="14.00" fill="#000000">SingleCollectionQueryPipe</text>
</g>
<!-- SingleCollectionQueryPipe&#45;&gt;PipesModule -->
<g id="edge23" class="edge">
<title>SingleCollectionQueryPipe&#45;&gt;PipesModule</title>
<path fill="none" stroke="#000000" d="M525.6769,-122.2667C525.6769,-140.5552 525.6769,-166 525.6769,-166 525.6769,-166 1692.084,-166 1692.084,-166"/>
<polygon fill="#000000" stroke="#000000" points="1692.084,-169.5001 1702.084,-166 1692.084,-162.5001 1692.084,-169.5001"/>
</g>
<!-- UserRolesInResource -->
<g id="node24" class="node">
<title>UserRolesInResource</title>
<polygon fill="#ffffb3" stroke="#000000" points="345.059,-122 206.941,-122 206.941,-86 345.059,-86 345.059,-122"/>
<text text-anchor="middle" x="276" y="-99.8" font-family="Times,serif" font-size="14.00" fill="#000000">UserRolesInResource</text>
</g>
<!-- UserRolesInResource&#45;&gt;PipesModule -->
<g id="edge24" class="edge">
<title>UserRolesInResource&#45;&gt;PipesModule</title>
<path fill="none" stroke="#000000" d="M336.1457,-122.2222C336.1457,-140.8285 336.1457,-167 336.1457,-167 336.1457,-167 1692.0518,-167 1692.0518,-167"/>
<polygon fill="#000000" stroke="#000000" points="1692.0518,-170.5001 1702.0518,-167 1692.0518,-163.5001 1692.0518,-170.5001"/>
</g>
<!-- WorkspaceSetPipe -->
<g id="node25" class="node">
<title>WorkspaceSetPipe</title>
<polygon fill="#ffffb3" stroke="#000000" points="188.7395,-122 67.2605,-122 67.2605,-86 188.7395,-86 188.7395,-122"/>
<text text-anchor="middle" x="128" y="-99.8" font-family="Times,serif" font-size="14.00" fill="#000000">WorkspaceSetPipe</text>
</g>
<!-- WorkspaceSetPipe&#45;&gt;PipesModule -->
<g id="edge25" class="edge">
<title>WorkspaceSetPipe&#45;&gt;PipesModule</title>
<path fill="none" stroke="#000000" d="M178.0451,-122.1061C178.0451,-141.3391 178.0451,-169 178.045,-169 178.045,-169 1691.7363,-169 1691.7363,-169"/>
<polygon fill="#000000" stroke="#000000" points="1691.7363,-172.5001 1701.7363,-169 1691.7362,-165.5001 1691.7363,-172.5001"/>
</g>
<!-- CanActivatePagePipe  -->
<g id="node27" class="node">
<title>CanActivatePagePipe </title>
<polygon fill="#fb8072" stroke="#000000" points="3350.5736,-252 3209.4264,-252 3209.4264,-216 3350.5736,-216 3350.5736,-252"/>
<text text-anchor="middle" x="3280" y="-229.8" font-family="Times,serif" font-size="14.00" fill="#000000">CanActivatePagePipe </text>
</g>
<!-- PipesModule&#45;&gt;CanActivatePagePipe  -->
<g id="edge26" class="edge">
<title>PipesModule&#45;&gt;CanActivatePagePipe </title>
<path fill="none" stroke="#000000" stroke-dasharray="5,2" d="M1792.2699,-170C2043.9521,-170 3259.625,-170 3259.625,-170 3259.625,-170 3259.625,-205.8314 3259.625,-205.8314"/>
<polygon fill="#000000" stroke="#000000" points="3256.1251,-205.8313 3259.625,-215.8314 3263.1251,-205.8314 3256.1251,-205.8313"/>
</g>
<!-- ColorsPipe  -->
<g id="node28" class="node">
<title>ColorsPipe </title>
<polygon fill="#fb8072" stroke="#000000" points="3190.7207,-252 3109.2793,-252 3109.2793,-216 3190.7207,-216 3190.7207,-252"/>
<text text-anchor="middle" x="3150" y="-229.8" font-family="Times,serif" font-size="14.00" fill="#000000">ColorsPipe </text>
</g>
<!-- PipesModule&#45;&gt;ColorsPipe  -->
<g id="edge27" class="edge">
<title>PipesModule&#45;&gt;ColorsPipe </title>
<path fill="none" stroke="#000000" stroke-dasharray="5,2" d="M1791.8905,-172C2029.7068,-172 3131.625,-172 3131.625,-172 3131.625,-172 3131.625,-205.7333 3131.625,-205.7333"/>
<polygon fill="#000000" stroke="#000000" points="3128.1251,-205.7333 3131.625,-215.7333 3135.1251,-205.7333 3128.1251,-205.7333"/>
</g>
<!-- DefaultAttributePipe  -->
<g id="node29" class="node">
<title>DefaultAttributePipe </title>
<polygon fill="#fb8072" stroke="#000000" points="3091.4096,-252 2954.5904,-252 2954.5904,-216 3091.4096,-216 3091.4096,-252"/>
<text text-anchor="middle" x="3023" y="-229.8" font-family="Times,serif" font-size="14.00" fill="#000000">DefaultAttributePipe </text>
</g>
<!-- PipesModule&#45;&gt;DefaultAttributePipe  -->
<g id="edge28" class="edge">
<title>PipesModule&#45;&gt;DefaultAttributePipe </title>
<path fill="none" stroke="#000000" stroke-dasharray="5,2" d="M1792.1842,-173C2017.2026,-173 3006.125,-173 3006.125,-173 3006.125,-173 3006.125,-205.698 3006.125,-205.698"/>
<polygon fill="#000000" stroke="#000000" points="3002.6251,-205.698 3006.125,-215.698 3009.6251,-205.698 3002.6251,-205.698"/>
</g>
<!-- EmptyPipe  -->
<g id="node30" class="node">
<title>EmptyPipe </title>
<polygon fill="#fb8072" stroke="#000000" points="2936.7221,-252 2855.2779,-252 2855.2779,-216 2936.7221,-216 2936.7221,-252"/>
<text text-anchor="middle" x="2896" y="-229.8" font-family="Times,serif" font-size="14.00" fill="#000000">EmptyPipe </text>
</g>
<!-- PipesModule&#45;&gt;EmptyPipe  -->
<g id="edge29" class="edge">
<title>PipesModule&#45;&gt;EmptyPipe </title>
<path fill="none" stroke="#000000" stroke-dasharray="5,2" d="M1792.139,-175C2002.9796,-175 2880.625,-175 2880.625,-175 2880.625,-175 2880.625,-205.9775 2880.625,-205.9775"/>
<polygon fill="#000000" stroke="#000000" points="2877.1251,-205.9774 2880.625,-215.9775 2884.1251,-205.9775 2877.1251,-205.9774"/>
</g>
<!-- EmptyQueryPipe  -->
<g id="node31" class="node">
<title>EmptyQueryPipe </title>
<polygon fill="#fb8072" stroke="#000000" points="2837.2038,-252 2720.7962,-252 2720.7962,-216 2837.2038,-216 2837.2038,-252"/>
<text text-anchor="middle" x="2779" y="-229.8" font-family="Times,serif" font-size="14.00" fill="#000000">EmptyQueryPipe </text>
</g>
<!-- PipesModule&#45;&gt;EmptyQueryPipe  -->
<g id="edge30" class="edge">
<title>PipesModule&#45;&gt;EmptyQueryPipe </title>
<path fill="none" stroke="#000000" stroke-dasharray="5,2" d="M1792.0613,-176C1989.0991,-176 2765.125,-176 2765.125,-176 2765.125,-176 2765.125,-205.9664 2765.125,-205.9664"/>
<polygon fill="#000000" stroke="#000000" points="2761.6251,-205.9663 2765.125,-215.9664 2768.6251,-205.9664 2761.6251,-205.9663"/>
</g>
<!-- FilterPerspectivesPipe  -->
<g id="node32" class="node">
<title>FilterPerspectivesPipe </title>
<polygon fill="#fb8072" stroke="#000000" points="2702.1897,-252 2557.8103,-252 2557.8103,-216 2702.1897,-216 2702.1897,-252"/>
<text text-anchor="middle" x="2630" y="-229.8" font-family="Times,serif" font-size="14.00" fill="#000000">FilterPerspectivesPipe </text>
</g>
<!-- PipesModule&#45;&gt;FilterPerspectivesPipe  -->
<g id="edge31" class="edge">
<title>PipesModule&#45;&gt;FilterPerspectivesPipe </title>
<path fill="none" stroke="#000000" stroke-dasharray="5,2" d="M1792.0011,-177C1970.3831,-177 2618.125,-177 2618.125,-177 2618.125,-177 2618.125,-205.9648 2618.125,-205.9648"/>
<polygon fill="#000000" stroke="#000000" points="2614.6251,-205.9648 2618.125,-215.9648 2621.6251,-205.9649 2614.6251,-205.9648"/>
</g>
<!-- HighlightTextPipe  -->
<g id="node33" class="node">
<title>HighlightTextPipe </title>
<polygon fill="#fb8072" stroke="#000000" points="2539.7149,-252 2416.2851,-252 2416.2851,-216 2539.7149,-216 2539.7149,-252"/>
<text text-anchor="middle" x="2478" y="-229.8" font-family="Times,serif" font-size="14.00" fill="#000000">HighlightTextPipe </text>
</g>
<!-- PipesModule&#45;&gt;HighlightTextPipe  -->
<g id="edge32" class="edge">
<title>PipesModule&#45;&gt;HighlightTextPipe </title>
<path fill="none" stroke="#000000" stroke-dasharray="5,2" d="M1792.0783,-179C1949.8407,-179 2467.625,-179 2467.625,-179 2467.625,-179 2467.625,-205.9909 2467.625,-205.9909"/>
<polygon fill="#000000" stroke="#000000" points="2464.1251,-205.9909 2467.625,-215.9909 2471.1251,-205.991 2464.1251,-205.9909"/>
</g>
<!-- IconsPipe  -->
<g id="node34" class="node">
<title>IconsPipe </title>
<polygon fill="#fb8072" stroke="#000000" points="2398.2082,-252 2323.7918,-252 2323.7918,-216 2398.2082,-216 2398.2082,-252"/>
<text text-anchor="middle" x="2361" y="-229.8" font-family="Times,serif" font-size="14.00" fill="#000000">IconsPipe </text>
</g>
<!-- PipesModule&#45;&gt;IconsPipe  -->
<g id="edge33" class="edge">
<title>PipesModule&#45;&gt;IconsPipe </title>
<path fill="none" stroke="#000000" stroke-dasharray="5,2" d="M1791.9884,-180C1932.2275,-180 2352.125,-180 2352.125,-180 2352.125,-180 2352.125,-205.7181 2352.125,-205.7181"/>
<polygon fill="#000000" stroke="#000000" points="2348.6251,-205.718 2352.125,-215.7181 2355.6251,-205.7181 2348.6251,-205.718"/>
</g>
<!-- IncludesPipe  -->
<g id="node35" class="node">
<title>IncludesPipe </title>
<polygon fill="#fb8072" stroke="#000000" points="2305.813,-252 2214.187,-252 2214.187,-216 2305.813,-216 2305.813,-252"/>
<text text-anchor="middle" x="2260" y="-229.8" font-family="Times,serif" font-size="14.00" fill="#000000">IncludesPipe </text>
</g>
<!-- PipesModule&#45;&gt;IncludesPipe  -->
<g id="edge34" class="edge">
<title>PipesModule&#45;&gt;IncludesPipe </title>
<path fill="none" stroke="#000000" stroke-dasharray="5,2" d="M1792.3158,-182C1916.422,-182 2252.625,-182 2252.625,-182 2252.625,-182 2252.625,-205.8129 2252.625,-205.8129"/>
<polygon fill="#000000" stroke="#000000" points="2249.1251,-205.8129 2252.625,-215.8129 2256.1251,-205.813 2249.1251,-205.8129"/>
</g>
<!-- LengthGreaterThanPipe  -->
<g id="node36" class="node">
<title>LengthGreaterThanPipe </title>
<polygon fill="#fb8072" stroke="#000000" points="2196.2752,-252 2041.7248,-252 2041.7248,-216 2196.2752,-216 2196.2752,-252"/>
<text text-anchor="middle" x="2119" y="-229.8" font-family="Times,serif" font-size="14.00" fill="#000000">LengthGreaterThanPipe </text>
</g>
<!-- PipesModule&#45;&gt;LengthGreaterThanPipe  -->
<g id="edge35" class="edge">
<title>PipesModule&#45;&gt;LengthGreaterThanPipe </title>
<path fill="none" stroke="#000000" stroke-dasharray="5,2" d="M1791.8941,-183C1889.66,-183 2113.125,-183 2113.125,-183 2113.125,-183 2113.125,-205.8757 2113.125,-205.8757"/>
<polygon fill="#000000" stroke="#000000" points="2109.6251,-205.8757 2113.125,-215.8757 2116.6251,-205.8757 2109.6251,-205.8757"/>
</g>
<!-- LightenColorPipe  -->
<g id="node37" class="node">
<title>LightenColorPipe </title>
<polygon fill="#fb8072" stroke="#000000" points="2023.8241,-252 1904.1759,-252 1904.1759,-216 2023.8241,-216 2023.8241,-252"/>
<text text-anchor="middle" x="1964" y="-229.8" font-family="Times,serif" font-size="14.00" fill="#000000">LightenColorPipe </text>
</g>
<!-- PipesModule&#45;&gt;LightenColorPipe  -->
<g id="edge36" class="edge">
<title>PipesModule&#45;&gt;LightenColorPipe </title>
<path fill="none" stroke="#000000" stroke-dasharray="5,2" d="M1792.0212,-185C1849.3641,-185 1941.1127,-185 1941.1127,-185 1941.1127,-185 1941.1127,-205.7542 1941.1127,-205.7542"/>
<polygon fill="#000000" stroke="#000000" points="1937.6128,-205.7542 1941.1127,-215.7542 1944.6128,-205.7542 1937.6128,-205.7542"/>
</g>
<!-- LogPipe  -->
<g id="node38" class="node">
<title>LogPipe </title>
<polygon fill="#fb8072" stroke="#000000" points="1886.4404,-252 1819.5596,-252 1819.5596,-216 1886.4404,-216 1886.4404,-252"/>
<text text-anchor="middle" x="1853" y="-229.8" font-family="Times,serif" font-size="14.00" fill="#000000">LogPipe </text>
</g>
<!-- PipesModule&#45;&gt;LogPipe  -->
<g id="edge37" class="edge">
<title>PipesModule&#45;&gt;LogPipe </title>
<path fill="none" stroke="#000000" stroke-dasharray="5,2" d="M1792.1022,-186C1815.7786,-186 1839.9266,-186 1839.9266,-186 1839.9266,-186 1839.9266,-205.8533 1839.9266,-205.8533"/>
<polygon fill="#000000" stroke="#000000" points="1836.4267,-205.8532 1839.9266,-215.8533 1843.4267,-205.8533 1836.4267,-205.8532"/>
</g>
<!-- NativeDatePipe  -->
<g id="node39" class="node">
<title>NativeDatePipe </title>
<polygon fill="#fb8072" stroke="#000000" points="1801.1313,-252 1692.8687,-252 1692.8687,-216 1801.1313,-216 1801.1313,-252"/>
<text text-anchor="middle" x="1747" y="-229.8" font-family="Times,serif" font-size="14.00" fill="#000000">NativeDatePipe </text>
</g>
<!-- PipesModule&#45;&gt;NativeDatePipe  -->
<g id="edge38" class="edge">
<title>PipesModule&#45;&gt;NativeDatePipe </title>
<path fill="none" stroke="#000000" stroke-dasharray="5,2" d="M1747,-187.1061C1747,-187.1061 1747,-205.991 1747,-205.991"/>
<polygon fill="#000000" stroke="#000000" points="1743.5001,-205.9909 1747,-215.991 1750.5001,-205.991 1743.5001,-205.9909"/>
</g>
<!-- PageEndIndexPipe  -->
<g id="node40" class="node">
<title>PageEndIndexPipe </title>
<polygon fill="#fb8072" stroke="#000000" points="1675.0274,-252 1548.9726,-252 1548.9726,-216 1675.0274,-216 1675.0274,-252"/>
<text text-anchor="middle" x="1612" y="-229.8" font-family="Times,serif" font-size="14.00" fill="#000000">PageEndIndexPipe </text>
</g>
<!-- PipesModule&#45;&gt;PageEndIndexPipe  -->
<g id="edge39" class="edge">
<title>PipesModule&#45;&gt;PageEndIndexPipe </title>
<path fill="none" stroke="#000000" stroke-dasharray="5,2" d="M1701.9702,-186C1656.8868,-186 1594.1621,-186 1594.1621,-186 1594.1621,-186 1594.1621,-205.8533 1594.1621,-205.8533"/>
<polygon fill="#000000" stroke="#000000" points="1590.6622,-205.8532 1594.1621,-215.8533 1597.6622,-205.8533 1590.6622,-205.8532"/>
</g>
<!-- PageSlicePipe  -->
<g id="node41" class="node">
<title>PageSlicePipe </title>
<polygon fill="#fb8072" stroke="#000000" points="1530.5934,-252 1431.4066,-252 1431.4066,-216 1530.5934,-216 1530.5934,-252"/>
<text text-anchor="middle" x="1481" y="-229.8" font-family="Times,serif" font-size="14.00" fill="#000000">PageSlicePipe </text>
</g>
<!-- PipesModule&#45;&gt;PageSlicePipe  -->
<g id="edge40" class="edge">
<title>PipesModule&#45;&gt;PageSlicePipe </title>
<path fill="none" stroke="#000000" stroke-dasharray="5,2" d="M1701.9169,-185C1623.4921,-185 1470.2346,-185 1470.2346,-185 1470.2346,-185 1470.2346,-205.7542 1470.2346,-205.7542"/>
<polygon fill="#000000" stroke="#000000" points="1466.7347,-205.7542 1470.2346,-215.7542 1473.7347,-205.7542 1466.7347,-205.7542"/>
</g>
<!-- PerspectiveIconPipe  -->
<g id="node42" class="node">
<title>PerspectiveIconPipe </title>
<polygon fill="#fb8072" stroke="#000000" points="1412.7906,-252 1279.2094,-252 1279.2094,-216 1412.7906,-216 1412.7906,-252"/>
<text text-anchor="middle" x="1346" y="-229.8" font-family="Times,serif" font-size="14.00" fill="#000000">PerspectiveIconPipe </text>
</g>
<!-- PipesModule&#45;&gt;PerspectiveIconPipe  -->
<g id="edge41" class="edge">
<title>PipesModule&#45;&gt;PerspectiveIconPipe </title>
<path fill="none" stroke="#000000" stroke-dasharray="5,2" d="M1702.1157,-183C1598.6848,-183 1352.375,-183 1352.375,-183 1352.375,-183 1352.375,-205.8757 1352.375,-205.8757"/>
<polygon fill="#000000" stroke="#000000" points="1348.8751,-205.8757 1352.375,-215.8757 1355.8751,-205.8757 1348.8751,-205.8757"/>
</g>
<!-- PixelPipe  -->
<g id="node43" class="node">
<title>PixelPipe </title>
<polygon fill="#fb8072" stroke="#000000" points="1261.6664,-252 1188.3336,-252 1188.3336,-216 1261.6664,-216 1261.6664,-252"/>
<text text-anchor="middle" x="1225" y="-229.8" font-family="Times,serif" font-size="14.00" fill="#000000">PixelPipe </text>
</g>
<!-- PipesModule&#45;&gt;PixelPipe  -->
<g id="edge42" class="edge">
<title>PipesModule&#45;&gt;PixelPipe </title>
<path fill="none" stroke="#000000" stroke-dasharray="5,2" d="M1701.8254,-182C1576.3695,-182 1232.875,-182 1232.875,-182 1232.875,-182 1232.875,-205.8129 1232.875,-205.8129"/>
<polygon fill="#000000" stroke="#000000" points="1229.3751,-205.8129 1232.875,-215.8129 1236.3751,-205.813 1229.3751,-205.8129"/>
</g>
<!-- PrefixPipe  -->
<g id="node44" class="node">
<title>PrefixPipe </title>
<polygon fill="#fb8072" stroke="#000000" points="1170.0978,-252 1091.9022,-252 1091.9022,-216 1170.0978,-216 1170.0978,-252"/>
<text text-anchor="middle" x="1131" y="-229.8" font-family="Times,serif" font-size="14.00" fill="#000000">PrefixPipe </text>
</g>
<!-- PipesModule&#45;&gt;PrefixPipe  -->
<g id="edge43" class="edge">
<title>PipesModule&#45;&gt;PrefixPipe </title>
<path fill="none" stroke="#000000" stroke-dasharray="5,2" d="M1701.9373,-180C1561.4664,-180 1140.875,-180 1140.875,-180 1140.875,-180 1140.875,-205.7181 1140.875,-205.7181"/>
<polygon fill="#000000" stroke="#000000" points="1137.3751,-205.718 1140.875,-215.7181 1144.3751,-205.7181 1137.3751,-205.718"/>
</g>
<!-- RemoveHtmlCommentsPipe  -->
<g id="node45" class="node">
<title>RemoveHtmlCommentsPipe </title>
<polygon fill="#fb8072" stroke="#000000" points="1073.4909,-252 892.5091,-252 892.5091,-216 1073.4909,-216 1073.4909,-252"/>
<text text-anchor="middle" x="983" y="-229.8" font-family="Times,serif" font-size="14.00" fill="#000000">RemoveHtmlCommentsPipe </text>
</g>
<!-- PipesModule&#45;&gt;RemoveHtmlCommentsPipe  -->
<g id="edge44" class="edge">
<title>PipesModule&#45;&gt;RemoveHtmlCommentsPipe </title>
<path fill="none" stroke="#000000" stroke-dasharray="5,2" d="M1701.9247,-179C1539.6597,-179 994.875,-179 994.875,-179 994.875,-179 994.875,-205.9909 994.875,-205.9909"/>
<polygon fill="#000000" stroke="#000000" points="991.3751,-205.9909 994.875,-215.9909 998.3751,-205.991 991.3751,-205.9909"/>
</g>
<!-- ResourceRolesPipe  -->
<g id="node46" class="node">
<title>ResourceRolesPipe </title>
<polygon fill="#fb8072" stroke="#000000" points="875.3603,-252 746.6397,-252 746.6397,-216 875.3603,-216 875.3603,-252"/>
<text text-anchor="middle" x="811" y="-229.8" font-family="Times,serif" font-size="14.00" fill="#000000">ResourceRolesPipe </text>
</g>
<!-- PipesModule&#45;&gt;ResourceRolesPipe  -->
<g id="edge45" class="edge">
<title>PipesModule&#45;&gt;ResourceRolesPipe </title>
<path fill="none" stroke="#000000" stroke-dasharray="5,2" d="M1701.8753,-177C1516.6403,-177 824.375,-177 824.375,-177 824.375,-177 824.375,-205.9648 824.375,-205.9648"/>
<polygon fill="#000000" stroke="#000000" points="820.8751,-205.9648 824.375,-215.9648 827.8751,-205.9649 820.8751,-205.9648"/>
</g>
<!-- RoleIconPipe  -->
<g id="node47" class="node">
<title>RoleIconPipe </title>
<polygon fill="#fb8072" stroke="#000000" points="728.7053,-252 633.2947,-252 633.2947,-216 728.7053,-216 728.7053,-252"/>
<text text-anchor="middle" x="681" y="-229.8" font-family="Times,serif" font-size="14.00" fill="#000000">RoleIconPipe </text>
</g>
<!-- PipesModule&#45;&gt;RoleIconPipe  -->
<g id="edge46" class="edge">
<title>PipesModule&#45;&gt;RoleIconPipe </title>
<path fill="none" stroke="#000000" stroke-dasharray="5,2" d="M1701.8345,-176C1500.6426,-176 695.875,-176 695.875,-176 695.875,-176 695.875,-205.9664 695.875,-205.9664"/>
<polygon fill="#000000" stroke="#000000" points="692.3751,-205.9663 695.875,-215.9664 699.3751,-205.9664 692.3751,-205.9663"/>
</g>
<!-- RoleTitlePipe  -->
<g id="node48" class="node">
<title>RoleTitlePipe </title>
<polygon fill="#fb8072" stroke="#000000" points="615.769,-252 518.231,-252 518.231,-216 615.769,-216 615.769,-252"/>
<text text-anchor="middle" x="567" y="-229.8" font-family="Times,serif" font-size="14.00" fill="#000000">RoleTitlePipe </text>
</g>
<!-- PipesModule&#45;&gt;RoleTitlePipe  -->
<g id="edge47" class="edge">
<title>PipesModule&#45;&gt;RoleTitlePipe </title>
<path fill="none" stroke="#000000" stroke-dasharray="5,2" d="M1702.0975,-175C1488.2501,-175 583.375,-175 583.375,-175 583.375,-175 583.375,-205.9775 583.375,-205.9775"/>
<polygon fill="#000000" stroke="#000000" points="579.8751,-205.9774 583.375,-215.9775 586.8751,-205.9775 579.8751,-205.9774"/>
</g>
<!-- SingleCollectionQueryPipe  -->
<g id="node49" class="node">
<title>SingleCollectionQueryPipe </title>
<polygon fill="#fb8072" stroke="#000000" points="500.9769,-252 327.0231,-252 327.0231,-216 500.9769,-216 500.9769,-252"/>
<text text-anchor="middle" x="414" y="-229.8" font-family="Times,serif" font-size="14.00" fill="#000000">SingleCollectionQueryPipe </text>
</g>
<!-- PipesModule&#45;&gt;SingleCollectionQueryPipe  -->
<g id="edge48" class="edge">
<title>PipesModule&#45;&gt;SingleCollectionQueryPipe </title>
<path fill="none" stroke="#000000" stroke-dasharray="5,2" d="M1702.1109,-173C1471.6204,-173 431.875,-173 431.875,-173 431.875,-173 431.875,-205.698 431.875,-205.698"/>
<polygon fill="#000000" stroke="#000000" points="428.3751,-205.698 431.875,-215.698 435.3751,-205.698 428.3751,-205.698"/>
</g>
<!-- UserRolesInResource  -->
<g id="node50" class="node">
<title>UserRolesInResource </title>
<polygon fill="#fb8072" stroke="#000000" points="308.5597,-252 167.4403,-252 167.4403,-216 308.5597,-216 308.5597,-252"/>
<text text-anchor="middle" x="238" y="-229.8" font-family="Times,serif" font-size="14.00" fill="#000000">UserRolesInResource </text>
</g>
<!-- PipesModule&#45;&gt;UserRolesInResource  -->
<g id="edge49" class="edge">
<title>PipesModule&#45;&gt;UserRolesInResource </title>
<path fill="none" stroke="#000000" stroke-dasharray="5,2" d="M1702.0277,-172C1453.358,-172 257.875,-172 257.875,-172 257.875,-172 257.875,-205.7333 257.875,-205.7333"/>
<polygon fill="#000000" stroke="#000000" points="254.3751,-205.7333 257.875,-215.7333 261.3751,-205.7333 254.3751,-205.7333"/>
</g>
<!-- WorkspaceSetPipe  -->
<g id="node51" class="node">
<title>WorkspaceSetPipe </title>
<polygon fill="#fb8072" stroke="#000000" points="149.7394,-252 24.2606,-252 24.2606,-216 149.7394,-216 149.7394,-252"/>
<text text-anchor="middle" x="87" y="-229.8" font-family="Times,serif" font-size="14.00" fill="#000000">WorkspaceSetPipe </text>
</g>
<!-- PipesModule&#45;&gt;WorkspaceSetPipe  -->
<g id="edge50" class="edge">
<title>PipesModule&#45;&gt;WorkspaceSetPipe </title>
<path fill="none" stroke="#000000" stroke-dasharray="5,2" d="M1701.8932,-170C1438.2549,-170 108.375,-170 108.375,-170 108.375,-170 108.375,-205.8314 108.375,-205.8314"/>
<polygon fill="#000000" stroke="#000000" points="104.8751,-205.8313 108.375,-215.8314 111.8751,-205.8314 104.8751,-205.8313"/>
</g>
</g>
</svg>
