<?xml version="1.0" encoding="UTF-8" standalone="no"?>
<!DOCTYPE svg PUBLIC "-//W3C//DTD SVG 1.1//EN"
 "http://www.w3.org/Graphics/SVG/1.1/DTD/svg11.dtd">
<!-- Generated by graphviz version 2.40.1 (20161225.0304)
 -->
<!-- Title: dependencies Pages: 1 -->
<svg width="1467pt" height="211pt"
 viewBox="0.00 0.00 1467.00 211.00" xmlns="http://www.w3.org/2000/svg" xmlns:xlink="http://www.w3.org/1999/xlink">
<g id="graph0" class="graph" transform="scale(1 1) rotate(0) translate(4 207)">
<title>dependencies</title>
<polygon fill="#ffffff" stroke="transparent" points="-4,4 -4,-207 1463,-207 1463,4 -4,4"/>
<text text-anchor="start" x="708.5091" y="-42.4" font-family="sans-serif" font-weight="bold" font-size="14.00" fill="#000000">Legend</text>
<polygon fill="#ffffb3" stroke="transparent" points="495.5,-10 495.5,-30 515.5,-30 515.5,-10 495.5,-10"/>
<text text-anchor="start" x="519.129" y="-15.4" font-family="sans-serif" font-size="14.00" fill="#000000"> &#160;Declarations</text>
<polygon fill="#8dd3c7" stroke="transparent" points="608.5,-10 608.5,-30 628.5,-30 628.5,-10 608.5,-10"/>
<text text-anchor="start" x="632.2251" y="-15.4" font-family="sans-serif" font-size="14.00" fill="#000000"> &#160;Module</text>
<polygon fill="#80b1d3" stroke="transparent" points="694.5,-10 694.5,-30 714.5,-30 714.5,-10 694.5,-10"/>
<text text-anchor="start" x="718.2812" y="-15.4" font-family="sans-serif" font-size="14.00" fill="#000000"> &#160;Bootstrap</text>
<polygon fill="#fdb462" stroke="transparent" points="791.5,-10 791.5,-30 811.5,-30 811.5,-10 791.5,-10"/>
<text text-anchor="start" x="815.1732" y="-15.4" font-family="sans-serif" font-size="14.00" fill="#000000"> &#160;Providers</text>
<polygon fill="#fb8072" stroke="transparent" points="887.5,-10 887.5,-30 907.5,-30 907.5,-10 887.5,-10"/>
<text text-anchor="start" x="911.2258" y="-15.4" font-family="sans-serif" font-size="14.00" fill="#000000"> &#160;Exports</text>
<g id="clust1" class="cluster">
<title>cluster_GuardsModule</title>
<polygon fill="none" stroke="#000000" stroke-dasharray="1,5" points="8,-70 8,-195 1451,-195 1451,-70 8,-70"/>
</g>
<g id="clust6" class="cluster">
<title>cluster_GuardsModule_providers</title>
<polygon fill="none" stroke="#000000" points="16,-78 16,-130 1443,-130 1443,-78 16,-78"/>
</g>
<!-- AppRedirectGuard -->
<g id="node1" class="node">
<title>AppRedirectGuard</title>
<ellipse fill="#fdb462" stroke="#000000" cx="1350" cy="-104" rx="84.5112" ry="18"/>
<text text-anchor="middle" x="1350" y="-99.8" font-family="Times,serif" font-size="14.00" fill="#000000">AppRedirectGuard</text>
</g>
<!-- GuardsModule -->
<g id="node9" class="node">
<title>GuardsModule</title>
<polygon fill="#8dd3c7" stroke="#000000" points="822.9762,-187 819.9762,-191 798.9762,-191 795.9762,-187 723.0238,-187 723.0238,-151 822.9762,-151 822.9762,-187"/>
<text text-anchor="middle" x="773" y="-164.8" font-family="Times,serif" font-size="14.00" fill="#000000">GuardsModule</text>
</g>
<!-- AppRedirectGuard&#45;&gt;GuardsModule -->
<g id="edge1" class="edge">
<title>AppRedirectGuard&#45;&gt;GuardsModule</title>
<path fill="none" stroke="#000000" d="M1350,-122.2921C1350,-144.2057 1350,-178 1350,-178 1350,-178 833.1956,-178 833.1956,-178"/>
<polygon fill="#000000" stroke="#000000" points="833.1956,-174.5001 823.1956,-178 833.1956,-181.5001 833.1956,-174.5001"/>
</g>
<!-- AuthGuard -->
<g id="node2" class="node">
<title>AuthGuard</title>
<ellipse fill="#fdb462" stroke="#000000" cx="1193" cy="-104" rx="54.4566" ry="18"/>
<text text-anchor="middle" x="1193" y="-99.8" font-family="Times,serif" font-size="14.00" fill="#000000">AuthGuard</text>
</g>
<!-- AuthGuard&#45;&gt;GuardsModule -->
<g id="edge2" class="edge">
<title>AuthGuard&#45;&gt;GuardsModule</title>
<path fill="none" stroke="#000000" d="M1193,-122.1061C1193,-141.3391 1193,-169 1193,-169 1193,-169 833.2446,-169 833.2446,-169"/>
<polygon fill="#000000" stroke="#000000" points="833.2447,-165.5001 823.2446,-169 833.2446,-172.5001 833.2447,-165.5001"/>
</g>
<!-- CollectionsGuard -->
<g id="node3" class="node">
<title>CollectionsGuard</title>
<ellipse fill="#fdb462" stroke="#000000" cx="1041" cy="-104" rx="79.3116" ry="18"/>
<text text-anchor="middle" x="1041" y="-99.8" font-family="Times,serif" font-size="14.00" fill="#000000">CollectionsGuard</text>
</g>
<!-- CollectionsGuard&#45;&gt;GuardsModule -->
<g id="edge3" class="edge">
<title>CollectionsGuard&#45;&gt;GuardsModule</title>
<path fill="none" stroke="#000000" d="M1041,-122.027C1041,-138.3976 1041,-160 1041,-160 1041,-160 833.0944,-160 833.0944,-160"/>
<polygon fill="#000000" stroke="#000000" points="833.0944,-156.5001 823.0944,-160 833.0943,-163.5001 833.0944,-156.5001"/>
</g>
<!-- LinkTypesGuard -->
<g id="node4" class="node">
<title>LinkTypesGuard</title>
<ellipse fill="#fdb462" stroke="#000000" cx="867" cy="-104" rx="77.0101" ry="18"/>
<text text-anchor="middle" x="867" y="-99.8" font-family="Times,serif" font-size="14.00" fill="#000000">LinkTypesGuard</text>
</g>
<!-- LinkTypesGuard&#45;&gt;GuardsModule -->
<g id="edge4" class="edge">
<title>LinkTypesGuard&#45;&gt;GuardsModule</title>
<path fill="none" stroke="#000000" d="M806.4915,-115.3221C806.4915,-115.3221 806.4915,-140.9424 806.4915,-140.9424"/>
<polygon fill="#000000" stroke="#000000" points="802.9916,-140.9424 806.4915,-150.9424 809.9916,-140.9425 802.9916,-140.9424"/>
</g>
<!-- PageNotFoundGuard -->
<g id="node5" class="node">
<title>PageNotFoundGuard</title>
<ellipse fill="#fdb462" stroke="#000000" cx="679" cy="-104" rx="93.2045" ry="18"/>
<text text-anchor="middle" x="679" y="-99.8" font-family="Times,serif" font-size="14.00" fill="#000000">PageNotFoundGuard</text>
</g>
<!-- PageNotFoundGuard&#45;&gt;GuardsModule -->
<g id="edge5" class="edge">
<title>PageNotFoundGuard&#45;&gt;GuardsModule</title>
<path fill="none" stroke="#000000" d="M747.557,-116.226C747.557,-116.226 747.557,-140.683 747.557,-140.683"/>
<polygon fill="#000000" stroke="#000000" points="744.0571,-140.683 747.557,-150.683 751.0571,-140.683 744.0571,-140.683"/>
</g>
<!-- ViewExistGuard -->
<g id="node6" class="node">
<title>ViewExistGuard</title>
<ellipse fill="#fdb462" stroke="#000000" cx="492" cy="-104" rx="75.8605" ry="18"/>
<text text-anchor="middle" x="492" y="-99.8" font-family="Times,serif" font-size="14.00" fill="#000000">ViewExistGuard</text>
</g>
<!-- ViewExistGuard&#45;&gt;GuardsModule -->
<g id="edge6" class="edge">
<title>ViewExistGuard&#45;&gt;GuardsModule</title>
<path fill="none" stroke="#000000" d="M492,-122.027C492,-138.3976 492,-160 492,-160 492,-160 712.7628,-160 712.7628,-160"/>
<polygon fill="#000000" stroke="#000000" points="712.7629,-163.5001 722.7628,-160 712.7628,-156.5001 712.7629,-163.5001"/>
</g>
<!-- ViewRedirectGuard -->
<g id="node7" class="node">
<title>ViewRedirectGuard</title>
<ellipse fill="#fdb462" stroke="#000000" cx="309" cy="-104" rx="88.5812" ry="18"/>
<text text-anchor="middle" x="309" y="-99.8" font-family="Times,serif" font-size="14.00" fill="#000000">ViewRedirectGuard</text>
</g>
<!-- ViewRedirectGuard&#45;&gt;GuardsModule -->
<g id="edge7" class="edge">
<title>ViewRedirectGuard&#45;&gt;GuardsModule</title>
<path fill="none" stroke="#000000" d="M309,-122.1061C309,-141.3391 309,-169 309,-169 309,-169 712.903,-169 712.903,-169"/>
<polygon fill="#000000" stroke="#000000" points="712.903,-172.5001 722.903,-169 712.903,-165.5001 712.903,-172.5001"/>
</g>
<!-- ViewsLoadedGuard -->
<g id="node8" class="node">
<title>ViewsLoadedGuard</title>
<ellipse fill="#fdb462" stroke="#000000" cx="113" cy="-104" rx="88.587" ry="18"/>
<text text-anchor="middle" x="113" y="-99.8" font-family="Times,serif" font-size="14.00" fill="#000000">ViewsLoadedGuard</text>
</g>
<!-- ViewsLoadedGuard&#45;&gt;GuardsModule -->
<g id="edge8" class="edge">
<title>ViewsLoadedGuard&#45;&gt;GuardsModule</title>
<path fill="none" stroke="#000000" d="M113,-122.2921C113,-144.2057 113,-178 113,-178 113,-178 712.851,-178 712.851,-178"/>
<polygon fill="#000000" stroke="#000000" points="712.8511,-181.5001 722.851,-178 712.851,-174.5001 712.8511,-181.5001"/>
</g>
</g>
</svg>
