<?xml version="1.0" encoding="UTF-8" standalone="no"?>
<!DOCTYPE svg PUBLIC "-//W3C//DTD SVG 1.1//EN"
 "http://www.w3.org/Graphics/SVG/1.1/DTD/svg11.dtd">
<!-- Generated by graphviz version 2.40.1 (20161225.0304)
 -->
<!-- Title: dependencies Pages: 1 -->
<svg width="1102pt" height="284pt"
 viewBox="0.00 0.00 1102.00 284.00" xmlns="http://www.w3.org/2000/svg" xmlns:xlink="http://www.w3.org/1999/xlink">
<g id="graph0" class="graph" transform="scale(1 1) rotate(0) translate(4 280)">
<title>dependencies</title>
<polygon fill="#ffffff" stroke="transparent" points="-4,4 -4,-280 1098,-280 1098,4 -4,4"/>
<text text-anchor="start" x="526.0091" y="-42.4" font-family="sans-serif" font-weight="bold" font-size="14.00" fill="#000000">Legend</text>
<polygon fill="#ffffb3" stroke="transparent" points="313,-10 313,-30 333,-30 333,-10 313,-10"/>
<text text-anchor="start" x="336.629" y="-15.4" font-family="sans-serif" font-size="14.00" fill="#000000"> &#160;Declarations</text>
<polygon fill="#8dd3c7" stroke="transparent" points="426,-10 426,-30 446,-30 446,-10 426,-10"/>
<text text-anchor="start" x="449.7251" y="-15.4" font-family="sans-serif" font-size="14.00" fill="#000000"> &#160;Module</text>
<polygon fill="#80b1d3" stroke="transparent" points="512,-10 512,-30 532,-30 532,-10 512,-10"/>
<text text-anchor="start" x="535.7812" y="-15.4" font-family="sans-serif" font-size="14.00" fill="#000000"> &#160;Bootstrap</text>
<polygon fill="#fdb462" stroke="transparent" points="609,-10 609,-30 629,-30 629,-10 609,-10"/>
<text text-anchor="start" x="632.6732" y="-15.4" font-family="sans-serif" font-size="14.00" fill="#000000"> &#160;Providers</text>
<polygon fill="#fb8072" stroke="transparent" points="705,-10 705,-30 725,-30 725,-10 705,-10"/>
<text text-anchor="start" x="728.7258" y="-15.4" font-family="sans-serif" font-size="14.00" fill="#000000"> &#160;Exports</text>
<g id="clust1" class="cluster">
<title>cluster_PermissionsPipesModule</title>
<polygon fill="none" stroke="#000000" stroke-dasharray="1,5" points="8,-70 8,-268 1086,-268 1086,-70 8,-70"/>
</g>
<g id="clust2" class="cluster">
<title>cluster_PermissionsPipesModule_declarations</title>
<polygon fill="none" stroke="#000000" points="29,-78 29,-130 1070,-130 1070,-78 29,-78"/>
</g>
<g id="clust10" class="cluster">
<title>cluster_PermissionsPipesModule_exports</title>
<polygon fill="none" stroke="#000000" points="16,-208 16,-260 1078,-260 1078,-208 16,-208"/>
</g>
<!-- CanManageConfigPipe -->
<g id="node1" class="node">
<title>CanManageConfigPipe</title>
<polygon fill="#ffffb3" stroke="#000000" points="1061.9158,-122 914.0842,-122 914.0842,-86 1061.9158,-86 1061.9158,-122"/>
<text text-anchor="middle" x="988" y="-99.8" font-family="Times,serif" font-size="14.00" fill="#000000">CanManageConfigPipe</text>
</g>
<!-- PermissionsPipesModule -->
<g id="node7" class="node">
<title>PermissionsPipesModule</title>
<polygon fill="#8dd3c7" stroke="#000000" points="518.5463,-187 515.5463,-191 494.5463,-191 491.5463,-187 361.4537,-187 361.4537,-151 518.5463,-151 518.5463,-187"/>
<text text-anchor="middle" x="440" y="-164.8" font-family="Times,serif" font-size="14.00" fill="#000000">PermissionsPipesModule</text>
</g>
<!-- CanManageConfigPipe&#45;&gt;PermissionsPipesModule -->
<g id="edge1" class="edge">
<title>CanManageConfigPipe&#45;&gt;PermissionsPipesModule</title>
<path fill="none" stroke="#000000" d="M1014.3192,-122.2222C1014.3192,-140.8285 1014.3192,-167 1014.3192,-167 1014.3192,-167 528.6524,-167 528.6524,-167"/>
<polygon fill="#000000" stroke="#000000" points="528.6525,-163.5001 518.6524,-167 528.6524,-170.5001 528.6525,-163.5001"/>
</g>
<!-- CollectionPermissionsPipe -->
<g id="node2" class="node">
<title>CollectionPermissionsPipe</title>
<polygon fill="#ffffb3" stroke="#000000" points="896.3794,-122 729.6206,-122 729.6206,-86 896.3794,-86 896.3794,-122"/>
<text text-anchor="middle" x="813" y="-99.8" font-family="Times,serif" font-size="14.00" fill="#000000">CollectionPermissionsPipe</text>
</g>
<!-- CollectionPermissionsPipe&#45;&gt;PermissionsPipesModule -->
<g id="edge2" class="edge">
<title>CollectionPermissionsPipe&#45;&gt;PermissionsPipesModule</title>
<path fill="none" stroke="#000000" d="M841.2299,-122.0336C841.2299,-139.0597 841.2299,-162 841.2299,-162 841.2299,-162 528.7914,-162 528.7914,-162"/>
<polygon fill="#000000" stroke="#000000" points="528.7914,-158.5001 518.7914,-162 528.7914,-165.5001 528.7914,-158.5001"/>
</g>
<!-- DocumentPermissionsPipe -->
<g id="node3" class="node">
<title>DocumentPermissionsPipe</title>
<polygon fill="#ffffb3" stroke="#000000" points="711.3683,-122 544.6317,-122 544.6317,-86 711.3683,-86 711.3683,-122"/>
<text text-anchor="middle" x="628" y="-99.8" font-family="Times,serif" font-size="14.00" fill="#000000">DocumentPermissionsPipe</text>
</g>
<!-- DocumentPermissionsPipe&#45;&gt;PermissionsPipesModule -->
<g id="edge3" class="edge">
<title>DocumentPermissionsPipe&#45;&gt;PermissionsPipesModule</title>
<path fill="none" stroke="#000000" d="M655.8114,-122.2396C655.8114,-137.5706 655.8114,-157 655.8114,-157 655.8114,-157 528.8289,-157 528.8289,-157"/>
<polygon fill="#000000" stroke="#000000" points="528.829,-153.5001 518.8289,-157 528.8289,-160.5001 528.829,-153.5001"/>
</g>
<!-- LinkInstancePermissionsPipe -->
<g id="node4" class="node">
<title>LinkInstancePermissionsPipe</title>
<polygon fill="#ffffb3" stroke="#000000" points="526.6344,-122 345.3656,-122 345.3656,-86 526.6344,-86 526.6344,-122"/>
<text text-anchor="middle" x="436" y="-99.8" font-family="Times,serif" font-size="14.00" fill="#000000">LinkInstancePermissionsPipe</text>
</g>
<!-- LinkInstancePermissionsPipe&#45;&gt;PermissionsPipesModule -->
<g id="edge4" class="edge">
<title>LinkInstancePermissionsPipe&#45;&gt;PermissionsPipesModule</title>
<path fill="none" stroke="#000000" d="M440,-122.1061C440,-122.1061 440,-140.991 440,-140.991"/>
<polygon fill="#000000" stroke="#000000" points="436.5001,-140.9909 440,-150.991 443.5001,-140.991 436.5001,-140.9909"/>
</g>
<!-- LinkTypePermissionsPipe -->
<g id="node5" class="node">
<title>LinkTypePermissionsPipe</title>
<polygon fill="#ffffb3" stroke="#000000" points="326.7618,-122 163.2382,-122 163.2382,-86 326.7618,-86 326.7618,-122"/>
<text text-anchor="middle" x="245" y="-99.8" font-family="Times,serif" font-size="14.00" fill="#000000">LinkTypePermissionsPipe</text>
</g>
<!-- LinkTypePermissionsPipe&#45;&gt;PermissionsPipesModule -->
<g id="edge5" class="edge">
<title>LinkTypePermissionsPipe&#45;&gt;PermissionsPipesModule</title>
<path fill="none" stroke="#000000" d="M268.7936,-122.0091C268.7936,-138.0494 268.7936,-159 268.7936,-159 268.7936,-159 351.4119,-159 351.4119,-159"/>
<polygon fill="#000000" stroke="#000000" points="351.412,-162.5001 361.4119,-159 351.4119,-155.5001 351.412,-162.5001"/>
</g>
<!-- PermissionsPipe -->
<g id="node6" class="node">
<title>PermissionsPipe</title>
<polygon fill="#ffffb3" stroke="#000000" points="145.0521,-122 36.9479,-122 36.9479,-86 145.0521,-86 145.0521,-122"/>
<text text-anchor="middle" x="91" y="-99.8" font-family="Times,serif" font-size="14.00" fill="#000000">PermissionsPipe</text>
</g>
<!-- PermissionsPipe&#45;&gt;PermissionsPipesModule -->
<g id="edge6" class="edge">
<title>PermissionsPipe&#45;&gt;PermissionsPipesModule</title>
<path fill="none" stroke="#000000" d="M140.6506,-122.2667C140.6506,-140.5552 140.6506,-166 140.6506,-166 140.6506,-166 351.3495,-166 351.3495,-166"/>
<polygon fill="#000000" stroke="#000000" points="351.3495,-169.5001 361.3495,-166 351.3494,-162.5001 351.3495,-169.5001"/>
</g>
<!-- CanManageConfigPipe  -->
<g id="node8" class="node">
<title>CanManageConfigPipe </title>
<polygon fill="#fb8072" stroke="#000000" points="1070.4152,-252 919.5848,-252 919.5848,-216 1070.4152,-216 1070.4152,-252"/>
<text text-anchor="middle" x="995" y="-229.8" font-family="Times,serif" font-size="14.00" fill="#000000">CanManageConfigPipe </text>
</g>
<!-- PermissionsPipesModule&#45;&gt;CanManageConfigPipe  -->
<g id="edge7" class="edge">
<title>PermissionsPipesModule&#45;&gt;CanManageConfigPipe </title>
<path fill="none" stroke="#000000" stroke-dasharray="5,2" d="M518.6022,-172C665.4938,-172 966.9308,-172 966.9308,-172 966.9308,-172 966.9308,-205.7333 966.9308,-205.7333"/>
<polygon fill="#000000" stroke="#000000" points="963.4309,-205.7333 966.9308,-215.7333 970.4309,-205.7333 963.4309,-205.7333"/>
</g>
<!-- CollectionPermissionsPipe  -->
<g id="node9" class="node">
<title>CollectionPermissionsPipe </title>
<polygon fill="#fb8072" stroke="#000000" points="901.3798,-252 730.6202,-252 730.6202,-216 901.3798,-216 901.3798,-252"/>
<text text-anchor="middle" x="816" y="-229.8" font-family="Times,serif" font-size="14.00" fill="#000000">CollectionPermissionsPipe </text>
</g>
<!-- PermissionsPipesModule&#45;&gt;CollectionPermissionsPipe  -->
<g id="edge8" class="edge">
<title>PermissionsPipesModule&#45;&gt;CollectionPermissionsPipe </title>
<path fill="none" stroke="#000000" stroke-dasharray="5,2" d="M518.9503,-177C621.0747,-177 786.0201,-177 786.0201,-177 786.0201,-177 786.0201,-205.9648 786.0201,-205.9648"/>
<polygon fill="#000000" stroke="#000000" points="782.5202,-205.9648 786.0201,-215.9648 789.5202,-205.9649 782.5202,-205.9648"/>
</g>
<!-- DocumentPermissionsPipe  -->
<g id="node10" class="node">
<title>DocumentPermissionsPipe </title>
<polygon fill="#fb8072" stroke="#000000" points="713.3686,-252 542.6314,-252 542.6314,-216 713.3686,-216 713.3686,-252"/>
<text text-anchor="middle" x="628" y="-229.8" font-family="Times,serif" font-size="14.00" fill="#000000">DocumentPermissionsPipe </text>
</g>
<!-- PermissionsPipesModule&#45;&gt;DocumentPermissionsPipe  -->
<g id="edge9" class="edge">
<title>PermissionsPipesModule&#45;&gt;DocumentPermissionsPipe </title>
<path fill="none" stroke="#000000" stroke-dasharray="5,2" d="M518.6865,-182C559.1974,-182 600.1886,-182 600.1886,-182 600.1886,-182 600.1886,-205.8129 600.1886,-205.8129"/>
<polygon fill="#000000" stroke="#000000" points="596.6887,-205.8129 600.1886,-215.8129 603.6887,-205.813 596.6887,-205.8129"/>
</g>
<!-- LinkInstancePermissionsPipe  -->
<g id="node11" class="node">
<title>LinkInstancePermissionsPipe </title>
<polygon fill="#fb8072" stroke="#000000" points="524.634,-252 339.366,-252 339.366,-216 524.634,-216 524.634,-252"/>
<text text-anchor="middle" x="432" y="-229.8" font-family="Times,serif" font-size="14.00" fill="#000000">LinkInstancePermissionsPipe </text>
</g>
<!-- PermissionsPipesModule&#45;&gt;LinkInstancePermissionsPipe  -->
<g id="edge10" class="edge">
<title>PermissionsPipesModule&#45;&gt;LinkInstancePermissionsPipe </title>
<path fill="none" stroke="#000000" stroke-dasharray="5,2" d="M440,-187.1061C440,-187.1061 440,-205.991 440,-205.991"/>
<polygon fill="#000000" stroke="#000000" points="436.5001,-205.9909 440,-215.991 443.5001,-205.991 436.5001,-205.9909"/>
</g>
<!-- LinkTypePermissionsPipe  -->
<g id="node12" class="node">
<title>LinkTypePermissionsPipe </title>
<polygon fill="#fb8072" stroke="#000000" points="321.7618,-252 154.2382,-252 154.2382,-216 321.7618,-216 321.7618,-252"/>
<text text-anchor="middle" x="238" y="-229.8" font-family="Times,serif" font-size="14.00" fill="#000000">LinkTypePermissionsPipe </text>
</g>
<!-- PermissionsPipesModule&#45;&gt;LinkTypePermissionsPipe  -->
<g id="edge11" class="edge">
<title>PermissionsPipesModule&#45;&gt;LinkTypePermissionsPipe </title>
<path fill="none" stroke="#000000" stroke-dasharray="5,2" d="M361.3256,-180C296.7697,-180 215.9564,-180 215.9564,-180 215.9564,-180 215.9564,-205.7181 215.9564,-205.7181"/>
<polygon fill="#000000" stroke="#000000" points="212.4565,-205.718 215.9564,-215.7181 219.4565,-205.7181 212.4565,-205.718"/>
</g>
<!-- PermissionsPipe  -->
<g id="node13" class="node">
<title>PermissionsPipe </title>
<polygon fill="#fb8072" stroke="#000000" points="136.0512,-252 23.9488,-252 23.9488,-216 136.0512,-216 136.0512,-252"/>
<text text-anchor="middle" x="80" y="-229.8" font-family="Times,serif" font-size="14.00" fill="#000000">PermissionsPipe </text>
</g>
<!-- PermissionsPipesModule&#45;&gt;PermissionsPipe  -->
<g id="edge12" class="edge">
<title>PermissionsPipesModule&#45;&gt;PermissionsPipe </title>
<path fill="none" stroke="#000000" stroke-dasharray="5,2" d="M361.0798,-173C256.8585,-173 86.375,-173 86.375,-173 86.375,-173 86.375,-205.698 86.375,-205.698"/>
<polygon fill="#000000" stroke="#000000" points="82.8751,-205.698 86.375,-215.698 89.8751,-205.698 82.8751,-205.698"/>
</g>
</g>
</svg>
