<?xml version="1.0" encoding="UTF-8" standalone="no"?>
<!DOCTYPE svg PUBLIC "-//W3C//DTD SVG 1.1//EN"
 "http://www.w3.org/Graphics/SVG/1.1/DTD/svg11.dtd">
<!-- Generated by graphviz version 2.40.1 (20161225.0304)
 -->
<!-- Title: dependencies Pages: 1 -->
<svg width="5965pt" height="284pt"
 viewBox="0.00 0.00 5965.00 284.00" xmlns="http://www.w3.org/2000/svg" xmlns:xlink="http://www.w3.org/1999/xlink">
<g id="graph0" class="graph" transform="scale(1 1) rotate(0) translate(4 280)">
<title>dependencies</title>
<polygon fill="#ffffff" stroke="transparent" points="-4,4 -4,-280 5961,-280 5961,4 -4,4"/>
<text text-anchor="start" x="2957.5091" y="-42.4" font-family="sans-serif" font-weight="bold" font-size="14.00" fill="#000000">Legend</text>
<polygon fill="#ffffb3" stroke="transparent" points="2744.5,-10 2744.5,-30 2764.5,-30 2764.5,-10 2744.5,-10"/>
<text text-anchor="start" x="2768.129" y="-15.4" font-family="sans-serif" font-size="14.00" fill="#000000"> &#160;Declarations</text>
<polygon fill="#8dd3c7" stroke="transparent" points="2857.5,-10 2857.5,-30 2877.5,-30 2877.5,-10 2857.5,-10"/>
<text text-anchor="start" x="2881.2251" y="-15.4" font-family="sans-serif" font-size="14.00" fill="#000000"> &#160;Module</text>
<polygon fill="#80b1d3" stroke="transparent" points="2943.5,-10 2943.5,-30 2963.5,-30 2963.5,-10 2943.5,-10"/>
<text text-anchor="start" x="2967.2812" y="-15.4" font-family="sans-serif" font-size="14.00" fill="#000000"> &#160;Bootstrap</text>
<polygon fill="#fdb462" stroke="transparent" points="3040.5,-10 3040.5,-30 3060.5,-30 3060.5,-10 3040.5,-10"/>
<text text-anchor="start" x="3064.1732" y="-15.4" font-family="sans-serif" font-size="14.00" fill="#000000"> &#160;Providers</text>
<polygon fill="#fb8072" stroke="transparent" points="3136.5,-10 3136.5,-30 3156.5,-30 3156.5,-10 3136.5,-10"/>
<text text-anchor="start" x="3160.2258" y="-15.4" font-family="sans-serif" font-size="14.00" fill="#000000"> &#160;Exports</text>
<g id="clust1" class="cluster">
<title>cluster_Table2PerspectiveModule</title>
<polygon fill="none" stroke="#000000" stroke-dasharray="1,5" points="8,-70 8,-268 5949,-268 5949,-70 8,-70"/>
</g>
<g id="clust2" class="cluster">
<title>cluster_Table2PerspectiveModule_declarations</title>
<polygon fill="none" stroke="#000000" points="472,-78 472,-130 5941,-130 5941,-78 472,-78"/>
</g>
<g id="clust30" class="cluster">
<title>cluster_Table2PerspectiveModule_imports</title>
<polygon fill="none" stroke="#000000" points="16,-78 16,-130 464,-130 464,-78 16,-78"/>
</g>
<g id="clust31" class="cluster">
<title>cluster_Table2PerspectiveModule_exports</title>
<polygon fill="none" stroke="#000000" points="2732,-208 2732,-260 2936,-260 2936,-208 2732,-208"/>
</g>
<!-- Table2PerspectiveComponent -->
<g id="node1" class="node">
<title>Table2PerspectiveComponent</title>
<polygon fill="#ffffb3" stroke="#000000" points="5933.2324,-122 5748.7676,-122 5748.7676,-86 5933.2324,-86 5933.2324,-122"/>
<text text-anchor="middle" x="5841" y="-99.8" font-family="Times,serif" font-size="14.00" fill="#000000">Table2PerspectiveComponent</text>
</g>
<!-- Table2PerspectiveModule -->
<g id="node28" class="node">
<title>Table2PerspectiveModule</title>
<polygon fill="#8dd3c7" stroke="#000000" points="2915.4496,-187 2912.4496,-191 2891.4496,-191 2888.4496,-187 2752.5504,-187 2752.5504,-151 2915.4496,-151 2915.4496,-187"/>
<text text-anchor="middle" x="2834" y="-164.8" font-family="Times,serif" font-size="14.00" fill="#000000">Table2PerspectiveModule</text>
</g>
<!-- Table2PerspectiveComponent&#45;&gt;Table2PerspectiveModule -->
<g id="edge1" class="edge">
<title>Table2PerspectiveComponent&#45;&gt;Table2PerspectiveModule</title>
<path fill="none" stroke="#000000" d="M5841,-122.3802C5841,-146.2785 5841,-185 5841,-185 5841,-185 2925.5983,-185 2925.5983,-185"/>
<polygon fill="#000000" stroke="#000000" points="2925.5984,-181.5001 2915.5983,-185 2925.5983,-188.5001 2925.5984,-181.5001"/>
</g>
<!-- TableAttributeSuggestionsComponent -->
<g id="node2" class="node">
<title>TableAttributeSuggestionsComponent</title>
<polygon fill="#ffffb3" stroke="#000000" points="5730.917,-122 5499.083,-122 5499.083,-86 5730.917,-86 5730.917,-122"/>
<text text-anchor="middle" x="5615" y="-99.8" font-family="Times,serif" font-size="14.00" fill="#000000">TableAttributeSuggestionsComponent</text>
</g>
<!-- TableAttributeSuggestionsComponent&#45;&gt;Table2PerspectiveModule -->
<g id="edge2" class="edge">
<title>TableAttributeSuggestionsComponent&#45;&gt;Table2PerspectiveModule</title>
<path fill="none" stroke="#000000" d="M5615,-122.3228C5615,-145.6602 5615,-183 5615,-183 5615,-183 2925.7239,-183 2925.7239,-183"/>
<polygon fill="#000000" stroke="#000000" points="2925.724,-179.5001 2915.7239,-183 2925.7239,-186.5001 2925.724,-179.5001"/>
</g>
<!-- TableBodyComponent -->
<g id="node3" class="node">
<title>TableBodyComponent</title>
<polygon fill="#ffffb3" stroke="#000000" points="5481.5421,-122 5338.4579,-122 5338.4579,-86 5481.5421,-86 5481.5421,-122"/>
<text text-anchor="middle" x="5410" y="-99.8" font-family="Times,serif" font-size="14.00" fill="#000000">TableBodyComponent</text>
</g>
<!-- TableBodyComponent&#45;&gt;Table2PerspectiveModule -->
<g id="edge3" class="edge">
<title>TableBodyComponent&#45;&gt;Table2PerspectiveModule</title>
<path fill="none" stroke="#000000" d="M5410,-122.0109C5410,-144.4852 5410,-180 5410,-180 5410,-180 2925.7084,-180 2925.7084,-180"/>
<polygon fill="#000000" stroke="#000000" points="2925.7084,-176.5001 2915.7084,-180 2925.7084,-183.5001 2925.7084,-176.5001"/>
</g>
<!-- TableCaptionComponent -->
<g id="node4" class="node">
<title>TableCaptionComponent</title>
<polygon fill="#ffffb3" stroke="#000000" points="5319.5379,-122 5162.4621,-122 5162.4621,-86 5319.5379,-86 5319.5379,-122"/>
<text text-anchor="middle" x="5241" y="-99.8" font-family="Times,serif" font-size="14.00" fill="#000000">TableCaptionComponent</text>
</g>
<!-- TableCaptionComponent&#45;&gt;Table2PerspectiveModule -->
<g id="edge4" class="edge">
<title>TableCaptionComponent&#45;&gt;Table2PerspectiveModule</title>
<path fill="none" stroke="#000000" d="M5241,-122.2921C5241,-144.2057 5241,-178 5241,-178 5241,-178 2925.4644,-178 2925.4644,-178"/>
<polygon fill="#000000" stroke="#000000" points="2925.4645,-174.5001 2915.4644,-178 2925.4644,-181.5001 2925.4645,-174.5001"/>
</g>
<!-- TableCellComponent -->
<g id="node5" class="node">
<title>TableCellComponent</title>
<polygon fill="#ffffb3" stroke="#000000" points="5144.038,-122 5007.962,-122 5007.962,-86 5144.038,-86 5144.038,-122"/>
<text text-anchor="middle" x="5076" y="-99.8" font-family="Times,serif" font-size="14.00" fill="#000000">TableCellComponent</text>
</g>
<!-- TableCellComponent&#45;&gt;Table2PerspectiveModule -->
<g id="edge5" class="edge">
<title>TableCellComponent&#45;&gt;Table2PerspectiveModule</title>
<path fill="none" stroke="#000000" d="M5076,-122.2843C5076,-143.3211 5076,-175 5076,-175 5076,-175 2925.4512,-175 2925.4512,-175"/>
<polygon fill="#000000" stroke="#000000" points="2925.4512,-171.5001 2915.4512,-175 2925.4511,-178.5001 2925.4512,-171.5001"/>
</g>
<!-- TableCellGroupComponent -->
<g id="node6" class="node">
<title>TableCellGroupComponent</title>
<polygon fill="#ffffb3" stroke="#000000" points="4990.3047,-122 4817.6953,-122 4817.6953,-86 4990.3047,-86 4990.3047,-122"/>
<text text-anchor="middle" x="4904" y="-99.8" font-family="Times,serif" font-size="14.00" fill="#000000">TableCellGroupComponent</text>
</g>
<!-- TableCellGroupComponent&#45;&gt;Table2PerspectiveModule -->
<g id="edge6" class="edge">
<title>TableCellGroupComponent&#45;&gt;Table2PerspectiveModule</title>
<path fill="none" stroke="#000000" d="M4904,-122.1289C4904,-142.5724 4904,-173 4904,-173 4904,-173 2925.465,-173 2925.465,-173"/>
<polygon fill="#000000" stroke="#000000" points="2925.465,-169.5001 2915.465,-173 2925.4649,-176.5001 2925.465,-169.5001"/>
</g>
<!-- TableCollapsedCellComponent -->
<g id="node7" class="node">
<title>TableCollapsedCellComponent</title>
<polygon fill="#ffffb3" stroke="#000000" points="4800.0294,-122 4607.9706,-122 4607.9706,-86 4800.0294,-86 4800.0294,-122"/>
<text text-anchor="middle" x="4704" y="-99.8" font-family="Times,serif" font-size="14.00" fill="#000000">TableCollapsedCellComponent</text>
</g>
<!-- TableCollapsedCellComponent&#45;&gt;Table2PerspectiveModule -->
<g id="edge7" class="edge">
<title>TableCollapsedCellComponent&#45;&gt;Table2PerspectiveModule</title>
<path fill="none" stroke="#000000" d="M4704,-122.308C4704,-142.1455 4704,-171 4704,-171 4704,-171 2925.554,-171 2925.554,-171"/>
<polygon fill="#000000" stroke="#000000" points="2925.554,-167.5001 2915.554,-171 2925.554,-174.5001 2925.554,-167.5001"/>
</g>
<!-- TableColumnContextMenuComponent -->
<g id="node8" class="node">
<title>TableColumnContextMenuComponent</title>
<polygon fill="#ffffb3" stroke="#000000" points="4589.8144,-122 4354.1856,-122 4354.1856,-86 4589.8144,-86 4589.8144,-122"/>
<text text-anchor="middle" x="4472" y="-99.8" font-family="Times,serif" font-size="14.00" fill="#000000">TableColumnContextMenuComponent</text>
</g>
<!-- TableColumnContextMenuComponent&#45;&gt;Table2PerspectiveModule -->
<g id="edge8" class="edge">
<title>TableColumnContextMenuComponent&#45;&gt;Table2PerspectiveModule</title>
<path fill="none" stroke="#000000" d="M4472,-122.1686C4472,-141.0898 4472,-168 4472,-168 4472,-168 2925.5087,-168 2925.5087,-168"/>
<polygon fill="#000000" stroke="#000000" points="2925.5087,-164.5001 2915.5087,-168 2925.5086,-171.5001 2925.5087,-164.5001"/>
</g>
<!-- TableColumnGroupComponent -->
<g id="node9" class="node">
<title>TableColumnGroupComponent</title>
<polygon fill="#ffffb3" stroke="#000000" points="4336.0898,-122 4141.9102,-122 4141.9102,-86 4336.0898,-86 4336.0898,-122"/>
<text text-anchor="middle" x="4239" y="-99.8" font-family="Times,serif" font-size="14.00" fill="#000000">TableColumnGroupComponent</text>
</g>
<!-- TableColumnGroupComponent&#45;&gt;Table2PerspectiveModule -->
<g id="edge9" class="edge">
<title>TableColumnGroupComponent&#45;&gt;Table2PerspectiveModule</title>
<path fill="none" stroke="#000000" d="M4239,-122.2667C4239,-140.5552 4239,-166 4239,-166 4239,-166 2925.6117,-166 2925.6117,-166"/>
<polygon fill="#000000" stroke="#000000" points="2925.6117,-162.5001 2915.6117,-166 2925.6116,-169.5001 2925.6117,-162.5001"/>
</g>
<!-- TableCompoundColumnComponent -->
<g id="node10" class="node">
<title>TableCompoundColumnComponent</title>
<polygon fill="#ffffb3" stroke="#000000" points="4124.0503,-122 3903.9497,-122 3903.9497,-86 4124.0503,-86 4124.0503,-122"/>
<text text-anchor="middle" x="4014" y="-99.8" font-family="Times,serif" font-size="14.00" fill="#000000">TableCompoundColumnComponent</text>
</g>
<!-- TableCompoundColumnComponent&#45;&gt;Table2PerspectiveModule -->
<g id="edge10" class="edge">
<title>TableCompoundColumnComponent&#45;&gt;Table2PerspectiveModule</title>
<path fill="none" stroke="#000000" d="M4014,-122.0225C4014,-139.3734 4014,-163 4014,-163 4014,-163 2925.5717,-163 2925.5717,-163"/>
<polygon fill="#000000" stroke="#000000" points="2925.5718,-159.5001 2915.5717,-163 2925.5717,-166.5001 2925.5718,-159.5001"/>
</g>
<!-- TableDataCellComponent -->
<g id="node11" class="node">
<title>TableDataCellComponent</title>
<polygon fill="#ffffb3" stroke="#000000" points="3885.4636,-122 3722.5364,-122 3722.5364,-86 3885.4636,-86 3885.4636,-122"/>
<text text-anchor="middle" x="3804" y="-99.8" font-family="Times,serif" font-size="14.00" fill="#000000">TableDataCellComponent</text>
</g>
<!-- TableDataCellComponent&#45;&gt;Table2PerspectiveModule -->
<g id="edge11" class="edge">
<title>TableDataCellComponent&#45;&gt;Table2PerspectiveModule</title>
<path fill="none" stroke="#000000" d="M3804,-122.0352C3804,-138.7344 3804,-161 3804,-161 3804,-161 2925.8657,-161 2925.8657,-161"/>
<polygon fill="#000000" stroke="#000000" points="2925.8657,-157.5001 2915.8657,-161 2925.8656,-164.5001 2925.8657,-157.5001"/>
</g>
<!-- TableDataCellMenuComponent -->
<g id="node12" class="node">
<title>TableDataCellMenuComponent</title>
<polygon fill="#ffffb3" stroke="#000000" points="3704.6232,-122 3509.3768,-122 3509.3768,-86 3704.6232,-86 3704.6232,-122"/>
<text text-anchor="middle" x="3607" y="-99.8" font-family="Times,serif" font-size="14.00" fill="#000000">TableDataCellMenuComponent</text>
</g>
<!-- TableDataCellMenuComponent&#45;&gt;Table2PerspectiveModule -->
<g id="edge12" class="edge">
<title>TableDataCellMenuComponent&#45;&gt;Table2PerspectiveModule</title>
<path fill="none" stroke="#000000" d="M3607,-122.0091C3607,-138.0494 3607,-159 3607,-159 3607,-159 2925.6278,-159 2925.6278,-159"/>
<polygon fill="#000000" stroke="#000000" points="2925.6278,-155.5001 2915.6278,-159 2925.6278,-162.5001 2925.6278,-155.5001"/>
</g>
<!-- TableDataCellSuggestionsComponent -->
<g id="node13" class="node">
<title>TableDataCellSuggestionsComponent</title>
<polygon fill="#ffffb3" stroke="#000000" points="3491.1315,-122 3260.8685,-122 3260.8685,-86 3491.1315,-86 3491.1315,-122"/>
<text text-anchor="middle" x="3376" y="-99.8" font-family="Times,serif" font-size="14.00" fill="#000000">TableDataCellSuggestionsComponent</text>
</g>
<!-- TableDataCellSuggestionsComponent&#45;&gt;Table2PerspectiveModule -->
<g id="edge13" class="edge">
<title>TableDataCellSuggestionsComponent&#45;&gt;Table2PerspectiveModule</title>
<path fill="none" stroke="#000000" d="M3376,-122.1871C3376,-137.1824 3376,-156 3376,-156 3376,-156 2925.7297,-156 2925.7297,-156"/>
<polygon fill="#000000" stroke="#000000" points="2925.7297,-152.5001 2915.7297,-156 2925.7297,-159.5001 2925.7297,-152.5001"/>
</g>
<!-- TableEditableCellComponent -->
<g id="node14" class="node">
<title>TableEditableCellComponent</title>
<polygon fill="#ffffb3" stroke="#000000" points="3242.6909,-122 3059.3091,-122 3059.3091,-86 3242.6909,-86 3242.6909,-122"/>
<text text-anchor="middle" x="3151" y="-99.8" font-family="Times,serif" font-size="14.00" fill="#000000">TableEditableCellComponent</text>
</g>
<!-- TableEditableCellComponent&#45;&gt;Table2PerspectiveModule -->
<g id="edge14" class="edge">
<title>TableEditableCellComponent&#45;&gt;Table2PerspectiveModule</title>
<path fill="none" stroke="#000000" d="M3151,-122.0511C3151,-136.373 3151,-154 3151,-154 3151,-154 2925.6354,-154 2925.6354,-154"/>
<polygon fill="#000000" stroke="#000000" points="2925.6354,-150.5001 2915.6354,-154 2925.6353,-157.5001 2925.6354,-150.5001"/>
</g>
<!-- TableHeaderCollectionComponent -->
<g id="node15" class="node">
<title>TableHeaderCollectionComponent</title>
<polygon fill="#ffffb3" stroke="#000000" points="3040.944,-122 2829.056,-122 2829.056,-86 3040.944,-86 3040.944,-122"/>
<text text-anchor="middle" x="2935" y="-99.8" font-family="Times,serif" font-size="14.00" fill="#000000">TableHeaderCollectionComponent</text>
</g>
<!-- TableHeaderCollectionComponent&#45;&gt;Table2PerspectiveModule -->
<g id="edge15" class="edge">
<title>TableHeaderCollectionComponent&#45;&gt;Table2PerspectiveModule</title>
<path fill="none" stroke="#000000" d="M2872.2514,-122.1061C2872.2514,-122.1061 2872.2514,-140.991 2872.2514,-140.991"/>
<polygon fill="#000000" stroke="#000000" points="2868.7515,-140.9909 2872.2514,-150.991 2875.7515,-140.991 2868.7515,-140.9909"/>
</g>
<!-- TableHeaderComponent -->
<g id="node16" class="node">
<title>TableHeaderComponent</title>
<polygon fill="#ffffb3" stroke="#000000" points="2810.6163,-122 2657.3837,-122 2657.3837,-86 2810.6163,-86 2810.6163,-122"/>
<text text-anchor="middle" x="2734" y="-99.8" font-family="Times,serif" font-size="14.00" fill="#000000">TableHeaderComponent</text>
</g>
<!-- TableHeaderComponent&#45;&gt;Table2PerspectiveModule -->
<g id="edge16" class="edge">
<title>TableHeaderComponent&#45;&gt;Table2PerspectiveModule</title>
<path fill="none" stroke="#000000" d="M2781.6666,-122.1061C2781.6666,-122.1061 2781.6666,-140.991 2781.6666,-140.991"/>
<polygon fill="#000000" stroke="#000000" points="2778.1666,-140.9909 2781.6666,-150.991 2785.1666,-140.991 2778.1666,-140.9909"/>
</g>
<!-- TableHeaderLinkComponent -->
<g id="node17" class="node">
<title>TableHeaderLinkComponent</title>
<polygon fill="#ffffb3" stroke="#000000" points="2639.059,-122 2458.941,-122 2458.941,-86 2639.059,-86 2639.059,-122"/>
<text text-anchor="middle" x="2549" y="-99.8" font-family="Times,serif" font-size="14.00" fill="#000000">TableHeaderLinkComponent</text>
</g>
<!-- TableHeaderLinkComponent&#45;&gt;Table2PerspectiveModule -->
<g id="edge17" class="edge">
<title>TableHeaderLinkComponent&#45;&gt;Table2PerspectiveModule</title>
<path fill="none" stroke="#000000" d="M2549,-122.0511C2549,-136.373 2549,-154 2549,-154 2549,-154 2742.3304,-154 2742.3304,-154"/>
<polygon fill="#000000" stroke="#000000" points="2742.3305,-157.5001 2752.3304,-154 2742.3304,-150.5001 2742.3305,-157.5001"/>
</g>
<!-- TableHiddenColumnComponent -->
<g id="node18" class="node">
<title>TableHiddenColumnComponent</title>
<polygon fill="#ffffb3" stroke="#000000" points="2440.5349,-122 2241.4651,-122 2241.4651,-86 2440.5349,-86 2440.5349,-122"/>
<text text-anchor="middle" x="2341" y="-99.8" font-family="Times,serif" font-size="14.00" fill="#000000">TableHiddenColumnComponent</text>
</g>
<!-- TableHiddenColumnComponent&#45;&gt;Table2PerspectiveModule -->
<g id="edge18" class="edge">
<title>TableHiddenColumnComponent&#45;&gt;Table2PerspectiveModule</title>
<path fill="none" stroke="#000000" d="M2341,-122.1871C2341,-137.1824 2341,-156 2341,-156 2341,-156 2742.3145,-156 2742.3145,-156"/>
<polygon fill="#000000" stroke="#000000" points="2742.3146,-159.5001 2752.3145,-156 2742.3145,-152.5001 2742.3146,-159.5001"/>
</g>
<!-- TableLinkCellComponent -->
<g id="node19" class="node">
<title>TableLinkCellComponent</title>
<polygon fill="#ffffb3" stroke="#000000" points="2223.4804,-122 2060.5196,-122 2060.5196,-86 2223.4804,-86 2223.4804,-122"/>
<text text-anchor="middle" x="2142" y="-99.8" font-family="Times,serif" font-size="14.00" fill="#000000">TableLinkCellComponent</text>
</g>
<!-- TableLinkCellComponent&#45;&gt;Table2PerspectiveModule -->
<g id="edge19" class="edge">
<title>TableLinkCellComponent&#45;&gt;Table2PerspectiveModule</title>
<path fill="none" stroke="#000000" d="M2142,-122.0091C2142,-138.0494 2142,-159 2142,-159 2142,-159 2742.2428,-159 2742.2428,-159"/>
<polygon fill="#000000" stroke="#000000" points="2742.2428,-162.5001 2752.2428,-159 2742.2427,-155.5001 2742.2428,-162.5001"/>
</g>
<!-- TableLinkInfoComponent -->
<g id="node20" class="node">
<title>TableLinkInfoComponent</title>
<polygon fill="#ffffb3" stroke="#000000" points="2042.4692,-122 1879.5308,-122 1879.5308,-86 2042.4692,-86 2042.4692,-122"/>
<text text-anchor="middle" x="1961" y="-99.8" font-family="Times,serif" font-size="14.00" fill="#000000">TableLinkInfoComponent</text>
</g>
<!-- TableLinkInfoComponent&#45;&gt;Table2PerspectiveModule -->
<g id="edge20" class="edge">
<title>TableLinkInfoComponent&#45;&gt;Table2PerspectiveModule</title>
<path fill="none" stroke="#000000" d="M1961,-122.0352C1961,-138.7344 1961,-161 1961,-161 1961,-161 2742.2626,-161 2742.2626,-161"/>
<polygon fill="#000000" stroke="#000000" points="2742.2627,-164.5001 2752.2626,-161 2742.2626,-157.5001 2742.2627,-164.5001"/>
</g>
<!-- TableRowComponent -->
<g id="node21" class="node">
<title>TableRowComponent</title>
<polygon fill="#ffffb3" stroke="#000000" points="1861.6484,-122 1722.3516,-122 1722.3516,-86 1861.6484,-86 1861.6484,-122"/>
<text text-anchor="middle" x="1792" y="-99.8" font-family="Times,serif" font-size="14.00" fill="#000000">TableRowComponent</text>
</g>
<!-- TableRowComponent&#45;&gt;Table2PerspectiveModule -->
<g id="edge21" class="edge">
<title>TableRowComponent&#45;&gt;Table2PerspectiveModule</title>
<path fill="none" stroke="#000000" d="M1792,-122.0225C1792,-139.3734 1792,-163 1792,-163 1792,-163 2742.236,-163 2742.236,-163"/>
<polygon fill="#000000" stroke="#000000" points="2742.236,-166.5001 2752.236,-163 2742.236,-159.5001 2742.236,-166.5001"/>
</g>
<!-- TableRowGroupComponent -->
<g id="node22" class="node">
<title>TableRowGroupComponent</title>
<polygon fill="#ffffb3" stroke="#000000" points="1703.9157,-122 1528.0843,-122 1528.0843,-86 1703.9157,-86 1703.9157,-122"/>
<text text-anchor="middle" x="1616" y="-99.8" font-family="Times,serif" font-size="14.00" fill="#000000">TableRowGroupComponent</text>
</g>
<!-- TableRowGroupComponent&#45;&gt;Table2PerspectiveModule -->
<g id="edge22" class="edge">
<title>TableRowGroupComponent&#45;&gt;Table2PerspectiveModule</title>
<path fill="none" stroke="#000000" d="M1616,-122.2667C1616,-140.5552 1616,-166 1616,-166 1616,-166 2742.1923,-166 2742.1923,-166"/>
<polygon fill="#000000" stroke="#000000" points="2742.1923,-169.5001 2752.1923,-166 2742.1923,-162.5001 2742.1923,-169.5001"/>
</g>
<!-- TableRowGroupFooterComponent -->
<g id="node23" class="node">
<title>TableRowGroupFooterComponent</title>
<polygon fill="#ffffb3" stroke="#000000" points="1509.9636,-122 1298.0364,-122 1298.0364,-86 1509.9636,-86 1509.9636,-122"/>
<text text-anchor="middle" x="1404" y="-99.8" font-family="Times,serif" font-size="14.00" fill="#000000">TableRowGroupFooterComponent</text>
</g>
<!-- TableRowGroupFooterComponent&#45;&gt;Table2PerspectiveModule -->
<g id="edge23" class="edge">
<title>TableRowGroupFooterComponent&#45;&gt;Table2PerspectiveModule</title>
<path fill="none" stroke="#000000" d="M1404,-122.1686C1404,-141.0898 1404,-168 1404,-168 1404,-168 2742.501,-168 2742.501,-168"/>
<polygon fill="#000000" stroke="#000000" points="2742.5011,-171.5001 2752.501,-168 2742.501,-164.5001 2742.5011,-171.5001"/>
</g>
<!-- TableRowGroupHeaderComponent -->
<g id="node24" class="node">
<title>TableRowGroupHeaderComponent</title>
<polygon fill="#ffffb3" stroke="#000000" points="1279.8263,-122 1064.1737,-122 1064.1737,-86 1279.8263,-86 1279.8263,-122"/>
<text text-anchor="middle" x="1172" y="-99.8" font-family="Times,serif" font-size="14.00" fill="#000000">TableRowGroupHeaderComponent</text>
</g>
<!-- TableRowGroupHeaderComponent&#45;&gt;Table2PerspectiveModule -->
<g id="edge24" class="edge">
<title>TableRowGroupHeaderComponent&#45;&gt;Table2PerspectiveModule</title>
<path fill="none" stroke="#000000" d="M1172,-122.308C1172,-142.1455 1172,-171 1172,-171 1172,-171 2742.4308,-171 2742.4308,-171"/>
<polygon fill="#000000" stroke="#000000" points="2742.4309,-174.5001 2752.4308,-171 2742.4308,-167.5001 2742.4309,-174.5001"/>
</g>
<!-- TableRowNumbersComponent -->
<g id="node25" class="node">
<title>TableRowNumbersComponent</title>
<polygon fill="#ffffb3" stroke="#000000" points="1046.465,-122 855.535,-122 855.535,-86 1046.465,-86 1046.465,-122"/>
<text text-anchor="middle" x="951" y="-99.8" font-family="Times,serif" font-size="14.00" fill="#000000">TableRowNumbersComponent</text>
</g>
<!-- TableRowNumbersComponent&#45;&gt;Table2PerspectiveModule -->
<g id="edge25" class="edge">
<title>TableRowNumbersComponent&#45;&gt;Table2PerspectiveModule</title>
<path fill="none" stroke="#000000" d="M951,-122.1289C951,-142.5724 951,-173 951,-173 951,-173 2742.4855,-173 2742.4855,-173"/>
<polygon fill="#000000" stroke="#000000" points="2742.4855,-176.5001 2752.4855,-173 2742.4854,-169.5001 2742.4855,-176.5001"/>
</g>
<!-- TableRowsComponent -->
<g id="node26" class="node">
<title>TableRowsComponent</title>
<polygon fill="#ffffb3" stroke="#000000" points="837.5926,-122 692.4074,-122 692.4074,-86 837.5926,-86 837.5926,-122"/>
<text text-anchor="middle" x="765" y="-99.8" font-family="Times,serif" font-size="14.00" fill="#000000">TableRowsComponent</text>
</g>
<!-- TableRowsComponent&#45;&gt;Table2PerspectiveModule -->
<g id="edge26" class="edge">
<title>TableRowsComponent&#45;&gt;Table2PerspectiveModule</title>
<path fill="none" stroke="#000000" d="M765,-122.2843C765,-143.3211 765,-175 765,-175 765,-175 2742.2555,-175 2742.2555,-175"/>
<polygon fill="#000000" stroke="#000000" points="2742.2555,-178.5001 2752.2555,-175 2742.2555,-171.5001 2742.2555,-178.5001"/>
</g>
<!-- TableSingleColumnComponent -->
<g id="node27" class="node">
<title>TableSingleColumnComponent</title>
<polygon fill="#ffffb3" stroke="#000000" points="674.101,-122 479.899,-122 479.899,-86 674.101,-86 674.101,-122"/>
<text text-anchor="middle" x="577" y="-99.8" font-family="Times,serif" font-size="14.00" fill="#000000">TableSingleColumnComponent</text>
</g>
<!-- TableSingleColumnComponent&#45;&gt;Table2PerspectiveModule -->
<g id="edge27" class="edge">
<title>TableSingleColumnComponent&#45;&gt;Table2PerspectiveModule</title>
<path fill="none" stroke="#000000" d="M577,-122.2921C577,-144.2057 577,-178 577,-178 577,-178 2742.3388,-178 2742.3388,-178"/>
<polygon fill="#000000" stroke="#000000" points="2742.3388,-181.5001 2752.3388,-178 2742.3388,-174.5001 2742.3388,-181.5001"/>
</g>
<!-- Table2PerspectiveComponent  -->
<g id="node32" class="node">
<title>Table2PerspectiveComponent </title>
<polygon fill="#fb8072" stroke="#000000" points="2928.2323,-252 2739.7677,-252 2739.7677,-216 2928.2323,-216 2928.2323,-252"/>
<text text-anchor="middle" x="2834" y="-229.8" font-family="Times,serif" font-size="14.00" fill="#000000">Table2PerspectiveComponent </text>
</g>
<!-- Table2PerspectiveModule&#45;&gt;Table2PerspectiveComponent  -->
<g id="edge31" class="edge">
<title>Table2PerspectiveModule&#45;&gt;Table2PerspectiveComponent </title>
<path fill="none" stroke="#000000" stroke-dasharray="5,2" d="M2834,-187.1061C2834,-187.1061 2834,-205.991 2834,-205.991"/>
<polygon fill="#000000" stroke="#000000" points="2830.5001,-205.9909 2834,-215.991 2837.5001,-205.991 2830.5001,-205.9909"/>
</g>
<!-- PickerModule -->
<g id="node29" class="node">
<title>PickerModule</title>
<polygon fill="#8dd3c7" stroke="#000000" points="455.8133,-122 452.8133,-126 431.8133,-126 428.8133,-122 360.1867,-122 360.1867,-86 455.8133,-86 455.8133,-122"/>
<text text-anchor="middle" x="408" y="-99.8" font-family="Times,serif" font-size="14.00" fill="#000000">PickerModule</text>
</g>
<!-- PickerModule&#45;&gt;Table2PerspectiveModule -->
<g id="edge28" class="edge">
<title>PickerModule&#45;&gt;Table2PerspectiveModule</title>
<path fill="none" stroke="#000000" d="M408,-122.0109C408,-144.4852 408,-180 408,-180 408,-180 2742.2411,-180 2742.2411,-180"/>
<polygon fill="#000000" stroke="#000000" points="2742.2411,-183.5001 2752.2411,-180 2742.241,-176.5001 2742.2411,-183.5001"/>
</g>
<!-- SharedModule -->
<g id="node30" class="node">
<title>SharedModule</title>
<polygon fill="#8dd3c7" stroke="#000000" points="342.4231,-122 339.4231,-126 318.4231,-126 315.4231,-122 243.5769,-122 243.5769,-86 342.4231,-86 342.4231,-122"/>
<text text-anchor="middle" x="293" y="-99.8" font-family="Times,serif" font-size="14.00" fill="#000000">SharedModule</text>
</g>
<!-- SharedModule&#45;&gt;Table2PerspectiveModule -->
<g id="edge29" class="edge">
<title>SharedModule&#45;&gt;Table2PerspectiveModule</title>
<path fill="none" stroke="#000000" d="M293,-122.3228C293,-145.6602 293,-183 293,-183 293,-183 2742.3343,-183 2742.3343,-183"/>
<polygon fill="#000000" stroke="#000000" points="2742.3343,-186.5001 2752.3343,-183 2742.3343,-179.5001 2742.3343,-186.5001"/>
</g>
<!-- TablePerspectiveRoutingModule -->
<g id="node31" class="node">
<title>TablePerspectiveRoutingModule</title>
<polygon fill="#8dd3c7" stroke="#000000" points="225.5674,-122 222.5674,-126 201.5674,-126 198.5674,-122 24.4326,-122 24.4326,-86 225.5674,-86 225.5674,-122"/>
<text text-anchor="middle" x="125" y="-99.8" font-family="Times,serif" font-size="14.00" fill="#000000">TablePerspectiveRoutingModule</text>
</g>
<!-- TablePerspectiveRoutingModule&#45;&gt;Table2PerspectiveModule -->
<g id="edge30" class="edge">
<title>TablePerspectiveRoutingModule&#45;&gt;Table2PerspectiveModule</title>
<path fill="none" stroke="#000000" d="M125,-122.3802C125,-146.2785 125,-185 125,-185 125,-185 2742.187,-185 2742.187,-185"/>
<polygon fill="#000000" stroke="#000000" points="2742.187,-188.5001 2752.187,-185 2742.1869,-181.5001 2742.187,-188.5001"/>
</g>
</g>
</svg>
