<?xml version="1.0" encoding="UTF-8" standalone="no"?>
<!DOCTYPE svg PUBLIC "-//W3C//DTD SVG 1.1//EN"
 "http://www.w3.org/Graphics/SVG/1.1/DTD/svg11.dtd">
<!-- Generated by graphviz version 2.40.1 (20161225.0304)
 -->
<!-- Title: dependencies Pages: 1 -->
<svg width="975pt" height="211pt"
 viewBox="0.00 0.00 975.00 211.00" xmlns="http://www.w3.org/2000/svg" xmlns:xlink="http://www.w3.org/1999/xlink">
<g id="graph0" class="graph" transform="scale(1 1) rotate(0) translate(4 207)">
<title>dependencies</title>
<polygon fill="#ffffff" stroke="transparent" points="-4,4 -4,-207 971,-207 971,4 -4,4"/>
<text text-anchor="start" x="462.5091" y="-42.4" font-family="sans-serif" font-weight="bold" font-size="14.00" fill="#000000">Legend</text>
<polygon fill="#ffffb3" stroke="transparent" points="249.5,-10 249.5,-30 269.5,-30 269.5,-10 249.5,-10"/>
<text text-anchor="start" x="273.129" y="-15.4" font-family="sans-serif" font-size="14.00" fill="#000000"> &#160;Declarations</text>
<polygon fill="#8dd3c7" stroke="transparent" points="362.5,-10 362.5,-30 382.5,-30 382.5,-10 362.5,-10"/>
<text text-anchor="start" x="386.2251" y="-15.4" font-family="sans-serif" font-size="14.00" fill="#000000"> &#160;Module</text>
<polygon fill="#80b1d3" stroke="transparent" points="448.5,-10 448.5,-30 468.5,-30 468.5,-10 448.5,-10"/>
<text text-anchor="start" x="472.2812" y="-15.4" font-family="sans-serif" font-size="14.00" fill="#000000"> &#160;Bootstrap</text>
<polygon fill="#fdb462" stroke="transparent" points="545.5,-10 545.5,-30 565.5,-30 565.5,-10 545.5,-10"/>
<text text-anchor="start" x="569.1732" y="-15.4" font-family="sans-serif" font-size="14.00" fill="#000000"> &#160;Providers</text>
<polygon fill="#fb8072" stroke="transparent" points="641.5,-10 641.5,-30 661.5,-30 661.5,-10 641.5,-10"/>
<text text-anchor="start" x="665.2258" y="-15.4" font-family="sans-serif" font-size="14.00" fill="#000000"> &#160;Exports</text>
<g id="clust1" class="cluster">
<title>cluster_AuthModule</title>
<polygon fill="none" stroke="#000000" stroke-dasharray="1,5" points="8,-70 8,-195 959,-195 959,-70 8,-70"/>
</g>
<g id="clust2" class="cluster">
<title>cluster_AuthModule_declarations</title>
<polygon fill="none" stroke="#000000" points="289,-78 289,-130 951,-130 951,-78 289,-78"/>
</g>
<g id="clust7" class="cluster">
<title>cluster_AuthModule_imports</title>
<polygon fill="none" stroke="#000000" points="16,-78 16,-130 281,-130 281,-78 16,-78"/>
</g>
<!-- AgreementComponent -->
<g id="node1" class="node">
<title>AgreementComponent</title>
<polygon fill="#ffffb3" stroke="#000000" points="942.5254,-122 799.4746,-122 799.4746,-86 942.5254,-86 942.5254,-122"/>
<text text-anchor="middle" x="871" y="-99.8" font-family="Times,serif" font-size="14.00" fill="#000000">AgreementComponent</text>
</g>
<!-- AuthModule -->
<g id="node5" class="node">
<title>AuthModule</title>
<polygon fill="#8dd3c7" stroke="#000000" points="505.5482,-187 502.5482,-191 481.5482,-191 478.5482,-187 418.4518,-187 418.4518,-151 505.5482,-151 505.5482,-187"/>
<text text-anchor="middle" x="462" y="-164.8" font-family="Times,serif" font-size="14.00" fill="#000000">AuthModule</text>
</g>
<!-- AgreementComponent&#45;&gt;AuthModule -->
<g id="edge1" class="edge">
<title>AgreementComponent&#45;&gt;AuthModule</title>
<path fill="none" stroke="#000000" d="M871,-122.2843C871,-143.3211 871,-175 871,-175 871,-175 515.7702,-175 515.7702,-175"/>
<polygon fill="#000000" stroke="#000000" points="515.7702,-171.5001 505.7702,-175 515.7701,-178.5001 515.7702,-171.5001"/>
</g>
<!-- AuthCallbackComponent -->
<g id="node2" class="node">
<title>AuthCallbackComponent</title>
<polygon fill="#ffffb3" stroke="#000000" points="781.5912,-122 622.4088,-122 622.4088,-86 781.5912,-86 781.5912,-122"/>
<text text-anchor="middle" x="702" y="-99.8" font-family="Times,serif" font-size="14.00" fill="#000000">AuthCallbackComponent</text>
</g>
<!-- AuthCallbackComponent&#45;&gt;AuthModule -->
<g id="edge2" class="edge">
<title>AuthCallbackComponent&#45;&gt;AuthModule</title>
<path fill="none" stroke="#000000" d="M702,-122.0225C702,-139.3734 702,-163 702,-163 702,-163 515.7406,-163 515.7406,-163"/>
<polygon fill="#000000" stroke="#000000" points="515.7407,-159.5001 505.7406,-163 515.7406,-166.5001 515.7407,-159.5001"/>
</g>
<!-- LogoutComponent -->
<g id="node3" class="node">
<title>LogoutComponent</title>
<polygon fill="#ffffb3" stroke="#000000" points="604.7758,-122 483.2242,-122 483.2242,-86 604.7758,-86 604.7758,-122"/>
<text text-anchor="middle" x="544" y="-99.8" font-family="Times,serif" font-size="14.00" fill="#000000">LogoutComponent</text>
</g>
<!-- LogoutComponent&#45;&gt;AuthModule -->
<g id="edge3" class="edge">
<title>LogoutComponent&#45;&gt;AuthModule</title>
<path fill="none" stroke="#000000" d="M494.4429,-122.1061C494.4429,-122.1061 494.4429,-140.991 494.4429,-140.991"/>
<polygon fill="#000000" stroke="#000000" points="490.9429,-140.9909 494.4429,-150.991 497.9429,-140.991 490.9429,-140.9909"/>
</g>
<!-- SessionExpiredComponent -->
<g id="node4" class="node">
<title>SessionExpiredComponent</title>
<polygon fill="#ffffb3" stroke="#000000" points="465.4283,-122 296.5717,-122 296.5717,-86 465.4283,-86 465.4283,-122"/>
<text text-anchor="middle" x="381" y="-99.8" font-family="Times,serif" font-size="14.00" fill="#000000">SessionExpiredComponent</text>
</g>
<!-- SessionExpiredComponent&#45;&gt;AuthModule -->
<g id="edge4" class="edge">
<title>SessionExpiredComponent&#45;&gt;AuthModule</title>
<path fill="none" stroke="#000000" d="M441.7202,-122.1061C441.7202,-122.1061 441.7202,-140.991 441.7202,-140.991"/>
<polygon fill="#000000" stroke="#000000" points="438.2203,-140.9909 441.7202,-150.991 445.2203,-140.991 438.2203,-140.9909"/>
</g>
<!-- AuthRoutingModule -->
<g id="node6" class="node">
<title>AuthRoutingModule</title>
<polygon fill="#8dd3c7" stroke="#000000" points="273.1652,-122 270.1652,-126 249.1652,-126 246.1652,-122 140.8348,-122 140.8348,-86 273.1652,-86 273.1652,-122"/>
<text text-anchor="middle" x="207" y="-99.8" font-family="Times,serif" font-size="14.00" fill="#000000">AuthRoutingModule</text>
</g>
<!-- AuthRoutingModule&#45;&gt;AuthModule -->
<g id="edge5" class="edge">
<title>AuthRoutingModule&#45;&gt;AuthModule</title>
<path fill="none" stroke="#000000" d="M207,-122.0225C207,-139.3734 207,-163 207,-163 207,-163 408.1639,-163 408.1639,-163"/>
<polygon fill="#000000" stroke="#000000" points="408.164,-166.5001 418.1639,-163 408.1639,-159.5001 408.164,-166.5001"/>
</g>
<!-- SharedModule -->
<g id="node7" class="node">
<title>SharedModule</title>
<polygon fill="#8dd3c7" stroke="#000000" points="122.4231,-122 119.4231,-126 98.4231,-126 95.4231,-122 23.5769,-122 23.5769,-86 122.4231,-86 122.4231,-122"/>
<text text-anchor="middle" x="73" y="-99.8" font-family="Times,serif" font-size="14.00" fill="#000000">SharedModule</text>
</g>
<!-- SharedModule&#45;&gt;AuthModule -->
<g id="edge6" class="edge">
<title>SharedModule&#45;&gt;AuthModule</title>
<path fill="none" stroke="#000000" d="M73,-122.2843C73,-143.3211 73,-175 73,-175 73,-175 408.1329,-175 408.1329,-175"/>
<polygon fill="#000000" stroke="#000000" points="408.133,-178.5001 418.1329,-175 408.1329,-171.5001 408.133,-178.5001"/>
</g>
</g>
</svg>
