<?xml version="1.0" encoding="UTF-8" standalone="no"?>
<!DOCTYPE svg PUBLIC "-//W3C//DTD SVG 1.1//EN"
 "http://www.w3.org/Graphics/SVG/1.1/DTD/svg11.dtd">
<!-- Generated by graphviz version 2.40.1 (20161225.0304)
 -->
<!-- Title: dependencies Pages: 1 -->
<svg width="580pt" height="284pt"
 viewBox="0.00 0.00 580.00 284.00" xmlns="http://www.w3.org/2000/svg" xmlns:xlink="http://www.w3.org/1999/xlink">
<g id="graph0" class="graph" transform="scale(1 1) rotate(0) translate(4 280)">
<title>dependencies</title>
<polygon fill="#ffffff" stroke="transparent" points="-4,4 -4,-280 576,-280 576,4 -4,4"/>
<text text-anchor="start" x="265.0091" y="-42.4" font-family="sans-serif" font-weight="bold" font-size="14.00" fill="#000000">Legend</text>
<polygon fill="#ffffb3" stroke="transparent" points="52,-10 52,-30 72,-30 72,-10 52,-10"/>
<text text-anchor="start" x="75.629" y="-15.4" font-family="sans-serif" font-size="14.00" fill="#000000"> &#160;Declarations</text>
<polygon fill="#8dd3c7" stroke="transparent" points="165,-10 165,-30 185,-30 185,-10 165,-10"/>
<text text-anchor="start" x="188.7251" y="-15.4" font-family="sans-serif" font-size="14.00" fill="#000000"> &#160;Module</text>
<polygon fill="#80b1d3" stroke="transparent" points="251,-10 251,-30 271,-30 271,-10 251,-10"/>
<text text-anchor="start" x="274.7812" y="-15.4" font-family="sans-serif" font-size="14.00" fill="#000000"> &#160;Bootstrap</text>
<polygon fill="#fdb462" stroke="transparent" points="348,-10 348,-30 368,-30 368,-10 348,-10"/>
<text text-anchor="start" x="371.6732" y="-15.4" font-family="sans-serif" font-size="14.00" fill="#000000"> &#160;Providers</text>
<polygon fill="#fb8072" stroke="transparent" points="444,-10 444,-30 464,-30 464,-10 444,-10"/>
<text text-anchor="start" x="467.7258" y="-15.4" font-family="sans-serif" font-size="14.00" fill="#000000"> &#160;Exports</text>
<g id="clust1" class="cluster">
<title>cluster_DetailPerspectiveModule</title>
<polygon fill="none" stroke="#000000" stroke-dasharray="1,5" points="8,-70 8,-268 564,-268 564,-70 8,-70"/>
</g>
<g id="clust2" class="cluster">
<title>cluster_DetailPerspectiveModule_declarations</title>
<polygon fill="none" stroke="#000000" points="360,-78 360,-130 556,-130 556,-78 360,-78"/>
</g>
<g id="clust4" class="cluster">
<title>cluster_DetailPerspectiveModule_imports</title>
<polygon fill="none" stroke="#000000" points="16,-78 16,-130 352,-130 352,-78 16,-78"/>
</g>
<g id="clust5" class="cluster">
<title>cluster_DetailPerspectiveModule_exports</title>
<polygon fill="none" stroke="#000000" points="142,-208 142,-260 342,-260 342,-208 142,-208"/>
</g>
<!-- DetailPerspectiveComponent -->
<g id="node1" class="node">
<title>DetailPerspectiveComponent</title>
<polygon fill="#ffffb3" stroke="#000000" points="548.0674,-122 367.9326,-122 367.9326,-86 548.0674,-86 548.0674,-122"/>
<text text-anchor="middle" x="458" y="-99.8" font-family="Times,serif" font-size="14.00" fill="#000000">DetailPerspectiveComponent</text>
</g>
<!-- DetailPerspectiveModule -->
<g id="node2" class="node">
<title>DetailPerspectiveModule</title>
<polygon fill="#8dd3c7" stroke="#000000" points="321.2851,-187 318.2851,-191 297.2851,-191 294.2851,-187 162.7149,-187 162.7149,-151 321.2851,-151 321.2851,-187"/>
<text text-anchor="middle" x="242" y="-164.8" font-family="Times,serif" font-size="14.00" fill="#000000">DetailPerspectiveModule</text>
</g>
<!-- DetailPerspectiveComponent&#45;&gt;DetailPerspectiveModule -->
<g id="edge1" class="edge">
<title>DetailPerspectiveComponent&#45;&gt;DetailPerspectiveModule</title>
<path fill="none" stroke="#000000" d="M458,-122.1061C458,-141.3391 458,-169 458,-169 458,-169 331.2039,-169 331.2039,-169"/>
<polygon fill="#000000" stroke="#000000" points="331.204,-165.5001 321.2039,-169 331.2039,-172.5001 331.204,-165.5001"/>
</g>
<!-- DetailPerspectiveComponent  -->
<g id="node5" class="node">
<title>DetailPerspectiveComponent </title>
<polygon fill="#fb8072" stroke="#000000" points="333.5679,-252 150.4321,-252 150.4321,-216 333.5679,-216 333.5679,-252"/>
<text text-anchor="middle" x="242" y="-229.8" font-family="Times,serif" font-size="14.00" fill="#000000">DetailPerspectiveComponent </text>
</g>
<!-- DetailPerspectiveModule&#45;&gt;DetailPerspectiveComponent  -->
<g id="edge4" class="edge">
<title>DetailPerspectiveModule&#45;&gt;DetailPerspectiveComponent </title>
<path fill="none" stroke="#000000" stroke-dasharray="5,2" d="M242,-187.1061C242,-187.1061 242,-205.991 242,-205.991"/>
<polygon fill="#000000" stroke="#000000" points="238.5001,-205.9909 242,-215.991 245.5001,-205.991 238.5001,-205.9909"/>
</g>
<!-- DetailPerspectiveRoutingModule -->
<g id="node3" class="node">
<title>DetailPerspectiveRoutingModule</title>
<polygon fill="#8dd3c7" stroke="#000000" points="343.903,-122 340.903,-126 319.903,-126 316.903,-122 140.097,-122 140.097,-86 343.903,-86 343.903,-122"/>
<text text-anchor="middle" x="242" y="-99.8" font-family="Times,serif" font-size="14.00" fill="#000000">DetailPerspectiveRoutingModule</text>
</g>
<!-- DetailPerspectiveRoutingModule&#45;&gt;DetailPerspectiveModule -->
<g id="edge2" class="edge">
<title>DetailPerspectiveRoutingModule&#45;&gt;DetailPerspectiveModule</title>
<path fill="none" stroke="#000000" d="M242,-122.1061C242,-122.1061 242,-140.991 242,-140.991"/>
<polygon fill="#000000" stroke="#000000" points="238.5001,-140.9909 242,-150.991 245.5001,-140.991 238.5001,-140.9909"/>
</g>
<!-- SharedModule -->
<g id="node4" class="node">
<title>SharedModule</title>
<polygon fill="#8dd3c7" stroke="#000000" points="122.4231,-122 119.4231,-126 98.4231,-126 95.4231,-122 23.5769,-122 23.5769,-86 122.4231,-86 122.4231,-122"/>
<text text-anchor="middle" x="73" y="-99.8" font-family="Times,serif" font-size="14.00" fill="#000000">SharedModule</text>
</g>
<!-- SharedModule&#45;&gt;DetailPerspectiveModule -->
<g id="edge3" class="edge">
<title>SharedModule&#45;&gt;DetailPerspectiveModule</title>
<path fill="none" stroke="#000000" d="M73,-122.1061C73,-141.3391 73,-169 73,-169 73,-169 152.4487,-169 152.4487,-169"/>
<polygon fill="#000000" stroke="#000000" points="152.4487,-172.5001 162.4487,-169 152.4486,-165.5001 152.4487,-172.5001"/>
</g>
</g>
</svg>
