<?xml version="1.0" encoding="UTF-8" standalone="no"?>
<!DOCTYPE svg PUBLIC "-//W3C//DTD SVG 1.1//EN"
 "http://www.w3.org/Graphics/SVG/1.1/DTD/svg11.dtd">
<!-- Generated by graphviz version 2.40.1 (20161225.0304)
 -->
<!-- Title: dependencies Pages: 1 -->
<svg width="915pt" height="284pt"
 viewBox="0.00 0.00 915.00 284.00" xmlns="http://www.w3.org/2000/svg" xmlns:xlink="http://www.w3.org/1999/xlink">
<g id="graph0" class="graph" transform="scale(1 1) rotate(0) translate(4 280)">
<title>dependencies</title>
<polygon fill="#ffffff" stroke="transparent" points="-4,4 -4,-280 911,-280 911,4 -4,4"/>
<text text-anchor="start" x="432.5091" y="-42.4" font-family="sans-serif" font-weight="bold" font-size="14.00" fill="#000000">Legend</text>
<polygon fill="#ffffb3" stroke="transparent" points="219.5,-10 219.5,-30 239.5,-30 239.5,-10 219.5,-10"/>
<text text-anchor="start" x="243.129" y="-15.4" font-family="sans-serif" font-size="14.00" fill="#000000"> &#160;Declarations</text>
<polygon fill="#8dd3c7" stroke="transparent" points="332.5,-10 332.5,-30 352.5,-30 352.5,-10 332.5,-10"/>
<text text-anchor="start" x="356.2251" y="-15.4" font-family="sans-serif" font-size="14.00" fill="#000000"> &#160;Module</text>
<polygon fill="#80b1d3" stroke="transparent" points="418.5,-10 418.5,-30 438.5,-30 438.5,-10 418.5,-10"/>
<text text-anchor="start" x="442.2812" y="-15.4" font-family="sans-serif" font-size="14.00" fill="#000000"> &#160;Bootstrap</text>
<polygon fill="#fdb462" stroke="transparent" points="515.5,-10 515.5,-30 535.5,-30 535.5,-10 515.5,-10"/>
<text text-anchor="start" x="539.1732" y="-15.4" font-family="sans-serif" font-size="14.00" fill="#000000"> &#160;Providers</text>
<polygon fill="#fb8072" stroke="transparent" points="611.5,-10 611.5,-30 631.5,-30 631.5,-10 611.5,-10"/>
<text text-anchor="start" x="635.2258" y="-15.4" font-family="sans-serif" font-size="14.00" fill="#000000"> &#160;Exports</text>
<g id="clust1" class="cluster">
<title>cluster_LinksModule</title>
<polygon fill="none" stroke="#000000" stroke-dasharray="1,5" points="8,-70 8,-268 899,-268 899,-70 8,-70"/>
</g>
<g id="clust2" class="cluster">
<title>cluster_LinksModule_declarations</title>
<polygon fill="none" stroke="#000000" points="243,-78 243,-130 891,-130 891,-78 243,-78"/>
</g>
<g id="clust7" class="cluster">
<title>cluster_LinksModule_imports</title>
<polygon fill="none" stroke="#000000" points="16,-78 16,-130 235,-130 235,-78 16,-78"/>
</g>
<g id="clust8" class="cluster">
<title>cluster_LinksModule_exports</title>
<polygon fill="none" stroke="#000000" points="273,-208 273,-260 562,-260 562,-208 273,-208"/>
</g>
<!-- LinksComponent -->
<g id="node1" class="node">
<title>LinksComponent</title>
<polygon fill="#ffffb3" stroke="#000000" points="882.7204,-122 769.2796,-122 769.2796,-86 882.7204,-86 882.7204,-122"/>
<text text-anchor="middle" x="826" y="-99.8" font-family="Times,serif" font-size="14.00" fill="#000000">LinksComponent</text>
</g>
<!-- LinksModule -->
<g id="node5" class="node">
<title>LinksModule</title>
<polygon fill="#8dd3c7" stroke="#000000" points="468.9387,-187 465.9387,-191 444.9387,-191 441.9387,-187 377.0613,-187 377.0613,-151 468.9387,-151 468.9387,-187"/>
<text text-anchor="middle" x="423" y="-164.8" font-family="Times,serif" font-size="14.00" fill="#000000">LinksModule</text>
</g>
<!-- LinksComponent&#45;&gt;LinksModule -->
<g id="edge1" class="edge">
<title>LinksComponent&#45;&gt;LinksModule</title>
<path fill="none" stroke="#000000" d="M826,-122.2843C826,-143.3211 826,-175 826,-175 826,-175 478.8369,-175 478.8369,-175"/>
<polygon fill="#000000" stroke="#000000" points="478.8369,-171.5001 468.8369,-175 478.8368,-178.5001 478.8369,-171.5001"/>
</g>
<!-- LinksListComponent -->
<g id="node2" class="node">
<title>LinksListComponent</title>
<polygon fill="#ffffb3" stroke="#000000" points="751.4986,-122 616.5014,-122 616.5014,-86 751.4986,-86 751.4986,-122"/>
<text text-anchor="middle" x="684" y="-99.8" font-family="Times,serif" font-size="14.00" fill="#000000">LinksListComponent</text>
</g>
<!-- LinksListComponent&#45;&gt;LinksModule -->
<g id="edge2" class="edge">
<title>LinksListComponent&#45;&gt;LinksModule</title>
<path fill="none" stroke="#000000" d="M684,-122.0225C684,-139.3734 684,-163 684,-163 684,-163 478.7614,-163 478.7614,-163"/>
<polygon fill="#000000" stroke="#000000" points="478.7614,-159.5001 468.7614,-163 478.7614,-166.5001 478.7614,-159.5001"/>
</g>
<!-- LinksListTableComponent -->
<g id="node3" class="node">
<title>LinksListTableComponent</title>
<polygon fill="#ffffb3" stroke="#000000" points="598.371,-122 431.629,-122 431.629,-86 598.371,-86 598.371,-122"/>
<text text-anchor="middle" x="515" y="-99.8" font-family="Times,serif" font-size="14.00" fill="#000000">LinksListTableComponent</text>
</g>
<!-- LinksListTableComponent&#45;&gt;LinksModule -->
<g id="edge3" class="edge">
<title>LinksListTableComponent&#45;&gt;LinksModule</title>
<path fill="none" stroke="#000000" d="M450.1417,-122.1061C450.1417,-122.1061 450.1417,-140.991 450.1417,-140.991"/>
<polygon fill="#000000" stroke="#000000" points="446.6417,-140.9909 450.1417,-150.991 453.6417,-140.991 446.6417,-140.9909"/>
</g>
<!-- LinksListTabsComponent -->
<g id="node4" class="node">
<title>LinksListTabsComponent</title>
<polygon fill="#ffffb3" stroke="#000000" points="413.2105,-122 250.7895,-122 250.7895,-86 413.2105,-86 413.2105,-122"/>
<text text-anchor="middle" x="332" y="-99.8" font-family="Times,serif" font-size="14.00" fill="#000000">LinksListTabsComponent</text>
</g>
<!-- LinksListTabsComponent&#45;&gt;LinksModule -->
<g id="edge4" class="edge">
<title>LinksListTabsComponent&#45;&gt;LinksModule</title>
<path fill="none" stroke="#000000" d="M395.1932,-122.1061C395.1932,-122.1061 395.1932,-140.991 395.1932,-140.991"/>
<polygon fill="#000000" stroke="#000000" points="391.6933,-140.9909 395.1932,-150.991 398.6933,-140.991 391.6933,-140.9909"/>
</g>
<!-- LinksComponent  -->
<g id="node8" class="node">
<title>LinksComponent </title>
<polygon fill="#fb8072" stroke="#000000" points="554.2205,-252 437.7795,-252 437.7795,-216 554.2205,-216 554.2205,-252"/>
<text text-anchor="middle" x="496" y="-229.8" font-family="Times,serif" font-size="14.00" fill="#000000">LinksComponent </text>
</g>
<!-- LinksModule&#45;&gt;LinksComponent  -->
<g id="edge7" class="edge">
<title>LinksModule&#45;&gt;LinksComponent </title>
<path fill="none" stroke="#000000" stroke-dasharray="5,2" d="M453.1794,-187.1061C453.1794,-187.1061 453.1794,-205.991 453.1794,-205.991"/>
<polygon fill="#000000" stroke="#000000" points="449.6794,-205.9909 453.1794,-215.991 456.6794,-205.991 449.6794,-205.9909"/>
</g>
<!-- LinksListComponent  -->
<g id="node9" class="node">
<title>LinksListComponent </title>
<polygon fill="#fb8072" stroke="#000000" points="419.4995,-252 280.5005,-252 280.5005,-216 419.4995,-216 419.4995,-252"/>
<text text-anchor="middle" x="350" y="-229.8" font-family="Times,serif" font-size="14.00" fill="#000000">LinksListComponent </text>
</g>
<!-- LinksModule&#45;&gt;LinksListComponent  -->
<g id="edge8" class="edge">
<title>LinksModule&#45;&gt;LinksListComponent </title>
<path fill="none" stroke="#000000" stroke-dasharray="5,2" d="M398.2653,-187.1061C398.2653,-187.1061 398.2653,-205.991 398.2653,-205.991"/>
<polygon fill="#000000" stroke="#000000" points="394.7653,-205.9909 398.2653,-215.991 401.7653,-205.991 394.7653,-205.9909"/>
</g>
<!-- InputModule -->
<g id="node6" class="node">
<title>InputModule</title>
<polygon fill="#8dd3c7" stroke="#000000" points="226.6011,-122 223.6011,-126 202.6011,-126 199.6011,-122 137.3989,-122 137.3989,-86 226.6011,-86 226.6011,-122"/>
<text text-anchor="middle" x="182" y="-99.8" font-family="Times,serif" font-size="14.00" fill="#000000">InputModule</text>
</g>
<!-- InputModule&#45;&gt;LinksModule -->
<g id="edge5" class="edge">
<title>InputModule&#45;&gt;LinksModule</title>
<path fill="none" stroke="#000000" d="M182,-122.0225C182,-139.3734 182,-163 182,-163 182,-163 367.1025,-163 367.1025,-163"/>
<polygon fill="#000000" stroke="#000000" points="367.1025,-166.5001 377.1025,-163 367.1024,-159.5001 367.1025,-166.5001"/>
</g>
<!-- PickerModule -->
<g id="node7" class="node">
<title>PickerModule</title>
<polygon fill="#8dd3c7" stroke="#000000" points="119.8133,-122 116.8133,-126 95.8133,-126 92.8133,-122 24.1867,-122 24.1867,-86 119.8133,-86 119.8133,-122"/>
<text text-anchor="middle" x="72" y="-99.8" font-family="Times,serif" font-size="14.00" fill="#000000">PickerModule</text>
</g>
<!-- PickerModule&#45;&gt;LinksModule -->
<g id="edge6" class="edge">
<title>PickerModule&#45;&gt;LinksModule</title>
<path fill="none" stroke="#000000" d="M72,-122.2843C72,-143.3211 72,-175 72,-175 72,-175 367.1129,-175 367.1129,-175"/>
<polygon fill="#000000" stroke="#000000" points="367.1129,-178.5001 377.1129,-175 367.1128,-171.5001 367.1129,-178.5001"/>
</g>
</g>
</svg>
