<?xml version="1.0" encoding="UTF-8" standalone="no"?>
<!DOCTYPE svg PUBLIC "-//W3C//DTD SVG 1.1//EN"
 "http://www.w3.org/Graphics/SVG/1.1/DTD/svg11.dtd">
<!-- Generated by graphviz version 2.40.1 (20161225.0304)
 -->
<!-- Title: dependencies Pages: 1 -->
<svg width="1713pt" height="284pt"
 viewBox="0.00 0.00 1713.00 284.00" xmlns="http://www.w3.org/2000/svg" xmlns:xlink="http://www.w3.org/1999/xlink">
<g id="graph0" class="graph" transform="scale(1 1) rotate(0) translate(4 280)">
<title>dependencies</title>
<polygon fill="#ffffff" stroke="transparent" points="-4,4 -4,-280 1709,-280 1709,4 -4,4"/>
<text text-anchor="start" x="831.5091" y="-42.4" font-family="sans-serif" font-weight="bold" font-size="14.00" fill="#000000">Legend</text>
<polygon fill="#ffffb3" stroke="transparent" points="618.5,-10 618.5,-30 638.5,-30 638.5,-10 618.5,-10"/>
<text text-anchor="start" x="642.129" y="-15.4" font-family="sans-serif" font-size="14.00" fill="#000000"> &#160;Declarations</text>
<polygon fill="#8dd3c7" stroke="transparent" points="731.5,-10 731.5,-30 751.5,-30 751.5,-10 731.5,-10"/>
<text text-anchor="start" x="755.2251" y="-15.4" font-family="sans-serif" font-size="14.00" fill="#000000"> &#160;Module</text>
<polygon fill="#80b1d3" stroke="transparent" points="817.5,-10 817.5,-30 837.5,-30 837.5,-10 817.5,-10"/>
<text text-anchor="start" x="841.2812" y="-15.4" font-family="sans-serif" font-size="14.00" fill="#000000"> &#160;Bootstrap</text>
<polygon fill="#fdb462" stroke="transparent" points="914.5,-10 914.5,-30 934.5,-30 934.5,-10 914.5,-10"/>
<text text-anchor="start" x="938.1732" y="-15.4" font-family="sans-serif" font-size="14.00" fill="#000000"> &#160;Providers</text>
<polygon fill="#fb8072" stroke="transparent" points="1010.5,-10 1010.5,-30 1030.5,-30 1030.5,-10 1010.5,-10"/>
<text text-anchor="start" x="1034.2258" y="-15.4" font-family="sans-serif" font-size="14.00" fill="#000000"> &#160;Exports</text>
<g id="clust1" class="cluster">
<title>cluster_LinksModule</title>
<polygon fill="none" stroke="#000000" stroke-dasharray="1,5" points="8,-70 8,-268 1697,-268 1697,-70 8,-70"/>
</g>
<g id="clust2" class="cluster">
<title>cluster_LinksModule_declarations</title>
<polygon fill="none" stroke="#000000" points="409,-78 409,-130 1689,-130 1689,-78 409,-78"/>
</g>
<g id="clust10" class="cluster">
<title>cluster_LinksModule_imports</title>
<polygon fill="none" stroke="#000000" points="16,-78 16,-130 401,-130 401,-78 16,-78"/>
</g>
<g id="clust11" class="cluster">
<title>cluster_LinksModule_exports</title>
<polygon fill="none" stroke="#000000" points="653,-208 653,-260 942,-260 942,-208 653,-208"/>
</g>
<!-- LinkRowsDocumentIdsPipe -->
<g id="node1" class="node">
<title>LinkRowsDocumentIdsPipe</title>
<polygon fill="#ffffb3" stroke="#000000" points="1681.1414,-122 1506.8586,-122 1506.8586,-86 1681.1414,-86 1681.1414,-122"/>
<text text-anchor="middle" x="1594" y="-99.8" font-family="Times,serif" font-size="14.00" fill="#000000">LinkRowsDocumentIdsPipe</text>
</g>
<!-- LinksModule -->
<g id="node8" class="node">
<title>LinksModule</title>
<polygon fill="#8dd3c7" stroke="#000000" points="848.9387,-187 845.9387,-191 824.9387,-191 821.9387,-187 757.0613,-187 757.0613,-151 848.9387,-151 848.9387,-187"/>
<text text-anchor="middle" x="803" y="-164.8" font-family="Times,serif" font-size="14.00" fill="#000000">LinksModule</text>
</g>
<!-- LinkRowsDocumentIdsPipe&#45;&gt;LinksModule -->
<g id="edge1" class="edge">
<title>LinkRowsDocumentIdsPipe&#45;&gt;LinksModule</title>
<path fill="none" stroke="#000000" d="M1594,-122.0109C1594,-144.4852 1594,-180 1594,-180 1594,-180 858.9465,-180 858.9465,-180"/>
<polygon fill="#000000" stroke="#000000" points="858.9465,-176.5001 848.9465,-180 858.9465,-183.5001 858.9465,-176.5001"/>
</g>
<!-- LinksComponent -->
<g id="node2" class="node">
<title>LinksComponent</title>
<polygon fill="#ffffb3" stroke="#000000" points="1488.7204,-122 1375.2796,-122 1375.2796,-86 1488.7204,-86 1488.7204,-122"/>
<text text-anchor="middle" x="1432" y="-99.8" font-family="Times,serif" font-size="14.00" fill="#000000">LinksComponent</text>
</g>
<!-- LinksComponent&#45;&gt;LinksModule -->
<g id="edge2" class="edge">
<title>LinksComponent&#45;&gt;LinksModule</title>
<path fill="none" stroke="#000000" d="M1432,-122.1289C1432,-142.5724 1432,-173 1432,-173 1432,-173 858.7428,-173 858.7428,-173"/>
<polygon fill="#000000" stroke="#000000" points="858.7428,-169.5001 848.7428,-173 858.7428,-176.5001 858.7428,-169.5001"/>
</g>
<!-- LinksListComponent -->
<g id="node3" class="node">
<title>LinksListComponent</title>
<polygon fill="#ffffb3" stroke="#000000" points="1357.4986,-122 1222.5014,-122 1222.5014,-86 1357.4986,-86 1357.4986,-122"/>
<text text-anchor="middle" x="1290" y="-99.8" font-family="Times,serif" font-size="14.00" fill="#000000">LinksListComponent</text>
</g>
<!-- LinksListComponent&#45;&gt;LinksModule -->
<g id="edge3" class="edge">
<title>LinksListComponent&#45;&gt;LinksModule</title>
<path fill="none" stroke="#000000" d="M1290,-122.2667C1290,-140.5552 1290,-166 1290,-166 1290,-166 858.8158,-166 858.8158,-166"/>
<polygon fill="#000000" stroke="#000000" points="858.8158,-162.5001 848.8158,-166 858.8157,-169.5001 858.8158,-162.5001"/>
</g>
<!-- LinksListTableBodyComponent -->
<g id="node4" class="node">
<title>LinksListTableBodyComponent</title>
<polygon fill="#ffffb3" stroke="#000000" points="1204.7077,-122 1007.2923,-122 1007.2923,-86 1204.7077,-86 1204.7077,-122"/>
<text text-anchor="middle" x="1106" y="-99.8" font-family="Times,serif" font-size="14.00" fill="#000000">LinksListTableBodyComponent</text>
</g>
<!-- LinksListTableBodyComponent&#45;&gt;LinksModule -->
<g id="edge4" class="edge">
<title>LinksListTableBodyComponent&#45;&gt;LinksModule</title>
<path fill="none" stroke="#000000" d="M1106,-122.0091C1106,-138.0494 1106,-159 1106,-159 1106,-159 859.0192,-159 859.0192,-159"/>
<polygon fill="#000000" stroke="#000000" points="859.0192,-155.5001 849.0192,-159 859.0191,-162.5001 859.0192,-155.5001"/>
</g>
<!-- LinksListTableComponent -->
<g id="node5" class="node">
<title>LinksListTableComponent</title>
<polygon fill="#ffffb3" stroke="#000000" points="989.371,-122 822.629,-122 822.629,-86 989.371,-86 989.371,-122"/>
<text text-anchor="middle" x="906" y="-99.8" font-family="Times,serif" font-size="14.00" fill="#000000">LinksListTableComponent</text>
</g>
<!-- LinksListTableComponent&#45;&gt;LinksModule -->
<g id="edge5" class="edge">
<title>LinksListTableComponent&#45;&gt;LinksModule</title>
<path fill="none" stroke="#000000" d="M835.6417,-122.1061C835.6417,-122.1061 835.6417,-140.991 835.6417,-140.991"/>
<polygon fill="#000000" stroke="#000000" points="832.1417,-140.9909 835.6417,-150.991 839.1417,-140.991 832.1417,-140.9909"/>
</g>
<!-- LinksListTableHeaderComponent -->
<g id="node6" class="node">
<title>LinksListTableHeaderComponent</title>
<polygon fill="#ffffb3" stroke="#000000" points="804.7822,-122 597.2178,-122 597.2178,-86 804.7822,-86 804.7822,-122"/>
<text text-anchor="middle" x="701" y="-99.8" font-family="Times,serif" font-size="14.00" fill="#000000">LinksListTableHeaderComponent</text>
</g>
<!-- LinksListTableHeaderComponent&#45;&gt;LinksModule -->
<g id="edge6" class="edge">
<title>LinksListTableHeaderComponent&#45;&gt;LinksModule</title>
<path fill="none" stroke="#000000" d="M780.9611,-122.1061C780.9611,-122.1061 780.9611,-140.991 780.9611,-140.991"/>
<polygon fill="#000000" stroke="#000000" points="777.4612,-140.9909 780.9611,-150.991 784.4612,-140.991 777.4612,-140.9909"/>
</g>
<!-- LinksListTabsComponent -->
<g id="node7" class="node">
<title>LinksListTabsComponent</title>
<polygon fill="#ffffb3" stroke="#000000" points="579.2105,-122 416.7895,-122 416.7895,-86 579.2105,-86 579.2105,-122"/>
<text text-anchor="middle" x="498" y="-99.8" font-family="Times,serif" font-size="14.00" fill="#000000">LinksListTabsComponent</text>
</g>
<!-- LinksListTabsComponent&#45;&gt;LinksModule -->
<g id="edge7" class="edge">
<title>LinksListTabsComponent&#45;&gt;LinksModule</title>
<path fill="none" stroke="#000000" d="M498,-122.0091C498,-138.0494 498,-159 498,-159 498,-159 747.0082,-159 747.0082,-159"/>
<polygon fill="#000000" stroke="#000000" points="747.0082,-162.5001 757.0082,-159 747.0082,-155.5001 747.0082,-162.5001"/>
</g>
<!-- LinksComponent  -->
<g id="node12" class="node">
<title>LinksComponent </title>
<polygon fill="#fb8072" stroke="#000000" points="934.2205,-252 817.7795,-252 817.7795,-216 934.2205,-216 934.2205,-252"/>
<text text-anchor="middle" x="876" y="-229.8" font-family="Times,serif" font-size="14.00" fill="#000000">LinksComponent </text>
</g>
<!-- LinksModule&#45;&gt;LinksComponent  -->
<g id="edge11" class="edge">
<title>LinksModule&#45;&gt;LinksComponent </title>
<path fill="none" stroke="#000000" stroke-dasharray="5,2" d="M833.1794,-187.1061C833.1794,-187.1061 833.1794,-205.991 833.1794,-205.991"/>
<polygon fill="#000000" stroke="#000000" points="829.6794,-205.9909 833.1794,-215.991 836.6794,-205.991 829.6794,-205.9909"/>
</g>
<!-- LinksListComponent  -->
<g id="node13" class="node">
<title>LinksListComponent </title>
<polygon fill="#fb8072" stroke="#000000" points="799.4995,-252 660.5005,-252 660.5005,-216 799.4995,-216 799.4995,-252"/>
<text text-anchor="middle" x="730" y="-229.8" font-family="Times,serif" font-size="14.00" fill="#000000">LinksListComponent </text>
</g>
<!-- LinksModule&#45;&gt;LinksListComponent  -->
<g id="edge12" class="edge">
<title>LinksModule&#45;&gt;LinksListComponent </title>
<path fill="none" stroke="#000000" stroke-dasharray="5,2" d="M778.2652,-187.1061C778.2652,-187.1061 778.2652,-205.991 778.2652,-205.991"/>
<polygon fill="#000000" stroke="#000000" points="774.7653,-205.9909 778.2652,-215.991 781.7653,-205.991 774.7653,-205.9909"/>
</g>
<!-- DocumentHintsModule -->
<g id="node9" class="node">
<title>DocumentHintsModule</title>
<polygon fill="#8dd3c7" stroke="#000000" points="393.1993,-122 390.1993,-126 369.1993,-126 366.1993,-122 244.8007,-122 244.8007,-86 393.1993,-86 393.1993,-122"/>
<text text-anchor="middle" x="319" y="-99.8" font-family="Times,serif" font-size="14.00" fill="#000000">DocumentHintsModule</text>
</g>
<!-- DocumentHintsModule&#45;&gt;LinksModule -->
<g id="edge8" class="edge">
<title>DocumentHintsModule&#45;&gt;LinksModule</title>
<path fill="none" stroke="#000000" d="M319,-122.2667C319,-140.5552 319,-166 319,-166 319,-166 747.0301,-166 747.0301,-166"/>
<polygon fill="#000000" stroke="#000000" points="747.0301,-169.5001 757.0301,-166 747.0301,-162.5001 747.0301,-169.5001"/>
</g>
<!-- InputModule -->
<g id="node10" class="node">
<title>InputModule</title>
<polygon fill="#8dd3c7" stroke="#000000" points="226.6011,-122 223.6011,-126 202.6011,-126 199.6011,-122 137.3989,-122 137.3989,-86 226.6011,-86 226.6011,-122"/>
<text text-anchor="middle" x="182" y="-99.8" font-family="Times,serif" font-size="14.00" fill="#000000">InputModule</text>
</g>
<!-- InputModule&#45;&gt;LinksModule -->
<g id="edge9" class="edge">
<title>InputModule&#45;&gt;LinksModule</title>
<path fill="none" stroke="#000000" d="M182,-122.1289C182,-142.5724 182,-173 182,-173 182,-173 747.0842,-173 747.0842,-173"/>
<polygon fill="#000000" stroke="#000000" points="747.0842,-176.5001 757.0842,-173 747.0842,-169.5001 747.0842,-176.5001"/>
</g>
<!-- PickerModule -->
<g id="node11" class="node">
<title>PickerModule</title>
<polygon fill="#8dd3c7" stroke="#000000" points="119.8133,-122 116.8133,-126 95.8133,-126 92.8133,-122 24.1867,-122 24.1867,-86 119.8133,-86 119.8133,-122"/>
<text text-anchor="middle" x="72" y="-99.8" font-family="Times,serif" font-size="14.00" fill="#000000">PickerModule</text>
</g>
<!-- PickerModule&#45;&gt;LinksModule -->
<g id="edge10" class="edge">
<title>PickerModule&#45;&gt;LinksModule</title>
<path fill="none" stroke="#000000" d="M72,-122.0109C72,-144.4852 72,-180 72,-180 72,-180 747.2727,-180 747.2727,-180"/>
<polygon fill="#000000" stroke="#000000" points="747.2727,-183.5001 757.2727,-180 747.2726,-176.5001 747.2727,-183.5001"/>
</g>
</g>
</svg>
