<?xml version="1.0" encoding="UTF-8" standalone="no"?>
<!DOCTYPE svg PUBLIC "-//W3C//DTD SVG 1.1//EN"
 "http://www.w3.org/Graphics/SVG/1.1/DTD/svg11.dtd">
<!-- Generated by graphviz version 2.40.1 (20161225.0304)
 -->
<!-- Title: dependencies Pages: 1 -->
<svg width="969pt" height="284pt"
 viewBox="0.00 0.00 969.00 284.00" xmlns="http://www.w3.org/2000/svg" xmlns:xlink="http://www.w3.org/1999/xlink">
<g id="graph0" class="graph" transform="scale(1 1) rotate(0) translate(4 280)">
<title>dependencies</title>
<polygon fill="#ffffff" stroke="transparent" points="-4,4 -4,-280 965,-280 965,4 -4,4"/>
<text text-anchor="start" x="459.5091" y="-42.4" font-family="sans-serif" font-weight="bold" font-size="14.00" fill="#000000">Legend</text>
<polygon fill="#ffffb3" stroke="transparent" points="246.5,-10 246.5,-30 266.5,-30 266.5,-10 246.5,-10"/>
<text text-anchor="start" x="270.129" y="-15.4" font-family="sans-serif" font-size="14.00" fill="#000000"> &#160;Declarations</text>
<polygon fill="#8dd3c7" stroke="transparent" points="359.5,-10 359.5,-30 379.5,-30 379.5,-10 359.5,-10"/>
<text text-anchor="start" x="383.2251" y="-15.4" font-family="sans-serif" font-size="14.00" fill="#000000"> &#160;Module</text>
<polygon fill="#80b1d3" stroke="transparent" points="445.5,-10 445.5,-30 465.5,-30 465.5,-10 445.5,-10"/>
<text text-anchor="start" x="469.2812" y="-15.4" font-family="sans-serif" font-size="14.00" fill="#000000"> &#160;Bootstrap</text>
<polygon fill="#fdb462" stroke="transparent" points="542.5,-10 542.5,-30 562.5,-30 562.5,-10 542.5,-10"/>
<text text-anchor="start" x="566.1732" y="-15.4" font-family="sans-serif" font-size="14.00" fill="#000000"> &#160;Providers</text>
<polygon fill="#fb8072" stroke="transparent" points="638.5,-10 638.5,-30 658.5,-30 658.5,-10 638.5,-10"/>
<text text-anchor="start" x="662.2258" y="-15.4" font-family="sans-serif" font-size="14.00" fill="#000000"> &#160;Exports</text>
<g id="clust1" class="cluster">
<title>cluster_SearchDocumentsModule</title>
<polygon fill="none" stroke="#000000" stroke-dasharray="1,5" points="8,-70 8,-268 953,-268 953,-70 8,-70"/>
</g>
<g id="clust2" class="cluster">
<title>cluster_SearchDocumentsModule_declarations</title>
<polygon fill="none" stroke="#000000" points="138,-78 138,-130 945,-130 945,-78 138,-78"/>
</g>
<g id="clust7" class="cluster">
<title>cluster_SearchDocumentsModule_imports</title>
<polygon fill="none" stroke="#000000" points="16,-78 16,-130 130,-130 130,-78 16,-78"/>
</g>
<g id="clust8" class="cluster">
<title>cluster_SearchDocumentsModule_exports</title>
<polygon fill="none" stroke="#000000" points="356,-208 356,-260 558,-260 558,-208 356,-208"/>
</g>
<!-- EmptyDocumentsComponent -->
<g id="node1" class="node">
<title>EmptyDocumentsComponent</title>
<polygon fill="#ffffb3" stroke="#000000" points="937.4283,-122 754.5717,-122 754.5717,-86 937.4283,-86 937.4283,-122"/>
<text text-anchor="middle" x="846" y="-99.8" font-family="Times,serif" font-size="14.00" fill="#000000">EmptyDocumentsComponent</text>
</g>
<!-- SearchDocumentsModule -->
<g id="node5" class="node">
<title>SearchDocumentsModule</title>
<polygon fill="#8dd3c7" stroke="#000000" points="537.8989,-187 534.8989,-191 513.8989,-191 510.8989,-187 376.1011,-187 376.1011,-151 537.8989,-151 537.8989,-187"/>
<text text-anchor="middle" x="457" y="-164.8" font-family="Times,serif" font-size="14.00" fill="#000000">SearchDocumentsModule</text>
</g>
<!-- EmptyDocumentsComponent&#45;&gt;SearchDocumentsModule -->
<g id="edge1" class="edge">
<title>EmptyDocumentsComponent&#45;&gt;SearchDocumentsModule</title>
<path fill="none" stroke="#000000" d="M846,-122.2843C846,-143.3211 846,-175 846,-175 846,-175 548.0736,-175 548.0736,-175"/>
<polygon fill="#000000" stroke="#000000" points="548.0737,-171.5001 538.0736,-175 548.0736,-178.5001 548.0737,-171.5001"/>
</g>
<!-- IsDocumentOpenedPipe -->
<g id="node2" class="node">
<title>IsDocumentOpenedPipe</title>
<polygon fill="#ffffb3" stroke="#000000" points="736.3459,-122 583.6541,-122 583.6541,-86 736.3459,-86 736.3459,-122"/>
<text text-anchor="middle" x="660" y="-99.8" font-family="Times,serif" font-size="14.00" fill="#000000">IsDocumentOpenedPipe</text>
</g>
<!-- IsDocumentOpenedPipe&#45;&gt;SearchDocumentsModule -->
<g id="edge2" class="edge">
<title>IsDocumentOpenedPipe&#45;&gt;SearchDocumentsModule</title>
<path fill="none" stroke="#000000" d="M660,-122.0225C660,-139.3734 660,-163 660,-163 660,-163 547.8143,-163 547.8143,-163"/>
<polygon fill="#000000" stroke="#000000" points="547.8143,-159.5001 537.8143,-163 547.8142,-166.5001 547.8143,-159.5001"/>
</g>
<!-- SearchDocumentHeaderComponent -->
<g id="node3" class="node">
<title>SearchDocumentHeaderComponent</title>
<polygon fill="#ffffb3" stroke="#000000" points="566.1474,-122 347.8526,-122 347.8526,-86 566.1474,-86 566.1474,-122"/>
<text text-anchor="middle" x="457" y="-99.8" font-family="Times,serif" font-size="14.00" fill="#000000">SearchDocumentHeaderComponent</text>
</g>
<!-- SearchDocumentHeaderComponent&#45;&gt;SearchDocumentsModule -->
<g id="edge3" class="edge">
<title>SearchDocumentHeaderComponent&#45;&gt;SearchDocumentsModule</title>
<path fill="none" stroke="#000000" d="M457,-122.1061C457,-122.1061 457,-140.991 457,-140.991"/>
<polygon fill="#000000" stroke="#000000" points="453.5001,-140.9909 457,-150.991 460.5001,-140.991 453.5001,-140.9909"/>
</g>
<!-- SearchDocumentsComponent -->
<g id="node4" class="node">
<title>SearchDocumentsComponent</title>
<polygon fill="#ffffb3" stroke="#000000" points="329.6811,-122 146.3189,-122 146.3189,-86 329.6811,-86 329.6811,-122"/>
<text text-anchor="middle" x="238" y="-99.8" font-family="Times,serif" font-size="14.00" fill="#000000">SearchDocumentsComponent</text>
</g>
<!-- SearchDocumentsComponent&#45;&gt;SearchDocumentsModule -->
<g id="edge4" class="edge">
<title>SearchDocumentsComponent&#45;&gt;SearchDocumentsModule</title>
<path fill="none" stroke="#000000" d="M238,-122.0225C238,-139.3734 238,-163 238,-163 238,-163 366.0747,-163 366.0747,-163"/>
<polygon fill="#000000" stroke="#000000" points="366.0747,-166.5001 376.0747,-163 366.0747,-159.5001 366.0747,-166.5001"/>
</g>
<!-- SearchDocumentsComponent  -->
<g id="node7" class="node">
<title>SearchDocumentsComponent </title>
<polygon fill="#fb8072" stroke="#000000" points="550.1813,-252 363.8187,-252 363.8187,-216 550.1813,-216 550.1813,-252"/>
<text text-anchor="middle" x="457" y="-229.8" font-family="Times,serif" font-size="14.00" fill="#000000">SearchDocumentsComponent </text>
</g>
<!-- SearchDocumentsModule&#45;&gt;SearchDocumentsComponent  -->
<g id="edge6" class="edge">
<title>SearchDocumentsModule&#45;&gt;SearchDocumentsComponent </title>
<path fill="none" stroke="#000000" stroke-dasharray="5,2" d="M457,-187.1061C457,-187.1061 457,-205.991 457,-205.991"/>
<polygon fill="#000000" stroke="#000000" points="453.5001,-205.9909 457,-215.991 460.5001,-205.991 453.5001,-205.9909"/>
</g>
<!-- SharedModule -->
<g id="node6" class="node">
<title>SharedModule</title>
<polygon fill="#8dd3c7" stroke="#000000" points="122.4231,-122 119.4231,-126 98.4231,-126 95.4231,-122 23.5769,-122 23.5769,-86 122.4231,-86 122.4231,-122"/>
<text text-anchor="middle" x="73" y="-99.8" font-family="Times,serif" font-size="14.00" fill="#000000">SharedModule</text>
</g>
<!-- SharedModule&#45;&gt;SearchDocumentsModule -->
<g id="edge5" class="edge">
<title>SharedModule&#45;&gt;SearchDocumentsModule</title>
<path fill="none" stroke="#000000" d="M73,-122.2843C73,-143.3211 73,-175 73,-175 73,-175 366.0327,-175 366.0327,-175"/>
<polygon fill="#000000" stroke="#000000" points="366.0327,-178.5001 376.0327,-175 366.0327,-171.5001 366.0327,-178.5001"/>
</g>
</g>
</svg>
