<?xml version="1.0" encoding="UTF-8" standalone="no"?>
<!DOCTYPE svg PUBLIC "-//W3C//DTD SVG 1.1//EN"
 "http://www.w3.org/Graphics/SVG/1.1/DTD/svg11.dtd">
<!-- Generated by graphviz version 2.40.1 (20161225.0304)
 -->
<!-- Title: dependencies Pages: 1 -->
<svg width="1062pt" height="284pt"
 viewBox="0.00 0.00 1062.00 284.00" xmlns="http://www.w3.org/2000/svg" xmlns:xlink="http://www.w3.org/1999/xlink">
<g id="graph0" class="graph" transform="scale(1 1) rotate(0) translate(4 280)">
<title>dependencies</title>
<polygon fill="#ffffff" stroke="transparent" points="-4,4 -4,-280 1058,-280 1058,4 -4,4"/>
<text text-anchor="start" x="506.0091" y="-42.4" font-family="sans-serif" font-weight="bold" font-size="14.00" fill="#000000">Legend</text>
<polygon fill="#ffffb3" stroke="transparent" points="293,-10 293,-30 313,-30 313,-10 293,-10"/>
<text text-anchor="start" x="316.629" y="-15.4" font-family="sans-serif" font-size="14.00" fill="#000000"> &#160;Declarations</text>
<polygon fill="#8dd3c7" stroke="transparent" points="406,-10 406,-30 426,-30 426,-10 406,-10"/>
<text text-anchor="start" x="429.7251" y="-15.4" font-family="sans-serif" font-size="14.00" fill="#000000"> &#160;Module</text>
<polygon fill="#80b1d3" stroke="transparent" points="492,-10 492,-30 512,-30 512,-10 492,-10"/>
<text text-anchor="start" x="515.7812" y="-15.4" font-family="sans-serif" font-size="14.00" fill="#000000"> &#160;Bootstrap</text>
<polygon fill="#fdb462" stroke="transparent" points="589,-10 589,-30 609,-30 609,-10 589,-10"/>
<text text-anchor="start" x="612.6732" y="-15.4" font-family="sans-serif" font-size="14.00" fill="#000000"> &#160;Providers</text>
<polygon fill="#fb8072" stroke="transparent" points="685,-10 685,-30 705,-30 705,-10 685,-10"/>
<text text-anchor="start" x="708.7258" y="-15.4" font-family="sans-serif" font-size="14.00" fill="#000000"> &#160;Exports</text>
<g id="clust1" class="cluster">
<title>cluster_ChartPerspectiveModule</title>
<polygon fill="none" stroke="#000000" stroke-dasharray="1,5" points="8,-70 8,-268 1046,-268 1046,-70 8,-70"/>
</g>
<g id="clust2" class="cluster">
<title>cluster_ChartPerspectiveModule_declarations</title>
<polygon fill="none" stroke="#000000" points="470,-78 470,-130 1038,-130 1038,-78 470,-78"/>
</g>
<g id="clust6" class="cluster">
<title>cluster_ChartPerspectiveModule_imports</title>
<polygon fill="none" stroke="#000000" points="16,-78 16,-130 462,-130 462,-78 16,-78"/>
</g>
<g id="clust7" class="cluster">
<title>cluster_ChartPerspectiveModule_exports</title>
<polygon fill="none" stroke="#000000" points="365,-208 365,-260 561,-260 561,-208 365,-208"/>
</g>
<!-- ChartConfigComponent -->
<g id="node1" class="node">
<title>ChartConfigComponent</title>
<polygon fill="#ffffb3" stroke="#000000" points="1029.8229,-122 878.1771,-122 878.1771,-86 1029.8229,-86 1029.8229,-122"/>
<text text-anchor="middle" x="954" y="-99.8" font-family="Times,serif" font-size="14.00" fill="#000000">ChartConfigComponent</text>
</g>
<!-- ChartPerspectiveModule -->
<g id="node4" class="node">
<title>ChartPerspectiveModule</title>
<polygon fill="#8dd3c7" stroke="#000000" points="540.6797,-187 537.6797,-191 516.6797,-191 513.6797,-187 385.3203,-187 385.3203,-151 540.6797,-151 540.6797,-187"/>
<text text-anchor="middle" x="463" y="-164.8" font-family="Times,serif" font-size="14.00" fill="#000000">ChartPerspectiveModule</text>
</g>
<!-- ChartConfigComponent&#45;&gt;ChartPerspectiveModule -->
<g id="edge1" class="edge">
<title>ChartConfigComponent&#45;&gt;ChartPerspectiveModule</title>
<path fill="none" stroke="#000000" d="M954,-122.2843C954,-143.3211 954,-175 954,-175 954,-175 550.8004,-175 550.8004,-175"/>
<polygon fill="#000000" stroke="#000000" points="550.8004,-171.5001 540.8004,-175 550.8004,-178.5001 550.8004,-171.5001"/>
</g>
<!-- ChartPerspectiveComponent -->
<g id="node2" class="node">
<title>ChartPerspectiveComponent</title>
<polygon fill="#ffffb3" stroke="#000000" points="860.4622,-122 683.5378,-122 683.5378,-86 860.4622,-86 860.4622,-122"/>
<text text-anchor="middle" x="772" y="-99.8" font-family="Times,serif" font-size="14.00" fill="#000000">ChartPerspectiveComponent</text>
</g>
<!-- ChartPerspectiveComponent&#45;&gt;ChartPerspectiveModule -->
<g id="edge2" class="edge">
<title>ChartPerspectiveComponent&#45;&gt;ChartPerspectiveModule</title>
<path fill="none" stroke="#000000" d="M772,-122.0225C772,-139.3734 772,-163 772,-163 772,-163 550.9737,-163 550.9737,-163"/>
<polygon fill="#000000" stroke="#000000" points="550.9738,-159.5001 540.9737,-163 550.9737,-166.5001 550.9738,-159.5001"/>
</g>
<!-- ChartVisualizationComponent -->
<g id="node3" class="node">
<title>ChartVisualizationComponent</title>
<polygon fill="#ffffb3" stroke="#000000" points="665.5828,-122 478.4172,-122 478.4172,-86 665.5828,-86 665.5828,-122"/>
<text text-anchor="middle" x="572" y="-99.8" font-family="Times,serif" font-size="14.00" fill="#000000">ChartVisualizationComponent</text>
</g>
<!-- ChartVisualizationComponent&#45;&gt;ChartPerspectiveModule -->
<g id="edge3" class="edge">
<title>ChartVisualizationComponent&#45;&gt;ChartPerspectiveModule</title>
<path fill="none" stroke="#000000" d="M509.5242,-122.1061C509.5242,-122.1061 509.5242,-140.991 509.5242,-140.991"/>
<polygon fill="#000000" stroke="#000000" points="506.0243,-140.9909 509.5242,-150.991 513.0243,-140.991 506.0243,-140.9909"/>
</g>
<!-- ChartPerspectiveComponent  -->
<g id="node8" class="node">
<title>ChartPerspectiveComponent </title>
<polygon fill="#fb8072" stroke="#000000" points="553.4628,-252 372.5372,-252 372.5372,-216 553.4628,-216 553.4628,-252"/>
<text text-anchor="middle" x="463" y="-229.8" font-family="Times,serif" font-size="14.00" fill="#000000">ChartPerspectiveComponent </text>
</g>
<!-- ChartPerspectiveModule&#45;&gt;ChartPerspectiveComponent  -->
<g id="edge7" class="edge">
<title>ChartPerspectiveModule&#45;&gt;ChartPerspectiveComponent </title>
<path fill="none" stroke="#000000" stroke-dasharray="5,2" d="M463,-187.1061C463,-187.1061 463,-205.991 463,-205.991"/>
<polygon fill="#000000" stroke="#000000" points="459.5001,-205.9909 463,-215.991 466.5001,-205.991 459.5001,-205.9909"/>
</g>
<!-- ChartPerspectiveRoutingModule -->
<g id="node5" class="node">
<title>ChartPerspectiveRoutingModule</title>
<polygon fill="#8dd3c7" stroke="#000000" points="454.2976,-122 451.2976,-126 430.2976,-126 427.2976,-122 253.7024,-122 253.7024,-86 454.2976,-86 454.2976,-122"/>
<text text-anchor="middle" x="354" y="-99.8" font-family="Times,serif" font-size="14.00" fill="#000000">ChartPerspectiveRoutingModule</text>
</g>
<!-- ChartPerspectiveRoutingModule&#45;&gt;ChartPerspectiveModule -->
<g id="edge4" class="edge">
<title>ChartPerspectiveRoutingModule&#45;&gt;ChartPerspectiveModule</title>
<path fill="none" stroke="#000000" d="M419.7795,-122.1061C419.7795,-122.1061 419.7795,-140.991 419.7795,-140.991"/>
<polygon fill="#000000" stroke="#000000" points="416.2795,-140.9909 419.7795,-150.991 423.2795,-140.991 416.2795,-140.9909"/>
</g>
<!-- PickerModule -->
<g id="node6" class="node">
<title>PickerModule</title>
<polygon fill="#8dd3c7" stroke="#000000" points="235.8133,-122 232.8133,-126 211.8133,-126 208.8133,-122 140.1867,-122 140.1867,-86 235.8133,-86 235.8133,-122"/>
<text text-anchor="middle" x="188" y="-99.8" font-family="Times,serif" font-size="14.00" fill="#000000">PickerModule</text>
</g>
<!-- PickerModule&#45;&gt;ChartPerspectiveModule -->
<g id="edge5" class="edge">
<title>PickerModule&#45;&gt;ChartPerspectiveModule</title>
<path fill="none" stroke="#000000" d="M188,-122.0225C188,-139.3734 188,-163 188,-163 188,-163 375.2987,-163 375.2987,-163"/>
<polygon fill="#000000" stroke="#000000" points="375.2988,-166.5001 385.2987,-163 375.2987,-159.5001 375.2988,-166.5001"/>
</g>
<!-- SharedModule -->
<g id="node7" class="node">
<title>SharedModule</title>
<polygon fill="#8dd3c7" stroke="#000000" points="122.4231,-122 119.4231,-126 98.4231,-126 95.4231,-122 23.5769,-122 23.5769,-86 122.4231,-86 122.4231,-122"/>
<text text-anchor="middle" x="73" y="-99.8" font-family="Times,serif" font-size="14.00" fill="#000000">SharedModule</text>
</g>
<!-- SharedModule&#45;&gt;ChartPerspectiveModule -->
<g id="edge6" class="edge">
<title>SharedModule&#45;&gt;ChartPerspectiveModule</title>
<path fill="none" stroke="#000000" d="M73,-122.2843C73,-143.3211 73,-175 73,-175 73,-175 375.015,-175 375.015,-175"/>
<polygon fill="#000000" stroke="#000000" points="375.0151,-178.5001 385.015,-175 375.015,-171.5001 375.0151,-178.5001"/>
</g>
</g>
</svg>
