<?xml version="1.0" encoding="UTF-8" standalone="no"?>
<!DOCTYPE svg PUBLIC "-//W3C//DTD SVG 1.1//EN"
 "http://www.w3.org/Graphics/SVG/1.1/DTD/svg11.dtd">
<!-- Generated by graphviz version 2.40.1 (20161225.0304)
 -->
<!-- Title: dependencies Pages: 1 -->
<svg width="963pt" height="284pt"
 viewBox="0.00 0.00 963.00 284.00" xmlns="http://www.w3.org/2000/svg" xmlns:xlink="http://www.w3.org/1999/xlink">
<g id="graph0" class="graph" transform="scale(1 1) rotate(0) translate(4 280)">
<title>dependencies</title>
<polygon fill="#ffffff" stroke="transparent" points="-4,4 -4,-280 959,-280 959,4 -4,4"/>
<text text-anchor="start" x="456.5091" y="-42.4" font-family="sans-serif" font-weight="bold" font-size="14.00" fill="#000000">Legend</text>
<polygon fill="#ffffb3" stroke="transparent" points="243.5,-10 243.5,-30 263.5,-30 263.5,-10 243.5,-10"/>
<text text-anchor="start" x="267.129" y="-15.4" font-family="sans-serif" font-size="14.00" fill="#000000"> &#160;Declarations</text>
<polygon fill="#8dd3c7" stroke="transparent" points="356.5,-10 356.5,-30 376.5,-30 376.5,-10 356.5,-10"/>
<text text-anchor="start" x="380.2251" y="-15.4" font-family="sans-serif" font-size="14.00" fill="#000000"> &#160;Module</text>
<polygon fill="#80b1d3" stroke="transparent" points="442.5,-10 442.5,-30 462.5,-30 462.5,-10 442.5,-10"/>
<text text-anchor="start" x="466.2812" y="-15.4" font-family="sans-serif" font-size="14.00" fill="#000000"> &#160;Bootstrap</text>
<polygon fill="#fdb462" stroke="transparent" points="539.5,-10 539.5,-30 559.5,-30 559.5,-10 539.5,-10"/>
<text text-anchor="start" x="563.1732" y="-15.4" font-family="sans-serif" font-size="14.00" fill="#000000"> &#160;Providers</text>
<polygon fill="#fb8072" stroke="transparent" points="635.5,-10 635.5,-30 655.5,-30 655.5,-10 635.5,-10"/>
<text text-anchor="start" x="659.2258" y="-15.4" font-family="sans-serif" font-size="14.00" fill="#000000"> &#160;Exports</text>
<g id="clust1" class="cluster">
<title>cluster_ChartPerspectiveModule</title>
<polygon fill="none" stroke="#000000" stroke-dasharray="1,5" points="8,-70 8,-268 947,-268 947,-70 8,-70"/>
</g>
<g id="clust2" class="cluster">
<title>cluster_ChartPerspectiveModule_declarations</title>
<polygon fill="none" stroke="#000000" points="356,-78 356,-130 939,-130 939,-78 356,-78"/>
</g>
<g id="clust6" class="cluster">
<title>cluster_ChartPerspectiveModule_imports</title>
<polygon fill="none" stroke="#000000" points="16,-78 16,-130 348,-130 348,-78 16,-78"/>
</g>
<g id="clust7" class="cluster">
<title>cluster_ChartPerspectiveModule_exports</title>
<polygon fill="none" stroke="#000000" points="360,-208 360,-260 556,-260 556,-208 360,-208"/>
</g>
<!-- AttributeSelectComponent -->
<g id="node1" class="node">
<title>AttributeSelectComponent</title>
<polygon fill="#ffffb3" stroke="#000000" points="931.0842,-122 764.9158,-122 764.9158,-86 931.0842,-86 931.0842,-122"/>
<text text-anchor="middle" x="848" y="-99.8" font-family="Times,serif" font-size="14.00" fill="#000000">AttributeSelectComponent</text>
</g>
<!-- ChartPerspectiveModule -->
<g id="node4" class="node">
<title>ChartPerspectiveModule</title>
<polygon fill="#8dd3c7" stroke="#000000" points="535.6797,-187 532.6797,-191 511.6797,-191 508.6797,-187 380.3203,-187 380.3203,-151 535.6797,-151 535.6797,-187"/>
<text text-anchor="middle" x="458" y="-164.8" font-family="Times,serif" font-size="14.00" fill="#000000">ChartPerspectiveModule</text>
</g>
<!-- AttributeSelectComponent&#45;&gt;ChartPerspectiveModule -->
<g id="edge1" class="edge">
<title>AttributeSelectComponent&#45;&gt;ChartPerspectiveModule</title>
<path fill="none" stroke="#000000" d="M848,-122.2843C848,-143.3211 848,-175 848,-175 848,-175 545.985,-175 545.985,-175"/>
<polygon fill="#000000" stroke="#000000" points="545.985,-171.5001 535.985,-175 545.9849,-178.5001 545.985,-171.5001"/>
</g>
<!-- ChartPerspectiveComponent -->
<g id="node2" class="node">
<title>ChartPerspectiveComponent</title>
<polygon fill="#ffffb3" stroke="#000000" points="746.4622,-122 569.5378,-122 569.5378,-86 746.4622,-86 746.4622,-122"/>
<text text-anchor="middle" x="658" y="-99.8" font-family="Times,serif" font-size="14.00" fill="#000000">ChartPerspectiveComponent</text>
</g>
<!-- ChartPerspectiveComponent&#45;&gt;ChartPerspectiveModule -->
<g id="edge2" class="edge">
<title>ChartPerspectiveComponent&#45;&gt;ChartPerspectiveModule</title>
<path fill="none" stroke="#000000" d="M658,-122.0225C658,-139.3734 658,-163 658,-163 658,-163 545.6115,-163 545.6115,-163"/>
<polygon fill="#000000" stroke="#000000" points="545.6115,-159.5001 535.6115,-163 545.6114,-166.5001 545.6115,-159.5001"/>
</g>
<!-- ChartVisualizationComponent -->
<g id="node3" class="node">
<title>ChartVisualizationComponent</title>
<polygon fill="#ffffb3" stroke="#000000" points="551.5828,-122 364.4172,-122 364.4172,-86 551.5828,-86 551.5828,-122"/>
<text text-anchor="middle" x="458" y="-99.8" font-family="Times,serif" font-size="14.00" fill="#000000">ChartVisualizationComponent</text>
</g>
<!-- ChartVisualizationComponent&#45;&gt;ChartPerspectiveModule -->
<g id="edge3" class="edge">
<title>ChartVisualizationComponent&#45;&gt;ChartPerspectiveModule</title>
<path fill="none" stroke="#000000" d="M458,-122.1061C458,-122.1061 458,-140.991 458,-140.991"/>
<polygon fill="#000000" stroke="#000000" points="454.5001,-140.9909 458,-150.991 461.5001,-140.991 454.5001,-140.9909"/>
</g>
<!-- ChartPerspectiveComponent  -->
<g id="node7" class="node">
<title>ChartPerspectiveComponent </title>
<polygon fill="#fb8072" stroke="#000000" points="548.4628,-252 367.5372,-252 367.5372,-216 548.4628,-216 548.4628,-252"/>
<text text-anchor="middle" x="458" y="-229.8" font-family="Times,serif" font-size="14.00" fill="#000000">ChartPerspectiveComponent </text>
</g>
<!-- ChartPerspectiveModule&#45;&gt;ChartPerspectiveComponent  -->
<g id="edge6" class="edge">
<title>ChartPerspectiveModule&#45;&gt;ChartPerspectiveComponent </title>
<path fill="none" stroke="#000000" stroke-dasharray="5,2" d="M458,-187.1061C458,-187.1061 458,-205.991 458,-205.991"/>
<polygon fill="#000000" stroke="#000000" points="454.5001,-205.9909 458,-215.991 461.5001,-205.991 454.5001,-205.9909"/>
</g>
<!-- ChartPerspectiveRoutingModule -->
<g id="node5" class="node">
<title>ChartPerspectiveRoutingModule</title>
<polygon fill="#8dd3c7" stroke="#000000" points="340.2976,-122 337.2976,-126 316.2976,-126 313.2976,-122 139.7024,-122 139.7024,-86 340.2976,-86 340.2976,-122"/>
<text text-anchor="middle" x="240" y="-99.8" font-family="Times,serif" font-size="14.00" fill="#000000">ChartPerspectiveRoutingModule</text>
</g>
<!-- ChartPerspectiveRoutingModule&#45;&gt;ChartPerspectiveModule -->
<g id="edge4" class="edge">
<title>ChartPerspectiveRoutingModule&#45;&gt;ChartPerspectiveModule</title>
<path fill="none" stroke="#000000" d="M240,-122.0225C240,-139.3734 240,-163 240,-163 240,-163 370.2203,-163 370.2203,-163"/>
<polygon fill="#000000" stroke="#000000" points="370.2203,-166.5001 380.2203,-163 370.2202,-159.5001 370.2203,-166.5001"/>
</g>
<!-- SharedModule -->
<g id="node6" class="node">
<title>SharedModule</title>
<polygon fill="#8dd3c7" stroke="#000000" points="122.4231,-122 119.4231,-126 98.4231,-126 95.4231,-122 23.5769,-122 23.5769,-86 122.4231,-86 122.4231,-122"/>
<text text-anchor="middle" x="73" y="-99.8" font-family="Times,serif" font-size="14.00" fill="#000000">SharedModule</text>
</g>
<!-- SharedModule&#45;&gt;ChartPerspectiveModule -->
<g id="edge5" class="edge">
<title>SharedModule&#45;&gt;ChartPerspectiveModule</title>
<path fill="none" stroke="#000000" d="M73,-122.2843C73,-143.3211 73,-175 73,-175 73,-175 370.0895,-175 370.0895,-175"/>
<polygon fill="#000000" stroke="#000000" points="370.0895,-178.5001 380.0895,-175 370.0895,-171.5001 370.0895,-178.5001"/>
</g>
</g>
</svg>
