<?xml version="1.0" encoding="UTF-8" standalone="no"?>
<!DOCTYPE svg PUBLIC "-//W3C//DTD SVG 1.1//EN"
 "http://www.w3.org/Graphics/SVG/1.1/DTD/svg11.dtd">
<!-- Generated by graphviz version 2.40.1 (20161225.0304)
 -->
<!-- Title: dependencies Pages: 1 -->
<svg width="504pt" height="284pt"
 viewBox="0.00 0.00 504.00 284.00" xmlns="http://www.w3.org/2000/svg" xmlns:xlink="http://www.w3.org/1999/xlink">
<g id="graph0" class="graph" transform="scale(1 1) rotate(0) translate(4 280)">
<title>dependencies</title>
<polygon fill="#ffffff" stroke="transparent" points="-4,4 -4,-280 500,-280 500,4 -4,4"/>
<text text-anchor="start" x="227.0091" y="-42.4" font-family="sans-serif" font-weight="bold" font-size="14.00" fill="#000000">Legend</text>
<polygon fill="#ffffb3" stroke="transparent" points="14,-10 14,-30 34,-30 34,-10 14,-10"/>
<text text-anchor="start" x="37.629" y="-15.4" font-family="sans-serif" font-size="14.00" fill="#000000"> &#160;Declarations</text>
<polygon fill="#8dd3c7" stroke="transparent" points="127,-10 127,-30 147,-30 147,-10 127,-10"/>
<text text-anchor="start" x="150.7251" y="-15.4" font-family="sans-serif" font-size="14.00" fill="#000000"> &#160;Module</text>
<polygon fill="#80b1d3" stroke="transparent" points="213,-10 213,-30 233,-30 233,-10 213,-10"/>
<text text-anchor="start" x="236.7812" y="-15.4" font-family="sans-serif" font-size="14.00" fill="#000000"> &#160;Bootstrap</text>
<polygon fill="#fdb462" stroke="transparent" points="310,-10 310,-30 330,-30 330,-10 310,-10"/>
<text text-anchor="start" x="333.6732" y="-15.4" font-family="sans-serif" font-size="14.00" fill="#000000"> &#160;Providers</text>
<polygon fill="#fb8072" stroke="transparent" points="406,-10 406,-30 426,-30 426,-10 406,-10"/>
<text text-anchor="start" x="429.7258" y="-15.4" font-family="sans-serif" font-size="14.00" fill="#000000"> &#160;Exports</text>
<g id="clust1" class="cluster">
<title>cluster_CollapsibleSidebarModule</title>
<polygon fill="none" stroke="#000000" stroke-dasharray="1,5" points="15,-70 15,-268 481,-268 481,-70 15,-70"/>
</g>
<g id="clust2" class="cluster">
<title>cluster_CollapsibleSidebarModule_declarations</title>
<polygon fill="none" stroke="#000000" points="23,-78 23,-130 473,-130 473,-78 23,-78"/>
</g>
<g id="clust6" class="cluster">
<title>cluster_CollapsibleSidebarModule_exports</title>
<polygon fill="none" stroke="#000000" points="153,-208 153,-260 361,-260 361,-208 153,-208"/>
</g>
<!-- CollapsibleSidebarComponent -->
<g id="node1" class="node">
<title>CollapsibleSidebarComponent</title>
<polygon fill="#ffffb3" stroke="#000000" points="464.8682,-122 277.1318,-122 277.1318,-86 464.8682,-86 464.8682,-122"/>
<text text-anchor="middle" x="371" y="-99.8" font-family="Times,serif" font-size="14.00" fill="#000000">CollapsibleSidebarComponent</text>
</g>
<!-- CollapsibleSidebarModule -->
<g id="node3" class="node">
<title>CollapsibleSidebarModule</title>
<polygon fill="#8dd3c7" stroke="#000000" points="340.0856,-187 337.0856,-191 316.0856,-191 313.0856,-187 173.9144,-187 173.9144,-151 340.0856,-151 340.0856,-187"/>
<text text-anchor="middle" x="257" y="-164.8" font-family="Times,serif" font-size="14.00" fill="#000000">CollapsibleSidebarModule</text>
</g>
<!-- CollapsibleSidebarComponent&#45;&gt;CollapsibleSidebarModule -->
<g id="edge1" class="edge">
<title>CollapsibleSidebarComponent&#45;&gt;CollapsibleSidebarModule</title>
<path fill="none" stroke="#000000" d="M308.5544,-122.1061C308.5544,-122.1061 308.5544,-140.991 308.5544,-140.991"/>
<polygon fill="#000000" stroke="#000000" points="305.0544,-140.9909 308.5544,-150.991 312.0544,-140.991 305.0544,-140.9909"/>
</g>
<!-- CollapsibleSidebarToggleComponent -->
<g id="node2" class="node">
<title>CollapsibleSidebarToggleComponent</title>
<polygon fill="#ffffb3" stroke="#000000" points="258.5265,-122 31.4735,-122 31.4735,-86 258.5265,-86 258.5265,-122"/>
<text text-anchor="middle" x="145" y="-99.8" font-family="Times,serif" font-size="14.00" fill="#000000">CollapsibleSidebarToggleComponent</text>
</g>
<!-- CollapsibleSidebarToggleComponent&#45;&gt;CollapsibleSidebarModule -->
<g id="edge2" class="edge">
<title>CollapsibleSidebarToggleComponent&#45;&gt;CollapsibleSidebarModule</title>
<path fill="none" stroke="#000000" d="M216.3601,-122.1061C216.3601,-122.1061 216.3601,-140.991 216.3601,-140.991"/>
<polygon fill="#000000" stroke="#000000" points="212.8602,-140.9909 216.3601,-150.991 219.8602,-140.991 212.8602,-140.9909"/>
</g>
<!-- CollapsibleSidebarComponent  -->
<g id="node4" class="node">
<title>CollapsibleSidebarComponent </title>
<polygon fill="#fb8072" stroke="#000000" points="352.8686,-252 161.1314,-252 161.1314,-216 352.8686,-216 352.8686,-252"/>
<text text-anchor="middle" x="257" y="-229.8" font-family="Times,serif" font-size="14.00" fill="#000000">CollapsibleSidebarComponent </text>
</g>
<!-- CollapsibleSidebarModule&#45;&gt;CollapsibleSidebarComponent  -->
<g id="edge3" class="edge">
<title>CollapsibleSidebarModule&#45;&gt;CollapsibleSidebarComponent </title>
<path fill="none" stroke="#000000" stroke-dasharray="5,2" d="M257,-187.1061C257,-187.1061 257,-205.991 257,-205.991"/>
<polygon fill="#000000" stroke="#000000" points="253.5001,-205.9909 257,-215.991 260.5001,-205.991 253.5001,-205.9909"/>
</g>
</g>
</svg>
