<?xml version="1.0" encoding="UTF-8" standalone="no"?>
<!DOCTYPE svg PUBLIC "-//W3C//DTD SVG 1.1//EN"
 "http://www.w3.org/Graphics/SVG/1.1/DTD/svg11.dtd">
<!-- Generated by graphviz version 2.40.1 (20161225.0304)
 -->
<!-- Title: dependencies Pages: 1 -->
<svg width="3566pt" height="284pt"
 viewBox="0.00 0.00 3566.00 284.00" xmlns="http://www.w3.org/2000/svg" xmlns:xlink="http://www.w3.org/1999/xlink">
<g id="graph0" class="graph" transform="scale(1 1) rotate(0) translate(4 280)">
<title>dependencies</title>
<polygon fill="#ffffff" stroke="transparent" points="-4,4 -4,-280 3562,-280 3562,4 -4,4"/>
<text text-anchor="start" x="1758.0091" y="-42.4" font-family="sans-serif" font-weight="bold" font-size="14.00" fill="#000000">Legend</text>
<polygon fill="#ffffb3" stroke="transparent" points="1545,-10 1545,-30 1565,-30 1565,-10 1545,-10"/>
<text text-anchor="start" x="1568.629" y="-15.4" font-family="sans-serif" font-size="14.00" fill="#000000"> &#160;Declarations</text>
<polygon fill="#8dd3c7" stroke="transparent" points="1658,-10 1658,-30 1678,-30 1678,-10 1658,-10"/>
<text text-anchor="start" x="1681.7251" y="-15.4" font-family="sans-serif" font-size="14.00" fill="#000000"> &#160;Module</text>
<polygon fill="#80b1d3" stroke="transparent" points="1744,-10 1744,-30 1764,-30 1764,-10 1744,-10"/>
<text text-anchor="start" x="1767.7812" y="-15.4" font-family="sans-serif" font-size="14.00" fill="#000000"> &#160;Bootstrap</text>
<polygon fill="#fdb462" stroke="transparent" points="1841,-10 1841,-30 1861,-30 1861,-10 1841,-10"/>
<text text-anchor="start" x="1864.6732" y="-15.4" font-family="sans-serif" font-size="14.00" fill="#000000"> &#160;Providers</text>
<polygon fill="#fb8072" stroke="transparent" points="1937,-10 1937,-30 1957,-30 1957,-10 1937,-10"/>
<text text-anchor="start" x="1960.7258" y="-15.4" font-family="sans-serif" font-size="14.00" fill="#000000"> &#160;Exports</text>
<g id="clust1" class="cluster">
<title>cluster_CoreModule</title>
<polygon fill="none" stroke="#000000" stroke-dasharray="1,5" points="8,-70 8,-268 3550,-268 3550,-70 8,-70"/>
</g>
<g id="clust2" class="cluster">
<title>cluster_CoreModule_declarations</title>
<polygon fill="none" stroke="#000000" points="3258,-78 3258,-130 3542,-130 3542,-78 3258,-78"/>
</g>
<g id="clust5" class="cluster">
<title>cluster_CoreModule_imports</title>
<polygon fill="none" stroke="#000000" points="2886,-78 2886,-130 3250,-130 3250,-78 2886,-78"/>
</g>
<g id="clust6" class="cluster">
<title>cluster_CoreModule_exports</title>
<polygon fill="none" stroke="#000000" points="1728,-208 1728,-260 2020,-260 2020,-208 1728,-208"/>
</g>
<g id="clust8" class="cluster">
<title>cluster_CoreModule_providers</title>
<polygon fill="none" stroke="#000000" points="16,-78 16,-130 2878,-130 2878,-78 16,-78"/>
</g>
<!-- HomeComponent -->
<g id="node1" class="node">
<title>HomeComponent</title>
<polygon fill="#ffffb3" stroke="#000000" points="3533.5451,-122 3418.4549,-122 3418.4549,-86 3533.5451,-86 3533.5451,-122"/>
<text text-anchor="middle" x="3476" y="-99.8" font-family="Times,serif" font-size="14.00" fill="#000000">HomeComponent</text>
</g>
<!-- CoreModule -->
<g id="node3" class="node">
<title>CoreModule</title>
<polygon fill="#8dd3c7" stroke="#000000" points="1921.2619,-187 1918.2619,-191 1897.2619,-191 1894.2619,-187 1834.7381,-187 1834.7381,-151 1921.2619,-151 1921.2619,-187"/>
<text text-anchor="middle" x="1878" y="-164.8" font-family="Times,serif" font-size="14.00" fill="#000000">CoreModule</text>
</g>
<!-- HomeComponent&#45;&gt;CoreModule -->
<g id="edge1" class="edge">
<title>HomeComponent&#45;&gt;CoreModule</title>
<path fill="none" stroke="#000000" d="M3476,-122.1532C3476,-145.7566 3476,-184 3476,-184 3476,-184 1931.5714,-184 1931.5714,-184"/>
<polygon fill="#000000" stroke="#000000" points="1931.5714,-180.5001 1921.5714,-184 1931.5714,-187.5001 1931.5714,-180.5001"/>
</g>
<!-- TopPanelComponent -->
<g id="node2" class="node">
<title>TopPanelComponent</title>
<polygon fill="#ffffb3" stroke="#000000" points="3400.4874,-122 3265.5126,-122 3265.5126,-86 3400.4874,-86 3400.4874,-122"/>
<text text-anchor="middle" x="3333" y="-99.8" font-family="Times,serif" font-size="14.00" fill="#000000">TopPanelComponent</text>
</g>
<!-- TopPanelComponent&#45;&gt;CoreModule -->
<g id="edge2" class="edge">
<title>TopPanelComponent&#45;&gt;CoreModule</title>
<path fill="none" stroke="#000000" d="M3333,-122.2479C3333,-145.0179 3333,-181 3333,-181 3333,-181 1931.5453,-181 1931.5453,-181"/>
<polygon fill="#000000" stroke="#000000" points="1931.5453,-177.5001 1921.5453,-181 1931.5452,-184.5001 1931.5453,-177.5001"/>
</g>
<!-- HomeComponent  -->
<g id="node7" class="node">
<title>HomeComponent </title>
<polygon fill="#fb8072" stroke="#000000" points="2011.5442,-252 1892.4558,-252 1892.4558,-216 2011.5442,-216 2011.5442,-252"/>
<text text-anchor="middle" x="1952" y="-229.8" font-family="Times,serif" font-size="14.00" fill="#000000">HomeComponent </text>
</g>
<!-- CoreModule&#45;&gt;HomeComponent  -->
<g id="edge6" class="edge">
<title>CoreModule&#45;&gt;HomeComponent </title>
<path fill="none" stroke="#000000" stroke-dasharray="5,2" d="M1906.9294,-187.1061C1906.9294,-187.1061 1906.9294,-205.991 1906.9294,-205.991"/>
<polygon fill="#000000" stroke="#000000" points="1903.4294,-205.9909 1906.9294,-215.991 1910.4294,-205.991 1903.4294,-205.9909"/>
</g>
<!-- TopPanelComponent  -->
<g id="node8" class="node">
<title>TopPanelComponent </title>
<polygon fill="#fb8072" stroke="#000000" points="1874.4883,-252 1735.5117,-252 1735.5117,-216 1874.4883,-216 1874.4883,-252"/>
<text text-anchor="middle" x="1805" y="-229.8" font-family="Times,serif" font-size="14.00" fill="#000000">TopPanelComponent </text>
</g>
<!-- CoreModule&#45;&gt;TopPanelComponent  -->
<g id="edge7" class="edge">
<title>CoreModule&#45;&gt;TopPanelComponent </title>
<path fill="none" stroke="#000000" stroke-dasharray="5,2" d="M1854.4315,-187.1061C1854.4315,-187.1061 1854.4315,-205.991 1854.4315,-205.991"/>
<polygon fill="#000000" stroke="#000000" points="1850.9315,-205.9909 1854.4315,-215.991 1857.9315,-205.991 1850.9315,-205.9909"/>
</g>
<!-- AppStoreModule -->
<g id="node4" class="node">
<title>AppStoreModule</title>
<polygon fill="#8dd3c7" stroke="#000000" points="3241.705,-122 3238.705,-126 3217.705,-126 3214.705,-122 3128.295,-122 3128.295,-86 3241.705,-86 3241.705,-122"/>
<text text-anchor="middle" x="3185" y="-99.8" font-family="Times,serif" font-size="14.00" fill="#000000">AppStoreModule</text>
</g>
<!-- AppStoreModule&#45;&gt;CoreModule -->
<g id="edge3" class="edge">
<title>AppStoreModule&#45;&gt;CoreModule</title>
<path fill="none" stroke="#000000" d="M3185,-122.2921C3185,-144.2057 3185,-178 3185,-178 3185,-178 1931.4862,-178 1931.4862,-178"/>
<polygon fill="#000000" stroke="#000000" points="1931.4863,-174.5001 1921.4862,-178 1931.4862,-181.5001 1931.4863,-174.5001"/>
</g>
<!-- GuardsModule -->
<g id="node5" class="node">
<title>GuardsModule</title>
<polygon fill="#8dd3c7" stroke="#000000" points="3109.9762,-122 3106.9762,-126 3085.9762,-126 3082.9762,-122 3010.0238,-122 3010.0238,-86 3109.9762,-86 3109.9762,-122"/>
<text text-anchor="middle" x="3060" y="-99.8" font-family="Times,serif" font-size="14.00" fill="#000000">GuardsModule</text>
</g>
<!-- GuardsModule&#45;&gt;CoreModule -->
<g id="edge4" class="edge">
<title>GuardsModule&#45;&gt;CoreModule</title>
<path fill="none" stroke="#000000" d="M3060,-122.0267C3060,-142.7672 3060,-174 3060,-174 3060,-174 1931.4698,-174 1931.4698,-174"/>
<polygon fill="#000000" stroke="#000000" points="1931.4699,-170.5001 1921.4698,-174 1931.4698,-177.5001 1931.4699,-170.5001"/>
</g>
<!-- SharedModule -->
<g id="node6" class="node">
<title>SharedModule</title>
<polygon fill="#8dd3c7" stroke="#000000" points="2992.4231,-122 2989.4231,-126 2968.4231,-126 2965.4231,-122 2893.5769,-122 2893.5769,-86 2992.4231,-86 2992.4231,-122"/>
<text text-anchor="middle" x="2943" y="-99.8" font-family="Times,serif" font-size="14.00" fill="#000000">SharedModule</text>
</g>
<!-- SharedModule&#45;&gt;CoreModule -->
<g id="edge5" class="edge">
<title>SharedModule&#45;&gt;CoreModule</title>
<path fill="none" stroke="#000000" d="M2943,-122.308C2943,-142.1455 2943,-171 2943,-171 2943,-171 1931.401,-171 1931.401,-171"/>
<polygon fill="#000000" stroke="#000000" points="1931.401,-167.5001 1921.401,-171 1931.4009,-174.5001 1931.401,-167.5001"/>
</g>
<!-- CollectionService -->
<g id="node9" class="node">
<title>CollectionService</title>
<ellipse fill="#fdb462" stroke="#000000" cx="2790" cy="-104" rx="80.4519" ry="18"/>
<text text-anchor="middle" x="2790" y="-99.8" font-family="Times,serif" font-size="14.00" fill="#000000">CollectionService</text>
</g>
<!-- CollectionService&#45;&gt;CoreModule -->
<g id="edge8" class="edge">
<title>CollectionService&#45;&gt;CoreModule</title>
<path fill="none" stroke="#000000" d="M2790,-122.1686C2790,-141.0898 2790,-168 2790,-168 2790,-168 1931.3741,-168 1931.3741,-168"/>
<polygon fill="#000000" stroke="#000000" points="1931.3742,-164.5001 1921.3741,-168 1931.3741,-171.5001 1931.3742,-164.5001"/>
</g>
<!-- CollectionValidators -->
<g id="node10" class="node">
<title>CollectionValidators</title>
<ellipse fill="#fdb462" stroke="#000000" cx="2600" cy="-104" rx="91.4867" ry="18"/>
<text text-anchor="middle" x="2600" y="-99.8" font-family="Times,serif" font-size="14.00" fill="#000000">CollectionValidators</text>
</g>
<!-- CollectionValidators&#45;&gt;CoreModule -->
<g id="edge9" class="edge">
<title>CollectionValidators&#45;&gt;CoreModule</title>
<path fill="none" stroke="#000000" d="M2600,-122.302C2600,-140.2699 2600,-165 2600,-165 2600,-165 1931.2699,-165 1931.2699,-165"/>
<polygon fill="#000000" stroke="#000000" points="1931.27,-161.5001 1921.2699,-165 1931.2699,-168.5001 1931.27,-161.5001"/>
</g>
<!-- DocumentService -->
<g id="node11" class="node">
<title>DocumentService</title>
<ellipse fill="#fdb462" stroke="#000000" cx="2410" cy="-104" rx="80.4364" ry="18"/>
<text text-anchor="middle" x="2410" y="-99.8" font-family="Times,serif" font-size="14.00" fill="#000000">DocumentService</text>
</g>
<!-- DocumentService&#45;&gt;CoreModule -->
<g id="edge10" class="edge">
<title>DocumentService&#45;&gt;CoreModule</title>
<path fill="none" stroke="#000000" d="M2410,-122.0352C2410,-138.7344 2410,-161 2410,-161 2410,-161 1931.5358,-161 1931.5358,-161"/>
<polygon fill="#000000" stroke="#000000" points="1931.5358,-157.5001 1921.5358,-161 1931.5358,-164.5001 1931.5358,-157.5001"/>
</g>
<!-- EventService -->
<g id="node12" class="node">
<title>EventService</title>
<ellipse fill="#fdb462" stroke="#000000" cx="2249" cy="-104" rx="62.5373" ry="18"/>
<text text-anchor="middle" x="2249" y="-99.8" font-family="Times,serif" font-size="14.00" fill="#000000">EventService</text>
</g>
<!-- EventService&#45;&gt;CoreModule -->
<g id="edge11" class="edge">
<title>EventService&#45;&gt;CoreModule</title>
<path fill="none" stroke="#000000" d="M2249,-122.2819C2249,-137.9478 2249,-158 2249,-158 2249,-158 1931.2845,-158 1931.2845,-158"/>
<polygon fill="#000000" stroke="#000000" points="1931.2845,-154.5001 1921.2845,-158 1931.2845,-161.5001 1931.2845,-154.5001"/>
</g>
<!-- GlobalService -->
<g id="node13" class="node">
<title>GlobalService</title>
<ellipse fill="#fdb462" stroke="#000000" cx="2102" cy="-104" rx="66.0492" ry="18"/>
<text text-anchor="middle" x="2102" y="-99.8" font-family="Times,serif" font-size="14.00" fill="#000000">GlobalService</text>
</g>
<!-- GlobalService&#45;&gt;CoreModule -->
<g id="edge12" class="edge">
<title>GlobalService&#45;&gt;CoreModule</title>
<path fill="none" stroke="#000000" d="M2102,-122.1243C2102,-136.7832 2102,-155 2102,-155 2102,-155 1931.4551,-155 1931.4551,-155"/>
<polygon fill="#000000" stroke="#000000" points="1931.4551,-151.5001 1921.4551,-155 1931.455,-158.5001 1931.4551,-151.5001"/>
</g>
<!-- GroupService -->
<g id="node14" class="node">
<title>GroupService</title>
<ellipse fill="#fdb462" stroke="#000000" cx="1953" cy="-104" rx="64.8273" ry="18"/>
<text text-anchor="middle" x="1953" y="-99.8" font-family="Times,serif" font-size="14.00" fill="#000000">GroupService</text>
</g>
<!-- GroupService&#45;&gt;CoreModule -->
<g id="edge13" class="edge">
<title>GroupService&#45;&gt;CoreModule</title>
<path fill="none" stroke="#000000" d="M1904.8587,-116.226C1904.8587,-116.226 1904.8587,-140.683 1904.8587,-140.683"/>
<polygon fill="#000000" stroke="#000000" points="1901.3588,-140.683 1904.8587,-150.683 1908.3588,-140.683 1901.3588,-140.683"/>
</g>
<!-- ImportService -->
<g id="node15" class="node">
<title>ImportService</title>
<ellipse fill="#fdb462" stroke="#000000" cx="1804" cy="-104" rx="66.0492" ry="18"/>
<text text-anchor="middle" x="1804" y="-99.8" font-family="Times,serif" font-size="14.00" fill="#000000">ImportService</text>
</g>
<!-- ImportService&#45;&gt;CoreModule -->
<g id="edge14" class="edge">
<title>ImportService&#45;&gt;CoreModule</title>
<path fill="none" stroke="#000000" d="M1852.4467,-116.5327C1852.4467,-116.5327 1852.4467,-140.8507 1852.4467,-140.8507"/>
<polygon fill="#000000" stroke="#000000" points="1848.9468,-140.8506 1852.4467,-150.8507 1855.9468,-140.8507 1848.9468,-140.8506"/>
</g>
<!-- LinkInstanceService -->
<g id="node16" class="node">
<title>LinkInstanceService</title>
<ellipse fill="#fdb462" stroke="#000000" cx="1629" cy="-104" rx="90.3062" ry="18"/>
<text text-anchor="middle" x="1629" y="-99.8" font-family="Times,serif" font-size="14.00" fill="#000000">LinkInstanceService</text>
</g>
<!-- LinkInstanceService&#45;&gt;CoreModule -->
<g id="edge15" class="edge">
<title>LinkInstanceService&#45;&gt;CoreModule</title>
<path fill="none" stroke="#000000" d="M1629,-122.1243C1629,-136.7832 1629,-155 1629,-155 1629,-155 1824.6275,-155 1824.6275,-155"/>
<polygon fill="#000000" stroke="#000000" points="1824.6275,-158.5001 1834.6275,-155 1824.6275,-151.5001 1824.6275,-158.5001"/>
</g>
<!-- LinkTypeService -->
<g id="node17" class="node">
<title>LinkTypeService</title>
<ellipse fill="#fdb462" stroke="#000000" cx="1443" cy="-104" rx="78.1501" ry="18"/>
<text text-anchor="middle" x="1443" y="-99.8" font-family="Times,serif" font-size="14.00" fill="#000000">LinkTypeService</text>
</g>
<!-- LinkTypeService&#45;&gt;CoreModule -->
<g id="edge16" class="edge">
<title>LinkTypeService&#45;&gt;CoreModule</title>
<path fill="none" stroke="#000000" d="M1443,-122.2819C1443,-137.9478 1443,-158 1443,-158 1443,-158 1824.7002,-158 1824.7002,-158"/>
<polygon fill="#000000" stroke="#000000" points="1824.7002,-161.5001 1834.7002,-158 1824.7002,-154.5001 1824.7002,-161.5001"/>
</g>
<!-- NotificationService -->
<g id="node18" class="node">
<title>NotificationService</title>
<ellipse fill="#fdb462" stroke="#000000" cx="1260" cy="-104" rx="86.8107" ry="18"/>
<text text-anchor="middle" x="1260" y="-99.8" font-family="Times,serif" font-size="14.00" fill="#000000">NotificationService</text>
</g>
<!-- NotificationService&#45;&gt;CoreModule -->
<g id="edge17" class="edge">
<title>NotificationService&#45;&gt;CoreModule</title>
<path fill="none" stroke="#000000" d="M1260,-122.0352C1260,-138.7344 1260,-161 1260,-161 1260,-161 1824.5434,-161 1824.5434,-161"/>
<polygon fill="#000000" stroke="#000000" points="1824.5435,-164.5001 1834.5434,-161 1824.5434,-157.5001 1824.5435,-164.5001"/>
</g>
<!-- OrganizationService -->
<g id="node19" class="node">
<title>OrganizationService</title>
<ellipse fill="#fdb462" stroke="#000000" cx="1065" cy="-104" rx="90.3062" ry="18"/>
<text text-anchor="middle" x="1065" y="-99.8" font-family="Times,serif" font-size="14.00" fill="#000000">OrganizationService</text>
</g>
<!-- OrganizationService&#45;&gt;CoreModule -->
<g id="edge18" class="edge">
<title>OrganizationService&#45;&gt;CoreModule</title>
<path fill="none" stroke="#000000" d="M1065,-122.302C1065,-140.2699 1065,-165 1065,-165 1065,-165 1824.577,-165 1824.577,-165"/>
<polygon fill="#000000" stroke="#000000" points="1824.577,-168.5001 1834.577,-165 1824.577,-161.5001 1824.577,-168.5001"/>
</g>
<!-- ProjectService -->
<g id="node20" class="node">
<title>ProjectService</title>
<ellipse fill="#fdb462" stroke="#000000" cx="889" cy="-104" rx="67.1888" ry="18"/>
<text text-anchor="middle" x="889" y="-99.8" font-family="Times,serif" font-size="14.00" fill="#000000">ProjectService</text>
</g>
<!-- ProjectService&#45;&gt;CoreModule -->
<g id="edge19" class="edge">
<title>ProjectService&#45;&gt;CoreModule</title>
<path fill="none" stroke="#000000" d="M889,-122.1686C889,-141.0898 889,-168 889,-168 889,-168 1824.5484,-168 1824.5484,-168"/>
<polygon fill="#000000" stroke="#000000" points="1824.5484,-171.5001 1834.5484,-168 1824.5484,-164.5001 1824.5484,-171.5001"/>
</g>
<!-- SearchService -->
<g id="node21" class="node">
<title>SearchService</title>
<ellipse fill="#fdb462" stroke="#000000" cx="737" cy="-104" rx="66.0281" ry="18"/>
<text text-anchor="middle" x="737" y="-99.8" font-family="Times,serif" font-size="14.00" fill="#000000">SearchService</text>
</g>
<!-- SearchService&#45;&gt;CoreModule -->
<g id="edge20" class="edge">
<title>SearchService&#45;&gt;CoreModule</title>
<path fill="none" stroke="#000000" d="M737,-122.308C737,-142.1455 737,-171 737,-171 737,-171 1824.6647,-171 1824.6647,-171"/>
<polygon fill="#000000" stroke="#000000" points="1824.6648,-174.5001 1834.6647,-171 1824.6647,-167.5001 1824.6648,-174.5001"/>
</g>
<!-- UserService -->
<g id="node22" class="node">
<title>UserService</title>
<ellipse fill="#fdb462" stroke="#000000" cx="595" cy="-104" rx="58.4415" ry="18"/>
<text text-anchor="middle" x="595" y="-99.8" font-family="Times,serif" font-size="14.00" fill="#000000">UserService</text>
</g>
<!-- UserService&#45;&gt;CoreModule -->
<g id="edge21" class="edge">
<title>UserService&#45;&gt;CoreModule</title>
<path fill="none" stroke="#000000" d="M595,-122.0267C595,-142.7672 595,-174 595,-174 595,-174 1824.5771,-174 1824.5771,-174"/>
<polygon fill="#000000" stroke="#000000" points="1824.5772,-177.5001 1834.5771,-174 1824.5771,-170.5001 1824.5772,-177.5001"/>
</g>
<!-- UserSettingsService -->
<g id="node23" class="node">
<title>UserSettingsService</title>
<ellipse fill="#fdb462" stroke="#000000" cx="429" cy="-104" rx="89.178" ry="18"/>
<text text-anchor="middle" x="429" y="-99.8" font-family="Times,serif" font-size="14.00" fill="#000000">UserSettingsService</text>
</g>
<!-- UserSettingsService&#45;&gt;CoreModule -->
<g id="edge22" class="edge">
<title>UserSettingsService&#45;&gt;CoreModule</title>
<path fill="none" stroke="#000000" d="M429,-122.2921C429,-144.2057 429,-178 429,-178 429,-178 1824.6343,-178 1824.6343,-178"/>
<polygon fill="#000000" stroke="#000000" points="1824.6343,-181.5001 1834.6343,-178 1824.6343,-174.5001 1824.6343,-181.5001"/>
</g>
<!-- ViewService -->
<g id="node24" class="node">
<title>ViewService</title>
<ellipse fill="#fdb462" stroke="#000000" cx="261" cy="-104" rx="60.8101" ry="18"/>
<text text-anchor="middle" x="261" y="-99.8" font-family="Times,serif" font-size="14.00" fill="#000000">ViewService</text>
</g>
<!-- ViewService&#45;&gt;CoreModule -->
<g id="edge23" class="edge">
<title>ViewService&#45;&gt;CoreModule</title>
<path fill="none" stroke="#000000" d="M261,-122.2479C261,-145.0179 261,-181 261,-181 261,-181 1824.3308,-181 1824.3308,-181"/>
<polygon fill="#000000" stroke="#000000" points="1824.3308,-184.5001 1834.3308,-181 1824.3307,-177.5001 1824.3308,-184.5001"/>
</g>
<!-- WorkspaceGuard -->
<g id="node25" class="node">
<title>WorkspaceGuard</title>
<ellipse fill="#fdb462" stroke="#000000" cx="103" cy="-104" rx="78.695" ry="18"/>
<text text-anchor="middle" x="103" y="-99.8" font-family="Times,serif" font-size="14.00" fill="#000000">WorkspaceGuard</text>
</g>
<!-- WorkspaceGuard&#45;&gt;CoreModule -->
<g id="edge24" class="edge">
<title>WorkspaceGuard&#45;&gt;CoreModule</title>
<path fill="none" stroke="#000000" d="M103,-122.1532C103,-145.7566 103,-184 103,-184 103,-184 1824.5641,-184 1824.5641,-184"/>
<polygon fill="#000000" stroke="#000000" points="1824.5642,-187.5001 1834.5641,-184 1824.5641,-180.5001 1824.5642,-187.5001"/>
</g>
</g>
</svg>
