<?xml version="1.0" encoding="UTF-8" standalone="no"?>
<!DOCTYPE svg PUBLIC "-//W3C//DTD SVG 1.1//EN"
 "http://www.w3.org/Graphics/SVG/1.1/DTD/svg11.dtd">
<!-- Generated by graphviz version 2.40.1 (20161225.0304)
 -->
<!-- Title: dependencies Pages: 1 -->
<svg width="3245pt" height="284pt"
 viewBox="0.00 0.00 3245.00 284.00" xmlns="http://www.w3.org/2000/svg" xmlns:xlink="http://www.w3.org/1999/xlink">
<g id="graph0" class="graph" transform="scale(1 1) rotate(0) translate(4 280)">
<title>dependencies</title>
<polygon fill="#ffffff" stroke="transparent" points="-4,4 -4,-280 3241,-280 3241,4 -4,4"/>
<text text-anchor="start" x="1597.5091" y="-42.4" font-family="sans-serif" font-weight="bold" font-size="14.00" fill="#000000">Legend</text>
<polygon fill="#ffffb3" stroke="transparent" points="1384.5,-10 1384.5,-30 1404.5,-30 1404.5,-10 1384.5,-10"/>
<text text-anchor="start" x="1408.129" y="-15.4" font-family="sans-serif" font-size="14.00" fill="#000000"> &#160;Declarations</text>
<polygon fill="#8dd3c7" stroke="transparent" points="1497.5,-10 1497.5,-30 1517.5,-30 1517.5,-10 1497.5,-10"/>
<text text-anchor="start" x="1521.2251" y="-15.4" font-family="sans-serif" font-size="14.00" fill="#000000"> &#160;Module</text>
<polygon fill="#80b1d3" stroke="transparent" points="1583.5,-10 1583.5,-30 1603.5,-30 1603.5,-10 1583.5,-10"/>
<text text-anchor="start" x="1607.2812" y="-15.4" font-family="sans-serif" font-size="14.00" fill="#000000"> &#160;Bootstrap</text>
<polygon fill="#fdb462" stroke="transparent" points="1680.5,-10 1680.5,-30 1700.5,-30 1700.5,-10 1680.5,-10"/>
<text text-anchor="start" x="1704.1732" y="-15.4" font-family="sans-serif" font-size="14.00" fill="#000000"> &#160;Providers</text>
<polygon fill="#fb8072" stroke="transparent" points="1776.5,-10 1776.5,-30 1796.5,-30 1796.5,-10 1776.5,-10"/>
<text text-anchor="start" x="1800.2258" y="-15.4" font-family="sans-serif" font-size="14.00" fill="#000000"> &#160;Exports</text>
<g id="clust1" class="cluster">
<title>cluster_CoreModule</title>
<polygon fill="none" stroke="#000000" stroke-dasharray="1,5" points="8,-70 8,-268 3229,-268 3229,-70 8,-70"/>
</g>
<g id="clust2" class="cluster">
<title>cluster_CoreModule_declarations</title>
<polygon fill="none" stroke="#000000" points="3089,-78 3089,-130 3221,-130 3221,-78 3089,-78"/>
</g>
<g id="clust4" class="cluster">
<title>cluster_CoreModule_imports</title>
<polygon fill="none" stroke="#000000" points="2566,-78 2566,-130 3081,-130 3081,-78 2566,-78"/>
</g>
<g id="clust5" class="cluster">
<title>cluster_CoreModule_exports</title>
<polygon fill="none" stroke="#000000" points="1560,-208 1560,-260 1850,-260 1850,-208 1560,-208"/>
</g>
<g id="clust7" class="cluster">
<title>cluster_CoreModule_providers</title>
<polygon fill="none" stroke="#000000" points="16,-78 16,-130 2558,-130 2558,-78 16,-78"/>
</g>
<!-- HomeComponent -->
<g id="node1" class="node">
<title>HomeComponent</title>
<polygon fill="#ffffb3" stroke="#000000" points="3212.5451,-122 3097.4549,-122 3097.4549,-86 3212.5451,-86 3212.5451,-122"/>
<text text-anchor="middle" x="3155" y="-99.8" font-family="Times,serif" font-size="14.00" fill="#000000">HomeComponent</text>
</g>
<!-- CoreModule -->
<g id="node2" class="node">
<title>CoreModule</title>
<polygon fill="#8dd3c7" stroke="#000000" points="1752.2619,-187 1749.2619,-191 1728.2619,-191 1725.2619,-187 1665.7381,-187 1665.7381,-151 1752.2619,-151 1752.2619,-187"/>
<text text-anchor="middle" x="1709" y="-164.8" font-family="Times,serif" font-size="14.00" fill="#000000">CoreModule</text>
</g>
<!-- HomeComponent&#45;&gt;CoreModule -->
<g id="edge1" class="edge">
<title>HomeComponent&#45;&gt;CoreModule</title>
<path fill="none" stroke="#000000" d="M3155,-122.1532C3155,-145.7566 3155,-184 3155,-184 3155,-184 1762.2759,-184 1762.2759,-184"/>
<polygon fill="#000000" stroke="#000000" points="1762.2759,-180.5001 1752.2759,-184 1762.2759,-187.5001 1762.2759,-180.5001"/>
</g>
<!-- HomeComponent  -->
<g id="node7" class="node">
<title>HomeComponent </title>
<polygon fill="#fb8072" stroke="#000000" points="1841.5442,-252 1722.4558,-252 1722.4558,-216 1841.5442,-216 1841.5442,-252"/>
<text text-anchor="middle" x="1782" y="-229.8" font-family="Times,serif" font-size="14.00" fill="#000000">HomeComponent </text>
</g>
<!-- CoreModule&#45;&gt;HomeComponent  -->
<g id="edge6" class="edge">
<title>CoreModule&#45;&gt;HomeComponent </title>
<path fill="none" stroke="#000000" stroke-dasharray="5,2" d="M1737.4294,-187.1061C1737.4294,-187.1061 1737.4294,-205.991 1737.4294,-205.991"/>
<polygon fill="#000000" stroke="#000000" points="1733.9294,-205.9909 1737.4294,-215.991 1740.9294,-205.991 1733.9294,-205.9909"/>
</g>
<!-- NotificationsModule  -->
<g id="node8" class="node">
<title>NotificationsModule </title>
<polygon fill="#fb8072" stroke="#000000" points="1704.1439,-252 1567.8561,-252 1567.8561,-216 1704.1439,-216 1704.1439,-252"/>
<text text-anchor="middle" x="1636" y="-229.8" font-family="Times,serif" font-size="14.00" fill="#000000">NotificationsModule </text>
</g>
<!-- CoreModule&#45;&gt;NotificationsModule  -->
<g id="edge7" class="edge">
<title>CoreModule&#45;&gt;NotificationsModule </title>
<path fill="none" stroke="#000000" stroke-dasharray="5,2" d="M1684.8456,-187.1061C1684.8456,-187.1061 1684.8456,-205.991 1684.8456,-205.991"/>
<polygon fill="#000000" stroke="#000000" points="1681.3456,-205.9909 1684.8456,-215.991 1688.3456,-205.991 1681.3456,-205.9909"/>
</g>
<!-- AppStoreModule -->
<g id="node3" class="node">
<title>AppStoreModule</title>
<polygon fill="#8dd3c7" stroke="#000000" points="3072.705,-122 3069.705,-126 3048.705,-126 3045.705,-122 2959.295,-122 2959.295,-86 3072.705,-86 3072.705,-122"/>
<text text-anchor="middle" x="3016" y="-99.8" font-family="Times,serif" font-size="14.00" fill="#000000">AppStoreModule</text>
</g>
<!-- AppStoreModule&#45;&gt;CoreModule -->
<g id="edge2" class="edge">
<title>AppStoreModule&#45;&gt;CoreModule</title>
<path fill="none" stroke="#000000" d="M3016,-122.0109C3016,-144.4852 3016,-180 3016,-180 3016,-180 1762.4862,-180 1762.4862,-180"/>
<polygon fill="#000000" stroke="#000000" points="1762.4863,-176.5001 1752.4862,-180 1762.4862,-183.5001 1762.4863,-176.5001"/>
</g>
<!-- GuardsModule -->
<g id="node4" class="node">
<title>GuardsModule</title>
<polygon fill="#8dd3c7" stroke="#000000" points="2940.9762,-122 2937.9762,-126 2916.9762,-126 2913.9762,-122 2841.0238,-122 2841.0238,-86 2940.9762,-86 2940.9762,-122"/>
<text text-anchor="middle" x="2891" y="-99.8" font-family="Times,serif" font-size="14.00" fill="#000000">GuardsModule</text>
</g>
<!-- GuardsModule&#45;&gt;CoreModule -->
<g id="edge3" class="edge">
<title>GuardsModule&#45;&gt;CoreModule</title>
<path fill="none" stroke="#000000" d="M2891,-122.0449C2891,-143.6623 2891,-177 2891,-177 2891,-177 1762.4698,-177 1762.4698,-177"/>
<polygon fill="#000000" stroke="#000000" points="1762.4699,-173.5001 1752.4698,-177 1762.4698,-180.5001 1762.4699,-173.5001"/>
</g>
<!-- NotificationsModule -->
<g id="node5" class="node">
<title>NotificationsModule</title>
<polygon fill="#8dd3c7" stroke="#000000" points="2823.1443,-122 2820.1443,-126 2799.1443,-126 2796.1443,-122 2690.8557,-122 2690.8557,-86 2823.1443,-86 2823.1443,-122"/>
<text text-anchor="middle" x="2757" y="-99.8" font-family="Times,serif" font-size="14.00" fill="#000000">NotificationsModule</text>
</g>
<!-- NotificationsModule&#45;&gt;CoreModule -->
<g id="edge4" class="edge">
<title>NotificationsModule&#45;&gt;CoreModule</title>
<path fill="none" stroke="#000000" d="M2757,-122.1289C2757,-142.5724 2757,-173 2757,-173 2757,-173 1762.3663,-173 1762.3663,-173"/>
<polygon fill="#000000" stroke="#000000" points="1762.3663,-169.5001 1752.3663,-173 1762.3662,-176.5001 1762.3663,-169.5001"/>
</g>
<!-- SharedModule -->
<g id="node6" class="node">
<title>SharedModule</title>
<polygon fill="#8dd3c7" stroke="#000000" points="2672.4231,-122 2669.4231,-126 2648.4231,-126 2645.4231,-122 2573.5769,-122 2573.5769,-86 2672.4231,-86 2672.4231,-122"/>
<text text-anchor="middle" x="2623" y="-99.8" font-family="Times,serif" font-size="14.00" fill="#000000">SharedModule</text>
</g>
<!-- SharedModule&#45;&gt;CoreModule -->
<g id="edge5" class="edge">
<title>SharedModule&#45;&gt;CoreModule</title>
<path fill="none" stroke="#000000" d="M2623,-122.1061C2623,-141.3391 2623,-169 2623,-169 2623,-169 1762.4692,-169 1762.4692,-169"/>
<polygon fill="#000000" stroke="#000000" points="1762.4693,-165.5001 1752.4692,-169 1762.4692,-172.5001 1762.4693,-165.5001"/>
</g>
<!-- CollectionService -->
<g id="node9" class="node">
<title>CollectionService</title>
<ellipse fill="#fdb462" stroke="#000000" cx="2470" cy="-104" rx="80.4519" ry="18"/>
<text text-anchor="middle" x="2470" y="-99.8" font-family="Times,serif" font-size="14.00" fill="#000000">CollectionService</text>
</g>
<!-- CollectionService&#45;&gt;CoreModule -->
<g id="edge8" class="edge">
<title>CollectionService&#45;&gt;CoreModule</title>
<path fill="none" stroke="#000000" d="M2470,-122.2667C2470,-140.5552 2470,-166 2470,-166 2470,-166 1762.3711,-166 1762.3711,-166"/>
<polygon fill="#000000" stroke="#000000" points="1762.3712,-162.5001 1752.3711,-166 1762.3711,-169.5001 1762.3712,-162.5001"/>
</g>
<!-- CollectionValidators -->
<g id="node10" class="node">
<title>CollectionValidators</title>
<ellipse fill="#fdb462" stroke="#000000" cx="2280" cy="-104" rx="91.4867" ry="18"/>
<text text-anchor="middle" x="2280" y="-99.8" font-family="Times,serif" font-size="14.00" fill="#000000">CollectionValidators</text>
</g>
<!-- CollectionValidators&#45;&gt;CoreModule -->
<g id="edge9" class="edge">
<title>CollectionValidators&#45;&gt;CoreModule</title>
<path fill="none" stroke="#000000" d="M2280,-122.0336C2280,-139.0597 2280,-162 2280,-162 2280,-162 1762.3865,-162 1762.3865,-162"/>
<polygon fill="#000000" stroke="#000000" points="1762.3865,-158.5001 1752.3865,-162 1762.3864,-165.5001 1762.3865,-158.5001"/>
</g>
<!-- DocumentService -->
<g id="node11" class="node">
<title>DocumentService</title>
<ellipse fill="#fdb462" stroke="#000000" cx="2090" cy="-104" rx="80.4364" ry="18"/>
<text text-anchor="middle" x="2090" y="-99.8" font-family="Times,serif" font-size="14.00" fill="#000000">DocumentService</text>
</g>
<!-- DocumentService&#45;&gt;CoreModule -->
<g id="edge10" class="edge">
<title>DocumentService&#45;&gt;CoreModule</title>
<path fill="none" stroke="#000000" d="M2090,-122.0091C2090,-138.0494 2090,-159 2090,-159 2090,-159 1762.3346,-159 1762.3346,-159"/>
<polygon fill="#000000" stroke="#000000" points="1762.3346,-155.5001 1752.3346,-159 1762.3346,-162.5001 1762.3346,-155.5001"/>
</g>
<!-- EventService -->
<g id="node12" class="node">
<title>EventService</title>
<ellipse fill="#fdb462" stroke="#000000" cx="1929" cy="-104" rx="62.5373" ry="18"/>
<text text-anchor="middle" x="1929" y="-99.8" font-family="Times,serif" font-size="14.00" fill="#000000">EventService</text>
</g>
<!-- EventService&#45;&gt;CoreModule -->
<g id="edge11" class="edge">
<title>EventService&#45;&gt;CoreModule</title>
<path fill="none" stroke="#000000" d="M1929,-122.1243C1929,-136.7832 1929,-155 1929,-155 1929,-155 1762.4649,-155 1762.4649,-155"/>
<polygon fill="#000000" stroke="#000000" points="1762.465,-151.5001 1752.4649,-155 1762.4649,-158.5001 1762.465,-151.5001"/>
</g>
<!-- GroupService -->
<g id="node13" class="node">
<title>GroupService</title>
<ellipse fill="#fdb462" stroke="#000000" cx="1784" cy="-104" rx="64.8273" ry="18"/>
<text text-anchor="middle" x="1784" y="-99.8" font-family="Times,serif" font-size="14.00" fill="#000000">GroupService</text>
</g>
<!-- GroupService&#45;&gt;CoreModule -->
<g id="edge12" class="edge">
<title>GroupService&#45;&gt;CoreModule</title>
<path fill="none" stroke="#000000" d="M1735.8587,-116.226C1735.8587,-116.226 1735.8587,-140.683 1735.8587,-140.683"/>
<polygon fill="#000000" stroke="#000000" points="1732.3588,-140.683 1735.8587,-150.683 1739.3588,-140.683 1732.3588,-140.683"/>
</g>
<!-- ImportService -->
<g id="node14" class="node">
<title>ImportService</title>
<ellipse fill="#fdb462" stroke="#000000" cx="1635" cy="-104" rx="66.0492" ry="18"/>
<text text-anchor="middle" x="1635" y="-99.8" font-family="Times,serif" font-size="14.00" fill="#000000">ImportService</text>
</g>
<!-- ImportService&#45;&gt;CoreModule -->
<g id="edge13" class="edge">
<title>ImportService&#45;&gt;CoreModule</title>
<path fill="none" stroke="#000000" d="M1683.4467,-116.5327C1683.4467,-116.5327 1683.4467,-140.8507 1683.4467,-140.8507"/>
<polygon fill="#000000" stroke="#000000" points="1679.9468,-140.8506 1683.4467,-150.8507 1686.9468,-140.8507 1679.9468,-140.8506"/>
</g>
<!-- LinkInstanceService -->
<g id="node15" class="node">
<title>LinkInstanceService</title>
<ellipse fill="#fdb462" stroke="#000000" cx="1460" cy="-104" rx="90.3062" ry="18"/>
<text text-anchor="middle" x="1460" y="-99.8" font-family="Times,serif" font-size="14.00" fill="#000000">LinkInstanceService</text>
</g>
<!-- LinkInstanceService&#45;&gt;CoreModule -->
<g id="edge14" class="edge">
<title>LinkInstanceService&#45;&gt;CoreModule</title>
<path fill="none" stroke="#000000" d="M1460,-122.1243C1460,-136.7832 1460,-155 1460,-155 1460,-155 1655.6275,-155 1655.6275,-155"/>
<polygon fill="#000000" stroke="#000000" points="1655.6275,-158.5001 1665.6275,-155 1655.6275,-151.5001 1655.6275,-158.5001"/>
</g>
<!-- LinkTypeService -->
<g id="node16" class="node">
<title>LinkTypeService</title>
<ellipse fill="#fdb462" stroke="#000000" cx="1274" cy="-104" rx="78.1501" ry="18"/>
<text text-anchor="middle" x="1274" y="-99.8" font-family="Times,serif" font-size="14.00" fill="#000000">LinkTypeService</text>
</g>
<!-- LinkTypeService&#45;&gt;CoreModule -->
<g id="edge15" class="edge">
<title>LinkTypeService&#45;&gt;CoreModule</title>
<path fill="none" stroke="#000000" d="M1274,-122.0091C1274,-138.0494 1274,-159 1274,-159 1274,-159 1655.7002,-159 1655.7002,-159"/>
<polygon fill="#000000" stroke="#000000" points="1655.7002,-162.5001 1665.7002,-159 1655.7002,-155.5001 1655.7002,-162.5001"/>
</g>
<!-- OrganizationService -->
<g id="node17" class="node">
<title>OrganizationService</title>
<ellipse fill="#fdb462" stroke="#000000" cx="1088" cy="-104" rx="90.3062" ry="18"/>
<text text-anchor="middle" x="1088" y="-99.8" font-family="Times,serif" font-size="14.00" fill="#000000">OrganizationService</text>
</g>
<!-- OrganizationService&#45;&gt;CoreModule -->
<g id="edge16" class="edge">
<title>OrganizationService&#45;&gt;CoreModule</title>
<path fill="none" stroke="#000000" d="M1088,-122.0336C1088,-139.0597 1088,-162 1088,-162 1088,-162 1655.3325,-162 1655.3325,-162"/>
<polygon fill="#000000" stroke="#000000" points="1655.3325,-165.5001 1665.3325,-162 1655.3325,-158.5001 1655.3325,-165.5001"/>
</g>
<!-- OrganizationValidators -->
<g id="node18" class="node">
<title>OrganizationValidators</title>
<ellipse fill="#fdb462" stroke="#000000" cx="878" cy="-104" rx="101.8419" ry="18"/>
<text text-anchor="middle" x="878" y="-99.8" font-family="Times,serif" font-size="14.00" fill="#000000">OrganizationValidators</text>
</g>
<!-- OrganizationValidators&#45;&gt;CoreModule -->
<g id="edge17" class="edge">
<title>OrganizationValidators&#45;&gt;CoreModule</title>
<path fill="none" stroke="#000000" d="M878,-122.2667C878,-140.5552 878,-166 878,-166 878,-166 1655.4919,-166 1655.4919,-166"/>
<polygon fill="#000000" stroke="#000000" points="1655.4919,-169.5001 1665.4919,-166 1655.4918,-162.5001 1655.4919,-169.5001"/>
</g>
<!-- ProjectService -->
<g id="node19" class="node">
<title>ProjectService</title>
<ellipse fill="#fdb462" stroke="#000000" cx="691" cy="-104" rx="67.1888" ry="18"/>
<text text-anchor="middle" x="691" y="-99.8" font-family="Times,serif" font-size="14.00" fill="#000000">ProjectService</text>
</g>
<!-- ProjectService&#45;&gt;CoreModule -->
<g id="edge18" class="edge">
<title>ProjectService&#45;&gt;CoreModule</title>
<path fill="none" stroke="#000000" d="M691,-122.1061C691,-141.3391 691,-169 691,-169 691,-169 1655.5835,-169 1655.5835,-169"/>
<polygon fill="#000000" stroke="#000000" points="1655.5835,-172.5001 1665.5835,-169 1655.5834,-165.5001 1655.5835,-172.5001"/>
</g>
<!-- ProjectValidators -->
<g id="node20" class="node">
<title>ProjectValidators</title>
<ellipse fill="#fdb462" stroke="#000000" cx="527" cy="-104" rx="78.724" ry="18"/>
<text text-anchor="middle" x="527" y="-99.8" font-family="Times,serif" font-size="14.00" fill="#000000">ProjectValidators</text>
</g>
<!-- ProjectValidators&#45;&gt;CoreModule -->
<g id="edge19" class="edge">
<title>ProjectValidators&#45;&gt;CoreModule</title>
<path fill="none" stroke="#000000" d="M527,-122.1289C527,-142.5724 527,-173 527,-173 527,-173 1655.5302,-173 1655.5302,-173"/>
<polygon fill="#000000" stroke="#000000" points="1655.5302,-176.5001 1665.5302,-173 1655.5301,-169.5001 1655.5302,-176.5001"/>
</g>
<!-- SearchService -->
<g id="node21" class="node">
<title>SearchService</title>
<ellipse fill="#fdb462" stroke="#000000" cx="364" cy="-104" rx="66.0281" ry="18"/>
<text text-anchor="middle" x="364" y="-99.8" font-family="Times,serif" font-size="14.00" fill="#000000">SearchService</text>
</g>
<!-- SearchService&#45;&gt;CoreModule -->
<g id="edge20" class="edge">
<title>SearchService&#45;&gt;CoreModule</title>
<path fill="none" stroke="#000000" d="M364,-122.0449C364,-143.6623 364,-177 364,-177 364,-177 1655.3942,-177 1655.3942,-177"/>
<polygon fill="#000000" stroke="#000000" points="1655.3942,-180.5001 1665.3942,-177 1655.3942,-173.5001 1655.3942,-180.5001"/>
</g>
<!-- UserService -->
<g id="node22" class="node">
<title>UserService</title>
<ellipse fill="#fdb462" stroke="#000000" cx="222" cy="-104" rx="58.4415" ry="18"/>
<text text-anchor="middle" x="222" y="-99.8" font-family="Times,serif" font-size="14.00" fill="#000000">UserService</text>
</g>
<!-- UserService&#45;&gt;CoreModule -->
<g id="edge21" class="edge">
<title>UserService&#45;&gt;CoreModule</title>
<path fill="none" stroke="#000000" d="M222,-122.0109C222,-144.4852 222,-180 222,-180 222,-180 1655.7023,-180 1655.7023,-180"/>
<polygon fill="#000000" stroke="#000000" points="1655.7023,-183.5001 1665.7023,-180 1655.7022,-176.5001 1655.7023,-183.5001"/>
</g>
<!-- ViewService -->
<g id="node23" class="node">
<title>ViewService</title>
<ellipse fill="#fdb462" stroke="#000000" cx="85" cy="-104" rx="60.8101" ry="18"/>
<text text-anchor="middle" x="85" y="-99.8" font-family="Times,serif" font-size="14.00" fill="#000000">ViewService</text>
</g>
<!-- ViewService&#45;&gt;CoreModule -->
<g id="edge22" class="edge">
<title>ViewService&#45;&gt;CoreModule</title>
<path fill="none" stroke="#000000" d="M85,-122.1532C85,-145.7566 85,-184 85,-184 85,-184 1655.5619,-184 1655.5619,-184"/>
<polygon fill="#000000" stroke="#000000" points="1655.562,-187.5001 1665.5619,-184 1655.5619,-180.5001 1655.562,-187.5001"/>
</g>
</g>
</svg>
