<?xml version="1.0" encoding="UTF-8" standalone="no"?>
<!DOCTYPE svg PUBLIC "-//W3C//DTD SVG 1.1//EN"
 "http://www.w3.org/Graphics/SVG/1.1/DTD/svg11.dtd">
<!-- Generated by graphviz version 2.40.1 (20161225.0304)
 -->
<!-- Title: dependencies Pages: 1 -->
<svg width="1248pt" height="284pt"
 viewBox="0.00 0.00 1248.00 284.00" xmlns="http://www.w3.org/2000/svg" xmlns:xlink="http://www.w3.org/1999/xlink">
<g id="graph0" class="graph" transform="scale(1 1) rotate(0) translate(4 280)">
<title>dependencies</title>
<polygon fill="#ffffff" stroke="transparent" points="-4,4 -4,-280 1244,-280 1244,4 -4,4"/>
<text text-anchor="start" x="599.0091" y="-42.4" font-family="sans-serif" font-weight="bold" font-size="14.00" fill="#000000">Legend</text>
<polygon fill="#ffffb3" stroke="transparent" points="386,-10 386,-30 406,-30 406,-10 386,-10"/>
<text text-anchor="start" x="409.629" y="-15.4" font-family="sans-serif" font-size="14.00" fill="#000000"> &#160;Declarations</text>
<polygon fill="#8dd3c7" stroke="transparent" points="499,-10 499,-30 519,-30 519,-10 499,-10"/>
<text text-anchor="start" x="522.7251" y="-15.4" font-family="sans-serif" font-size="14.00" fill="#000000"> &#160;Module</text>
<polygon fill="#80b1d3" stroke="transparent" points="585,-10 585,-30 605,-30 605,-10 585,-10"/>
<text text-anchor="start" x="608.7812" y="-15.4" font-family="sans-serif" font-size="14.00" fill="#000000"> &#160;Bootstrap</text>
<polygon fill="#fdb462" stroke="transparent" points="682,-10 682,-30 702,-30 702,-10 682,-10"/>
<text text-anchor="start" x="705.6732" y="-15.4" font-family="sans-serif" font-size="14.00" fill="#000000"> &#160;Providers</text>
<polygon fill="#fb8072" stroke="transparent" points="778,-10 778,-30 798,-30 798,-10 778,-10"/>
<text text-anchor="start" x="801.7258" y="-15.4" font-family="sans-serif" font-size="14.00" fill="#000000"> &#160;Exports</text>
<g id="clust1" class="cluster">
<title>cluster_SearchBoxPipesModule</title>
<polygon fill="none" stroke="#000000" stroke-dasharray="1,5" points="8,-70 8,-268 1232,-268 1232,-70 8,-70"/>
</g>
<g id="clust2" class="cluster">
<title>cluster_SearchBoxPipesModule_declarations</title>
<polygon fill="none" stroke="#000000" points="33,-78 33,-130 1213,-130 1213,-78 33,-78"/>
</g>
<g id="clust12" class="cluster">
<title>cluster_SearchBoxPipesModule_exports</title>
<polygon fill="none" stroke="#000000" points="16,-208 16,-260 1224,-260 1224,-208 16,-208"/>
</g>
<!-- ConditionFilterPipe -->
<g id="node1" class="node">
<title>ConditionFilterPipe</title>
<polygon fill="#ffffb3" stroke="#000000" points="1204.726,-122 1077.274,-122 1077.274,-86 1204.726,-86 1204.726,-122"/>
<text text-anchor="middle" x="1141" y="-99.8" font-family="Times,serif" font-size="14.00" fill="#000000">ConditionFilterPipe</text>
</g>
<!-- SearchBoxPipesModule -->
<g id="node9" class="node">
<title>SearchBoxPipesModule</title>
<polygon fill="#8dd3c7" stroke="#000000" points="619.8061,-187 616.8061,-191 595.8061,-191 592.8061,-187 468.1939,-187 468.1939,-151 619.8061,-151 619.8061,-187"/>
<text text-anchor="middle" x="544" y="-164.8" font-family="Times,serif" font-size="14.00" fill="#000000">SearchBoxPipesModule</text>
</g>
<!-- ConditionFilterPipe&#45;&gt;SearchBoxPipesModule -->
<g id="edge1" class="edge">
<title>ConditionFilterPipe&#45;&gt;SearchBoxPipesModule</title>
<path fill="none" stroke="#000000" d="M1081.5121,-122.2222C1081.5121,-140.8285 1081.5121,-167 1081.5121,-167 1081.5121,-167 629.8723,-167 629.8723,-167"/>
<polygon fill="#000000" stroke="#000000" points="629.8724,-163.5001 619.8723,-167 629.8723,-170.5001 629.8724,-163.5001"/>
</g>
<!-- IsAttributeItemPipe -->
<g id="node2" class="node">
<title>IsAttributeItemPipe</title>
<polygon fill="#ffffb3" stroke="#000000" points="1059.6937,-122 932.3063,-122 932.3063,-86 1059.6937,-86 1059.6937,-122"/>
<text text-anchor="middle" x="996" y="-99.8" font-family="Times,serif" font-size="14.00" fill="#000000">IsAttributeItemPipe</text>
</g>
<!-- IsAttributeItemPipe&#45;&gt;SearchBoxPipesModule -->
<g id="edge2" class="edge">
<title>IsAttributeItemPipe&#45;&gt;SearchBoxPipesModule</title>
<path fill="none" stroke="#000000" d="M1018.6156,-122.0225C1018.6156,-139.3734 1018.6156,-163 1018.6156,-163 1018.6156,-163 629.7291,-163 629.7291,-163"/>
<polygon fill="#000000" stroke="#000000" points="629.7291,-159.5001 619.7291,-163 629.729,-166.5001 629.7291,-159.5001"/>
</g>
<!-- IsCollectionItemPipe -->
<g id="node3" class="node">
<title>IsCollectionItemPipe</title>
<polygon fill="#ffffb3" stroke="#000000" points="914.4776,-122 779.5224,-122 779.5224,-86 914.4776,-86 914.4776,-122"/>
<text text-anchor="middle" x="847" y="-99.8" font-family="Times,serif" font-size="14.00" fill="#000000">IsCollectionItemPipe</text>
</g>
<!-- IsCollectionItemPipe&#45;&gt;SearchBoxPipesModule -->
<g id="edge3" class="edge">
<title>IsCollectionItemPipe&#45;&gt;SearchBoxPipesModule</title>
<path fill="none" stroke="#000000" d="M869.5796,-122.0091C869.5796,-138.0494 869.5796,-159 869.5796,-159 869.5796,-159 629.9231,-159 629.9231,-159"/>
<polygon fill="#000000" stroke="#000000" points="629.9231,-155.5001 619.9231,-159 629.923,-162.5001 629.9231,-155.5001"/>
</g>
<!-- IsDeletedItemPipe -->
<g id="node4" class="node">
<title>IsDeletedItemPipe</title>
<polygon fill="#ffffb3" stroke="#000000" points="761.1811,-122 640.8189,-122 640.8189,-86 761.1811,-86 761.1811,-122"/>
<text text-anchor="middle" x="701" y="-99.8" font-family="Times,serif" font-size="14.00" fill="#000000">IsDeletedItemPipe</text>
</g>
<!-- IsDeletedItemPipe&#45;&gt;SearchBoxPipesModule -->
<g id="edge4" class="edge">
<title>IsDeletedItemPipe&#45;&gt;SearchBoxPipesModule</title>
<path fill="none" stroke="#000000" d="M680.9698,-122.1243C680.9698,-136.7832 680.9698,-155 680.9698,-155 680.9698,-155 629.696,-155 629.696,-155"/>
<polygon fill="#000000" stroke="#000000" points="629.6961,-151.5001 619.696,-155 629.696,-158.5001 629.6961,-151.5001"/>
</g>
<!-- QueryItemBackgroundPipe -->
<g id="node5" class="node">
<title>QueryItemBackgroundPipe</title>
<polygon fill="#ffffb3" stroke="#000000" points="622.9524,-122 453.0476,-122 453.0476,-86 622.9524,-86 622.9524,-122"/>
<text text-anchor="middle" x="538" y="-99.8" font-family="Times,serif" font-size="14.00" fill="#000000">QueryItemBackgroundPipe</text>
</g>
<!-- QueryItemBackgroundPipe&#45;&gt;SearchBoxPipesModule -->
<g id="edge5" class="edge">
<title>QueryItemBackgroundPipe&#45;&gt;SearchBoxPipesModule</title>
<path fill="none" stroke="#000000" d="M544,-122.1061C544,-122.1061 544,-140.991 544,-140.991"/>
<polygon fill="#000000" stroke="#000000" points="540.5001,-140.9909 544,-150.991 547.5001,-140.991 540.5001,-140.9909"/>
</g>
<!-- QueryItemBorderPipe -->
<g id="node6" class="node">
<title>QueryItemBorderPipe</title>
<polygon fill="#ffffb3" stroke="#000000" points="435.399,-122 294.601,-122 294.601,-86 435.399,-86 435.399,-122"/>
<text text-anchor="middle" x="365" y="-99.8" font-family="Times,serif" font-size="14.00" fill="#000000">QueryItemBorderPipe</text>
</g>
<!-- QueryItemBorderPipe&#45;&gt;SearchBoxPipesModule -->
<g id="edge6" class="edge">
<title>QueryItemBorderPipe&#45;&gt;SearchBoxPipesModule</title>
<path fill="none" stroke="#000000" d="M431.5742,-122.2396C431.5742,-137.5706 431.5742,-157 431.5742,-157 431.5742,-157 458.0756,-157 458.0756,-157"/>
<polygon fill="#000000" stroke="#000000" points="458.0757,-160.5001 468.0756,-157 458.0756,-153.5001 458.0757,-160.5001"/>
</g>
<!-- QueryItemTextPipe -->
<g id="node7" class="node">
<title>QueryItemTextPipe</title>
<polygon fill="#ffffb3" stroke="#000000" points="276.6839,-122 149.3161,-122 149.3161,-86 276.6839,-86 276.6839,-122"/>
<text text-anchor="middle" x="213" y="-99.8" font-family="Times,serif" font-size="14.00" fill="#000000">QueryItemTextPipe</text>
</g>
<!-- QueryItemTextPipe&#45;&gt;SearchBoxPipesModule -->
<g id="edge7" class="edge">
<title>QueryItemTextPipe&#45;&gt;SearchBoxPipesModule</title>
<path fill="none" stroke="#000000" d="M271.4669,-122.0336C271.4669,-139.0597 271.4669,-162 271.4669,-162 271.4669,-162 458.0843,-162 458.0843,-162"/>
<polygon fill="#000000" stroke="#000000" points="458.0844,-165.5001 468.0843,-162 458.0843,-158.5001 458.0844,-165.5001"/>
</g>
<!-- TruncatePipe -->
<g id="node8" class="node">
<title>TruncatePipe</title>
<polygon fill="#ffffb3" stroke="#000000" points="131.1361,-122 40.8639,-122 40.8639,-86 131.1361,-86 131.1361,-122"/>
<text text-anchor="middle" x="86" y="-99.8" font-family="Times,serif" font-size="14.00" fill="#000000">TruncatePipe</text>
</g>
<!-- TruncatePipe&#45;&gt;SearchBoxPipesModule -->
<g id="edge8" class="edge">
<title>TruncatePipe&#45;&gt;SearchBoxPipesModule</title>
<path fill="none" stroke="#000000" d="M124.6927,-122.2222C124.6927,-140.8285 124.6927,-167 124.6927,-167 124.6927,-167 458.0666,-167 458.0666,-167"/>
<polygon fill="#000000" stroke="#000000" points="458.0666,-170.5001 468.0666,-167 458.0666,-163.5001 458.0666,-170.5001"/>
</g>
<!-- ConditionFilterPipe  -->
<g id="node10" class="node">
<title>ConditionFilterPipe </title>
<polygon fill="#fb8072" stroke="#000000" points="1216.2261,-252 1085.7739,-252 1085.7739,-216 1216.2261,-216 1216.2261,-252"/>
<text text-anchor="middle" x="1151" y="-229.8" font-family="Times,serif" font-size="14.00" fill="#000000">ConditionFilterPipe </text>
</g>
<!-- SearchBoxPipesModule&#45;&gt;ConditionFilterPipe  -->
<g id="edge9" class="edge">
<title>SearchBoxPipesModule&#45;&gt;ConditionFilterPipe </title>
<path fill="none" stroke="#000000" stroke-dasharray="5,2" d="M619.8283,-171C781.4307,-171 1145.125,-171 1145.125,-171 1145.125,-171 1145.125,-205.7778 1145.125,-205.7778"/>
<polygon fill="#000000" stroke="#000000" points="1141.6251,-205.7778 1145.125,-215.7778 1148.6251,-205.7778 1141.6251,-205.7778"/>
</g>
<!-- IsAttributeItemPipe  -->
<g id="node11" class="node">
<title>IsAttributeItemPipe </title>
<polygon fill="#fb8072" stroke="#000000" points="1067.194,-252 936.806,-252 936.806,-216 1067.194,-216 1067.194,-252"/>
<text text-anchor="middle" x="1002" y="-229.8" font-family="Times,serif" font-size="14.00" fill="#000000">IsAttributeItemPipe </text>
</g>
<!-- SearchBoxPipesModule&#45;&gt;IsAttributeItemPipe  -->
<g id="edge10" class="edge">
<title>SearchBoxPipesModule&#45;&gt;IsAttributeItemPipe </title>
<path fill="none" stroke="#000000" stroke-dasharray="5,2" d="M620.0296,-175C744.394,-175 977.6344,-175 977.6344,-175 977.6344,-175 977.6344,-205.9775 977.6344,-205.9775"/>
<polygon fill="#000000" stroke="#000000" points="974.1345,-205.9774 977.6344,-215.9775 981.1345,-205.9775 974.1345,-205.9774"/>
</g>
<!-- IsCollectionItemPipe  -->
<g id="node12" class="node">
<title>IsCollectionItemPipe </title>
<polygon fill="#fb8072" stroke="#000000" points="918.4784,-252 779.5216,-252 779.5216,-216 918.4784,-216 918.4784,-252"/>
<text text-anchor="middle" x="849" y="-229.8" font-family="Times,serif" font-size="14.00" fill="#000000">IsCollectionItemPipe </text>
</g>
<!-- SearchBoxPipesModule&#45;&gt;IsCollectionItemPipe  -->
<g id="edge11" class="edge">
<title>SearchBoxPipesModule&#45;&gt;IsCollectionItemPipe </title>
<path fill="none" stroke="#000000" stroke-dasharray="5,2" d="M619.9535,-179C703.0752,-179 824.6704,-179 824.6704,-179 824.6704,-179 824.6704,-205.9909 824.6704,-205.9909"/>
<polygon fill="#000000" stroke="#000000" points="821.1705,-205.9909 824.6704,-215.9909 828.1705,-205.991 821.1705,-205.9909"/>
</g>
<!-- IsDeletedItemPipe  -->
<g id="node13" class="node">
<title>IsDeletedItemPipe </title>
<polygon fill="#fb8072" stroke="#000000" points="761.6814,-252 638.3186,-252 638.3186,-216 761.6814,-216 761.6814,-252"/>
<text text-anchor="middle" x="700" y="-229.8" font-family="Times,serif" font-size="14.00" fill="#000000">IsDeletedItemPipe </text>
</g>
<!-- SearchBoxPipesModule&#45;&gt;IsDeletedItemPipe  -->
<g id="edge12" class="edge">
<title>SearchBoxPipesModule&#45;&gt;IsDeletedItemPipe </title>
<path fill="none" stroke="#000000" stroke-dasharray="5,2" d="M619.8471,-183C667.8961,-183 721.0302,-183 721.0302,-183 721.0302,-183 721.0302,-205.8757 721.0302,-205.8757"/>
<polygon fill="#000000" stroke="#000000" points="717.5303,-205.8757 721.0302,-215.8757 724.5303,-205.8757 717.5303,-205.8757"/>
</g>
<!-- QueryItemBackgroundPipe  -->
<g id="node14" class="node">
<title>QueryItemBackgroundPipe </title>
<polygon fill="#fb8072" stroke="#000000" points="619.953,-252 446.047,-252 446.047,-216 619.953,-216 619.953,-252"/>
<text text-anchor="middle" x="533" y="-229.8" font-family="Times,serif" font-size="14.00" fill="#000000">QueryItemBackgroundPipe </text>
</g>
<!-- SearchBoxPipesModule&#45;&gt;QueryItemBackgroundPipe  -->
<g id="edge13" class="edge">
<title>SearchBoxPipesModule&#45;&gt;QueryItemBackgroundPipe </title>
<path fill="none" stroke="#000000" stroke-dasharray="5,2" d="M544,-187.1061C544,-187.1061 544,-205.991 544,-205.991"/>
<polygon fill="#000000" stroke="#000000" points="540.5001,-205.9909 544,-215.991 547.5001,-205.991 540.5001,-205.9909"/>
</g>
<!-- QueryItemBorderPipe  -->
<g id="node15" class="node">
<title>QueryItemBorderPipe </title>
<polygon fill="#fb8072" stroke="#000000" points="427.8984,-252 284.1016,-252 284.1016,-216 427.8984,-216 427.8984,-252"/>
<text text-anchor="middle" x="356" y="-229.8" font-family="Times,serif" font-size="14.00" fill="#000000">QueryItemBorderPipe </text>
</g>
<!-- SearchBoxPipesModule&#45;&gt;QueryItemBorderPipe  -->
<g id="edge14" class="edge">
<title>SearchBoxPipesModule&#45;&gt;QueryItemBorderPipe </title>
<path fill="none" stroke="#000000" stroke-dasharray="5,2" d="M468.1371,-182C417.9611,-182 361.375,-182 361.375,-182 361.375,-182 361.375,-205.8129 361.375,-205.8129"/>
<polygon fill="#000000" stroke="#000000" points="357.8751,-205.8129 361.375,-215.8129 364.8751,-205.813 357.8751,-205.8129"/>
</g>
<!-- QueryItemTextPipe  -->
<g id="node16" class="node">
<title>QueryItemTextPipe </title>
<polygon fill="#fb8072" stroke="#000000" points="266.1842,-252 135.8158,-252 135.8158,-216 266.1842,-216 266.1842,-252"/>
<text text-anchor="middle" x="201" y="-229.8" font-family="Times,serif" font-size="14.00" fill="#000000">QueryItemTextPipe </text>
</g>
<!-- SearchBoxPipesModule&#45;&gt;QueryItemTextPipe  -->
<g id="edge15" class="edge">
<title>SearchBoxPipesModule&#45;&gt;QueryItemTextPipe </title>
<path fill="none" stroke="#000000" stroke-dasharray="5,2" d="M468.1479,-177C369.0113,-177 207.875,-177 207.875,-177 207.875,-177 207.875,-205.9648 207.875,-205.9648"/>
<polygon fill="#000000" stroke="#000000" points="204.3751,-205.9648 207.875,-215.9648 211.3751,-205.9649 204.3751,-205.9648"/>
</g>
<!-- TruncatePipe  -->
<g id="node17" class="node">
<title>TruncatePipe </title>
<polygon fill="#fb8072" stroke="#000000" points="118.1355,-252 23.8645,-252 23.8645,-216 118.1355,-216 118.1355,-252"/>
<text text-anchor="middle" x="71" y="-229.8" font-family="Times,serif" font-size="14.00" fill="#000000">TruncatePipe </text>
</g>
<!-- SearchBoxPipesModule&#45;&gt;TruncatePipe  -->
<g id="edge16" class="edge">
<title>SearchBoxPipesModule&#45;&gt;TruncatePipe </title>
<path fill="none" stroke="#000000" stroke-dasharray="5,2" d="M468.3159,-172C336.6589,-172 79.375,-172 79.375,-172 79.375,-172 79.375,-205.7333 79.375,-205.7333"/>
<polygon fill="#000000" stroke="#000000" points="75.8751,-205.7333 79.375,-215.7333 82.8751,-205.7333 75.8751,-205.7333"/>
</g>
</g>
</svg>
