<?xml version="1.0" encoding="UTF-8" standalone="no"?>
<!DOCTYPE svg PUBLIC "-//W3C//DTD SVG 1.1//EN"
 "http://www.w3.org/Graphics/SVG/1.1/DTD/svg11.dtd">
<!-- Generated by graphviz version 2.40.1 (20161225.0304)
 -->
<!-- Title: dependencies Pages: 1 -->
<svg width="911pt" height="284pt"
 viewBox="0.00 0.00 911.00 284.00" xmlns="http://www.w3.org/2000/svg" xmlns:xlink="http://www.w3.org/1999/xlink">
<g id="graph0" class="graph" transform="scale(1 1) rotate(0) translate(4 280)">
<title>dependencies</title>
<polygon fill="#ffffff" stroke="transparent" points="-4,4 -4,-280 907,-280 907,4 -4,4"/>
<text text-anchor="start" x="430.5091" y="-42.4" font-family="sans-serif" font-weight="bold" font-size="14.00" fill="#000000">Legend</text>
<polygon fill="#ffffb3" stroke="transparent" points="217.5,-10 217.5,-30 237.5,-30 237.5,-10 217.5,-10"/>
<text text-anchor="start" x="241.129" y="-15.4" font-family="sans-serif" font-size="14.00" fill="#000000"> &#160;Declarations</text>
<polygon fill="#8dd3c7" stroke="transparent" points="330.5,-10 330.5,-30 350.5,-30 350.5,-10 330.5,-10"/>
<text text-anchor="start" x="354.2251" y="-15.4" font-family="sans-serif" font-size="14.00" fill="#000000"> &#160;Module</text>
<polygon fill="#80b1d3" stroke="transparent" points="416.5,-10 416.5,-30 436.5,-30 436.5,-10 416.5,-10"/>
<text text-anchor="start" x="440.2812" y="-15.4" font-family="sans-serif" font-size="14.00" fill="#000000"> &#160;Bootstrap</text>
<polygon fill="#fdb462" stroke="transparent" points="513.5,-10 513.5,-30 533.5,-30 533.5,-10 513.5,-10"/>
<text text-anchor="start" x="537.1732" y="-15.4" font-family="sans-serif" font-size="14.00" fill="#000000"> &#160;Providers</text>
<polygon fill="#fb8072" stroke="transparent" points="609.5,-10 609.5,-30 629.5,-30 629.5,-10 609.5,-10"/>
<text text-anchor="start" x="633.2258" y="-15.4" font-family="sans-serif" font-size="14.00" fill="#000000"> &#160;Exports</text>
<g id="clust1" class="cluster">
<title>cluster_PickerModule</title>
<polygon fill="none" stroke="#000000" stroke-dasharray="1,5" points="8,-70 8,-268 895,-268 895,-70 8,-70"/>
</g>
<g id="clust2" class="cluster">
<title>cluster_PickerModule_declarations</title>
<polygon fill="none" stroke="#000000" points="16,-78 16,-130 887,-130 887,-78 16,-78"/>
</g>
<g id="clust10" class="cluster">
<title>cluster_PickerModule_exports</title>
<polygon fill="none" stroke="#000000" points="117,-208 117,-260 762,-260 762,-208 117,-208"/>
</g>
<!-- ColorPickerComponent -->
<g id="node1" class="node">
<title>ColorPickerComponent</title>
<polygon fill="#ffffb3" stroke="#000000" points="879.4832,-122 730.5168,-122 730.5168,-86 879.4832,-86 879.4832,-122"/>
<text text-anchor="middle" x="805" y="-99.8" font-family="Times,serif" font-size="14.00" fill="#000000">ColorPickerComponent</text>
</g>
<!-- PickerModule -->
<g id="node7" class="node">
<title>PickerModule</title>
<polygon fill="#8dd3c7" stroke="#000000" points="503.8133,-187 500.8133,-191 479.8133,-191 476.8133,-187 408.1867,-187 408.1867,-151 503.8133,-151 503.8133,-187"/>
<text text-anchor="middle" x="456" y="-164.8" font-family="Times,serif" font-size="14.00" fill="#000000">PickerModule</text>
</g>
<!-- ColorPickerComponent&#45;&gt;PickerModule -->
<g id="edge1" class="edge">
<title>ColorPickerComponent&#45;&gt;PickerModule</title>
<path fill="none" stroke="#000000" d="M742.375,-122.1061C742.375,-141.3391 742.375,-169 742.375,-169 742.375,-169 513.9327,-169 513.9327,-169"/>
<polygon fill="#000000" stroke="#000000" points="513.9328,-165.5001 503.9327,-169 513.9327,-172.5001 513.9328,-165.5001"/>
</g>
<!-- HighlightColorPipe -->
<g id="node2" class="node">
<title>HighlightColorPipe</title>
<polygon fill="#ffffb3" stroke="#000000" points="712.4454,-122 585.5546,-122 585.5546,-86 712.4454,-86 712.4454,-122"/>
<text text-anchor="middle" x="649" y="-99.8" font-family="Times,serif" font-size="14.00" fill="#000000">HighlightColorPipe</text>
</g>
<!-- HighlightColorPipe&#45;&gt;PickerModule -->
<g id="edge2" class="edge">
<title>HighlightColorPipe&#45;&gt;PickerModule</title>
<path fill="none" stroke="#000000" d="M593.768,-122.027C593.768,-138.3976 593.768,-160 593.768,-160 593.768,-160 513.7979,-160 513.7979,-160"/>
<polygon fill="#000000" stroke="#000000" points="513.798,-156.5001 503.7979,-160 513.7979,-163.5001 513.798,-156.5001"/>
</g>
<!-- IconComponent -->
<g id="node3" class="node">
<title>IconComponent</title>
<polygon fill="#ffffb3" stroke="#000000" points="568.2078,-122 461.7922,-122 461.7922,-86 568.2078,-86 568.2078,-122"/>
<text text-anchor="middle" x="515" y="-99.8" font-family="Times,serif" font-size="14.00" fill="#000000">IconComponent</text>
</g>
<!-- IconComponent&#45;&gt;PickerModule -->
<g id="edge3" class="edge">
<title>IconComponent&#45;&gt;PickerModule</title>
<path fill="none" stroke="#000000" d="M482.7763,-122.1061C482.7763,-122.1061 482.7763,-140.991 482.7763,-140.991"/>
<polygon fill="#000000" stroke="#000000" points="479.2764,-140.9909 482.7763,-150.991 486.2764,-140.991 479.2764,-140.9909"/>
</g>
<!-- IconIdPipe -->
<g id="node4" class="node">
<title>IconIdPipe</title>
<polygon fill="#ffffb3" stroke="#000000" points="443.9248,-122 366.0752,-122 366.0752,-86 443.9248,-86 443.9248,-122"/>
<text text-anchor="middle" x="405" y="-99.8" font-family="Times,serif" font-size="14.00" fill="#000000">IconIdPipe</text>
</g>
<!-- IconIdPipe&#45;&gt;PickerModule -->
<g id="edge4" class="edge">
<title>IconIdPipe&#45;&gt;PickerModule</title>
<path fill="none" stroke="#000000" d="M426.0277,-122.1061C426.0277,-122.1061 426.0277,-140.991 426.0277,-140.991"/>
<polygon fill="#000000" stroke="#000000" points="422.5278,-140.9909 426.0277,-150.991 429.5278,-140.991 422.5278,-140.9909"/>
</g>
<!-- IconPickerComponent -->
<g id="node5" class="node">
<title>IconPickerComponent</title>
<polygon fill="#ffffb3" stroke="#000000" points="347.9706,-122 206.0294,-122 206.0294,-86 347.9706,-86 347.9706,-122"/>
<text text-anchor="middle" x="277" y="-99.8" font-family="Times,serif" font-size="14.00" fill="#000000">IconPickerComponent</text>
</g>
<!-- IconPickerComponent&#45;&gt;PickerModule -->
<g id="edge5" class="edge">
<title>IconPickerComponent&#45;&gt;PickerModule</title>
<path fill="none" stroke="#000000" d="M329.125,-122.027C329.125,-138.3976 329.125,-160 329.125,-160 329.125,-160 398.034,-160 398.034,-160"/>
<polygon fill="#000000" stroke="#000000" points="398.034,-163.5001 408.034,-160 398.034,-156.5001 398.034,-163.5001"/>
</g>
<!-- IconsPresenterComponent -->
<g id="node6" class="node">
<title>IconsPresenterComponent</title>
<polygon fill="#ffffb3" stroke="#000000" points="187.7352,-122 24.2648,-122 24.2648,-86 187.7352,-86 187.7352,-122"/>
<text text-anchor="middle" x="106" y="-99.8" font-family="Times,serif" font-size="14.00" fill="#000000">IconsPresenterComponent</text>
</g>
<!-- IconsPresenterComponent&#45;&gt;PickerModule -->
<g id="edge6" class="edge">
<title>IconsPresenterComponent&#45;&gt;PickerModule</title>
<path fill="none" stroke="#000000" d="M156.625,-122.1061C156.625,-141.3391 156.625,-169 156.625,-169 156.625,-169 398.2321,-169 398.2321,-169"/>
<polygon fill="#000000" stroke="#000000" points="398.2321,-172.5001 408.2321,-169 398.2321,-165.5001 398.2321,-172.5001"/>
</g>
<!-- ColorPickerComponent  -->
<g id="node8" class="node">
<title>ColorPickerComponent </title>
<polygon fill="#fb8072" stroke="#000000" points="754.484,-252 601.516,-252 601.516,-216 754.484,-216 754.484,-252"/>
<text text-anchor="middle" x="678" y="-229.8" font-family="Times,serif" font-size="14.00" fill="#000000">ColorPickerComponent </text>
</g>
<!-- PickerModule&#45;&gt;ColorPickerComponent  -->
<g id="edge7" class="edge">
<title>PickerModule&#45;&gt;ColorPickerComponent </title>
<path fill="none" stroke="#000000" stroke-dasharray="5,2" d="M503.8868,-178C563.3356,-178 656.9904,-178 656.9904,-178 656.9904,-178 656.9904,-205.973 656.9904,-205.973"/>
<polygon fill="#000000" stroke="#000000" points="653.4904,-205.973 656.9904,-215.973 660.4904,-205.973 653.4904,-205.973"/>
</g>
<!-- IconComponent  -->
<g id="node9" class="node">
<title>IconComponent </title>
<polygon fill="#fb8072" stroke="#000000" points="583.708,-252 474.292,-252 474.292,-216 583.708,-216 583.708,-252"/>
<text text-anchor="middle" x="529" y="-229.8" font-family="Times,serif" font-size="14.00" fill="#000000">IconComponent </text>
</g>
<!-- PickerModule&#45;&gt;IconComponent  -->
<g id="edge8" class="edge">
<title>PickerModule&#45;&gt;IconComponent </title>
<path fill="none" stroke="#000000" stroke-dasharray="5,2" d="M488.9013,-187.1061C488.9013,-187.1061 488.9013,-205.991 488.9013,-205.991"/>
<polygon fill="#000000" stroke="#000000" points="485.4014,-205.9909 488.9013,-215.991 492.4014,-205.991 485.4014,-205.9909"/>
</g>
<!-- IconPickerComponent  -->
<g id="node10" class="node">
<title>IconPickerComponent </title>
<polygon fill="#fb8072" stroke="#000000" points="455.9714,-252 310.0286,-252 310.0286,-216 455.9714,-216 455.9714,-252"/>
<text text-anchor="middle" x="383" y="-229.8" font-family="Times,serif" font-size="14.00" fill="#000000">IconPickerComponent </text>
</g>
<!-- PickerModule&#45;&gt;IconPickerComponent  -->
<g id="edge9" class="edge">
<title>PickerModule&#45;&gt;IconPickerComponent </title>
<path fill="none" stroke="#000000" stroke-dasharray="5,2" d="M432.0395,-187.1061C432.0395,-187.1061 432.0395,-205.991 432.0395,-205.991"/>
<polygon fill="#000000" stroke="#000000" points="428.5395,-205.9909 432.0395,-215.991 435.5395,-205.991 428.5395,-205.9909"/>
</g>
<!-- IconsPresenterComponent  -->
<g id="node11" class="node">
<title>IconsPresenterComponent </title>
<polygon fill="#fb8072" stroke="#000000" points="292.7352,-252 125.2648,-252 125.2648,-216 292.7352,-216 292.7352,-252"/>
<text text-anchor="middle" x="209" y="-229.8" font-family="Times,serif" font-size="14.00" fill="#000000">IconsPresenterComponent </text>
</g>
<!-- PickerModule&#45;&gt;IconsPresenterComponent  -->
<g id="edge10" class="edge">
<title>PickerModule&#45;&gt;IconsPresenterComponent </title>
<path fill="none" stroke="#000000" stroke-dasharray="5,2" d="M408.323,-178C347.2843,-178 249.3161,-178 249.3161,-178 249.3161,-178 249.3161,-205.973 249.3161,-205.973"/>
<polygon fill="#000000" stroke="#000000" points="245.8162,-205.973 249.3161,-215.973 252.8162,-205.973 245.8162,-205.973"/>
</g>
</g>
</svg>
