<?xml version="1.0" encoding="UTF-8" standalone="no"?>
<!DOCTYPE svg PUBLIC "-//W3C//DTD SVG 1.1//EN"
 "http://www.w3.org/Graphics/SVG/1.1/DTD/svg11.dtd">
<!-- Generated by graphviz version 2.40.1 (20161225.0304)
 -->
<!-- Title: dependencies Pages: 1 -->
<svg width="685pt" height="284pt"
 viewBox="0.00 0.00 685.00 284.00" xmlns="http://www.w3.org/2000/svg" xmlns:xlink="http://www.w3.org/1999/xlink">
<g id="graph0" class="graph" transform="scale(1 1) rotate(0) translate(4 280)">
<title>dependencies</title>
<polygon fill="#ffffff" stroke="transparent" points="-4,4 -4,-280 681,-280 681,4 -4,4"/>
<text text-anchor="start" x="317.5091" y="-42.4" font-family="sans-serif" font-weight="bold" font-size="14.00" fill="#000000">Legend</text>
<polygon fill="#ffffb3" stroke="transparent" points="104.5,-10 104.5,-30 124.5,-30 124.5,-10 104.5,-10"/>
<text text-anchor="start" x="128.129" y="-15.4" font-family="sans-serif" font-size="14.00" fill="#000000"> &#160;Declarations</text>
<polygon fill="#8dd3c7" stroke="transparent" points="217.5,-10 217.5,-30 237.5,-30 237.5,-10 217.5,-10"/>
<text text-anchor="start" x="241.2251" y="-15.4" font-family="sans-serif" font-size="14.00" fill="#000000"> &#160;Module</text>
<polygon fill="#80b1d3" stroke="transparent" points="303.5,-10 303.5,-30 323.5,-30 323.5,-10 303.5,-10"/>
<text text-anchor="start" x="327.2812" y="-15.4" font-family="sans-serif" font-size="14.00" fill="#000000"> &#160;Bootstrap</text>
<polygon fill="#fdb462" stroke="transparent" points="400.5,-10 400.5,-30 420.5,-30 420.5,-10 400.5,-10"/>
<text text-anchor="start" x="424.1732" y="-15.4" font-family="sans-serif" font-size="14.00" fill="#000000"> &#160;Providers</text>
<polygon fill="#fb8072" stroke="transparent" points="496.5,-10 496.5,-30 516.5,-30 516.5,-10 496.5,-10"/>
<text text-anchor="start" x="520.2258" y="-15.4" font-family="sans-serif" font-size="14.00" fill="#000000"> &#160;Exports</text>
<g id="clust1" class="cluster">
<title>cluster_PickerModule</title>
<polygon fill="none" stroke="#000000" stroke-dasharray="1,5" points="8,-70 8,-268 669,-268 669,-70 8,-70"/>
</g>
<g id="clust2" class="cluster">
<title>cluster_PickerModule_declarations</title>
<polygon fill="none" stroke="#000000" points="24,-78 24,-130 655,-130 655,-78 24,-78"/>
</g>
<g id="clust8" class="cluster">
<title>cluster_PickerModule_exports</title>
<polygon fill="none" stroke="#000000" points="16,-208 16,-260 661,-260 661,-208 16,-208"/>
</g>
<!-- ColorPickerComponent -->
<g id="node1" class="node">
<title>ColorPickerComponent</title>
<polygon fill="#ffffb3" stroke="#000000" points="647.4832,-122 498.5168,-122 498.5168,-86 647.4832,-86 647.4832,-122"/>
<text text-anchor="middle" x="573" y="-99.8" font-family="Times,serif" font-size="14.00" fill="#000000">ColorPickerComponent</text>
</g>
<!-- PickerModule -->
<g id="node5" class="node">
<title>PickerModule</title>
<polygon fill="#8dd3c7" stroke="#000000" points="334.8133,-187 331.8133,-191 310.8133,-191 307.8133,-187 239.1867,-187 239.1867,-151 334.8133,-151 334.8133,-187"/>
<text text-anchor="middle" x="287" y="-164.8" font-family="Times,serif" font-size="14.00" fill="#000000">PickerModule</text>
</g>
<!-- ColorPickerComponent&#45;&gt;PickerModule -->
<g id="edge1" class="edge">
<title>ColorPickerComponent&#45;&gt;PickerModule</title>
<path fill="none" stroke="#000000" d="M598.5805,-122.2667C598.5805,-140.5552 598.5805,-166 598.5805,-166 598.5805,-166 344.6615,-166 344.6615,-166"/>
<polygon fill="#000000" stroke="#000000" points="344.6616,-162.5001 334.6615,-166 344.6615,-169.5001 344.6616,-162.5001"/>
</g>
<!-- IconComponent -->
<g id="node2" class="node">
<title>IconComponent</title>
<polygon fill="#ffffb3" stroke="#000000" points="480.2078,-122 373.7922,-122 373.7922,-86 480.2078,-86 480.2078,-122"/>
<text text-anchor="middle" x="427" y="-99.8" font-family="Times,serif" font-size="14.00" fill="#000000">IconComponent</text>
</g>
<!-- IconComponent&#45;&gt;PickerModule -->
<g id="edge2" class="edge">
<title>IconComponent&#45;&gt;PickerModule</title>
<path fill="none" stroke="#000000" d="M444.7013,-122.0091C444.7013,-138.0494 444.7013,-159 444.7013,-159 444.7013,-159 344.7435,-159 344.7435,-159"/>
<polygon fill="#000000" stroke="#000000" points="344.7436,-155.5001 334.7435,-159 344.7435,-162.5001 344.7436,-155.5001"/>
</g>
<!-- IconPickerComponent -->
<g id="node3" class="node">
<title>IconPickerComponent</title>
<polygon fill="#ffffb3" stroke="#000000" points="355.9706,-122 214.0294,-122 214.0294,-86 355.9706,-86 355.9706,-122"/>
<text text-anchor="middle" x="285" y="-99.8" font-family="Times,serif" font-size="14.00" fill="#000000">IconPickerComponent</text>
</g>
<!-- IconPickerComponent&#45;&gt;PickerModule -->
<g id="edge3" class="edge">
<title>IconPickerComponent&#45;&gt;PickerModule</title>
<path fill="none" stroke="#000000" d="M287,-122.1061C287,-122.1061 287,-140.991 287,-140.991"/>
<polygon fill="#000000" stroke="#000000" points="283.5001,-140.9909 287,-150.991 290.5001,-140.991 283.5001,-140.9909"/>
</g>
<!-- IconsPresenterComponent -->
<g id="node4" class="node">
<title>IconsPresenterComponent</title>
<polygon fill="#ffffb3" stroke="#000000" points="195.7352,-122 32.2648,-122 32.2648,-86 195.7352,-86 195.7352,-122"/>
<text text-anchor="middle" x="114" y="-99.8" font-family="Times,serif" font-size="14.00" fill="#000000">IconsPresenterComponent</text>
</g>
<!-- IconsPresenterComponent&#45;&gt;PickerModule -->
<g id="edge4" class="edge">
<title>IconsPresenterComponent&#45;&gt;PickerModule</title>
<path fill="none" stroke="#000000" d="M138.4558,-122.0225C138.4558,-139.3734 138.4558,-163 138.4558,-163 138.4558,-163 229.182,-163 229.182,-163"/>
<polygon fill="#000000" stroke="#000000" points="229.1821,-166.5001 239.182,-163 229.182,-159.5001 229.1821,-166.5001"/>
</g>
<!-- ColorPickerComponent  -->
<g id="node6" class="node">
<title>ColorPickerComponent </title>
<polygon fill="#fb8072" stroke="#000000" points="653.484,-252 500.516,-252 500.516,-216 653.484,-216 653.484,-252"/>
<text text-anchor="middle" x="577" y="-229.8" font-family="Times,serif" font-size="14.00" fill="#000000">ColorPickerComponent </text>
</g>
<!-- PickerModule&#45;&gt;ColorPickerComponent  -->
<g id="edge5" class="edge">
<title>PickerModule&#45;&gt;ColorPickerComponent </title>
<path fill="none" stroke="#000000" stroke-dasharray="5,2" d="M334.8722,-173C410.6351,-173 549.6695,-173 549.6695,-173 549.6695,-173 549.6695,-205.698 549.6695,-205.698"/>
<polygon fill="#000000" stroke="#000000" points="546.1696,-205.698 549.6695,-215.698 553.1696,-205.698 546.1696,-205.698"/>
</g>
<!-- IconComponent  -->
<g id="node7" class="node">
<title>IconComponent </title>
<polygon fill="#fb8072" stroke="#000000" points="482.708,-252 373.292,-252 373.292,-216 482.708,-216 482.708,-252"/>
<text text-anchor="middle" x="428" y="-229.8" font-family="Times,serif" font-size="14.00" fill="#000000">IconComponent </text>
</g>
<!-- PickerModule&#45;&gt;IconComponent  -->
<g id="edge6" class="edge">
<title>PickerModule&#45;&gt;IconComponent </title>
<path fill="none" stroke="#000000" stroke-dasharray="5,2" d="M334.9847,-180C369.2474,-180 409.2987,-180 409.2987,-180 409.2987,-180 409.2987,-205.7181 409.2987,-205.7181"/>
<polygon fill="#000000" stroke="#000000" points="405.7988,-205.718 409.2987,-215.7181 412.7988,-205.7181 405.7988,-205.718"/>
</g>
<!-- IconPickerComponent  -->
<g id="node8" class="node">
<title>IconPickerComponent </title>
<polygon fill="#fb8072" stroke="#000000" points="354.9714,-252 209.0286,-252 209.0286,-216 354.9714,-216 354.9714,-252"/>
<text text-anchor="middle" x="282" y="-229.8" font-family="Times,serif" font-size="14.00" fill="#000000">IconPickerComponent </text>
</g>
<!-- PickerModule&#45;&gt;IconPickerComponent  -->
<g id="edge7" class="edge">
<title>PickerModule&#45;&gt;IconPickerComponent </title>
<path fill="none" stroke="#000000" stroke-dasharray="5,2" d="M287,-187.1061C287,-187.1061 287,-205.991 287,-205.991"/>
<polygon fill="#000000" stroke="#000000" points="283.5001,-205.9909 287,-215.991 290.5001,-205.991 283.5001,-205.9909"/>
</g>
<!-- IconsPresenterComponent  -->
<g id="node9" class="node">
<title>IconsPresenterComponent </title>
<polygon fill="#fb8072" stroke="#000000" points="191.7352,-252 24.2648,-252 24.2648,-216 191.7352,-216 191.7352,-252"/>
<text text-anchor="middle" x="108" y="-229.8" font-family="Times,serif" font-size="14.00" fill="#000000">IconsPresenterComponent </text>
</g>
<!-- PickerModule&#45;&gt;IconsPresenterComponent  -->
<g id="edge8" class="edge">
<title>PickerModule&#45;&gt;IconsPresenterComponent </title>
<path fill="none" stroke="#000000" stroke-dasharray="5,2" d="M239.1985,-175C179.5514,-175 85.2942,-175 85.2942,-175 85.2942,-175 85.2942,-205.9775 85.2942,-205.9775"/>
<polygon fill="#000000" stroke="#000000" points="81.7943,-205.9774 85.2942,-215.9775 88.7943,-205.9775 81.7943,-205.9774"/>
</g>
</g>
</svg>
